<svg viewBox="0 0 106 106" fill="none" xmlns="http://www.w3.org/2000/svg">
<path fill-rule="evenodd" clip-rule="evenodd" d="M51.4747 105.466C71.8498 105.731 96.099 105.03 103.239 81.0488C111.014 54.9346 97.6736 27.4342 79.4356 11.554C62.5232 -3.17207 40.3869 -3.24835 23.6026 11.7074C6.17864 27.2333 -4.56365 54.5981 2.91102 79.742C9.70748 102.604 32.0538 105.213 51.4747 105.466Z" fill="#F5F5F5"/>
<ellipse cx="53" cy="98.6752" rx="31.5" ry="2.1" fill="#DFDFE2"/>
<path d="M20.2945 53.5781L23.2885 74.8811C24.0013 79.9529 28.6906 83.4866 33.7625 82.7738L37.4932 82.2495L80.4797 76.2081C89.2303 74.9783 95.3271 66.8876 94.0973 58.1371L92.0479 43.5554C90.8181 34.8048 82.7274 28.708 73.9769 29.9379L73.4633 30.01L63.993 31.341L44.7653 34.0433L41.8956 34.4466L39.0258 34.8499L33.8601 35.5759C25.1429 36.801 19.0694 44.8609 20.2945 53.5781Z" fill="white"/>
<path d="M33.7625 82.7738V82.7738C28.6906 83.4866 24.0013 79.9529 23.2885 74.8811L20.2945 53.5781C19.0694 44.8609 25.1429 36.801 33.8601 35.5759V35.5759L39.0258 34.8499L41.8956 34.4466L44.7653 34.0433L63.993 31.341M37.4932 82.2495L80.4797 76.2081C89.2303 74.9783 95.3271 66.8876 94.0973 58.1371L92.0479 43.5554C90.8181 34.8048 82.7274 28.708 73.9769 29.9379L73.4633 30.01" stroke="#2C304E" stroke-linecap="round"/>
<path d="M29.511 70.1172L50.3066 67.1946" stroke="#ECECEE" stroke-width="4" stroke-linecap="round"/>
<path d="M30.2781 75.5762L54.453 72.1786M61.4715 71.1922L58.3522 71.6306" stroke="#ECECEE" stroke-width="4" stroke-linecap="round"/>
<path d="M18.1606 50.3202L15.1666 71.6233C14.4538 76.6951 17.9875 81.3845 23.0593 82.0973L26.7901 82.6216L69.7766 88.663C78.5272 89.8928 86.6179 83.796 87.8477 75.0454L89.897 60.4637C91.1268 51.7132 85.03 43.6225 76.2795 42.3927L75.7659 42.3205L66.2956 40.9895L47.0679 38.2873L44.1982 37.884L41.3284 37.4806L36.1627 36.7546C27.4455 35.5295 19.3857 41.6031 18.1606 50.3202Z" fill="white"/>
<path d="M23.0593 82.0973V82.0973C17.9875 81.3845 14.4538 76.6951 15.1666 71.6233L18.1606 50.3203C19.3857 41.6031 27.4455 35.5295 36.1627 36.7546V36.7546L41.3284 37.4806L44.1982 37.884L47.0679 38.2873L66.2956 40.9895M26.7901 82.6216L69.7766 88.663C78.5272 89.8928 86.6179 83.796 87.8477 75.0454L89.897 60.4637C91.1268 51.7132 85.03 43.6225 76.2795 42.3927L75.7659 42.3205" stroke="#2C304E" stroke-linecap="round"/>
<path d="M22.4612 68.7588L43.2568 71.6814" stroke="#ECECEE" stroke-width="4" stroke-linecap="round"/>
<path d="M21.6941 74.2178L45.869 77.6153M52.8875 78.6017L49.7682 78.1633" stroke="#ECECEE" stroke-width="4" stroke-linecap="round"/>
<path d="M87.3554 77.3194C87.1168 77.1803 87.0363 76.8741 87.1754 76.6356C87.3146 76.3971 87.6207 76.3165 87.8593 76.4557L87.3554 77.3194ZM95.1537 89.0514L95.2092 88.5545L95.1537 89.0514ZM11.2143 44.3041C11.012 44.1162 11.0004 43.7998 11.1884 43.5975C11.3763 43.3952 11.6927 43.3836 11.895 43.5716L11.2143 44.3041ZM21.6437 37.0461C21.8965 37.1571 22.0114 37.4521 21.9004 37.7049C21.7893 37.9577 21.4943 38.0727 21.2415 37.9616L21.6437 37.0461ZM80.8432 84.6495C80.5853 84.5509 80.4561 84.2619 80.5547 84.0039C80.6534 83.746 80.9424 83.6168 81.2003 83.7154L80.8432 84.6495ZM61.0986 75.1426C61.3484 75.2604 61.4555 75.5583 61.3377 75.8081C61.22 76.0579 60.922 76.1649 60.6723 76.0472L61.0986 75.1426ZM69.2519 79.3789L69.0529 79.8376C68.8007 79.7282 68.6841 79.4356 68.7919 79.1827C68.8998 78.9298 69.1917 78.8114 69.4452 78.9178L69.2519 79.3789ZM78.0168 83.0549L78.2102 82.5938C78.4637 82.7002 78.5839 82.9913 78.479 83.2455C78.3742 83.4997 78.0838 83.6216 77.829 83.5183L78.0168 83.0549ZM13.8994 46.059L14.23 45.6838L13.8994 46.059ZM8.11057 39.9327C8.27381 40.1554 8.22559 40.4683 8.00286 40.6315C7.78014 40.7948 7.46725 40.7465 7.30401 40.5238L8.11057 39.9327ZM11.7935 32.8571C12.058 32.9365 12.208 33.2153 12.1286 33.4798C12.0491 33.7443 11.7704 33.8943 11.5059 33.8149L11.7935 32.8571ZM15.8888 35.6977C15.6373 35.5836 15.5259 35.2873 15.6399 35.0358C15.7539 34.7843 16.0502 34.6729 16.3017 34.7869L15.8888 35.6977ZM87.8593 76.4557C90.6301 78.0721 95.2137 81.4395 97.7852 84.278C98.4298 84.9894 98.9653 85.6862 99.3131 86.3292C99.6513 86.9545 99.8627 87.6213 99.7044 88.2271C99.5322 88.8861 98.9804 89.2887 98.2251 89.4843C97.4795 89.6773 96.4459 89.6989 95.0982 89.5483L95.2092 88.5545C96.5133 88.7002 97.4041 88.6639 97.9745 88.5162C98.5351 88.3711 98.691 88.1502 98.7369 87.9743C98.7968 87.7453 98.7369 87.3659 98.4335 86.805C98.1397 86.2618 97.6631 85.6326 97.0442 84.9494C94.5617 82.2094 90.0685 78.9022 87.3554 77.3194L87.8593 76.4557ZM95.0982 89.5483C93.3309 89.3508 91.2318 88.6808 88.8638 87.794C86.5144 86.9141 83.7741 85.77 80.8432 84.6495L81.2003 83.7154C84.2074 84.865 86.8326 85.9654 89.2145 86.8575C91.5779 87.7426 93.5758 88.372 95.2092 88.5545L95.0982 89.5483ZM77.829 83.5183C75.7295 82.6672 71.3128 80.8176 69.0529 79.8376L69.4508 78.9201C71.7031 79.8969 76.1123 81.7434 78.2046 82.5915L77.829 83.5183ZM69.4452 78.9178L78.2102 82.5938L77.8234 83.516L69.0585 79.8399L69.4452 78.9178ZM60.6723 76.0472C45.0479 68.6826 27.4619 58.6767 13.5689 46.4341L14.23 45.6838C28.0238 57.839 45.5162 67.7978 61.0986 75.1426L60.6723 76.0472ZM13.5689 46.4341C12.7716 45.7315 11.9864 45.0215 11.2143 44.3041L11.895 43.5716C12.6604 44.2828 13.4391 44.9869 14.23 45.6838L13.5689 46.4341ZM7.30401 40.5238C5.56606 38.1525 4.38842 36.3466 3.74548 35.0123C3.42497 34.3472 3.22069 33.766 3.16028 33.2705C3.0991 32.7687 3.1803 32.2923 3.51066 31.9322C3.82862 31.5857 4.29264 31.4421 4.78007 31.3967C5.27403 31.3506 5.86928 31.398 6.54241 31.5078C7.89033 31.7275 9.6652 32.2181 11.7935 32.8571L11.5059 33.8149C9.37289 33.1744 7.65651 32.7026 6.38147 32.4947C5.74312 32.3906 5.24396 32.3578 4.87287 32.3924C4.49525 32.4276 4.32358 32.5254 4.24748 32.6083C4.1838 32.6777 4.1126 32.8187 4.15293 33.1495C4.19403 33.4866 4.34521 33.9533 4.64635 34.5782C5.24673 35.8241 6.37724 37.5677 8.11057 39.9327L7.30401 40.5238ZM16.3017 34.7869C17.2658 35.224 18.138 35.5856 19.0019 35.9398C19.8643 36.2934 20.7215 36.641 21.6437 37.0461L21.2415 37.9616C20.3333 37.5627 19.4897 37.2206 18.6225 36.865C17.7567 36.51 16.8704 36.1427 15.8888 35.6977L16.3017 34.7869Z" fill="#2C304E"/>
<g clip-path="url(#clip0_2641_1908)">
<circle cx="82.7712" cy="65.1631" r="14.935" transform="rotate(8 82.7712 65.1631)" fill="white"/>
<path d="M78.5295 53.7768C78.6626 52.8296 78.5155 51.9077 78.1512 51.0949M76.5543 49.1272C75.9265 48.6712 75.1811 48.358 74.3591 48.2425C71.6793 47.8659 69.2015 49.733 68.8249 52.4129C68.4483 55.0927 70.3154 57.5705 72.9952 57.9471C75.2562 58.2649 77.3734 56.9855 78.2061 54.9683" stroke="#2C304E" stroke-linecap="round"/>
<ellipse cx="73.6772" cy="53.095" rx="4.55" ry="4.55" transform="rotate(8 73.6772 53.095)" fill="url(#paint0_linear_2641_1908)"/>
<circle cx="97.6252" cy="67.25" r="14.935" transform="rotate(8 97.6252 67.25)" fill="white"/>
<path d="M83.4035 54.4613C83.5366 53.5142 83.3895 52.5923 83.0252 51.7794M81.4283 49.8118C80.8006 49.3557 80.0551 49.0426 79.2332 48.9271C76.5533 48.5504 74.0755 50.4176 73.6989 53.0974C73.3223 55.7773 75.1894 58.2551 77.8693 58.6317C80.1303 58.9495 82.2474 57.6701 83.0802 55.6529" stroke="#2C304E" stroke-linecap="round"/>
<ellipse cx="78.5512" cy="53.7796" rx="4.55" ry="4.55" transform="rotate(8 78.5512 53.7796)" fill="url(#paint1_linear_2641_1908)"/>
</g>
<defs>
<linearGradient id="paint0_linear_2641_1908" x1="69.1272" y1="53.095" x2="78.2272" y2="53.095" gradientUnits="userSpaceOnUse">
<stop stop-color="#FF758C"/>
<stop offset="1" stop-color="#FF7EB3"/>
</linearGradient>
<linearGradient id="paint1_linear_2641_1908" x1="74.0012" y1="53.7796" x2="83.1012" y2="53.7796" gradientUnits="userSpaceOnUse">
<stop stop-color="#FF758C"/>
<stop offset="1" stop-color="#FF7EB3"/>
</linearGradient>
<clipPath id="clip0_2641_1908">
<rect width="15.4219" height="10.5" fill="white" transform="translate(69.209 47.165) rotate(8)"/>
</clipPath>
</defs>
</svg>
