<svg xmlns="http://www.w3.org/2000/svg" viewBox="0 0 18 20">
  <g>
    <path d="M4.77262136 10.2343689C4.77262136 9.70097087 4.4023301 9.38271845 3.74873786 9.38271845 3.48213592 9.38271845 3.3015534 9.40834951 3.20679612 9.43417476L3.20679612 11.1466019C3.31883495 11.172233 3.45650485 11.1809709 3.64524272 11.1809709 4.34252427 11.1809709 4.77262136 10.8281553 4.77262136 10.2343689L4.77262136 10.2343689zM8.8176699 9.39980583C8.52485437 9.39980583 8.33592233 9.42563107 8.22368932 9.45145631L8.22368932 13.2460194C8.33572816 13.2720388 8.51650485 13.2720388 8.68 13.2720388 9.86718447 13.2803883 10.6417476 12.6267961 10.6417476 11.2413592 10.6502913 10.0363107 9.94466019 9.39980583 8.8176699 9.39980583L8.8176699 9.39980583z"/>
    <path d="M16.5685437,7.17048544 L16.0930097,7.17048544 L16.0930097,4.87572816 C16.0930097,4.86135922 16.0906796,4.84699029 16.088932,4.83242718 C16.0881553,4.74135922 16.0590291,4.65184466 15.996699,4.58097087 L12.1780583,0.218834951 C12.1768932,0.217669903 12.1757282,0.217281553 12.1749515,0.216116505 C12.152233,0.190679612 12.1256311,0.169514563 12.0976699,0.151262136 C12.0893204,0.145631068 12.0809709,0.140970874 12.072233,0.136116505 C12.0479612,0.122912621 12.0221359,0.11184466 11.995534,0.103883495 C11.9883495,0.101941748 11.9819417,0.0990291262 11.9747573,0.0970873786 C11.9460194,0.0902912621 11.9159223,0.0860194175 11.8856311,0.0860194175 L2.5007767,0.0860194175 C2.07223301,0.0860194175 1.72407767,0.434563107 1.72407767,0.862718447 L1.72407767,7.17029126 L1.24854369,7.17029126 C0.635533981,7.17029126 0.138446602,7.66718447 0.138446602,8.28038835 L0.138446602,14.0532039 C0.138446602,14.6660194 0.635533981,15.163301 1.24854369,15.163301 L1.72407767,15.163301 L1.72407767,19.1151456 C1.72407767,19.543301 2.07223301,19.8918447 2.5007767,19.8918447 L15.3163107,19.8918447 C15.744466,19.8918447 16.0930097,19.543301 16.0930097,19.1151456 L16.0930097,15.1634951 L16.5685437,15.1634951 C17.1815534,15.1634951 17.6786408,14.6662136 17.6786408,14.0533981 L17.6786408,8.28058252 C17.6786408,7.66737864 17.1815534,7.17048544 16.5685437,7.17048544 L16.5685437,7.17048544 Z M2.5007767,0.862912621 L11.4972816,0.862912621 L11.4972816,4.83669903 C11.4972816,5.05126214 11.6712621,5.22504854 11.8856311,5.22504854 L15.3163107,5.22504854 L15.3163107,7.17067961 L2.5007767,7.17067961 L2.5007767,0.862912621 L2.5007767,0.862912621 Z M12.0353398,11.1978641 C12.0353398,12.3081553 11.631068,13.0737864 11.071068,13.5471845 C10.4607767,14.0547573 9.53126214,14.295534 8.39592233,14.295534 C7.71631068,14.295534 7.23456311,14.2526214 6.90718447,14.2097087 L6.90718447,8.51339806 C7.38893204,8.4361165 8.01747573,8.39300971 8.68,8.39300971 C9.7807767,8.39300971 10.4951456,8.59106796 11.0545631,9.01242718 C11.656699,9.46 12.0353398,10.1739806 12.0353398,11.1978641 L12.0353398,11.1978641 Z M1.90737864,14.235534 L1.90737864,8.51339806 C2.31165049,8.44485437 2.87980583,8.39300971 3.68,8.39300971 C4.48873786,8.39300971 5.06543689,8.54796117 5.45242718,8.85786408 C5.82252427,9.15029126 6.07145631,9.63223301 6.07145631,10.2001942 C6.07145631,10.7681553 5.88271845,11.2500971 5.53825243,11.5768932 C5.09087379,11.9984466 4.42834951,12.1879612 3.65378641,12.1879612 C3.48194175,12.1879612 3.32660194,12.1792233 3.20660194,12.1621359 L3.20660194,14.2357282 L1.90737864,14.2357282 L1.90737864,14.235534 Z M15.3163107,18.9048544 L2.5007767,18.9048544 L2.5007767,15.1634951 L15.3163107,15.1634951 L15.3163107,18.9048544 L15.3163107,18.9048544 Z M16.4417476,9.51165049 L14.2128155,9.51165049 L14.2128155,10.836699 L16.2951456,10.836699 L16.2951456,11.9036893 L14.2128155,11.9036893 L14.2128155,14.235534 L12.8968932,14.235534 L12.8968932,8.4361165 L16.4417476,8.4361165 L16.4417476,9.51165049 L16.4417476,9.51165049 Z"/>
  </g>
</svg>
