<svg width="342" height="195" viewBox="0 0 342 195" fill="none" xmlns="http://www.w3.org/2000/svg">
<path d="M3.20749 176.898C-0.775715 155.826 27.0404 131.804 45.5172 126.856C57.6957 123.612 70.6877 119.145 82.1752 113.542C92.2983 108.599 108.63 81.0453 133.159 72.2444C184.501 53.8236 209.651 116.646 221.42 113.542C233.189 110.438 246.996 111.453 255.354 121.359C261.384 128.511 264.012 139.577 271.784 144.056C278.523 147.934 286.643 145.37 294.152 146.35C311.423 148.609 322.364 168.566 338.13 176.898" fill="#E9EDF1"/>
<path d="M36 146.745C36 160.275 27.9411 165 18 165C8.05887 165 0 160.275 0 146.745C0 133.214 18 116 18 116C18 116 36 133.214 36 146.745Z" fill="#DFE4EA"/>
<path d="M17.191 162.67L17.3742 151.408L25 137.476L17.4029 149.642L17.4853 144.578L22.741 134.499L17.5071 143.238L17.6552 134.131L23.2832 126.107L17.6786 132.699L17.7711 116L17.1894 138.107L17.2372 137.195L11.5152 128.448L17.1455 138.945L16.6122 149.116L16.5964 148.846L10 139.642L16.5764 149.8L16.5097 151.072L16.4978 151.091L16.5033 151.195L15.1506 177H16.9579L17.1747 163.671L23.735 153.538L17.191 162.67Z" fill="#3F3D56"/>
<path fill-rule="evenodd" clip-rule="evenodd" d="M319.477 116.303C320.212 116.212 320.996 116.244 321.679 116.537C323.132 117.159 323.545 118.89 323.525 120.298C323.504 121.812 323.185 123.467 324.326 124.688C324.851 125.249 325.504 125.678 326.019 126.25C326.57 126.86 327.001 127.559 327.321 128.309C327.909 129.687 328.197 131.308 327.66 132.754C327.187 134.027 325.997 135.175 326.254 136.623C326.523 138.133 328.031 139.287 328.975 140.411C330.042 141.684 331.025 143.311 331.187 144.98C331.341 146.579 330.651 148.197 329.592 149.406C327.476 151.822 324.296 153.006 321.088 152.999C319.727 152.996 318.185 152.934 317.01 152.196C316.647 151.967 316.455 151.711 316.239 151.355C316.046 151.036 315.79 150.829 315.494 150.603C314.844 150.107 314.374 149.438 314.074 148.69C312.911 145.784 313.841 142.188 315.47 139.607C315.856 138.996 316.172 138.407 315.984 137.679C315.789 136.918 315.308 136.232 314.882 135.578C314.462 134.931 313.982 134.315 313.654 133.616C313.309 132.884 313.213 132.117 313.273 131.316C313.388 129.811 314.032 128.422 314.943 127.212C315.821 126.046 316.852 124.93 316.855 123.403C316.857 121.784 315.784 120.344 316.241 118.697C316.431 118.016 316.811 117.317 317.423 116.908C318.011 116.516 318.787 116.388 319.477 116.303Z" fill="#DDE3E9"/>
<path fill-rule="evenodd" clip-rule="evenodd" d="M318.998 118.89C319.011 118.673 319.267 118.542 319.468 118.599C319.733 118.674 319.728 118.924 319.721 119.146C319.7 119.83 319.798 120.495 319.961 121.158C320.299 122.538 320.925 123.809 321.421 125.134C321.917 126.458 322.149 127.825 321.858 129.226C321.584 130.548 321.154 131.834 320.874 133.157C320.626 134.323 320.364 135.552 320.74 136.715C321.102 137.834 321.903 138.746 322.479 139.758C323.673 141.851 324.202 144.174 324.273 146.565C324.306 147.675 324.276 148.795 324.021 149.884C323.874 150.511 323.677 151.358 323.144 151.791C322.899 151.991 322.479 152.06 322.272 151.764C322.078 151.487 322.248 151.058 322.31 150.762C322.577 149.483 322.63 148.176 322.567 146.877C322.505 145.619 322.357 144.363 321.965 143.162C321.601 142.047 321.047 141.045 320.396 140.07C319.733 139.076 319.043 138.08 318.768 136.902C318.49 135.706 318.716 134.489 319.019 133.315C319.339 132.074 319.758 130.869 320.192 129.661C320.614 128.485 320.764 127.372 320.53 126.14C320.07 123.707 318.837 121.424 318.998 118.89Z" fill="white"/>
<path fill-rule="evenodd" clip-rule="evenodd" d="M338.471 120.398C339.425 120.668 340.373 121.105 341.054 121.79C342.5 123.245 342.056 125.445 341.258 127.052C340.398 128.782 339.096 130.521 339.83 132.505C340.167 133.418 340.735 134.244 341.055 135.163C341.397 136.146 341.545 137.169 341.526 138.194C341.491 140.077 340.955 142.086 339.498 143.474C338.216 144.695 336.119 145.409 335.64 147.203C335.14 149.074 336.363 151.17 336.906 152.943C337.52 154.95 337.836 157.321 337.117 159.321C336.428 161.238 334.688 162.744 332.719 163.594C328.785 165.291 324.217 165.03 320.272 163.386C318.597 162.688 316.733 161.83 315.692 160.382C315.37 159.935 315.275 159.543 315.205 159.024C315.142 158.559 314.942 158.19 314.701 157.779C314.173 156.878 313.963 155.87 314.005 154.858C314.171 150.925 317.294 147.267 320.719 145.133C321.531 144.627 322.243 144.112 322.413 143.179C322.591 142.205 322.376 141.171 322.212 140.203C322.05 139.246 321.798 138.292 321.778 137.322C321.757 136.305 322.059 135.375 322.575 134.485C323.543 132.814 325.1 131.547 326.888 130.621C328.61 129.729 330.494 128.973 331.337 127.219C332.23 125.36 331.701 123.158 333.169 121.499C333.777 120.813 334.63 120.203 335.609 120.046C336.548 119.895 337.573 120.143 338.471 120.398Z" fill="#DDE3E9"/>
<path fill-rule="evenodd" clip-rule="evenodd" d="M336.521 123.471C336.657 123.228 337.042 123.21 337.258 123.378C337.542 123.6 337.4 123.885 337.27 124.138C336.871 124.913 336.629 125.729 336.468 126.576C336.132 128.337 336.207 130.121 336.094 131.901C335.98 133.679 335.521 135.371 334.4 136.834C333.344 138.214 332.115 139.473 331.05 140.851C330.111 142.065 329.118 143.345 328.946 144.876C328.781 146.35 329.267 147.81 329.424 149.271C329.748 152.293 329.132 155.238 327.916 158.025C327.351 159.319 326.705 160.593 325.798 161.715C325.276 162.36 324.572 163.234 323.682 163.458C323.272 163.562 322.719 163.425 322.626 162.979C322.539 162.56 322.982 162.154 323.219 161.846C324.243 160.511 325.022 159.035 325.651 157.507C326.261 156.028 326.764 154.507 326.937 152.923C327.098 151.453 326.964 150.017 326.696 148.56C326.423 147.075 326.119 145.574 326.424 144.078C326.734 142.559 327.675 141.275 328.686 140.08C329.756 138.817 330.927 137.645 332.117 136.478C333.277 135.341 334.067 134.137 334.452 132.601C335.213 129.565 334.943 126.304 336.521 123.471Z" fill="white"/>
<path fill-rule="evenodd" clip-rule="evenodd" d="M310.326 131C311.8 131 313.096 131.787 313.988 132.904C315.033 134.212 315.244 135.809 315.669 137.368C315.88 138.143 316.243 138.913 316.879 139.44C317.458 139.92 318.193 140.016 318.886 140.25C320.271 140.718 321.389 141.845 321.83 143.22C322.369 144.898 321.798 146.59 321.897 148.29C321.987 149.852 323.514 150.826 324.743 151.575C325.955 152.313 327.047 153.004 327.412 154.442C327.799 155.967 327.929 157.669 327.393 159.176C326.5 161.684 323.888 162.789 321.364 162.96C319.073 163.116 316.193 162.872 314.473 161.196C313.443 160.193 313.07 158.79 313.117 157.395C313.145 156.527 313.316 155.668 313.537 154.829C313.693 154.235 313.904 153.643 313.964 153.029C314.124 151.395 312.626 151.081 311.35 150.632C309.73 150.062 308.595 148.985 307.806 147.485C307.071 146.088 306.763 144.52 307.203 142.982C307.428 142.197 307.836 141.484 308.39 140.878C308.633 140.612 308.977 140.389 309.197 140.109C309.402 139.847 309.357 139.508 309.286 139.202C308.959 137.786 307.94 136.613 307.576 135.2C307.247 133.924 307.442 132.336 308.599 131.513C309.099 131.158 309.715 131.004 310.326 131Z" fill="#C5CFD6"/>
<path fill-rule="evenodd" clip-rule="evenodd" d="M312.334 134.689C313.896 136.366 314.321 138.641 314.445 140.846C314.515 142.082 314.443 143.386 314.803 144.586C315.111 145.612 315.834 146.397 316.58 147.139C318.08 148.631 319.753 150.149 320.191 152.31C320.449 153.578 320.275 154.887 320.631 156.141C320.954 157.281 321.524 158.401 322.217 159.363C322.774 160.139 323.501 160.732 324.111 161.455C324.297 161.675 324.563 162 324.486 162.311C324.397 162.676 323.936 162.791 323.609 162.734C322.846 162.6 322.205 161.867 321.706 161.333C320.977 160.553 320.358 159.715 319.855 158.774C319.296 157.729 318.846 156.62 318.654 155.447C318.454 154.231 318.553 152.963 318.098 151.796C317.331 149.832 315.472 148.673 314.127 147.142C312.452 145.234 312.702 142.86 312.873 140.514C312.968 139.224 313.061 137.768 312.415 136.591C312.168 136.141 311.618 135.722 311.512 135.212C311.414 134.744 311.945 134.271 312.334 134.689Z" fill="white"/>
<ellipse cx="325" cy="169.5" rx="10" ry="7.5" fill="#8A92A2"/>
<path d="M117.714 81H237.286C241.546 81 245 84.5817 245 89V162.31C245 166.729 241.546 170.31 237.286 170.31H117.714C113.454 170.31 110 166.729 110 162.31V89C110 84.5817 113.454 81 117.714 81Z" stroke="#464D5F" stroke-dasharray="4"/>
<path fill-rule="evenodd" clip-rule="evenodd" d="M270.186 84.5568C268.42 85.9255 266.616 86.7036 265.71 86.5877C263.438 86.2968 262.258 78.3557 263.576 75.0059C264.895 71.6562 273.49 69.2115 274.695 75.3795C275.114 77.5202 274.433 79.5601 273.271 81.2992L277.076 92.1976L270.017 93.0644L270.186 84.5568Z" fill="#CDD2DD"/>
<path fill-rule="evenodd" clip-rule="evenodd" d="M268.874 76.7915C268.153 75.9677 267.482 75.3542 266.671 75.0497C263.573 75.4793 263.143 74.9739 262.915 73.1203C263.373 72.7042 265.068 71.89 267.028 71.4789C268.003 71.069 269.207 70.9758 270.419 71.311C271.891 71.5354 273.202 72.2472 273.932 73.7915C276.261 76.8407 275.219 80.4405 273.393 81.8508C272.793 81.301 272.262 80.762 271.784 80.2424C272.073 79.8854 272.222 79.4183 272.162 78.9292C272.044 77.9657 271.158 77.2817 270.183 77.4013C270.112 77.4101 270.042 77.423 269.973 77.4398C270.077 78.6498 270.397 82.7474 270.097 84.2212C269.743 85.9588 266.531 86.7691 265.394 86.9087C264.411 87.0294 264.332 86.1056 264.275 85.4435C264.267 85.3481 264.259 85.2582 264.249 85.1776C264.228 85.0092 264.45 84.9825 264.7 84.9522C265.026 84.9129 265.399 84.8678 265.354 84.4991C265.305 84.0973 264.705 83.858 264.168 83.6439C263.834 83.5103 263.523 83.3865 263.387 83.2392C262.955 82.7742 262.747 82.1014 263.303 82.0331C263.607 81.9957 264.045 82.1178 264.573 82.2646C265.369 82.4863 266.368 82.7645 267.415 82.636C269.143 82.4238 268.877 76.8611 268.874 76.7915Z" fill="#3B4151"/>
<path fill-rule="evenodd" clip-rule="evenodd" d="M282.026 117L271.159 153.97L266.048 181.728H260.918L266.039 117H282.026Z" fill="#B28B67"/>
<path fill-rule="evenodd" clip-rule="evenodd" d="M282.026 117L271.159 153.97L266.048 181.728H260.918L266.039 117H282.026Z" fill="#CED4DE"/>
<path fill-rule="evenodd" clip-rule="evenodd" d="M286.91 117C286.152 136.206 286.451 146.681 286.621 148.426C286.791 150.171 287.754 161.857 294.319 182.314H288.983C280.289 162.689 277.254 151.003 276.256 148.426C275.259 145.849 272.314 135.374 268.014 117H286.91Z" fill="#CED4DE"/>
<path fill-rule="evenodd" clip-rule="evenodd" d="M282.26 117C279.433 129.722 274.544 150.028 267.593 177.921L260.445 176.125C262.471 147.568 263.02 131.807 266.039 117H282.26Z" fill="#3B4151"/>
<path fill-rule="evenodd" clip-rule="evenodd" d="M284.894 117C284.737 121.048 286.76 126.11 286.086 131.484C284.061 147.63 289.387 159.995 294.092 178.22H286.086C277.375 158.888 271.132 140.06 266.865 117H284.894Z" fill="#464D5F"/>
<path fill-rule="evenodd" clip-rule="evenodd" d="M292.034 181.883C293.176 181.66 294.481 182.033 294.718 183.171C294.759 183.365 294.783 183.543 294.783 183.688C294.783 184.48 294.516 186 294.516 186C293.585 186 277.783 186 277.783 186C277.783 186 277.131 183.871 278.536 183.702C279.942 183.532 280.871 183.395 280.871 183.395L287.994 180.26C288.506 180.035 289.104 180.274 289.32 180.79L289.543 181.325C289.543 181.325 290.844 181.925 291.657 181.925C291.77 181.925 291.898 181.909 292.034 181.883Z" fill="#8A92A2"/>
<path fill-rule="evenodd" clip-rule="evenodd" d="M264.148 180.883C265.289 180.66 266.594 181.033 266.831 182.171C266.872 182.365 266.896 182.543 266.896 182.688C266.896 183.48 266.629 185 266.629 185C265.698 185 249.897 185 249.897 185C249.897 185 249.244 182.871 250.65 182.702C252.055 182.532 252.984 182.395 252.984 182.395L260.107 179.26C260.62 179.035 261.217 179.274 261.433 179.79L261.656 180.325C261.656 180.325 262.957 180.925 263.771 180.925C263.884 180.925 264.011 180.909 264.148 180.883Z" fill="#8A92A2"/>
<path fill-rule="evenodd" clip-rule="evenodd" d="M299.167 129.306C298.093 127.683 290.854 111.175 290.854 111.175L286.945 111.975C286.945 111.975 294.868 129.442 295.459 130.498C296.225 131.87 295.482 134.091 294.977 135.597C294.899 135.83 294.827 136.045 294.767 136.238C295.76 136.539 296.151 135.98 296.563 135.391C297.028 134.725 297.52 134.02 298.938 134.473C299.486 134.647 300.011 134.869 300.525 135.086C302.297 135.834 303.926 136.521 305.841 135.005C306.144 134.764 306.411 133.967 305.47 133.485C303.126 132.284 299.692 130.099 299.167 129.306ZM248.49 123.347L257.036 115.384L259.732 120.198L250.909 125.147C248.656 128.521 247.343 129.973 246.969 129.504C246.655 129.109 246.81 128.683 246.954 128.291C247.066 127.986 247.17 127.701 247.039 127.466C246.739 126.931 244.981 127.207 243.324 127.539C241.667 127.872 242.064 127.076 242.423 126.664C244.006 125.444 246.028 124.338 248.49 123.347Z" fill="#CED4DE"/>
<path fill-rule="evenodd" clip-rule="evenodd" d="M272.49 87.8449L269.894 87.726C266.384 91.5561 263.922 99.1103 261.567 104.33C258.254 111.671 255.083 116.898 248.911 122.521L252.114 125.591C257.119 123.231 261.516 119.279 264.666 115.941C272.456 107.685 273.946 97.3377 272.49 87.8449Z" fill="#8A92A2"/>
<path fill-rule="evenodd" clip-rule="evenodd" d="M287.457 118.079C287.457 118.079 273.545 116.633 266.338 117.518C265.309 117.644 266.28 117.293 266.338 116.534C267.004 107.775 270.281 101.61 268.733 87.7543L275.101 85.951C281.519 93.8278 284.666 104.109 287.457 118.079Z" fill="white"/>
<path fill-rule="evenodd" clip-rule="evenodd" d="M290.828 124.032C292.101 126.242 293.319 128.16 294.425 129.62L299.252 129.027C296.843 124.986 294.033 117.499 292.188 112.582C291.542 110.86 291.014 109.454 290.663 108.62C289.994 107.033 289.286 105.445 288.48 103.638C287.475 101.383 286.317 98.7876 284.894 95.426C284.742 95.0663 284.586 94.684 284.427 94.2924C284.282 93.9336 284.133 93.5669 283.98 93.2026C284.845 92.8537 285.635 92.2269 286.247 91.1969C289.114 86.3702 287.524 84.1193 284.894 83.6648C283.677 83.4544 282.649 83.9392 281.58 84.4439C281.22 84.6134 280.856 84.7852 280.479 84.9336C279.551 85.2982 278.136 85.6082 276.594 85.7976C276.327 85.8304 276.095 85.8858 275.896 85.9609C275.838 85.9463 275.788 85.9343 275.746 85.9245L275.71 85.8762L275.61 85.8944C275.598 85.892 275.592 85.8908 275.592 85.8908L275.585 85.899L272.973 86.3702C272.973 86.3702 273.134 98.9401 273.767 106.159C274.117 110.138 272.973 122.575 270.32 127.999L290.828 124.032Z" fill="#8A92A2"/>
<path fill-rule="evenodd" clip-rule="evenodd" d="M290.737 123.876C289.023 120.888 287.211 117.378 285.435 113.741C285.461 117.983 285.165 122.283 284.089 124.692L290.737 123.876Z" fill="black" fill-opacity="0.1"/>
<rect x="81.9622" y="69.3125" width="154" height="98" rx="8" transform="rotate(-20 81.9622 69.3125)" fill="#DDE3E9"/>
<path d="M220.434 12.6696L219.107 10.1411" stroke="#8A92A2" stroke-width="1.12" stroke-linecap="round"/>
<path d="M226.933 11.9587L228.283 6.22936" stroke="#8A92A2" stroke-width="1.12" stroke-linecap="round"/>
<path d="M230.795 16.8275L234.277 15.107" stroke="#8A92A2" stroke-width="1.12" stroke-linecap="round"/>
<rect x="78.9622" y="69.3125" width="154" height="98" rx="8" transform="rotate(-20 78.9622 69.3125)" fill="white" stroke="#DFE4EA"/>
<rect x="85.011" y="87.6582" width="154" height="10" rx="3" transform="rotate(-20 85.011 87.6582)" fill="#EDEEF1"/>
<ellipse cx="139.336" cy="117.017" rx="10.9722" ry="10.989" transform="rotate(-4 139.336 117.017)" fill="#EDEEF1" stroke="white" stroke-width="2"/>
<ellipse cx="123.377" cy="124.744" rx="10.9722" ry="10.989" transform="rotate(-4 123.377 124.744)" fill="#EDEEF1" stroke="white" stroke-width="2"/>
<path fill-rule="evenodd" clip-rule="evenodd" d="M73.6728 88.5262C75.2776 89.8086 76.9272 90.551 77.7633 90.4601C79.8599 90.2321 81.0684 82.9837 79.9049 79.8958C78.7415 76.8078 70.8643 74.426 69.6598 80.0511C69.2418 82.0033 69.8375 83.8818 70.8813 85.4929L67.2108 95.4039L73.6985 96.3156L73.6728 88.5262Z" fill="#CDD2DD"/>
<path fill-rule="evenodd" clip-rule="evenodd" d="M77.3585 76.366C76.5093 75.9759 75.658 75.7509 75.1081 75.7357C75.5179 75.0543 75.7535 74.2641 75.7644 73.4639C75.7749 72.6864 73.249 71.1373 70.4738 71.9716C67.6986 72.806 66.5958 75.1209 67.0947 75.8579C67.54 76.5157 68.261 77.0099 68.9854 77.2836C68.4105 77.7713 67.0947 78.0932 66.8126 81.4105C66.5305 84.7277 68.9373 86.4464 69.2441 86.5549C69.8246 86.7602 70.5161 86.8362 71.0421 86.4337C71.2316 86.2886 71.4438 86.1026 71.5938 85.9138C71.6477 85.846 71.6808 85.8013 71.6381 85.7215C71.5869 85.626 71.4938 85.5452 71.4219 85.466C71.0122 85.0145 70.7974 84.4583 70.8112 83.8352C70.8251 83.203 71.108 82.4241 71.7618 82.2392C72.5688 82.011 73.3516 82.5132 73.9766 82.9666C74.4035 82.0118 75.1188 81.1987 76.107 80.8721C77.2003 80.5108 78.3817 80.6166 79.4932 80.331C79.7828 80.2566 79.7964 80.3627 80.0303 80.1609C80.128 80.0766 78.2077 76.7561 77.3585 76.366Z" fill="#3B4151"/>
<path fill-rule="evenodd" clip-rule="evenodd" d="M62.7441 118.119L69.3192 153.22L69.3192 181.482L74.1932 182.167L72.8504 120.987L62.7441 118.119Z" fill="#CDD3DE"/>
<path fill-rule="evenodd" clip-rule="evenodd" d="M62.5414 116.845C60.7085 135.114 54.5946 145.604 54.2014 147.232C53.8082 148.86 50.7776 162.23 41.8208 180.703L47.0114 180.703C57.8806 163.301 62.7582 150.921 64.0481 148.616C65.3381 146.312 69.5288 136.796 76.0566 119.989L62.5414 116.845Z" fill="#CDD3DE"/>
<path fill-rule="evenodd" clip-rule="evenodd" d="M62.5225 118.088C63.5167 130.499 71.0293 146.157 68.4686 177.463L74.7961 177.673C79.1286 150.666 77.5432 134.254 75.4523 120.987L62.5225 118.088Z" fill="#3B4151"/>
<path fill-rule="evenodd" clip-rule="evenodd" d="M61.9653 117.718C60.6668 119.94 55.2287 126.025 54.139 131.532C50.3286 150.786 52.3578 155.08 42.5656 177.036L49.5386 177.036C60.384 159.912 66.0287 139.362 73.1481 118.119L61.9653 117.718Z" fill="#464D5F"/>
<path fill-rule="evenodd" clip-rule="evenodd" d="M40.7525 182.601L41.8403 179.548C42.0547 178.946 42.7791 178.691 43.3809 178.906C45.5729 179.689 48.3855 179.55 48.3855 179.55C50.5011 182.149 53.7836 184.217 55.813 185.341C56.7573 185.865 57.1142 187.086 56.5407 188.001L46.7661 185.198L41.0642 183.563L40.7525 182.601Z" fill="#8A92A2"/>
<path fill-rule="evenodd" clip-rule="evenodd" d="M67.9319 185.736L68.2488 182.511C68.3112 181.875 68.9525 181.453 69.5884 181.516C71.9048 181.745 74.6003 180.93 74.6003 180.93C77.2817 182.939 80.9669 184.152 83.2081 184.752C84.2509 185.031 84.8928 186.13 84.5575 187.156L74.3952 186.802L68.4672 186.595L67.9319 185.736Z" fill="#8A92A2"/>
<path fill-rule="evenodd" clip-rule="evenodd" d="M93.444 111.785L97.9816 110.053C97.9816 110.053 99.3439 106.79 100.58 106.942C101.252 106.736 99.7519 109.435 100.983 109.356C102.215 109.277 105.442 107.505 105.883 108.019C106.536 108.779 105.589 110.698 104.666 111.589C102.941 113.255 101.641 113.725 98.5312 114.142C96.0925 114.47 93.0873 116.064 93.0873 116.064L93.444 111.785Z" fill="#CED4DE"/>
<path fill-rule="evenodd" clip-rule="evenodd" d="M74.5457 103.059C77.9069 103.403 84.5038 102.247 89.7171 100.299L90.9881 103.926C87.2218 106.231 80.1831 108.986 76.1499 108.444C72.9715 108.016 71.8983 104.68 74.5457 103.059Z" fill="#8A92A2"/>
<path fill-rule="evenodd" clip-rule="evenodd" d="M56.0024 128.541C55.3881 128.805 54.9584 128.989 54.7821 128.999C59.3172 117.005 60.023 109.38 60.5191 104.021C60.8655 100.279 61.1097 97.6411 62.4848 95.3929C63.7615 93.3055 68.3793 91.6446 68.6115 91.6772L68.8527 91.7111L75.5125 92.6471L76.275 92.7542C76.2222 93.6005 76.1232 94.2081 76.0386 94.7281C75.889 95.6468 75.784 96.292 76.0567 97.4962C76.1912 98.09 76.9189 99.3906 77.585 100.581C78.0971 101.496 78.5728 102.346 78.7144 102.76C79.447 104.9 78.2784 108.209 77.0968 110.231C77.234 110.332 77.3783 110.421 77.53 110.499C82.4835 113.026 96.5032 110.131 96.5032 110.131C96.5032 110.131 97.127 111.777 96.5032 114.507C87.6808 117.663 80.7039 118.686 75.4823 118.138C75.6433 118.695 75.8338 119.309 76.0567 119.989C77.678 124.932 77.571 133.582 77.5133 138.249C77.495 139.729 77.4817 140.809 77.53 141.243C77.5651 141.559 76.6498 140.086 75.3641 138.017C73.2573 134.626 70.1559 129.636 68.6115 128.292C64.6389 124.834 58.6313 127.413 56.0024 128.541Z" fill="#8A92A2"/>
</svg>
