<svg viewBox="0 0 315 189" fill="none" xmlns="http://www.w3.org/2000/svg">
<path d="M31.848 171C28.7751 159.883 34.01 147.21 48.2639 144.599C57.659 142.888 67.6817 140.531 76.5437 137.575C84.3532 134.968 96.9521 120.431 115.875 115.788C155.483 106.07 174.885 139.213 183.964 137.575C193.043 135.938 203.695 136.473 210.143 141.699C214.794 145.473 216.821 151.311 222.818 153.673C228.016 155.719 234.281 154.367 240.073 154.884C253.397 156.075 261.838 166.604 274 171" fill="#E9EDF1"/>
<path fill-rule="evenodd" clip-rule="evenodd" d="M257.338 120.038C257.954 119.962 258.613 119.988 259.186 120.234C260.406 120.756 260.753 122.21 260.736 123.392C260.718 124.664 260.45 126.053 261.409 127.078C261.849 127.549 262.397 127.91 262.83 128.389C263.292 128.902 263.655 129.489 263.924 130.119C264.417 131.276 264.659 132.637 264.208 133.85C263.811 134.919 262.812 135.884 263.028 137.099C263.253 138.367 264.52 139.336 265.312 140.28C266.208 141.349 267.033 142.714 267.169 144.116C267.299 145.459 266.72 146.817 265.83 147.832C264.054 149.861 261.383 150.855 258.69 150.849C257.547 150.846 256.253 150.794 255.266 150.174C254.961 149.983 254.8 149.768 254.619 149.469C254.456 149.201 254.242 149.027 253.993 148.837C253.447 148.421 253.053 147.859 252.801 147.231C251.824 144.791 252.605 141.772 253.973 139.605C254.297 139.092 254.562 138.597 254.405 137.986C254.24 137.347 253.837 136.771 253.479 136.221C253.127 135.679 252.724 135.161 252.448 134.574C252.159 133.96 252.077 133.316 252.129 132.643C252.224 131.38 252.765 130.213 253.531 129.197C254.268 128.218 255.134 127.282 255.136 125.999C255.138 124.64 254.237 123.43 254.621 122.048C254.78 121.476 255.099 120.889 255.613 120.546C256.106 120.217 256.758 120.109 257.338 120.038Z" fill="#DDE3E9"/>
<path fill-rule="evenodd" clip-rule="evenodd" d="M256.935 122.211C256.946 122.028 257.161 121.919 257.33 121.966C257.552 122.029 257.548 122.239 257.542 122.426C257.524 123 257.606 123.558 257.743 124.115C258.028 125.273 258.553 126.341 258.969 127.453C259.385 128.565 259.581 129.713 259.337 130.889C259.107 131.998 258.745 133.079 258.51 134.19C258.302 135.168 258.081 136.201 258.397 137.177C258.702 138.117 259.374 138.882 259.858 139.731C260.86 141.49 261.305 143.44 261.364 145.447C261.392 146.379 261.367 147.32 261.153 148.234C261.029 148.76 260.863 149.472 260.416 149.835C260.21 150.003 259.858 150.061 259.684 149.812C259.521 149.58 259.664 149.219 259.716 148.971C259.94 147.897 259.985 146.8 259.931 145.709C259.879 144.653 259.756 143.598 259.426 142.59C259.12 141.654 258.656 140.813 258.109 139.994C257.552 139.159 256.972 138.323 256.742 137.334C256.508 136.33 256.698 135.308 256.952 134.322C257.221 133.28 257.573 132.268 257.937 131.254C258.292 130.267 258.417 129.332 258.222 128.298C257.835 126.255 256.8 124.338 256.935 122.211Z" fill="white"/>
<path fill-rule="evenodd" clip-rule="evenodd" d="M273.285 123.475C274.086 123.702 274.882 124.069 275.454 124.644C276.668 125.866 276.296 127.713 275.625 129.063C274.903 130.515 273.81 131.975 274.426 133.641C274.709 134.407 275.186 135.101 275.455 135.873C275.742 136.698 275.866 137.557 275.85 138.417C275.821 139.999 275.371 141.686 274.148 142.85C273.071 143.876 271.311 144.475 270.908 145.981C270.488 147.553 271.515 149.313 271.971 150.801C272.487 152.486 272.752 154.477 272.148 156.156C271.569 157.765 270.109 159.031 268.456 159.744C265.152 161.168 261.317 160.949 258.005 159.569C256.598 158.983 255.033 158.263 254.159 157.047C253.889 156.672 253.809 156.343 253.75 155.907C253.698 155.516 253.529 155.206 253.327 154.862C252.884 154.105 252.707 153.259 252.743 152.409C252.882 149.106 255.504 146.036 258.38 144.243C259.062 143.819 259.66 143.386 259.803 142.603C259.952 141.785 259.771 140.917 259.634 140.104C259.497 139.3 259.286 138.5 259.269 137.685C259.251 136.831 259.505 136.05 259.938 135.303C260.751 133.9 262.058 132.836 263.56 132.059C265.006 131.31 266.587 130.675 267.295 129.202C268.045 127.641 267.601 125.793 268.834 124.4C269.344 123.824 270.06 123.312 270.882 123.18C271.67 123.053 272.532 123.262 273.285 123.475Z" fill="#DDE3E9"/>
<path fill-rule="evenodd" clip-rule="evenodd" d="M271.648 126.056C271.762 125.852 272.085 125.837 272.267 125.978C272.506 126.165 272.386 126.404 272.277 126.616C271.942 127.267 271.739 127.952 271.603 128.663C271.321 130.142 271.385 131.64 271.289 133.134C271.194 134.627 270.808 136.048 269.868 137.276C268.981 138.434 267.948 139.492 267.054 140.649C266.266 141.668 265.432 142.743 265.288 144.028C265.149 145.266 265.557 146.492 265.689 147.718C265.961 150.256 265.444 152.728 264.423 155.069C263.949 156.155 263.406 157.225 262.645 158.166C262.206 158.709 261.615 159.442 260.868 159.63C260.524 159.717 260.06 159.603 259.982 159.228C259.909 158.877 260.28 158.535 260.479 158.277C261.339 157.156 261.993 155.916 262.521 154.634C263.033 153.392 263.456 152.115 263.601 150.785C263.736 149.551 263.624 148.344 263.399 147.121C263.17 145.875 262.914 144.615 263.171 143.359C263.431 142.083 264.221 141.004 265.07 140.001C265.968 138.941 266.951 137.957 267.951 136.977C268.924 136.023 269.588 135.012 269.911 133.722C270.549 131.173 270.324 128.435 271.648 126.056Z" fill="white"/>
<path fill-rule="evenodd" clip-rule="evenodd" d="M249.654 132.377C250.891 132.377 251.979 133.038 252.729 133.976C253.606 135.074 253.783 136.415 254.14 137.724C254.317 138.375 254.622 139.021 255.156 139.464C255.642 139.866 256.259 139.947 256.841 140.143C258.004 140.536 258.942 141.483 259.313 142.638C259.765 144.046 259.286 145.467 259.369 146.895C259.445 148.206 260.727 149.024 261.759 149.652C262.777 150.272 263.693 150.852 264 152.06C264.325 153.34 264.434 154.769 263.984 156.034C263.234 158.141 261.041 159.068 258.922 159.212C256.998 159.342 254.58 159.138 253.135 157.73C252.271 156.888 251.958 155.711 251.997 154.539C252.021 153.811 252.164 153.089 252.349 152.385C252.481 151.886 252.658 151.389 252.708 150.873C252.843 149.501 251.585 149.238 250.514 148.861C249.153 148.382 248.2 147.478 247.538 146.219C246.921 145.046 246.662 143.729 247.032 142.438C247.221 141.778 247.563 141.18 248.028 140.671C248.233 140.447 248.521 140.261 248.705 140.025C248.878 139.806 248.84 139.521 248.781 139.263C248.506 138.075 247.651 137.09 247.345 135.904C247.069 134.832 247.232 133.499 248.204 132.808C248.623 132.51 249.141 132.38 249.654 132.377Z" fill="#C5CFD6"/>
<path fill-rule="evenodd" clip-rule="evenodd" d="M251.34 135.475C252.651 136.883 253.008 138.793 253.113 140.644C253.171 141.682 253.11 142.777 253.413 143.784C253.672 144.646 254.279 145.305 254.904 145.928C256.164 147.181 257.569 148.455 257.937 150.27C258.153 151.334 258.007 152.434 258.306 153.487C258.578 154.444 259.056 155.384 259.637 156.192C260.106 156.843 260.716 157.341 261.228 157.948C261.384 158.133 261.608 158.406 261.543 158.667C261.468 158.973 261.081 159.07 260.806 159.022C260.166 158.91 259.628 158.294 259.209 157.846C258.597 157.191 258.077 156.487 257.654 155.697C257.185 154.819 256.807 153.888 256.646 152.904C256.478 151.883 256.562 150.818 256.179 149.838C255.535 148.189 253.974 147.216 252.845 145.931C251.439 144.329 251.649 142.336 251.793 140.365C251.872 139.283 251.95 138.06 251.408 137.072C251.2 136.694 250.738 136.342 250.649 135.913C250.568 135.52 251.013 135.123 251.34 135.475Z" fill="white"/>
<ellipse cx="261.975" cy="164.703" rx="8.39627" ry="6.2972" fill="#8A92A2"/>
<path d="M45.918 147.696C45.918 158.566 39.4445 162.361 31.459 162.361C23.4735 162.361 17 158.566 17 147.696C17 136.827 31.459 123 31.459 123C31.459 123 45.918 136.827 45.918 147.696Z" fill="#DFE4EA"/>
<path d="M30.8092 160.489L30.9564 151.443L37.082 140.251L30.9795 150.024L31.0456 145.956L35.2674 137.859L31.0632 144.88L31.1821 137.564L35.7029 131.118L31.2009 136.414L31.2752 123L30.808 140.758L30.8463 140.025L26.25 132.999L30.7726 141.431L30.3443 149.602L30.3316 149.385L25.0328 141.991L30.3155 150.151L30.262 151.172L30.2524 151.188L30.2568 151.272L29.1702 172H30.622L30.7961 161.293L36.0659 153.154L30.8092 160.489Z" fill="#3F3D56"/>
<path fill-rule="evenodd" clip-rule="evenodd" d="M189.858 105.732C189.858 105.725 189.858 105.717 189.858 105.71C189.929 104.467 189.928 103.236 189.858 102.02V99.9414L189.671 99.9429C187.631 83.2996 172.833 70 156.071 70C138.725 70 123.72 83.7674 122.355 100.49L122.284 100.491V101.606C122.244 102.509 122.243 103.42 122.284 104.336V157.901L189.858 158.725V105.732Z" fill="#DDE3E9"/>
<path fill-rule="evenodd" clip-rule="evenodd" d="M182.167 105.71L182.167 158.725L114.593 157.901V104.36C114.593 104.352 114.593 104.344 114.593 104.336C114.552 103.419 114.552 102.509 114.593 101.606L114.593 100.491L114.663 100.49C116.028 83.7674 131.033 70 148.38 70C165.142 70 179.94 83.2996 181.98 99.9429L182.167 99.9414V102.021C182.236 103.236 182.238 104.467 182.167 105.71Z" fill="white"/>
<path fill-rule="evenodd" clip-rule="evenodd" d="M78.534 82.5265C80.1388 83.8088 81.7884 84.5513 82.6245 84.4603C84.7211 84.2323 85.9296 76.984 84.7661 73.896C83.6027 70.808 75.7255 68.4263 74.521 74.0513C74.103 76.0036 74.6987 77.882 75.7425 79.4932L72.072 89.4041L78.5597 90.3159L78.534 82.5265Z" fill="#CDD2DD"/>
<path fill-rule="evenodd" clip-rule="evenodd" d="M82.2196 70.3665C81.3704 69.9764 80.5191 69.7514 79.9692 69.7362C80.3789 69.0548 80.6146 68.2646 80.6255 67.4644C80.636 66.6869 78.11 65.1378 75.3349 65.9721C72.5597 66.8065 71.4569 69.1214 71.9558 69.8584C72.4011 70.5162 73.1221 71.0104 73.8465 71.2841C73.2716 71.7718 71.9558 72.0937 71.6737 75.411C71.3916 78.7282 73.7984 80.4469 74.1052 80.5554C74.6857 80.7607 75.3772 80.8367 75.9032 80.4342C76.0927 80.2891 76.3049 80.1031 76.4549 79.9143C76.5088 79.8465 76.5418 79.8018 76.4991 79.722C76.448 79.6265 76.3548 79.5457 76.283 79.4665C75.8733 79.0149 75.6585 78.4588 75.6723 77.8357C75.6862 77.2034 75.9691 76.4246 76.6229 76.2397C77.4298 76.0115 78.2127 76.5137 78.8377 76.9671C79.2646 76.0123 79.9799 75.1992 80.9681 74.8726C82.0614 74.5113 83.2428 74.6171 84.3542 74.3315C84.6439 74.257 84.6575 74.3631 84.8914 74.1614C84.9891 74.0771 83.0687 70.7566 82.2196 70.3665Z" fill="#3B4151"/>
<path fill-rule="evenodd" clip-rule="evenodd" d="M67.6052 112.119L74.1803 147.22L74.1803 175.481L79.0543 176.166L77.7115 114.987L67.6052 112.119Z" fill="#CDD3DE"/>
<path fill-rule="evenodd" clip-rule="evenodd" d="M67.4026 110.846C65.5697 129.115 59.4558 139.605 59.0626 141.233C58.6694 142.861 55.6388 156.23 46.682 174.704L51.8726 174.704C62.7418 157.301 67.6194 144.921 68.9094 142.617C70.1993 140.312 74.39 130.796 80.9178 113.99L67.4026 110.846Z" fill="#CDD3DE"/>
<path fill-rule="evenodd" clip-rule="evenodd" d="M67.3835 112.088C68.3778 124.499 75.8904 140.157 73.3297 171.463L79.6572 171.673C83.9897 144.666 82.4043 128.254 80.3134 114.987L67.3835 112.088Z" fill="#3B4151"/>
<path fill-rule="evenodd" clip-rule="evenodd" d="M66.8264 111.718C65.5279 113.94 60.0898 120.025 59.0001 125.532C55.1897 144.786 57.2189 149.081 47.4267 171.036L54.3996 171.036C65.2451 153.913 70.8898 133.363 78.0092 112.119L66.8264 111.718Z" fill="#464D5F"/>
<path fill-rule="evenodd" clip-rule="evenodd" d="M45.6135 176.601L46.7012 173.548C46.9157 172.946 47.64 172.692 48.2418 172.907C50.4339 173.69 53.2465 173.551 53.2465 173.551C55.3621 176.15 58.6446 178.217 60.674 179.342C61.6182 179.865 61.9752 181.087 61.4016 182.001L51.627 179.199L45.9252 177.564L45.6135 176.601Z" fill="#8A92A2"/>
<path fill-rule="evenodd" clip-rule="evenodd" d="M72.7931 179.737L73.11 176.511C73.1724 175.875 73.8137 175.453 74.4496 175.516C76.766 175.746 79.4615 174.931 79.4615 174.931C82.1429 176.94 85.8281 178.152 88.0693 178.753C89.1121 179.032 89.754 180.131 89.4187 181.157L79.2564 180.802L73.3284 180.595L72.7931 179.737Z" fill="#8A92A2"/>
<path fill-rule="evenodd" clip-rule="evenodd" d="M94.244 95.2993L84.4386 98.1128L86.1494 100.943L94.7862 98.1128C96.657 97.8674 97.7982 97.861 98.4462 97.8574C99.1186 97.8537 99.2597 97.8529 99.1339 97.591C98.922 97.1501 98.1997 96.8872 97.557 96.6533C97.0748 96.4778 96.6375 96.3186 96.4942 96.1128C96.16 95.6328 95.9134 95.1108 95.9134 94C95.9134 93.2924 95.9818 93.0349 95.902 92.9752C95.8565 92.9411 95.763 92.9714 95.5812 93.0192C95.2741 93.5314 95.2105 93.894 95.1591 94.187C95.0825 94.624 95.0329 94.9064 94.244 95.2993ZM102.843 104.054L98.3052 105.786L97.9484 110.064C97.9484 110.064 100.954 108.471 103.392 108.143C106.502 107.726 107.802 107.256 109.527 105.59C110.45 104.699 111.397 102.78 110.744 102.02C110.494 101.728 109.346 102.173 108.175 102.626C107.283 102.972 106.377 103.322 105.844 103.357C105.127 103.403 105.337 102.507 105.504 101.792C105.623 101.278 105.722 100.857 105.441 100.943C104.205 100.791 102.843 104.054 102.843 104.054Z" fill="#CED4DE"/>
<path fill-rule="evenodd" clip-rule="evenodd" d="M79.4068 97.0594C82.7681 97.403 87.3459 97.3206 92.5592 95.3734L93.8301 98.9995C90.0639 101.305 85.0443 102.986 81.011 102.444C77.8326 102.016 76.7594 98.6803 79.4068 97.0594Z" fill="#8A92A2"/>
<path fill-rule="evenodd" clip-rule="evenodd" d="M60.8635 122.542C60.2492 122.806 59.8194 122.99 59.6432 123C64.1783 111.006 64.8841 103.381 65.3801 98.0223C65.7266 94.2794 65.9707 91.642 67.3459 89.3938C68.6226 87.3064 73.2404 85.6454 73.4726 85.6781L73.7138 85.712L80.3736 86.6479L81.136 86.7551C81.0833 87.6014 80.9843 88.209 80.8997 88.729C80.7501 89.6477 80.645 90.2928 80.9178 91.4971C81.0522 92.0908 81.78 93.3914 82.4461 94.5818C82.9582 95.497 83.4339 96.3471 83.5755 96.7608C84.3081 98.9008 83.1394 102.21 81.9579 104.232C82.0951 104.333 82.2394 104.422 82.3911 104.5C87.3446 107.027 101.364 104.132 101.364 104.132C101.364 104.132 101.988 105.778 101.364 108.508C92.5419 111.664 85.565 112.687 80.3434 112.139C80.5044 112.696 80.6949 113.31 80.9178 113.99C82.539 118.933 82.4321 127.583 82.3744 132.25C82.3561 133.73 82.3428 134.81 82.3911 135.243C82.4262 135.559 81.5109 134.087 80.2252 132.018C78.1184 128.627 75.017 123.637 73.4726 122.293C69.4999 118.835 63.4924 121.414 60.8635 122.542Z" fill="#8A92A2"/>
<path fill-rule="evenodd" clip-rule="evenodd" d="M217.047 78.5568C215.281 79.9255 213.477 80.7036 212.571 80.5877C210.299 80.2968 209.119 72.3557 210.438 69.0059C211.756 65.6562 220.351 63.2115 221.556 69.3795C221.975 71.5202 221.294 73.5601 220.132 75.2992L223.937 86.1976L216.878 87.0644L217.047 78.5568Z" fill="#CDD2DD"/>
<path fill-rule="evenodd" clip-rule="evenodd" d="M215.735 70.7919C215.014 69.9681 214.344 69.3546 213.532 69.0501C210.435 69.4796 210.004 68.9743 209.776 67.1207C210.234 66.7046 211.929 65.8904 213.889 65.4793C214.865 65.0694 216.068 64.9762 217.28 65.3114C218.752 65.5358 220.063 66.2476 220.793 67.7918C223.123 70.841 222.081 74.4409 220.254 75.8512C219.654 75.3014 219.123 74.7624 218.645 74.2428C218.934 73.8857 219.084 73.4186 219.024 72.9295C218.905 71.9661 218.019 71.282 217.045 71.4017C216.973 71.4105 216.903 71.4234 216.834 71.4401C216.938 72.6501 217.258 76.7477 216.958 78.2216C216.604 79.9592 213.393 80.7694 212.255 80.9091C211.273 81.0297 211.193 80.1059 211.136 79.4438C211.128 79.3485 211.12 79.2586 211.11 79.178C211.09 79.0096 211.311 78.9828 211.562 78.9526C211.887 78.9133 212.26 78.8682 212.215 78.4995C212.166 78.0976 211.566 77.8584 211.03 77.6443C210.695 77.5107 210.385 77.3869 210.248 77.2395C209.816 76.7746 209.608 76.1017 210.164 76.0334C210.468 75.9961 210.907 76.1182 211.434 76.265C212.23 76.4867 213.23 76.7649 214.276 76.6364C216.004 76.4242 215.738 70.8615 215.735 70.7919Z" fill="#3B4151"/>
<path fill-rule="evenodd" clip-rule="evenodd" d="M228.888 111L218.021 147.97L212.909 175.728H207.779L212.9 111H228.888Z" fill="#B28B67"/>
<path fill-rule="evenodd" clip-rule="evenodd" d="M228.888 111L218.021 147.97L212.909 175.728H207.779L212.9 111H228.888Z" fill="#CED4DE"/>
<path fill-rule="evenodd" clip-rule="evenodd" d="M233.772 111C233.013 130.206 233.312 140.681 233.482 142.426C233.652 144.171 234.615 155.857 241.181 176.314H235.845C227.15 156.689 224.115 145.003 223.118 142.426C222.12 139.849 219.175 129.374 214.875 111H233.772Z" fill="#CED4DE"/>
<path fill-rule="evenodd" clip-rule="evenodd" d="M229.121 111C226.294 123.722 221.405 144.028 214.454 171.921L207.306 170.125C209.333 141.568 209.881 125.807 212.9 111H229.121Z" fill="#3B4151"/>
<path fill-rule="evenodd" clip-rule="evenodd" d="M231.755 111C231.599 115.048 233.621 120.11 232.947 125.484C230.922 141.63 236.248 153.995 240.953 172.22H232.947C224.237 152.888 217.993 134.06 213.727 111H231.755Z" fill="#464D5F"/>
<path fill-rule="evenodd" clip-rule="evenodd" d="M238.896 175.882C240.037 175.66 241.342 176.032 241.579 177.171C241.62 177.365 241.645 177.543 241.645 177.688C241.645 178.48 241.377 180 241.377 180C240.446 180 224.645 180 224.645 180C224.645 180 223.992 177.871 225.398 177.701C226.803 177.532 227.732 177.395 227.732 177.395L234.855 174.26C235.368 174.034 235.965 174.273 236.181 174.79L236.404 175.325C236.404 175.325 237.705 175.924 238.519 175.924C238.632 175.924 238.759 175.909 238.896 175.882Z" fill="#8A92A2"/>
<path fill-rule="evenodd" clip-rule="evenodd" d="M211.009 174.882C212.151 174.66 213.456 175.032 213.693 176.171C213.733 176.365 213.758 176.543 213.758 176.688C213.758 177.48 213.49 179 213.49 179C212.56 179 196.758 179 196.758 179C196.758 179 196.106 176.871 197.511 176.701C198.916 176.532 199.846 176.395 199.846 176.395L206.969 173.26C207.481 173.034 208.079 173.273 208.294 173.79L208.518 174.325C208.518 174.325 209.819 174.924 210.632 174.924C210.745 174.924 210.873 174.909 211.009 174.882Z" fill="#8A92A2"/>
<path fill-rule="evenodd" clip-rule="evenodd" d="M246.028 123.306C244.954 121.683 237.715 105.175 237.715 105.175L233.806 105.975C233.806 105.975 241.73 123.443 242.32 124.499C243.087 125.87 242.343 128.091 241.839 129.597C241.761 129.83 241.689 130.046 241.628 130.239C242.622 130.54 243.012 129.981 243.424 129.391C243.889 128.725 244.382 128.02 245.8 128.473C246.347 128.648 246.873 128.869 247.386 129.086C249.159 129.834 250.787 130.522 252.702 129.005C253.005 128.765 253.272 127.967 252.331 127.485C249.987 126.284 246.553 124.1 246.028 123.306ZM195.351 117.347L203.897 109.385L206.594 114.198L197.77 119.148C195.517 122.521 194.204 123.974 193.831 123.505C193.516 123.109 193.672 122.684 193.815 122.292C193.927 121.986 194.032 121.701 193.9 121.467C193.6 120.931 191.842 121.207 190.185 121.54C188.528 121.872 188.925 121.077 189.284 120.664C190.867 119.444 192.89 118.339 195.351 117.347Z" fill="#CED4DE"/>
<path fill-rule="evenodd" clip-rule="evenodd" d="M219.352 81.846L216.755 81.7271C213.245 85.5572 210.783 93.1114 208.428 98.331C205.115 105.672 201.944 110.899 195.772 116.522L198.975 119.592C203.98 117.233 208.377 113.28 211.527 109.942C219.317 101.686 220.807 91.3388 219.352 81.846Z" fill="#8A92A2"/>
<path fill-rule="evenodd" clip-rule="evenodd" d="M234.318 112.08C234.318 112.08 220.406 110.634 213.199 111.518C212.17 111.645 213.141 111.294 213.199 110.535C213.865 101.776 217.142 95.6109 215.594 81.755L221.962 79.9518C228.38 87.8286 231.527 98.1102 234.318 112.08Z" fill="white"/>
<path fill-rule="evenodd" clip-rule="evenodd" d="M237.689 118.032C238.962 120.243 240.18 122.16 241.286 123.62L246.113 123.028C243.704 118.987 240.894 111.5 239.049 106.583C238.403 104.861 237.875 103.454 237.524 102.621C236.855 101.034 236.147 99.4457 235.341 97.6387C234.336 95.3841 233.178 92.7883 231.755 89.4267C231.603 89.067 231.448 88.6848 231.288 88.2932C231.143 87.9343 230.994 87.5677 230.841 87.2033C231.706 86.8544 232.496 86.2276 233.108 85.1977C235.975 80.3709 234.385 78.12 231.755 77.6655C230.538 77.4551 229.511 77.9399 228.441 78.4447C228.081 78.6142 227.717 78.7859 227.34 78.9343C226.412 79.299 224.997 79.609 223.455 79.7984C223.188 79.8311 222.956 79.8866 222.757 79.9616C222.699 79.9471 222.649 79.935 222.607 79.9252L222.572 79.877L222.471 79.8951C222.459 79.8927 222.453 79.8915 222.453 79.8915L222.446 79.8997L219.834 80.3709C219.834 80.3709 219.995 92.9408 220.628 100.16C220.978 104.139 219.834 116.576 217.181 122L237.689 118.032Z" fill="#8A92A2"/>
<path fill-rule="evenodd" clip-rule="evenodd" d="M237.599 117.875C235.885 114.888 234.072 111.377 232.297 107.74C232.323 111.983 232.027 116.283 230.95 118.692L237.599 117.875Z" fill="black" fill-opacity="0.1"/>
<path fill-rule="evenodd" clip-rule="evenodd" d="M124.249 151.264V146H125.249V155.576L129.556 152.704L130.111 153.537L125.249 156.778V158.561H124.249V152.699L124.187 152.751L124.187 152.751L124.187 152.751L124.186 152.751L124.186 152.75L124.186 152.75L124.186 152.749L124.185 152.749L124.185 152.748L124.184 152.748L124.183 152.747L124.183 152.746L124.182 152.745L124.181 152.744L124.18 152.743L124.18 152.742L124.179 152.741L124.178 152.74L124.177 152.739L124.175 152.737L124.174 152.736L124.173 152.735L124.172 152.733L124.17 152.731L124.169 152.73L124.168 152.728L124.166 152.726L124.165 152.724L124.163 152.722L124.161 152.72L124.16 152.718L124.158 152.716L124.156 152.714L124.154 152.712L124.152 152.71L124.15 152.707L124.148 152.705L124.146 152.702L124.144 152.7L124.142 152.697L124.14 152.694L124.137 152.692L124.135 152.689L124.133 152.686L124.13 152.683L124.128 152.68L124.125 152.677L124.123 152.674L124.12 152.671L124.117 152.667L124.114 152.664L124.112 152.661L124.109 152.657L124.106 152.654L124.103 152.65L124.1 152.647L124.097 152.643L124.094 152.639L124.091 152.636L124.087 152.632L124.084 152.628L124.081 152.624L124.078 152.62L124.074 152.616L124.071 152.612L124.067 152.607L124.064 152.603L124.06 152.599L124.056 152.595L124.053 152.59L124.049 152.586L124.045 152.581L124.041 152.576L124.038 152.572L124.034 152.567L124.03 152.562L124.026 152.558L124.022 152.553L124.017 152.548L124.013 152.543L124.009 152.538L124.005 152.533L124.001 152.527L123.996 152.522L123.992 152.517L123.987 152.512L123.983 152.506L123.978 152.501L123.974 152.495L123.969 152.49L123.965 152.484L123.96 152.479L123.955 152.473L123.95 152.467L123.946 152.461L123.941 152.456L123.936 152.45L123.931 152.444L123.926 152.438L123.921 152.432L123.916 152.426L123.911 152.419L123.905 152.413L123.9 152.407L123.895 152.401L123.89 152.394L123.884 152.388L123.879 152.381L123.873 152.375L123.868 152.368L123.862 152.362L123.857 152.355L123.851 152.348L123.846 152.342L123.84 152.335L123.834 152.328L123.829 152.321L123.823 152.314L123.817 152.307L123.811 152.3L123.805 152.293L123.799 152.286L123.793 152.279L123.787 152.271L123.781 152.264L123.775 152.257L123.769 152.249L123.763 152.242L123.756 152.235L123.75 152.227L123.744 152.219L123.738 152.212L123.731 152.204L123.725 152.197L123.718 152.189L123.712 152.181L123.705 152.173L123.699 152.165L123.692 152.157L123.685 152.149L123.679 152.141L123.672 152.133L123.665 152.125L123.659 152.117L123.652 152.109L123.645 152.101L123.638 152.092L123.631 152.084L123.624 152.076L123.617 152.067L123.61 152.059L123.603 152.05L123.596 152.042L123.589 152.033L123.582 152.025L123.574 152.016L123.567 152.007L123.56 151.999L123.553 151.99L123.545 151.981L123.538 151.972L123.53 151.963L123.523 151.954L123.515 151.945L123.508 151.936L123.5 151.927L123.493 151.918L123.485 151.909L123.478 151.9L123.47 151.891L123.462 151.882L123.454 151.872L123.447 151.863L123.439 151.854L123.431 151.844L123.423 151.835L123.415 151.825L123.407 151.816L123.399 151.806L123.391 151.797L123.383 151.787L123.375 151.777L123.367 151.768L123.359 151.758L123.351 151.748L123.343 151.738L123.335 151.729L123.326 151.719L123.318 151.709L123.31 151.699L123.302 151.689L123.293 151.679L123.285 151.669L123.277 151.659L123.268 151.649L123.26 151.638L123.251 151.628L123.243 151.618L123.234 151.608L123.226 151.597L123.217 151.587L123.208 151.577L123.2 151.566L123.191 151.556L123.182 151.546L123.174 151.535L123.165 151.525L123.156 151.514L123.147 151.504L123.138 151.493L123.13 151.482L123.121 151.472L123.112 151.461L123.103 151.45L123.094 151.439L123.085 151.429L123.076 151.418L123.067 151.407L123.058 151.396L123.049 151.385L123.04 151.374L123.03 151.363L123.021 151.352L123.012 151.341L123.003 151.33L122.994 151.319L122.984 151.308L122.975 151.297L122.966 151.286L122.957 151.275L122.947 151.263L122.938 151.252L122.928 151.241L122.919 151.23L122.91 151.218L122.9 151.207L122.891 151.196L122.881 151.184L122.872 151.173L122.862 151.161L122.853 151.15L122.843 151.138L122.833 151.127L122.824 151.115L122.814 151.104L122.804 151.092L122.795 151.08L122.785 151.069L122.775 151.057L122.766 151.045L122.756 151.034L122.746 151.022L122.736 151.01L122.726 150.998L122.717 150.987L122.707 150.975L122.697 150.963L122.687 150.951L122.677 150.939L122.667 150.927L122.657 150.915L122.647 150.903L122.637 150.891L122.627 150.879L122.617 150.867L122.607 150.855L122.597 150.843L122.587 150.831L122.577 150.819L122.567 150.807L122.557 150.795L122.546 150.783L122.536 150.77L122.526 150.758L122.516 150.746L122.506 150.734L122.495 150.721L122.485 150.709L122.475 150.697L122.465 150.684L122.454 150.672L122.444 150.66L122.434 150.647L122.423 150.635L122.413 150.623L122.403 150.61L122.392 150.598L122.382 150.585L122.372 150.573L122.361 150.56L122.351 150.548L122.34 150.535L122.33 150.523L122.319 150.51L122.309 150.498L122.298 150.485L122.288 150.472L122.277 150.46L122.267 150.447L122.256 150.435L122.246 150.422L122.235 150.409L122.225 150.396L122.214 150.384L122.204 150.371L122.193 150.358L122.182 150.346L122.172 150.333L122.161 150.32L122.15 150.307L122.14 150.294L122.129 150.282L122.118 150.269L122.108 150.256L122.097 150.243L122.086 150.23L122.076 150.217L122.065 150.205L122.054 150.192L122.043 150.179L122.033 150.166L122.022 150.153L122.011 150.14L122 150.127L121.989 150.114L121.979 150.101L121.968 150.088L121.957 150.075L121.946 150.062L121.935 150.049L121.925 150.036L121.914 150.023L121.903 150.01L121.892 149.997L121.881 149.984L121.87 149.971L121.859 149.958L121.849 149.945L121.838 149.932L121.827 149.919L121.816 149.906L121.805 149.893L121.794 149.88L121.783 149.867L121.772 149.853L121.761 149.84L121.75 149.827L121.739 149.814L121.728 149.801L121.718 149.788L121.707 149.775L121.696 149.762L121.685 149.748L121.674 149.735L121.663 149.722L121.652 149.709L121.641 149.696L121.63 149.683L121.619 149.669L121.608 149.656L121.597 149.643L121.586 149.63L121.575 149.617L121.564 149.604L121.553 149.59L121.542 149.577L121.531 149.564L121.52 149.551L121.509 149.538L121.498 149.524L121.487 149.511L121.476 149.498L121.465 149.485L121.454 149.472L121.443 149.458L121.432 149.445L121.421 149.432L121.41 149.419L121.399 149.406L121.388 149.392L121.377 149.379L121.366 149.366L121.355 149.353L121.344 149.34L121.333 149.326L121.322 149.313L121.311 149.3L121.3 149.287L121.289 149.274L121.278 149.261L121.267 149.247L121.256 149.234L121.245 149.221L121.234 149.208L121.223 149.195L121.212 149.181L121.201 149.168L121.19 149.155L121.179 149.142L121.168 149.129L121.157 149.116L121.146 149.103L121.135 149.089L121.125 149.076L121.114 149.063L121.103 149.05L121.092 149.037L121.081 149.024L121.07 149.011L121.059 148.998L121.048 148.984L121.037 148.971L121.026 148.958L121.015 148.945L121.004 148.932L120.994 148.919L120.983 148.906L120.972 148.893L120.961 148.88L120.95 148.867L120.939 148.854L120.928 148.841L120.918 148.828L120.907 148.815L120.896 148.802L120.885 148.789L120.874 148.776L120.863 148.763L120.853 148.75L120.842 148.737L120.831 148.724L120.82 148.711L120.81 148.698L120.799 148.685L120.788 148.673L120.777 148.66L120.767 148.647L120.756 148.634L120.745 148.621L120.735 148.608L120.724 148.595L120.713 148.583L120.703 148.57L120.692 148.557L120.681 148.544L120.671 148.532L120.66 148.519L120.649 148.506L120.639 148.493L120.628 148.481L120.618 148.468L120.607 148.455L120.596 148.443L120.586 148.43L120.575 148.417L120.565 148.405L120.554 148.392L120.544 148.379L120.533 148.367L120.523 148.354L120.512 148.342L120.502 148.329L120.492 148.317L120.481 148.304L120.471 148.292L120.46 148.279L120.45 148.267L120.44 148.254L120.429 148.242L120.419 148.23L120.409 148.217L120.398 148.205L120.388 148.193L120.378 148.18L120.368 148.168L120.357 148.156L120.347 148.143L120.337 148.131L120.327 148.119L120.316 148.107L120.306 148.094L120.296 148.082L120.286 148.07L120.276 148.058L120.266 148.046L120.256 148.034L120.246 148.022L120.236 148.01L120.226 147.998L120.216 147.986L120.206 147.974L120.196 147.962L120.186 147.95L120.176 147.938L120.166 147.926L120.156 147.914L120.146 147.902L120.136 147.89L120.126 147.878L120.116 147.867L120.107 147.855L120.097 147.843L120.087 147.831L120.077 147.82L120.068 147.808L120.058 147.796L120.048 147.785L120.038 147.773L120.029 147.761L120.019 147.75L120.01 147.738L120 147.727L120.768 147.087L120.778 147.098L120.787 147.11L120.797 147.121L120.807 147.133L120.816 147.144L120.826 147.156L120.836 147.168L120.846 147.179L120.855 147.191L120.865 147.203L120.875 147.215L120.885 147.226L120.894 147.238L120.904 147.25L120.914 147.262L120.924 147.274L120.934 147.286L120.944 147.297L120.954 147.309L120.964 147.321L120.974 147.333L120.984 147.345L120.994 147.357L121.004 147.369L121.014 147.381L121.024 147.394L121.034 147.406L121.044 147.418L121.054 147.43L121.064 147.442L121.075 147.454L121.085 147.466L121.095 147.479L121.105 147.491L121.115 147.503L121.126 147.515L121.136 147.528L121.146 147.54L121.156 147.552L121.167 147.565L121.177 147.577L121.187 147.589L121.198 147.602L121.208 147.614L121.218 147.627L121.229 147.639L121.239 147.652L121.249 147.664L121.26 147.677L121.27 147.689L121.281 147.702L121.291 147.714L121.302 147.727L121.312 147.739L121.323 147.752L121.333 147.765L121.344 147.777L121.354 147.79L121.365 147.802L121.375 147.815L121.386 147.828L121.396 147.84L121.407 147.853L121.418 147.866L121.428 147.879L121.439 147.891L121.449 147.904L121.46 147.917L121.471 147.93L121.481 147.942L121.492 147.955L121.503 147.968L121.513 147.981L121.524 147.994L121.535 148.007L121.546 148.02L121.556 148.032L121.567 148.045L121.578 148.058L121.589 148.071L121.599 148.084L121.61 148.097L121.621 148.11L121.632 148.123L121.643 148.136L121.653 148.149L121.664 148.162L121.675 148.175L121.686 148.188L121.697 148.201L121.707 148.214L121.718 148.227L121.729 148.24L121.74 148.253L121.751 148.266L121.762 148.279L121.773 148.292L121.784 148.305L121.794 148.318L121.805 148.331L121.816 148.344L121.827 148.357L121.838 148.37L121.849 148.384L121.86 148.397L121.871 148.41L121.882 148.423L121.893 148.436L121.904 148.449L121.915 148.462L121.926 148.475L121.937 148.489L121.948 148.502L121.958 148.515L121.969 148.528L121.98 148.541L121.991 148.554L122.002 148.568L122.013 148.581L122.024 148.594L122.035 148.607L122.046 148.62L122.057 148.634L122.068 148.647L122.079 148.66L122.09 148.673L122.101 148.686L122.112 148.699L122.123 148.713L122.134 148.726L122.145 148.739L122.156 148.752L122.167 148.765L122.178 148.779L122.189 148.792L122.2 148.805L122.211 148.818L122.222 148.831L122.233 148.845L122.244 148.858L122.255 148.871L122.266 148.884L122.277 148.897L122.288 148.911L122.299 148.924L122.31 148.937L122.321 148.95L122.332 148.963L122.343 148.977L122.354 148.99L122.365 149.003L122.376 149.016L122.387 149.029L122.398 149.042L122.409 149.056L122.42 149.069L122.431 149.082L122.442 149.095L122.453 149.108L122.464 149.121L122.475 149.135L122.486 149.148L122.497 149.161L122.508 149.174L122.519 149.187L122.53 149.2L122.54 149.213L122.551 149.226L122.562 149.239L122.573 149.253L122.584 149.266L122.595 149.279L122.606 149.292L122.617 149.305L122.628 149.318L122.639 149.331L122.649 149.344L122.66 149.357L122.671 149.37L122.682 149.383L122.693 149.396L122.704 149.409L122.714 149.422L122.725 149.435L122.736 149.448L122.747 149.461L122.758 149.474L122.768 149.487L122.779 149.5L122.79 149.513L122.801 149.526L122.812 149.539L122.822 149.552L122.833 149.564L122.844 149.577L122.854 149.59L122.865 149.603L122.876 149.616L122.887 149.629L122.897 149.642L122.908 149.654L122.919 149.667L122.929 149.68L122.94 149.693L122.951 149.705L122.961 149.718L122.972 149.731L122.982 149.744L122.993 149.756L123.003 149.769L123.014 149.782L123.025 149.794L123.035 149.807L123.046 149.82L123.056 149.832L123.067 149.845L123.077 149.857L123.088 149.87L123.098 149.883L123.109 149.895L123.119 149.908L123.129 149.92L123.14 149.933L123.15 149.945L123.161 149.958L123.171 149.97L123.181 149.982L123.192 149.995L123.202 150.007L123.212 150.02L123.223 150.032L123.233 150.044L123.243 150.057L123.253 150.069L123.264 150.081L123.274 150.093L123.284 150.106L123.294 150.118L123.304 150.13L123.315 150.142L123.325 150.155L123.335 150.167L123.345 150.179L123.355 150.191L123.365 150.203L123.375 150.215L123.385 150.227L123.395 150.239L123.405 150.251L123.415 150.263L123.425 150.275L123.435 150.287L123.445 150.299L123.455 150.311L123.465 150.323L123.475 150.335L123.485 150.346L123.495 150.358L123.504 150.37L123.514 150.382L123.524 150.394L123.534 150.405L123.543 150.417L123.553 150.429L123.563 150.44L123.573 150.452L123.582 150.464L123.592 150.475L123.602 150.487L123.611 150.498L123.621 150.51L123.63 150.521L123.64 150.533L123.649 150.544L123.659 150.555L123.668 150.567L123.678 150.578L123.687 150.589L123.697 150.601L123.706 150.612L123.715 150.623L123.725 150.634L123.734 150.646L123.743 150.657L123.753 150.668L123.762 150.679L123.771 150.69L123.78 150.701L123.789 150.712L123.799 150.723L123.808 150.734L123.817 150.745L123.826 150.756L123.835 150.767L123.844 150.778L123.853 150.788L123.862 150.799L123.871 150.81L123.88 150.821L123.889 150.831L123.898 150.842L123.907 150.853L123.915 150.863L123.924 150.874L123.933 150.884L123.942 150.895L123.951 150.905L123.959 150.916L123.968 150.926L123.977 150.937L123.985 150.947L123.994 150.957L124.002 150.968L124.011 150.978L124.019 150.988L124.028 150.998L124.036 151.008L124.045 151.018L124.053 151.029L124.062 151.039L124.07 151.049L124.078 151.059L124.086 151.069L124.095 151.078L124.103 151.088L124.111 151.098L124.119 151.108L124.127 151.118L124.136 151.127L124.144 151.137L124.152 151.147L124.16 151.156L124.168 151.166L124.176 151.176L124.184 151.185L124.191 151.195L124.199 151.204L124.207 151.213L124.215 151.223L124.223 151.232L124.23 151.241L124.238 151.251L124.246 151.26L124.249 151.264Z" fill="#DDE3E9"/>
<path fill-rule="evenodd" clip-rule="evenodd" d="M153.519 77.6294L153.403 83.1148L152.403 83.0936L152.615 73.0987L148.029 76.0171L147.492 75.1734L152.641 71.8971L152.68 70.0732L153.679 70.0945L153.55 76.1707L153.602 76.1296L153.602 76.1297L153.602 76.1299L153.602 76.1301L153.602 76.1304L153.603 76.1308L153.603 76.1313L153.604 76.1319L153.604 76.1325L153.605 76.1332L153.605 76.134L153.606 76.1348L153.607 76.1357L153.607 76.1367L153.608 76.1377L153.609 76.1389L153.61 76.14L153.611 76.1413L153.612 76.1426L153.613 76.144L153.614 76.1455L153.616 76.1471L153.617 76.1487L153.618 76.1504L153.62 76.1521L153.621 76.1539L153.623 76.1558L153.624 76.1578L153.626 76.1598L153.628 76.1619L153.629 76.1641L153.631 76.1663L153.633 76.1686L153.635 76.171L153.637 76.1734L153.639 76.1759L153.641 76.1785L153.643 76.1811L153.645 76.1838L153.647 76.1866L153.65 76.1894L153.652 76.1923L153.654 76.1953L153.657 76.1983L153.659 76.2014L153.662 76.2046L153.664 76.2078L153.667 76.2111L153.669 76.2144L153.672 76.2179L153.675 76.2213L153.678 76.2249L153.681 76.2285L153.684 76.2322L153.687 76.2359L153.69 76.2397L153.693 76.2436L153.696 76.2475L153.699 76.2515L153.702 76.2555L153.706 76.2597L153.709 76.2638L153.712 76.2681L153.716 76.2724L153.719 76.2767L153.723 76.2812L153.726 76.2856L153.73 76.2902L153.734 76.2948L153.737 76.2995L153.741 76.3042L153.745 76.309L153.749 76.3138L153.753 76.3187L153.757 76.3237L153.761 76.3287L153.765 76.3338L153.769 76.3389L153.773 76.3441L153.777 76.3494L153.781 76.3547L153.786 76.3601L153.79 76.3655L153.794 76.371L153.799 76.3765L153.803 76.3821L153.808 76.3878L153.812 76.3935L153.817 76.3993L153.822 76.4051L153.826 76.411L153.831 76.417L153.836 76.423L153.841 76.429L153.846 76.4351L153.85 76.4413L153.855 76.4475L153.86 76.4538L153.866 76.4601L153.871 76.4665L153.876 76.4729L153.881 76.4794L153.886 76.486L153.891 76.4926L153.897 76.4992L153.902 76.5059L153.907 76.5127L153.913 76.5195L153.918 76.5264L153.924 76.5333L153.929 76.5403L153.935 76.5473L153.941 76.5544L153.946 76.5615L153.952 76.5687L153.958 76.5759L153.964 76.5832L153.97 76.5905L153.975 76.5979L153.981 76.6054L153.987 76.6128L153.993 76.6204L153.999 76.628L154.006 76.6356L154.012 76.6433L154.018 76.651L154.024 76.6588L154.03 76.6666L154.037 76.6745L154.043 76.6824L154.049 76.6904L154.056 76.6984L154.062 76.7065L154.069 76.7146L154.075 76.7228L154.082 76.731L154.088 76.7393L154.095 76.7476L154.102 76.756L154.108 76.7644L154.115 76.7728L154.122 76.7813L154.129 76.7898L154.135 76.7984L154.142 76.8071L154.149 76.8158L154.156 76.8245L154.163 76.8332L154.17 76.8421L154.177 76.8509L154.184 76.8598L154.192 76.8688L154.199 76.8778L154.206 76.8868L154.213 76.8959L154.221 76.905L154.228 76.9142L154.235 76.9234L154.243 76.9326L154.25 76.9419L154.257 76.9513L154.265 76.9607L154.272 76.9701L154.28 76.9796L154.288 76.9891L154.295 76.9986L154.303 77.0082L154.311 77.0178L154.318 77.0275L154.326 77.0372L154.334 77.047L154.342 77.0568L154.349 77.0666L154.357 77.0765L154.365 77.0864L154.373 77.0963L154.381 77.1063L154.389 77.1164L154.397 77.1264L154.405 77.1365L154.413 77.1467L154.421 77.1569L154.43 77.1671L154.438 77.1774L154.446 77.1877L154.454 77.198L154.463 77.2084L154.471 77.2188L154.479 77.2292L154.488 77.2397L154.496 77.2503L154.504 77.2608L154.513 77.2714L154.521 77.282L154.53 77.2927L154.538 77.3034L154.547 77.3142L154.556 77.3249L154.564 77.3357L154.573 77.3466L154.582 77.3575L154.59 77.3684L154.599 77.3793L154.608 77.3903L154.617 77.4013L154.625 77.4124L154.634 77.4235L154.643 77.4346L154.652 77.4457L154.661 77.4569L154.67 77.4681L154.679 77.4794L154.688 77.4907L154.697 77.502L154.706 77.5133L154.715 77.5247L154.724 77.5361L154.733 77.5475L154.742 77.559L154.752 77.5705L154.761 77.582L154.77 77.5936L154.779 77.6052L154.788 77.6168L154.798 77.6285L154.807 77.6401L154.816 77.6519L154.826 77.6636L154.835 77.6754L154.845 77.6872L154.854 77.699L154.864 77.7109L154.873 77.7227L154.883 77.7347L154.892 77.7466L154.902 77.7586L154.911 77.7706L154.921 77.7826L154.93 77.7946L154.94 77.8067L154.95 77.8188L154.959 77.831L154.969 77.8431L154.979 77.8553L154.989 77.8675L154.998 77.8797L155.008 77.892L155.018 77.9043L155.028 77.9166L155.038 77.9289L155.047 77.9413L155.057 77.9537L155.067 77.9661L155.077 77.9785L155.087 77.991L155.097 78.0035L155.107 78.016L155.117 78.0285L155.127 78.0411L155.137 78.0537L155.147 78.0663L155.157 78.0789L155.167 78.0915L155.177 78.1042L155.188 78.1169L155.198 78.1296L155.208 78.1423L155.218 78.1551L155.228 78.1679L155.238 78.1807L155.249 78.1935L155.259 78.2063L155.269 78.2192L155.279 78.2321L155.29 78.245L155.3 78.2579L155.31 78.2708L155.321 78.2838L155.331 78.2968L155.341 78.3098L155.352 78.3228L155.362 78.3358L155.373 78.3489L155.383 78.362L155.394 78.3751L155.404 78.3882L155.414 78.4013L155.425 78.4144L155.435 78.4276L155.446 78.4408L155.456 78.454L155.467 78.4672L155.478 78.4804L155.488 78.4937L155.499 78.5069L155.509 78.5202L155.52 78.5335L155.531 78.5468L155.541 78.5601L155.552 78.5735L155.563 78.5868L155.573 78.6002L155.584 78.6136L155.595 78.627L155.605 78.6404L155.616 78.6538L155.627 78.6673L155.637 78.6807L155.648 78.6942L155.659 78.7077L155.67 78.7212L155.68 78.7347L155.691 78.7482L155.702 78.7617L155.713 78.7753L155.724 78.7888L155.735 78.8024L155.745 78.816L155.756 78.8296L155.767 78.8432L155.778 78.8568L155.789 78.8704L155.8 78.8841L155.811 78.8977L155.821 78.9114L155.832 78.9251L155.843 78.9387L155.854 78.9524L155.865 78.9661L155.876 78.9798L155.887 78.9935L155.898 79.0073L155.909 79.021L155.92 79.0347L155.931 79.0485L155.942 79.0623L155.953 79.076L155.964 79.0898L155.975 79.1036L155.986 79.1174L155.997 79.1312L156.008 79.145L156.019 79.1588L156.03 79.1726L156.041 79.1864L156.052 79.2003L156.063 79.2141L156.074 79.2279L156.085 79.2418L156.096 79.2556L156.107 79.2695L156.118 79.2834L156.129 79.2972L156.14 79.3111L156.152 79.325L156.163 79.3389L156.174 79.3527L156.185 79.3666L156.196 79.3805L156.207 79.3944L156.218 79.4083L156.229 79.4222L156.24 79.4361L156.251 79.45L156.262 79.4639L156.274 79.4779L156.285 79.4918L156.296 79.5057L156.307 79.5196L156.318 79.5335L156.329 79.5475L156.34 79.5614L156.351 79.5753L156.362 79.5892L156.373 79.6032L156.385 79.6171L156.396 79.631L156.407 79.6449L156.418 79.6589L156.429 79.6728L156.44 79.6867L156.451 79.7006L156.462 79.7146L156.473 79.7285L156.485 79.7424L156.496 79.7563L156.507 79.7702L156.518 79.7841L156.529 79.7981L156.54 79.812L156.551 79.8259L156.562 79.8398L156.573 79.8537L156.584 79.8676L156.596 79.8815L156.607 79.8954L156.618 79.9092L156.629 79.9231L156.64 79.937L156.651 79.9509L156.662 79.9648L156.673 79.9786L156.684 79.9925L156.695 80.0063L156.706 80.0202L156.717 80.034L156.728 80.0479L156.739 80.0617L156.75 80.0755L156.761 80.0893L156.772 80.1032L156.783 80.117L156.794 80.1308L156.805 80.1446L156.816 80.1583L156.827 80.1721L156.838 80.1859L156.849 80.1997L156.86 80.2134L156.871 80.2272L156.882 80.2409L156.893 80.2546L156.904 80.2683L156.915 80.282L156.926 80.2957L156.937 80.3094L156.948 80.3231L156.959 80.3368L156.97 80.3505L156.981 80.3641L156.992 80.3777L157.002 80.3914L157.013 80.405L157.024 80.4186L157.035 80.4322L157.046 80.4458L157.057 80.4594L157.068 80.4729L157.078 80.4865L157.089 80.5L157.1 80.5135L157.111 80.5271L157.121 80.5406L157.132 80.554L157.143 80.5675L157.154 80.581L157.164 80.5944L157.175 80.6079L157.186 80.6213L157.197 80.6347L157.207 80.6481L157.218 80.6615L157.229 80.6748L157.239 80.6882L157.25 80.7015L157.261 80.7148L157.271 80.7281L157.282 80.7414L157.292 80.7547L157.303 80.7679L157.313 80.7812L157.324 80.7944L157.335 80.8076L157.345 80.8208L157.356 80.8339L157.366 80.8471L157.377 80.8602L157.387 80.8733L157.397 80.8864L157.408 80.8995L157.418 80.9126L157.429 80.9256L157.439 80.9386L157.45 80.9516L157.46 80.9646L157.47 80.9776L157.481 80.9905L157.491 81.0035L157.501 81.0164L157.511 81.0293L157.522 81.0421L157.532 81.055L157.542 81.0678L157.552 81.0806L157.563 81.0934L157.573 81.1062L157.583 81.1189L157.593 81.1316L157.603 81.1443L157.613 81.157L157.623 81.1697L157.634 81.1823L157.644 81.1949L157.654 81.2075L157.664 81.22L157.674 81.2326L157.684 81.2451L157.694 81.2576L157.704 81.2701L157.714 81.2825L157.723 81.2949L157.733 81.3073L157.743 81.3197L157.753 81.332L157.763 81.3444L157.773 81.3567L157.782 81.3689L157.792 81.3812L157.802 81.3934L157.812 81.4056L157.821 81.4178L157.831 81.4299L157.049 82.0536L157.04 82.0415L157.03 82.0293L157.02 82.0171L157.011 82.0049L157.001 81.9927L156.991 81.9804L156.981 81.9681L156.971 81.9558L156.962 81.9434L156.952 81.931L156.942 81.9186L156.932 81.9062L156.922 81.8938L156.912 81.8813L156.902 81.8688L156.892 81.8563L156.882 81.8438L156.872 81.8312L156.862 81.8186L156.852 81.806L156.842 81.7934L156.832 81.7807L156.822 81.768L156.811 81.7553L156.801 81.7426L156.791 81.7299L156.781 81.7171L156.771 81.7043L156.761 81.6915L156.75 81.6787L156.74 81.6659L156.73 81.653L156.72 81.6401L156.709 81.6272L156.699 81.6143L156.689 81.6013L156.678 81.5883L156.668 81.5754L156.657 81.5624L156.647 81.5493L156.637 81.5363L156.626 81.5232L156.616 81.5101L156.605 81.497L156.595 81.4839L156.584 81.4708L156.574 81.4576L156.563 81.4445L156.553 81.4313L156.542 81.4181L156.532 81.4049L156.521 81.3916L156.511 81.3784L156.5 81.3651L156.489 81.3518L156.479 81.3385L156.468 81.3252L156.458 81.3119L156.447 81.2985L156.436 81.2852L156.426 81.2718L156.415 81.2584L156.404 81.245L156.394 81.2316L156.383 81.2181L156.372 81.2047L156.361 81.1912L156.351 81.1778L156.34 81.1643L156.329 81.1508L156.318 81.1373L156.307 81.1237L156.297 81.1102L156.286 81.0966L156.275 81.0831L156.264 81.0695L156.253 81.0559L156.243 81.0423L156.232 81.0287L156.221 81.0151L156.21 81.0015L156.199 80.9878L156.188 80.9742L156.177 80.9605L156.166 80.9468L156.155 80.9332L156.144 80.9195L156.134 80.9058L156.123 80.8921L156.112 80.8783L156.101 80.8646L156.09 80.8509L156.079 80.8371L156.068 80.8234L156.057 80.8096L156.046 80.7958L156.035 80.7821L156.024 80.7683L156.013 80.7545L156.002 80.7407L155.991 80.7269L155.98 80.7131L155.969 80.6992L155.958 80.6854L155.947 80.6716L155.936 80.6577L155.925 80.6439L155.914 80.63L155.902 80.6162L155.891 80.6023L155.88 80.5885L155.869 80.5746L155.858 80.5607L155.847 80.5468L155.836 80.533L155.825 80.5191L155.814 80.5052L155.803 80.4913L155.792 80.4774L155.781 80.4635L155.77 80.4496L155.758 80.4357L155.747 80.4218L155.736 80.4079L155.725 80.3939L155.714 80.38L155.703 80.3661L155.692 80.3522L155.681 80.3383L155.67 80.3243L155.658 80.3104L155.647 80.2965L155.636 80.2826L155.625 80.2686L155.614 80.2547L155.603 80.2408L155.592 80.2269L155.581 80.2129L155.57 80.199L155.558 80.1851L155.547 80.1712L155.536 80.1573L155.525 80.1433L155.514 80.1294L155.503 80.1155L155.492 80.1016L155.481 80.0877L155.47 80.0738L155.459 80.0598L155.447 80.0459L155.436 80.032L155.425 80.0181L155.414 80.0042L155.403 79.9903L155.392 79.9765L155.381 79.9626L155.37 79.9487L155.359 79.9348L155.348 79.9209L155.337 79.9071L155.326 79.8932L155.315 79.8793L155.303 79.8655L155.292 79.8516L155.281 79.8378L155.27 79.824L155.259 79.8101L155.248 79.7963L155.237 79.7825L155.226 79.7687L155.215 79.7549L155.204 79.7411L155.193 79.7273L155.182 79.7135L155.171 79.6997L155.16 79.686L155.149 79.6722L155.138 79.6585L155.127 79.6447L155.116 79.631L155.105 79.6173L155.094 79.6035L155.084 79.5898L155.073 79.5761L155.062 79.5624L155.051 79.5488L155.04 79.5351L155.029 79.5214L155.018 79.5078L155.007 79.4942L154.996 79.4805L154.985 79.4669L154.975 79.4533L154.964 79.4397L154.953 79.4261L154.942 79.4126L154.931 79.399L154.92 79.3855L154.91 79.3719L154.899 79.3584L154.888 79.3449L154.877 79.3314L154.867 79.3179L154.856 79.3044L154.845 79.291L154.834 79.2775L154.824 79.2641L154.813 79.2507L154.802 79.2373L154.792 79.2239L154.781 79.2105L154.77 79.1972L154.76 79.1838L154.749 79.1705L154.738 79.1572L154.728 79.1439L154.717 79.1306L154.707 79.1174L154.696 79.1041L154.685 79.0909L154.675 79.0777L154.664 79.0645L154.654 79.0513L154.643 79.0381L154.633 79.025L154.622 79.0119L154.612 78.9988L154.601 78.9857L154.591 78.9726L154.581 78.9595L154.57 78.9465L154.56 78.9335L154.549 78.9205L154.539 78.9075L154.529 78.8946L154.518 78.8816L154.508 78.8687L154.498 78.8558L154.488 78.8429L154.477 78.83L154.467 78.8172L154.457 78.8044L154.447 78.7916L154.436 78.7788L154.426 78.7661L154.416 78.7533L154.406 78.7406L154.396 78.7279L154.386 78.7153L154.376 78.7026L154.365 78.69L154.355 78.6774L154.345 78.6648L154.335 78.6522L154.325 78.6397L154.315 78.6272L154.305 78.6147L154.295 78.6023L154.286 78.5898L154.276 78.5774L154.266 78.565L154.256 78.5527L154.246 78.5403L154.236 78.528L154.226 78.5157L154.217 78.5035L154.207 78.4912L154.197 78.479L154.187 78.4668L154.178 78.4547L154.168 78.4425L154.158 78.4304L154.149 78.4184L154.139 78.4063L154.13 78.3943L154.12 78.3823L154.11 78.3703L154.101 78.3584L154.091 78.3465L154.082 78.3346L154.072 78.3227L154.063 78.3109L154.054 78.2991L154.044 78.2873L154.035 78.2756L154.025 78.2639L154.016 78.2522L154.007 78.2405L153.998 78.2289L153.988 78.2173L153.979 78.2057L153.97 78.1942L153.961 78.1827L153.952 78.1712L153.942 78.1598L153.933 78.1484L153.924 78.137L153.915 78.1257L153.906 78.1144L153.897 78.1031L153.888 78.0918L153.879 78.0806L153.87 78.0694L153.861 78.0583L153.853 78.0472L153.844 78.0361L153.835 78.025L153.826 78.014L153.817 78.003L153.809 77.9921L153.8 77.9812L153.791 77.9703L153.783 77.9595L153.774 77.9486L153.765 77.9379L153.757 77.9271L153.748 77.9164L153.74 77.9058L153.731 77.8951L153.723 77.8845L153.714 77.874L153.706 77.8634L153.698 77.853L153.689 77.8425L153.681 77.8321L153.673 77.8217L153.664 77.8114L153.656 77.8011L153.648 77.7908L153.64 77.7806L153.632 77.7704L153.624 77.7603L153.616 77.7501L153.608 77.7401L153.6 77.73L153.592 77.7201L153.584 77.7101L153.576 77.7002L153.568 77.6903L153.56 77.6805L153.552 77.6707L153.544 77.6609L153.537 77.6512L153.529 77.6415L153.521 77.6319L153.519 77.6294Z" fill="#DDE3E9"/>
<path d="M104 171C104 163.82 109.82 158 117 158H185C192.18 158 198 163.82 198 171H104Z" fill="#C5CFD6"/>
<path fill-rule="evenodd" clip-rule="evenodd" d="M132.77 116.503C135.364 113.514 140.102 109.935 145.828 108.896C151.477 107.872 158.23 109.292 165.036 116.533C165.415 116.935 166.047 116.955 166.45 116.577C166.852 116.198 166.872 115.565 166.494 115.163C159.26 107.467 151.838 105.774 145.472 106.928C139.183 108.068 134.066 111.958 131.26 115.193C130.898 115.61 130.943 116.241 131.36 116.603C131.777 116.965 132.408 116.92 132.77 116.503ZM138.154 120.522C140.084 118.404 143.48 115.89 147.353 115.164C151.129 114.456 155.49 115.418 159.588 120.478C159.935 120.908 160.565 120.974 160.994 120.626C161.424 120.279 161.49 119.649 161.142 119.22C156.6 113.611 151.511 112.35 146.985 113.198C142.555 114.028 138.796 116.848 136.676 119.176C136.304 119.584 136.333 120.216 136.742 120.588C137.15 120.96 137.782 120.931 138.154 120.522ZM143.579 124.495C144.608 123.276 146.446 121.842 148.573 121.431C150.603 121.039 153.062 121.544 155.551 124.495C155.907 124.917 156.538 124.971 156.96 124.614C157.382 124.258 157.436 123.627 157.079 123.205C154.169 119.754 151.002 118.925 148.194 119.467C145.484 119.99 143.272 121.757 142.051 123.205C141.695 123.627 141.748 124.258 142.17 124.614C142.592 124.971 143.223 124.917 143.579 124.495ZM150.14 132.6C151.866 132.6 153.265 131.201 153.265 129.475C153.265 127.749 151.866 126.35 150.14 126.35C148.414 126.35 147.015 127.749 147.015 129.475C147.015 131.201 148.414 132.6 150.14 132.6Z" fill="#CED4DE"/>
<line x1="137.586" y1="131.586" x2="167.586" y2="101.586" stroke="white" stroke-width="4"/>
<line x1="136.849" y1="132.434" x2="166.849" y2="102.434" stroke="#8A92A2" stroke-width="1.6"/>
</svg>
