<svg width="316" height="168" viewBox="0 0 316 168" fill="none" xmlns="http://www.w3.org/2000/svg">
<g clip-path="url(#clip0_2334_275033)">
<path d="M1.07236 142.154C-2.81352 132.745 3.80636 122.018 21.8317 119.808C33.7126 118.36 46.3872 116.365 57.594 113.863C67.4697 111.656 83.4023 99.3516 107.332 95.4215C157.42 87.1958 181.955 115.249 193.436 113.863C204.918 112.477 218.388 112.93 226.541 117.354C232.424 120.547 234.987 125.489 242.57 127.489C249.144 129.221 257.066 128.076 264.391 128.513C281.24 129.522 291.914 138.434 307.295 142.154" fill="#E9EDF1"/>
<path fill-rule="evenodd" clip-rule="evenodd" d="M261.003 89.6382C261.681 89.5602 262.406 89.5877 263.037 89.8398C264.379 90.3758 264.761 91.8676 264.742 93.0801C264.723 94.3852 264.428 95.8106 265.483 96.8621C265.968 97.3456 266.571 97.7155 267.047 98.2078C267.555 98.7339 267.955 99.3359 268.25 99.9823C268.793 101.17 269.059 102.566 268.563 103.811C268.126 104.908 267.027 105.898 267.264 107.145C267.512 108.446 268.906 109.44 269.778 110.409C270.764 111.505 271.672 112.907 271.822 114.345C271.965 115.723 271.327 117.116 270.348 118.158C268.393 120.24 265.454 121.26 262.491 121.254C261.233 121.251 259.808 121.197 258.723 120.561C258.387 120.365 258.21 120.144 258.011 119.838C257.832 119.563 257.595 119.384 257.322 119.189C256.721 118.762 256.287 118.186 256.01 117.541C254.935 115.037 255.794 111.94 257.3 109.716C257.656 109.189 257.948 108.682 257.775 108.054C257.594 107.399 257.15 106.808 256.757 106.244C256.368 105.688 255.925 105.156 255.621 104.554C255.303 103.924 255.214 103.263 255.27 102.573C255.376 101.276 255.971 100.08 256.813 99.0369C257.624 98.0325 258.577 97.0714 258.579 95.7553C258.582 94.3604 257.59 93.1196 258.013 91.7015C258.187 91.1142 258.539 90.5117 259.105 90.1597C259.647 89.822 260.364 89.7116 261.003 89.6382Z" fill="#DDE3E9"/>
<path fill-rule="evenodd" clip-rule="evenodd" d="M260.559 91.8677C260.572 91.6804 260.808 91.568 260.994 91.6169C261.239 91.6813 261.234 91.8964 261.227 92.0881C261.208 92.6773 261.298 93.2499 261.449 93.8216C261.762 95.0102 262.34 96.1053 262.798 97.247C263.256 98.3878 263.471 99.5656 263.202 100.773C262.949 101.911 262.551 103.019 262.292 104.159C262.064 105.163 261.821 106.223 262.169 107.224C262.503 108.189 263.243 108.974 263.776 109.846C264.879 111.65 265.368 113.651 265.433 115.71C265.464 116.667 265.436 117.632 265.201 118.57C265.065 119.11 264.882 119.84 264.39 120.213C264.164 120.385 263.776 120.444 263.585 120.19C263.405 119.951 263.563 119.581 263.62 119.327C263.866 118.225 263.916 117.098 263.857 115.979C263.8 114.896 263.663 113.814 263.301 112.778C262.964 111.818 262.453 110.955 261.851 110.115C261.238 109.258 260.601 108.4 260.347 107.385C260.09 106.355 260.299 105.306 260.579 104.295C260.874 103.226 261.262 102.188 261.662 101.147C262.052 100.134 262.191 99.1746 261.975 98.1137C261.55 96.0178 260.411 94.0504 260.559 91.8677Z" fill="white"/>
<path fill-rule="evenodd" clip-rule="evenodd" d="M278.552 93.165C279.434 93.3981 280.31 93.7742 280.938 94.364C282.275 95.6182 281.865 97.5138 281.127 98.8983C280.333 100.388 279.129 101.886 279.808 103.596C280.119 104.382 280.644 105.094 280.94 105.886C281.256 106.732 281.392 107.614 281.375 108.497C281.343 110.119 280.847 111.851 279.501 113.046C278.316 114.098 276.379 114.713 275.936 116.258C275.474 117.871 276.604 119.677 277.106 121.204C277.673 122.933 277.965 124.975 277.301 126.699C276.664 128.35 275.057 129.648 273.237 130.38C269.602 131.842 265.382 131.617 261.737 130.201C260.189 129.599 258.467 128.86 257.505 127.613C257.208 127.228 257.12 126.89 257.055 126.443C256.997 126.042 256.811 125.724 256.589 125.371C256.102 124.594 255.907 123.726 255.946 122.853C256.099 119.465 258.985 116.314 262.15 114.475C262.899 114.039 263.558 113.596 263.715 112.792C263.879 111.952 263.681 111.062 263.529 110.228C263.379 109.403 263.147 108.582 263.128 107.746C263.108 106.87 263.388 106.068 263.864 105.302C264.759 103.862 266.197 102.77 267.85 101.972C269.441 101.204 271.181 100.553 271.96 99.0416C272.786 97.4399 272.297 95.5428 273.653 94.1141C274.215 93.5224 275.003 92.9971 275.907 92.8617C276.775 92.7319 277.723 92.9457 278.552 93.165Z" fill="#DDE3E9"/>
<path fill-rule="evenodd" clip-rule="evenodd" d="M276.751 95.8143C276.876 95.6048 277.231 95.5887 277.431 95.7341C277.694 95.9254 277.562 96.1707 277.443 96.3882C277.074 97.0566 276.85 97.7589 276.701 98.4888C276.391 100.006 276.46 101.543 276.356 103.077C276.251 104.608 275.826 106.067 274.791 107.327C273.815 108.515 272.679 109.6 271.695 110.787C270.828 111.834 269.91 112.936 269.752 114.255C269.599 115.525 270.048 116.783 270.193 118.041C270.492 120.645 269.923 123.182 268.8 125.584C268.278 126.698 267.68 127.796 266.843 128.762C266.36 129.319 265.71 130.071 264.888 130.264C264.509 130.354 263.998 130.236 263.912 129.852C263.832 129.491 264.241 129.141 264.46 128.875C265.406 127.725 266.125 126.453 266.707 125.138C267.27 123.863 267.735 122.553 267.895 121.188C268.044 119.922 267.92 118.684 267.673 117.429C267.42 116.15 267.139 114.857 267.422 113.568C267.708 112.259 268.577 111.152 269.511 110.123C270.499 109.035 271.582 108.025 272.681 107.02C273.753 106.041 274.483 105.004 274.839 103.68C275.541 101.064 275.293 98.2547 276.751 95.8143Z" fill="white"/>
<path fill-rule="evenodd" clip-rule="evenodd" d="M252.547 102.299C253.909 102.299 255.106 102.977 255.931 103.94C256.896 105.066 257.091 106.442 257.483 107.785C257.678 108.453 258.014 109.117 258.602 109.571C259.137 109.983 259.816 110.066 260.456 110.268C261.735 110.671 262.768 111.642 263.176 112.827C263.674 114.273 263.147 115.73 263.238 117.195C263.321 118.541 264.733 119.38 265.868 120.025C266.988 120.661 267.997 121.256 268.334 122.495C268.692 123.809 268.812 125.275 268.316 126.573C267.492 128.735 265.078 129.686 262.746 129.834C260.629 129.968 257.968 129.758 256.378 128.314C255.427 127.45 255.083 126.241 255.125 125.039C255.152 124.292 255.309 123.551 255.513 122.828C255.658 122.316 255.853 121.807 255.908 121.277C256.056 119.87 254.672 119.599 253.493 119.213C251.996 118.722 250.947 117.794 250.218 116.501C249.539 115.298 249.255 113.947 249.662 112.622C249.869 111.945 250.246 111.331 250.758 110.809C250.983 110.58 251.3 110.388 251.503 110.146C251.693 109.921 251.651 109.629 251.586 109.365C251.284 108.145 250.343 107.135 250.006 105.917C249.702 104.818 249.882 103.45 250.951 102.741C251.413 102.435 251.983 102.302 252.547 102.299Z" fill="#C5CFD6"/>
<path fill-rule="evenodd" clip-rule="evenodd" d="M254.402 105.477C255.845 106.922 256.238 108.882 256.353 110.781C256.417 111.847 256.35 112.97 256.683 114.004C256.968 114.888 257.636 115.564 258.325 116.203C259.711 117.489 261.257 118.797 261.662 120.658C261.9 121.75 261.739 122.879 262.068 123.959C262.367 124.941 262.893 125.906 263.533 126.735C264.049 127.403 264.72 127.914 265.283 128.537C265.455 128.727 265.701 129.006 265.631 129.275C265.548 129.589 265.122 129.688 264.82 129.639C264.115 129.524 263.522 128.892 263.062 128.432C262.388 127.76 261.816 127.038 261.351 126.227C260.834 125.327 260.419 124.371 260.241 123.361C260.057 122.313 260.148 121.221 259.727 120.216C259.019 118.523 257.301 117.525 256.059 116.206C254.511 114.562 254.742 112.517 254.9 110.496C254.987 109.385 255.074 108.13 254.477 107.116C254.249 106.728 253.74 106.367 253.642 105.927C253.552 105.524 254.042 105.117 254.402 105.477Z" fill="white"/>
<ellipse cx="266.105" cy="135.469" rx="9.23976" ry="6.46154" fill="#8A92A2"/>
<path d="M31.9622 117.937C31.9622 128.871 25.8988 132.688 18.4193 132.688C10.9398 132.688 4.87646 128.871 4.87646 117.937C4.87646 107.004 18.4193 93.0957 18.4193 93.0957C18.4193 93.0957 31.9622 107.004 31.9622 117.937Z" fill="#DFE4EA"/>
<path d="M17.67 129.936L17.817 121.047L23.937 110.049L17.8401 119.652L17.9061 115.655L22.1241 107.698L17.9237 114.597L18.0425 107.408L22.5592 101.074L18.0613 106.278L18.1355 93.0957L17.6687 110.546L17.707 109.826L13.1149 102.922L17.6334 111.208L17.2055 119.237L17.1928 119.024L11.8989 111.758L17.1768 119.777L17.1232 120.781L17.1137 120.796L17.118 120.879L16.0325 141.249H17.4829L17.6569 130.727L22.9218 122.728L17.67 129.936Z" fill="#3F3D56"/>
<path d="M178.323 29.6075L180.551 31.9592L180.188 32.3031L182.416 34.6548L182.779 34.3109L185.007 36.6626L184.644 37.0065L185.758 38.1824L185.764 38.1893L185.771 38.196L186.876 39.2762L187.226 38.9187L189.435 41.079L189.086 41.4365L191.295 43.5969L191.645 43.2394L193.854 45.3997L193.505 45.7573L194.459 46.6903V48.4984H194.959V52.5354H194.459V56.5724H194.959V60.6093H194.459V64.6463H194.959V68.6833H194.459V72.7202H194.959V76.7572H194.459V80.7941H194.959V84.8311H194.459V88.8681H194.959V92.905H194.459V96.942H194.959V100.979H194.459V105.016H194.959V109.053H194.459V113.09H194.959V117.127H194.459V121.164H194.959V125.201H194.459V129.238H194.959V133.275H194.459V135.293C194.459 136.04 194.311 136.751 194.042 137.398L194.504 137.59C193.896 139.057 192.723 140.23 191.256 140.838L191.064 140.376C190.417 140.645 189.706 140.793 188.959 140.793H186.983V141.293H183.029V140.793H179.076V141.293H175.123V140.793H171.17V141.293H167.216V140.793H163.263V141.293H159.31V140.793H155.357V141.293H151.404V140.793H147.45V141.293H143.497V140.793H139.544V141.293H135.591V140.793H131.638V141.293H127.684V140.793H123.731V141.293H119.778V140.793H117.801C117.055 140.793 116.344 140.645 115.696 140.376L115.505 140.838C114.038 140.23 112.865 139.057 112.257 137.59L112.718 137.398C112.45 136.751 112.301 136.04 112.301 135.293V133.354H111.801V129.474H112.301V125.595H111.801V121.716H112.301V117.836H111.801V113.957H112.301V110.078H111.801V106.199H112.301V102.319H111.801V98.4399H112.301V94.5606H111.801V90.6814H112.301V86.8021H111.801V82.9228H112.301V79.0435H111.801V75.1642H112.301V71.2849H111.801V67.4056H112.301V63.5263H111.801V59.647H112.301V55.7677H111.801V51.8884H112.301V48.0092H111.801V44.1299H112.301V40.2506H111.801V36.3713H112.301V34.4316C112.301 33.685 112.45 32.9742 112.718 32.3264L112.257 32.1349C112.865 30.6683 114.038 29.4951 115.505 28.8869L115.696 29.3488C116.344 29.0802 117.055 28.9316 117.801 28.9316H119.923V28.4316H124.166V28.9316H128.41V28.4316H132.653V28.9316H136.897V28.4316H141.14V28.9316H145.384V28.4316H149.627V28.9316H153.87V28.4316H158.114V28.9316H162.357V28.4316H166.601V28.9316H170.844V28.4316H175.088V28.9316H176.994L177.96 29.9514L178.323 29.6075Z" fill="white" fill-opacity="0.511473" stroke="#5A5D72" stroke-dasharray="4 4"/>
<path d="M246.523 141.822H253.798" stroke="#E4E8F1"/>
<path fill-rule="evenodd" clip-rule="evenodd" d="M213.397 54.9996C211.897 56.2735 210.356 57.0186 209.58 56.9377C207.639 56.7355 206.568 49.6738 207.667 46.6491C208.766 43.6244 216.08 41.2241 217.159 46.7017C217.533 48.6021 216.969 50.4403 215.991 52.0222L219.359 61.7472L213.319 62.7021L213.397 54.9996Z" fill="#CDD2DD"/>
<path fill-rule="evenodd" clip-rule="evenodd" d="M210.018 43.1136C210.8 42.7305 211.583 42.5095 212.09 42.4946C211.712 41.8255 211.495 41.0496 211.485 40.2639C211.476 39.5004 213.801 37.9793 216.356 38.7985C218.91 39.6178 219.926 41.891 219.466 42.6146C219.056 43.2606 218.393 43.7458 217.726 44.0146C218.255 44.4935 219.466 44.8096 219.726 48.0669C219.986 51.3242 217.77 53.0119 217.488 53.1185C216.953 53.3201 216.317 53.3946 215.833 52.9994C215.658 52.8569 215.463 52.6743 215.325 52.489C215.275 52.4223 215.245 52.3784 215.284 52.3001C215.331 52.2063 215.417 52.127 215.483 52.0492C215.86 51.6058 216.058 51.0597 216.045 50.4479C216.032 49.827 215.772 49.0623 215.17 48.8807C214.427 48.6566 213.707 49.1497 213.131 49.5949C212.738 48.6574 212.08 47.859 211.17 47.5383C210.164 47.1835 209.076 47.2874 208.053 47.0069C207.786 46.9338 207.774 47.038 207.558 46.84C207.468 46.7572 209.236 43.4966 210.018 43.1136Z" fill="#3B4151"/>
<path fill-rule="evenodd" clip-rule="evenodd" d="M223.472 84.1113L217.419 118.578L217.419 146.329L212.932 147.002L214.168 86.9273L223.472 84.1113Z" fill="#CDD3DE"/>
<path fill-rule="evenodd" clip-rule="evenodd" d="M223.658 82.8611C225.345 100.8 230.973 111.101 231.335 112.699C231.697 114.298 234.487 127.426 242.732 145.566L237.954 145.566C227.948 128.478 223.458 116.321 222.271 114.058C221.083 111.795 217.225 102.451 211.216 85.9483L223.658 82.8611Z" fill="#CDD3DE"/>
<path fill-rule="evenodd" clip-rule="evenodd" d="M223.675 84.082C222.76 96.2692 215.844 111.644 218.202 142.385L212.377 142.592C208.388 116.072 209.848 99.9566 211.773 86.9285L223.675 84.082Z" fill="#3B4151"/>
<path fill-rule="evenodd" clip-rule="evenodd" d="M224.188 83.7182C225.384 85.9005 230.39 91.8757 231.393 97.2828C234.901 116.189 233.033 120.406 242.047 141.965L235.628 141.965C225.644 125.151 220.448 104.972 213.894 84.1119L224.188 83.7182Z" fill="#464D5F"/>
<path fill-rule="evenodd" clip-rule="evenodd" d="M243.716 147.429L242.734 144.484C242.53 143.871 241.799 143.623 241.188 143.843C239.208 144.556 236.741 144.419 236.741 144.419C234.847 146.921 231.921 148.918 230.065 150.028C229.148 150.577 228.783 151.785 229.313 152.692L238.232 149.964L243.434 148.373L243.716 147.429Z" fill="#8A92A2"/>
<path fill-rule="evenodd" clip-rule="evenodd" d="M218.696 150.508L218.411 147.396C218.352 146.749 217.693 146.322 217.046 146.377C214.965 146.554 212.61 145.787 212.61 145.787C210.211 147.722 206.931 148.903 204.877 149.503C203.854 149.802 203.218 150.88 203.527 151.898L212.799 151.553L218.208 151.351L218.696 150.508Z" fill="#8A92A2"/>
<path fill-rule="evenodd" clip-rule="evenodd" d="M171.464 56.3293C174.957 53.2088 180.173 53.4759 183.357 56.9383C186.273 60.1091 186.591 65.0097 184.11 68.5622L190.378 75.3819C190.456 75.4661 190.499 75.5793 190.496 75.6965C190.494 75.8136 190.448 75.9251 190.367 76.0061L188.805 77.5716C188.724 77.6532 188.616 77.6978 188.504 77.6956C188.392 77.6934 188.285 77.6445 188.207 77.5599L181.937 70.7441C178.122 73.4207 172.971 72.5239 170.192 68.6994C167.414 64.8749 167.972 59.4497 171.464 56.3293ZM172.631 67.716C175.006 70.297 178.933 70.378 181.403 67.8968V67.8929C183.872 65.4116 183.949 61.3095 181.576 58.7288C179.201 56.1482 175.273 56.068 172.803 58.5496C170.333 61.0312 170.256 65.135 172.631 67.716Z" fill="#C4CBD1"/>
<path fill-rule="evenodd" clip-rule="evenodd" d="M195.822 69.6028L204.606 73.0613L204.94 69.8619L197.005 67.091C195.493 66.2034 194.651 65.5499 194.173 65.1789C193.677 64.7938 193.573 64.713 193.518 64.9904C193.426 65.4572 193.809 66.0794 194.149 66.6331C194.405 67.0484 194.637 67.4252 194.626 67.6687C194.602 68.2367 194.49 68.7869 193.866 69.6551C193.466 70.2103 193.271 70.3713 193.298 70.4638C193.313 70.5159 193.399 70.5463 193.558 70.6133C194.072 70.3903 194.322 70.1436 194.525 69.9442C194.827 69.6469 195.022 69.4547 195.822 69.6028ZM191.051 76.1929L195.236 77.8346L195.537 81.995C195.537 81.995 192.769 80.4727 190.516 80.1775C187.643 79.8012 186.444 79.3566 184.86 77.7522C184.012 76.8937 183.15 75.035 183.758 74.2891C183.992 74.0029 185.05 74.4244 186.13 74.8544C186.953 75.1821 187.788 75.5148 188.28 75.5431C188.943 75.5811 188.756 74.7114 188.606 74.0165C188.499 73.5179 188.411 73.1091 188.67 73.1903C189.814 73.0305 191.051 76.1929 191.051 76.1929Z" fill="#CED4DE"/>
<path fill-rule="evenodd" clip-rule="evenodd" d="M212.607 69.3253C209.513 69.6626 205.299 69.5817 200.5 67.6697L199.33 71.2303C202.797 73.4946 207.418 75.1451 211.131 74.6124C214.056 74.1926 215.044 70.9169 212.607 69.3253Z" fill="#757B87"/>
<path fill-rule="evenodd" clip-rule="evenodd" d="M211.835 59.237C211.829 59.2014 211.826 59.183 211.826 59.183L217.987 58.209C217.998 58.2258 218.009 58.2427 218.019 58.2596L218.237 58.2253C218.453 58.1911 222.738 59.772 223.911 61.8025C225.175 63.9894 225.384 66.5681 225.681 70.2278C226.106 75.4675 226.711 82.9229 230.849 94.6167C230.685 94.6088 230.286 94.4324 229.716 94.1803C227.278 93.1014 221.707 90.6358 217.987 94.0579C216.542 95.3882 213.622 100.302 211.639 103.64C210.429 105.678 209.567 107.128 209.602 106.818C209.65 106.393 209.645 105.337 209.638 103.888C209.616 99.3214 209.576 90.8574 211.118 86.0043C211.359 85.2428 211.562 84.5648 211.728 83.9589C206.893 84.554 200.437 83.6298 192.278 80.6365C191.72 77.9888 192.308 76.3826 192.308 76.3826C192.308 76.3826 205.246 79.0626 209.841 76.5577C209.951 76.498 210.056 76.4312 210.158 76.3577C209.093 74.3819 208.079 71.2325 208.762 69.1688C208.897 68.7626 209.345 67.9261 209.828 67.0255C210.455 65.8541 211.141 64.5743 211.27 63.9919C211.532 62.8107 211.439 62.1804 211.306 61.2827C211.231 60.7747 211.143 60.181 211.1 59.3533L211.835 59.237Z" fill="#9BA4B4"/>
<ellipse rx="2.43904" ry="1.06252" transform="matrix(-0.0975019 -0.995235 -0.993845 0.110782 119.124 121.886)" fill="#6C63FF"/>
<path d="M118.748 119.234L150.818 109.278L150.011 130.973L119.227 124.298L118.748 119.234Z" fill="url(#paint0_linear_2334_275033)"/>
<path d="M120.252 117.354C118.508 117.529 116.897 118.375 115.734 119.727L115.132 120.425L115.103 120.454L106.187 121.587C105.847 121.631 105.606 121.949 105.645 122.304L105.938 124.939C105.957 125.112 106.042 125.271 106.173 125.381C106.305 125.49 106.473 125.541 106.639 125.522L115.541 124.504L115.541 124.505L116.349 124.987C117.837 125.877 119.56 126.234 121.25 126.003L120.252 117.354Z" fill="#A8B0B6"/>
<ellipse rx="0.535038" ry="0.887007" transform="matrix(-0.00507119 -0.999987 -0.999983 0.00577012 111.351 121.796)" fill="#FF3366" stroke="white" stroke-width="0.5"/>
<path fill-rule="evenodd" clip-rule="evenodd" d="M97.2829 91.9211C98.5138 93.5731 99.898 94.7025 100.696 94.8131C102.695 95.0906 105.313 88.2244 104.865 84.897C104.418 81.5695 97.5727 77.33 95.2927 82.5945C94.4978 84.4301 94.671 86.4374 95.3186 88.2852L89.7874 97.2986L95.6716 99.7634L97.2829 91.9211Z" fill="#CDD2DD"/>
<path fill-rule="evenodd" clip-rule="evenodd" d="M94.4386 89.3951C94.9504 85.6631 93.7294 82.4762 94.5971 81.0698C95.4649 79.6633 96.9646 79.848 96.9646 79.848C96.9646 79.848 98.766 77.0929 102.45 79.1229C106.134 81.153 107.87 83.8178 105.507 87.1505C104.575 86.7688 103.579 85.9486 101.801 85.9271C100.955 85.9169 100.087 87.3108 100.087 87.3108L99.3838 87.0229C99.3838 87.0229 99.011 84.7945 97.8433 84.8665C96.6755 84.9386 96.5525 87.0109 96.5525 87.0109L95.1868 89.7015L94.4386 89.3951Z" fill="#191847"/>
<path fill-rule="evenodd" clip-rule="evenodd" d="M43.9442 142.489C51.8862 141.43 57.6009 140.942 61.0884 141.025C67.0597 141.166 72.2577 141.49 74.1554 141.764C78.6807 142.418 77.0433 149.164 74.6527 149.338C71.0344 149.603 60.7882 148.481 43.9139 145.974L43.9442 142.489Z" fill="#CDD3DE"/>
<path fill-rule="evenodd" clip-rule="evenodd" d="M51.9979 135.317L77.1835 140.312C81.9319 140.953 79.2128 151.385 76.7161 151.579C71.0477 152.018 51.472 148.978 49.7832 149.109L51.9979 135.317Z" fill="#3B4151"/>
<path fill-rule="evenodd" clip-rule="evenodd" d="M45.6856 144.044C46.3768 143.13 46.7856 141.811 45.9254 141.027C45.8506 140.959 45.7789 140.901 45.7121 140.857C45.1216 140.463 43.8657 139.918 43.8657 139.918C43.4373 140.649 36.1661 153.061 36.1661 153.061C36.1661 153.061 37.4527 154.631 38.2259 153.612C38.999 152.592 39.5287 151.93 39.5287 151.93L45.078 147.939C45.5191 147.622 45.6213 146.981 45.3057 146.51L45.062 146.147C45.062 146.147 45.2139 144.827 45.5882 144.188C45.6158 144.141 45.6486 144.093 45.6856 144.044Z" fill="#6D737F"/>
<path fill-rule="evenodd" clip-rule="evenodd" d="M46.2629 137.517C49.5134 137.839 60.6929 139.39 65.7436 140.847C67.195 141.265 68.5961 141.682 69.9087 142.084C73.8103 143.279 72.3718 151.078 68.6965 149.757C59.5434 146.466 46.8089 141.299 45.7019 140.893C44.1503 140.323 44.2201 137.315 46.2629 137.517Z" fill="#CDD2DD"/>
<path fill-rule="evenodd" clip-rule="evenodd" d="M47.3295 139.429C47.5181 138.313 47.2037 137.01 46.091 136.801C45.9843 136.781 45.8861 136.769 45.8006 136.767C45.1044 136.754 43.7646 136.977 43.7646 136.977C43.7505 137.839 43.511 152.473 43.511 152.473C43.511 152.473 45.3719 153.112 45.5424 151.813C45.7128 150.515 45.8471 149.656 45.8471 149.656L48.6921 143.152C48.9103 142.653 48.6886 142.07 48.1935 141.842L47.7975 141.659C47.7975 141.659 47.2906 140.444 47.303 139.691C47.3043 139.611 47.3137 139.522 47.3295 139.429Z" fill="#8A92A2"/>
<path fill-rule="evenodd" clip-rule="evenodd" d="M67.8919 139.746C67.8919 139.746 63.8641 127.808 62.5432 123.726C60.0333 115.969 62.5509 111.794 71.0257 108.397L77.8193 121.413C78.4627 124.412 80.3662 148.138 80.3662 148.138C80.4866 151.047 77.1111 152.479 75.8545 152.674C75.7776 152.686 51.1629 152.137 51.1629 152.137L52.0162 137.716L67.1469 140.211C67.1469 140.211 67.985 140.169 67.8919 139.746Z" fill="#464D5F"/>
<path fill-rule="evenodd" clip-rule="evenodd" d="M102.648 109.926L93.1425 105.787L92.5022 110.821L101.263 112.263C104.179 114.457 105.713 115.291 105.865 114.765C105.994 114.322 105.73 114.003 105.487 113.71C105.298 113.482 105.122 113.269 105.153 113.024C105.224 112.464 106.741 112.137 108.194 111.891C109.647 111.645 109.068 111.084 108.644 110.843C106.965 110.297 104.966 109.991 102.648 109.926ZM107.313 121.292L102.884 120.49L100.659 123.924C100.659 123.924 103.795 124.077 105.902 125.017C108.588 126.216 109.845 126.468 111.985 125.923C113.13 125.631 114.76 124.483 114.581 123.516C114.512 123.145 113.389 122.948 112.243 122.746C111.369 122.593 110.483 122.437 110.04 122.2C109.443 121.882 110.016 121.23 110.475 120.709C110.804 120.335 111.073 120.029 110.809 119.961C109.885 119.217 107.313 121.292 107.313 121.292Z" fill="#CDD2DD"/>
<path fill-rule="evenodd" clip-rule="evenodd" d="M91.6524 104.081C94.1408 106.11 97.8388 108.297 103.091 108.847L102.069 113.275C97.7697 113.818 92.8218 113.085 89.9091 110.514C87.6137 108.488 88.6306 104.463 91.6524 104.081Z" fill="#8A92A2"/>
<path fill-rule="evenodd" clip-rule="evenodd" d="M97.238 95.4757C97.2385 95.4751 97.2387 95.4749 97.2387 95.4749L92.3144 91.363C92.3139 91.3632 92.3135 91.3634 92.313 91.3636L92.2092 91.2769C91.586 90.7566 81.1089 95.7563 77.05 101.299C75.6238 103.246 73.5431 104.316 71.3251 105.457C67.7786 107.28 63.8811 109.285 61.747 115.344C62.9748 116.014 64.5089 117.239 66.1893 118.581C70.3418 121.897 75.3877 125.927 78.9139 124.053C80.7822 123.06 82.4038 121.788 83.8477 120.312C87.5995 124.376 93.8501 127.763 103.075 129.644C104.813 127.651 106.176 120.703 106.176 120.703C106.176 120.703 93.6052 116.153 90.7721 111.549C90.6006 111.271 90.4735 110.967 90.3862 110.642C91.2411 108.989 92.0597 107.287 92.8819 105.576C94.447 102.321 96.0252 99.0387 97.8923 96.0219L97.238 95.4757Z" fill="#BAC1CF"/>
<path fill-rule="evenodd" clip-rule="evenodd" d="M82.8075 114.421C82.873 112.49 82.4437 108.11 81.8044 110.14C81.043 112.559 84.2779 121.178 84.8139 121.911C85.1294 122.343 82.7301 116.703 82.8075 114.421Z" fill="#8A92A2"/>
</g>
<defs>
<linearGradient id="paint0_linear_2334_275033" x1="157.902" y1="130.777" x2="130.833" y2="143.787" gradientUnits="userSpaceOnUse">
<stop stop-color="white" stop-opacity="0.01"/>
<stop offset="1" stop-color="#CDD3DE"/>
<stop offset="1" stop-color="#CDD3DE"/>
</linearGradient>
<clipPath id="clip0_2334_275033">
<rect width="316" height="168" fill="white"/>
</clipPath>
</defs>
</svg>
