<svg width="324" height="169" viewBox="0 0 324 169" fill="none" xmlns="http://www.w3.org/2000/svg">
<path d="M2.81216 154.077C-0.680298 135.601 23.7087 114.539 39.9091 110.2C50.5871 107.356 61.9785 103.439 72.0507 98.5268C80.9266 94.1927 95.246 70.0337 116.753 62.3171C161.77 46.1659 183.821 101.248 194.14 98.5268C204.459 95.8054 216.565 96.695 223.893 105.381C229.18 111.652 231.484 121.354 238.299 125.281C244.207 128.681 251.327 126.433 257.911 127.292C273.054 129.273 282.648 146.772 296.471 154.077" fill="#E9EDF1"/>
<path d="M31.5646 127.638C31.5646 139.502 24.4987 143.645 15.7823 143.645C7.06598 143.645 0 139.502 0 127.638C0 115.774 15.7823 100.682 15.7823 100.682C15.7823 100.682 31.5646 115.774 31.5646 127.638Z" fill="#DFE4EA"/>
<path d="M15.0731 141.601L15.2337 131.727L21.92 119.512L15.2589 130.179L15.3311 125.739L19.9393 116.901L15.3503 124.564L15.4801 116.579L20.4147 109.543L15.5006 115.323L15.5817 100.682L15.0717 120.065L15.1136 119.265L10.0966 111.596L15.0332 120.8L14.5657 129.718L14.5518 129.481L8.76807 121.411L14.5342 130.317L14.4758 131.432L14.4653 131.449L14.4701 131.541L13.2841 154.166H14.8687L15.0588 142.48L20.8108 133.595L15.0731 141.601Z" fill="#3F3D56"/>
<path fill-rule="evenodd" clip-rule="evenodd" d="M298.477 91.3026C299.212 91.212 299.996 91.244 300.679 91.5366C302.132 92.1588 302.545 93.8903 302.525 95.2977C302.504 96.8125 302.185 98.467 303.326 99.6875C303.851 100.249 304.504 100.678 305.019 101.25C305.57 101.86 306.001 102.559 306.321 103.309C306.909 104.687 307.197 106.308 306.66 107.754C306.187 109.027 304.997 110.175 305.254 111.623C305.523 113.133 307.031 114.287 307.975 115.411C309.042 116.684 310.025 118.311 310.187 119.98C310.341 121.579 309.651 123.197 308.592 124.406C306.476 126.822 303.296 128.006 300.088 127.999C298.727 127.996 297.185 127.934 296.01 127.196C295.647 126.967 295.455 126.711 295.239 126.355C295.046 126.036 294.79 125.829 294.494 125.603C293.844 125.107 293.374 124.438 293.074 123.69C291.911 120.784 292.841 117.188 294.47 114.607C294.856 113.996 295.172 113.407 294.984 112.679C294.789 111.918 294.308 111.232 293.882 110.578C293.462 109.931 292.982 109.315 292.654 108.616C292.309 107.884 292.213 107.117 292.273 106.316C292.388 104.811 293.032 103.422 293.943 102.212C294.821 101.046 295.852 99.9304 295.855 98.4028C295.857 96.7838 294.784 95.3435 295.241 93.6975C295.431 93.0159 295.811 92.3165 296.423 91.9079C297.011 91.516 297.787 91.3878 298.477 91.3026Z" fill="#DDE3E9"/>
<path fill-rule="evenodd" clip-rule="evenodd" d="M297.998 93.8903C298.011 93.6729 298.267 93.5425 298.468 93.5992C298.733 93.6739 298.728 93.9237 298.721 94.1462C298.7 94.83 298.798 95.4947 298.961 96.1582C299.299 97.5378 299.925 98.8089 300.421 100.134C300.917 101.458 301.149 102.825 300.858 104.226C300.584 105.548 300.154 106.834 299.874 108.157C299.626 109.323 299.364 110.552 299.74 111.715C300.102 112.834 300.903 113.746 301.479 114.758C302.673 116.851 303.202 119.174 303.273 121.565C303.306 122.675 303.276 123.795 303.021 124.884C302.874 125.511 302.677 126.358 302.144 126.791C301.899 126.991 301.479 127.06 301.272 126.764C301.078 126.487 301.248 126.058 301.31 125.762C301.577 124.483 301.63 123.176 301.567 121.877C301.505 120.619 301.357 119.363 300.965 118.162C300.601 117.047 300.047 116.045 299.396 115.07C298.733 114.076 298.043 113.08 297.768 111.902C297.49 110.706 297.716 109.489 298.019 108.315C298.339 107.074 298.758 105.869 299.192 104.661C299.614 103.485 299.764 102.372 299.53 101.14C299.07 98.7073 297.837 96.4238 297.998 93.8903Z" fill="white"/>
<path fill-rule="evenodd" clip-rule="evenodd" d="M317.471 95.3978C318.425 95.6684 319.373 96.1049 320.054 96.7895C321.5 98.2453 321.056 100.445 320.258 102.052C319.398 103.782 318.096 105.521 318.83 107.505C319.167 108.418 319.735 109.244 320.055 110.163C320.397 111.146 320.545 112.169 320.526 113.194C320.491 115.077 319.955 117.086 318.498 118.474C317.216 119.695 315.119 120.409 314.64 122.203C314.14 124.074 315.363 126.17 315.906 127.943C316.52 129.95 316.836 132.321 316.117 134.321C315.428 136.238 313.688 137.744 311.719 138.594C307.785 140.291 303.217 140.03 299.272 138.386C297.597 137.688 295.733 136.83 294.692 135.382C294.37 134.935 294.275 134.543 294.205 134.024C294.142 133.559 293.942 133.19 293.701 132.779C293.173 131.878 292.963 130.87 293.005 129.858C293.171 125.925 296.294 122.267 299.719 120.133C300.531 119.627 301.243 119.112 301.413 118.179C301.591 117.205 301.376 116.171 301.212 115.203C301.05 114.246 300.798 113.292 300.778 112.322C300.757 111.305 301.059 110.375 301.575 109.485C302.543 107.814 304.1 106.547 305.888 105.621C307.61 104.729 309.494 103.973 310.337 102.219C311.23 100.36 310.701 98.1578 312.169 96.4994C312.777 95.8127 313.63 95.203 314.609 95.0458C315.548 94.8951 316.573 95.1433 317.471 95.3978Z" fill="#DDE3E9"/>
<path fill-rule="evenodd" clip-rule="evenodd" d="M315.521 98.4714C315.657 98.2283 316.042 98.2096 316.258 98.3783C316.542 98.6004 316.4 98.8851 316.27 99.1375C315.871 99.9134 315.629 100.729 315.468 101.576C315.132 103.337 315.207 105.121 315.094 106.901C314.98 108.679 314.521 110.371 313.4 111.834C312.344 113.214 311.115 114.473 310.05 115.851C309.111 117.065 308.118 118.345 307.946 119.876C307.781 121.35 308.267 122.81 308.424 124.271C308.748 127.293 308.132 130.238 306.916 133.025C306.351 134.319 305.705 135.593 304.798 136.715C304.276 137.36 303.572 138.234 302.682 138.458C302.272 138.562 301.719 138.425 301.626 137.979C301.539 137.56 301.982 137.154 302.219 136.846C303.243 135.511 304.022 134.035 304.651 132.507C305.261 131.028 305.764 129.507 305.937 127.923C306.098 126.453 305.964 125.017 305.696 123.56C305.423 122.075 305.119 120.574 305.424 119.078C305.734 117.559 306.675 116.275 307.686 115.08C308.756 113.817 309.927 112.645 311.117 111.478C312.277 110.341 313.067 109.137 313.452 107.601C314.213 104.565 313.943 101.304 315.521 98.4714Z" fill="white"/>
<path fill-rule="evenodd" clip-rule="evenodd" d="M289.326 106C290.8 106 292.096 106.787 292.988 107.904C294.033 109.212 294.244 110.809 294.669 112.368C294.88 113.143 295.243 113.913 295.879 114.44C296.458 114.92 297.193 115.016 297.886 115.25C299.271 115.718 300.389 116.845 300.83 118.22C301.369 119.898 300.798 121.59 300.897 123.29C300.987 124.852 302.514 125.826 303.743 126.575C304.955 127.313 306.047 128.004 306.412 129.442C306.799 130.967 306.929 132.669 306.393 134.176C305.5 136.684 302.888 137.789 300.364 137.96C298.073 138.116 295.193 137.872 293.473 136.196C292.443 135.193 292.07 133.79 292.117 132.395C292.145 131.527 292.316 130.668 292.537 129.829C292.693 129.235 292.904 128.643 292.964 128.029C293.124 126.395 291.626 126.081 290.35 125.632C288.73 125.062 287.595 123.985 286.806 122.485C286.071 121.088 285.763 119.52 286.203 117.982C286.428 117.197 286.836 116.484 287.39 115.878C287.633 115.612 287.977 115.389 288.197 115.109C288.402 114.847 288.357 114.508 288.286 114.202C287.959 112.786 286.94 111.613 286.576 110.2C286.247 108.924 286.442 107.336 287.599 106.513C288.099 106.158 288.715 106.004 289.326 106Z" fill="#C5CFD6"/>
<path fill-rule="evenodd" clip-rule="evenodd" d="M291.334 109.689C292.896 111.366 293.321 113.641 293.445 115.846C293.515 117.082 293.443 118.386 293.803 119.586C294.111 120.612 294.834 121.397 295.58 122.139C297.08 123.631 298.753 125.149 299.191 127.31C299.449 128.578 299.275 129.887 299.631 131.141C299.954 132.281 300.524 133.401 301.217 134.363C301.774 135.139 302.501 135.732 303.111 136.455C303.297 136.675 303.563 137 303.486 137.311C303.397 137.676 302.936 137.791 302.609 137.734C301.846 137.6 301.205 136.867 300.706 136.333C299.977 135.553 299.358 134.715 298.855 133.774C298.296 132.729 297.846 131.62 297.654 130.447C297.454 129.231 297.553 127.963 297.098 126.796C296.331 124.832 294.472 123.673 293.127 122.142C291.452 120.234 291.702 117.86 291.873 115.514C291.968 114.224 292.061 112.768 291.415 111.591C291.168 111.141 290.618 110.722 290.512 110.212C290.414 109.744 290.945 109.271 291.334 109.689Z" fill="white"/>
<ellipse cx="304" cy="144.5" rx="10" ry="7.5" fill="#8A92A2"/>
<path d="M103.211 69.9941H208.051C211.786 69.9941 214.815 73.1346 214.815 77.0085V141.287C214.815 145.161 211.786 148.301 208.051 148.301H103.211C99.4755 148.301 96.4473 145.161 96.4473 141.287V77.0085C96.4473 73.1346 99.4755 69.9941 103.211 69.9941Z" stroke="#464D5F" stroke-dasharray="4"/>
<path fill-rule="evenodd" clip-rule="evenodd" d="M236.897 73.1117C235.349 74.3118 233.767 74.994 232.973 74.8923C230.981 74.6374 229.946 67.6746 231.102 64.7375C232.259 61.8005 239.794 59.657 240.851 65.0651C241.218 66.9421 240.621 68.7306 239.602 70.2554L242.938 79.8111L236.749 80.5711L236.897 73.1117Z" fill="#CDD2DD"/>
<path fill-rule="evenodd" clip-rule="evenodd" d="M235.747 66.3039C235.115 65.5816 234.527 65.0437 233.816 64.7767C231.1 65.1534 230.722 64.7103 230.522 63.085C230.924 62.7202 232.41 62.0063 234.129 61.6458C234.984 61.2865 236.039 61.2047 237.102 61.4986C238.393 61.6954 239.542 62.3195 240.182 63.6735C242.224 66.347 241.311 69.5033 239.709 70.7399C239.183 70.2578 238.718 69.7853 238.299 69.3297C238.552 69.0166 238.683 68.6071 238.63 68.1782C238.527 67.3334 237.75 66.7337 236.895 66.8386C236.832 66.8463 236.771 66.8576 236.711 66.8723C236.802 67.9332 237.083 71.526 236.819 72.8183C236.509 74.3418 233.693 75.0522 232.696 75.1747C231.834 75.2805 231.765 74.4705 231.715 73.8899C231.708 73.8063 231.701 73.7275 231.692 73.6568C231.674 73.5092 231.868 73.4857 232.088 73.4592C232.373 73.4248 232.701 73.3852 232.661 73.062C232.618 72.7096 232.092 72.4998 231.621 72.3121C231.328 72.195 231.056 72.0864 230.936 71.9572C230.558 71.5496 230.375 70.9596 230.862 70.8997C231.129 70.867 231.513 70.974 231.976 71.1027C232.674 71.2971 233.55 71.541 234.468 71.4284C235.983 71.2423 235.75 66.363 235.747 66.3039Z" fill="#3B4151"/>
<path fill-rule="evenodd" clip-rule="evenodd" d="M247.279 101.559L237.751 133.974L233.269 158.312H228.771L233.261 101.559H247.279Z" fill="#B28B67"/>
<path fill-rule="evenodd" clip-rule="evenodd" d="M247.279 101.559L237.751 133.974L233.269 158.312H228.771L233.261 101.559H247.279Z" fill="#CED4DE"/>
<path fill-rule="evenodd" clip-rule="evenodd" d="M251.561 101.559C250.897 118.398 251.159 127.583 251.308 129.113C251.456 130.643 252.301 140.889 258.058 158.825H253.379C245.756 141.619 243.094 131.372 242.22 129.113C241.346 126.853 238.763 117.669 234.993 101.559H251.561Z" fill="#CED4DE"/>
<path fill-rule="evenodd" clip-rule="evenodd" d="M247.484 101.559C245.005 112.713 240.719 130.518 234.624 154.973L228.357 153.399C230.133 128.361 230.614 114.541 233.261 101.559H247.484Z" fill="#3B4151"/>
<path fill-rule="evenodd" clip-rule="evenodd" d="M249.794 101.559C249.656 105.108 251.43 109.547 250.839 114.258C249.063 128.415 253.733 139.256 257.858 155.236H250.839C243.201 138.286 237.727 121.778 233.986 101.559H249.794Z" fill="#464D5F"/>
<path fill-rule="evenodd" clip-rule="evenodd" d="M255.792 158.481C256.953 158.417 258.312 158.684 258.452 159.839C258.46 159.907 258.464 159.971 258.464 160.03C258.464 160.724 258.23 162.057 258.23 162.057C257.414 162.057 243.559 162.057 243.559 162.057C243.559 162.057 242.987 160.19 244.219 160.042C245.451 159.893 246.266 159.773 246.266 159.773L252.397 157.075C252.909 156.849 253.507 157.088 253.722 157.605L253.87 157.958C253.87 157.958 255.01 158.483 255.724 158.483C255.746 158.483 255.768 158.483 255.792 158.481Z" fill="#8A92A2"/>
<path fill-rule="evenodd" clip-rule="evenodd" d="M231.341 157.604C232.502 157.54 233.862 157.807 234.001 158.962C234.009 159.03 234.014 159.095 234.014 159.153C234.014 159.847 233.779 161.18 233.779 161.18C232.963 161.18 219.108 161.18 219.108 161.18C219.108 161.18 218.536 159.313 219.768 159.165C221.001 159.016 221.816 158.896 221.816 158.896L227.946 156.198C228.458 155.972 229.056 156.211 229.272 156.728L229.419 157.081C229.419 157.081 230.56 157.606 231.273 157.606C231.295 157.606 231.318 157.606 231.341 157.604Z" fill="#8A92A2"/>
<path fill-rule="evenodd" clip-rule="evenodd" d="M262.308 112.348C261.366 110.925 255.02 96.4508 255.02 96.4508L251.592 97.1521C251.592 97.1521 258.539 112.467 259.057 113.393C259.729 114.596 259.077 116.543 258.635 117.863C258.567 118.068 258.503 118.257 258.451 118.426C259.321 118.69 259.664 118.2 260.025 117.683C260.433 117.099 260.864 116.481 262.108 116.878C262.588 117.031 263.049 117.226 263.499 117.416C265.053 118.072 266.481 118.674 268.16 117.345C268.426 117.134 268.66 116.435 267.835 116.012C265.779 114.959 262.769 113.043 262.308 112.348ZM217.875 107.123L225.368 100.141L227.732 104.362L219.996 108.701C218.02 111.659 216.869 112.933 216.542 112.522C216.266 112.175 216.402 111.802 216.528 111.458C216.626 111.19 216.718 110.94 216.603 110.735C216.34 110.265 214.798 110.507 213.345 110.799C211.893 111.09 212.241 110.393 212.555 110.031C213.944 108.961 215.717 107.992 217.875 107.123Z" fill="#CED4DE"/>
<path fill-rule="evenodd" clip-rule="evenodd" d="M238.918 75.9944L236.641 75.8901C233.564 79.2483 231.405 85.8718 229.34 90.4483C226.435 96.885 223.655 101.468 218.244 106.398L221.052 109.09C225.44 107.021 229.295 103.556 232.058 100.629C238.888 93.3903 240.194 84.3176 238.918 75.9944Z" fill="#8A92A2"/>
<path fill-rule="evenodd" clip-rule="evenodd" d="M252.041 102.504C252.041 102.504 239.843 101.235 233.523 102.011C232.622 102.122 233.473 101.814 233.523 101.148C234.107 93.4687 236.981 88.0634 235.624 75.9146L241.207 74.3335C246.834 81.2398 249.593 90.2547 252.041 102.504Z" fill="white"/>
<path fill-rule="evenodd" clip-rule="evenodd" d="M254.996 107.724C256.113 109.662 257.18 111.343 258.15 112.623L262.382 112.104C260.27 108.561 257.807 101.996 256.189 97.6846C255.622 96.175 255.159 94.9416 254.851 94.2107C254.265 92.8191 253.644 91.4269 252.938 89.8425C252.056 87.8657 251.041 85.5897 249.793 82.6423C249.66 82.3269 249.524 81.9917 249.384 81.6484C249.256 81.3338 249.126 81.0123 248.992 80.6929C249.75 80.387 250.443 79.8374 250.979 78.9343C253.493 74.7023 252.099 72.7287 249.793 72.3302C248.726 72.1457 247.825 72.5708 246.887 73.0134C246.572 73.162 246.253 73.3126 245.922 73.4427C245.109 73.7624 243.868 74.0342 242.516 74.2003C242.282 74.229 242.079 74.2776 241.904 74.3433C241.853 74.3306 241.809 74.32 241.772 74.3114L241.741 74.2692L241.653 74.2851C241.643 74.2829 241.637 74.2819 241.637 74.2819L241.631 74.2892L239.341 74.7023C239.341 74.7023 239.482 85.7236 240.038 92.0535C240.344 95.5423 239.341 106.447 237.015 111.203L254.996 107.724Z" fill="#8A92A2"/>
<path fill-rule="evenodd" clip-rule="evenodd" d="M254.917 107.586C253.414 104.967 251.825 101.889 250.268 98.6999C250.291 102.419 250.031 106.19 249.088 108.302L254.917 107.586Z" fill="black" fill-opacity="0.1"/>
<rect x="71.8643" y="59.7461" width="135.027" height="85.9259" rx="8" transform="rotate(-20 71.8643 59.7461)" fill="#DDE3E9"/>
<path d="M193.276 10.0813L192.112 7.86441" stroke="#8A92A2" stroke-width="1.12" stroke-linecap="round"/>
<path d="M198.973 9.45751L200.158 4.43409" stroke="#8A92A2" stroke-width="1.12" stroke-linecap="round"/>
<path d="M202.36 13.725L205.413 12.2165" stroke="#8A92A2" stroke-width="1.12" stroke-linecap="round"/>
<rect x="69.2339" y="59.7461" width="135.026" height="85.9259" rx="8" transform="rotate(-20 69.2339 59.7461)" fill="white" stroke="#DFE4EA"/>
<rect x="74.5376" y="75.832" width="135.026" height="8.76795" rx="3" transform="rotate(-20 74.5376 75.832)" fill="#EDEEF1"/>
<ellipse cx="122.169" cy="101.575" rx="9.62039" ry="9.63512" transform="rotate(-4 122.169 101.575)" fill="#EDEEF1" stroke="white" stroke-width="2"/>
<ellipse cx="108.177" cy="108.349" rx="9.62039" ry="9.63512" transform="rotate(-4 108.177 108.349)" fill="#EDEEF1" stroke="white" stroke-width="2"/>
<path fill-rule="evenodd" clip-rule="evenodd" d="M64.5953 76.593C66.0024 77.7174 67.4488 78.3684 68.1819 78.2886C70.0201 78.0887 71.0797 71.7334 70.0596 69.0259C69.0396 66.3183 62.1328 64.23 61.0767 69.162C60.7102 70.8738 61.2325 72.5208 62.1477 73.9334L58.9295 82.6233L64.6179 83.4228L64.5953 76.593Z" fill="#CDD2DD"/>
<path fill-rule="evenodd" clip-rule="evenodd" d="M67.827 65.9304C67.0824 65.5884 66.336 65.3911 65.8539 65.3778C66.2132 64.7803 66.4198 64.0874 66.4293 63.3859C66.4386 62.7042 64.2238 61.3459 61.7905 62.0774C59.3573 62.809 58.3904 64.8387 58.8278 65.4849C59.2182 66.0617 59.8504 66.4949 60.4855 66.735C59.9815 67.1625 58.8278 67.4448 58.5804 70.3534C58.3331 73.2619 60.4434 74.7689 60.7123 74.864C61.2214 75.044 61.8276 75.1106 62.2888 74.7577C62.455 74.6305 62.6411 74.4674 62.7726 74.3019C62.8199 74.2424 62.8488 74.2032 62.8114 74.1333C62.7665 74.0495 62.6849 73.9787 62.6219 73.9093C62.2626 73.5133 62.0743 73.0257 62.0864 72.4793C62.0986 71.925 62.3466 71.2421 62.9198 71.08C63.6274 70.8799 64.3138 71.3202 64.8618 71.7178C65.2361 70.8806 65.8633 70.1677 66.7297 69.8813C67.6883 69.5646 68.7242 69.6573 69.6987 69.4069C69.9526 69.3416 69.9646 69.4347 70.1696 69.2578C70.2553 69.1839 68.5716 66.2725 67.827 65.9304Z" fill="#3B4151"/>
<path fill-rule="evenodd" clip-rule="evenodd" d="M55.0137 102.539L60.7787 133.315L60.7787 158.095L65.0521 158.696L63.8748 105.053L55.0137 102.539Z" fill="#CDD3DE"/>
<path fill-rule="evenodd" clip-rule="evenodd" d="M54.8362 101.423C53.2291 117.441 47.8684 126.639 47.5237 128.066C47.1789 129.494 44.5217 141.216 36.6684 157.414L41.2195 157.414C50.7496 142.155 55.0262 131.3 56.1572 129.28C57.2883 127.259 60.9627 118.916 66.6862 104.18L54.8362 101.423Z" fill="#CDD3DE"/>
<path fill-rule="evenodd" clip-rule="evenodd" d="M54.8193 102.512C55.6911 113.394 62.2781 127.123 60.0329 154.572L65.5808 154.756C69.3796 131.076 67.9895 116.686 66.1562 105.053L54.8193 102.512Z" fill="#3B4151"/>
<path fill-rule="evenodd" clip-rule="evenodd" d="M54.3307 102.187C53.1922 104.136 48.4241 109.471 47.4686 114.299C44.1277 131.181 45.9069 134.947 37.3211 154.197L43.435 154.197C52.9442 139.183 57.8935 121.165 64.1357 102.539L54.3307 102.187Z" fill="#464D5F"/>
<path fill-rule="evenodd" clip-rule="evenodd" d="M35.7316 159.077L36.6339 156.544C36.8484 155.942 37.5745 155.686 38.181 155.887C40.0797 156.518 42.4242 156.402 42.4242 156.402C44.2792 158.681 47.1573 160.493 48.9366 161.48C49.7645 161.939 50.0775 163.01 49.5746 163.812L41.0043 161.354L36.0049 159.92L35.7316 159.077Z" fill="#8A92A2"/>
<path fill-rule="evenodd" clip-rule="evenodd" d="M59.5627 161.827L59.8255 159.151C59.888 158.515 60.5305 158.091 61.1677 158.14C63.1625 158.292 65.4095 157.613 65.4095 157.613C67.7606 159.375 70.9917 160.438 72.9568 160.964C73.8711 161.209 74.4339 162.173 74.14 163.072L65.2297 162.761L60.032 162.58L59.5627 161.827Z" fill="#8A92A2"/>
<path fill-rule="evenodd" clip-rule="evenodd" d="M81.9311 96.9863L85.9096 95.4679C85.9096 95.4679 87.1041 92.6069 88.1875 92.7402C88.7773 92.5593 87.4618 94.9259 88.5415 94.8564C89.6213 94.7868 92.4511 93.2336 92.8377 93.6841C93.4098 94.3505 92.5797 96.0333 91.7705 96.8147C90.2581 98.2751 89.1179 98.687 86.3915 99.053C84.2533 99.3401 81.6183 100.738 81.6183 100.738L81.9311 96.9863Z" fill="#CED4DE"/>
<path fill-rule="evenodd" clip-rule="evenodd" d="M65.3612 89.3353C68.3083 89.6366 74.0924 88.6228 78.6634 86.9155L79.7778 90.0949C76.4755 92.1167 70.304 94.532 66.7677 94.0563C63.9809 93.6814 63.0399 90.7565 65.3612 89.3353Z" fill="#8A92A2"/>
<path fill-rule="evenodd" clip-rule="evenodd" d="M66.2089 80.2061L66.8774 80.3C66.8311 81.042 66.7444 81.5748 66.6701 82.0307C66.539 82.8362 66.4469 83.4019 66.686 84.4578C66.8039 84.9784 67.442 86.1187 68.0261 87.1624C68.4751 87.9649 68.8921 88.7102 69.0163 89.0729C69.6586 90.9493 68.634 93.851 67.598 95.6239C67.7183 95.7121 67.8448 95.7905 67.9778 95.8584C72.321 98.0745 84.6134 95.5359 84.6134 95.5359C84.6134 95.5359 85.1604 96.9791 84.6134 99.3724C76.878 102.14 70.7607 103.037 66.1824 102.556C66.3235 103.045 66.4906 103.583 66.686 104.179C68.1075 108.513 68.0138 116.097 67.9632 120.19C67.9472 121.487 67.9355 122.434 67.9778 122.814C68.0086 123.091 67.2061 121.8 66.0787 119.986C64.2315 117.013 61.5122 112.638 60.1581 111.459C56.6749 108.427 51.4075 110.688 49.1025 111.678C48.5639 111.909 48.1871 112.071 48.0325 112.079C52.0089 101.563 52.6278 94.8777 53.0627 90.1791C53.3665 86.8973 53.5805 84.5848 54.7862 82.6136C55.9057 80.7834 59.9546 79.3271 60.1581 79.3557L60.3696 79.3854C60.3696 79.3854 60.3696 79.3854 60.3696 79.3854L66.2089 80.206C66.2089 80.206 66.2089 80.206 66.2089 80.2061Z" fill="#8A92A2"/>
</svg>
