<svg xmlns="http://www.w3.org/2000/svg" viewBox="0 0 66 66">
  <path fill="#f00" d="M32.759,0 C14.696,0 0,14.695 0,32.759 C0,50.823 14.695,65.518 32.759,65.518 C50.823,65.518 65.518,50.823 65.518,32.759 C65.518,14.695 50.822,0 32.759,0 Z M6,32.759 C6,18.004 18.004,6 32.759,6 C39.407,6 45.493,8.443 50.178,12.472 L12.472,50.178 C8.443,45.493 6,39.407 6,32.759 Z M32.759,59.518 C26.811,59.518 21.312,57.565 16.864,54.27 L54.269,16.865 C57.564,21.313 59.517,26.812 59.517,32.76 C59.518,47.514 47.514,59.518 32.759,59.518 Z"/>
</svg>
