<?xml version="1.0" encoding="UTF-8"?>
<svg width="117px" height="117px" viewBox="0 0 117 117" version="1.1" xmlns="http://www.w3.org/2000/svg" xmlns:xlink="http://www.w3.org/1999/xlink">
    <!-- Generator: Sketch 50.2 (55047) - http://www.bohemiancoding.com/sketch -->
    <title>Shapemobile asset</title>
    <desc>Created with Sketch.</desc>
    <defs>
        <linearGradient x1="67.065465%" y1="-4.93093996%" x2="31.9829877%" y2="109.947731%" id="linearGradient-1">
            <stop stop-color="#613647" offset="0%"></stop>
            <stop stop-color="#FF3366" offset="100%"></stop>
        </linearGradient>
    </defs>
    <g id="Miscellaneous" stroke="none" stroke-width="1" fill="none" fill-rule="evenodd">
        <g id="State---0-Team-reports" transform="translate(-129.000000, -138.000000)" fill="url(#linearGradient-1)" fill-rule="nonzero">
            <path d="M243.714844,185.581999 L224.976562,185.581999 L224.976562,180.772275 C224.976562,179.517298 223.95327,178.5 222.691406,178.5 L173.332031,178.5 C172.070168,178.5 171.046875,179.517298 171.046875,180.772275 C171.046875,182.027252 172.070168,183.04455 173.332031,183.04455 L220.40625,183.04455 L220.40625,200.465173 C220.40625,215.768491 212.189514,229.991569 198.921668,237.730483 L155.054895,237.730483 C141.787049,229.991796 133.570312,215.768491 133.570312,200.465401 L133.570312,183.044777 L148.880859,183.044777 C150.142723,183.044777 151.166016,182.02748 151.166016,180.772502 C151.166016,179.517525 150.142723,178.500227 148.880859,178.500227 L131.285156,178.500227 C130.023293,178.500227 129,179.517525 129,180.772502 L129,200.465401 C129,209.0546 131.321719,217.47656 135.714246,224.820325 C138.676494,229.773203 142.520127,234.146878 147.021199,237.73071 L131.285156,237.73071 C130.023293,237.73071 129,238.748008 129,240.002985 C129,248.272475 135.765662,255 144.082031,255 L215.378906,255 C223.695275,255 230.460937,248.272475 230.460937,240.002985 C230.460937,238.748008 229.437645,237.73071 228.175781,237.73071 L206.955363,237.73071 C211.098123,234.432276 214.681934,230.463293 217.536094,225.990547 L223.986404,225.990547 C236.124697,225.990547 246,216.170911 246,204.10104 L246,187.854274 C246,186.599297 244.976936,185.581999 243.714844,185.581999 Z M225.6404,242.27526 C224.594256,246.949784 220.390482,250.45545 215.378906,250.45545 L144.082031,250.45545 C139.070455,250.45545 134.86691,246.949784 133.820537,242.27526 L154.442701,242.27526 L199.533861,242.27526 L225.6404,242.27526 Z M224.976562,200.465401 L224.976562,199.215649 L232.289062,199.215649 L232.289062,204.10104 C232.289062,208.653316 228.564486,212.356897 223.986404,212.356897 L223.467445,212.356897 C224.464916,208.492666 224.976562,204.497552 224.976562,200.465401 Z M241.429687,204.10104 C241.429687,213.665046 233.604627,221.445997 223.986404,221.445997 L220.097068,221.445997 C220.826719,219.964247 221.478445,218.447276 222.047906,216.901447 L223.986404,216.901447 C231.084785,216.901447 236.859375,211.159181 236.859375,204.10104 L236.859375,196.943374 C236.859375,195.688397 235.836082,194.671099 234.574219,194.671099 L224.976563,194.671099 L224.976563,190.126549 L241.429687,190.126549 L241.429687,204.10104 Z M179.355348,150.701295 C183.009987,155.257788 183.015302,161.626872 179.368751,166.189791 L178.136596,167.731572 C177.6802,168.302568 177.005657,168.6 176.324875,168.6 C175.821568,168.6 175.314795,168.437285 174.889826,168.102444 C173.890144,167.314571 173.722837,165.871016 174.51639,164.878199 L175.748545,163.336418 C178.05017,160.456422 178.046703,156.43673 175.740225,153.561095 L174.537881,152.061771 C171.42491,148.180468 171.420288,142.755317 174.526557,138.868505 C175.32011,137.875688 176.773415,137.709301 177.773328,138.497633 C178.773009,139.285507 178.940316,140.729062 178.146764,141.721879 C176.38542,143.925538 176.387962,147.001526 178.153003,149.201972 L179.355348,150.701295 Z M191.955515,156.101295 C195.610008,160.658247 195.615323,167.027331 191.968456,171.590021 L190.736735,173.131572 C190.280559,173.702339 189.605769,174 188.924972,174 C188.421653,174 187.914867,173.837514 187.489889,173.502674 C186.490184,172.7148 186.322873,171.271245 187.116444,170.278428 L188.348396,168.736877 C190.650075,165.857111 190.646609,161.837189 188.340308,158.961324 L187.137935,157.462001 C184.024892,153.580468 184.02027,148.155317 187.126612,144.268505 C187.920182,143.275688 189.373522,143.109301 190.373458,143.897633 C191.373163,144.685507 191.540474,146.129062 190.746903,147.121879 C188.985518,149.325538 188.98806,152.401526 190.753142,154.602202 L191.955515,156.101295 Z M166.755502,156.101289 C170.409974,160.658243 170.415289,167.027329 166.768675,171.59002 L165.536267,173.131801 C165.080093,173.702568 164.405539,174 163.724745,174 C163.221198,174 162.714647,173.837284 162.289671,173.502444 C161.289972,172.714341 161.122893,171.270785 161.916459,170.277968 L163.148636,168.736416 C165.45007,165.856878 165.446604,161.836955 163.140316,158.96109 L161.937951,157.461766 C158.824925,153.580461 158.820303,148.155079 161.926396,144.268266 C162.719962,143.275908 164.173293,143.10929 165.173223,143.897394 C166.172922,144.685497 166.340232,146.129052 165.546666,147.12187 C163.785522,149.325529 163.788064,152.401748 165.553136,154.602195 L166.755502,156.101289 Z M163.44075,179.15925 C163.861275,179.57775 164.1,180.15825 164.1,180.75 C164.1,181.344 163.861275,181.92225 163.44075,182.343 C163.02225,182.7615 162.44175,183 161.85,183 C161.25825,183 160.67775,182.7615 160.25925,182.343 C159.84075,181.92225 159.6,181.34175 159.6,180.75 C159.6,180.15825 159.840975,179.58 160.25925,179.15925 C160.67775,178.74075 161.25825,178.5 161.85,178.5 C162.44175,178.5 163.02225,178.74075 163.44075,179.15925 Z M211.357196,198.3 C212.595673,198.3 213.6,199.314274 213.6,200.565522 C213.6,210.160236 209.749555,219.587075 203.035946,226.428952 C202.597478,226.87594 202.02018,227.099773 201.442883,227.1 C200.872089,227.1 200.301295,226.881377 199.863949,226.443452 C198.984321,225.562617 198.977817,224.128088 199.849819,223.23955 C205.737627,217.239314 209.114393,208.974915 209.114393,200.565522 C209.114393,199.314274 210.11872,198.3 211.357196,198.3 Z M196.212671,229.137429 C196.816108,230.212539 196.438209,231.575762 195.368126,232.182384 L195.317414,232.211218 C194.972211,232.406794 194.596759,232.5 194.226645,232.5 C193.44994,232.5 192.696145,232.090743 192.287329,231.362528 C191.683892,230.287417 192.061791,228.924195 193.131874,228.317573 L193.182586,228.288739 C194.252447,227.682341 195.609012,228.062094 196.212671,229.137429 Z" id="Shape"></path>
        </g>
    </g>
</svg>