<svg width="75" height="71" viewBox="0 0 75 71" fill="none" xmlns="http://www.w3.org/2000/svg">
<path fill-rule="evenodd" clip-rule="evenodd" d="M35.268 39.7289C41.635 46.0966 51.063 47.4723 58.7783 43.9042C59.9173 43.4456 60.8511 43.075 61.7388 43.075C64.2115 43.0897 67.2893 45.4872 68.8889 43.8896C70.4885 42.2898 68.0891 39.2096 68.0891 36.722C68.0891 35.8342 68.445 34.917 68.9035 33.7758C72.4733 26.0617 71.0956 16.6306 64.7287 10.265C56.6009 2.13424 43.3958 2.13424 35.268 10.2629C27.1256 18.4063 27.1403 31.6002 35.268 39.7289Z" stroke="#A9ACBC" stroke-width="2.5" stroke-linecap="round" stroke-linejoin="round"/>
<path d="M41.793 25.8604H41.7742" stroke="#A9ACBC" stroke-width="4" stroke-linecap="round" stroke-linejoin="round"/>
<path d="M50.145 25.8604H50.1263" stroke="#A9ACBC" stroke-width="4" stroke-linecap="round" stroke-linejoin="round"/>
<path d="M58.4971 25.8604H58.4784" stroke="#A9ACBC" stroke-width="4" stroke-linecap="round" stroke-linejoin="round"/>
<path fill-rule="evenodd" clip-rule="evenodd" d="M39.732 60.7289C33.365 67.0966 23.9371 68.4723 16.2217 64.9042C15.0827 64.4456 14.1489 64.075 13.2612 64.075C10.7885 64.0897 7.71078 66.4872 6.11119 64.8895C4.51159 63.2898 6.91098 60.2096 6.91098 57.722C6.91098 56.8341 6.55505 55.917 6.09653 54.7758C2.52675 47.0617 3.90441 37.6306 10.2714 31.265C18.3992 23.1342 31.6042 23.1342 39.732 31.2629C47.8745 39.4063 47.8598 52.6002 39.732 60.7289Z" fill="white" stroke="#5A5D72" stroke-width="2.5" stroke-linecap="round" stroke-linejoin="round"/>
<path d="M33.2071 46.8604H33.2258" stroke="#5A5D72" stroke-width="4" stroke-linecap="round" stroke-linejoin="round"/>
<path d="M24.855 46.8604H24.8738" stroke="#5A5D72" stroke-width="4" stroke-linecap="round" stroke-linejoin="round"/>
<path d="M16.5029 46.8604H16.5217" stroke="#5A5D72" stroke-width="4" stroke-linecap="round" stroke-linejoin="round"/>
</svg>
