<?xml version="1.0" encoding="UTF-8"?>
<svg width="117px" height="117px" viewBox="0 0 117 117" version="1.1" xmlns="http://www.w3.org/2000/svg" xmlns:xlink="http://www.w3.org/1999/xlink">
    <!-- Generator: sketchtool 50.2 (55047) - http://www.bohemiancoding.com/sketch -->
    <title>37FF8D37-8184-4965-892E-51EABC9B9414</title>
    <desc>Created with sketchtool.</desc>
    <defs>
        <linearGradient x1="67.065465%" y1="-4.93093996%" x2="31.9829877%" y2="109.947731%" id="linearGradient-1">
            <stop stop-color="#613647" offset="0%"></stop>
            <stop stop-color="#FF3366" offset="100%"></stop>
        </linearGradient>
    </defs>
    <g id="Miscellaneous" stroke="none" stroke-width="1" fill="none" fill-rule="evenodd">
        <g id="State---0-expenses,-!0-reports" transform="translate(-129.000000, -146.000000)" fill="url(#linearGradient-1)" fill-rule="nonzero">
            <g id="folder" transform="translate(129.000000, 146.000000)">
                <path d="M112.1055,52.65 L105.3,52.65 L105.3,40.4274 C105.3,37.4907 102.9093,35.1 99.9726,35.1 L93.6,35.1 L93.6,30.3927 L92.63475,29.42745 C92.6328,29.42745 92.6328,29.4255 92.6328,29.42355 L78.4056,15.19635 L63.2073,0 L15.6,0 L15.6,21.45 L5.3274,21.45 C2.3907,21.45 0,23.8407 0,26.7774 L0,111.96705 L0.0117,111.96705 C0.00195,113.0649 0.3432,114.13935 1.0296,115.0383 C1.9851,116.2863 3.432,117 5.00175,117 L92.2818,117 C94.536,117 96.5211,115.48095 97.0593,113.46465 L117,58.79055 L117,58.4454 C117,55.0875 114.9408,52.65 112.1055,52.65 Z M99.9726,39 C100.75845,39 101.4,39.6396 101.4,40.4274 L101.4,52.65 L93.6,52.65 L93.6,39 L99.9726,39 Z M64.35,6.65925 L86.9427,29.25 L64.35,29.25 L64.35,6.65925 Z M19.5,3.9 L60.45,3.9 L60.45,33.15 L89.7,33.15 L89.7,35.1 L89.7,52.65 L24.82545,52.65 C24.5466,52.65 24.27165,52.6734 24.00255,52.71825 C22.10325,53.03415 20.51985,54.41865 20.04795,56.18535 L19.5,57.69075 L19.5,21.45 L19.5,3.9 Z M3.9,26.7774 C3.9,25.9896 4.54155,25.35 5.3274,25.35 L15.6,25.35 L15.6,68.31825 L3.9,100.22805 L3.9,26.7774 Z M93.34455,112.28685 C93.21585,112.7646 92.77905,113.1 92.2818,113.1 L5.00175,113.1 C4.5279,113.1 4.251,112.82895 4.12815,112.6671 C4.0053,112.5072 3.81615,112.1679 3.8883,111.8715 L15.6,79.7511 L15.6,79.76085 L23.712,57.52305 L23.7627,57.36315 C23.8914,56.8854 24.33015,56.55 24.82545,56.55 L89.7,56.55 L93.6,56.55 L105.3,56.55 L112.1055,56.55 C112.8465,56.55 113.03565,57.6147 113.0844,58.14705 L93.34455,112.28685 Z M30.9166667,33 C29.8586667,33 29,32.106 29,31 C29,29.894 29.8586667,29 30.9166667,29 L50.0833333,29 C51.1413333,29 52,29.894 52,31 C52,32.106 51.1413333,33 50.0833333,33 L30.9166667,33 Z M30.9166667,20 C29.8586667,20 29,19.106 29,18 C29,16.894 29.8586667,16 30.9166667,16 L50.0833333,16 C51.1413333,16 52,16.894 52,18 C52,19.106 51.1413333,20 50.0833333,20 L30.9166667,20 Z M30.9615385,47 C29.8787692,47 29,46.106 29,45 C29,43.894 29.8787692,43 30.9615385,43 L78.0384615,43 C79.1212308,43 80,43.894 80,45 C80,46.106 79.1212308,47 78.0384615,47 L30.9615385,47 Z" id="Shape"></path>
            </g>
        </g>
    </g>
</svg>