<svg viewBox="0 0 117 117" xmlns="http://www.w3.org/2000/svg"><defs><linearGradient x1="50%" y1="0%" x2="50%" y2="100%" id="a"><stop stop-color="#615358" offset="0%"/><stop stop-color="#008146" offset="100%"/></linearGradient></defs><path d="M109.31 7.7c4.958 4.954 7.69 11.564 7.69 18.614 0 7.051-2.732 13.661-7.69 18.614l-26.4 26.374C77.775 76.433 71.027 79 64.278 79c-6.748 0-13.494-2.567-18.633-7.698a2.195 2.195 0 013.105-3.102c8.563 8.551 22.499 8.551 31.059 0l26.394-26.374c4.129-4.124 6.404-9.63 6.404-15.51 0-5.879-2.275-11.387-6.404-15.512-4.129-4.124-9.64-6.397-15.528-6.397-5.883 0-11.398 2.27-15.526 6.395L54.962 30.967a2.195 2.195 0 01-3.105-3.102L72.043 7.7c10.275-10.269 26.996-10.265 37.266 0zM75 97c1.106 0 2 1.006 2 2.25v13.5c0 1.244-.894 2.25-2 2.25-1.106 0-2-1.006-2-2.25v-13.5c0-1.244.894-2.25 2-2.25zm-15.605-8.052a2.213 2.213 0 013.128 0c.865.864.865 2.26 0 3.125L45.308 109.26c-4.996 4.99-11.664 7.739-18.78 7.739-7.111 0-13.78-2.751-18.777-7.739C2.753 104.273 0 97.615 0 90.512c0-7.102 2.751-13.76 7.749-18.75l25.043-25.005c10.356-10.345 27.208-10.34 37.559 0 .865.864.865 2.26 0 3.124a2.213 2.213 0 01-3.13 0c-8.627-8.61-22.67-8.614-31.3 0l-25.04 25.003c-8.628 8.616-8.628 22.638 0 31.252 4.163 4.155 9.718 6.444 15.65 6.444 5.931 0 11.489-2.29 15.65-6.444l17.214-17.188zm25.433 4.71l9.514 9.514A2.24 2.24 0 0192.757 107c-.574 0-1.148-.22-1.585-.657l-9.514-9.514a2.24 2.24 0 010-3.171 2.24 2.24 0 013.17 0zM99.75 84c1.244 0 2.25.894 2.25 2 0 1.106-1.006 2-2.25 2h-13.5c-1.244 0-2.25-.894-2.25-2 0-1.106 1.006-2 2.25-2h13.5zM25.171 28.343l-9.513-9.514a2.24 2.24 0 010-3.171 2.24 2.24 0 013.17 0l9.514 9.514A2.24 2.24 0 0126.757 29c-.574 0-1.149-.22-1.586-.657zM35 25c-1.104 0-2-1.006-2-2.25V9.25C33 8.006 33.894 7 35 7c1.106 0 2 1.006 2 2.25v13.5c0 1.244-.894 2.25-2 2.25zM11.25 37C10.008 37 9 36.106 9 35c0-1.106 1.006-2 2.25-2h13.5c1.244 0 2.25.894 2.25 2 0 1.106-1.006 2-2.25 2h-13.5z" fill="url(#a)" fill-rule="nonzero"/></svg>