<?xml version="1.0" encoding="UTF-8"?>
<svg width="117px" height="117px" viewBox="0 0 117 117" version="1.1" xmlns="http://www.w3.org/2000/svg" xmlns:xlink="http://www.w3.org/1999/xlink">
    <!-- Generator: sketchtool 50.2 (55047) - http://www.bohemiancoding.com/sketch -->
    <title>18FE8691-5D64-41EF-8D48-0380749A3E9C</title>
    <desc>Created with sketchtool.</desc>
    <defs>
        <linearGradient x1="67.065465%" y1="-4.93093996%" x2="31.9829877%" y2="109.947731%" id="linearGradient-1">
            <stop stop-color="#613647" offset="0%"></stop>
            <stop stop-color="#FF3366" offset="100%"></stop>
        </linearGradient>
    </defs>
    <g id="Miscellaneous" stroke="none" stroke-width="1" fill="none" fill-rule="evenodd">
        <g id="State---0-expenses,-0-reports" transform="translate(-129.000000, -146.000000)" fill="url(#linearGradient-1)" fill-rule="nonzero">
            <path d="M230.903226,172.419355 L230.903226,146 L129,146 L129,253.564516 C129,258.767242 133.232758,263 138.435484,263 L236.564516,263 C241.767242,263 246,258.767242 246,253.564516 L246,172.419355 L230.903226,172.419355 Z M138.435484,259.225806 C135.314226,259.225806 132.774194,256.685774 132.774194,253.564516 L132.774194,149.774194 L227.129032,149.774194 L227.129032,172.419355 L227.129032,181.854839 L227.129032,253.564516 C227.129032,255.696935 227.866887,257.644419 229.065194,259.225806 L138.435484,259.225806 Z M242.225806,253.564516 C242.225806,256.685774 239.685774,259.225806 236.564516,259.225806 C233.443258,259.225806 230.903226,256.685774 230.903226,253.564516 L230.903226,181.854839 L230.903226,176.193548 L242.225806,176.193548 L242.225806,253.564516 Z M137.013699,154.013699 L137.013699,202.89726 L189.90411,202.89726 L189.90411,154.013699 L137.013699,154.013699 Z M186.126223,199.136986 L140.791585,199.136986 L140.791585,157.773973 L186.126223,157.773973 L186.126223,199.136986 Z M219.768493,251.958904 L219.768493,221.328767 L208.389041,221.328767 L208.389041,251.958904 L200.80274,251.958904 L200.80274,228.986301 L189.423288,228.986301 L189.423288,251.958904 L181.836986,251.958904 L181.836986,221.328767 L170.457534,221.328767 L170.457534,251.958904 L166.664384,251.958904 L166.664384,255.787671 L223.561644,255.787671 L223.561644,251.958904 L219.768493,251.958904 Z M178.043836,251.958904 L174.250685,251.958904 L174.250685,225.157534 L178.043836,225.157534 L178.043836,251.958904 Z M197.009589,251.958904 L193.216438,251.958904 L193.216438,232.815068 L197.009589,232.815068 L197.009589,251.958904 Z M215.975342,251.958904 L212.182192,251.958904 L212.182192,225.157534 L215.975342,225.157534 L215.975342,251.958904 Z M193.109589,161.226027 L223.561644,161.226027 L223.561644,165.232877 L193.109589,165.232877 L193.109589,161.226027 Z M193.109589,154.013699 L223.561644,154.013699 L223.561644,158.020548 L193.109589,158.020548 L193.109589,154.013699 Z M193.109589,168.438356 L223.561644,168.438356 L223.561644,172.445205 L193.109589,172.445205 L193.109589,168.438356 Z M193.109589,176.452055 L223.561644,176.452055 L223.561644,180.458904 L193.109589,180.458904 L193.109589,176.452055 Z M193.109589,183.664384 L215.547945,183.664384 L215.547945,187.671233 L193.109589,187.671233 L193.109589,183.664384 Z M219.554795,183.664384 L223.561644,183.664384 L223.561644,187.671233 L219.554795,187.671233 L219.554795,183.664384 Z M137.013699,206.10274 L167.465753,206.10274 L167.465753,210.109589 L137.013699,210.109589 L137.013699,206.10274 Z M137.013699,214.116438 L167.465753,214.116438 L167.465753,218.123288 L137.013699,218.123288 L137.013699,214.116438 Z M137.013699,221.328767 L167.465753,221.328767 L167.465753,225.335616 L137.013699,225.335616 L137.013699,221.328767 Z M137.013699,228.541096 L167.465753,228.541096 L167.465753,232.547945 L137.013699,232.547945 L137.013699,228.541096 Z M163.458904,236.554795 L167.465753,236.554795 L167.465753,240.561644 L163.458904,240.561644 L163.458904,236.554795 Z M137.013699,236.554795 L159.452055,236.554795 L159.452055,240.561644 L137.013699,240.561644 L137.013699,236.554795 Z M213.914384,206.10274 C210.804637,206.10274 208.273973,208.583621 208.273973,211.632192 C208.273973,211.707761 208.292774,211.775958 208.296534,211.849684 L199.328281,215.366415 C198.294205,214.216289 196.797616,213.475342 195.113014,213.475342 C193.428411,213.475342 191.931822,214.216289 190.897747,215.368258 L181.929493,211.849684 C181.933253,211.775958 181.952055,211.707761 181.952055,211.632192 C181.952055,208.583621 179.42139,206.10274 176.311644,206.10274 C173.201897,206.10274 170.671233,208.583621 170.671233,211.632192 C170.671233,214.680763 173.201897,217.161644 176.311644,217.161644 C177.996247,217.161644 179.492836,216.420697 180.526911,215.268728 L189.495164,218.78546 C189.491404,218.861029 189.472603,218.929225 189.472603,219.004795 C189.472603,222.053366 192.003267,224.534247 195.113014,224.534247 C198.22276,224.534247 200.753425,222.053366 200.753425,219.004795 C200.753425,218.929225 200.734623,218.861029 200.730863,218.787303 L209.699116,215.270571 C210.733192,216.420697 212.229781,217.161644 213.914384,217.161644 C217.02413,217.161644 219.554795,214.680763 219.554795,211.632192 C219.554795,208.583621 217.02413,206.10274 213.914384,206.10274 Z M176.311644,213.475342 C175.273808,213.475342 174.431507,212.647768 174.431507,211.632192 C174.431507,210.616616 175.273808,209.789041 176.311644,209.789041 C177.349479,209.789041 178.191781,210.616616 178.191781,211.632192 C178.191781,212.647768 177.349479,213.475342 176.311644,213.475342 Z M195.113014,220.847945 C194.075178,220.847945 193.232877,220.020371 193.232877,219.004795 C193.232877,217.989218 194.075178,217.161644 195.113014,217.161644 C196.150849,217.161644 196.993151,217.989218 196.993151,219.004795 C196.993151,220.020371 196.150849,220.847945 195.113014,220.847945 Z M213.914384,213.475342 C212.876548,213.475342 212.034247,212.647768 212.034247,211.632192 C212.034247,210.616616 212.876548,209.789041 213.914384,209.789041 C214.952219,209.789041 215.794521,210.616616 215.794521,211.632192 C215.794521,212.647768 214.952219,213.475342 213.914384,213.475342 Z M173.876712,176.452055 L177.883562,176.452055 L177.883562,180.458904 L173.876712,180.458904 L173.876712,176.452055 Z M147.431507,176.452055 L151.438356,176.452055 L151.438356,180.458904 L147.431507,180.458904 L147.431507,176.452055 Z M163.058219,176.541096 C167.256796,176.541096 170.671233,179.9755 170.671233,184.19863 C170.671233,187.755555 168.236972,190.728592 164.961473,191.584322 L164.961473,195.684932 L161.154966,195.684932 L161.154966,191.584322 C157.879467,190.728592 155.445205,187.755555 155.445205,184.19863 L159.251712,184.19863 C159.251712,186.310195 160.958931,188.027397 163.058219,188.027397 C165.157508,188.027397 166.864726,186.310195 166.864726,184.19863 C166.864726,182.087065 165.157508,180.369863 163.058219,180.369863 C158.859642,180.369863 155.445205,176.935459 155.445205,172.712329 C155.445205,169.155404 157.879467,166.182366 161.154966,165.326637 L161.154966,161.226027 L164.961473,161.226027 L164.961473,165.326637 C168.236972,166.182366 170.671233,169.155404 170.671233,172.712329 L166.864726,172.712329 C166.864726,170.600764 165.157508,168.883562 163.058219,168.883562 C160.958931,168.883562 159.251712,170.600764 159.251712,172.712329 C159.251712,174.823894 160.958931,176.541096 163.058219,176.541096 Z" id="Shape"></path>
        </g>
    </g>
</svg>