<svg width="316" height="168" viewBox="0 0 316 168" fill="none" xmlns="http://www.w3.org/2000/svg">
<g clip-path="url(#clip0)">
<path d="M1.07236 142.153C-2.81352 132.744 3.80636 122.017 21.8317 119.807C33.7126 118.359 46.3872 116.364 57.594 113.862C67.4697 111.655 83.4023 99.3506 107.332 95.4206C157.42 87.1948 181.955 115.248 193.436 113.862C204.918 112.476 218.388 112.929 226.541 117.353C232.424 120.546 234.987 125.488 242.57 127.488C249.144 129.22 257.066 128.075 264.391 128.512C281.24 129.521 291.914 138.433 307.295 142.153" fill="#E9EDF1"/>
<path fill-rule="evenodd" clip-rule="evenodd" d="M261.003 89.6382C261.682 89.5602 262.406 89.5877 263.038 89.8398C264.38 90.3758 264.761 91.8676 264.743 93.0801C264.723 94.3852 264.429 95.8106 265.483 96.8621C265.968 97.3456 266.571 97.7155 267.047 98.2078C267.556 98.7339 267.955 99.3359 268.251 99.9823C268.793 101.17 269.06 102.566 268.563 103.811C268.126 104.908 267.027 105.898 267.265 107.145C267.513 108.446 268.907 109.44 269.778 110.409C270.765 111.505 271.673 112.907 271.822 114.345C271.965 115.723 271.327 117.116 270.349 118.158C268.394 120.24 265.455 121.26 262.492 121.254C261.233 121.251 259.809 121.197 258.723 120.561C258.388 120.365 258.211 120.144 258.011 119.838C257.832 119.563 257.596 119.384 257.322 119.189C256.722 118.762 256.288 118.186 256.011 117.541C254.936 115.037 255.795 111.94 257.3 109.716C257.657 109.189 257.949 108.682 257.776 108.054C257.595 107.399 257.15 106.808 256.757 106.244C256.369 105.688 255.925 105.156 255.622 104.554C255.304 103.924 255.214 103.263 255.271 102.573C255.376 101.276 255.971 100.08 256.814 99.0369C257.625 98.0325 258.578 97.0714 258.58 95.7553C258.582 94.3604 257.591 93.1196 258.013 91.7015C258.188 91.1142 258.539 90.5117 259.105 90.1597C259.648 89.822 260.365 89.7116 261.003 89.6382Z" fill="#DDE3E9"/>
<path fill-rule="evenodd" clip-rule="evenodd" d="M260.56 91.8677C260.573 91.6804 260.809 91.568 260.995 91.6169C261.24 91.6813 261.235 91.8964 261.228 92.0881C261.209 92.6773 261.299 93.2499 261.45 93.8216C261.763 95.0102 262.341 96.1053 262.799 97.247C263.257 98.3878 263.472 99.5656 263.203 100.773C262.95 101.911 262.552 103.019 262.293 104.159C262.065 105.163 261.822 106.223 262.17 107.224C262.504 108.189 263.244 108.974 263.777 109.846C264.88 111.65 265.369 113.651 265.434 115.71C265.465 116.667 265.437 117.632 265.202 118.57C265.066 119.11 264.883 119.84 264.391 120.213C264.165 120.385 263.777 120.444 263.586 120.19C263.406 119.951 263.564 119.581 263.621 119.327C263.867 118.225 263.917 117.098 263.858 115.979C263.8 114.896 263.664 113.814 263.302 112.778C262.965 111.818 262.454 110.955 261.852 110.115C261.239 109.258 260.602 108.4 260.348 107.385C260.091 106.355 260.3 105.306 260.58 104.295C260.875 103.226 261.263 102.188 261.663 101.147C262.053 100.134 262.192 99.1746 261.976 98.1137C261.551 96.0178 260.411 94.0504 260.56 91.8677Z" fill="white"/>
<path fill-rule="evenodd" clip-rule="evenodd" d="M278.552 93.1659C279.434 93.3991 280.31 93.7752 280.938 94.365C282.275 95.6192 281.865 97.5147 281.127 98.8992C280.333 100.389 279.129 101.887 279.808 103.597C280.119 104.383 280.644 105.095 280.94 105.887C281.256 106.733 281.392 107.615 281.375 108.498C281.343 110.12 280.847 111.852 279.501 113.047C278.316 114.099 276.379 114.714 275.936 116.259C275.474 117.872 276.604 119.677 277.106 121.205C277.673 122.934 277.965 124.976 277.301 126.7C276.664 128.351 275.057 129.649 273.237 130.381C269.602 131.843 265.382 131.618 261.737 130.202C260.189 129.6 258.467 128.861 257.505 127.614C257.208 127.229 257.12 126.891 257.055 126.444C256.997 126.043 256.811 125.725 256.589 125.372C256.102 124.595 255.907 123.727 255.946 122.854C256.099 119.466 258.985 116.315 262.15 114.476C262.899 114.04 263.558 113.597 263.715 112.793C263.879 111.953 263.681 111.063 263.529 110.229C263.379 109.404 263.147 108.583 263.128 107.747C263.108 106.871 263.388 106.069 263.864 105.303C264.759 103.863 266.197 102.771 267.85 101.973C269.441 101.205 271.181 100.554 271.96 99.0426C272.786 97.4409 272.297 95.5438 273.653 94.115C274.215 93.5234 275.003 92.9981 275.907 92.8627C276.775 92.7329 277.723 92.9467 278.552 93.1659Z" fill="#DDE3E9"/>
<path fill-rule="evenodd" clip-rule="evenodd" d="M276.75 95.8143C276.875 95.6048 277.231 95.5887 277.431 95.7341C277.694 95.9254 277.562 96.1707 277.442 96.3882C277.073 97.0566 276.85 97.7589 276.701 98.4888C276.39 100.006 276.46 101.543 276.355 103.077C276.25 104.608 275.826 106.067 274.791 107.327C273.815 108.515 272.678 109.6 271.694 110.787C270.827 111.834 269.91 112.936 269.751 114.255C269.598 115.525 270.047 116.783 270.192 118.041C270.492 120.645 269.922 123.182 268.799 125.584C268.277 126.698 267.68 127.796 266.842 128.762C266.36 129.319 265.709 130.071 264.887 130.264C264.508 130.354 263.997 130.236 263.912 129.852C263.831 129.491 264.24 129.141 264.459 128.875C265.406 127.725 266.125 126.453 266.706 125.138C267.27 123.863 267.735 122.553 267.895 121.188C268.043 119.922 267.92 118.684 267.672 117.429C267.42 116.15 267.139 114.857 267.421 113.568C267.707 112.259 268.577 111.152 269.511 110.123C270.499 109.035 271.581 108.025 272.681 107.02C273.752 106.041 274.483 105.004 274.838 103.68C275.541 101.064 275.292 98.2547 276.75 95.8143Z" fill="white"/>
<path fill-rule="evenodd" clip-rule="evenodd" d="M252.547 102.3C253.909 102.3 255.106 102.978 255.931 103.94C256.896 105.067 257.091 106.443 257.483 107.786C257.678 108.454 258.014 109.117 258.602 109.572C259.137 109.984 259.816 110.067 260.456 110.269C261.735 110.672 262.768 111.643 263.176 112.828C263.674 114.274 263.147 115.731 263.238 117.196C263.321 118.542 264.733 119.381 265.868 120.026C266.988 120.662 267.997 121.257 268.334 122.496C268.692 123.81 268.812 125.276 268.316 126.574C267.492 128.736 265.078 129.687 262.746 129.835C260.629 129.969 257.968 129.759 256.378 128.315C255.427 127.451 255.083 126.242 255.125 125.04C255.152 124.293 255.309 123.552 255.513 122.829C255.658 122.317 255.853 121.808 255.908 121.278C256.056 119.871 254.672 119.6 253.493 119.214C251.996 118.723 250.947 117.795 250.218 116.502C249.539 115.299 249.255 113.948 249.662 112.623C249.869 111.946 250.246 111.332 250.758 110.81C250.983 110.581 251.3 110.389 251.503 110.147C251.693 109.922 251.651 109.63 251.586 109.366C251.284 108.146 250.343 107.136 250.006 105.918C249.702 104.819 249.882 103.451 250.951 102.742C251.413 102.436 251.983 102.303 252.547 102.3Z" fill="#C5CFD6"/>
<path fill-rule="evenodd" clip-rule="evenodd" d="M254.403 105.478C255.846 106.923 256.238 108.883 256.353 110.782C256.418 111.848 256.351 112.971 256.684 114.005C256.969 114.889 257.637 115.565 258.325 116.204C259.711 117.49 261.257 118.798 261.663 120.659C261.9 121.751 261.74 122.88 262.069 123.96C262.367 124.942 262.894 125.907 263.534 126.736C264.049 127.404 264.721 127.915 265.284 128.538C265.456 128.728 265.702 129.007 265.631 129.276C265.548 129.59 265.122 129.689 264.82 129.64C264.116 129.525 263.523 128.893 263.062 128.433C262.389 127.761 261.817 127.039 261.351 126.228C260.835 125.328 260.419 124.372 260.242 123.362C260.057 122.314 260.149 121.222 259.728 120.217C259.02 118.524 257.301 117.526 256.059 116.207C254.511 114.563 254.742 112.518 254.901 110.496C254.988 109.386 255.074 108.131 254.477 107.117C254.249 106.729 253.741 106.368 253.643 105.928C253.553 105.525 254.043 105.118 254.403 105.478Z" fill="white"/>
<ellipse cx="266.105" cy="135.469" rx="9.23976" ry="6.46154" fill="#8A92A2"/>
<path d="M31.9627 117.937C31.9627 128.871 25.8993 132.688 18.4198 132.688C10.9403 132.688 4.87695 128.871 4.87695 117.937C4.87695 107.004 18.4198 93.0957 18.4198 93.0957C18.4198 93.0957 31.9627 107.004 31.9627 117.937Z" fill="#DFE4EA"/>
<path d="M17.6705 129.936L17.8175 121.047L23.9375 110.049L17.8406 119.652L17.9066 115.655L22.1246 107.698L17.9242 114.597L18.043 107.408L22.5597 101.074L18.0618 106.278L18.136 93.0957L17.6692 110.546L17.7075 109.826L13.1154 102.922L17.6339 111.208L17.206 119.237L17.1933 119.024L11.8994 111.758L17.1772 119.777L17.1237 120.781L17.1142 120.796L17.1185 120.879L16.033 141.249H17.4834L17.6574 130.727L22.9223 122.728L17.6705 129.936Z" fill="#3F3D56"/>
<path d="M178.323 29.6065L180.551 31.9582L180.188 32.3021L182.416 34.6538L182.779 34.3099L185.006 36.6617L184.643 37.0055L185.757 38.1814L185.764 38.1883L185.771 38.195L186.876 39.2752L187.225 38.9177L189.435 41.078L189.085 41.4356L191.295 43.5959L191.644 43.2384L193.854 45.3988L193.504 45.7563L194.459 46.6894V48.4975H194.959V52.5344H194.459V56.5714H194.959V60.6083H194.459V64.6453H194.959V68.6823H194.459V72.7192H194.959V76.7562H194.459V80.7932H194.959V84.8301H194.459V88.8671H194.959V92.9041H194.459V96.941H194.959V100.978H194.459V105.015H194.959V109.052H194.459V113.089H194.959V117.126H194.459V121.163H194.959V125.2H194.459V129.237H194.959V133.274H194.459V135.292C194.459 136.039 194.31 136.75 194.042 137.397L194.503 137.589C193.895 139.056 192.722 140.229 191.255 140.837L191.064 140.375C190.416 140.644 189.705 140.792 188.959 140.792H186.982V141.292H183.029V140.792H179.076V141.292H175.122V140.792H171.169V141.292H167.216V140.792H163.263V141.292H159.31V140.792H155.356V141.292H151.403V140.792H147.45V141.292H143.497V140.792H139.543V141.292H135.59V140.792H131.637V141.292H127.684V140.792H123.731V141.292H119.777V140.792H117.801C117.054 140.792 116.343 140.644 115.696 140.375L115.504 140.837C114.037 140.229 112.864 139.056 112.256 137.589L112.718 137.397C112.449 136.75 112.301 136.039 112.301 135.292V133.353H111.801V129.473H112.301V125.594H111.801V121.715H112.301V117.835H111.801V113.956H112.301V110.077H111.801V106.198H112.301V102.318H111.801V98.439H112.301V94.5597H111.801V90.6804H112.301V86.8011H111.801V82.9218H112.301V79.0425H111.801V75.1632H112.301V71.2839H111.801V67.4046H112.301V63.5253H111.801V59.646H112.301V55.7668H111.801V51.8875H112.301V48.0082H111.801V44.1289H112.301V40.2496H111.801V36.3703H112.301V34.4307C112.301 33.684 112.449 32.9733 112.718 32.3255L112.256 32.1339C112.864 30.6673 114.037 29.4941 115.504 28.8859L115.696 29.3478C116.343 29.0792 117.054 28.9307 117.801 28.9307H119.922V28.4307H124.166V28.9307H128.409V28.4307H132.653V28.9307H136.896V28.4307H141.14V28.9307H145.383V28.4307H149.627V28.9307H153.87V28.4307H158.113V28.9307H162.357V28.4307H166.6V28.9307H170.844V28.4307H175.087V28.9307H176.994L177.96 29.9504L178.323 29.6065Z" fill="white" fill-opacity="0.511473" stroke="#5A5D72" stroke-dasharray="4 4"/>
<path d="M246.523 141.822H253.798" stroke="#E4E8F1"/>
<path fill-rule="evenodd" clip-rule="evenodd" d="M213.397 54.9986C211.897 56.2725 210.357 57.0177 209.58 56.9368C207.639 56.7345 206.568 49.6728 207.667 46.6482C208.766 43.6235 216.081 41.2231 217.159 46.7007C217.533 48.6011 216.969 50.4393 215.992 52.0212L219.36 61.7462L213.32 62.7011L213.397 54.9986Z" fill="#CDD2DD"/>
<path fill-rule="evenodd" clip-rule="evenodd" d="M210.018 43.1126C210.8 42.7295 211.584 42.5086 212.09 42.4937C211.713 41.8246 211.496 41.0486 211.486 40.2629C211.476 39.4995 213.802 37.9783 216.356 38.7976C218.911 39.6168 219.926 41.89 219.467 42.6137C219.057 43.2596 218.393 43.7448 217.726 44.0136C218.256 44.4925 219.467 44.8086 219.727 48.0659C219.986 51.3233 217.771 53.011 217.488 53.1175C216.954 53.3191 216.317 53.3937 215.833 52.9984C215.659 52.856 215.463 52.6733 215.325 52.488C215.276 52.4213 215.245 52.3774 215.284 52.2991C215.332 52.2053 215.417 52.126 215.483 52.0483C215.861 51.6048 216.058 51.0587 216.046 50.4469C216.033 49.8261 215.772 49.0613 215.171 48.8797C214.428 48.6556 213.707 49.1487 213.132 49.5939C212.739 48.6564 212.08 47.858 211.17 47.5373C210.164 47.1826 209.077 47.2864 208.053 47.006C207.787 46.9329 207.774 47.0371 207.559 46.839C207.469 46.7562 209.237 43.4957 210.018 43.1126Z" fill="#3B4151"/>
<path fill-rule="evenodd" clip-rule="evenodd" d="M223.471 84.1113L217.418 118.578L217.418 146.329L212.931 147.002L214.167 86.9273L223.471 84.1113Z" fill="#CDD3DE"/>
<path fill-rule="evenodd" clip-rule="evenodd" d="M223.657 82.8611C225.345 100.8 230.973 111.101 231.335 112.699C231.697 114.298 234.487 127.426 242.732 145.566L237.954 145.566C227.948 128.478 223.458 116.321 222.27 114.058C221.083 111.795 217.225 102.451 211.216 85.9483L223.657 82.8611Z" fill="#CDD3DE"/>
<path fill-rule="evenodd" clip-rule="evenodd" d="M223.675 84.0801C222.76 96.2672 215.844 111.642 218.201 142.383L212.376 142.59C208.388 116.07 209.847 99.9546 211.772 86.9266L223.675 84.0801Z" fill="#3B4151"/>
<path fill-rule="evenodd" clip-rule="evenodd" d="M224.188 83.7172C225.383 85.8996 230.389 91.8747 231.392 97.2818C234.9 116.188 233.032 120.405 242.047 141.964L235.627 141.964C225.644 125.15 220.447 104.971 213.893 84.1109L224.188 83.7172Z" fill="#464D5F"/>
<path fill-rule="evenodd" clip-rule="evenodd" d="M243.716 147.428L242.734 144.483C242.53 143.87 241.799 143.622 241.188 143.842C239.208 144.555 236.741 144.418 236.741 144.418C234.847 146.92 231.921 148.917 230.065 150.027C229.148 150.576 228.783 151.784 229.313 152.691L238.232 149.963L243.434 148.372L243.716 147.428Z" fill="#8A92A2"/>
<path fill-rule="evenodd" clip-rule="evenodd" d="M218.695 150.508L218.41 147.396C218.351 146.749 217.692 146.322 217.045 146.377C214.964 146.554 212.609 145.787 212.609 145.787C210.211 147.722 206.93 148.903 204.876 149.503C203.853 149.802 203.217 150.88 203.526 151.898L212.798 151.553L218.207 151.351L218.695 150.508Z" fill="#8A92A2"/>
<path fill-rule="evenodd" clip-rule="evenodd" d="M171.464 56.3283C174.957 53.2078 180.173 53.4749 183.357 56.9373C186.273 60.1081 186.591 65.0087 184.11 68.5612L190.378 75.3809C190.456 75.4651 190.499 75.5783 190.496 75.6955C190.494 75.8126 190.448 75.9241 190.367 76.0052L188.805 77.5707C188.724 77.6522 188.616 77.6968 188.504 77.6946C188.392 77.6924 188.285 77.6436 188.207 77.5589L181.937 70.7431C178.122 73.4197 172.971 72.523 170.192 68.6984C167.414 64.8739 167.972 59.4488 171.464 56.3283ZM172.631 67.715C175.006 70.296 178.933 70.377 181.403 67.8958V67.8919C183.872 65.4106 183.949 61.3086 181.576 58.7278C179.201 56.1473 175.273 56.067 172.803 58.5486C170.333 61.0302 170.256 65.134 172.631 67.715Z" fill="#C4CBD1"/>
<path fill-rule="evenodd" clip-rule="evenodd" d="M195.823 69.6018L204.606 73.0603L204.94 69.861L197.005 67.09C195.493 66.2024 194.651 65.5489 194.173 65.1779C193.677 64.7928 193.573 64.712 193.519 64.9894C193.426 65.4562 193.809 66.0785 194.15 66.6321C194.405 67.0475 194.637 67.4242 194.627 67.6677C194.603 68.2357 194.49 68.7859 193.866 69.6541C193.467 70.2093 193.272 70.3703 193.299 70.4628C193.314 70.515 193.4 70.5454 193.559 70.6124C194.072 70.3893 194.323 70.1426 194.525 69.9432C194.827 69.6459 195.022 69.4537 195.823 69.6018ZM191.052 76.1919L195.236 77.8336L195.537 81.994C195.537 81.994 192.769 80.4717 190.516 80.1766C187.644 79.8003 186.444 79.3556 184.86 77.7512C184.013 76.8928 183.15 75.0341 183.759 74.2881C183.992 74.0019 185.05 74.4234 186.13 74.8534C186.953 75.1811 187.789 75.5139 188.281 75.5421C188.944 75.5801 188.756 74.7105 188.607 74.0155C188.499 73.5169 188.411 73.1082 188.67 73.1893C189.814 73.0295 191.052 76.1919 191.052 76.1919Z" fill="#CED4DE"/>
<path fill-rule="evenodd" clip-rule="evenodd" d="M212.607 69.3233C209.513 69.6607 205.299 69.5797 200.5 67.6677L199.33 71.2284C202.797 73.4926 207.418 75.1431 211.131 74.6104C214.056 74.1906 215.044 70.9149 212.607 69.3233Z" fill="#757B87"/>
<path fill-rule="evenodd" clip-rule="evenodd" d="M211.835 59.2361C211.829 59.2004 211.826 59.182 211.826 59.182L217.987 58.208C217.998 58.2249 218.009 58.2417 218.019 58.2586L218.237 58.2243C218.453 58.1901 222.738 59.771 223.911 61.8015C225.175 63.9885 225.384 66.5672 225.681 70.2269C226.106 75.4665 226.711 82.9219 230.849 94.6157C230.685 94.6078 230.286 94.4314 229.716 94.1793C227.278 93.1004 221.707 90.6348 217.987 94.0569C216.542 95.3872 213.622 100.301 211.639 103.639C210.429 105.677 209.567 107.127 209.602 106.817C209.65 106.392 209.645 105.336 209.638 103.887C209.616 99.3204 209.576 90.8564 211.118 86.0033C211.359 85.2419 211.562 84.5638 211.728 83.9579C206.893 84.553 200.437 83.6288 192.278 80.6355C191.72 77.9878 192.308 76.3816 192.308 76.3816C192.308 76.3816 205.246 79.0616 209.841 76.5567C209.951 76.497 210.056 76.4302 210.158 76.3568C209.093 74.381 208.079 71.2315 208.762 69.1679C208.897 68.7616 209.345 67.9251 209.828 67.0246C210.455 65.8531 211.141 64.5733 211.27 63.9909C211.532 62.8097 211.439 62.1794 211.306 61.2818C211.231 60.7737 211.143 60.18 211.1 59.3523L211.835 59.2361Z" fill="#9BA4B4"/>
<ellipse rx="2.43904" ry="1.06252" transform="matrix(-0.0975019 -0.995235 -0.993845 0.110782 119.125 121.888)" fill="#6C63FF"/>
<path d="M118.749 119.235L150.818 109.279L150.012 130.974L119.228 124.299L118.749 119.235Z" fill="url(#paint0_linear)"/>
<path d="M120.253 117.353C118.509 117.528 116.898 118.374 115.735 119.726L115.133 120.424L115.104 120.453L106.188 121.586C105.848 121.63 105.607 121.948 105.646 122.303L105.939 124.938C105.958 125.111 106.043 125.27 106.174 125.38C106.306 125.489 106.474 125.54 106.64 125.521L115.542 124.503L115.542 124.504L116.35 124.987C117.838 125.876 119.561 126.233 121.251 126.002L120.253 117.353Z" fill="#A8B0B6"/>
<ellipse rx="0.535038" ry="0.887007" transform="matrix(-0.00507119 -0.999987 -0.999983 0.00577012 111.351 121.795)" fill="#FF3366" stroke="white" stroke-width="0.5"/>
<path fill-rule="evenodd" clip-rule="evenodd" d="M97.2839 91.9211C98.5148 93.5731 99.899 94.7025 100.697 94.8131C102.696 95.0906 105.314 88.2244 104.866 84.897C104.419 81.5695 97.5737 77.33 95.2937 82.5945C94.4988 84.4301 94.672 86.4374 95.3195 88.2852L89.7884 97.2986L95.6725 99.7634L97.2839 91.9211Z" fill="#CDD2DD"/>
<path fill-rule="evenodd" clip-rule="evenodd" d="M94.4396 89.3951C94.9514 85.6631 93.7303 82.4762 94.5981 81.0698C95.4659 79.6633 96.9655 79.848 96.9655 79.848C96.9655 79.848 98.767 77.0929 102.451 79.1229C106.135 81.153 107.871 83.8178 105.508 87.1505C104.576 86.7688 103.579 85.9486 101.802 85.9271C100.955 85.9169 100.088 87.3108 100.088 87.3108L99.3848 87.0229C99.3848 87.0229 99.012 84.7945 97.8443 84.8665C96.6765 84.9386 96.5535 87.0109 96.5535 87.0109L95.1877 89.7015L94.4396 89.3951Z" fill="#191847"/>
<path fill-rule="evenodd" clip-rule="evenodd" d="M43.9452 142.489C51.8872 141.43 57.6019 140.942 61.0893 141.025C67.0607 141.166 72.2587 141.49 74.1564 141.764C78.6816 142.418 77.0443 149.164 74.6537 149.338C71.0354 149.603 60.7892 148.481 43.9149 145.974L43.9452 142.489Z" fill="#CDD3DE"/>
<path fill-rule="evenodd" clip-rule="evenodd" d="M51.9983 135.317L77.184 140.312C81.9324 140.953 79.2133 151.385 76.7166 151.579C71.0482 152.018 51.4724 148.978 49.7837 149.109L51.9983 135.317Z" fill="#3B4151"/>
<path fill-rule="evenodd" clip-rule="evenodd" d="M45.6856 144.043C46.3768 143.129 46.7856 141.81 45.9254 141.026C45.8506 140.958 45.7789 140.9 45.7121 140.856C45.1216 140.462 43.8657 139.917 43.8657 139.917C43.4373 140.648 36.1661 153.06 36.1661 153.06C36.1661 153.06 37.4527 154.63 38.2259 153.611C38.999 152.591 39.5287 151.929 39.5287 151.929L45.078 147.938C45.5191 147.621 45.6213 146.98 45.3057 146.509L45.062 146.146C45.062 146.146 45.2139 144.826 45.5882 144.187C45.6158 144.14 45.6486 144.092 45.6856 144.043Z" fill="#6D737F"/>
<path fill-rule="evenodd" clip-rule="evenodd" d="M46.2634 137.518C49.5139 137.84 60.6934 139.391 65.7441 140.848C67.1955 141.266 68.5966 141.683 69.9092 142.085C73.8107 143.28 72.3723 151.079 68.6969 149.758C59.5439 146.467 46.8094 141.3 45.7024 140.894C44.1508 140.324 44.2206 137.316 46.2634 137.518Z" fill="#CDD2DD"/>
<path fill-rule="evenodd" clip-rule="evenodd" d="M47.3305 139.43C47.5191 138.314 47.2047 137.011 46.0919 136.802C45.9853 136.782 45.887 136.77 45.8016 136.768C45.1053 136.755 43.7656 136.978 43.7656 136.978C43.7515 137.84 43.512 152.474 43.512 152.474C43.512 152.474 45.3729 153.113 45.5434 151.814C45.7138 150.516 45.8481 149.657 45.8481 149.657L48.6931 143.153C48.9113 142.654 48.6896 142.071 48.1945 141.843L47.7985 141.66C47.7985 141.66 47.2916 140.445 47.3039 139.692C47.3052 139.612 47.3147 139.523 47.3305 139.43Z" fill="#8A92A2"/>
<path fill-rule="evenodd" clip-rule="evenodd" d="M67.8924 139.746C67.8924 139.746 63.8645 127.808 62.5437 123.726C60.0338 115.969 62.5514 111.794 71.0262 108.397L77.8198 121.413C78.4632 124.412 80.3667 148.138 80.3667 148.138C80.4871 151.047 77.1116 152.479 75.855 152.674C75.7781 152.686 51.1634 152.137 51.1634 152.137L52.0167 137.716L67.1474 140.211C67.1474 140.211 67.9855 140.169 67.8924 139.746Z" fill="#464D5F"/>
<path fill-rule="evenodd" clip-rule="evenodd" d="M102.648 109.927L93.1425 105.788L92.5022 110.822L101.263 112.264C104.179 114.458 105.713 115.292 105.865 114.766C105.994 114.323 105.73 114.004 105.487 113.711C105.298 113.483 105.122 113.27 105.153 113.025C105.224 112.465 106.741 112.138 108.194 111.892C109.647 111.646 109.068 111.085 108.644 110.844C106.965 110.298 104.966 109.992 102.648 109.927ZM107.313 121.293L102.884 120.491L100.659 123.925C100.659 123.925 103.795 124.078 105.902 125.018C108.588 126.217 109.845 126.469 111.985 125.924C113.13 125.632 114.76 124.484 114.581 123.517C114.512 123.146 113.389 122.949 112.243 122.747C111.369 122.594 110.483 122.438 110.04 122.201C109.443 121.883 110.016 121.231 110.475 120.71C110.804 120.336 111.073 120.03 110.809 119.962C109.885 119.218 107.313 121.293 107.313 121.293Z" fill="#CDD2DD"/>
<path fill-rule="evenodd" clip-rule="evenodd" d="M91.6524 104.082C94.1408 106.111 97.8388 108.298 103.091 108.848L102.069 113.276C97.7697 113.819 92.8218 113.086 89.9091 110.515C87.6137 108.489 88.6306 104.464 91.6524 104.082Z" fill="#8A92A2"/>
<path fill-rule="evenodd" clip-rule="evenodd" d="M97.238 95.4766C97.2385 95.4761 97.2387 95.4758 97.2387 95.4758L92.3144 91.3639C92.3139 91.3642 92.3135 91.3644 92.313 91.3646L92.2092 91.2779C91.586 90.7576 81.1089 95.7573 77.05 101.3C75.6238 103.247 73.5431 104.317 71.3251 105.458C67.7786 107.281 63.8811 109.286 61.747 115.345C62.9748 116.015 64.5089 117.24 66.1893 118.582C70.3418 121.898 75.3877 125.928 78.9139 124.054C80.7822 123.061 82.4038 121.789 83.8477 120.313C87.5995 124.377 93.8501 127.764 103.075 129.645C104.813 127.652 106.176 120.704 106.176 120.704C106.176 120.704 93.6052 116.154 90.7721 111.55C90.6006 111.271 90.4735 110.968 90.3862 110.643C91.2411 108.99 92.0597 107.287 92.8819 105.577C94.447 102.322 96.0252 99.0397 97.8923 96.0229L97.238 95.4766Z" fill="#BAC1CF"/>
<path fill-rule="evenodd" clip-rule="evenodd" d="M82.808 114.421C82.8735 112.49 82.4442 108.11 81.8049 110.14C81.0435 112.559 84.2784 121.178 84.8144 121.911C85.1299 122.343 82.7306 116.703 82.808 114.421Z" fill="#8A92A2"/>
</g>
<defs>
<linearGradient id="paint0_linear" x1="157.903" y1="130.778" x2="130.834" y2="143.788" gradientUnits="userSpaceOnUse">
<stop stop-color="white" stop-opacity="0.01"/>
<stop offset="1" stop-color="#CDD3DE"/>
<stop offset="1" stop-color="#CDD3DE"/>
</linearGradient>
<clipPath id="clip0">
<rect width="316" height="168" fill="white"/>
</clipPath>
</defs>
</svg>
