<svg width="16" height="16" viewBox="0 0 16 16" fill="none" xmlns="http://www.w3.org/2000/svg">
<path fill-rule="evenodd" clip-rule="evenodd" d="M2.55953 11.4375C2.41229 11.5918 2.33301 11.7721 2.33301 12.0135C2.33301 12.2538 2.41229 12.4324 2.55963 12.5851C2.7189 12.7502 2.97608 12.9022 3.34974 13.0272C4.10214 13.2788 5.17473 13.3722 6.39434 13.3722C7.61974 13.3722 8.69178 13.2754 9.4419 13.021C9.81435 12.8946 10.0706 12.7414 10.2293 12.5753C10.3764 12.4213 10.4557 12.2413 10.4557 12.0002C10.4557 11.7602 10.3764 11.5814 10.2288 11.4284C10.0694 11.263 9.81203 11.1106 9.43832 10.9854C8.68589 10.7331 7.61333 10.6389 6.39434 10.6389C5.16875 10.6389 4.09679 10.7362 3.34684 10.9911C2.97449 11.1177 2.7183 11.2711 2.55953 11.4375ZM3.02501 10.0443C3.93723 9.73423 5.14593 9.63888 6.39434 9.63888C7.63469 9.63888 8.8428 9.73099 9.7562 10.0372C10.2154 10.1912 10.6372 10.4112 10.9488 10.7343C11.2722 11.0698 11.4557 11.4959 11.4557 12.0002C11.4557 12.5034 11.2739 12.9296 10.9523 13.2662C10.6422 13.5906 10.2218 13.8124 9.76311 13.968C8.8509 14.2774 7.64227 14.3722 6.39434 14.3722C5.15395 14.3722 3.94587 14.281 3.03261 13.9756C2.57344 13.822 2.15153 13.6024 1.83992 13.2794C1.51639 12.944 1.33301 12.518 1.33301 12.0135C1.33301 11.5103 1.51464 11.084 1.83609 10.7471C2.14601 10.4224 2.56627 10.2002 3.02501 10.0443Z" fill="black"/>
<path fill-rule="evenodd" clip-rule="evenodd" d="M6.39434 2.66754C5.05567 2.66754 3.97034 3.7525 3.97034 5.09087C3.97034 6.42925 5.05567 7.51421 6.39434 7.51421H6.41396C7.74635 7.5088 8.82264 6.42476 8.81768 5.09274L8.81767 5.09087C8.81767 3.75242 7.73227 2.66754 6.39434 2.66754ZM2.97034 5.09087C2.97034 3.19992 4.50368 1.66754 6.39434 1.66754C8.28407 1.66754 9.81712 3.19944 9.81767 5.08985C9.82425 6.97451 8.30116 8.50718 6.41687 8.5142L6.41501 8.51421H6.39434C4.50368 8.51421 2.97034 6.98183 2.97034 5.09087Z" fill="black"/>
<path fill-rule="evenodd" clip-rule="evenodd" d="M10.5453 2.82915C10.59 2.55665 10.8472 2.37197 11.1197 2.41667C12.4021 2.62699 13.3801 3.73919 13.3801 5.08074L13.3801 5.08164C13.3776 6.44274 12.3687 7.56639 11.0583 7.75054C10.7849 7.78897 10.532 7.59845 10.4936 7.32499C10.4552 7.05154 10.6457 6.7987 10.9192 6.76027C11.7433 6.64444 12.3783 5.93632 12.3801 5.08028C12.3798 4.23671 11.7646 3.5358 10.9578 3.40348C10.6853 3.35879 10.5006 3.10165 10.5453 2.82915Z" fill="black"/>
<path fill-rule="evenodd" clip-rule="evenodd" d="M11.9024 9.74882C11.9431 9.47569 12.1975 9.28725 12.4706 9.32793C13.0147 9.40897 13.5379 9.55195 13.937 9.81385C14.3612 10.0922 14.6529 10.5147 14.6529 11.0858C14.6529 11.4648 14.5233 11.7945 14.2887 12.0596C14.0634 12.3143 13.7612 12.4876 13.4412 12.6092C13.183 12.7073 12.8943 12.5775 12.7962 12.3194C12.6981 12.0612 12.8279 11.7725 13.0861 11.6744C13.3153 11.5873 13.4578 11.4897 13.5398 11.397C13.6126 11.3147 13.6529 11.2208 13.6529 11.0858C13.6529 10.9102 13.5837 10.7781 13.3884 10.6499C13.168 10.5053 12.8132 10.39 12.3233 10.317C12.0502 10.2763 11.8617 10.0219 11.9024 9.74882Z" fill="black"/>
</svg>
