<svg xmlns="http://www.w3.org/2000/svg" viewBox="0 0 23 21">
  <path d="M2.2935238,13.8135238 C4.35218883,11.7548588 7.70190639,11.7548588 9.76057141,13.8135238 C11.8192364,15.8721888 11.8192364,19.2219064 9.76057141,21.2805714 C7.70190639,23.3392364 4.35218883,23.3392364 2.2935238,21.2805714 C0.234858779,19.2219064 0.234858779,15.8721888 2.2935238,13.8135238 Z M8.74233765,14.8317576 C7.2451946,13.3346145 4.80890062,13.3346145 3.31175757,14.8317576 C1.81461452,16.3289006 1.81461452,18.7651946 3.31175757,20.2623376 C4.80890062,21.7594807 7.2451946,21.7594807 8.74233765,20.2623376 C10.2394807,18.7651946 10.2394807,16.3289006 8.74233765,14.8317576 Z M6.02704372,14.4017543 C6.35880267,14.4017491 6.62692081,14.6698672 6.62691562,15.0016262 L6.62691562,15.0016262 L6.62688522,16.94721 L8.57246904,16.9471796 C8.904228,16.9471744 9.17234613,17.2152925 9.17234095,17.5470515 C9.17233576,17.8788104 8.90420925,18.146937 8.5724503,18.1469421 L8.5724503,18.1469421 L6.62686648,18.1469725 L6.62683608,20.0925564 C6.6268309,20.4243153 6.35870438,20.6924418 6.02694543,20.692447 C5.8614902,20.6924496 5.71130881,20.6254214 5.602704,20.5168165 C5.49409918,20.4082117 5.42707095,20.2580303 5.42707353,20.0925751 L5.42707353,20.0925751 L5.42710393,18.1469913 L3.48152011,18.1470217 C3.31606488,18.1470243 3.16588349,18.079996 3.05727867,17.9713912 C2.94867386,17.8627864 2.88164562,17.712605 2.88164821,17.5471498 C2.88165339,17.2153908 3.14977991,16.9472643 3.48153886,16.9472591 L3.48153886,16.9472591 L5.42712268,16.9472287 L5.42715308,15.0016449 C5.42715826,14.669886 5.69528477,14.4017595 6.02704372,14.4017543 Z M21.533525,2.4 L21.6358367,2.406535 C22.0045186,2.45398173 22.2969801,2.75452115 22.3431634,3.13513797 L22.349525,3.24079796 L22.349525,18.360042 L22.3418894,18.4748324 C22.3116049,18.7010994 22.1927909,18.9048647 22.0133314,19.0389988 L21.918677,19.100045 L21.8261375,19.1436572 C21.7632545,19.1686197 21.6982295,19.1853401 21.6324905,19.1937134 L21.533525,19.2 L21.4151413,19.1909311 C21.3366778,19.1788829 21.2595913,19.1549179 21.1866358,19.1195609 L21.080645,19.0580471 L19.085525,17.6889156 L17.090405,19.0580471 L16.9897183,19.1174348 C16.9205368,19.1516893 16.8476323,19.1752869 16.7733508,19.1883325 L16.661189,19.2 L16.613861,19.2 L16.5016993,19.1883325 C16.4274178,19.1752869 16.3545133,19.1516893 16.2853318,19.1174348 L16.184645,19.0580471 L14.189525,17.6889156 L12.3157228,18.9762324 C12.4232111,18.508145 12.48,18.0207044 12.48,17.52 C12.48,17.2988839 12.4689251,17.0803545 12.4472996,16.8649362 L13.736645,15.980441 L13.843039,15.9184285 C14.0623358,15.8121213 14.3168035,15.8121213 14.5365593,15.9184285 L14.643221,15.980441 L16.637525,17.3495725 L18.631829,15.980441 L18.7384908,15.9184285 C18.9582466,15.8121213 19.2127143,15.8121213 19.4320111,15.9184285 L19.538405,15.980441 L20.717525,16.7901605 L20.717525,4.08075596 L19.085525,4.08075596 L18.9832134,4.07420758 C18.6145315,4.02666833 18.3220699,3.72562004 18.2758866,3.34611348 L18.269525,3.24079796 L18.2758866,3.13513797 C18.3220699,2.75452115 18.6145315,2.45398173 18.9832134,2.406535 L19.085525,2.4 L21.533525,2.4 Z M19.109525,12.96 C19.5734442,12.96 19.949525,13.3360808 19.949525,13.8 C19.949525,14.2639192 19.5734442,14.64 19.109525,14.64 L11.8059067,14.6389557 C11.4959434,14.0155165 11.0885194,13.4490752 10.6035719,12.9595689 L19.109525,12.96 Z M8.47752504,2.4 L8.57983665,2.406535 C8.9485186,2.45398173 9.24098013,2.75452115 9.28716343,3.13513797 L9.29352504,3.24079796 L9.28716343,3.34611348 C9.24098013,3.72562004 8.9485186,4.02666833 8.57983665,4.07420758 L8.47752504,4.08075596 L7.66152504,4.08075596 L7.66128923,11.2549216 C7.14007744,11.1170775 6.59312484,11.0425489 6.02915999,11.0400642 L6.02952504,3.24079796 L6.03590001,3.13513797 C6.08217728,2.75452115 6.37518219,2.45398173 6.74337387,2.406535 L6.84552504,2.4 L8.47752504,2.4 Z M19.109525,9.36 C19.5734442,9.36 19.949525,9.73608081 19.949525,10.2 C19.949525,10.6639192 19.5734442,11.04 19.109525,11.04 L9.74952504,11.04 C9.28560585,11.04 8.90952504,10.6639192 8.90952504,10.2 C8.90952504,9.73608081 9.28560585,9.36 9.74952504,9.36 L19.109525,9.36 Z M10.109525,4.8 C11.0373634,4.8 11.789525,5.55216162 11.789525,6.48 C11.789525,7.40783838 11.0373634,8.16 10.109525,8.16 C9.18168666,8.16 8.42952504,7.40783838 8.42952504,6.48 C8.42952504,5.55216162 9.18168666,4.8 10.109525,4.8 Z M19.109525,5.76 C19.5734442,5.76 19.949525,6.13608081 19.949525,6.6 C19.949525,7.06391919 19.5734442,7.44 19.109525,7.44 L13.109525,7.44 C12.6456058,7.44 12.269525,7.06391919 12.269525,6.6 C12.269525,6.13608081 12.6456058,5.76 13.109525,5.76 L19.109525,5.76 Z" transform="translate(0 -2)"/>
</svg>
