<svg width="35" height="33" style="margin-left:4px" viewBox="0 0 35 33" fill="none" xmlns="http://www.w3.org/2000/svg">
<path d="M12.7115 20.7424H8.01562" stroke="#5A5D72" stroke-width="1.5" stroke-linecap="round" stroke-linejoin="round"/>
<path d="M15.6281 14.6372H8.01562" stroke="#5A5D72" stroke-width="1.5" stroke-linecap="round" stroke-linejoin="round"/>
<path d="M12.0333 8.54606H8.01562" stroke="#5A5D72" stroke-width="1.5" stroke-linecap="round" stroke-linejoin="round"/>
<path d="M18.8791 27.937C18.8601 27.937 7.66598 27.9414 7.66598 27.9414C3.60598 27.9414 1.09473 25.2829 1.09473 21.2229V7.81205C1.09473 3.77246 3.58702 1.12413 7.61202 1.09934C7.62121 1.09934 10.7176 1.09773 13.6538 1.0962C16.3047 1.09482 18.8251 1.09351 18.8251 1.09351C24.0628 1.09351 25.5211 3.64586 25.5211 10.9375" stroke="#5A5D72" stroke-width="1.5" stroke-linecap="round" stroke-linejoin="round"/>
<path d="M23.3335 16.0417V24.7917" stroke="url(#paint0_linear)" stroke-width="1.5" stroke-linecap="round" stroke-linejoin="round"/>
<path d="M27.7085 20.4167H18.9585" stroke="url(#paint1_linear)" stroke-width="1.5" stroke-linecap="round" stroke-linejoin="round"/>
<defs>
<linearGradient id="paint0_linear" x1="23.7005" y1="15.3687" x2="27.6853" y2="16.8026" gradientUnits="userSpaceOnUse">
<stop stop-color="#FF3366"/>
<stop offset="1" stop-color="#FE5196"/>
</linearGradient>
<linearGradient id="paint1_linear" x1="22.1699" y1="20.3398" x2="22.2218" y2="21.7674" gradientUnits="userSpaceOnUse">
<stop stop-color="#FF3366"/>
<stop offset="1" stop-color="#FE5196"/>
</linearGradient>
</defs>
</svg>
