<svg width="24" height="22" viewBox="0 0 24 22" fill="none" xmlns="http://www.w3.org/2000/svg">
<path fill-rule="evenodd" clip-rule="evenodd" d="M4.74621 14.2234C4.74621 13.8091 5.082 13.4734 5.49621 13.4734H8.71621C9.13042 13.4734 9.46621 13.8091 9.46621 14.2234C9.46621 14.6376 9.13042 14.9734 8.71621 14.9734H5.49621C5.082 14.9734 4.74621 14.6376 4.74621 14.2234Z" fill="#5A5D72"/>
<path fill-rule="evenodd" clip-rule="evenodd" d="M4.74621 10.0369C4.74621 9.62264 5.082 9.28686 5.49621 9.28686H10.7162C11.1304 9.28686 11.4662 9.62264 11.4662 10.0369C11.4662 10.4511 11.1304 10.7869 10.7162 10.7869H5.49621C5.082 10.7869 4.74621 10.4511 4.74621 10.0369Z" fill="#5A5D72"/>
<path fill-rule="evenodd" clip-rule="evenodd" d="M4.74631 5.86006C4.74631 5.44584 5.0821 5.11006 5.49631 5.11006H8.25131C8.66552 5.11006 9.00131 5.44584 9.00131 5.86006C9.00131 6.27427 8.66552 6.61006 8.25131 6.61006H5.49631C5.0821 6.61006 4.74631 6.27427 4.74631 5.86006Z" fill="#5A5D72"/>
<path fill-rule="evenodd" clip-rule="evenodd" d="M12.9086 -0.000244141C14.8192 -0.000244021 16.2785 0.470616 17.1778 1.83768C18.012 3.10596 18.2501 5.00318 18.2501 7.49994C18.2501 7.91415 17.9143 8.24994 17.5001 8.24994C17.0859 8.24994 16.7501 7.91415 16.7501 7.49994C16.7501 4.9967 16.4882 3.51883 15.9246 2.66202C15.426 1.90402 14.5896 1.49979 12.9088 1.49976L5.22423 1.50374L5.2222 1.50375C4.01152 1.51165 3.1002 1.90948 2.49049 2.54297C1.87766 3.17971 1.50061 4.12651 1.50061 5.35676V14.5528C1.50061 15.7897 1.88066 16.7408 2.49833 17.3785C3.11312 18.0132 4.03295 18.4097 5.2564 18.4098V18.4098L12.9456 18.4068C13.3598 18.4068 13.6956 18.7425 13.6956 19.1568C13.6956 19.571 13.3598 19.9068 12.9456 19.9068L5.25725 19.9098C3.69681 19.9098 2.36306 19.3948 1.42089 18.4221C0.481556 17.4523 0.000610352 16.0998 0.000610352 14.5528V5.35676C0.000610352 3.817 0.478066 2.4708 1.40973 1.50279C2.34418 0.53189 3.66668 0.0133069 5.21499 0.00377023L5.21961 0.00374174L12.9086 -0.000244141Z" fill="#5A5D72"/>
<path fill-rule="evenodd" clip-rule="evenodd" d="M16 10.25C16.4142 10.25 16.75 10.5858 16.75 11V17C16.75 17.4142 16.4142 17.75 16 17.75C15.5858 17.75 15.25 17.4142 15.25 17V11C15.25 10.5858 15.5858 10.25 16 10.25Z" fill="url(#paint0_linear)"/>
<path fill-rule="evenodd" clip-rule="evenodd" d="M12.25 14C12.25 13.5858 12.5858 13.25 13 13.25H19C19.4142 13.25 19.75 13.5858 19.75 14C19.75 14.4142 19.4142 14.75 19 14.75H13C12.5858 14.75 12.25 14.4142 12.25 14Z" fill="url(#paint1_linear)"/>
<defs>
<linearGradient id="paint0_linear" x1="15.0027" y1="9.67308" x2="18.0957" y2="19.4117" gradientUnits="userSpaceOnUse">
<stop stop-color="#FF3366"/>
<stop offset="1" stop-color="#FE5196"/>
</linearGradient>
<linearGradient id="paint1_linear" x1="15.0027" y1="9.67308" x2="18.0957" y2="19.4117" gradientUnits="userSpaceOnUse">
<stop stop-color="#FF3366"/>
<stop offset="1" stop-color="#FE5196"/>
</linearGradient>
</defs>
</svg>
