<svg xmlns="http://www.w3.org/2000/svg" viewBox="0 0 22 20">
  <path d="M2.98399877,13.5439988 C5.0426638,11.4853337 8.39238135,11.4853337 10.4510464,13.5439988 C12.5097114,15.6026638 12.5097114,18.9523814 10.4510464,21.0110464 C8.39238135,23.0697114 5.0426638,23.0697114 2.98399877,21.0110464 C0.925333744,18.9523814 0.925333744,15.6026638 2.98399877,13.5439988 Z M9.43281261,14.5622325 C7.93566957,13.0650895 5.49937558,13.0650895 4.00223253,14.5622325 C2.50508949,16.0593756 2.50508949,18.4956696 4.00223253,19.9928126 C5.49937558,21.4899557 7.93566957,21.4899557 9.43281261,19.9928126 C10.9299557,18.4956696 10.9299557,16.0593756 9.43281261,14.5622325 Z M6.71751869,14.1322292 C7.04927764,14.1322241 7.31739577,14.4003422 7.31739059,14.7321011 L7.31739059,14.7321011 L7.31736019,16.677685 L9.26294401,16.6776546 C9.59470296,16.6776494 9.86282109,16.9457675 9.86281591,17.2775265 C9.86281073,17.6092854 9.59468421,17.8774119 9.26292526,17.8774171 L9.26292526,17.8774171 L7.31734144,17.8774475 L7.31731105,19.8230313 C7.31730586,20.1547903 7.04917935,20.4229168 6.7174204,20.422922 C6.55196517,20.4229246 6.40178377,20.3558963 6.29317896,20.2472915 C6.18457415,20.1386867 6.11754591,19.9885053 6.1175485,19.8230501 L6.1175485,19.8230501 L6.1175789,17.8774663 L4.17199508,17.8774967 C4.00653984,17.8774992 3.85635845,17.810471 3.74775364,17.7018662 C3.63914882,17.5932614 3.57212059,17.44308 3.57212317,17.2776247 C3.57212836,16.9458658 3.84025487,16.6777393 4.17201382,16.6777341 L4.17201382,16.6777341 L6.11759764,16.6777037 L6.11762804,14.7321199 C6.11763322,14.4003609 6.38575974,14.1322344 6.71751869,14.1322292 Z M21.5654344,7.83021661 C22.0661149,8.92908742 22.32,10.102144 22.32,11.3167831 C22.32,12.9910162 21.8184499,14.6193264 20.8695245,16.0255762 C20.7418797,16.2148013 20.5305317,16.32 20.3131644,16.32 C20.2486007,16.32 20.1835466,16.3107374 20.1199738,16.2916525 L20.025972,16.2555886 L18.6214446,15.5929196 C18.2879362,15.4355689 18.146313,15.0401212 18.3051249,14.7097144 C18.4495298,14.4092844 18.7925087,14.2660603 19.1041945,14.3606975 L19.1965317,14.3963051 L20.0585436,14.8030182 C20.6644635,13.7335036 20.9823548,12.5392085 20.9823548,11.3167831 C20.9823548,10.2914354 20.7683651,9.30183871 20.3462711,8.37549377 C20.1942812,8.04193935 20.3439971,7.64947365 20.680649,7.49888213 C21.0174346,7.34822434 21.4134779,7.49666219 21.5654344,7.83021661 Z M19.7306224,5.94364565 C19.9503062,6.15673441 19.9826688,6.49118063 19.80773,6.74019698 C19.148226,7.67838948 15.8321162,12.3842121 15.3105975,12.889957 C14.9323987,13.2566314 14.435645,13.44 13.9389236,13.44 C13.4422023,13.44 12.9454162,13.2566314 12.5672497,12.889957 C11.8109168,12.156514 11.8109168,10.9631919 12.5672497,10.2297489 C13.0888007,9.72403537 17.9416948,6.50839201 18.9092087,5.86890626 C19.1660399,5.69920646 19.5109063,5.73061958 19.7306224,5.94364565 Z M16.7572452,8.82694326 C15.0620429,9.96957182 13.6842262,10.9224363 13.4815805,11.1166208 C13.2295665,11.3610913 13.2295988,11.7587713 13.4817098,12.0032105 C13.7337884,12.2477124 14.1440265,12.2477124 14.3961052,12.0032105 C14.5962938,11.8067688 15.5789383,10.4707709 16.7572452,8.82694326 Z M14.2358053,3.36 C15.4151662,3.36 16.5541524,3.60174958 17.6211396,4.07846624 C17.9450383,4.2231912 18.0890684,4.60036766 17.9428507,4.9209597 C17.796633,5.24145621 17.4155018,5.38407955 17.0916995,5.2393546 C16.4881602,4.96969264 15.8569905,4.78921097 15.2062334,4.69965414 L14.8792598,4.66246088 L14.8792598,5.62079798 C14.8792598,5.97253216 14.5911996,6.25765146 14.2358375,6.25765146 C13.912781,6.25765146 13.645346,6.02201567 13.5993913,5.71490971 L13.5924152,5.62079798 L13.5924152,4.66293852 C11.4497158,4.85854541 9.58569458,6.02111838 8.45106912,7.70448538 L8.307248,7.92697178 L9.20585157,8.35359992 C9.52627587,8.50571237 9.66139455,8.88613679 9.50774531,9.20325798 C9.39710885,9.43156995 9.16692452,9.56483154 8.9271532,9.56483154 C8.86493427,9.56483154 8.80208621,9.55585898 8.74050593,9.53725342 L8.64932346,9.50203778 L7.73917046,9.0699327 C7.52538086,9.62535734 7.38229907,10.215042 7.32089889,10.8281374 C7.12320599,10.809306 6.92268977,10.8 6.72,10.8 C6.48659966,10.8 6.25608141,10.8123397 6.02906204,10.8364022 L6.05198983,10.5876309 C6.25902868,8.75980001 7.07889969,7.06729692 8.41219017,5.74756367 C9.96776008,4.20790671 12.0359445,3.36 14.2358053,3.36 Z" transform="translate(-1 -3)"/>
</svg>
