<svg xmlns="http://www.w3.org/2000/svg" viewBox="0 0 26 23">
  <g>
    <path d="M22.702,15.6499 C22.702,15.0959 23.238,14.7739 23.681,14.9589 C23.759,14.9909 23.835,15.0349 23.904,15.1009 L23.904,15.1009 L25.645,16.7809 L25.77,16.9019 C26.077,17.1979 26.077,17.7029 25.77,17.9989 L25.77,17.9989 L25.645,18.1199 L25.302,18.4509 L23.904,19.7999 C23.446,20.2419 22.702,19.9029 22.702,19.2519 L22.702,19.2519 Z M17.4319,15.6499 C17.4319,14.9979 18.1749,14.6589 18.6339,15.1009 L18.6339,15.1009 L19.9799,16.4009 L20.4999,16.9019 C20.8069,17.1979 20.8069,17.7029 20.4999,17.9989 L20.4999,17.9989 L20.0319,18.4509 L18.6339,19.7999 C18.1749,20.2419 17.4319,19.9029 17.4319,19.2519 L17.4319,19.2519 Z M15.9592,16.4007 L15.9592,18.4507 L12.8685173,18.4507 C12.9538496,18.0558828 13.0037325,17.7596148 13.0181658,17.561896 C13.0369877,17.3040593 13.0369877,16.9169939 13.0181658,16.4007 L13.0181658,16.4007 L15.9592,16.4007 Z M22.6982,-0.000300000003 C23.2402,-0.000300000003 23.6802,0.4577 23.6802,1.0247 L23.6802,1.0247 L23.6802,4.0997 L24.6622,4.0997 C25.2052,4.0997 25.6452,4.5577 25.6452,5.1247 L25.6452,5.1247 L25.6452,14.6867 L24.9042,13.9727 C24.2652,13.3557 23.3382,13.1927 22.5412,13.5567 C22.1652,13.7277 21.8592,14.0067 21.6332,14.3437 C20.4502,14.3077 18.7692,13.4807 18.7692,11.2757 C18.7692,9.0187 20.5312,8.2007 21.7162,8.2007 L21.7162,8.2007 L23.6802,8.2007 L23.6802,6.1497 L9.0522,6.1497 C8.6722,6.1497 8.3042,6.0787 7.9642,5.9477 L7.9642,5.9477 L7.9642,10.2841503 C7.58036901,10.1261634 7.29105977,10.0314466 7.09627225,10 C6.85461532,9.96098674 6.4892579,9.95001366 6.0002,9.96708078 L6.0002,9.96708078 L6.000325,3.0527 L6.000325,3.0527 L6.0012,3.0297 C6.0112,2.3187 6.2552,1.6307 6.7012,1.0837 C7.2632,0.3947 8.0812,-0.000300000003 8.9472,-0.000300000003 L8.9472,-0.000300000003 Z M23.6802,10.2507 L21.7162,10.2507 C21.2742,10.2627 20.7342,10.4497 20.7342,11.2757 C20.7342,12.1017 21.2742,12.2877 21.7282,12.3007 L21.7282,12.3007 L23.6802,12.3007 L23.6802,10.2507 Z M21.7162,2.0497 L8.9472,2.0497 C8.6582,2.0497 8.3852,2.1827 8.1982,2.4117 C8.0082,2.6447 7.9302,2.9437 7.9782,3.2557 C8.0522,3.7287 8.5242,4.0997 9.0522,4.0997 L9.0522,4.0997 L21.7162,4.0997 L21.7162,2.0497 Z"/>
    <g transform="translate(0 11)">
      <path d="M6,0 C2.69139844,0 0,2.69139844 0,6 C0,9.30860156 2.69139844,12 6,12 C9.30860156,12 12,9.30813281 12,6 C12,2.69186719 9.30860156,0 6,0 Z M6,10.3832049 C3.79468524,10.3832049 1.73650236,8.20568454 1.73650236,6 C1.73650236,3.79431546 3.79468524,1.61461124 6,1.61461124 C8.20531476,1.61461124 10.4080324,3.79322351 10.4080324,5.99890806 C10.4080324,8.2045926 8.20568454,10.3832049 6,10.3832049 Z"/>
      <path d="M8.5,5.3165605 L6.59230174,5.3165605 L6.59230174,3.5 C6.59230174,3.2240078 6.2765049,3 6,3 C5.7234951,3 5.34529701,3.2240078 5.34529701,3.5 L5.34529701,5.3165605 L3.5,5.3165605 C3.2235035,5.3165605 3,5.72399939 3,6 C3,6.27600061 3.2235035,6.61477251 3.5,6.61477251 L5.34529701,6.61477251 L5.34529701,8.5 C5.34529701,8.7759922 5.7234951,9 6,9 C6.2765049,9 6.59230174,8.7759922 6.59230174,8.5 L6.59230174,6.61477251 L8.5,6.61477251 C8.7764965,6.61477251 9,6.27600061 9,6 C9,5.72399939 8.7764965,5.3165605 8.5,5.3165605 Z"/>
    </g>
  </g>
</svg>
