<svg xmlns="http://www.w3.org/2000/svg" viewBox="0 0 25 23">
  <g>
    <path d="M10.9166919,11.9885247 C11.030959,11.8132212 11.1449512,11.6378906 11.25856,11.46256 C11.28856,11.41696 11.32096,11.40496 11.37256,11.40496 C11.79496,11.40616 12.21496,11.40736 12.63736,11.40736 C12.93616,11.40736 13.23376,11.40616 13.53136,11.40376 C14.23816,11.39536 14.90176,11.23216 15.51256,10.88776 C15.60736,10.83376 15.69616,10.76776 15.78856,10.70776 C15.85096,10.64776 15.91456,10.58656 15.97816,10.52656 C16.01536,10.47016 16.05616,10.41856 16.08736,10.35976 C16.26736,10.04176 16.24336,9.80416 16.00456,9.47656 C15.99256,9.45976 15.98056,9.44296 15.96976,9.42376 C15.90856,9.36736 15.84736,9.30856 15.78856,9.25096 C15.67696,9.18136 15.57256,9.10576 15.45856,9.04336 C14.92816,8.75416 14.35336,8.59096 13.74616,8.56816 C13.44616,8.55616 13.14616,8.55376 12.84616,8.55376 C12.66496,8.55376 12.48616,8.55616 12.30496,8.55616 C12.23416,8.55616 12.16216,8.55616 12.09136,8.55376 L11.77096,8.55376 C11.63776,8.55376 11.50336,8.55376 11.37136,8.55616 C11.32576,8.55616 11.30176,8.54176 11.27896,8.50816 C10.86736,7.86256 10.45216,7.21816 10.03816,6.57376 C9.37336,5.53696 8.70736,4.50016 8.04256,3.46456 C8.01496,3.42256 7.98736,3.38176 7.96336,3.33736 C7.89496,3.21616 7.78936,3.16696 7.64776,3.16696 C7.40296,3.16816 7.16296,3.16816 6.92296,3.16816 L6.05536,3.16816 L6.02896,3.16816 L6.01456,3.16816 C5.77696,3.16936 5.64016,3.34216 5.70496,3.56056 C5.79376,3.85456 5.88376,4.14856 5.97256,4.44256 C6.38416,5.79376 6.79456,7.14256 7.20496,8.49376 C7.21096,8.51176 7.21456,8.52856 7.22176,8.55256 C7.19536,8.55256 7.17256,8.55376 7.15096,8.55376 C6.04936,8.55376 4.94776,8.55376 3.84616,8.55616 C3.79456,8.55616 3.76816,8.54176 3.74176,8.49736 C3.44296,7.99456 3.14416,7.49536 2.84296,6.99496 C2.78056,6.89056 2.68816,6.83416 2.56096,6.83416 C2.14216,6.83896 1.72816,6.83896 1.31296,6.84496 C1.25056,6.84496 1.18816,6.87136 1.12576,6.88336 C1.09816,6.91216 1.06936,6.93976 1.04056,6.96616 C0.98656,7.06216 0.99736,7.16176 1.01296,7.26496 C1.14736,8.15536 1.27936,9.04576 1.41136,9.93736 C1.41616,9.96616 1.41496,9.99616 1.41136,10.02496 C1.31560805,10.6719326 1.2198561,11.3189052 1.12232107,11.9649863 C2.16606363,11.1299643 2.97812301,10.5948889 3.55849921,10.35976 C4.05595389,10.1582253 4.86064082,10.0383053 5.97256,10 C7.19704776,10.1062214 8.11364174,10.2817414 8.72234194,10.52656 C9.21233771,10.7236358 9.94378768,11.2109574 10.9166919,11.9885247 Z"/>
    <path d="M20.08312,9.11068 C19.88272,6.31108 18.87352,4.20148 17.87992,2.78908 C20.59672,3.75388 22.61872,6.17548 22.98952,9.11068 L20.08312,9.11068 Z M17.88352,17.36548 C18.87952,15.94828 19.90312,13.84828 20.10112,11.04628 L22.98952,11.04628 C22.61992,13.98028 20.59792,16.40188 17.88352,17.36548 L17.88352,17.36548 Z M12.52312,19.478979 C13.375572,19.7259823 14.34778,19.75708 15.27952,19.75708 C20.63872,19.75708 25.00072,15.41428 25.00072,10.07908 C25.00072,4.74268 20.63872,0.39988 15.27952,0.39988 C13.07992,0.39988 11.05432,1.14148 9.42352,2.37388 L10.45312,4.04428 C11.11792,3.51628 11.86072,3.08188 12.67912,2.79028 C12.18592,3.49108 11.68792,4.35868 11.28472,5.39428 L11.75752,6.15988 L11.81392,6.15988 C12.14392,6.15988 12.47272,6.16108 12.80152,6.17548 C12.88912,6.17908 12.97552,6.19348 13.06192,6.20068 C13.71112,4.47508 14.66512,3.29308 15.27952,2.67148 C16.19392,3.59548 17.87752,5.73028 18.15712,9.11068 L17.51872,9.11068 C17.74912,9.74788 17.75992,10.40548 17.58352,11.04628 L18.15712,11.04628 C17.87752,14.42788 16.19392,16.56268 15.27952,17.48548 C14.69512,16.89028 13.79512,15.79468 13.14832,14.19508 C12.94192,14.21668 12.73432,14.23948 12.52312,14.24188 C12.49719,14.2421157 12.4712368,14.2423515 12.4452651,14.2425849 C12.8150884,15.1571501 13,15.8648551 13,16.3656999 C13,16.6966065 13.0391895,17.4328755 12.9004109,18.2325311 C12.8528974,18.5063081 12.7271338,18.9217907 12.52312,19.478979 Z"/>
    <g fill-rule="nonzero" transform="translate(0 11)">
      <path d="M6,0 C2.69139844,0 0,2.69139844 0,6 C0,9.30860156 2.69139844,12 6,12 C9.30860156,12 12,9.30813281 12,6 C12,2.69186719 9.30860156,0 6,0 Z M6,10.3832049 C3.79468524,10.3832049 1.73650236,8.20568454 1.73650236,6 C1.73650236,3.79431546 3.79468524,1.61461124 6,1.61461124 C8.20531476,1.61461124 10.4080324,3.79322351 10.4080324,5.99890806 C10.4080324,8.2045926 8.20568454,10.3832049 6,10.3832049 Z"/>
      <path d="M8.5,5.3165605 L6.59230174,5.3165605 L6.59230174,3.5 C6.59230174,3.2240078 6.2765049,3 6,3 C5.7234951,3 5.34529701,3.2240078 5.34529701,3.5 L5.34529701,5.3165605 L3.5,5.3165605 C3.2235035,5.3165605 3,5.72399939 3,6 C3,6.27600061 3.2235035,6.61477251 3.5,6.61477251 L5.34529701,6.61477251 L5.34529701,8.5 C5.34529701,8.7759922 5.7234951,9 6,9 C6.2765049,9 6.59230174,8.7759922 6.59230174,8.5 L6.59230174,6.61477251 L8.5,6.61477251 C8.7764965,6.61477251 9,6.27600061 9,6 C9,5.72399939 8.7764965,5.3165605 8.5,5.3165605 Z"/>
    </g>
  </g>
</svg>
