<svg xmlns="http://www.w3.org/2000/svg" viewBox="0 0 22 21">
  <path d="M2.7735238,12.8535238 C4.83218883,10.7948588 8.18190639,10.7948588 10.2405714,12.8535238 C12.2992364,14.9121888 12.2992364,18.2619064 10.2405714,20.3205714 C8.18190639,22.3792364 4.83218883,22.3792364 2.7735238,20.3205714 C0.714858779,18.2619064 0.714858779,14.9121888 2.7735238,12.8535238 Z M9.22233765,13.8717576 C7.7251946,12.3746145 5.28890062,12.3746145 3.79175757,13.8717576 C2.29461452,15.3689006 2.29461452,17.8051946 3.79175757,19.3023376 C5.28890062,20.7994807 7.7251946,20.7994807 9.22233765,19.3023376 C10.7194807,17.8051946 10.7194807,15.3689006 9.22233765,13.8717576 Z M17.28,3.6 L17.52,3.606 L17.52,5.64 C17.52,6.19670303 17.9412105,6.65502707 18.4823221,6.71366271 L18.6,6.72 C19.156703,6.72 19.6150271,6.29878949 19.6736627,5.7576779 L19.68,5.64 L19.6810133,4.24274089 C19.7423673,4.27825225 19.8028623,4.31508283 19.8624596,4.35319384 L20.061,4.487 L19.9614727,4.35054058 C19.8778549,4.24603384 19.7839545,4.1501306 19.6813088,4.06434761 L19.6805089,3.93332958 C21.0929192,4.55035923 22.08,5.95990708 22.08,7.6 L22.08,16.16 C22.08,18.369139 20.289139,20.16 18.08,20.16 L11.8680393,20.1611431 C12.2116813,19.648004 12.4839639,19.0830434 12.6706879,18.4804606 L18.4,18.48 C19.4543618,18.48 20.3181651,17.6641222 20.3945143,16.6292623 L20.4,16.48 L20.399,8.4 L5.519,8.4 L5.51915819,10.1507458 C4.92973759,10.2383575 4.36621614,10.4053422 3.83981189,10.6404819 L3.84,7.6 C3.84,5.96022089 4.8267031,4.55089864 6.23876988,3.93337266 L6.23870663,4.06413205 C6.14119934,4.14560682 6.05156784,4.23618368 5.9711201,4.334556 L5.858,4.486 L6.04509288,4.36079343 C6.10866671,4.31990016 6.1732676,4.28046425 6.2388483,4.2425332 L6.24,5.64 C6.24,6.23646753 6.72353247,6.72 7.32,6.72 C7.87670303,6.72 8.33502707,6.29878949 8.39366271,5.7576779 L8.4,5.64 L8.39924651,3.60593259 C8.47900122,3.60199309 8.55926786,3.6 8.64,3.6 L17.28,3.6 Z M6.50704372,13.4417543 C6.83880267,13.4417491 7.10692081,13.7098672 7.10691562,14.0416262 L7.10691562,14.0416262 L7.10688522,15.98721 L9.05246904,15.9871796 C9.384228,15.9871744 9.65234613,16.2552925 9.65234095,16.5870515 C9.65233576,16.9188104 9.38420925,17.186937 9.0524503,17.1869421 L9.0524503,17.1869421 L7.10686648,17.1869725 L7.10683608,19.1325564 C7.1068309,19.4643153 6.83870438,19.7324418 6.50694543,19.732447 C6.3414902,19.7324496 6.19130881,19.6654214 6.082704,19.5568165 C5.97409918,19.4482117 5.90707095,19.2980303 5.90707353,19.1325751 L5.90707353,19.1325751 L5.90710393,17.1869913 L3.96152011,17.1870217 C3.79606488,17.1870243 3.64588349,17.119996 3.53727867,17.0113912 C3.42867386,16.9027864 3.36164562,16.752605 3.36164821,16.5871498 C3.36165339,16.2553908 3.62977991,15.9872643 3.96153886,15.9872591 L3.96153886,15.9872591 L5.90712268,15.9872287 L5.90715308,14.0416449 C5.90715826,13.709886 6.17528477,13.4417595 6.50704372,13.4417543 Z M18,14.16 C18.79529,14.16 19.44,14.80471 19.44,15.6 C19.44,16.39529 18.79529,17.04 18,17.04 L17.52,17.04 C16.72471,17.04 16.08,16.39529 16.08,15.6 C16.08,14.80471 16.72471,14.16 17.52,14.16 L18,14.16 Z M13.2,14.16 C13.99529,14.16 14.64,14.80471 14.64,15.6 C14.64,16.39529 13.99529,17.04 13.2,17.04 L12.9424278,17.0408696 C12.9540742,16.8821006 12.96,16.7217423 12.96,16.56 C12.96,15.7182407 12.7994994,14.9139684 12.5074319,14.1761166 C12.5757175,14.1653981 12.6472284,14.16 12.72,14.16 L13.2,14.16 Z M13.2,9.84 C13.99529,9.84 14.64,10.48471 14.64,11.28 C14.64,12.07529 13.99529,12.72 13.2,12.72 L12.72,12.72 C11.92471,12.72 11.28,12.07529 11.28,11.28 C11.28,10.48471 11.92471,9.84 12.72,9.84 L13.2,9.84 Z M18,9.84 C18.79529,9.84 19.44,10.48471 19.44,11.28 C19.44,12.07529 18.79529,12.72 18,12.72 L17.52,12.72 C16.72471,12.72 16.08,12.07529 16.08,11.28 C16.08,10.48471 16.72471,9.84 17.52,9.84 L18,9.84 Z M8.4,9.84 C9.10065517,9.84 9.6844344,10.3404054 9.81344604,11.0033244 C9.00318173,10.5148376 8.07653744,10.1996966 7.08514314,10.1078832 C7.3196702,9.93905537 7.60826729,9.84 7.92,9.84 L8.4,9.84 Z M7.32,1.92 C7.78391919,1.92 8.16,2.29608081 8.16,2.76 L8.16,5.64 C8.16,6.10391919 7.78391919,6.48 7.32,6.48 C6.85608081,6.48 6.48,6.10391919 6.48,5.64 L6.48,2.76 C6.48,2.29608081 6.85608081,1.92 7.32,1.92 Z M18.6,1.92 C19.0639192,1.92 19.44,2.29608081 19.44,2.76 L19.44,5.64 C19.44,6.10391919 19.0639192,6.48 18.6,6.48 C18.1360808,6.48 17.76,6.10391919 17.76,5.64 L17.76,2.76 C17.76,2.29608081 18.1360808,1.92 18.6,1.92 Z" transform="translate(-1 -1)"/>
</svg>
