<svg xmlns="http://www.w3.org/2000/svg" xmlns:xlink="http://www.w3.org/1999/xlink" viewBox="0 0 21 21">
  <defs>
    <path id="create-new-report-a" d="M2.7735238,13.8135238 C4.83218883,11.7548588 8.18190639,11.7548588 10.2405714,13.8135238 C12.2992364,15.8721888 12.2992364,19.2219064 10.2405714,21.2805714 C8.18190639,23.3392364 4.83218883,23.3392364 2.7735238,21.2805714 C0.714858779,19.2219064 0.714858779,15.8721888 2.7735238,13.8135238 Z M16.08,2.4 L16.2064756,2.40830222 C16.3731778,2.43031111 16.5308489,2.49555556 16.6638444,2.59777778 L16.75872,2.68128 L18.39648,4.32 L20.88,4.32 L20.9920831,4.32646251 C21.4332311,4.37768117 21.7824374,4.72754659 21.8335511,5.16809423 L21.84,5.28 L21.84,20.64 L21.8335511,20.7519058 C21.7824374,21.1924534 21.4332311,21.5423188 20.9920831,21.5935375 L20.88,21.6 L11.5136536,21.6011112 C11.9701204,21.0387961 12.3342596,20.3984999 12.5829877,19.7033061 L19.9495385,19.7037037 L19.9495385,6.19259259 L18.4182055,6.19259259 L16.7720468,7.83998307 L16.6766847,7.9239271 C16.5430071,8.02669018 16.3845274,8.09227984 16.2169703,8.11440517 L16.0898462,8.12275132 L12.2301538,8.12275132 L12.1033647,8.11440517 C11.9360757,8.09227984 11.7772207,8.02669018 11.6433823,7.9239271 L11.5479532,7.83998307 L9.89986462,6.19259259 L8.37046154,6.19259259 L8.37045436,11.3200943 C7.77238161,11.1379638 7.13763114,11.04 6.48,11.04 L6.48,5.28 L6.48644886,5.16809423 C6.53756257,4.72754659 6.88676886,4.37768117 7.32791685,4.32646251 L7.44,4.32 L9.9216,4.32 L11.56128,2.68128 L11.6562222,2.59777778 C11.7893778,2.49555556 11.9474222,2.43031111 12.1138578,2.40830222 L12.24,2.4 L16.08,2.4 Z M9.22233765,14.8317576 C7.7251946,13.3346145 5.28890062,13.3346145 3.79175757,14.8317576 C2.29461452,16.3289006 2.29461452,18.7651946 3.79175757,20.2623376 C5.28890062,21.7594807 7.7251946,21.7594807 9.22233765,20.2623376 C10.7194807,18.7651946 10.7194807,16.3289006 9.22233765,14.8317576 Z M6.50704372,14.4017543 C6.83880267,14.4017491 7.10692081,14.6698672 7.10691562,15.0016262 L7.10691562,15.0016262 L7.10688522,16.94721 L9.05246904,16.9471796 C9.384228,16.9471744 9.65234613,17.2152925 9.65234095,17.5470515 C9.65233576,17.8788104 9.38420925,18.146937 9.0524503,18.1469421 L9.0524503,18.1469421 L7.10686648,18.1469725 L7.10683608,20.0925564 C7.1068309,20.4243153 6.83870438,20.6924418 6.50694543,20.692447 C6.3414902,20.6924496 6.19130881,20.6254214 6.082704,20.5168165 C5.97409918,20.4082117 5.90707095,20.2580303 5.90707353,20.0925751 L5.90707353,20.0925751 L5.90710393,18.1469913 L3.96152011,18.1470217 C3.79606488,18.1470243 3.64588349,18.079996 3.53727867,17.9713912 C3.42867386,17.8627864 3.36164562,17.712605 3.36164821,17.5471498 C3.36165339,17.2153908 3.62977991,16.9472643 3.96153886,16.9472591 L3.96153886,16.9472591 L5.90712268,16.9472287 L5.90715308,15.0016449 C5.90715826,14.669886 6.17528477,14.4017595 6.50704372,14.4017543 Z M16.8782476,14.962963 L16.9886202,14.9693457 C17.4229824,15.019932 17.7661994,15.3654781 17.8164318,15.8005869 L17.8227692,15.9111111 L17.8164318,16.0214601 C17.7661994,16.455976 17.4229824,16.8021731 16.9886202,16.8528631 L16.8782476,16.8592593 L14.9873133,16.8592593 L14.8769269,16.8528631 C14.4424572,16.8021731 14.0985373,16.455976 14.0481974,16.0214601 L14.0418462,15.9111111 L14.0481974,15.8005869 C14.0985373,15.3654781 14.4424572,15.019932 14.8769269,14.9693457 L14.9873133,14.962963 L16.8782476,14.962963 Z M16.8782476,10.9333333 L16.9886202,10.9397295 C17.4229824,10.9904195 17.7661994,11.3366166 17.8164318,11.7711324 L17.8227692,11.8814815 L17.8164318,11.9920057 C17.7661994,12.4271145 17.4229824,12.7726606 16.9886202,12.8232469 L16.8782476,12.8296296 L14.9873133,12.8296296 L14.8769269,12.8232469 C14.4424572,12.7726606 14.0985373,12.4271145 14.0481974,11.9920057 L14.0418462,11.8814815 L14.0481974,11.7711324 C14.0985373,11.3366166 14.4424572,10.9904195 14.8769269,10.9397295 L14.9873133,10.9333333 L16.8782476,10.9333333 Z M11.4429339,10.9333333 L11.5532376,10.9397295 C11.9873816,10.9904195 12.3310436,11.3366166 12.3813458,11.7711324 L12.3876923,11.8814815 L12.3813458,11.9920057 C12.3310436,12.4271145 11.9873816,12.7726606 11.5532376,12.8232469 L11.4429339,12.8296296 L11.3326165,12.8232469 C10.8621774,12.768445 10.4972308,12.3674751 10.4972308,11.8814815 C10.4972308,11.3590519 10.9204825,10.9333333 11.4429339,10.9333333 Z M15.6817448,4.2962963 L12.6382552,4.2962963 L11.6787692,5.24444444 L12.6382552,6.19259259 L15.6817448,6.19259259 L16.6412308,5.24444444 L15.6817448,4.2962963 Z"/>
  </defs>
  <use transform="translate(-1 -2)" xlink:href="#create-new-report-a"/>
</svg>
