<svg viewBox="0 0 35 35" height="30" width="30" fill="none" xmlns="http://www.w3.org/2000/svg">
<path fill-rule="evenodd" clip-rule="evenodd" d="M19.5001 13.8478H15.9044C14.2193 13.8478 12.8478 12.5199 12.8469 10.8882C12.8469 9.25482 14.2184 7.92607 15.9044 7.92521H19.5001C19.8679 7.92521 20.1663 8.21437 20.1663 8.57065C20.1663 8.92694 19.8679 9.21609 19.5001 9.21609H15.9044C14.953 9.21695 14.1793 9.96652 14.1793 10.8873C14.1793 11.8073 14.9539 12.5569 15.9044 12.5569H19.5001C19.8679 12.5569 20.1663 12.846 20.1663 13.2023C20.1663 13.5586 19.8679 13.8478 19.5001 13.8478Z" fill="currentColor"/>
<path fill-rule="evenodd" clip-rule="evenodd" d="M16.3109 11.4794H16.0337C15.666 11.4794 15.3675 11.1903 15.3675 10.834C15.3675 10.4777 15.666 10.1886 16.0337 10.1886H16.3109C16.6786 10.1886 16.9771 10.4777 16.9771 10.834C16.9771 11.1903 16.6786 11.4794 16.3109 11.4794Z" fill="currentColor"/>
<path fill-rule="evenodd" clip-rule="evenodd" d="M7.16091 4.04088C4.95798 4.04088 3.16543 5.77754 3.16543 7.91179V14.0882C3.16543 16.2225 4.95798 17.9591 7.16091 17.9591H14.8392C17.0421 17.9591 18.8338 16.2225 18.8338 14.0882V7.91179C18.8338 5.77754 17.0421 4.04088 14.8392 4.04088H7.16091ZM14.8392 19.25H7.16091C4.22337 19.25 1.83301 16.9342 1.83301 14.0882V7.91179C1.83301 5.06497 4.22337 2.75 7.16091 2.75H14.8392C17.7768 2.75 20.1662 5.06497 20.1662 7.91179V14.0882C20.1662 16.9342 17.7768 19.25 14.8392 19.25Z" fill="currentColor"/>
<path fill-rule="evenodd" clip-rule="evenodd" d="M11.3243 7.9463H6.52848C6.16074 7.9463 5.86227 7.65714 5.86227 7.30086C5.86227 6.94458 6.16074 6.65542 6.52848 6.65542H11.3243C11.6921 6.65542 11.9905 6.94458 11.9905 7.30086C11.9905 7.65714 11.6921 7.9463 11.3243 7.9463Z" fill="currentColor"/>
</svg>
