<svg width="15" height="15" viewBox="0 0 15 15" fill="none" xmlns="http://www.w3.org/2000/svg">
<rect x="1" width="14" height="15" fill="white"/>
<path d="M11.3002 7.39585L9.3458 6.62509C9.13034 6.54022 8.95992 6.36959 8.87482 6.15416L8.10396 4.20001C7.8257 3.49453 6.82723 3.49453 6.54897 4.20001L5.77811 6.15416C5.69324 6.36959 5.52259 6.54 5.30713 6.62509L3.35275 7.39585C2.64719 7.67408 2.64719 8.67243 3.35275 8.95066L5.30713 9.72143C5.52259 9.80629 5.69301 9.97693 5.77811 10.1924L6.54897 12.1465C6.82723 12.852 7.8257 12.852 8.10396 12.1465L8.87482 10.1924C8.95969 9.97693 9.13034 9.80652 9.3458 9.72143L11.3002 8.95066C12.0057 8.67243 12.0057 7.67408 11.3002 7.39585Z" fill="url(#paint0_linear_809_299)"/>
<path d="M11.7113 5.25097C12.5195 5.25097 13.1747 4.59588 13.1747 3.78778C13.1747 2.97968 12.5195 2.32458 11.7113 2.32458C10.9031 2.32458 10.2479 2.97968 10.2479 3.78778C10.2479 4.59588 10.9031 5.25097 11.7113 5.25097Z" fill="#0EDE72"/>
<rect width="14" height="15" fill="white"/>
<path d="M10.3002 7.39585L8.3458 6.62509C8.13034 6.54022 7.95992 6.36959 7.87482 6.15416L7.10396 4.20001C6.8257 3.49453 5.82723 3.49453 5.54897 4.20001L4.77811 6.15416C4.69324 6.36959 4.52259 6.54 4.30713 6.62509L2.35275 7.39585C1.64719 7.67408 1.64719 8.67243 2.35275 8.95066L4.30713 9.72143C4.52259 9.80629 4.69301 9.97693 4.77811 10.1924L5.54897 12.1465C5.82723 12.852 6.8257 12.852 7.10396 12.1465L7.87482 10.1924C7.95969 9.97693 8.13034 9.80652 8.3458 9.72143L10.3002 8.95066C11.0057 8.67243 11.0057 7.67408 10.3002 7.39585Z" fill="url(#paint1_linear_809_299)"/>
<path d="M10.7113 5.25097C11.5195 5.25097 12.1747 4.59588 12.1747 3.78778C12.1747 2.97968 11.5195 2.32458 10.7113 2.32458C9.9031 2.32458 9.24793 2.97968 9.24793 3.78778C9.24793 4.59588 9.9031 5.25097 10.7113 5.25097Z" fill="#13A038"/>
<defs>
<linearGradient id="paint0_linear_809_299" x1="12.658" y1="1.80707" x2="5.41233" y2="12.6756" gradientUnits="userSpaceOnUse">
<stop offset="0.252358" stop-color="#00D639"/>
<stop offset="0.631946" stop-color="#2EF0F0"/>
<stop offset="1" stop-color="#8F49FF"/>
</linearGradient>
<linearGradient id="paint1_linear_809_299" x1="5.86065" y1="4.93719" x2="5.86065" y2="12.1128" gradientUnits="userSpaceOnUse">
<stop stop-color="#13A038"/>
<stop offset="0.487848" stop-color="#0092DB"/>
<stop offset="1" stop-color="#8F49FE"/>
</linearGradient>
</defs>
</svg>
