<svg width="18" height="18" viewBox="0 0 18 18" fill="none" xmlns="http://www.w3.org/2000/svg">
<g clip-path="url(#clip0_824_34)">
<path d="M14.5587 8.71007L11.2019 7.38624C10.8318 7.24048 10.5391 6.94741 10.3929 6.5774L9.06892 3.22104C8.59098 2.00933 6.87604 2.00933 6.3981 3.22104L5.07409 6.5774C4.92831 6.94741 4.63521 7.24009 4.26515 7.38624L0.90835 8.71007C-0.303516 9.18795 -0.303516 10.9027 0.90835 11.3805L4.26515 12.7044C4.63521 12.8501 4.92793 13.1432 5.07409 13.5132L6.3981 16.8696C6.87604 18.0813 8.59098 18.0813 9.06892 16.8696L10.3929 13.5132C10.5387 13.1432 10.8318 12.8505 11.2019 12.7044L14.5587 11.3805C15.7705 10.9027 15.7705 9.18795 14.5587 8.71007Z" fill="black" fill-opacity="0.9"/>
<path d="M15.2644 5.02623C16.6525 5.02623 17.7778 3.90107 17.7778 2.51312C17.7778 1.12516 16.6525 0 15.2644 0C13.8762 0 12.7509 1.12516 12.7509 2.51312C12.7509 3.90107 13.8762 5.02623 15.2644 5.02623Z" fill="#00D639"/>
</g>
<defs>
<clipPath id="clip0_824_34">
<rect width="17.7778" height="17.7778" fill="white"/>
</clipPath>
</defs>
</svg>
