<svg width="16" height="16" viewBox="0 0 16 16" fill="none" xmlns="http://www.w3.org/2000/svg">
<path d="M7.99447 0.5C8.63402 0.5 9.27358 0.875 9.59336 1.475L15.7491 12.8C16.0689 13.325 16.0689 14 15.829 14.6C15.4293 15.125 14.8697 15.5 14.2302 15.5H1.83873C1.19917 15.5 0.559613 15.125 0.239834 14.6C-0.0799447 14.075 -0.0799447 13.4 0.239834 12.8L6.39557 1.475C6.71535 0.875 7.35491 0.5 7.99447 0.5ZM8 11C7.52 11 7.2 11.3 7.2 11.75C7.2 12.2 7.52 12.5 8 12.5C8.48 12.5 8.8 12.2 8.8 11.75C8.8 11.3 8.48 11 8 11ZM8 3.5C7.55429 3.5 7.24653 3.70694 7.20484 4.02474L7.2 4.1V8.9C7.2 9.26 7.52 9.5 8 9.5C8.44571 9.5 8.75347 9.29306 8.79516 8.97526L8.8 8.9V4.1C8.8 3.74 8.48 3.5 8 3.5Z" fill="white"/>
</svg>
