<svg width="18" height="18" viewBox="0 0 18 18" fill="none" xmlns="http://www.w3.org/2000/svg">
<path fill-rule="evenodd" clip-rule="evenodd" d="M16.5 9C16.5 5.27208 13.5961 2.25 10.014 2.25C6.89053 2.25 4.28274 4.54772 3.66614 7.6076L2.70353 5.69614L2.64815 5.6049C2.46379 5.34974 2.1234 5.26421 1.84239 5.4179C1.53016 5.58867 1.40947 5.99011 1.57284 6.31455L3.9441 11.0239L7.73189 7.63902L7.81231 7.55307C8.00325 7.30844 8.00522 6.94981 7.80147 6.70281L7.71906 6.61935C7.48441 6.4213 7.13972 6.42013 6.90182 6.63273L4.82697 8.48671C5.07544 5.73289 7.30289 3.57787 10.014 3.57787C12.8914 3.57787 15.2241 6.00544 15.2241 9C15.2241 11.9946 12.8914 14.4221 10.014 14.4221C9.66166 14.4221 9.37603 14.7194 9.37603 15.0861C9.37603 15.4527 9.66166 15.75 10.014 15.75C13.5961 15.75 16.5 12.7279 16.5 9Z" fill="#2C304E"/>
</svg>
