<svg viewBox="0 0 28 28" fill="none" xmlns="http://www.w3.org/2000/svg">
<path d="M0 14C0 6.26801 6.26801 0 14 0C21.732 0 28 6.26801 28 14C28 21.732 21.732 28 14 28C6.26801 28 0 21.732 0 14Z" fill="black" fill-opacity="0.2"/>
<g opacity="0.8">
<path d="M17.8744 21.298C17.6508 21.5589 17.2768 21.6148 16.9903 21.4473L16.8874 21.3739L9.62499 15.149C8.9034 14.5305 8.81983 13.4442 9.43834 12.7226L9.52808 12.6257L9.62499 12.5359L16.8874 6.31099C17.1809 6.05939 17.6228 6.09339 17.8744 6.38691C18.0981 6.64783 18.0961 7.02598 17.8867 7.2835L17.7985 7.37395L10.5361 13.5989C10.5236 13.6096 10.512 13.6212 10.5013 13.6337C10.4052 13.7458 10.4 13.9051 10.4788 14.0219L10.5361 14.0861L17.7985 20.311C18.092 20.5626 18.126 21.0045 17.8744 21.298Z" fill="white"/>
</g>
</svg>
