<svg xmlns="http://www.w3.org/2000/svg" viewBox="0 0 26 8">
  <path d="M25 3.82373C25.2761 3.82373 25.5 4.04759 25.5 4.32373C25.5 4.59987 25.2761 4.82373 25 4.82373V3.82373ZM0.646446 4.67728C0.451183 4.48202 0.451183 4.16544 0.646446 3.97018L3.82843 0.788197C4.02369 0.592934 4.34027 0.592934 4.53553 0.788197C4.73079 0.983459 4.73079 1.30004 4.53553 1.4953L1.70711 4.32373L4.53553 7.15216C4.73079 7.34742 4.73079 7.664 4.53553 7.85926C4.34027 8.05453 4.02369 8.05453 3.82843 7.85926L0.646446 4.67728ZM25 4.32373V4.82373H1V4.32373V3.82373H25V4.32373Z"/>
</svg>
