<svg width="9" height="14" viewBox="0 0 9 14" fill="none" xmlns="http://www.w3.org/2000/svg">
<path d="M0.87932 0.474184C1.07101 0.250544 1.39159 0.202673 1.63717 0.346257L1.72535 0.409105L7.95027 5.74476C8.56878 6.2749 8.64041 7.20607 8.11026 7.82458L8.03334 7.90764L7.95027 7.98456L1.72535 13.3202C1.47375 13.5359 1.09497 13.5067 0.87932 13.2551C0.687628 13.0315 0.689351 12.7074 0.868804 12.4866L0.944399 12.4091L7.16932 7.07345C7.18002 7.06429 7.18999 7.05432 7.19915 7.04363C7.28152 6.94753 7.28597 6.81096 7.21844 6.7109L7.16932 6.65586L0.944399 1.32021C0.692804 1.10456 0.663667 0.72578 0.87932 0.474184Z" fill="#FF3366"/>
</svg>
