<svg xmlns="http://www.w3.org/2000/svg" viewBox="0 0 26 94">
  <path d="M0.646447 89.3096C0.451184 89.5049 0.451184 89.8215 0.646447 90.0167L3.82843 93.1987C4.02369 93.394 4.34027 93.394 4.53553 93.1987C4.7308 93.0034 4.7308 92.6869 4.53553 92.4916L1.70711 89.6632L4.53553 86.8347C4.7308 86.6395 4.7308 86.3229 4.53553 86.1276C4.34027 85.9324 4.02369 85.9324 3.82843 86.1276L0.646447 89.3096ZM24.3904 89.6632V90.1632H24.8904V89.6632H24.3904ZM24.8904 1.40649C24.8904 1.13035 24.6666 0.906494 24.3904 0.906494C24.1143 0.906494 23.8904 1.13035 23.8904 1.40649H24.8904ZM1 89.6632V90.1632H24.3904V89.6632V89.1632H1V89.6632ZM24.3904 89.6632H24.8904V1.40649H24.3904H23.8904V89.6632H24.3904Z"/>
</svg>
