<svg width="18" height="18" viewBox="0 0 18 18" fill="none" xmlns="http://www.w3.org/2000/svg">
<path fill-rule="evenodd" clip-rule="evenodd" d="M1.5 9C1.5 5.27208 4.40388 2.25 7.986 2.25C11.1095 2.25 13.7173 4.54772 14.3339 7.6076L15.2965 5.69614L15.3519 5.6049C15.5362 5.34974 15.8766 5.26421 16.1576 5.4179C16.4698 5.58867 16.5905 5.99011 16.4272 6.31455L14.0559 11.0239L10.2681 7.63902L10.1877 7.55307C9.99675 7.30844 9.99478 6.94981 10.1985 6.70281L10.2809 6.61935C10.5156 6.4213 10.8603 6.42013 11.0982 6.63273L13.173 8.48671C12.9246 5.73289 10.6971 3.57787 7.986 3.57787C5.10856 3.57787 2.77593 6.00544 2.77593 9C2.77593 11.9946 5.10856 14.4221 7.986 14.4221C8.33834 14.4221 8.62397 14.7194 8.62397 15.0861C8.62397 15.4527 8.33834 15.75 7.986 15.75C4.40388 15.75 1.5 12.7279 1.5 9Z" fill="#2C304E"/>
</svg>
