<svg width="24" height="24" viewBox="0 0 24 24" fill="none" xmlns="http://www.w3.org/2000/svg">
<path fill-rule="evenodd" clip-rule="evenodd" d="M16.8396 5.79644C17.2538 5.79644 17.5896 6.13223 17.5896 6.54644V20.1642C17.5896 20.5784 17.2538 20.9142 16.8396 20.9142C16.4254 20.9142 16.0896 20.5784 16.0896 20.1642V6.54644C16.0896 6.13223 16.4254 5.79644 16.8396 5.79644Z" fill="black"/>
<path fill-rule="evenodd" clip-rule="evenodd" d="M12.2326 15.5366C12.5262 15.2443 13.0011 15.2454 13.2933 15.539L16.8395 19.1017L20.3857 15.539C20.6779 15.2454 21.1528 15.2443 21.4464 15.5366C21.7399 15.8288 21.741 16.3036 21.4488 16.5972L17.371 20.6939C17.2303 20.8353 17.0391 20.9142 16.8396 20.9142C16.6401 20.9142 16.4487 20.8353 16.3079 20.6939L12.2302 16.5972C11.9379 16.3036 11.939 15.8288 12.2326 15.5366Z" fill="black"/>
<path fill-rule="evenodd" clip-rule="evenodd" d="M6.91116 3.08289C7.32538 3.08289 7.66116 3.41867 7.66116 3.83289V17.4507C7.66116 17.8649 7.32538 18.2007 6.91116 18.2007C6.49695 18.2007 6.16116 17.8649 6.16116 17.4507V3.83289C6.16116 3.41867 6.49695 3.08289 6.91116 3.08289Z" fill="black"/>
<path fill-rule="evenodd" clip-rule="evenodd" d="M6.91116 3.08289C7.11068 3.08289 7.30208 3.16182 7.44283 3.30323L11.5206 7.39989C11.8128 7.69346 11.8117 8.16834 11.5182 8.46055C11.2246 8.75277 10.7497 8.75167 10.4575 8.4581L6.91127 4.89545L3.36505 8.4581C3.07283 8.75167 2.59796 8.75277 2.30439 8.46055C2.01082 8.16834 2.00973 7.69346 2.30194 7.39989L6.37972 3.30323C6.52047 3.16182 6.71165 3.08289 6.91116 3.08289Z" fill="black"/>
</svg>
