<svg viewBox="0 0 28 28" fill="none" xmlns="http://www.w3.org/2000/svg">
<path d="M0 14C0 6.26801 6.26801 0 14 0C21.732 0 28 6.26801 28 14C28 21.732 21.732 28 14 28C6.26801 28 0 21.732 0 14Z" fill="black" fill-opacity="0.2"/>
<path opacity="0.8" d="M9.19295 6.38753C9.41659 6.12661 9.7906 6.07076 10.0771 6.23828L10.18 6.3116L17.4424 12.5365C18.164 13.155 18.2475 14.2414 17.629 14.963L17.5393 15.0599L17.4424 15.1496L10.18 21.3746C9.88645 21.6262 9.44454 21.5922 9.19295 21.2986C8.96931 21.0377 8.97132 20.6596 9.18068 20.402L9.26887 20.3116L16.5313 14.0867C16.5438 14.076 16.5554 14.0643 16.5661 14.0519C16.6622 13.9398 16.6674 13.7804 16.5886 13.6637L16.5313 13.5995L9.26887 7.37456C8.97534 7.12296 8.94135 6.68105 9.19295 6.38753Z" fill="white"/>
</svg>
