<svg width="100%" height="100%" viewBox="0 0 12 12" fill="none" xmlns="http://www.w3.org/2000/svg">
<path d="M2.16251 6.52C1.92955 6.55208 1.75 6.75473 1.75 6.99994C1.75 7.26744 1.96368 7.48429 2.22727 7.48429H10.6166L7.58607 10.5474L7.53975 10.6017C7.40073 10.791 7.41558 11.0601 7.58467 11.2324C7.77067 11.422 8.07287 11.4226 8.25964 11.2338L12.1028 7.34974C12.1257 7.3275 12.1464 7.30296 12.1646 7.27651C12.2947 7.08736 12.2764 6.82496 12.1096 6.65645L8.25961 2.76613L8.20598 2.71935C8.01884 2.57906 7.75372 2.59528 7.58465 2.7676C7.39866 2.95716 7.39931 3.26384 7.5861 3.45258L10.6174 6.51558H2.22727L2.16251 6.52Z" fill="white"/>
</svg>
