<svg width="24" height="24" viewBox="0 0 24 24" fill="none" xmlns="http://www.w3.org/2000/svg">
<path d="M11.1771 20.2928C11.2321 20.6922 11.5795 21 11.9999 21C12.4585 21 12.8302 20.6337 12.8302 20.1818V5.80004L18.0813 10.9953L18.1743 11.0747C18.4989 11.313 18.9602 11.2875 19.2556 10.9977C19.5805 10.6788 19.5816 10.1608 19.258 9.84059L12.5996 3.25223C12.5614 3.21301 12.5194 3.17753 12.474 3.14639C12.1498 2.92334 11.6999 2.95476 11.4111 3.24064L4.74193 9.84064L4.66174 9.93258C4.42125 10.2534 4.44905 10.7079 4.74446 10.9977C5.06942 11.3166 5.59515 11.3154 5.91871 10.9952L11.1696 5.79875V20.1818L11.1771 20.2928Z" fill="black"/>
</svg>
