<svg xmlns="http://www.w3.org/2000/svg" viewBox="0 0 26 8">
  <path d="M1 3.82373C0.723858 3.82373 0.5 4.04759 0.5 4.32373C0.5 4.59987 0.723858 4.82373 1 4.82373V3.82373ZM25.3536 4.67728C25.5488 4.48202 25.5488 4.16544 25.3536 3.97018L22.1716 0.788197C21.9763 0.592934 21.6597 0.592934 21.4645 0.788197C21.2692 0.983459 21.2692 1.30004 21.4645 1.4953L24.2929 4.32373L21.4645 7.15216C21.2692 7.34742 21.2692 7.664 21.4645 7.85926C21.6597 8.05453 21.9763 8.05453 22.1716 7.85926L25.3536 4.67728ZM1 4.32373V4.82373H25V4.32373V3.82373H1V4.32373Z"/>
</svg>