<svg width="24" height="24" viewBox="0 0 24 24" fill="none" xmlns="http://www.w3.org/2000/svg">
<path d="M20.2928 12.8229C20.6922 12.7679 21 12.4205 21 12.0001C21 11.5415 20.6337 11.1698 20.1818 11.1698H5.80007L10.9953 5.91866L11.0747 5.8257C11.313 5.50114 11.2876 5.0398 10.9977 4.74441C10.6788 4.41948 10.1608 4.41839 9.84062 4.74198L3.25226 11.4004C3.21305 11.4386 3.17756 11.4806 3.14642 11.526C2.92337 11.8502 2.95479 12.3001 3.24067 12.5889L9.84067 19.2581L9.93261 19.3383C10.2534 19.5787 10.7079 19.551 10.9978 19.2555C11.3166 18.9306 11.3155 18.4049 10.9953 18.0813L5.79878 12.8304H20.1818L20.2928 12.8229Z" fill="black"/>
</svg>
