<svg viewBox="0 0 24 24" fill="none" xmlns="http://www.w3.org/2000/svg">
<path fill-rule="evenodd" clip-rule="evenodd" d="M10.4072 3.36967C11.1599 2.61691 12.2844 2.25 13.75 2.25C16.4442 2.25 17.65 4.51689 17.65 6.15V15.15C17.65 17.4991 17.1112 19.1895 16.042 20.2861C14.9676 21.388 13.4953 21.75 11.95 21.75C10.3511 21.75 8.89323 21.246 7.8424 20.1008C6.79897 18.9638 6.25 17.2958 6.25 15.15V7.05C6.25 6.63579 6.58579 6.3 7 6.3C7.41421 6.3 7.75 6.63579 7.75 7.05V15.15C7.75 17.0542 8.23603 18.3112 8.9476 19.0867C9.65177 19.854 10.6689 20.25 11.95 20.25C13.2847 20.25 14.2874 19.937 14.968 19.2389C15.6538 18.5355 16.15 17.3009 16.15 15.15V6.15C16.15 5.08311 15.3758 3.75 13.75 3.75C12.5156 3.75 11.8401 4.05809 11.4678 4.43033C11.0956 4.80257 10.9 5.36561 10.9 6.15V15.15C10.9 15.6854 11.3321 16.2 11.95 16.2C12.5679 16.2 13 15.6854 13 15.15V7.05C13 6.63579 13.3358 6.3 13.75 6.3C14.1642 6.3 14.5 6.63579 14.5 7.05V15.15C14.5 16.4146 13.4921 17.7 11.95 17.7C10.4079 17.7 9.4 16.4146 9.4 15.15V6.15C9.4 5.13439 9.65441 4.12243 10.4072 3.36967Z" fill="#161528"/>
</svg>
