<svg width="24" height="24" viewBox="0 0 24 24" xmlns="http://www.w3.org/2000/svg">
<path fill-rule="evenodd" clip-rule="evenodd" d="M10.376 3.14838C11.1683 2.37632 12.352 2 13.8947 2C16.7307 2 18 4.32502 18 6V15.2308C18 17.6401 17.4328 19.3738 16.3074 20.4985C15.1764 21.6287 13.6266 22 12 22C10.317 22 8.78234 21.483 7.67622 20.3086C6.57786 19.1423 6 17.4316 6 15.2308V6.92308C6 6.49824 6.35346 6.15385 6.78947 6.15385C7.22549 6.15385 7.57895 6.49824 7.57895 6.92308V15.2308C7.57895 17.1838 8.09056 18.4731 8.83957 19.2684C9.58081 20.0554 10.6515 20.4615 12 20.4615C13.4049 20.4615 14.4604 20.1405 15.1768 19.4245C15.8987 18.7031 16.4211 17.4368 16.4211 15.2308V6C16.4211 4.90575 15.6062 3.53846 13.8947 3.53846C12.5954 3.53846 11.8843 3.85445 11.4925 4.23624C11.1006 4.61802 10.8947 5.1955 10.8947 6V15.2308C10.8947 15.7799 11.3496 16.3077 12 16.3077C12.6504 16.3077 13.1053 15.7799 13.1053 15.2308V6.92308C13.1053 6.49824 13.4587 6.15385 13.8947 6.15385C14.3308 6.15385 14.6842 6.49824 14.6842 6.92308V15.2308C14.6842 16.5278 13.6233 17.8462 12 17.8462C10.3767 17.8462 9.31579 16.5278 9.31579 15.2308V6C9.31579 4.95835 9.58359 3.92044 10.376 3.14838Z"/>
</svg>
