<svg xmlns="http://www.w3.org/2000/svg" width="30" height="32" viewBox="0 0 30 32">
  <g fill="none" fill-rule="evenodd" stroke="#FFFFFF" transform="translate(1 1)" stroke-linecap="square">
    <path d="M.475359853 29.6681193L.475359853 17.886356.475359853 29.6681193 11.4086365 29.6681193.475359853 29.6681193zM.475359853 29.6681193L.475359853 29.8340597.475359853 29.6681193 0 29.6681193.475359853 29.6681193zM.475359853.165940329L11.4086365.165940329.475359853.165940329.475359853 11.9477037.475359853.165940329zM.475359853.165940329L.475359853 0 .475359853.165940329 0 .165940329.475359853.165940329zM27.8738144 29.6681193L27.8738144 17.886356 27.8738144 29.6681193 16.9405377 29.6681193 27.8738144 29.6681193zM27.8738144 29.6681193L27.8738144 29.8340597 27.8738144 29.6681193 28.3491742 29.6681193 27.8738144 29.6681193zM27.8738144.165940329L27.8738144 11.9477037 27.8738144.165940329 16.9405377.165940329 27.8738144.165940329zM27.8738144.165940329L27.8738144 0 27.8738144.165940329 28.3491742.165940329 27.8738144.165940329z"/>
  </g>
</svg>
