<svg width="24" height="24" viewBox="0 0 24 24" fill="none" xmlns="http://www.w3.org/2000/svg">
<path fill-rule="evenodd" clip-rule="evenodd" d="M4.76969 8.22801C4.76969 5.24099 7.67669 2 12 2C16.3233 2 19.2303 5.24099 19.2303 8.22801C19.2303 8.99432 19.3323 9.5309 19.4716 9.94353C19.6113 10.3575 19.7974 10.6755 20.0119 11.0187C20.0338 11.0538 20.0563 11.0896 20.0793 11.126C20.2749 11.4368 20.502 11.7977 20.6754 12.2314C20.8753 12.7316 21 13.3119 21 14.0656C21 14.0857 20.9991 14.1058 20.9973 14.1259C20.9265 14.9053 20.6843 15.5892 20.2235 16.159C19.7647 16.7264 19.131 17.1291 18.3669 17.4152C16.8738 17.9742 14.7408 18.1373 12 18.1373C9.26041 18.1373 7.12752 17.9769 5.63444 17.4192C4.87006 17.1337 4.23598 16.7313 3.77687 16.1632C3.31584 15.5926 3.07367 14.9074 3.00273 14.1259C3.00091 14.1058 3 14.0857 3 14.0656C3 13.3119 3.12466 12.7316 3.3246 12.2314C3.49796 11.7977 3.7251 11.4368 3.92076 11.126C3.94369 11.0896 3.9662 11.0538 3.98813 11.0187C4.20259 10.6755 4.38874 10.3575 4.52843 9.94353C4.66767 9.5309 4.76969 8.99432 4.76969 8.22801ZM12 3.39535C8.45151 3.39535 6.22915 6.04113 6.22915 8.22801C6.22915 9.11764 6.10996 9.80132 5.91738 10.372C5.72525 10.9413 5.46898 11.3696 5.24102 11.7344C5.21847 11.7704 5.1964 11.8056 5.17481 11.84C4.97295 12.1618 4.81267 12.4173 4.68789 12.7295C4.55828 13.0538 4.46279 13.4556 4.45954 14.035C4.51469 14.5938 4.6807 14.9993 4.93182 15.3101C5.1893 15.6287 5.5788 15.9004 6.16549 16.1195C7.37456 16.5711 9.25375 16.742 12 16.742C14.746 16.742 16.6256 16.5686 17.8347 16.1159C18.4216 15.8962 18.8113 15.6241 19.0689 15.3056C19.32 14.9951 19.4856 14.5909 19.5405 14.035C19.5372 13.4556 19.4417 13.0538 19.3121 12.7295C19.1873 12.4173 19.0271 12.1618 18.8252 11.84C18.8036 11.8056 18.7815 11.7704 18.759 11.7344C18.531 11.3696 18.2747 10.9413 18.0826 10.372C17.89 9.80132 17.7709 9.11764 17.7709 8.22801C17.7709 6.04113 15.5485 3.39535 12 3.39535Z" fill="currentColor"/>
<path fill-rule="evenodd" clip-rule="evenodd" d="M9.09878 19.7203C9.39855 19.4628 9.85993 19.4864 10.1293 19.773C11.1765 20.8872 12.7417 20.8767 13.782 19.7724C14.0517 19.4861 14.5131 19.463 14.8126 19.7208C15.112 19.9787 15.1362 20.4198 14.8665 20.7062C13.2522 22.4199 10.6764 22.4428 9.04371 20.7056C8.77434 20.419 8.799 19.9778 9.09878 19.7203Z" fill="currentColor"/>
</svg>
