<svg width="24" height="24" viewBox="0 0 24 24" fill="none" xmlns="http://www.w3.org/2000/svg">
<path fill-rule="evenodd" clip-rule="evenodd" d="M19.1016 8.79633C19.1016 10.0523 19.4531 10.7925 20.2265 11.6456C20.8127 12.2741 21 13.0808 21 13.956C21 14.8302 20.6959 15.6601 20.0866 16.3339C19.2889 17.1417 18.164 17.6573 17.0159 17.747C15.3522 17.8809 13.6874 17.9937 12.0005 17.9937C10.3126 17.9937 8.64887 17.9263 6.98515 17.747C5.83601 17.6573 4.71108 17.1417 3.91447 16.3339C3.30517 15.6601 3 14.8302 3 13.956C3 13.0808 3.18837 12.2741 3.77346 11.6456C4.57112 10.7925 4.89944 10.0523 4.89944 8.79633V8.3703C4.89944 6.68834 5.34353 5.58852 6.258 4.51186C7.6176 2.9417 9.79696 2 11.9532 2H12.0479C14.2504 2 16.5003 2.98702 17.8367 4.62466C18.7038 5.67916 19.1016 6.73265 19.1016 8.3703V8.79633ZM8.90154 20.0608C8.90154 19.5573 9.39087 19.3266 9.84337 19.2279C10.3727 19.1222 13.5981 19.1222 14.1274 19.2279C14.5799 19.3266 15.0692 19.5573 15.0692 20.0608C15.0429 20.5402 14.7451 20.9653 14.3336 21.2352C13.8001 21.628 13.174 21.8767 12.5194 21.9664C12.1574 22.0107 11.8017 22.0117 11.4524 21.9664C10.7968 21.8767 10.1706 21.628 9.63816 21.2342C9.22565 20.9653 8.92785 20.5402 8.90154 20.0608Z" fill="currentColor"/>
</svg>
