<svg viewBox="0 0 16 20" fill="none" xmlns="http://www.w3.org/2000/svg">
<path fill-rule="evenodd" clip-rule="evenodd" d="M2.06463 5.56962C2.06463 3.75197 3.56661 2.27848 5.4194 2.27848V3.79747C4.42175 3.79747 3.61298 4.59089 3.61298 5.56962V12.1519C3.61298 13.144 4.25928 13.9879 5.16134 14.3007V12.1519C5.16134 10.6139 6.43225 9.36709 8 9.36709C9.56775 9.36709 10.8387 10.6139 10.8387 12.1519V14.3007C11.7407 13.9879 12.387 13.144 12.387 12.1519V5.56962C12.387 4.59089 11.5783 3.79747 10.5806 3.79747V2.27848C12.4334 2.27848 13.9354 3.75197 13.9354 5.56962V12.1519C13.9354 13.9891 12.6055 15.5216 10.8387 15.8734V17.2152C10.8387 18.7532 9.56775 20 8 20C6.43225 20 5.16134 18.7532 5.16134 17.2152V15.8734C3.39448 15.5216 2.06463 13.9891 2.06463 12.1519V5.56962ZM8 10.8861C7.28739 10.8861 6.7097 11.4528 6.7097 12.1519V17.2152C6.7097 17.9143 7.28739 18.481 8 18.481C8.71261 18.481 9.2903 17.9143 9.2903 17.2152V12.1519C9.2903 11.4528 8.71261 10.8861 8 10.8861Z" fill="currentColor"/>
<path fill-rule="evenodd" clip-rule="evenodd" d="M8 4.55696C8.85513 4.55696 9.54836 3.87689 9.54836 3.03797C9.54836 2.19906 8.85513 1.51899 8 1.51899C7.14486 1.51899 6.45164 2.19906 6.45164 3.03797C6.45164 3.87689 7.14486 4.55696 8 4.55696ZM8 6.07595C9.71027 6.07595 11.0967 4.7158 11.0967 3.03797C11.0967 1.36015 9.71027 0 8 0C6.28973 0 4.90328 1.36015 4.90328 3.03797C4.90328 4.7158 6.28973 6.07595 8 6.07595Z" fill="currentColor"/>
<path fill-rule="evenodd" clip-rule="evenodd" d="M0.0151833 0.863709C0.0990361 0.452398 0.506893 0.185651 0.926157 0.267913L6.08735 1.28057L5.78369 2.77006L0.622499 1.7574C0.203235 1.67514 -0.0686695 1.27502 0.0151833 0.863709ZM15.9848 0.863709C16.0687 1.27502 15.7968 1.67514 15.3775 1.7574L10.2163 2.77006L9.91265 1.28057L15.0738 0.267913C15.4931 0.185651 15.901 0.452398 15.9848 0.863709Z" fill="currentColor"/>
</svg>
