<svg width="18" height="18" viewBox="0 0 18 18" fill="none" xmlns="http://www.w3.org/2000/svg">
<path fill-rule="evenodd" clip-rule="evenodd" d="M6.11314 2.62944C6.29167 1.96174 6.89628 1.50049 7.5843 1.50049H10.7591C11.4471 1.50049 12.0517 1.96174 12.2302 2.62944C12.2333 2.64104 12.236 2.65274 12.2384 2.66451L12.4206 3.57629C12.4836 3.89038 12.76 4.11724 13.0803 4.11724L15.531 4.11724C15.8417 4.11724 16.0935 4.36908 16.0935 4.67974C16.0935 4.9904 15.8417 5.24224 15.531 5.24224H2.8125C2.50184 5.24224 2.25 4.9904 2.25 4.67974C2.25 4.36908 2.50184 4.11724 2.8125 4.11724H5.2626C5.58286 4.11724 5.85969 3.89061 5.92271 3.57651L6.10496 2.66451C6.10731 2.65274 6.11004 2.64104 6.11314 2.62944ZM6.93025 4.11724H11.4131C11.372 4.01522 11.3397 3.90825 11.3175 3.79719L11.1395 2.90645C11.0886 2.73998 10.9348 2.62549 10.7591 2.62549H7.5843C7.40856 2.62549 7.25472 2.73998 7.20385 2.90645L7.02589 3.79697C7.00365 3.90803 6.9714 4.01522 6.93025 4.11724ZM14.5387 6.54043C14.8484 6.5654 15.0792 6.83666 15.0542 7.14632L13.9328 7.05591C13.9578 6.74625 14.2291 6.51547 14.5387 6.54043ZM14.4091 14.3422C14.3415 14.9522 14.1117 15.4916 13.692 15.8815C13.2709 16.2727 12.7143 16.4617 12.0918 16.473C10.1287 16.5084 8.16222 16.5107 6.19791 16.4692C5.58809 16.4567 5.04395 16.2611 4.63369 15.87C4.22602 15.4815 4.00028 14.9476 3.93394 14.3473C3.81419 13.266 3.65294 11.4631 3.52205 9.93635C3.4565 9.1717 3.39839 8.47426 3.35667 7.968C3.33581 7.71485 3.31904 7.50947 3.30749 7.36735L3.28959 7.14625C3.26469 6.83659 3.49554 6.56532 3.8052 6.54042C4.11486 6.51553 4.38607 6.74638 4.41097 7.05604L4.42879 7.2762C4.44032 7.41796 4.45705 7.62292 4.47787 7.8756C4.51952 8.381 4.57752 9.07716 4.64294 9.84026C4.77398 11.3689 4.93412 13.1582 5.05211 14.2234C5.09605 14.6213 5.23407 14.8881 5.40986 15.0557C5.58302 15.2207 5.84201 15.3367 6.22129 15.3445C8.16894 15.3856 10.1208 15.3833 12.0713 15.3482C12.477 15.3408 12.7484 15.2226 12.9263 15.0573C13.1056 14.8908 13.246 14.6244 13.2909 14.2182C13.4082 13.1624 13.5685 11.3743 13.6999 9.84456C13.7655 9.08094 13.8238 8.38368 13.8656 7.8773C13.8865 7.62413 13.9033 7.41871 13.9149 7.27662L13.9328 7.05591L15.0542 7.14632" fill="black"/>
</svg>
