<svg width="24" height="24" viewBox="0 0 24 24" fill="none" xmlns="http://www.w3.org/2000/svg">
<path fill-rule="evenodd" clip-rule="evenodd" d="M8.15104 3.50594C8.38908 2.61567 9.19522 2.00067 10.1126 2.00067H14.3456C15.2629 2.00067 16.0691 2.61567 16.3071 3.50594C16.3113 3.52141 16.3149 3.537 16.318 3.5527L16.561 4.7684C16.645 5.1872 17.0136 5.48967 17.4406 5.48967L20.7082 5.48967C21.1224 5.48967 21.4582 5.82546 21.4582 6.23967C21.4582 6.65389 21.1224 6.98967 20.7082 6.98967H3.75018C3.33597 6.98967 3.00018 6.65389 3.00018 6.23967C3.00018 5.82546 3.33597 5.48967 3.75018 5.48967H7.01698C7.44399 5.48967 7.81311 5.1875 7.89712 4.7687L8.14012 3.5527C8.14326 3.537 8.1469 3.52141 8.15104 3.50594ZM9.24052 5.48967H15.2176C15.1628 5.35365 15.1198 5.21102 15.0902 5.06294L14.8528 3.87529C14.785 3.65333 14.5799 3.50067 14.3456 3.50067H10.1126C9.87827 3.50067 9.67314 3.65332 9.60532 3.87528L9.36804 5.06264C9.33839 5.21072 9.29538 5.35365 9.24052 5.48967ZM19.3852 8.7206C19.798 8.75389 20.1057 9.11557 20.0725 9.52844L18.5773 9.4079C18.6106 8.99503 18.9723 8.68731 19.3852 8.7206ZM19.2123 19.1229C19.1222 19.9362 18.8158 20.6555 18.2562 21.1754C17.6948 21.697 16.9525 21.9489 16.1226 21.964C13.5052 22.0112 10.8831 22.0142 8.26407 21.959C7.45096 21.9423 6.72545 21.6814 6.17844 21.1601C5.63488 20.642 5.33389 19.9302 5.24544 19.1297C5.08576 17.6881 4.87076 15.2842 4.69625 13.2485C4.60885 12.2289 4.53137 11.299 4.47574 10.624C4.44793 10.2865 4.42558 10.0127 4.41017 9.82315L4.3863 9.52836C4.35311 9.11548 4.6609 8.75378 5.07378 8.72058C5.48666 8.68739 5.84828 8.99519 5.88147 9.40807L5.90524 9.70162C5.9206 9.89063 5.94291 10.1639 5.97068 10.5008C6.02621 11.1747 6.10354 12.1029 6.19077 13.1204C6.36549 15.1585 6.579 17.5443 6.73632 18.9646C6.79491 19.4951 6.97894 19.8509 7.21332 20.0743C7.44421 20.2943 7.78952 20.449 8.29523 20.4593C10.8921 20.5141 13.4946 20.5111 16.0952 20.4643C16.6362 20.4544 16.998 20.2969 17.2353 20.0764C17.4744 19.8544 17.6615 19.4993 17.7214 18.9577C17.8777 17.5499 18.0915 15.1657 18.2668 13.1261C18.3542 12.1079 18.4319 11.1783 18.4877 10.5031C18.5156 10.1655 18.538 9.89164 18.5534 9.70218L18.5773 9.4079L20.0725 9.52844" fill="currentColor"/>
</svg>
