<svg viewBox="0 0 20 20" fill="none" xmlns="http://www.w3.org/2000/svg">
<path fill-rule="evenodd" clip-rule="evenodd" d="M11.3953 1.39535C10.7532 1.39535 10.2326 1.91595 10.2326 2.55814V18.6047H12.093V15.3488C12.093 14.0645 13.1342 13.0233 14.4186 13.0233C15.703 13.0233 16.7442 14.0645 16.7442 15.3488V18.6047H17.4419C18.0841 18.6047 18.6047 18.0841 18.6047 17.4419V2.55814C18.6047 1.91595 18.0841 1.39535 17.4419 1.39535H11.3953ZM15.3488 18.6047V15.3488C15.3488 14.8351 14.9324 14.4186 14.4186 14.4186C13.9049 14.4186 13.4884 14.8351 13.4884 15.3488V18.6047H15.3488ZM8.83721 18.6047V5.68873H2.55814C1.91595 5.68873 1.39535 6.20933 1.39535 6.85152V17.4419C1.39535 18.0841 1.91595 18.6047 2.55814 18.6047H3.25581V15.3488C3.25581 14.0645 4.29701 13.0233 5.5814 13.0233C6.86578 13.0233 7.90698 14.0645 7.90698 15.3488V18.6047H8.83721ZM6.51163 18.6047V15.3488C6.51163 14.8351 6.09515 14.4186 5.5814 14.4186C5.06764 14.4186 4.65116 14.8351 4.65116 15.3488V18.6047H6.51163ZM8.83721 4.29338H2.55814C1.14532 4.29338 0 5.4387 0 6.85152V17.4419C0 18.8547 1.14532 20 2.55814 20H17.4419C18.8547 20 20 18.8547 20 17.4419V2.55814C20 1.14532 18.8547 0 17.4419 0H11.3953C9.98253 0 8.83721 1.14532 8.83721 2.55814V4.29338ZM12.093 3.95349C12.093 3.56817 12.4054 3.25581 12.7907 3.25581H16.0465C16.4318 3.25581 16.7442 3.56817 16.7442 3.95349C16.7442 4.3388 16.4318 4.65116 16.0465 4.65116H12.7907C12.4054 4.65116 12.093 4.3388 12.093 3.95349ZM12.093 7.2093C12.093 6.82399 12.4054 6.51163 12.7907 6.51163H16.0465C16.4318 6.51163 16.7442 6.82399 16.7442 7.2093C16.7442 7.59462 16.4318 7.90698 16.0465 7.90698H12.7907C12.4054 7.90698 12.093 7.59462 12.093 7.2093ZM3.25581 9.76744C3.25581 8.48306 4.29701 7.44186 5.5814 7.44186C6.86578 7.44186 7.90698 8.48306 7.90698 9.76744C7.90698 11.0518 6.86578 12.093 5.5814 12.093C4.29701 12.093 3.25581 11.0518 3.25581 9.76744ZM5.5814 8.83721C5.06764 8.83721 4.65116 9.25369 4.65116 9.76744C4.65116 10.2812 5.06764 10.6977 5.5814 10.6977C6.09515 10.6977 6.51163 10.2812 6.51163 9.76744C6.51163 9.25369 6.09515 8.83721 5.5814 8.83721ZM12.093 10.9302C12.093 10.5449 12.4054 10.2326 12.7907 10.2326H16.0465C16.4318 10.2326 16.7442 10.5449 16.7442 10.9302C16.7442 11.3155 16.4318 11.6279 16.0465 11.6279H12.7907C12.4054 11.6279 12.093 11.3155 12.093 10.9302Z" fill="currentColor"/>
</svg>
