<svg width="24" height="24" viewBox="0 0 24 24" fill="none" xmlns="http://www.w3.org/2000/svg">
<path fill-rule="evenodd" clip-rule="evenodd" d="M13.3953 3.39535C12.7532 3.39535 12.2326 3.91595 12.2326 4.55814V20.6047H14.093V17.3488C14.093 16.0645 15.1342 15.0233 16.4186 15.0233C17.703 15.0233 18.7442 16.0645 18.7442 17.3488V20.6047H19.4419C20.0841 20.6047 20.6047 20.0841 20.6047 19.4419V4.55814C20.6047 3.91595 20.0841 3.39535 19.4419 3.39535H13.3953ZM17.3488 20.6047V17.3488C17.3488 16.8351 16.9324 16.4186 16.4186 16.4186C15.9049 16.4186 15.4884 16.8351 15.4884 17.3488V20.6047H17.3488ZM10.8372 20.6047V7.68873H4.55814C3.91595 7.68873 3.39535 8.20933 3.39535 8.85152V19.4419C3.39535 20.0841 3.91595 20.6047 4.55814 20.6047H5.25581V17.3488C5.25581 16.0645 6.29701 15.0233 7.5814 15.0233C8.86578 15.0233 9.90698 16.0645 9.90698 17.3488V20.6047H10.8372ZM8.51163 20.6047V17.3488C8.51163 16.8351 8.09515 16.4186 7.5814 16.4186C7.06764 16.4186 6.65116 16.8351 6.65116 17.3488V20.6047H8.51163ZM10.8372 6.29338H4.55814C3.14532 6.29338 2 7.4387 2 8.85152V19.4419C2 20.8547 3.14532 22 4.55814 22H19.4419C20.8547 22 22 20.8547 22 19.4419V4.55814C22 3.14532 20.8547 2 19.4419 2H13.3953C11.9825 2 10.8372 3.14532 10.8372 4.55814V6.29338ZM14.093 5.95349C14.093 5.56817 14.4054 5.25581 14.7907 5.25581H18.0465C18.4318 5.25581 18.7442 5.56817 18.7442 5.95349C18.7442 6.3388 18.4318 6.65116 18.0465 6.65116H14.7907C14.4054 6.65116 14.093 6.3388 14.093 5.95349ZM14.093 9.2093C14.093 8.82399 14.4054 8.51163 14.7907 8.51163H18.0465C18.4318 8.51163 18.7442 8.82399 18.7442 9.2093C18.7442 9.59462 18.4318 9.90698 18.0465 9.90698H14.7907C14.4054 9.90698 14.093 9.59462 14.093 9.2093ZM5.25581 11.7674C5.25581 10.4831 6.29701 9.44186 7.5814 9.44186C8.86578 9.44186 9.90698 10.4831 9.90698 11.7674C9.90698 13.0518 8.86578 14.093 7.5814 14.093C6.29701 14.093 5.25581 13.0518 5.25581 11.7674ZM7.5814 10.8372C7.06764 10.8372 6.65116 11.2537 6.65116 11.7674C6.65116 12.2812 7.06764 12.6977 7.5814 12.6977C8.09515 12.6977 8.51163 12.2812 8.51163 11.7674C8.51163 11.2537 8.09515 10.8372 7.5814 10.8372ZM14.093 12.9302C14.093 12.5449 14.4054 12.2326 14.7907 12.2326H18.0465C18.4318 12.2326 18.7442 12.5449 18.7442 12.9302C18.7442 13.3155 18.4318 13.6279 18.0465 13.6279H14.7907C14.4054 13.6279 14.093 13.3155 14.093 12.9302Z" fill="currentColor"/>
</svg>
