<svg viewBox="0 0 52 52" fill="none" xmlns="http://www.w3.org/2000/svg">
<rect width="52" height="52" rx="8" fill="black" fill-opacity="0.3"/>
<path fill-rule="evenodd" clip-rule="evenodd" d="M34 14H33.9991L21.9215 14.0142C20.339 14.0061 19.3916 14.965 18.8818 15.9835C18.5053 16.7356 18.3362 17.5657 18.2767 18.2071C16.25 19.0591 15 21.044 15 23.666V31.834C15 35.372 17.276 37.75 20.665 37.75H29.333C32.1942 37.75 34.2626 36.056 34.8382 33.4003C35.6947 33.1886 36.335 32.6652 36.7827 32.0813C37.3515 31.3394 37.6407 30.4678 37.7398 29.8733L37.75 29.8121V29.75V18.75C37.75 17.1319 37.345 15.9289 36.62 15.1233C35.8883 14.3103 34.9187 14 34 14ZM35 31.7217C35.2284 31.5789 35.4236 31.3887 35.5923 31.1687C35.964 30.6839 36.1729 30.0896 36.25 29.6839V18.75C36.25 17.3681 35.905 16.5711 35.505 16.1267C35.1118 15.6898 34.5816 15.5001 34.0004 15.5L34 15.5L21.9207 15.5142L21.9154 15.5142C21.0797 15.5093 20.568 15.966 20.2232 16.6549C20.0411 17.0187 19.9221 17.4226 19.849 17.798C20.1129 17.7662 20.3852 17.75 20.665 17.75H29.334C32.723 17.75 35 20.128 35 23.666V31.7217ZM16.5 23.666C16.5 20.983 18.135 19.25 20.665 19.25H29.334C31.864 19.25 33.5 20.983 33.5 23.666V31.834C33.5 34.517 31.864 36.25 29.333 36.25H20.665C18.135 36.25 16.5 34.517 16.5 31.834V23.666Z" fill="white"/>
</svg>
