<svg width="24" height="24" viewBox="0 0 24 24" fill="none" xmlns="http://www.w3.org/2000/svg">
<path fill-rule="evenodd" clip-rule="evenodd" d="M4.84615 4.5C4.84615 3.11929 5.98266 2 7.38462 2H16.6154C18.0173 2 19.1538 3.11929 19.1538 4.5V5.12667L20.2565 6.21262C20.7326 6.68146 21 7.31735 21 7.98039V9.95455C21 10.3311 20.69 10.6364 20.3077 10.6364C19.9253 10.6364 19.6154 10.3311 19.6154 9.95455V7.98039C19.6154 7.67901 19.4938 7.38997 19.2774 7.17686L19.1538 7.05515V17.6818C19.1538 18.5724 18.5759 19.3301 17.7692 19.6109V19.7273C17.7692 20.9825 16.736 22 15.4615 22C14.187 22 13.1538 20.9825 13.1538 19.7273H10.8462C10.8462 20.9825 9.81296 22 8.53846 22C7.26396 22 6.23077 20.9825 6.23077 19.7273V19.6109C5.4241 19.3301 4.84615 18.5724 4.84615 17.6818V7.05515L4.72257 7.17686C4.50618 7.38997 4.38462 7.67901 4.38462 7.98039V9.95455C4.38462 10.3311 4.07466 10.6364 3.69231 10.6364C3.30996 10.6364 3 10.3311 3 9.95455V7.98039C3 7.31735 3.26744 6.68146 3.7435 6.21262L4.84615 5.12667V4.5ZM6.23077 6.09091V12H11.3077V6.09091H6.23077ZM12.6923 6.09091V12H17.7692V6.09091H12.6923ZM17.7692 4.72727H6.23077V4.5C6.23077 3.8724 6.74736 3.36364 7.38462 3.36364H16.6154C17.2526 3.36364 17.7692 3.8724 17.7692 4.5V4.72727ZM17.7692 13.3636H6.23077V17.6818C6.23077 18.0584 6.54073 18.3636 6.92308 18.3636H17.0769C17.4593 18.3636 17.7692 18.0584 17.7692 17.6818V13.3636ZM7.61538 19.7273C7.61538 20.2293 8.02866 20.6364 8.53846 20.6364C9.04826 20.6364 9.46154 20.2293 9.46154 19.7273H7.61538ZM14.5385 19.7273C14.5385 20.2293 14.9517 20.6364 15.4615 20.6364C15.9713 20.6364 16.3846 20.2293 16.3846 19.7273H14.5385ZM7.61538 15.4091C7.61538 15.0325 7.92534 14.7273 8.30769 14.7273H10.1538C10.5362 14.7273 10.8462 15.0325 10.8462 15.4091C10.8462 15.7856 10.5362 16.0909 10.1538 16.0909H8.30769C7.92534 16.0909 7.61538 15.7856 7.61538 15.4091ZM13.1538 15.4091C13.1538 15.0325 13.4638 14.7273 13.8462 14.7273H15.6923C16.0747 14.7273 16.3846 15.0325 16.3846 15.4091C16.3846 15.7856 16.0747 16.0909 15.6923 16.0909H13.8462C13.4638 16.0909 13.1538 15.7856 13.1538 15.4091Z" fill="currentColor"/>
</svg>
