<svg xmlns="http://www.w3.org/2000/svg" viewBox="0 0 258 258">
  <g>
    <circle cx="129" cy="129" r="129" />
    <circle cx="129" cy="129" r="119.5" fill="#FFF"/>
    <path  d="M102.8,189.5 C98.5,189.5 94.1,189.5 89.8,189.5 C88.5,188.9 87.8,187.9 87.9,186.4 C87.9,185.7 87.9,184.9 87.9,184.2 C87.9,182.2 87.9,180.3 87.9,178.3 C87.3,178.3 86.9,178.2 86.5,178.2 C81.8,177.9 78.4,174.5 78.2,169.8 C78.1,167.4 78.1,165.1 78.2,162.7 C78.3,160.8 79.1,159.2 80.3,157.7 C80.7,157.2 81,156.5 81,156 C81,143.6 81,131.2 81,118.8 C81,118.4 81,118 81,117.5 C79.5,117.5 78.2,117.5 76.9,117.5 C74.4,117.5 73.1,116.3 73.1,113.7 C73.1,107.9 73.1,102.1 73.1,96.3 C73.1,93.8 74.3,92.6 76.9,92.5 C78.2,92.5 79.6,92.5 81,92.5 C81,89.9 81,87.4 81,84.9 C81,83.6 81.1,82.2 81.4,80.9 C83.2,73.3 89.4,68.5 97.4,68.5 C118.5,68.5 139.5,68.5 160.6,68.5 C161.9,68.5 163.2,68.6 164.5,68.9 C172,70.6 176.9,76.8 177,84.5 C177,87.1 177,89.8 177,92.6 C178.5,92.6 179.8,92.6 181.2,92.6 C183.6,92.6 184.8,93.9 184.9,96.3 C184.9,102.2 184.9,108 184.9,113.9 C184.9,116.3 183.6,117.6 181.1,117.6 C179.8,117.6 178.4,117.6 177.1,117.6 C177.1,118 177,118.3 177,118.5 C177,131.1 177,143.7 177,156.3 C177,156.8 177.3,157.4 177.6,157.7 C178.9,159.2 179.8,161 179.8,163 C179.9,165.4 179.9,167.8 179.8,170.2 C179.6,174.5 176.1,177.9 171.8,178.2 C171.3,178.2 170.7,178.3 170.1,178.3 C170.1,181 170,183.5 170.1,186.1 C170.1,187.7 169.6,188.8 168.2,189.5 C163.9,189.5 159.5,189.5 155.2,189.5 C153.7,188.8 153.2,187.7 153.3,186.1 C153.4,183.5 153.3,180.9 153.3,178.3 C137,178.3 120.9,178.3 104.7,178.3 C104.7,181 104.6,183.5 104.7,186.1 C104.8,187.7 104.2,188.8 102.8,189.5 Z M124.6,132.8 C124.6,119.7 124.6,106.8 124.6,93.8 C113.3,93.8 102.2,93.8 90.9,93.8 C90.9,106.8 90.9,119.8 90.9,132.8 C102.1,132.8 113.3,132.8 124.6,132.8 Z M133.4,132.8 C144.6,132.8 155.8,132.8 167.1,132.8 C167.1,119.8 167.1,106.8 167.1,93.9 C155.8,93.9 144.6,93.9 133.4,93.9 C133.4,106.9 133.4,119.7 133.4,132.8 Z M129,85.3 C134.5,85.3 140,85.3 145.5,85.3 C147.4,85.3 148.9,84.5 149.7,82.8 C151,80 149,76.9 145.8,76.9 C142.1,76.8 138.5,76.9 134.8,76.9 C127.4,76.9 120,76.9 112.6,76.9 C110.7,76.9 109.1,77.6 108.3,79.4 C107,82.3 109.1,85.3 112.4,85.3 C117.9,85.3 123.5,85.3 129,85.3 Z M98.3,154.5 C99.5,154.5 100.7,154.5 101.8,154.5 C104,154.4 105.7,153 105.9,150.8 C106,149 106,147.1 105.9,145.3 C105.7,143.1 104.1,141.6 101.9,141.6 C99.5,141.5 97.2,141.5 94.8,141.6 C92.5,141.7 90.9,143.3 90.7,145.6 C90.6,147.2 90.6,148.9 90.7,150.6 C90.8,153 92.6,154.6 94.9,154.6 C96.1,154.5 97.2,154.5 98.3,154.5 Z M159.6,154.5 C160.7,154.5 161.9,154.5 163,154.5 C165.3,154.4 167.1,152.8 167.2,150.5 C167.3,148.8 167.3,147.1 167.2,145.4 C167.1,143.2 165.4,141.6 163.2,141.5 C160.8,141.4 158.4,141.4 156,141.5 C153.9,141.6 152.2,143.1 152.1,145.2 C152,147 152,148.9 152.1,150.7 C152.3,152.9 154,154.4 156.2,154.4 C157.4,154.6 158.5,154.5 159.6,154.5 Z"/>
  </g>
</svg>
