<svg width="24" height="24" viewBox="0 0 24 24" fill="none" xmlns="http://www.w3.org/2000/svg">
<path fill-rule="evenodd" clip-rule="evenodd" d="M3.08551 9.58535C3.08551 9.20004 3.39547 8.88768 3.77782 8.88768H20.2307C20.613 8.88768 20.923 9.20004 20.923 9.58535C20.923 9.97067 20.613 10.283 20.2307 10.283H3.77782C3.39547 10.283 3.08551 9.97067 3.08551 9.58535Z" fill="currentColor"/>
<path fill-rule="evenodd" clip-rule="evenodd" d="M15.4081 13.2183C15.4081 12.833 15.718 12.5206 16.1004 12.5206H16.1089C16.4913 12.5206 16.8012 12.833 16.8012 13.2183C16.8012 13.6036 16.4913 13.916 16.1089 13.916H16.1004C15.718 13.916 15.4081 13.6036 15.4081 13.2183Z" fill="currentColor"/>
<path fill-rule="evenodd" clip-rule="evenodd" d="M11.312 13.2183C11.312 12.833 11.6219 12.5206 12.0043 12.5206H12.0128C12.3952 12.5206 12.7051 12.833 12.7051 13.2183C12.7051 13.6036 12.3952 13.916 12.0128 13.916H12.0043C11.6219 13.916 11.312 13.6036 11.312 13.2183Z" fill="currentColor"/>
<path fill-rule="evenodd" clip-rule="evenodd" d="M7.20728 13.2183C7.20728 12.833 7.51724 12.5206 7.89959 12.5206H7.90814C8.29049 12.5206 8.60045 12.833 8.60045 13.2183C8.60045 13.6036 8.29049 13.916 7.90814 13.916H7.89959C7.51724 13.916 7.20728 13.6036 7.20728 13.2183Z" fill="currentColor"/>
<path fill-rule="evenodd" clip-rule="evenodd" d="M15.4081 16.8337C15.4081 16.4484 15.718 16.136 16.1004 16.136H16.1089C16.4913 16.136 16.8012 16.4484 16.8012 16.8337C16.8012 17.219 16.4913 17.5314 16.1089 17.5314H16.1004C15.718 17.5314 15.4081 17.219 15.4081 16.8337Z" fill="currentColor"/>
<path fill-rule="evenodd" clip-rule="evenodd" d="M11.312 16.8337C11.312 16.4484 11.6219 16.136 12.0043 16.136H12.0128C12.3952 16.136 12.7051 16.4484 12.7051 16.8337C12.7051 17.219 12.3952 17.5314 12.0128 17.5314H12.0043C11.6219 17.5314 11.312 17.219 11.312 16.8337Z" fill="currentColor"/>
<path fill-rule="evenodd" clip-rule="evenodd" d="M7.20728 16.8337C7.20728 16.4484 7.51724 16.136 7.89959 16.136H7.90814C8.29049 16.136 8.60045 16.4484 8.60045 16.8337C8.60045 17.219 8.29049 17.5314 7.90814 17.5314H7.89959C7.51724 17.5314 7.20728 17.219 7.20728 16.8337Z" fill="currentColor"/>
<path fill-rule="evenodd" clip-rule="evenodd" d="M15.7327 2C16.115 2 16.425 2.31236 16.425 2.69767V5.75887C16.425 6.14418 16.115 6.45654 15.7327 6.45654C15.3503 6.45654 15.0404 6.14418 15.0404 5.75887V2.69767C15.0404 2.31236 15.3503 2 15.7327 2Z" fill="currentColor"/>
<path fill-rule="evenodd" clip-rule="evenodd" d="M8.27585 2C8.6582 2 8.96816 2.31236 8.96816 2.69767V5.75887C8.96816 6.14418 8.6582 6.45654 8.27585 6.45654C7.8935 6.45654 7.58355 6.14418 7.58355 5.75887V2.69767C7.58355 2.31236 7.8935 2 8.27585 2Z" fill="currentColor"/>
<path fill-rule="evenodd" clip-rule="evenodd" d="M4.40076 4.77159C5.32536 3.88585 6.61617 3.46902 8.09627 3.46902H15.9122C17.396 3.46902 18.6876 3.88553 19.6106 4.77227C20.5388 5.66397 21.0044 6.94473 21 8.48676V16.9744C21 18.5165 20.532 19.7986 19.6035 20.692C18.6799 21.5806 17.3886 22 15.9037 22H8.09627C6.61201 22 5.31972 21.572 4.39592 20.6697C3.46868 19.764 3 18.4658 3 16.9041V8.48579C3 6.94269 3.4708 5.66246 4.40076 4.77159ZM5.35473 5.78292C4.7604 6.35227 4.38462 7.23159 4.38462 8.48579V16.9041C4.38462 18.1836 4.76252 19.0845 5.35957 19.6677C5.96006 20.2542 6.86974 20.6047 8.09627 20.6047H15.9037C17.1381 20.6047 18.0488 20.2587 18.6473 19.6828C19.241 19.1115 19.6154 18.2297 19.6154 16.9744V8.48579L19.6154 8.48364C19.6192 7.2289 19.2468 6.35054 18.6552 5.78224C18.0583 5.20875 17.1478 4.86437 15.9122 4.86437H8.09627C6.86559 4.86437 5.95441 5.20844 5.35473 5.78292Z" fill="currentColor"/>
</svg>
