<svg xmlns="http://www.w3.org/2000/svg">
<path fill-rule="evenodd" clip-rule="evenodd" d="M5.37744 6.23211C5.37988 6.23211 5.31891 6.29552 5.24208 6.37113C4.94696 6.65772 4.33599 7.25405 4.3299 8.50161C4.32014 10.2467 5.46769 13.4869 10.9932 19.0113C16.4932 24.5088 19.7285 25.6698 21.4772 25.6698H21.5028C22.7504 25.6637 23.3455 25.0515 23.6333 24.7576C23.7211 24.6673 23.7918 24.6015 23.8418 24.56C25.0565 23.3381 25.6784 22.4283 25.6723 21.8454C25.6638 21.2503 24.9235 20.5466 23.9004 19.5735C23.5748 19.2637 23.2211 18.9271 22.8479 18.554C21.8809 17.5893 21.4016 17.754 20.348 18.1247C18.8907 18.6357 16.8907 19.3308 13.7834 16.2223C10.6713 13.1125 11.3676 11.115 11.8774 9.65769C12.2456 8.60404 12.4139 8.12356 11.4457 7.15527C11.0664 6.77723 10.7262 6.41869 10.4127 6.08943C9.44568 5.07236 8.74813 4.337 8.15668 4.32847H8.14692C7.56278 4.32847 6.65548 4.95285 5.37135 6.23699C5.37501 6.23333 5.37744 6.23211 5.37744 6.23211ZM21.4785 27.499C18.4395 27.499 14.4773 25.0795 9.70056 20.3052C4.9055 15.5113 2.48236 11.5369 2.50065 8.49185C2.51163 6.47967 3.56649 5.44919 3.96283 5.06261C3.98356 5.037 4.05429 4.96748 4.07868 4.94309C5.82744 3.19311 7.00669 2.4858 8.17985 2.49921C9.54202 2.5175 10.5115 3.53701 11.7383 4.82846C12.042 5.14797 12.3713 5.49553 12.7383 5.86138C14.5188 7.64186 14.0115 9.09428 13.6042 10.2601C13.1603 11.5321 12.7761 12.6296 15.0761 14.9296C17.3785 17.2296 18.4761 16.8454 19.7431 16.3979C20.9102 15.9906 22.3589 15.4808 24.1418 17.2613C24.5028 17.6223 24.8455 17.9479 25.1613 18.2491C26.4589 19.482 27.4833 20.4564 27.5003 21.8222C27.515 22.9869 26.8077 24.1734 25.0613 25.921L24.2882 25.3966L24.9418 26.0356C24.5552 26.432 23.526 27.488 21.5126 27.499H21.4785Z" fill="currentColor"/>
</svg>
