<svg width="24" height="24" viewBox="0 0 24 24" fill="none" xmlns="http://www.w3.org/2000/svg">
<path fill-rule="evenodd" clip-rule="evenodd" d="M7.194 4.85028C7.59595 4.11227 8.03322 3.61892 8.68207 3.35802C9.87107 2.8804 14.1295 2.8804 15.3175 3.35812C15.966 3.61888 16.4035 4.11214 16.8057 4.85L17.2579 5.72603C17.2683 5.74339 17.2778 5.75865 17.2863 5.77179L17.3247 5.82483C17.5308 6.05163 17.8756 6.18865 18.1032 6.18865C20.2552 6.18865 22.0002 7.95111 22.0002 10.1246V15.9789C22.0002 18.7512 19.7744 20.9998 17.0302 20.9998H6.97018C4.22529 20.9998 2.00018 18.7516 2.00018 15.9789V10.1246C2.00018 7.95111 3.74516 6.18865 5.89718 6.18865C6.12396 6.18865 6.46926 6.05143 6.67562 5.82483C6.67975 5.82029 6.68513 5.81354 6.69163 5.80459L6.74306 5.7249L7.194 4.85028ZM15.4918 5.58107C15.2419 5.12258 15.016 4.86785 14.7628 4.76606L14.6435 4.72598C13.6144 4.43212 10.0346 4.44548 9.23654 4.76606C8.98352 4.86779 8.75787 5.12239 8.5082 5.58079L8.12334 6.33251L8.02861 6.50569C7.94954 6.63857 7.87045 6.75073 7.78013 6.85015C7.27367 7.40629 6.52443 7.70401 5.89718 7.70401L5.73309 7.7096C4.48593 7.79479 3.50018 8.84379 3.50018 10.1246V15.9789C3.50018 17.9147 5.05377 19.4845 6.97018 19.4845H17.0302C18.946 19.4845 20.5002 17.9143 20.5002 15.9789V10.1246C20.5002 8.7881 19.4269 7.70401 18.1032 7.70401L17.9291 7.69666C17.3405 7.64774 16.6795 7.35564 16.2196 6.84948C16.1305 6.75138 16.0518 6.64001 15.9732 6.50826C15.962 6.48936 15.9479 6.46448 15.9318 6.43503L15.8157 6.21506L15.4918 5.58107Z" fill="currentColor"/>
<path d="M17.5045 8.55635C18.0568 8.55635 18.5045 9.00866 18.5045 9.5666C18.5045 10.0847 18.1184 10.5117 17.6211 10.57L17.5045 10.5768C16.9432 10.5768 16.4955 10.1245 16.4955 9.5666C16.4955 9.04851 16.8815 8.62151 17.3789 8.56315L17.5045 8.55635Z" fill="currentColor"/>
<path fill-rule="evenodd" clip-rule="evenodd" d="M8.07088 13.2318C8.07088 11.0393 9.82967 9.26251 11.9999 9.26251C14.1701 9.26251 15.9289 11.0393 15.9289 13.2318C15.9289 15.4242 14.1701 17.201 11.9999 17.201C9.82967 17.201 8.07088 15.4242 8.07088 13.2318ZM14.4289 13.2318C14.4289 11.8762 13.3417 10.7779 11.9999 10.7779C10.6581 10.7779 9.57088 11.8762 9.57088 13.2318C9.57088 14.5873 10.6581 15.6856 11.9999 15.6856C13.3417 15.6856 14.4289 14.5873 14.4289 13.2318Z" fill="currentColor"/>
</svg>
