<svg viewBox="0 0 16 16" fill="none" xmlns="http://www.w3.org/2000/svg">
<path fill-rule="evenodd" clip-rule="evenodd" d="M7.99992 2.00101C8.26654 2.00101 8.48268 2.21881 8.48268 2.48749V6.21722H12.1838C12.4504 6.21722 12.6666 6.43503 12.6666 6.70371C12.6666 6.97239 12.4504 7.1902 12.1838 7.1902H8.48268V10.9199C8.48268 11.1886 8.26654 11.4064 7.99992 11.4064C7.7333 11.4064 7.51716 11.1886 7.51716 10.9199V7.1902H3.81601C3.54939 7.1902 3.33325 6.97239 3.33325 6.70371C3.33325 6.43503 3.54939 6.21722 3.81601 6.21722H7.51716V2.48749C7.51716 2.21881 7.7333 2.00101 7.99992 2.00101ZM3.33325 13.5145C3.33325 13.2458 3.54939 13.028 3.81601 13.028H12.1838C12.4504 13.028 12.6666 13.2458 12.6666 13.5145C12.6666 13.7832 12.4504 14.001 12.1838 14.001H3.81601C3.54939 14.001 3.33325 13.7832 3.33325 13.5145Z" fill="black"/>
</svg>
