<svg width="24" height="24" viewBox="0 0 24 24" fill="none" xmlns="http://www.w3.org/2000/svg">
<path fill-rule="evenodd" clip-rule="evenodd" d="M3.88158 7C3.88158 4.37665 6.00822 2.25 8.63158 2.25H15.3684C17.9918 2.25 20.1184 4.37664 20.1184 7V10.562C21.6251 10.9032 22.75 12.2503 22.75 13.8602V16.8496C22.75 17.8735 22.0893 18.743 21.1711 19.0552V19.1579C21.1711 20.5895 20.0105 21.75 18.5789 21.75C17.1543 21.75 15.998 20.6006 15.9869 19.1786H8.01308C8.00197 20.6006 6.84573 21.75 5.42105 21.75C3.98947 21.75 2.82895 20.5895 2.82895 19.1579V19.0552C1.91067 18.743 1.25 17.8735 1.25 16.8496V13.8602C1.25 12.2503 2.37492 10.9032 3.88158 10.562V7ZM5.38158 10.4786H7.41968L10.3524 6.65763C10.6046 6.32905 11.0754 6.26713 11.404 6.51933C11.7326 6.77154 11.7945 7.24235 11.5423 7.57094L9.31059 10.4786H18.6184V7C18.6184 5.20507 17.1633 3.75 15.3684 3.75H8.63158C6.83665 3.75 5.38158 5.20507 5.38158 7V10.4786ZM4.32914 19.1786C4.34016 19.7722 4.82481 20.25 5.42105 20.25C6.0173 20.25 6.50194 19.7722 6.51297 19.1786H4.32914ZM17.487 19.1786C17.4981 19.7722 17.9827 20.25 18.5789 20.25C19.1752 20.25 19.6598 19.7722 19.6709 19.1786H17.487ZM4.63158 11.9786C3.59241 11.9786 2.75 12.821 2.75 13.8602V16.8496C2.75 17.3074 3.12113 17.6786 3.57895 17.6786H20.4211C20.8789 17.6786 21.25 17.3074 21.25 16.8496V13.8602C21.25 12.821 20.4076 11.9786 19.3684 11.9786H4.63158ZM5.46053 14.8286C5.46053 14.4144 5.79631 14.0786 6.21053 14.0786H7.26316C7.67737 14.0786 8.01316 14.4144 8.01316 14.8286C8.01316 15.2428 7.67737 15.5786 7.26316 15.5786H6.21053C5.79631 15.5786 5.46053 15.2428 5.46053 14.8286ZM15.9868 14.8286C15.9868 14.4144 16.3226 14.0786 16.7368 14.0786H17.7895C18.2037 14.0786 18.5395 14.4144 18.5395 14.8286C18.5395 15.2428 18.2037 15.5786 17.7895 15.5786H16.7368C16.3226 15.5786 15.9868 15.2428 15.9868 14.8286Z" fill="currentColor"/>
</svg>
