<svg viewBox="0 0 22 20" fill="none" xmlns="http://www.w3.org/2000/svg">
<path fill-rule="evenodd" clip-rule="evenodd" d="M2.88158 5C2.88158 2.37665 5.00822 0.25 7.63158 0.25H14.3684C16.9918 0.25 19.1184 2.37664 19.1184 5V8.56203C20.6251 8.90321 21.75 10.2503 21.75 11.8602V14.8496C21.75 15.8735 21.0893 16.743 20.1711 17.0552V17.1579C20.1711 18.5895 19.0105 19.75 17.5789 19.75C16.1543 19.75 14.998 18.6006 14.9869 17.1786H7.01308C7.00197 18.6006 5.84573 19.75 4.42105 19.75C2.98947 19.75 1.82895 18.5895 1.82895 17.1579V17.0552C0.91067 16.743 0.25 15.8735 0.25 14.8496V11.8602C0.25 10.2503 1.37492 8.90321 2.88158 8.56203V5ZM4.38158 8.47857H6.41968L9.35242 4.65763C9.60462 4.32905 10.0754 4.26713 10.404 4.51933C10.7326 4.77154 10.7945 5.24235 10.5423 5.57094L8.31059 8.47857H17.6184V5C17.6184 3.20507 16.1633 1.75 14.3684 1.75H7.63158C5.83665 1.75 4.38158 3.20507 4.38158 5V8.47857ZM3.32914 17.1786C3.34016 17.7722 3.82481 18.25 4.42105 18.25C5.0173 18.25 5.50194 17.7722 5.51297 17.1786H3.32914ZM16.487 17.1786C16.4981 17.7722 16.9827 18.25 17.5789 18.25C18.1752 18.25 18.6598 17.7722 18.6709 17.1786H16.487ZM3.63158 9.97857C2.59241 9.97857 1.75 10.821 1.75 11.8602V14.8496C1.75 15.3074 2.12113 15.6786 2.57895 15.6786H19.4211C19.8789 15.6786 20.25 15.3074 20.25 14.8496V11.8602C20.25 10.821 19.4076 9.97857 18.3684 9.97857H3.63158ZM4.46053 12.8286C4.46053 12.4144 4.79631 12.0786 5.21053 12.0786H6.26316C6.67737 12.0786 7.01316 12.4144 7.01316 12.8286C7.01316 13.2428 6.67737 13.5786 6.26316 13.5786H5.21053C4.79631 13.5786 4.46053 13.2428 4.46053 12.8286ZM14.9868 12.8286C14.9868 12.4144 15.3226 12.0786 15.7368 12.0786H16.7895C17.2037 12.0786 17.5395 12.4144 17.5395 12.8286C17.5395 13.2428 17.2037 13.5786 16.7895 13.5786H15.7368C15.3226 13.5786 14.9868 13.2428 14.9868 12.8286Z" fill="currentColor"/>
</svg>
