<svg width="24" height="24" viewBox="0 0 24 24" fill="none" xmlns="http://www.w3.org/2000/svg">
<path fill-rule="evenodd" clip-rule="evenodd" d="M3.59662 4.24316C4.62461 3.39194 6.04345 3 7.66253 3H16.3469C17.9701 3 19.3897 3.39164 20.416 4.24383C21.4634 5.11355 22.0051 6.38368 22 7.92111V16.072C22 17.6092 21.4558 18.8803 20.4082 19.7516C19.3812 20.6057 17.9617 21 16.3374 21H7.66253C6.03963 21 4.61884 20.5977 3.59098 19.73C2.5443 18.8463 2 17.5596 2 16.0045V7.91951C2 6.38099 2.54761 5.11178 3.59662 4.24316ZM4.57615 5.43288C3.93151 5.96666 3.53846 6.77149 3.53846 7.91951V8.55871H20.4615V7.91951L20.4615 7.91677C20.4656 6.76818 20.0761 5.96468 19.4349 5.4322C18.7723 4.88199 17.7453 4.54286 16.3469 4.54286H7.66253C6.26962 4.54286 5.24181 4.88169 4.57615 5.43288ZM3.53846 16.0045V10.1016H20.4615V16.072C20.4615 17.2215 20.0698 18.0286 19.4261 18.564C18.7618 19.1164 17.7346 19.4571 16.3374 19.4571H7.66253C6.27343 19.4571 5.24757 19.1118 4.58178 18.5497C3.93481 18.0035 3.53846 17.1781 3.53846 16.0045ZM18.4516 14.1361C18.8764 14.137 19.2215 13.7923 19.2224 13.3662C19.2232 12.9402 18.8795 12.5941 18.4547 12.5932L15.0796 12.5863C14.6547 12.5855 14.3096 12.9301 14.3088 13.3562C14.3079 13.7822 14.6516 14.1283 15.0764 14.1292L18.4516 14.1361Z" fill="currentColor"/>
</svg>
