<svg width="20" height="18" viewBox="0 0 20 18" fill="none" xmlns="http://www.w3.org/2000/svg">
<path stroke="#A9ACBC" fill-rule="evenodd" clip-rule="evenodd" d="M1.59662 1.24316C2.62461 0.391942 4.04345 0 5.66253 0H14.3469C15.9701 0 17.3897 0.391636 18.416 1.24383C19.4634 2.11355 20.0051 3.38368 20 4.92111V13.072C20 14.6092 19.4558 15.8803 18.4082 16.7516C17.3812 17.6057 15.9617 18 14.3374 18H5.66253C4.03963 18 2.61884 17.5977 1.59098 16.73C0.5443 15.8463 0 14.5596 0 13.0045V4.91951C0 3.38099 0.547606 2.11178 1.59662 1.24316ZM2.57615 2.43288C1.93151 2.96666 1.53846 3.77149 1.53846 4.91951V5.55871H18.4615V4.91951L18.4615 4.91677C18.4656 3.76818 18.0761 2.96468 17.4349 2.4322C16.7723 1.88199 15.7453 1.54286 14.3469 1.54286H5.66253C4.26962 1.54286 3.24181 1.88169 2.57615 2.43288ZM1.53846 13.0045V7.10157H18.4615V13.072C18.4615 14.2215 18.0698 15.0286 17.4261 15.564C16.7618 16.1164 15.7346 16.4571 14.3374 16.4571H5.66253C4.27343 16.4571 3.24757 16.1118 2.58178 15.5497C1.93481 15.0035 1.53846 14.1781 1.53846 13.0045ZM16.4516 11.1361C16.8764 11.137 17.2215 10.7923 17.2224 10.3662C17.2232 9.9402 16.8795 9.59411 16.4547 9.59324L13.0796 9.58632C12.6547 9.58545 12.3096 9.93012 12.3088 10.3562C12.3079 10.7822 12.6516 11.1283 13.0764 11.1292L16.4516 11.1361Z" fill="#A9ACBC"/>
</svg>
