<svg viewBox="0 0 24 24" fill="none" xmlns="http://www.w3.org/2000/svg">
<path fill-rule="evenodd" clip-rule="evenodd" d="M3.8067 4.45862C4.80899 3.63105 6.19236 3.25 7.77096 3.25H16.2383C17.8208 3.25 19.205 3.63076 20.2056 4.45928C21.2268 5.30484 21.755 6.53969 21.75 8.03441V15.9589C21.75 17.4533 21.2194 18.6892 20.198 19.5362C19.1967 20.3667 17.8127 20.75 16.229 20.75H7.77096C6.18864 20.75 4.80337 20.3589 3.80121 19.5152C2.78069 18.6561 2.25 17.4052 2.25 15.8932V8.03285C2.25 6.53707 2.78392 5.30312 3.8067 4.45862ZM4.76174 5.6153C4.13322 6.13426 3.75 6.91672 3.75 8.03285V8.6543H20.25V8.03285L20.25 8.03019C20.2539 6.91351 19.8742 6.13233 19.249 5.61464C18.603 5.07971 17.6016 4.75 16.2383 4.75H7.77096C6.41288 4.75 5.41076 5.07942 4.76174 5.6153ZM3.75 15.8932V10.1543H20.25V15.9589C20.25 17.0764 19.8681 17.8611 19.2404 18.3816C18.5928 18.9188 17.5913 19.25 16.229 19.25H7.77096C6.4166 19.25 5.41639 18.9142 4.76724 18.3677C4.13644 17.8367 3.75 17.0342 3.75 15.8932ZM18.2903 14.0768C18.7045 14.0776 19.041 13.7425 19.0418 13.3283C19.0427 12.9141 18.7076 12.5776 18.2933 12.5768L15.0026 12.57C14.5884 12.5692 14.2519 12.9043 14.251 13.3185C14.2502 13.7327 14.5853 14.0692 14.9995 14.07L18.2903 14.0768Z" fill="#24A148"/>
</svg>
