<svg width="24" height="24" viewBox="0 0 24 24" fill="none" xmlns="http://www.w3.org/2000/svg">
<path fill-rule="evenodd" clip-rule="evenodd" d="M15.7503 13.5332C15.7503 14.9661 14.6345 16.1278 13.2582 16.1278C11.8818 16.1278 10.766 14.9661 10.766 13.5332C10.766 12.1002 11.8818 10.9386 13.2582 10.9386C14.6345 10.9386 15.7503 12.1002 15.7503 13.5332ZM14.5042 13.5332C14.5042 14.2496 13.9464 14.8305 13.2582 14.8305C12.57 14.8305 12.0121 14.2496 12.0121 13.5332C12.0121 12.8167 12.57 12.2359 13.2582 12.2359C13.9464 12.2359 14.5042 12.8167 14.5042 13.5332Z" fill="currentColor"/>
<path d="M6.40481 13.5135C6.40481 13.1553 6.68375 12.8649 7.02784 12.8649H8.68926C9.03335 12.8649 9.3123 13.1553 9.3123 13.5135C9.3123 13.8718 9.03335 14.1622 8.68926 14.1622H7.02784C6.68375 14.1622 6.40481 13.8718 6.40481 13.5135Z" fill="currentColor"/>
<path d="M17.8271 12.8649C17.483 12.8649 17.204 13.1553 17.204 13.5135C17.204 13.8718 17.483 14.1622 17.8271 14.1622H19.4885C19.8326 14.1622 20.1115 13.8718 20.1115 13.5135C20.1115 13.1553 19.8326 12.8649 19.4885 12.8649H17.8271Z" fill="currentColor"/>
<path fill-rule="evenodd" clip-rule="evenodd" d="M3.45266 4.89142C4.34584 4.27987 5.57063 4 6.97696 4H14.7041C16.0037 4 17.1423 4.23741 18.0092 4.7503C18.8553 5.25093 19.432 6.01177 19.6126 7.00202C19.9584 7.13108 20.2753 7.292 20.5585 7.48648C21.4816 8.12024 22.0047 9.08542 22 10.2965V16.2932C22 17.5038 21.475 18.4697 20.5515 19.1047C19.6591 19.7185 18.4338 20 17.023 20H9.30429C7.89572 20 6.66921 19.713 5.77535 19.0891C5.04783 18.5812 4.5682 17.8669 4.39717 16.9892C3.74211 16.7399 3.18092 16.3716 2.76291 15.8695C2.26021 15.2656 2 14.5099 2 13.6489V7.70054C2 6.48847 2.5284 5.52425 3.45266 4.89142ZM17.3935 5.87817C17.7524 6.09052 18.0149 6.3522 18.1855 6.66358C17.818 6.61719 17.4322 6.59459 17.0315 6.59459H9.30429C7.89796 6.59459 6.67317 6.87447 5.77999 7.48602C4.85573 8.11884 4.32733 9.08306 4.32733 10.2951V15.5353C4.0704 15.3852 3.86389 15.2112 3.70453 15.0198C3.41329 14.67 3.24607 14.2227 3.24607 13.6489V7.70054C3.24607 6.93603 3.55463 6.3743 4.13734 5.97533C4.75113 5.55508 5.7033 5.2973 6.97696 5.2973H14.7041C15.8778 5.2973 16.7795 5.51491 17.3935 5.87817ZM6.46467 8.56992C5.88196 8.9689 5.57339 9.53062 5.57339 10.2951V16.2435C5.57339 17.0284 5.88623 17.6045 6.46931 18.0116C7.08241 18.4396 8.03287 18.7027 9.30429 18.7027H17.023C18.3007 18.7027 19.2523 18.4435 19.8647 18.0223C20.4462 17.6224 20.7539 17.0592 20.7539 16.2932V10.2951L20.7539 10.2922C20.7572 9.52744 20.4518 8.96723 19.8725 8.56946C19.2614 8.14987 18.3099 7.89189 17.0315 7.89189H9.30429C8.03063 7.89189 7.07845 8.14967 6.46467 8.56992Z" fill="currentColor"/>
</svg>
