<svg width="24" height="24" viewBox="0 0 24 24" fill="none" xmlns="http://www.w3.org/2000/svg">
<path fill-rule="evenodd" clip-rule="evenodd" d="M3.88832 4.4267C3.79686 4.47692 3.70833 4.53003 3.62287 4.58608C2.70709 5.18666 2.18354 6.10174 2.18354 7.25204V12.8973C2.18354 13.7144 2.44136 14.4316 2.93945 15.0047C3.35362 15.4812 3.90967 15.8308 4.55871 16.0673C4.72817 16.9003 5.2034 17.5782 5.92424 18.0602C6.8099 18.6524 8.02516 18.9247 9.4208 18.9247H17.0687C17.696 18.9247 18.2862 18.8709 18.8263 18.759L17.6936 17.6721C17.4949 17.6862 17.2866 17.6935 17.0687 17.6935H9.4208C8.16104 17.6935 7.21931 17.4438 6.61183 17.0376C6.0341 16.6513 5.72414 16.1046 5.72414 15.3597V9.71441C5.72414 8.98887 6.02987 8.45576 6.60723 8.07712C6.81137 7.94325 7.05327 7.82675 7.33232 7.73104L6.3632 6.80122C6.2109 6.8762 6.06593 6.95855 5.92884 7.04845C5.01306 7.64903 4.48951 8.56411 4.48951 9.71441V14.6875C4.23494 14.5451 4.03032 14.38 3.87243 14.1983C3.58386 13.8663 3.41817 13.4418 3.41817 12.8973V7.25204C3.41817 6.5265 3.7239 5.99339 4.30126 5.61475C4.45815 5.51186 4.63735 5.41924 4.83858 5.33842L3.88832 4.4267ZM7.9555 6.31403C8.06194 6.29658 8.1701 6.28123 8.2799 6.26793C8.6434 6.22391 9.02484 6.20246 9.4208 6.20246H17.0771C17.4741 6.20246 17.8564 6.2239 18.2205 6.26793C18.0515 5.97241 17.7913 5.72407 17.4357 5.52255C16.8274 5.17779 15.934 4.97127 14.7711 4.97127H7.11483C6.92702 4.97127 6.74626 4.97669 6.57262 4.98723L5.43015 3.89109C5.59214 3.85935 5.75849 3.83275 5.92884 3.81115C6.30585 3.76335 6.70246 3.74009 7.11483 3.74009H14.7711C16.0587 3.74009 17.1869 3.96539 18.0458 4.45215C18.8841 4.92727 19.4555 5.64934 19.6345 6.58912C19.9771 6.71161 20.2911 6.86433 20.5718 7.04889C21.4863 7.65035 22.0047 8.56635 22 9.71568V15.4069C22 16.5558 21.4798 17.4724 20.5648 18.0751C20.4954 18.1208 20.424 18.1646 20.3505 18.2065L19.4064 17.3006C19.5838 17.2254 19.7432 17.1408 19.8843 17.0478C20.4604 16.6683 20.7653 16.1338 20.7653 15.4069V9.71441L20.7653 9.71167C20.7686 8.98585 20.4661 8.45419 19.892 8.07669C19.2865 7.67848 18.3437 7.43364 17.0771 7.43364H9.4208C9.32093 7.43364 9.22305 7.43518 9.12718 7.4382L7.9555 6.31403ZM11.2434 11.4835C11.0062 11.8616 10.8691 12.3086 10.8691 12.7874C10.8691 14.1474 11.9747 15.2498 13.3384 15.2498C13.8527 15.2498 14.3303 15.093 14.7258 14.8247L13.795 13.9317C13.6538 13.9878 13.4997 14.0186 13.3384 14.0186C12.6565 14.0186 12.1038 13.4674 12.1038 12.7874C12.1038 12.6434 12.1286 12.5051 12.1742 12.3766L11.2434 11.4835ZM13.4222 11.559L12.3499 10.5303C12.427 10.4967 12.5062 10.4668 12.5872 10.4411C12.8241 10.3657 13.0765 10.3251 13.3384 10.3251C14.7021 10.3251 15.8077 11.4275 15.8077 12.7874C15.8077 13.1043 15.7476 13.4071 15.6383 13.6853L14.5661 12.6566C14.5604 12.6026 14.5512 12.5495 14.5387 12.4978C14.44 12.0899 14.1377 11.7611 13.745 11.6246C13.6429 11.5891 13.5346 11.5666 13.4222 11.559ZM7.16524 12.1532C6.82431 12.1532 6.54793 12.4288 6.54793 12.7688C6.54793 13.1088 6.82431 13.3844 7.16524 13.3844H8.81141C9.15235 13.3844 9.42873 13.1088 9.42873 12.7688C9.42873 12.4288 9.15235 12.1532 8.81141 12.1532H7.16524ZM17.8654 12.1532C17.5244 12.1532 17.2481 12.4288 17.2481 12.7688C17.2481 13.1088 17.5244 13.3844 17.8654 13.3844H19.5115C19.8525 13.3844 20.1289 13.1088 20.1289 12.7688C20.1289 12.4288 19.8525 12.1532 19.5115 12.1532H17.8654Z" fill="currentColor"/>
<path fill-rule="evenodd" clip-rule="evenodd" d="M2.2181 3.20805C2.50855 2.93032 2.97906 2.9307 3.26902 3.2089L20.0793 19.7853C20.3693 20.0635 20.3689 20.5142 20.0785 20.792C19.788 21.0697 19.3175 21.0693 19.0275 20.7911L2.21721 4.21466C1.92725 3.93646 1.92765 3.48578 2.2181 3.20805Z" fill="currentColor"/>
</svg>
