<svg width="24" height="24" viewBox="0 0 24 24" fill="none" xmlns="http://www.w3.org/2000/svg">
<path fill-rule="evenodd" clip-rule="evenodd" d="M18.0846 5.91305C14.7279 2.55598 9.27352 2.55598 5.91682 5.91392C3.288 8.54216 2.717 12.4373 4.19242 15.6256C4.19744 15.6364 4.20218 15.6474 4.20663 15.6585L4.21828 15.6875C4.40739 16.1579 4.6206 16.6883 4.6206 17.2341C4.6206 17.6147 4.53015 17.9868 4.43469 18.3036C4.38603 18.4651 4.33209 18.6245 4.28199 18.7715L4.26905 18.8095C4.22271 18.9454 4.18033 19.0697 4.1425 19.1909C4.05698 19.4648 4.01796 19.6539 4.01796 19.7893C4.01796 19.9 4.04237 19.9244 4.05916 19.9412C4.0759 19.9579 4.10071 19.982 4.21029 19.9819C4.34519 19.9818 4.53386 19.9428 4.80686 19.857C4.9298 19.8184 5.05614 19.775 5.19442 19.7274L5.22465 19.7171C5.37104 19.6668 5.52984 19.6125 5.69049 19.5634C6.00556 19.4673 6.3758 19.3754 6.75425 19.3731L6.75839 19.3731C7.29754 19.3731 7.83052 19.5881 8.29015 19.7734C8.30716 19.7803 8.32407 19.7871 8.34087 19.7939C8.35175 19.7983 8.36251 19.8029 8.37315 19.8078C11.5622 21.2826 15.4558 20.7125 18.0846 18.0834C21.4417 14.726 21.4476 9.2764 18.0846 5.91305ZM4.92997 4.92744C8.83161 1.02435 15.1697 1.02435 19.0713 4.92644C22.9798 8.83533 22.9726 15.1683 19.0713 19.07C16.0188 22.123 11.5017 22.7839 7.80379 21.0818C7.26955 20.867 6.99138 20.7691 6.76039 20.7685C6.58717 20.7699 6.37223 20.8143 6.09791 20.898C5.9633 20.9391 5.82567 20.986 5.67809 21.0367L5.64451 21.0482C5.51021 21.0944 5.36665 21.1438 5.22495 21.1883C4.92709 21.2818 4.56927 21.377 4.21111 21.3772C3.82834 21.3775 3.41313 21.2681 3.07276 20.9281C2.73243 20.5878 2.6226 20.1721 2.6226 19.7893C2.6226 19.4312 2.7175 19.0731 2.81054 18.7751C2.85409 18.6355 2.90237 18.494 2.94759 18.3614C2.95217 18.348 2.95671 18.3347 2.96121 18.3215C3.01155 18.1737 3.05805 18.0358 3.09867 17.901C3.18177 17.6252 3.22524 17.4088 3.22524 17.2341C3.22524 17.0007 3.13138 16.7258 2.9184 16.1949C1.21561 12.4975 1.87759 7.97926 4.92997 4.92744Z" fill="currentColor"/>
<path fill-rule="evenodd" clip-rule="evenodd" d="M14.7343 12.3843C14.7343 11.8705 15.1508 11.454 15.6645 11.454H15.6729C16.1866 11.454 16.6031 11.8705 16.6031 12.3843C16.6031 12.898 16.1866 13.3145 15.6729 13.3145H15.6645C15.1508 13.3145 14.7343 12.898 14.7343 12.3843Z" fill="currentColor"/>
<path fill-rule="evenodd" clip-rule="evenodd" d="M11.005 12.3843C11.005 11.8705 11.4214 11.454 11.9352 11.454H11.9436C12.4573 11.454 12.8738 11.8705 12.8738 12.3843C12.8738 12.898 12.4573 13.3145 11.9436 13.3145H11.9352C11.4214 13.3145 11.005 12.898 11.005 12.3843Z" fill="currentColor"/>
<path fill-rule="evenodd" clip-rule="evenodd" d="M7.27563 12.3843C7.27563 11.8705 7.69211 11.454 8.20587 11.454H8.21424C8.72799 11.454 9.14448 11.8705 9.14448 12.3843C9.14448 12.898 8.72799 13.3145 8.21424 13.3145H8.20587C7.69211 13.3145 7.27563 12.898 7.27563 12.3843Z" fill="currentColor"/>
</svg>
