<svg viewBox="0 0 24 24" xmlns="http://www.w3.org/2000/svg">
<path fill-rule="evenodd" clip-rule="evenodd" d="M11.9998 21.9999C17.5228 21.9999 21.9998 17.5239 21.9998 11.9999C21.9998 6.47788 17.5228 1.99988 11.9998 1.99988C6.47676 1.99988 1.99976 6.47788 1.99976 11.9999C1.99976 17.5239 6.47676 21.9999 11.9998 21.9999ZM16.0901 10.1575C16.383 9.86463 16.383 9.38976 16.0901 9.09687C15.7973 8.80397 15.3224 8.80397 15.0295 9.09687L10.8137 13.3126L8.97004 11.4698C8.67708 11.1769 8.20221 11.177 7.90938 11.47C7.61655 11.7629 7.61665 12.2378 7.9096 12.5306L10.2836 14.9036C10.5765 15.1964 11.0513 15.1964 11.3441 14.9035L16.0901 10.1575Z"/>
</svg>
