<svg viewBox="0 0 24 24" xmlns="http://www.w3.org/2000/svg">
<path fill-rule="evenodd" clip-rule="evenodd" d="M9.5 2C8.29052 2 7.28164 2.85888 7.05001 4H7C4.79086 4 3 5.79086 3 8V18C3 20.2091 4.79086 22 7 22H17C19.2091 22 21 20.2091 21 18V8C21 5.79086 19.2091 4 17 4H16.95C16.7184 2.85888 15.7095 2 14.5 2H9.5ZM8.58255 4.89944L8.45656 4.61108L8.52003 4.2984C8.61256 3.84258 9.01795 3.5 9.5 3.5H14.5C14.982 3.5 15.3874 3.84258 15.48 4.2984L15.5434 4.61108L15.4174 4.89944C15.2618 5.25576 14.9077 5.5 14.5 5.5H9.5C9.09227 5.5 8.73823 5.25576 8.58255 4.89944ZM14.5 7C15.5252 7 16.4062 6.38295 16.792 5.5H17C18.3807 5.5 19.5 6.61929 19.5 8V18C19.5 19.3807 18.3807 20.5 17 20.5H7C5.61929 20.5 4.5 19.3807 4.5 18V8C4.5 6.61929 5.61929 5.5 7 5.5H7.20802C7.5938 6.38295 8.47484 7 9.5 7H14.5Z"/>
<path fill-rule="evenodd" clip-rule="evenodd" d="M16.0901 11.0969C16.383 11.3898 16.383 11.8646 16.0901 12.1575L11.3441 16.9035C11.0513 17.1964 10.5765 17.1964 10.2836 16.9036L7.9096 14.5306C7.61665 14.2378 7.61655 13.7629 7.90938 13.47C8.20221 13.177 8.67708 13.1769 8.97004 13.4698L10.8137 15.3126L15.0295 11.0969C15.3224 10.804 15.7973 10.804 16.0901 11.0969Z"/>
</svg>
