<svg xmlns="http://www.w3.org/2000/svg" viewBox="0 0 32 32">
  <path d="M16,0 C7.17784615,0 0,7.17723077 0,16 C0,24.8227692 7.17784615,32 16,32 C24.8221538,32 32,24.8227692 32,16 C32,7.17723077 24.8221538,0 16,0 Z M24.92,10.664 L15.0738462,21.7409231 C14.8313846,22.0135385 14.4935385,22.1538462 14.1532308,22.1538462 C13.8830769,22.1538462 13.6116923,22.0652308 13.3846154,21.8843077 L7.23076923,16.9612308 C6.70030769,16.5372308 6.61415385,15.7624615 7.03876923,15.2313846 C7.46276923,14.7003077 8.23815385,14.6141538 8.76861538,15.0387692 L14.0098462,19.2313846 L23.08,9.02769231 C23.5304615,8.51938462 24.3095385,8.47384615 24.8172308,8.92553846 C25.3255385,9.37784615 25.3716923,10.1556923 24.92,10.664 Z"/>
</svg>
