<svg width="24" height="24" viewBox="0 0 24 24" fill="none" xmlns="http://www.w3.org/2000/svg">
<path fill-rule="evenodd" clip-rule="evenodd" d="M12.0002 3.50012C7.30646 3.50012 3.50024 7.30634 3.50024 12.0001C3.50024 16.694 7.30551 20.5001 12.0002 20.5001C16.694 20.5001 20.5002 16.6939 20.5002 12.0001C20.5002 7.30539 16.6941 3.50012 12.0002 3.50012ZM2.00024 12.0001C2.00024 6.47791 6.47803 2.00012 12.0002 2.00012C17.5224 2.00012 22.0002 6.47686 22.0002 12.0001C22.0002 17.5223 17.5225 22.0001 12.0002 22.0001C6.47698 22.0001 2.00024 17.5223 2.00024 12.0001Z" fill="black"/>
<path fill-rule="evenodd" clip-rule="evenodd" d="M16.0901 9.09687C16.383 9.38976 16.383 9.86463 16.0901 10.1575L11.3441 14.9035C11.0513 15.1964 10.5765 15.1964 10.2836 14.9036L7.9096 12.5306C7.61665 12.2378 7.61655 11.7629 7.90938 11.47C8.20221 11.177 8.67708 11.1769 8.97004 11.4698L10.8137 13.3126L15.0295 9.09687C15.3224 8.80397 15.7973 8.80397 16.0901 9.09687Z" fill="black"/>
</svg>
