<svg viewBox="0 0 24 24" xmlns="http://www.w3.org/2000/svg">
<path fill-rule="evenodd" clip-rule="evenodd" d="M12 22C6.486 22 2 17.514 2 12C2 6.486 6.486 2 12 2C17.514 2 22 6.486 22 12C22 17.514 17.514 22 12 22ZM8.52829 7.46764C8.23428 7.17587 7.75941 7.17769 7.46764 7.47171C7.17587 7.76572 7.17769 8.24059 7.47171 8.53236L10.9601 11.9941L7.47176 15.4687C7.17829 15.761 7.17735 16.2359 7.46966 16.5294C7.76197 16.8228 8.23685 16.8238 8.53032 16.5315L12.0248 13.0507L15.4717 16.4713C15.7657 16.763 16.2406 16.7612 16.5324 16.4672C16.8241 16.1732 16.8223 15.6983 16.5283 15.4066L13.0876 11.9922L16.5293 8.56411C16.8227 8.2718 16.8237 7.79692 16.5314 7.50345C16.239 7.20998 15.7642 7.20904 15.4707 7.50135L12.0229 10.9355L8.52829 7.46764Z"/>
</svg>
