<svg width="175" height="115" viewBox="0 0 175 115" fill="none" xmlns="http://www.w3.org/2000/svg">
<path fill-rule="evenodd" clip-rule="evenodd" d="M89.2682 39.7292C95.6351 46.0969 105.063 47.4726 112.778 43.9045C113.917 43.446 114.851 43.0753 115.739 43.0753C118.212 43.09 121.289 45.4876 122.889 43.8899C124.489 42.2901 122.089 39.2099 122.089 36.7223C122.089 35.8345 122.445 34.9173 122.904 33.7761C126.473 26.062 125.096 16.6309 118.729 10.2653C110.601 2.13456 97.396 2.13456 89.2682 10.2632C81.1257 18.4066 81.1404 31.6005 89.2682 39.7292Z" stroke="#A9ACBC" stroke-width="2.5" stroke-linecap="round" stroke-linejoin="round"/>
<path d="M95.7929 25.861H95.7742" stroke="#A9ACBC" stroke-width="4" stroke-linecap="round" stroke-linejoin="round"/>
<path d="M104.145 25.861H104.126" stroke="#A9ACBC" stroke-width="4" stroke-linecap="round" stroke-linejoin="round"/>
<path d="M112.497 25.861H112.478" stroke="#A9ACBC" stroke-width="4" stroke-linecap="round" stroke-linejoin="round"/>
<path d="M3.30717 84.004H4.58117L9.66317 91.942V84.004H10.9092V94H9.67717L4.55317 86.104V94H3.30717V84.004ZM19.2136 91.97C19.0922 92.67 18.7796 93.2207 18.2756 93.622C17.7809 94.0233 17.0669 94.224 16.1336 94.224C15.0322 94.224 14.1876 93.8927 13.5996 93.23C13.0116 92.558 12.7176 91.6247 12.7176 90.43C12.7176 89.8047 12.8016 89.2493 12.9696 88.764C13.1376 88.2787 13.3709 87.8727 13.6696 87.546C13.9776 87.2193 14.3416 86.972 14.7616 86.804C15.1816 86.6267 15.6389 86.538 16.1336 86.538C16.6936 86.538 17.1742 86.6267 17.5756 86.804C17.9769 86.9813 18.3036 87.2287 18.5556 87.546C18.8169 87.854 19.0082 88.2227 19.1296 88.652C19.2602 89.0813 19.3256 89.5527 19.3256 90.066V90.682H13.9496C13.9496 91.046 13.9962 91.3867 14.0896 91.704C14.1922 92.012 14.3322 92.2827 14.5096 92.516C14.6962 92.74 14.9249 92.9173 15.1956 93.048C15.4662 93.1787 15.7789 93.244 16.1336 93.244C16.7402 93.244 17.1836 93.132 17.4636 92.908C17.7436 92.6747 17.9349 92.362 18.0376 91.97H19.2136ZM18.1076 89.772C18.1076 89.4267 18.0702 89.114 17.9956 88.834C17.9209 88.554 17.8042 88.316 17.6456 88.12C17.4869 87.9147 17.2816 87.756 17.0296 87.644C16.7776 87.532 16.4742 87.476 16.1196 87.476C15.4756 87.476 14.9716 87.672 14.6076 88.064C14.2529 88.456 14.0429 89.0253 13.9776 89.772H18.1076ZM27.198 91.97C27.0766 92.67 26.764 93.2207 26.26 93.622C25.7653 94.0233 25.0513 94.224 24.118 94.224C23.0166 94.224 22.172 93.8927 21.584 93.23C20.996 92.558 20.702 91.6247 20.702 90.43C20.702 89.8047 20.786 89.2493 20.954 88.764C21.122 88.2787 21.3553 87.8727 21.654 87.546C21.962 87.2193 22.326 86.972 22.746 86.804C23.166 86.6267 23.6233 86.538 24.118 86.538C24.678 86.538 25.1586 86.6267 25.56 86.804C25.9613 86.9813 26.288 87.2287 26.54 87.546C26.8013 87.854 26.9926 88.2227 27.114 88.652C27.2446 89.0813 27.31 89.5527 27.31 90.066V90.682H21.934C21.934 91.046 21.9806 91.3867 22.074 91.704C22.1766 92.012 22.3166 92.2827 22.494 92.516C22.6806 92.74 22.9093 92.9173 23.18 93.048C23.4506 93.1787 23.7633 93.244 24.118 93.244C24.7246 93.244 25.168 93.132 25.448 92.908C25.728 92.6747 25.9193 92.362 26.022 91.97H27.198ZM26.092 89.772C26.092 89.4267 26.0546 89.114 25.98 88.834C25.9053 88.554 25.7886 88.316 25.63 88.12C25.4713 87.9147 25.266 87.756 25.014 87.644C24.762 87.532 24.4586 87.476 24.104 87.476C23.46 87.476 22.956 87.672 22.592 88.064C22.2373 88.456 22.0273 89.0253 21.962 89.772H26.092ZM34.1883 92.964C33.8897 93.3653 33.5443 93.678 33.1523 93.902C32.7603 94.1167 32.2983 94.224 31.7663 94.224C31.2343 94.224 30.7723 94.126 30.3803 93.93C29.9977 93.734 29.6803 93.468 29.4283 93.132C29.1763 92.7867 28.9897 92.3807 28.8683 91.914C28.747 91.4473 28.6863 90.948 28.6863 90.416C28.6863 89.8187 28.761 89.282 28.9103 88.806C29.0597 88.3207 29.2697 87.91 29.5403 87.574C29.8203 87.238 30.1563 86.9813 30.5483 86.804C30.9497 86.6267 31.4023 86.538 31.9063 86.538C32.289 86.538 32.6763 86.6173 33.0683 86.776C33.4603 86.9253 33.8243 87.2147 34.1603 87.644V84.004H35.3783V94H34.1883V92.964ZM34.2023 90.164C34.2023 89.5853 34.137 89.1373 34.0063 88.82C33.885 88.4933 33.6797 88.218 33.3903 87.994C33.185 87.826 32.975 87.7093 32.7603 87.644C32.555 87.5787 32.3263 87.546 32.0743 87.546C31.7757 87.546 31.4957 87.5973 31.2343 87.7C30.9823 87.8027 30.7583 87.9707 30.5623 88.204C30.3757 88.428 30.2263 88.722 30.1143 89.086C30.0117 89.4407 29.9603 89.8747 29.9603 90.388C29.9603 90.92 30.0163 91.368 30.1283 91.732C30.2497 92.096 30.4037 92.3853 30.5903 92.6C30.7863 92.8147 31.001 92.9687 31.2343 93.062C31.477 93.1553 31.7243 93.202 31.9763 93.202C32.247 93.202 32.4897 93.1693 32.7043 93.104C32.919 93.0387 33.1337 92.9267 33.3483 92.768C33.6283 92.544 33.8383 92.264 33.9783 91.928C34.1277 91.592 34.2023 91.1673 34.2023 90.654V90.164ZM40.8014 87.728H39.6814V86.762H40.8014V84.788H42.0194V86.762H43.9374V87.728H42.0194V91.97C42.0194 92.3247 42.0987 92.6093 42.2574 92.824C42.416 93.0387 42.6587 93.146 42.9854 93.146C43.1907 93.146 43.368 93.132 43.5174 93.104C43.676 93.076 43.8207 93.0387 43.9514 92.992L44.1614 93.93C43.9747 93.9953 43.7694 94.0467 43.5454 94.084C43.3307 94.1307 43.074 94.154 42.7754 94.154C42.3647 94.154 42.0334 94.0933 41.7814 93.972C41.5294 93.8507 41.3287 93.678 41.1794 93.454C41.03 93.23 40.9274 92.964 40.8714 92.656C40.8247 92.348 40.8014 92.012 40.8014 91.648V87.728ZM48.2778 94.224C47.7271 94.224 47.2371 94.1353 46.8078 93.958C46.3785 93.7807 46.0145 93.5287 45.7158 93.202C45.4171 92.8753 45.1885 92.474 45.0298 91.998C44.8711 91.522 44.7918 90.99 44.7918 90.402C44.7918 89.814 44.8758 89.282 45.0438 88.806C45.2118 88.33 45.4498 87.924 45.7578 87.588C46.0658 87.252 46.4345 86.9953 46.8638 86.818C47.3025 86.6313 47.7878 86.538 48.3198 86.538C48.8611 86.538 49.3465 86.6267 49.7758 86.804C50.2051 86.9813 50.5691 87.238 50.8678 87.574C51.1758 87.9007 51.4091 88.2973 51.5678 88.764C51.7265 89.2307 51.8058 89.758 51.8058 90.346C51.8058 90.9433 51.7218 91.48 51.5538 91.956C51.3951 92.432 51.1618 92.838 50.8538 93.174C50.5551 93.51 50.1865 93.7713 49.7478 93.958C49.3091 94.1353 48.8191 94.224 48.2778 94.224ZM48.2918 93.216C48.6838 93.216 49.0198 93.146 49.2998 93.006C49.5798 92.866 49.8085 92.67 49.9858 92.418C50.1725 92.166 50.3078 91.8673 50.3918 91.522C50.4758 91.1673 50.5178 90.78 50.5178 90.36C50.5178 89.9493 50.4758 89.5713 50.3918 89.226C50.3078 88.8807 50.1725 88.5867 49.9858 88.344C49.8085 88.092 49.5798 87.896 49.2998 87.756C49.0198 87.616 48.6838 87.546 48.2918 87.546C47.8998 87.546 47.5638 87.616 47.2838 87.756C47.0131 87.896 46.7845 88.092 46.5978 88.344C46.4205 88.5867 46.2898 88.8807 46.2058 89.226C46.1218 89.5713 46.0798 89.954 46.0798 90.374C46.0798 90.794 46.1218 91.1767 46.2058 91.522C46.2898 91.8673 46.4205 92.166 46.5978 92.418C46.7751 92.67 47.0038 92.866 47.2838 93.006C47.5638 93.146 47.8998 93.216 48.2918 93.216ZM62.8272 91.55C62.7059 92.3807 62.3885 93.034 61.8752 93.51C61.3619 93.986 60.6385 94.224 59.7052 94.224C59.1545 94.224 58.6645 94.1353 58.2352 93.958C57.8152 93.7807 57.4605 93.5287 57.1712 93.202C56.8912 92.866 56.6765 92.4647 56.5272 91.998C56.3872 91.522 56.3172 90.99 56.3172 90.402C56.3172 89.8233 56.3965 89.296 56.5552 88.82C56.7139 88.344 56.9425 87.938 57.2412 87.602C57.5399 87.266 57.9039 87.0047 58.3332 86.818C58.7625 86.6313 59.2479 86.538 59.7892 86.538C60.6572 86.538 61.3292 86.7527 61.8052 87.182C62.2812 87.602 62.5845 88.1853 62.7152 88.932L61.4972 89.156C61.4505 88.9227 61.3852 88.708 61.3012 88.512C61.2265 88.316 61.1192 88.148 60.9792 88.008C60.8392 87.8587 60.6665 87.7467 60.4612 87.672C60.2652 87.588 60.0272 87.546 59.7472 87.546C59.3645 87.546 59.0379 87.6207 58.7672 87.77C58.4965 87.91 58.2725 88.1107 58.0952 88.372C57.9272 88.624 57.8012 88.9227 57.7172 89.268C57.6425 89.6133 57.6052 89.982 57.6052 90.374C57.6052 90.766 57.6425 91.1347 57.7172 91.48C57.7919 91.8253 57.9132 92.1287 58.0812 92.39C58.2492 92.642 58.4685 92.8427 58.7392 92.992C59.0099 93.1413 59.3412 93.216 59.7332 93.216C60.3212 93.216 60.7552 93.0667 61.0352 92.768C61.3245 92.4693 61.5112 92.0633 61.5952 91.55H62.8272ZM64.4035 84.004H65.6215V94H64.4035V84.004ZM72.028 93.006C71.7667 93.3233 71.4354 93.5987 71.034 93.832C70.6327 94.056 70.1334 94.168 69.536 94.168C69.172 94.168 68.836 94.1213 68.528 94.028C68.2294 93.944 67.968 93.8133 67.744 93.636C67.5294 93.4493 67.3614 93.2207 67.24 92.95C67.1187 92.6793 67.058 92.362 67.058 91.998C67.058 91.5033 67.1607 91.102 67.366 90.794C67.5807 90.486 67.8607 90.2433 68.206 90.066C68.5607 89.8887 68.9574 89.7627 69.396 89.688C69.8347 89.6133 70.2874 89.5667 70.754 89.548L72 89.506V89.226C72 88.61 71.8694 88.1667 71.608 87.896C71.3467 87.6253 70.922 87.49 70.334 87.49C69.7554 87.49 69.3307 87.588 69.06 87.784C68.7894 87.9707 68.612 88.232 68.528 88.568L67.422 88.442C67.5527 87.7793 67.8654 87.2987 68.36 87C68.8547 86.692 69.5267 86.538 70.376 86.538C70.8987 86.538 71.3374 86.6033 71.692 86.734C72.056 86.8553 72.35 87.0327 72.574 87.266C72.798 87.4993 72.9567 87.7887 73.05 88.134C73.1527 88.4793 73.204 88.8667 73.204 89.296V94H72.028V93.006ZM72 90.374L70.838 90.416C70.3434 90.4347 69.9327 90.4813 69.606 90.556C69.2794 90.6307 69.018 90.7333 68.822 90.864C68.6354 90.9853 68.5 91.1393 68.416 91.326C68.3414 91.5127 68.304 91.7273 68.304 91.97C68.304 92.334 68.4114 92.628 68.626 92.852C68.85 93.0667 69.214 93.174 69.718 93.174C70.4367 93.174 70.9967 92.9967 71.398 92.642C71.7994 92.2873 72 91.802 72 91.186V90.374ZM75.0532 86.762H76.2572V87.882C76.5279 87.4807 76.8452 87.1727 77.2092 86.958C77.5732 86.7433 77.9606 86.636 78.3712 86.636C78.6232 86.636 78.8379 86.6547 79.0152 86.692L78.8612 87.826C78.7679 87.8073 78.6746 87.7933 78.5812 87.784C78.4879 87.7653 78.3852 87.756 78.2732 87.756C78.0492 87.756 77.8206 87.798 77.5872 87.882C77.3539 87.9567 77.1346 88.0873 76.9292 88.274C76.7239 88.4513 76.5606 88.6567 76.4392 88.89C76.3272 89.1233 76.2712 89.394 76.2712 89.702V94H75.0532V86.762ZM80.2082 86.762H81.4262V94H80.2082V86.762ZM80.1662 84.004H81.4682V85.418H80.1662V84.004ZM83.7587 87.728H82.6247V86.762H83.7587V86.132C83.7587 85.74 83.8147 85.404 83.9267 85.124C84.0481 84.844 84.2067 84.6153 84.4027 84.438C84.6081 84.2513 84.8414 84.116 85.1027 84.032C85.3734 83.9387 85.6581 83.892 85.9567 83.892C86.1714 83.892 86.3767 83.906 86.5727 83.934C86.7687 83.9527 86.9741 83.9947 87.1887 84.06L86.9927 85.012C86.8434 84.9653 86.6987 84.9373 86.5587 84.928C86.4281 84.9093 86.2974 84.9 86.1667 84.9C85.8401 84.9 85.5601 84.9887 85.3267 85.166C85.0934 85.334 84.9767 85.6467 84.9767 86.104V86.762H86.8107V87.728H84.9767V94H83.7587V87.728ZM88.3963 95.54C88.6577 95.6333 88.919 95.68 89.1803 95.68C89.479 95.68 89.7077 95.6007 89.8663 95.442C90.0343 95.2927 90.1977 95.008 90.3563 94.588L90.6503 93.818L87.5843 86.762H88.9983L91.2803 92.446L93.3663 86.762H94.7103L91.5463 94.686C91.4157 95.0127 91.285 95.2973 91.1543 95.54C91.0237 95.792 90.879 96.0067 90.7203 96.184C90.5617 96.3613 90.3703 96.492 90.1463 96.576C89.9317 96.6693 89.6657 96.716 89.3483 96.716C89.1243 96.716 88.9237 96.702 88.7463 96.674C88.569 96.646 88.373 96.5947 88.1583 96.52L88.3963 95.54ZM99.6536 91.886C99.7376 92.39 99.9476 92.7447 100.284 92.95C100.629 93.146 101.096 93.244 101.684 93.244C102.3 93.244 102.734 93.1413 102.986 92.936C103.247 92.7213 103.378 92.4413 103.378 92.096C103.378 91.956 103.359 91.8253 103.322 91.704C103.294 91.5733 103.233 91.4613 103.14 91.368C103.046 91.2653 102.916 91.1767 102.748 91.102C102.58 91.0273 102.36 90.9667 102.09 90.92L101.166 90.78C100.755 90.7147 100.396 90.6307 100.088 90.528C99.7796 90.4253 99.5183 90.2947 99.3036 90.136C99.089 89.968 98.9256 89.7673 98.8136 89.534C98.711 89.2913 98.6596 89.002 98.6596 88.666C98.6596 88.33 98.7296 88.0313 98.8696 87.77C99.019 87.5087 99.2196 87.2893 99.4716 87.112C99.733 86.9253 100.036 86.7853 100.382 86.692C100.736 86.5893 101.119 86.538 101.53 86.538C102.052 86.538 102.486 86.5893 102.832 86.692C103.186 86.7947 103.476 86.9347 103.7 87.112C103.924 87.2893 104.096 87.4993 104.218 87.742C104.339 87.9847 104.432 88.2413 104.498 88.512L103.392 88.694C103.326 88.498 103.252 88.3253 103.168 88.176C103.084 88.0267 102.972 87.9053 102.832 87.812C102.692 87.7093 102.519 87.6347 102.314 87.588C102.118 87.532 101.87 87.504 101.572 87.504C101.236 87.504 100.956 87.5367 100.732 87.602C100.508 87.658 100.326 87.7373 100.186 87.84C100.055 87.9427 99.9616 88.0593 99.9056 88.19C99.8496 88.3113 99.8216 88.442 99.8216 88.582C99.8216 88.7313 99.8403 88.8667 99.8776 88.988C99.915 89.1 99.985 89.2027 100.088 89.296C100.19 89.38 100.33 89.4547 100.508 89.52C100.685 89.5853 100.914 89.6413 101.194 89.688L102.244 89.856C103.093 89.996 103.7 90.2387 104.064 90.584C104.437 90.9293 104.624 91.4333 104.624 92.096C104.624 92.404 104.563 92.6887 104.442 92.95C104.32 93.202 104.138 93.426 103.896 93.622C103.653 93.8087 103.35 93.9533 102.986 94.056C102.622 94.168 102.197 94.224 101.712 94.224C101.273 94.224 100.862 94.182 100.48 94.098C100.106 94.014 99.775 93.8833 99.4856 93.706C99.1963 93.5193 98.963 93.2767 98.7856 92.978C98.6083 92.6793 98.5056 92.3153 98.4776 91.886H99.6536ZM109.227 94.224C108.676 94.224 108.186 94.1353 107.757 93.958C107.328 93.7807 106.964 93.5287 106.665 93.202C106.366 92.8753 106.138 92.474 105.979 91.998C105.82 91.522 105.741 90.99 105.741 90.402C105.741 89.814 105.825 89.282 105.993 88.806C106.161 88.33 106.399 87.924 106.707 87.588C107.015 87.252 107.384 86.9953 107.813 86.818C108.252 86.6313 108.737 86.538 109.269 86.538C109.81 86.538 110.296 86.6267 110.725 86.804C111.154 86.9813 111.518 87.238 111.817 87.574C112.125 87.9007 112.358 88.2973 112.517 88.764C112.676 89.2307 112.755 89.758 112.755 90.346C112.755 90.9433 112.671 91.48 112.503 91.956C112.344 92.432 112.111 92.838 111.803 93.174C111.504 93.51 111.136 93.7713 110.697 93.958C110.258 94.1353 109.768 94.224 109.227 94.224ZM109.241 93.216C109.633 93.216 109.969 93.146 110.249 93.006C110.529 92.866 110.758 92.67 110.935 92.418C111.122 92.166 111.257 91.8673 111.341 91.522C111.425 91.1673 111.467 90.78 111.467 90.36C111.467 89.9493 111.425 89.5713 111.341 89.226C111.257 88.8807 111.122 88.5867 110.935 88.344C110.758 88.092 110.529 87.896 110.249 87.756C109.969 87.616 109.633 87.546 109.241 87.546C108.849 87.546 108.513 87.616 108.233 87.756C107.962 87.896 107.734 88.092 107.547 88.344C107.37 88.5867 107.239 88.8807 107.155 89.226C107.071 89.5713 107.029 89.954 107.029 90.374C107.029 90.794 107.071 91.1767 107.155 91.522C107.239 91.8673 107.37 92.166 107.547 92.418C107.724 92.67 107.953 92.866 108.233 93.006C108.513 93.146 108.849 93.216 109.241 93.216ZM114.387 86.762H115.591V87.868C115.918 87.42 116.277 87.0887 116.669 86.874C117.061 86.65 117.463 86.538 117.873 86.538C118.415 86.538 118.849 86.6547 119.175 86.888C119.511 87.1213 119.759 87.4573 119.917 87.896C120.244 87.448 120.617 87.112 121.037 86.888C121.457 86.6547 121.905 86.538 122.381 86.538C123.091 86.538 123.637 86.734 124.019 87.126C124.411 87.5087 124.607 88.1293 124.607 88.988V94H123.389V89.268C123.389 88.9413 123.361 88.6707 123.305 88.456C123.249 88.232 123.165 88.0593 123.053 87.938C122.951 87.8073 122.82 87.7187 122.661 87.672C122.503 87.616 122.321 87.588 122.115 87.588C121.901 87.588 121.677 87.6253 121.443 87.7C121.21 87.7747 120.981 87.9053 120.757 88.092C120.571 88.2507 120.417 88.442 120.295 88.666C120.174 88.89 120.113 89.1467 120.113 89.436V94H118.895V89.282C118.895 88.6473 118.783 88.2087 118.559 87.966C118.345 87.714 118.032 87.588 117.621 87.588C117.145 87.588 116.697 87.784 116.277 88.176C116.119 88.3253 115.965 88.5167 115.815 88.75C115.675 88.9833 115.605 89.296 115.605 89.688V94H114.387V86.762ZM132.704 91.97C132.582 92.67 132.27 93.2207 131.766 93.622C131.271 94.0233 130.557 94.224 129.624 94.224C128.522 94.224 127.678 93.8927 127.09 93.23C126.502 92.558 126.208 91.6247 126.208 90.43C126.208 89.8047 126.292 89.2493 126.46 88.764C126.628 88.2787 126.861 87.8727 127.16 87.546C127.468 87.2193 127.832 86.972 128.252 86.804C128.672 86.6267 129.129 86.538 129.624 86.538C130.184 86.538 130.664 86.6267 131.066 86.804C131.467 86.9813 131.794 87.2287 132.046 87.546C132.307 87.854 132.498 88.2227 132.62 88.652C132.75 89.0813 132.816 89.5527 132.816 90.066V90.682H127.44C127.44 91.046 127.486 91.3867 127.58 91.704C127.682 92.012 127.822 92.2827 128 92.516C128.186 92.74 128.415 92.9173 128.686 93.048C128.956 93.1787 129.269 93.244 129.624 93.244C130.23 93.244 130.674 93.132 130.954 92.908C131.234 92.6747 131.425 92.362 131.528 91.97H132.704ZM131.598 89.772C131.598 89.4267 131.56 89.114 131.486 88.834C131.411 88.554 131.294 88.316 131.136 88.12C130.977 87.9147 130.772 87.756 130.52 87.644C130.268 87.532 129.964 87.476 129.61 87.476C128.966 87.476 128.462 87.672 128.098 88.064C127.743 88.456 127.533 89.0253 127.468 89.772H131.598ZM134.85 87.728H133.73V86.762H134.85V84.788H136.068V86.762H137.986V87.728H136.068V91.97C136.068 92.3247 136.148 92.6093 136.306 92.824C136.465 93.0387 136.708 93.146 137.034 93.146C137.24 93.146 137.417 93.132 137.566 93.104C137.725 93.076 137.87 93.0387 138 92.992L138.21 93.93C138.024 93.9953 137.818 94.0467 137.594 94.084C137.38 94.1307 137.123 94.154 136.824 94.154C136.414 94.154 136.082 94.0933 135.83 93.972C135.578 93.8507 135.378 93.678 135.228 93.454C135.079 93.23 134.976 92.964 134.92 92.656C134.874 92.348 134.85 92.012 134.85 91.648V87.728ZM139.284 84.004H140.502V87.84C140.856 87.3827 141.244 87.0513 141.664 86.846C142.093 86.6407 142.546 86.538 143.022 86.538C143.843 86.538 144.45 86.762 144.842 87.21C145.243 87.658 145.444 88.316 145.444 89.184V94H144.212V89.422C144.212 88.75 144.09 88.2787 143.848 88.008C143.614 87.728 143.246 87.588 142.742 87.588C142.471 87.588 142.2 87.6347 141.93 87.728C141.668 87.8213 141.43 87.9707 141.216 88.176C140.982 88.3813 140.805 88.6007 140.684 88.834C140.562 89.058 140.502 89.352 140.502 89.716V94H139.284V84.004ZM147.296 86.762H148.514V94H147.296V86.762ZM147.254 84.004H148.556V85.418H147.254V84.004ZM150.413 86.762H151.617V87.868C151.971 87.392 152.363 87.0513 152.793 86.846C153.222 86.6407 153.675 86.538 154.151 86.538C154.972 86.538 155.579 86.762 155.971 87.21C156.372 87.658 156.573 88.316 156.573 89.184V94H155.355V89.422C155.355 88.75 155.233 88.2787 154.991 88.008C154.748 87.728 154.375 87.588 153.871 87.588C153.6 87.588 153.329 87.6347 153.059 87.728C152.797 87.8213 152.559 87.9707 152.345 88.176C152.111 88.3813 151.934 88.6007 151.813 88.834C151.691 89.058 151.631 89.352 151.631 89.716V94H150.413V86.762ZM159.629 94.672C159.732 95.1107 159.928 95.4233 160.217 95.61C160.516 95.7967 160.978 95.89 161.603 95.89C162.368 95.89 162.896 95.6753 163.185 95.246C163.484 94.826 163.633 94.21 163.633 93.398V92.628C163.353 93.02 163.012 93.3233 162.611 93.538C162.219 93.7527 161.757 93.86 161.225 93.86C160.702 93.86 160.245 93.7667 159.853 93.58C159.47 93.384 159.153 93.1227 158.901 92.796C158.649 92.46 158.458 92.0727 158.327 91.634C158.206 91.1953 158.145 90.724 158.145 90.22C158.145 89.6693 158.22 89.17 158.369 88.722C158.518 88.2647 158.733 87.8773 159.013 87.56C159.293 87.2333 159.629 86.9813 160.021 86.804C160.422 86.6267 160.87 86.538 161.365 86.538C161.766 86.538 162.163 86.622 162.555 86.79C162.956 86.9487 163.32 87.2473 163.647 87.686V86.762H164.851V92.824C164.851 93.4493 164.804 94.0093 164.711 94.504C164.627 95.008 164.464 95.4327 164.221 95.778C163.988 96.1327 163.661 96.4033 163.241 96.59C162.821 96.7767 162.28 96.87 161.617 96.87C160.665 96.87 159.918 96.6973 159.377 96.352C158.836 96.016 158.518 95.456 158.425 94.672H159.629ZM163.661 90.108C163.661 89.632 163.605 89.2353 163.493 88.918C163.381 88.5913 163.227 88.3253 163.031 88.12C162.835 87.9147 162.606 87.77 162.345 87.686C162.093 87.5927 161.827 87.546 161.547 87.546C161.248 87.546 160.968 87.5973 160.707 87.7C160.455 87.7933 160.231 87.9473 160.035 88.162C159.848 88.3767 159.699 88.652 159.587 88.988C159.484 89.324 159.433 89.73 159.433 90.206C159.433 90.6913 159.489 91.102 159.601 91.438C159.722 91.774 159.876 92.0447 160.063 92.25C160.25 92.4553 160.464 92.6047 160.707 92.698C160.959 92.7913 161.211 92.838 161.463 92.838C161.78 92.838 162.07 92.7867 162.331 92.684C162.602 92.5813 162.835 92.4273 163.031 92.222C163.227 92.0167 163.381 91.76 163.493 91.452C163.605 91.1347 163.661 90.766 163.661 90.346V90.108ZM168.529 90.92C168.529 90.612 168.576 90.3413 168.669 90.108C168.762 89.8653 168.879 89.646 169.019 89.45C169.168 89.254 169.332 89.0673 169.509 88.89C169.696 88.7127 169.873 88.5353 170.041 88.358C170.265 88.1433 170.47 87.9007 170.657 87.63C170.844 87.35 170.937 86.9953 170.937 86.566C170.956 86.062 170.82 85.656 170.531 85.348C170.251 85.04 169.831 84.886 169.271 84.886C168.664 84.886 168.202 85.0213 167.885 85.292C167.577 85.5627 167.344 85.9967 167.185 86.594L166.065 86.412C166.13 86.076 166.238 85.754 166.387 85.446C166.536 85.138 166.737 84.8673 166.989 84.634C167.241 84.3913 167.554 84.2 167.927 84.06C168.31 83.9107 168.762 83.836 169.285 83.836C169.761 83.836 170.176 83.9013 170.531 84.032C170.895 84.1533 171.198 84.3307 171.441 84.564C171.693 84.7973 171.88 85.0727 172.001 85.39C172.132 85.7073 172.197 86.0527 172.197 86.426C172.197 86.986 172.085 87.448 171.861 87.812C171.646 88.176 171.39 88.5027 171.091 88.792C170.923 88.96 170.755 89.1233 170.587 89.282C170.428 89.4407 170.284 89.604 170.153 89.772C170.032 89.94 169.929 90.122 169.845 90.318C169.77 90.5047 169.733 90.7147 169.733 90.948V91.13H168.529V90.92ZM168.445 92.376H169.803V94H168.445V92.376ZM35.1148 102.004H38.4608C39.1981 102.004 39.8048 102.083 40.2808 102.242C40.7661 102.401 41.1441 102.615 41.4148 102.886C41.6948 103.157 41.8861 103.474 41.9888 103.838C42.1008 104.193 42.1568 104.571 42.1568 104.972C42.1568 105.392 42.1008 105.793 41.9888 106.176C41.8768 106.559 41.6808 106.895 41.4008 107.184C41.1208 107.473 40.7428 107.702 40.2668 107.87C39.7908 108.038 39.1888 108.122 38.4608 108.122H36.3888V112H35.1148V102.004ZM38.4468 107.03C38.9321 107.03 39.3335 106.983 39.6508 106.89C39.9681 106.797 40.2155 106.661 40.3928 106.484C40.5701 106.307 40.6915 106.097 40.7568 105.854C40.8315 105.602 40.8688 105.322 40.8688 105.014C40.8688 104.697 40.8315 104.417 40.7568 104.174C40.6821 103.931 40.5515 103.731 40.3648 103.572C40.1781 103.413 39.9261 103.297 39.6088 103.222C39.3008 103.138 38.9088 103.096 38.4328 103.096H36.3888V107.03H38.4468ZM46.4663 112.224C45.9156 112.224 45.4256 112.135 44.9963 111.958C44.5669 111.781 44.2029 111.529 43.9043 111.202C43.6056 110.875 43.3769 110.474 43.2183 109.998C43.0596 109.522 42.9803 108.99 42.9803 108.402C42.9803 107.814 43.0643 107.282 43.2323 106.806C43.4003 106.33 43.6383 105.924 43.9463 105.588C44.2543 105.252 44.6229 104.995 45.0523 104.818C45.4909 104.631 45.9763 104.538 46.5083 104.538C47.0496 104.538 47.5349 104.627 47.9643 104.804C48.3936 104.981 48.7576 105.238 49.0563 105.574C49.3643 105.901 49.5976 106.297 49.7563 106.764C49.9149 107.231 49.9943 107.758 49.9943 108.346C49.9943 108.943 49.9103 109.48 49.7423 109.956C49.5836 110.432 49.3503 110.838 49.0423 111.174C48.7436 111.51 48.3749 111.771 47.9363 111.958C47.4976 112.135 47.0076 112.224 46.4663 112.224ZM46.4803 111.216C46.8723 111.216 47.2083 111.146 47.4883 111.006C47.7683 110.866 47.9969 110.67 48.1743 110.418C48.3609 110.166 48.4963 109.867 48.5803 109.522C48.6643 109.167 48.7063 108.78 48.7063 108.36C48.7063 107.949 48.6643 107.571 48.5803 107.226C48.4963 106.881 48.3609 106.587 48.1743 106.344C47.9969 106.092 47.7683 105.896 47.4883 105.756C47.2083 105.616 46.8723 105.546 46.4803 105.546C46.0883 105.546 45.7523 105.616 45.4723 105.756C45.2016 105.896 44.9729 106.092 44.7863 106.344C44.6089 106.587 44.4783 106.881 44.3943 107.226C44.3103 107.571 44.2683 107.954 44.2683 108.374C44.2683 108.794 44.3103 109.177 44.3943 109.522C44.4783 109.867 44.6089 110.166 44.7863 110.418C44.9636 110.67 45.1923 110.866 45.4723 111.006C45.7523 111.146 46.0883 111.216 46.4803 111.216ZM52.4105 109.886C52.4945 110.39 52.7045 110.745 53.0405 110.95C53.3858 111.146 53.8525 111.244 54.4405 111.244C55.0565 111.244 55.4905 111.141 55.7425 110.936C56.0038 110.721 56.1345 110.441 56.1345 110.096C56.1345 109.956 56.1158 109.825 56.0785 109.704C56.0505 109.573 55.9898 109.461 55.8965 109.368C55.8031 109.265 55.6725 109.177 55.5045 109.102C55.3365 109.027 55.1171 108.967 54.8465 108.92L53.9225 108.78C53.5118 108.715 53.1525 108.631 52.8445 108.528C52.5365 108.425 52.2751 108.295 52.0605 108.136C51.8458 107.968 51.6825 107.767 51.5705 107.534C51.4678 107.291 51.4165 107.002 51.4165 106.666C51.4165 106.33 51.4865 106.031 51.6265 105.77C51.7758 105.509 51.9765 105.289 52.2285 105.112C52.4898 104.925 52.7931 104.785 53.1385 104.692C53.4931 104.589 53.8758 104.538 54.2865 104.538C54.8091 104.538 55.2431 104.589 55.5885 104.692C55.9431 104.795 56.2325 104.935 56.4565 105.112C56.6805 105.289 56.8531 105.499 56.9745 105.742C57.0958 105.985 57.1891 106.241 57.2545 106.512L56.1485 106.694C56.0831 106.498 56.0085 106.325 55.9245 106.176C55.8405 106.027 55.7285 105.905 55.5885 105.812C55.4485 105.709 55.2758 105.635 55.0705 105.588C54.8745 105.532 54.6271 105.504 54.3285 105.504C53.9925 105.504 53.7125 105.537 53.4885 105.602C53.2645 105.658 53.0825 105.737 52.9425 105.84C52.8118 105.943 52.7185 106.059 52.6625 106.19C52.6065 106.311 52.5785 106.442 52.5785 106.582C52.5785 106.731 52.5971 106.867 52.6345 106.988C52.6718 107.1 52.7418 107.203 52.8445 107.296C52.9471 107.38 53.0871 107.455 53.2645 107.52C53.4418 107.585 53.6705 107.641 53.9505 107.688L55.0005 107.856C55.8498 107.996 56.4565 108.239 56.8205 108.584C57.1938 108.929 57.3805 109.433 57.3805 110.096C57.3805 110.404 57.3198 110.689 57.1985 110.95C57.0771 111.202 56.8951 111.426 56.6525 111.622C56.4098 111.809 56.1065 111.953 55.7425 112.056C55.3785 112.168 54.9538 112.224 54.4685 112.224C54.0298 112.224 53.6191 112.182 53.2365 112.098C52.8631 112.014 52.5318 111.883 52.2425 111.706C51.9531 111.519 51.7198 111.277 51.5425 110.978C51.3651 110.679 51.2625 110.315 51.2345 109.886H52.4105ZM59.3609 105.728H58.2409V104.762H59.3609V102.788H60.5789V104.762H62.4969V105.728H60.5789V109.97C60.5789 110.325 60.6583 110.609 60.8169 110.824C60.9756 111.039 61.2183 111.146 61.5449 111.146C61.7503 111.146 61.9276 111.132 62.0769 111.104C62.2356 111.076 62.3803 111.039 62.5109 110.992L62.7209 111.93C62.5343 111.995 62.3289 112.047 62.1049 112.084C61.8903 112.131 61.6336 112.154 61.3349 112.154C60.9243 112.154 60.5929 112.093 60.3409 111.972C60.0889 111.851 59.8883 111.678 59.7389 111.454C59.5896 111.23 59.4869 110.964 59.4309 110.656C59.3843 110.348 59.3609 110.012 59.3609 109.648V105.728ZM71.4196 111.006C71.1583 111.323 70.827 111.599 70.4256 111.832C70.0243 112.056 69.525 112.168 68.9276 112.168C68.5636 112.168 68.2276 112.121 67.9196 112.028C67.621 111.944 67.3596 111.813 67.1356 111.636C66.921 111.449 66.753 111.221 66.6316 110.95C66.5103 110.679 66.4496 110.362 66.4496 109.998C66.4496 109.503 66.5523 109.102 66.7576 108.794C66.9723 108.486 67.2523 108.243 67.5976 108.066C67.9523 107.889 68.349 107.763 68.7876 107.688C69.2263 107.613 69.679 107.567 70.1456 107.548L71.3916 107.506V107.226C71.3916 106.61 71.261 106.167 70.9996 105.896C70.7383 105.625 70.3136 105.49 69.7256 105.49C69.147 105.49 68.7223 105.588 68.4516 105.784C68.181 105.971 68.0036 106.232 67.9196 106.568L66.8136 106.442C66.9443 105.779 67.257 105.299 67.7516 105C68.2463 104.692 68.9183 104.538 69.7676 104.538C70.2903 104.538 70.729 104.603 71.0836 104.734C71.4476 104.855 71.7416 105.033 71.9656 105.266C72.1896 105.499 72.3483 105.789 72.4416 106.134C72.5443 106.479 72.5956 106.867 72.5956 107.296V112H71.4196V111.006ZM71.3916 108.374L70.2296 108.416C69.735 108.435 69.3243 108.481 68.9976 108.556C68.671 108.631 68.4096 108.733 68.2136 108.864C68.027 108.985 67.8916 109.139 67.8076 109.326C67.733 109.513 67.6956 109.727 67.6956 109.97C67.6956 110.334 67.803 110.628 68.0176 110.852C68.2416 111.067 68.6056 111.174 69.1096 111.174C69.8283 111.174 70.3883 110.997 70.7896 110.642C71.191 110.287 71.3916 109.802 71.3916 109.186V108.374ZM83.834 109.55C83.7127 110.381 83.3954 111.034 82.882 111.51C82.3687 111.986 81.6454 112.224 80.712 112.224C80.1614 112.224 79.6714 112.135 79.242 111.958C78.822 111.781 78.4674 111.529 78.178 111.202C77.898 110.866 77.6834 110.465 77.534 109.998C77.394 109.522 77.324 108.99 77.324 108.402C77.324 107.823 77.4034 107.296 77.562 106.82C77.7207 106.344 77.9494 105.938 78.248 105.602C78.5467 105.266 78.9107 105.005 79.34 104.818C79.7694 104.631 80.2547 104.538 80.796 104.538C81.664 104.538 82.336 104.753 82.812 105.182C83.288 105.602 83.5914 106.185 83.722 106.932L82.504 107.156C82.4574 106.923 82.392 106.708 82.308 106.512C82.2334 106.316 82.126 106.148 81.986 106.008C81.846 105.859 81.6734 105.747 81.468 105.672C81.272 105.588 81.034 105.546 80.754 105.546C80.3714 105.546 80.0447 105.621 79.774 105.77C79.5034 105.91 79.2794 106.111 79.102 106.372C78.934 106.624 78.808 106.923 78.724 107.268C78.6494 107.613 78.612 107.982 78.612 108.374C78.612 108.766 78.6494 109.135 78.724 109.48C78.7987 109.825 78.92 110.129 79.088 110.39C79.256 110.642 79.4754 110.843 79.746 110.992C80.0167 111.141 80.348 111.216 80.74 111.216C81.328 111.216 81.762 111.067 82.042 110.768C82.3314 110.469 82.518 110.063 82.602 109.55H83.834ZM88.4936 112.224C87.943 112.224 87.453 112.135 87.0236 111.958C86.5943 111.781 86.2303 111.529 85.9316 111.202C85.633 110.875 85.4043 110.474 85.2456 109.998C85.087 109.522 85.0076 108.99 85.0076 108.402C85.0076 107.814 85.0916 107.282 85.2596 106.806C85.4276 106.33 85.6656 105.924 85.9736 105.588C86.2816 105.252 86.6503 104.995 87.0796 104.818C87.5183 104.631 88.0036 104.538 88.5356 104.538C89.077 104.538 89.5623 104.627 89.9916 104.804C90.421 104.981 90.785 105.238 91.0836 105.574C91.3916 105.901 91.625 106.297 91.7836 106.764C91.9423 107.231 92.0216 107.758 92.0216 108.346C92.0216 108.943 91.9376 109.48 91.7696 109.956C91.611 110.432 91.3776 110.838 91.0696 111.174C90.771 111.51 90.4023 111.771 89.9636 111.958C89.525 112.135 89.035 112.224 88.4936 112.224ZM88.5076 111.216C88.8996 111.216 89.2356 111.146 89.5156 111.006C89.7956 110.866 90.0243 110.67 90.2016 110.418C90.3883 110.166 90.5236 109.867 90.6076 109.522C90.6916 109.167 90.7336 108.78 90.7336 108.36C90.7336 107.949 90.6916 107.571 90.6076 107.226C90.5236 106.881 90.3883 106.587 90.2016 106.344C90.0243 106.092 89.7956 105.896 89.5156 105.756C89.2356 105.616 88.8996 105.546 88.5076 105.546C88.1156 105.546 87.7796 105.616 87.4996 105.756C87.229 105.896 87.0003 106.092 86.8136 106.344C86.6363 106.587 86.5056 106.881 86.4216 107.226C86.3376 107.571 86.2956 107.954 86.2956 108.374C86.2956 108.794 86.3376 109.177 86.4216 109.522C86.5056 109.867 86.6363 110.166 86.8136 110.418C86.991 110.67 87.2196 110.866 87.4996 111.006C87.7796 111.146 88.1156 111.216 88.5076 111.216ZM93.6538 104.762H94.8578V105.868C95.1845 105.42 95.5438 105.089 95.9358 104.874C96.3278 104.65 96.7292 104.538 97.1398 104.538C97.6812 104.538 98.1152 104.655 98.4418 104.888C98.7778 105.121 99.0252 105.457 99.1838 105.896C99.5105 105.448 99.8838 105.112 100.304 104.888C100.724 104.655 101.172 104.538 101.648 104.538C102.357 104.538 102.903 104.734 103.286 105.126C103.678 105.509 103.874 106.129 103.874 106.988V112H102.656V107.268C102.656 106.941 102.628 106.671 102.572 106.456C102.516 106.232 102.432 106.059 102.32 105.938C102.217 105.807 102.086 105.719 101.928 105.672C101.769 105.616 101.587 105.588 101.382 105.588C101.167 105.588 100.943 105.625 100.71 105.7C100.476 105.775 100.248 105.905 100.024 106.092C99.8372 106.251 99.6832 106.442 99.5618 106.666C99.4405 106.89 99.3798 107.147 99.3798 107.436V112H98.1618V107.282C98.1618 106.647 98.0498 106.209 97.8258 105.966C97.6112 105.714 97.2985 105.588 96.8878 105.588C96.4118 105.588 95.9638 105.784 95.5438 106.176C95.3852 106.325 95.2312 106.517 95.0818 106.75C94.9418 106.983 94.8718 107.296 94.8718 107.688V112H93.6538V104.762ZM105.712 104.762H106.916V105.868C107.243 105.42 107.602 105.089 107.994 104.874C108.386 104.65 108.788 104.538 109.198 104.538C109.74 104.538 110.174 104.655 110.5 104.888C110.836 105.121 111.084 105.457 111.242 105.896C111.569 105.448 111.942 105.112 112.362 104.888C112.782 104.655 113.23 104.538 113.706 104.538C114.416 104.538 114.962 104.734 115.344 105.126C115.736 105.509 115.932 106.129 115.932 106.988V112H114.714V107.268C114.714 106.941 114.686 106.671 114.63 106.456C114.574 106.232 114.49 106.059 114.378 105.938C114.276 105.807 114.145 105.719 113.986 105.672C113.828 105.616 113.646 105.588 113.44 105.588C113.226 105.588 113.002 105.625 112.768 105.7C112.535 105.775 112.306 105.905 112.082 106.092C111.896 106.251 111.742 106.442 111.62 106.666C111.499 106.89 111.438 107.147 111.438 107.436V112H110.22V107.282C110.22 106.647 110.108 106.209 109.884 105.966C109.67 105.714 109.357 105.588 108.946 105.588C108.47 105.588 108.022 105.784 107.602 106.176C107.444 106.325 107.29 106.517 107.14 106.75C107 106.983 106.93 107.296 106.93 107.688V112H105.712V104.762ZM124.029 109.97C123.908 110.67 123.595 111.221 123.091 111.622C122.596 112.023 121.882 112.224 120.949 112.224C119.848 112.224 119.003 111.893 118.415 111.23C117.827 110.558 117.533 109.625 117.533 108.43C117.533 107.805 117.617 107.249 117.785 106.764C117.953 106.279 118.186 105.873 118.485 105.546C118.793 105.219 119.157 104.972 119.577 104.804C119.997 104.627 120.454 104.538 120.949 104.538C121.509 104.538 121.99 104.627 122.391 104.804C122.792 104.981 123.119 105.229 123.371 105.546C123.632 105.854 123.824 106.223 123.945 106.652C124.076 107.081 124.141 107.553 124.141 108.066V108.682H118.765C118.765 109.046 118.812 109.387 118.905 109.704C119.008 110.012 119.148 110.283 119.325 110.516C119.512 110.74 119.74 110.917 120.011 111.048C120.282 111.179 120.594 111.244 120.949 111.244C121.556 111.244 121.999 111.132 122.279 110.908C122.559 110.675 122.75 110.362 122.853 109.97H124.029ZM122.923 107.772C122.923 107.427 122.886 107.114 122.811 106.834C122.736 106.554 122.62 106.316 122.461 106.12C122.302 105.915 122.097 105.756 121.845 105.644C121.593 105.532 121.29 105.476 120.935 105.476C120.291 105.476 119.787 105.672 119.423 106.064C119.068 106.456 118.858 107.025 118.793 107.772H122.923ZM125.755 104.762H126.959V105.868C127.314 105.392 127.706 105.051 128.135 104.846C128.565 104.641 129.017 104.538 129.493 104.538C130.315 104.538 130.921 104.762 131.313 105.21C131.715 105.658 131.915 106.316 131.915 107.184V112H130.697V107.422C130.697 106.75 130.576 106.279 130.333 106.008C130.091 105.728 129.717 105.588 129.213 105.588C128.943 105.588 128.672 105.635 128.401 105.728C128.14 105.821 127.902 105.971 127.687 106.176C127.454 106.381 127.277 106.601 127.155 106.834C127.034 107.058 126.973 107.352 126.973 107.716V112H125.755V104.762ZM134.16 105.728H133.04V104.762H134.16V102.788H135.378V104.762H137.296V105.728H135.378V109.97C135.378 110.325 135.457 110.609 135.616 110.824C135.774 111.039 136.017 111.146 136.344 111.146C136.549 111.146 136.726 111.132 136.876 111.104C137.034 111.076 137.179 111.039 137.31 110.992L137.52 111.93C137.333 111.995 137.128 112.047 136.904 112.084C136.689 112.131 136.432 112.154 136.134 112.154C135.723 112.154 135.392 112.093 135.14 111.972C134.888 111.851 134.687 111.678 134.538 111.454C134.388 111.23 134.286 110.964 134.23 110.656C134.183 110.348 134.16 110.012 134.16 109.648V105.728ZM138.728 110.362H140.128V112H138.728V110.362Z" fill="#5A5D72"/>
<path fill-rule="evenodd" clip-rule="evenodd" d="M93.7318 60.7292C87.3649 67.0969 77.9369 68.4726 70.2215 64.9045C69.0826 64.446 68.1488 64.0753 67.261 64.0753C64.7884 64.09 61.7106 66.4876 60.111 64.8899C58.5114 63.2901 60.9108 60.2099 60.9108 57.7223C60.9108 56.8345 60.5549 55.9173 60.0963 54.7761C56.5266 47.062 57.9042 37.6309 64.2712 31.2653C72.399 23.1346 85.604 23.1346 93.7318 31.2632C101.874 39.4066 101.86 52.6005 93.7318 60.7292Z" fill="white" stroke="#5A5D72" stroke-width="2.5" stroke-linecap="round" stroke-linejoin="round"/>
<path d="M87.2071 46.861H87.2258" stroke="#5A5D72" stroke-width="4" stroke-linecap="round" stroke-linejoin="round"/>
<path d="M78.855 46.861H78.8738" stroke="#5A5D72" stroke-width="4" stroke-linecap="round" stroke-linejoin="round"/>
<path d="M70.503 46.861H70.5217" stroke="#5A5D72" stroke-width="4" stroke-linecap="round" stroke-linejoin="round"/>
</svg>
