<svg width="10" height="13" viewBox="0 0 10 13" fill="none" xmlns="http://www.w3.org/2000/svg">
<path d="M0.728141 8.71328L0.726083 8.71591L0.72409 8.7186C0.612958 8.8681 0.364021 8.91205 0.16935 8.7814C0.0135147 8.67683 -0.0333255 8.44379 0.0993803 8.25962C0.297383 8.0198 0.441186 7.73942 0.535638 7.46534C0.63397 7.18 0.679707 6.85576 0.677934 6.53776C0.67616 6.21976 0.626809 5.896 0.5253 5.61168C0.427796 5.33857 0.280874 5.05967 0.0802076 4.82188C-0.054545 4.63907 -0.0103066 4.40557 0.144353 4.29941C0.337556 4.1668 0.586969 4.2082 0.699762 4.35658L0.701785 4.35924L0.703872 4.36185C0.953632 4.6748 1.15848 5.0225 1.2809 5.36363C1.40975 5.76493 1.49182 6.15312 1.49395 6.53361C1.49618 6.93402 1.4559 7.313 1.30126 7.68608C1.13284 8.09239 0.969754 8.40376 0.728141 8.71328Z" fill="#2C304E"/>
<path d="M2.53401 9.45641L2.53889 9.44984L2.54337 9.44302C3.09698 8.60025 3.41631 7.58329 3.4104 6.52386C3.40449 5.46471 3.074 4.4513 2.51128 3.61432C2.38934 3.43056 2.44413 3.21329 2.64968 3.0722C2.78774 2.97744 3.04691 3.01098 3.20068 3.2068C3.836 4.16462 4.21973 5.32249 4.22641 6.51971C4.23332 7.75782 3.86281 8.87812 3.23763 9.84297C3.093 10.0321 2.8716 10.0851 2.68069 9.97792C2.47372 9.83382 2.43589 9.58841 2.53401 9.45641Z" fill="#2C304E"/>
<path d="M5.77484 1.94774L5.7803 1.95798L5.78661 1.96776C6.64749 3.30143 7.12587 4.83979 7.13516 6.50493C7.14444 8.1693 6.68368 9.71178 5.83846 11.0537C5.70888 11.2517 5.49013 11.3075 5.26835 11.2094C5.06651 11.0844 5.01229 10.8773 5.11773 10.6681C5.83655 9.45512 6.28353 8.02578 6.27508 6.5093C6.26665 4.99959 5.85122 3.57255 5.06987 2.35953C4.96415 2.15241 5.0165 1.94613 5.21596 1.8197C5.45659 1.71047 5.69101 1.79052 5.77484 1.94774Z" fill="#2C304E"/>
<path d="M8.324 0.678433L8.32773 0.685424L8.33186 0.692207C9.37508 2.40573 9.98797 4.36479 9.99982 6.49036C10.0117 8.61375 9.42189 10.5771 8.39978 12.2998C8.26997 12.4955 8.05224 12.5503 7.83151 12.4527C7.63031 12.3281 7.5758 12.1219 7.6799 11.9134C8.66456 10.3166 9.19481 8.46665 9.18381 6.49451C9.17278 4.51729 8.57525 2.67453 7.62074 1.09355C7.50115 0.862763 7.58543 0.636723 7.75238 0.556342C7.99743 0.438359 8.23869 0.518438 8.324 0.678433Z" fill="#2C304E"/>
</svg>
