<?xml version="1.0" encoding="UTF-8"?>
<svg width="80px" height="80px" viewBox="0 0 80 80" version="1.1" xmlns="http://www.w3.org/2000/svg" xmlns:xlink="http://www.w3.org/1999/xlink">
    <!-- Generator: Sketch 50.2 (55047) - http://www.bohemiancoding.com/sketch -->
    <title>Icon - </title>
    <desc>Created with Sketch.</desc>
    <defs></defs>
    <g id="Icon---" stroke="none" stroke-width="1" fill="none" fill-rule="evenodd">
        <g id="ic_receipt_black_24px">
            <path d="M60,56.6666667 L20,56.6666667 L20,50 L60,50 L60,56.6666667 Z M60,43.3333333 L20,43.3333333 L20,36.6666667 L60,36.6666667 L60,43.3333333 Z M60,30 L20,30 L20,23.3333333 L60,23.3333333 L60,30 Z M10,73.3333333 L15,68.3333333 L20,73.3333333 L25,68.3333333 L30,73.3333333 L35,68.3333333 L40,73.3333333 L45,68.3333333 L50,73.3333333 L55,68.3333333 L60,73.3333333 L65,68.3333333 L70,73.3333333 L70,6.66666667 L65,11.6666667 L60,6.66666667 L55,11.6666667 L50,6.66666667 L45,11.6666667 L40,6.66666667 L35,11.6666667 L30,6.66666667 L25,11.6666667 L20,6.66666667 L15,11.6666667 L10,6.66666667 L10,73.3333333 Z" id="Shape" fill="#000000" fill-rule="nonzero"></path>
            <polygon id="Shape" points="0 0 80 0 80 80 0 80"></polygon>
            <g id="ic_add_circle_black_24px" transform="translate(40.000000, 40.000000)">
                <polygon id="Shape" points="0 0 40 0 40 40 0 40"></polygon>
                <circle id="Oval-2" stroke="#FFFFFF" stroke-width="2" fill="#FFFFFF" cx="20" cy="20" r="21"></circle>
                <path d="M20,3.33333333 C10.8,3.33333333 3.33333333,10.8 3.33333333,20 C3.33333333,29.2 10.8,36.6666667 20,36.6666667 C29.2,36.6666667 36.6666667,29.2 36.6666667,20 C36.6666667,10.8 29.2,3.33333333 20,3.33333333 Z M28.3333333,21.6666667 L21.6666667,21.6666667 L21.6666667,28.3333333 L18.3333333,28.3333333 L18.3333333,21.6666667 L11.6666667,21.6666667 L11.6666667,18.3333333 L18.3333333,18.3333333 L18.3333333,11.6666667 L21.6666667,11.6666667 L21.6666667,18.3333333 L28.3333333,18.3333333 L28.3333333,21.6666667 Z" id="Shape" fill="#FF3366" fill-rule="nonzero"></path>
            </g>
        </g>
    </g>
</svg>