<?xml version="1.0" encoding="UTF-8"?>
<svg width="73px" height="65px" viewBox="0 0 73 65" version="1.1" xmlns="http://www.w3.org/2000/svg" xmlns:xlink="http://www.w3.org/1999/xlink">
    <!-- Generator: Sketch 50.2 (55047) - http://www.bohemiancoding.com/sketch -->
    <title>Group 3newicon</title>
    <desc>Created with Sketch.</desc>
    <defs></defs>
    <g id="Page-1" stroke="none" stroke-width="1" fill="none" fill-rule="evenodd">
        <g id="Group-3">
            <g id="Group-2" fill="#000000" fill-rule="nonzero">
                <path d="M50.625,4.6875 L47.578125,4.6875 L47.578125,2.34375 C47.578125,1.04929688 46.5288281,0 45.234375,0 C43.9399219,0 42.890625,1.04929688 42.890625,2.34375 L42.890625,4.6875 L32.2265625,4.6875 L32.2265625,2.34375 C32.2265625,1.04929688 31.1772656,0 29.8828125,0 C28.5883594,0 27.5390625,1.04929688 27.5390625,2.34375 L27.5390625,4.6875 L16.9921875,4.6875 L16.9921875,2.34375 C16.9921875,1.04929688 15.9428906,0 14.6484375,0 C13.3539844,0 12.3046875,1.04929688 12.3046875,2.34375 L12.3046875,4.6875 L9.375,4.6875 C4.205625,4.6875 0,8.893125 0,14.0625 L0,50.625 C0,55.794375 4.205625,60 9.375,60 L54.0596591,60 C55.3541122,60 55.3541122,55.3125 54.0596591,55.3125 L9.375,55.3125 C6.7903125,55.3125 4.6875,53.2096875 4.6875,50.625 L4.6875,14.0625 C4.6875,11.4778125 6.7903125,9.375 9.375,9.375 L12.3046875,9.375 L12.3046875,11.71875 C12.3046875,13.0132031 13.3539844,14.0625 14.6484375,14.0625 C15.9428906,14.0625 16.9921875,13.0132031 16.9921875,11.71875 L16.9921875,9.375 L27.5390625,9.375 L27.5390625,11.71875 C27.5390625,13.0132031 28.5883594,14.0625 29.8828125,14.0625 C31.1772656,14.0625 32.2265625,13.0132031 32.2265625,11.71875 L32.2265625,9.375 L42.890625,9.375 L42.890625,11.71875 C42.890625,13.0132031 43.9399219,14.0625 45.234375,14.0625 C46.5288281,14.0625 47.578125,13.0132031 47.578125,11.71875 L47.578125,9.375 L50.625,9.375 C53.2096875,9.375 55.3125,11.4778125 55.3125,14.0625 L55.3125,55.3125 C55.3125,56.6069531 56.3617969,57.65625 57.65625,57.65625 C58.9507031,57.65625 60,56.6069531 60,55.3125 L60,14.0625 C60,8.893125 55.794375,4.6875 50.625,4.6875 Z" id="Shape"></path>
                <circle id="Oval" cx="35.2941176" cy="25.5882353" r="2.64705882"></circle>
                <circle id="Oval" cx="25.5882353" cy="35.4117647" r="2.64705882"></circle>
                <circle id="Oval" cx="14.1176471" cy="25.5882353" r="2.64705882"></circle>
                <circle id="Oval" cx="14.1176471" cy="35.4117647" r="2.64705882"></circle>
                <circle id="Oval" cx="14.1176471" cy="45.8823529" r="2.64705882"></circle>
                <circle id="Oval" cx="25.5882353" cy="45.8823529" r="2.64705882"></circle>
                <circle id="Oval" cx="25.5882353" cy="25.5882353" r="2.64705882"></circle>
            </g>
            <g id="ic_add_circle_black_24px" transform="translate(31.054054, 23.945946)">
                <polygon id="Shape" points="0.667567568 0.667567568 38.7189189 0.667567568 38.7189189 38.7189189 0.667567568 38.7189189"></polygon>
                <circle id="Oval-2" stroke="#FFFFFF" stroke-width="2" fill="#FFFFFF" fill-rule="nonzero" cx="20.027027" cy="20.027027" r="20.027027"></circle>
                <path d="M20.027027,4.00540541 C11.1830919,4.00540541 4.00540541,11.1830919 4.00540541,20.027027 C4.00540541,28.8709621 11.1830919,36.0486486 20.027027,36.0486486 C28.8709621,36.0486486 36.0486486,28.8709621 36.0486486,20.027027 C36.0486486,11.1830919 28.8709621,4.00540541 20.027027,4.00540541 Z M28.0378378,21.6291892 L21.6291892,21.6291892 L21.6291892,28.0378378 L18.4248648,28.0378378 L18.4248648,21.6291892 L12.0162162,21.6291892 L12.0162162,18.4248648 L18.4248648,18.4248648 L18.4248648,12.0162162 L21.6291892,12.0162162 L21.6291892,18.4248648 L28.0378378,18.4248648 L28.0378378,21.6291892 Z" id="Shape" fill="#FF3366" fill-rule="nonzero"></path>
            </g>
        </g>
    </g>
</svg>