<?xml version="1.0" encoding="UTF-8"?>
<svg width="80px" height="80px" viewBox="0 0 80 80" version="1.1" xmlns="http://www.w3.org/2000/svg" xmlns:xlink="http://www.w3.org/1999/xlink">
    <!-- Generator: Sketch 50.2 (55047) - http://www.bohemiancoding.com/sketch -->
    <title>Icon - </title>
    <desc>Created with Sketch.</desc>
    <defs></defs>
    <g id="Icon---" stroke="none" stroke-width="1" fill="none" fill-rule="evenodd">
        <g id="baseline-directions_car-24px">
            <path d="M63.0666667,20.0333333 C62.4,18.0666667 60.5333333,16.6666667 58.3333333,16.6666667 L21.6666667,16.6666667 C19.4666667,16.6666667 17.6333333,18.0666667 16.9333333,20.0333333 L10,40 L10,66.6666667 C10,68.5 11.5,70 13.3333333,70 L16.6666667,70 C18.5,70 20,68.5 20,66.6666667 L20,63.3333333 L60,63.3333333 L60,66.6666667 C60,68.5 61.5,70 63.3333333,70 L66.6666667,70 C68.5,70 70,68.5 70,66.6666667 L70,40 L63.0666667,20.0333333 Z M21.6666667,53.3333333 C18.9,53.3333333 16.6666667,51.1 16.6666667,48.3333333 C16.6666667,45.5666667 18.9,43.3333333 21.6666667,43.3333333 C24.4333333,43.3333333 26.6666667,45.5666667 26.6666667,48.3333333 C26.6666667,51.1 24.4333333,53.3333333 21.6666667,53.3333333 Z M58.3333333,53.3333333 C55.5666667,53.3333333 53.3333333,51.1 53.3333333,48.3333333 C53.3333333,45.5666667 55.5666667,43.3333333 58.3333333,43.3333333 C61.1,43.3333333 63.3333333,45.5666667 63.3333333,48.3333333 C63.3333333,51.1 61.1,53.3333333 58.3333333,53.3333333 Z M16.6666667,36.6666667 L21.6666667,21.6666667 L58.3333333,21.6666667 L63.3333333,36.6666667 L16.6666667,36.6666667 Z" id="Shape" fill="#000000" fill-rule="nonzero"></path>
            <polygon id="Shape" points="0 0 80 0 80 80 0 80"></polygon>
            <g id="ic_add_circle_black_24px-copy" transform="translate(40.000000, 40.000000)">
                <polygon id="Shape" points="0 0 40 0 40 40 0 40"></polygon>
                <circle id="Oval-2" stroke="#FFFFFF" stroke-width="2" fill="#FFFFFF" cx="20" cy="20" r="21"></circle>
                <path d="M20,3.33333333 C10.8,3.33333333 3.33333333,10.8 3.33333333,20 C3.33333333,29.2 10.8,36.6666667 20,36.6666667 C29.2,36.6666667 36.6666667,29.2 36.6666667,20 C36.6666667,10.8 29.2,3.33333333 20,3.33333333 Z M28.3333333,21.6666667 L21.6666667,21.6666667 L21.6666667,28.3333333 L18.3333333,28.3333333 L18.3333333,21.6666667 L11.6666667,21.6666667 L11.6666667,18.3333333 L18.3333333,18.3333333 L18.3333333,11.6666667 L21.6666667,11.6666667 L21.6666667,18.3333333 L28.3333333,18.3333333 L28.3333333,21.6666667 Z" id="Shape" fill="#FF3366" fill-rule="nonzero"></path>
            </g>
        </g>
    </g>
</svg>