<svg width="24" height="24" viewBox="0 0 24 24" fill="none" xmlns="http://www.w3.org/2000/svg">
<path fill-rule="evenodd" clip-rule="evenodd" d="M8.66667 6.35897C8.66667 5.93414 9.01106 5.58974 9.4359 5.58974H16.6154C17.6067 5.58974 18.4103 6.39334 18.4103 7.38462V14.5641C18.4103 14.9889 18.0659 15.3333 17.641 15.3333C17.2162 15.3333 16.8718 14.9889 16.8718 14.5641V7.38462C16.8718 7.243 16.757 7.1282 16.6154 7.1282H9.4359C9.01106 7.1282 8.66667 6.78381 8.66667 6.35897Z" fill="black"/>
<path d="M7.1282 2.76923C7.1282 2.3444 6.78381 2 6.35897 2C5.93414 2 5.58974 2.3444 5.58974 2.76923V5.58974H2.76923C2.3444 5.58974 2 5.93414 2 6.35897C2 6.78381 2.3444 7.1282 2.76923 7.1282H5.58974V16.6154C5.58974 17.6067 6.39334 18.4103 7.38462 18.4103H16.8718V21.2308C16.8718 21.6556 17.2162 22 17.641 22C18.0659 22 18.4103 21.6556 18.4103 21.2308V18.4103H21.2308C21.6556 18.4103 22 18.0659 22 17.641C22 17.2162 21.6556 16.8718 21.2308 16.8718H7.38462C7.243 16.8718 7.1282 16.757 7.1282 16.6154V2.76923Z" fill="black"/>
</svg>
