<svg viewBox="0 0 24 24" xmlns="http://www.w3.org/2000/svg">
<path fill-rule="evenodd" clip-rule="evenodd" d="M12.0001 3.50006C7.30531 3.50006 3.50009 7.30527 3.50009 12.0001C3.50009 16.6939 7.30536 20.5001 12.0001 20.5001C16.6939 20.5001 20.5001 16.6938 20.5001 12.0001C20.5001 7.30533 16.6939 3.50006 12.0001 3.50006ZM2.00009 12.0001C2.00009 6.47685 6.47688 2.00006 12.0001 2.00006C17.5223 2.00006 22.0001 6.47679 22.0001 12.0001C22.0001 17.5223 17.5223 22.0001 12.0001 22.0001C6.47682 22.0001 2.00009 17.5222 2.00009 12.0001Z"/>
<path fill-rule="evenodd" clip-rule="evenodd" d="M11.9952 7.45416C12.4094 7.45416 12.7452 7.78995 12.7452 8.20416V12.6232C12.7452 13.0374 12.4094 13.3732 11.9952 13.3732C11.581 13.3732 11.2452 13.0374 11.2452 12.6232V8.20416C11.2452 7.78995 11.581 7.45416 11.9952 7.45416Z"/>
<path fill-rule="evenodd" clip-rule="evenodd" d="M10.995 15.7961C10.995 15.2438 11.4427 14.7961 11.995 14.7961H12.005C12.5573 14.7961 13.005 15.2438 13.005 15.7961C13.005 16.3483 12.5573 16.7961 12.005 16.7961H11.995C11.4427 16.7961 10.995 16.3483 10.995 15.7961Z"/>
</svg>
