<svg width="24" height="24" viewBox="0 0 24 24" fill="none" xmlns="http://www.w3.org/2000/svg">
<path fill-rule="evenodd" clip-rule="evenodd" d="M3.59257 4.75839C3.54151 5.16337 3.53847 5.67158 3.53847 6.35897C3.53847 7.04909 3.53898 7.55757 3.58754 7.96466C3.6354 8.3658 3.72041 8.5652 3.81509 8.68392C3.90056 8.79108 4.06395 8.91994 4.46522 9.02014C4.87878 9.12341 5.47883 9.17949 6.35898 9.17949C7.23912 9.17949 7.83917 9.12341 8.25273 9.02014C8.65401 8.91994 8.8174 8.79108 8.90286 8.68392C8.99754 8.5652 9.08256 8.3658 9.13041 7.96466C9.17898 7.55757 9.17949 7.04909 9.17949 6.35897C9.17949 5.67158 9.17644 5.16337 9.12539 4.75839C9.07508 4.35941 8.98794 4.15822 8.89041 4.0373C8.80152 3.92706 8.63453 3.79775 8.23512 3.69764C7.82349 3.59447 7.2285 3.53846 6.35898 3.53846C5.48946 3.53846 4.89447 3.59447 4.48283 3.69764C4.08342 3.79775 3.91644 3.92706 3.82754 4.0373C3.73002 4.15822 3.64287 4.35941 3.59257 4.75839ZM4.10881 2.20534C4.70409 2.05614 5.44804 2 6.35898 2C7.26991 2 8.01387 2.05614 8.60915 2.20534C9.21665 2.3576 9.72454 2.62088 10.088 3.07151C10.4428 3.51146 10.5854 4.03943 10.6518 4.56595C10.7174 5.08647 10.7179 5.7001 10.7179 6.35897C10.7179 6.37832 10.718 6.39762 10.718 6.41689C10.718 7.0512 10.7181 7.64378 10.658 8.1469C10.5955 8.67127 10.4583 9.20101 10.1057 9.64316C9.74382 10.0969 9.23485 10.3606 8.62544 10.5128C8.02832 10.6619 7.27938 10.7179 6.35898 10.7179C5.43858 10.7179 4.68963 10.6619 4.09251 10.5128C3.48311 10.3606 2.97413 10.0969 2.6123 9.64316C2.25968 9.20101 2.12247 8.67127 2.05991 8.1469C1.9999 7.64378 1.99995 7.0512 2 6.41689C2 6.39762 2.00001 6.37832 2.00001 6.35897C2.00001 5.7001 2.00057 5.08647 2.06619 4.56595C2.13257 4.03943 2.27519 3.51146 2.62999 3.07151C2.99341 2.62088 3.50131 2.3576 4.10881 2.20534Z" fill="currentColor"/>
<path fill-rule="evenodd" clip-rule="evenodd" d="M14.8746 4.75839C14.8236 5.16337 14.8205 5.67158 14.8205 6.35897C14.8205 7.04909 14.821 7.55757 14.8696 7.96466C14.9174 8.3658 15.0025 8.5652 15.0971 8.68392C15.1826 8.79108 15.346 8.91994 15.7473 9.02014C16.1608 9.12341 16.7609 9.17949 17.641 9.17949C18.5212 9.17949 19.1212 9.12341 19.5348 9.02014C19.9361 8.91994 20.0994 8.79108 20.1849 8.68392C20.2796 8.5652 20.3646 8.3658 20.4125 7.96466C20.461 7.55757 20.4615 7.04909 20.4615 6.35897C20.4615 5.67158 20.4585 5.16337 20.4074 4.75839C20.3571 4.35941 20.27 4.15822 20.1725 4.0373C20.0836 3.92706 19.9166 3.79775 19.5172 3.69764C19.1055 3.59447 18.5105 3.53846 17.641 3.53846C16.7715 3.53846 16.1765 3.59447 15.7649 3.69764C15.3655 3.79775 15.1985 3.92706 15.1096 4.0373C15.0121 4.15822 14.9249 4.35941 14.8746 4.75839ZM15.3909 2.20534C15.9861 2.05614 16.7301 2 17.641 2C18.552 2 19.2959 2.05614 19.8912 2.20534C20.4987 2.3576 21.0066 2.62088 21.37 3.07151C21.7248 3.51146 21.8674 4.03943 21.9338 4.56595C21.9994 5.08647 22 5.7001 22 6.35897C22 6.37832 22 6.39762 22 6.41689C22.0001 7.0512 22.0001 7.64378 21.9401 8.1469C21.8775 8.67127 21.7403 9.20101 21.3877 9.64316C21.0259 10.0969 20.5169 10.3606 19.9075 10.5128C19.3104 10.6619 18.5614 10.7179 17.641 10.7179C16.7206 10.7179 15.9717 10.6619 15.3746 10.5128C14.7652 10.3606 14.2562 10.0969 13.8943 9.64316C13.5417 9.20101 13.4045 8.67127 13.342 8.1469C13.2819 7.64378 13.282 7.0512 13.282 6.41689C13.282 6.39762 13.2821 6.37832 13.2821 6.35897C13.2821 5.7001 13.2826 5.08647 13.3482 4.56595C13.4146 4.03943 13.5572 3.51146 13.912 3.07151C14.2755 2.62088 14.7834 2.3576 15.3909 2.20534Z" fill="currentColor"/>
<path fill-rule="evenodd" clip-rule="evenodd" d="M3.59257 16.0404C3.54151 16.4454 3.53847 16.9536 3.53847 17.641C3.53847 18.3311 3.53898 18.8396 3.58754 19.2467C3.6354 19.6479 3.72041 19.8473 3.81509 19.966C3.90056 20.0731 4.06395 20.202 4.46522 20.3022C4.87878 20.4055 5.47883 20.4615 6.35898 20.4615C7.23912 20.4615 7.83917 20.4055 8.25273 20.3022C8.65401 20.202 8.8174 20.0731 8.90286 19.966C8.99754 19.8473 9.08256 19.6479 9.13041 19.2467C9.17898 18.8396 9.17949 18.3311 9.17949 17.641C9.17949 16.9536 9.17644 16.4454 9.12539 16.0404C9.07508 15.6415 8.98794 15.4403 8.89041 15.3193C8.80152 15.2091 8.63453 15.0798 8.23512 14.9797C7.82349 14.8765 7.2285 14.8205 6.35898 14.8205C5.48946 14.8205 4.89447 14.8765 4.48283 14.9797C4.08342 15.0798 3.91644 15.2091 3.82754 15.3193C3.73002 15.4403 3.64287 15.6415 3.59257 16.0404ZM4.10881 13.4874C4.70409 13.3382 5.44804 13.2821 6.35898 13.2821C7.26991 13.2821 8.01387 13.3382 8.60915 13.4874C9.21665 13.6397 9.72454 13.9029 10.088 14.3536C10.4428 14.7935 10.5854 15.3215 10.6518 15.848C10.7174 16.3685 10.7179 16.9822 10.7179 17.641C10.7179 17.6604 10.718 17.6797 10.718 17.6989C10.718 18.3333 10.7181 18.9258 10.658 19.4289C10.5955 19.9533 10.4583 20.4831 10.1057 20.9252C9.74382 21.3789 9.23485 21.6427 8.62544 21.7948C8.02832 21.9439 7.27938 22 6.35898 22C5.43858 22 4.68963 21.9439 4.09251 21.7948C3.48311 21.6427 2.97413 21.3789 2.6123 20.9252C2.25968 20.4831 2.12247 19.9533 2.05991 19.4289C1.9999 18.9258 1.99995 18.3333 2 17.6989C2 17.6797 2.00001 17.6604 2.00001 17.641C2.00001 16.9822 2.00057 16.3685 2.06619 15.848C2.13257 15.3215 2.27519 14.7935 2.62999 14.3536C2.99341 13.9029 3.50131 13.6397 4.10881 13.4874Z" fill="currentColor"/>
<path fill-rule="evenodd" clip-rule="evenodd" d="M14.8746 16.0404C14.8236 16.4454 14.8205 16.9536 14.8205 17.641C14.8205 18.3311 14.821 18.8396 14.8696 19.2467C14.9174 19.6479 15.0025 19.8473 15.0971 19.966C15.1826 20.0731 15.346 20.202 15.7473 20.3022C16.1608 20.4055 16.7609 20.4615 17.641 20.4615C18.5212 20.4615 19.1212 20.4055 19.5348 20.3022C19.9361 20.202 20.0994 20.0731 20.1849 19.966C20.2796 19.8473 20.3646 19.6479 20.4125 19.2467C20.461 18.8396 20.4615 18.3311 20.4615 17.641C20.4615 16.9536 20.4585 16.4454 20.4074 16.0404C20.3571 15.6415 20.27 15.4403 20.1725 15.3193C20.0836 15.2091 19.9166 15.0798 19.5172 14.9797C19.1055 14.8765 18.5105 14.8205 17.641 14.8205C16.7715 14.8205 16.1765 14.8765 15.7649 14.9797C15.3655 15.0798 15.1985 15.2091 15.1096 15.3193C15.0121 15.4403 14.9249 15.6415 14.8746 16.0404ZM15.3909 13.4874C15.9861 13.3382 16.7301 13.2821 17.641 13.2821C18.552 13.2821 19.2959 13.3382 19.8912 13.4874C20.4987 13.6397 21.0066 13.9029 21.37 14.3536C21.7248 14.7935 21.8674 15.3215 21.9338 15.848C21.9994 16.3685 22 16.9822 22 17.641C22 17.6604 22 17.6797 22 17.6989C22.0001 18.3333 22.0001 18.9258 21.9401 19.4289C21.8775 19.9533 21.7403 20.4831 21.3877 20.9252C21.0259 21.3789 20.5169 21.6427 19.9075 21.7948C19.3104 21.9439 18.5614 22 17.641 22C16.7206 22 15.9717 21.9439 15.3746 21.7948C14.7652 21.6427 14.2562 21.3789 13.8943 20.9252C13.5417 20.4831 13.4045 19.9533 13.342 19.4289C13.2819 18.9258 13.282 18.3333 13.282 17.6989C13.282 17.6797 13.2821 17.6604 13.2821 17.641C13.2821 16.9822 13.2826 16.3685 13.3482 15.848C13.4146 15.3215 13.5572 14.7935 13.912 14.3536C14.2755 13.9029 14.7834 13.6397 15.3909 13.4874Z" fill="currentColor"/>
</svg>
