<svg viewBox="0 0 22 22" fill="none" xmlns="http://www.w3.org/2000/svg">
<path fill-rule="evenodd" clip-rule="evenodd" d="M3.51923 15.7252C3.31678 15.9373 3.20776 16.1853 3.20776 16.5173C3.20776 16.8476 3.31677 17.0932 3.51937 17.3032C3.73837 17.5302 4.09198 17.7392 4.60578 17.911C5.64032 18.257 7.11513 18.3854 8.7921 18.3854C10.477 18.3854 11.9511 18.2523 12.9825 17.9024C13.4946 17.7287 13.8469 17.5181 14.0652 17.2897C14.2675 17.0779 14.3764 16.8304 14.3764 16.4989C14.3764 16.1689 14.2674 15.9231 14.0645 15.7126C13.8453 15.4852 13.4914 15.2758 12.9776 15.1035C11.943 14.7566 10.4682 14.6271 8.7921 14.6271C7.10691 14.6271 5.63296 14.7609 4.60178 15.1114C4.0898 15.2854 3.73753 15.4965 3.51923 15.7252ZM4.15926 13.8096C5.41357 13.3832 7.07554 13.2521 8.7921 13.2521C10.4976 13.2521 12.1587 13.3787 13.4146 13.7998C14.0461 14.0115 14.6261 14.314 15.0545 14.7583C15.4991 15.2196 15.7514 15.8055 15.7514 16.4989C15.7514 17.1909 15.5015 17.7768 15.0592 18.2396C14.6329 18.6858 14.0549 18.9906 13.4242 19.2046C12.1699 19.63 10.508 19.7604 8.7921 19.7604C7.08657 19.7604 5.42545 19.635 4.16971 19.215C3.53836 19.0039 2.95823 18.702 2.52977 18.2578C2.08492 17.7967 1.83276 17.2108 1.83276 16.5173C1.83276 15.8253 2.08251 15.2391 2.5245 14.7759C2.95064 14.3294 3.5285 14.024 4.15926 13.8096Z" fill="currentColor"/>
<path fill-rule="evenodd" clip-rule="evenodd" d="M8.7921 3.6665C6.95142 3.6665 5.4591 5.15832 5.4591 6.99859C5.4591 8.83885 6.95142 10.3307 8.7921 10.3307H8.81907C10.6511 10.3232 12.131 8.83267 12.1242 7.00115L12.1242 6.99859C12.1242 5.15822 10.6318 3.6665 8.7921 3.6665ZM4.0841 6.99859C4.0841 4.39852 6.19244 2.2915 8.7921 2.2915C11.3905 2.2915 13.4984 4.39786 13.4992 6.99718C13.5082 9.58859 11.414 11.696 8.82308 11.7057L8.82051 11.7057H8.7921C6.19244 11.7057 4.0841 9.59865 4.0841 6.99859Z" fill="currentColor"/>
<path fill-rule="evenodd" clip-rule="evenodd" d="M14.4997 3.88872C14.5612 3.51403 14.9147 3.2601 15.2894 3.32155C17.0527 3.61075 18.3975 5.14002 18.3975 6.98465L18.3975 6.98589C18.3941 8.8574 17.0068 10.4024 15.2051 10.6556C14.8291 10.7085 14.4814 10.4465 14.4286 10.0705C14.3757 9.6945 14.6377 9.34685 15.0137 9.29401C16.147 9.13475 17.0201 8.16108 17.0225 6.98402C17.0222 5.82411 16.1762 4.86036 15.0669 4.67842C14.6922 4.61697 14.4383 4.26341 14.4997 3.88872Z" fill="currentColor"/>
<path fill-rule="evenodd" clip-rule="evenodd" d="M16.3657 13.4033C16.4216 13.0277 16.7714 12.7686 17.1469 12.8245C17.8951 12.936 18.6144 13.1326 19.1632 13.4927C19.7466 13.8754 20.1477 14.4564 20.1477 15.2416C20.1477 15.7628 19.9694 16.2161 19.6469 16.5806C19.3371 16.9307 18.9216 17.1691 18.4815 17.3363C18.1265 17.4711 17.7295 17.2927 17.5946 16.9378C17.4598 16.5828 17.6383 16.1858 17.9932 16.0509C18.3084 15.9312 18.5043 15.797 18.6171 15.6695C18.7172 15.5564 18.7727 15.4272 18.7727 15.2416C18.7727 15.0002 18.6774 14.8185 18.4089 14.6423C18.1059 14.4435 17.618 14.2849 16.9444 14.1845C16.5688 14.1286 16.3097 13.7788 16.3657 13.4033Z" fill="currentColor"/>
</svg>
