<svg width="14" height="14" viewBox="0 0 14 14" fill="none" xmlns="http://www.w3.org/2000/svg">
<path fill-rule="evenodd" clip-rule="evenodd" d="M5.6701 1.40039H8.4701C9.08866 1.40039 9.5901 1.90183 9.5901 2.52039V2.80039H11.6201C11.8521 2.80039 12.0401 2.98843 12.0401 3.22039C12.0401 3.42915 11.8878 3.60234 11.6882 3.63489L11.6201 3.64039H11.2324C11.257 3.72953 11.2701 3.82343 11.2701 3.92039V11.6204C11.2701 12.2003 10.8 12.6704 10.2201 12.6704H3.9201C3.3402 12.6704 2.8701 12.2003 2.8701 11.6204V3.92039C2.8701 3.82343 2.88324 3.72953 2.90784 3.64039H2.5201C2.28814 3.64039 2.1001 3.45235 2.1001 3.22039C2.1001 3.01163 2.25241 2.83844 2.45197 2.80589L2.5201 2.80039H4.5501V2.52039C4.5501 1.90183 5.05154 1.40039 5.6701 1.40039ZM5.3901 2.80039H8.7501V2.52039C8.7501 2.38508 8.65412 2.27219 8.52653 2.24608L8.4701 2.24039H5.6701C5.51546 2.24039 5.3901 2.36575 5.3901 2.52039V2.80039ZM3.71006 3.64039C3.62507 3.70425 3.5701 3.8059 3.5701 3.92039V11.6204C3.5701 11.8137 3.7268 11.9704 3.9201 11.9704H10.2201C10.4134 11.9704 10.5701 11.8137 10.5701 11.6204V3.92039C10.5701 3.8059 10.5151 3.70425 10.4301 3.64039H9.5901H4.5501H3.71006ZM8.4701 4.90039C8.67886 4.90039 8.85205 5.0527 8.8846 5.25226L8.8901 5.32039V9.52039C8.8901 9.75235 8.70206 9.94039 8.4701 9.94039C8.26133 9.94039 8.08814 9.78808 8.05559 9.58852L8.0501 9.52039V5.32039C8.0501 5.08843 8.23814 4.90039 8.4701 4.90039ZM6.0846 5.25226C6.05205 5.0527 5.87886 4.90039 5.6701 4.90039C5.43814 4.90039 5.2501 5.08843 5.2501 5.32039V9.52039L5.25559 9.58852C5.28814 9.78808 5.46133 9.94039 5.6701 9.94039C5.90206 9.94039 6.0901 9.75235 6.0901 9.52039V5.32039L6.0846 5.25226Z" fill="black"/>
<mask id="mask0" style="mask-type:alpha" maskUnits="userSpaceOnUse" x="2" y="1" width="11" height="12">
<path fill-rule="evenodd" clip-rule="evenodd" d="M5.6701 1.40039H8.4701C9.08866 1.40039 9.5901 1.90183 9.5901 2.52039V2.80039H11.6201C11.8521 2.80039 12.0401 2.98843 12.0401 3.22039C12.0401 3.42915 11.8878 3.60234 11.6882 3.63489L11.6201 3.64039H11.2324C11.257 3.72953 11.2701 3.82343 11.2701 3.92039V11.6204C11.2701 12.2003 10.8 12.6704 10.2201 12.6704H3.9201C3.3402 12.6704 2.8701 12.2003 2.8701 11.6204V3.92039C2.8701 3.82343 2.88324 3.72953 2.90784 3.64039H2.5201C2.28814 3.64039 2.1001 3.45235 2.1001 3.22039C2.1001 3.01163 2.25241 2.83844 2.45197 2.80589L2.5201 2.80039H4.5501V2.52039C4.5501 1.90183 5.05154 1.40039 5.6701 1.40039ZM5.3901 2.80039H8.7501V2.52039C8.7501 2.38508 8.65412 2.27219 8.52653 2.24608L8.4701 2.24039H5.6701C5.51546 2.24039 5.3901 2.36575 5.3901 2.52039V2.80039ZM3.71006 3.64039C3.62507 3.70425 3.5701 3.8059 3.5701 3.92039V11.6204C3.5701 11.8137 3.7268 11.9704 3.9201 11.9704H10.2201C10.4134 11.9704 10.5701 11.8137 10.5701 11.6204V3.92039C10.5701 3.8059 10.5151 3.70425 10.4301 3.64039H9.5901H4.5501H3.71006ZM8.4701 4.90039C8.67886 4.90039 8.85205 5.0527 8.8846 5.25226L8.8901 5.32039V9.52039C8.8901 9.75235 8.70206 9.94039 8.4701 9.94039C8.26133 9.94039 8.08814 9.78808 8.05559 9.58852L8.0501 9.52039V5.32039C8.0501 5.08843 8.23814 4.90039 8.4701 4.90039ZM6.0846 5.25226C6.05205 5.0527 5.87886 4.90039 5.6701 4.90039C5.43814 4.90039 5.2501 5.08843 5.2501 5.32039V9.52039L5.25559 9.58852C5.28814 9.78808 5.46133 9.94039 5.6701 9.94039C5.90206 9.94039 6.0901 9.75235 6.0901 9.52039V5.32039L6.0846 5.25226Z" fill="white"/>
</mask>
<g mask="url(#mask0)">
<rect width="14" height="14" fill="#414562"/>
</g>
</svg>
