<svg width="24" height="24" viewBox="0 0 24 24" fill="none" xmlns="http://www.w3.org/2000/svg">
<path fill-rule="evenodd" clip-rule="evenodd" d="M12.0001 3.5C7.30534 3.5 3.50012 7.30521 3.50012 12C3.50012 16.6938 7.30539 20.5 12.0001 20.5C16.6939 20.5 20.5001 16.6938 20.5001 12C20.5001 7.30527 16.694 3.5 12.0001 3.5ZM2.00012 12C2.00012 6.47679 6.47691 2 12.0001 2C17.5223 2 22.0001 6.47673 22.0001 12C22.0001 17.5222 17.5223 22 12.0001 22C6.47686 22 2.00012 17.5222 2.00012 12Z" fill="#585D74"/>
<path fill-rule="evenodd" clip-rule="evenodd" d="M16.4694 7.46986C16.1765 7.17697 15.7017 7.17697 15.4088 7.46986L11.9394 10.9393L8.53062 7.53052C8.23773 7.23763 7.76286 7.23763 7.46996 7.53052C7.17707 7.82342 7.17707 8.29829 7.46996 8.59118L10.8787 11.9999L7.46969 15.4089C7.1768 15.7018 7.1768 16.1767 7.46969 16.4696C7.76258 16.7625 8.23746 16.7625 8.53035 16.4696L11.9394 13.0606L15.409 16.5303C15.7019 16.8231 16.1768 16.8231 16.4697 16.5303C16.7626 16.2374 16.7626 15.7625 16.4697 15.4696L13 11.9999L16.4694 8.53052C16.7623 8.23763 16.7623 7.76276 16.4694 7.46986Z" fill="#585D74"/>
</svg>
