<svg xmlns="http://www.w3.org/2000/svg">
<mask id="path-1-inside-1" fill="white">
<path fill-rule="evenodd" clip-rule="evenodd" d="M8 3.25C7.58579 3.25 7.25 3.58579 7.25 4C7.25 4.41421 7.58579 4.75 8 4.75H15C16.2426 4.75 17.25 5.75736 17.25 7V17C17.25 17.4142 17.5858 17.75 18 17.75C18.4142 17.75 18.75 17.4142 18.75 17V7C18.75 4.92893 17.0711 3.25 15 3.25H8ZM7 7.5H13C13.8284 7.5 14.5 8.17157 14.5 9V18C14.5 18.8284 13.8284 19.5 13 19.5H7C6.17157 19.5 5.5 18.8284 5.5 18V9C5.5 8.17157 6.17157 7.5 7 7.5ZM4 9C4 7.34315 5.34315 6 7 6H13C14.6569 6 16 7.34315 16 9V18C16 19.6569 14.6569 21 13 21H7C5.34315 21 4 19.6569 4 18V9Z"/>
</mask>
<path fill-rule="evenodd" clip-rule="evenodd" d="M8 3.25C7.58579 3.25 7.25 3.58579 7.25 4C7.25 4.41421 7.58579 4.75 8 4.75H15C16.2426 4.75 17.25 5.75736 17.25 7V17C17.25 17.4142 17.5858 17.75 18 17.75C18.4142 17.75 18.75 17.4142 18.75 17V7C18.75 4.92893 17.0711 3.25 15 3.25H8ZM7 7.5H13C13.8284 7.5 14.5 8.17157 14.5 9V18C14.5 18.8284 13.8284 19.5 13 19.5H7C6.17157 19.5 5.5 18.8284 5.5 18V9C5.5 8.17157 6.17157 7.5 7 7.5ZM4 9C4 7.34315 5.34315 6 7 6H13C14.6569 6 16 7.34315 16 9V18C16 19.6569 14.6569 21 13 21H7C5.34315 21 4 19.6569 4 18V9Z" fill="white"/>
<path d="M8.75 4C8.75 4.41421 8.41421 4.75 8 4.75V1.75C6.75736 1.75 5.75 2.75736 5.75 4H8.75ZM8 3.25C8.41421 3.25 8.75 3.58579 8.75 4H5.75C5.75 5.24264 6.75736 6.25 8 6.25V3.25ZM15 3.25H8V6.25H15V3.25ZM18.75 7C18.75 4.92893 17.0711 3.25 15 3.25V6.25C15.4142 6.25 15.75 6.58579 15.75 7H18.75ZM18.75 17V7H15.75V17H18.75ZM18 16.25C18.4142 16.25 18.75 16.5858 18.75 17H15.75C15.75 18.2426 16.7574 19.25 18 19.25V16.25ZM17.25 17C17.25 16.5858 17.5858 16.25 18 16.25V19.25C19.2426 19.25 20.25 18.2426 20.25 17H17.25ZM17.25 7V17H20.25V7H17.25ZM15 4.75C16.2426 4.75 17.25 5.75736 17.25 7H20.25C20.25 4.1005 17.8995 1.75 15 1.75V4.75ZM8 4.75H15V1.75H8V4.75ZM13 6H7V9H13V6ZM16 9C16 7.34315 14.6569 6 13 6V9H16ZM16 18V9H13V18H16ZM13 21C14.6569 21 16 19.6569 16 18H13V21ZM7 21H13V18H7V21ZM4 18C4 19.6569 5.34315 21 7 21V18H4ZM4 9V18H7V9H4ZM7 6C5.34315 6 4 7.34315 4 9H7V6ZM7 4.5C4.51472 4.5 2.5 6.51472 2.5 9H5.5C5.5 8.17157 6.17157 7.5 7 7.5V4.5ZM13 4.5H7V7.5H13V4.5ZM17.5 9C17.5 6.51472 15.4853 4.5 13 4.5V7.5C13.8284 7.5 14.5 8.17157 14.5 9H17.5ZM17.5 18V9H14.5V18H17.5ZM13 22.5C15.4853 22.5 17.5 20.4853 17.5 18H14.5C14.5 18.8284 13.8284 19.5 13 19.5V22.5ZM7 22.5H13V19.5H7V22.5ZM2.5 18C2.5 20.4853 4.51472 22.5 7 22.5V19.5C6.17157 19.5 5.5 18.8284 5.5 18H2.5ZM2.5 9V18H5.5V9H2.5Z" fill="currentColor" mask="url(#path-1-inside-1)"/>
</svg>
