<svg width="24" height="24" viewBox="0 0 24 24" fill="none" xmlns="http://www.w3.org/2000/svg">
<path fill-rule="evenodd" clip-rule="evenodd" d="M8.33898 2C7.88967 2 7.52542 2.37835 7.52542 2.84507C7.52542 3.31179 7.88967 3.69014 8.33898 3.69014H15.9322C17.2802 3.69014 18.3729 4.82519 18.3729 6.22535V17.493C18.3729 17.9597 18.7371 18.338 19.1864 18.338C19.6358 18.338 20 17.9597 20 17.493V6.22535C20 3.89175 18.1788 2 15.9322 2H8.33898ZM7.25424 6.78873H13.7627C14.6613 6.78873 15.3898 7.54543 15.3898 8.47887V18.6197C15.3898 19.5532 14.6613 20.3099 13.7627 20.3099H7.25424C6.3556 20.3099 5.62712 19.5532 5.62712 18.6197V8.47887C5.62712 7.54543 6.3556 6.78873 7.25424 6.78873ZM4 8.47887C4 6.61199 5.45697 5.09859 7.25424 5.09859H13.7627C15.56 5.09859 17.017 6.612 17.017 8.47887V18.6197C17.017 20.4866 15.56 22 13.7627 22H7.25424C5.45697 22 4 20.4866 4 18.6197V8.47887Z" fill="currentColor"/>
<path fill-rule="evenodd" clip-rule="evenodd" d="M7.73258 3.40845C7.60376 3.25894 7.52542 3.06151 7.52542 2.84507C7.52542 2.37835 7.88967 2 8.33898 2H15.9322C18.1788 2 20 3.89175 20 6.22535V17.493C20 17.9597 19.6358 18.338 19.1864 18.338C18.9781 18.338 18.788 18.2567 18.6441 18.1228C18.4776 17.9681 18.3729 17.7432 18.3729 17.493V6.22535C18.3729 4.82519 17.2802 3.69014 15.9322 3.69014H8.33898C8.09803 3.69014 7.88155 3.58134 7.73258 3.40845ZM17.0168 18.6552C17.0169 18.6434 17.017 18.6316 17.017 18.6197V8.47887C17.017 7.99775 16.9202 7.54011 16.7458 7.1258C16.4178 6.34677 15.8153 5.72094 15.0653 5.38028C14.6665 5.19911 14.2259 5.09859 13.7627 5.09859H7.25424C7.24284 5.09859 7.23145 5.09865 7.22008 5.09877C5.43855 5.1178 4 6.62384 4 8.47887V18.6197C4 20.4866 5.45697 22 7.25424 22H13.7627C15.5486 22 16.9985 20.5057 17.0168 18.6552ZM7.25424 6.78873C6.3556 6.78873 5.62712 7.54543 5.62712 8.47887V18.6197C5.62712 19.5532 6.3556 20.3099 7.25424 20.3099H13.7627C14.6613 20.3099 15.3898 19.5532 15.3898 18.6197V8.47887C15.3898 7.54543 14.6613 6.78873 13.7627 6.78873H7.25424Z" fill="currentColor"/>
</svg>
