<svg viewBox="0 0 24 24" fill="none" xmlns="http://www.w3.org/2000/svg">
<path fill-rule="evenodd" clip-rule="evenodd" d="M20.7508 21.9397H13.4978C13.0838 21.9397 12.7478 21.6037 12.7478 21.1897C12.7478 20.7757 13.0838 20.4397 13.4978 20.4397H20.7508C21.1648 20.4397 21.5008 20.7757 21.5008 21.1897C21.5008 21.6037 21.1648 21.9397 20.7508 21.9397Z" fill="currentColor"/>
<path fill-rule="evenodd" clip-rule="evenodd" d="M13.1106 5.01676L3.69564 16.7918C3.52464 17.0058 3.46164 17.2818 3.52464 17.5468L4.20564 20.4318L7.24464 20.3938C7.53364 20.3908 7.80064 20.2618 7.97764 20.0418C11.1946 16.0168 17.3276 8.34276 17.5016 8.11776C17.6656 7.85176 17.7296 7.47576 17.6436 7.11376C17.5556 6.74276 17.3246 6.42776 16.9916 6.22676C16.9206 6.17776 15.2356 4.86976 15.1836 4.82876C14.5496 4.32076 13.6246 4.40876 13.1106 5.01676ZM3.61364 21.9398C3.26664 21.9398 2.96464 21.7018 2.88364 21.3628L2.06464 17.8918C1.89564 17.1728 2.06364 16.4308 2.52464 15.8548L11.9446 4.07276C11.9486 4.06876 11.9516 4.06376 11.9556 4.05976C12.9886 2.82476 14.8566 2.64276 16.1166 3.65376C16.1666 3.69276 17.8396 4.99276 17.8396 4.99276C18.4476 5.35476 18.9226 6.00176 19.1026 6.76776C19.2816 7.52576 19.1516 8.30776 18.7346 8.96876C18.7036 9.01776 18.6766 9.05976 9.14864 20.9798C8.68964 21.5518 8.00164 21.8848 7.26264 21.8938L3.62364 21.9398H3.61364Z" fill="currentColor"/>
<path fill-rule="evenodd" clip-rule="evenodd" d="M16.2234 11.6848C16.0634 11.6848 15.9034 11.6338 15.7664 11.5298L10.3144 7.34176C9.98644 7.08976 9.92444 6.61976 10.1764 6.28976C10.4294 5.96176 10.8994 5.90076 11.2284 6.15276L16.6814 10.3398C17.0094 10.5918 17.0714 11.0628 16.8184 11.3918C16.6714 11.5838 16.4484 11.6848 16.2234 11.6848Z" fill="currentColor"/>
</svg>
