<svg width="24" height="24" viewBox="0 0 24 24" fill="none" xmlns="http://www.w3.org/2000/svg">
<path fill-rule="evenodd" clip-rule="evenodd" d="M20.308 21H13.613C13.2309 21 12.9207 20.6807 12.9207 20.2872C12.9207 19.8938 13.2309 19.5744 13.613 19.5744H20.308C20.6901 19.5744 21.0002 19.8938 21.0002 20.2872C21.0002 20.6807 20.6901 21 20.308 21Z" fill="currentColor"/>
<path fill-rule="evenodd" clip-rule="evenodd" d="M13.2556 4.91671L4.56507 16.1075C4.40723 16.3109 4.34908 16.5732 4.40723 16.8251L5.03583 19.5669L7.841 19.5308C8.10776 19.528 8.35421 19.4054 8.51759 19.1963C11.4871 15.371 17.1482 8.0777 17.3088 7.86387C17.4601 7.61106 17.5192 7.25372 17.4398 6.90968C17.3586 6.55708 17.1454 6.25771 16.838 6.06668C16.7725 6.02011 15.2171 4.77701 15.1691 4.73804C14.5839 4.25524 13.7301 4.33888 13.2556 4.91671ZM4.48938 21.0001C4.16908 21.0001 3.89032 20.7739 3.81555 20.4517L3.05957 17.153C2.90358 16.4696 3.05865 15.7644 3.48418 15.217L12.1794 4.01955C12.183 4.01575 12.1858 4.01099 12.1895 4.00719C13.143 2.83346 14.8673 2.66049 16.0303 3.62134C16.0765 3.6584 17.6208 4.8939 17.6208 4.8939C18.182 5.23795 18.6204 5.85285 18.7866 6.58084C18.9518 7.30124 18.8318 8.04444 18.4469 8.67265C18.4183 8.71921 18.3934 8.75913 9.59849 20.0878C9.17481 20.6314 8.53975 20.9479 7.85761 20.9564L4.49861 21.0001H4.48938Z" fill="currentColor"/>
<path fill-rule="evenodd" clip-rule="evenodd" d="M16.1289 11.2539C15.9812 11.2539 15.8335 11.2054 15.7071 11.1066L10.6746 7.12636C10.3718 6.88687 10.3146 6.44019 10.5472 6.12656C10.7807 5.81483 11.2146 5.75686 11.5183 5.99635L16.5517 9.97563C16.8544 10.2151 16.9117 10.6628 16.6781 10.9754C16.5424 11.1579 16.3366 11.2539 16.1289 11.2539Z" fill="currentColor"/>
</svg>
