<svg xmlns="http://www.w3.org/2000/svg" viewBox="0 0 258 258">
  <g>
    <circle cx="129" cy="129" r="129"/>
    <circle cx="129" cy="129" r="119.5" fill="#FFF"/>
    <g transform="translate(61 69)">
      <path d="M135.8 108.8C133.4 113.9 130.7 114.8 125.8 111.9 119.2 108.1 112.6 104.2 105.9 100.4 104.5 99.6 103.9 98.8 103.9 97.1 104 89.9 104 82.6 103.9 75.4 103.9 73.9 104.4 73 105.7 72.3 112.4 68.5 119 64.6 125.6 60.8 130.4 58 132.7 58.6 135.7 63.1 135.8 78.4 135.8 93.6 135.8 108.8zM52.6 118.9C41.9 118.9 31.2 118.9 20.6 118.9 11.5 118.9 6.1 113.5 6 104.5 6 92.1 6 79.6 6 67.2 6 62.8 7.3 58.8 11.1 56.2 11.8 55.7 13.1 55.6 13.9 55.9 23.5 59.9 32.8 59.4 41.9 54.4 42.9 53.9 44.1 53.6 45.1 53.6 47.8 53.5 50.6 53.6 53.3 53.6 58.1 53.5 62.5 53.9 67.1 56.1 74.9 59.9 83.2 59.4 91.2 56.1 92.1 55.7 93.6 55.9 94.4 56.5 97.8 58.9 99.3 62.5 99.3 66.6 99.4 79.8 99.4 92.9 99.3 106.1 99.2 113.9 93.7 119.1 85.9 119.2 74.9 119 63.7 118.9 52.6 118.9z"/>
      <path d="M52.7,31 C51,38.9 47.1,45.3 40.2,49.5 C34.6,52.9 28.5,54.2 21.9,53.1 C10,51.1 0.5,40.4 0.2,28.5 C-0.2,15.5 8.3,4.5 21.1,1.6 C28.5,-1.11022302e-16 35.3,1.6 41.5,5.8 C47.6,10 51.1,16.2 52.6,24.1 C57.2,4.6 72.5,-0.5 83,1.3 C96.8,3.7 105.9,15.3 105.1,29.3 C104.4,41.7 93.6,52.5 80.7,53.4 C68.5,54.3 55.8,46.5 52.7,31 Z M26.3,16.6 C20.4,16.6 15.6,21.3 15.6,27.2 C15.6,33.2 20.6,38.3 26.6,38.1 C32.4,38 37.2,33.1 37.2,27.4 C37.2,21.4 32.2,16.5 26.3,16.6 Z M79,16.6 C73,16.6 68.2,21.4 68.2,27.3 C68.2,33.1 73.2,38.1 79,38.1 C84.8,38.1 89.6,33.3 89.7,27.5 C89.8,21.6 84.9,16.6 79,16.6 Z"/>
    </g>
  </g>
</svg>
