<svg width="24" height="24" viewBox="0 0 24 24" fill="none" xmlns="http://www.w3.org/2000/svg">
<path fill-rule="evenodd" clip-rule="evenodd" d="M12.0251 13.5829C11.4028 13.5829 10.7823 13.3789 10.2633 12.9709L6.09116 9.63305C5.7907 9.39305 5.74419 8.95643 5.98512 8.6592C6.22791 8.36289 6.66698 8.31582 6.96651 8.55489L11.1349 11.889C11.6586 12.3007 12.3963 12.3007 12.9237 11.8854L17.0502 8.55674C17.3498 8.31397 17.7888 8.36012 18.0326 8.65735C18.2753 8.95366 18.2298 9.38935 17.9312 9.6312L13.7972 12.9654C13.2744 13.377 12.6493 13.5829 12.0251 13.5829Z" fill="currentColor"/>
<path fill-rule="evenodd" clip-rule="evenodd" d="M16.5665 19.6154C16.5684 19.6135 16.5758 19.6154 16.5814 19.6154C17.6428 19.6154 18.5842 19.2388 19.306 18.5234C20.1442 17.6954 20.6047 16.5055 20.6047 15.1735V8.83385C20.6047 6.25569 18.906 4.38462 16.5665 4.38462H7.43349C5.09395 4.38462 3.39535 6.25569 3.39535 8.83385V15.1735C3.39535 16.5055 3.85674 17.6954 4.69395 18.5234C5.41581 19.2388 6.35814 19.6154 7.4186 19.6154H16.5665ZM7.41581 21C5.98047 21 4.6986 20.4831 3.70884 19.5046C2.60651 18.4135 2 16.8757 2 15.1735V8.83385C2 5.508 4.33581 3 7.43349 3H16.5665C19.6642 3 22 5.508 22 8.83385V15.1735C22 16.8757 21.3935 18.4135 20.2912 19.5046C19.3023 20.4822 18.0195 21 16.5814 21H7.41581Z" fill="currentColor"/>
</svg>
