<svg width="24" height="24" viewBox="0 0 24 24" fill="none" xmlns="http://www.w3.org/2000/svg">
<mask id="mask0" mask-type="alpha" maskUnits="userSpaceOnUse" x="2" y="2" width="20" height="20">
<path fill-rule="evenodd" clip-rule="evenodd" d="M11.9999 21.6C13.7537 21.6 15.3768 21.1616 16.8691 20.2846C18.3153 19.4539 19.4537 18.3154 20.2845 16.8693C21.1614 15.3769 21.5999 13.7539 21.5999 12C21.5999 10.2462 21.1614 8.6231 20.2845 7.13079C19.4537 5.68464 18.3153 4.54618 16.8691 3.71541C15.3768 2.83849 13.7537 2.40002 11.9999 2.40002C10.2614 2.40002 8.64606 2.83849 7.15375 3.71541C5.70759 4.56156 4.56144 5.70772 3.71529 7.15387C2.83836 8.64618 2.3999 10.2616 2.3999 12C2.3999 13.7385 2.83836 15.3539 3.71529 16.8462C4.54606 18.2923 5.68452 19.4385 7.13067 20.2846C8.62298 21.1616 10.2461 21.6 11.9999 21.6ZM13.1999 13.2H10.7999V7.20002H13.1999V13.2ZM10.7999 16.8H13.1999V14.4H10.7999V16.8Z" fill="white"/>
</mask>
<g mask="url(#mask0)">
<rect width="24" height="24" fill="#DA1E28"/>
</g>
</svg>
