<svg width="45" height="46" viewBox="0 0 45 46" fill="none" xmlns="http://www.w3.org/2000/svg">
<g id="error_outlined">
<g id="Vector">
<path fill-rule="evenodd" clip-rule="evenodd" d="M22.5 7.06265C13.6973 7.06265 6.5625 14.1974 6.5625 23.0002C6.5625 31.8011 13.6974 38.9377 22.5 38.9377C31.3008 38.9377 38.4375 31.801 38.4375 23.0002C38.4375 14.1975 31.3009 7.06265 22.5 7.06265ZM3.75 23.0002C3.75 12.6441 12.144 4.25015 22.5 4.25015C32.854 4.25015 41.25 12.644 41.25 23.0002C41.25 33.3543 32.8541 41.7502 22.5 41.7502C12.1439 41.7502 3.75 33.3542 3.75 23.0002Z" fill="#DA1E28"/>
<path fill-rule="evenodd" clip-rule="evenodd" d="M22.4908 14.4766C23.2675 14.4766 23.8971 15.1062 23.8971 15.8828V24.1685C23.8971 24.9451 23.2675 25.5747 22.4908 25.5747C21.7142 25.5747 21.0846 24.9451 21.0846 24.1685V15.8828C21.0846 15.1062 21.7142 14.4766 22.4908 14.4766Z" fill="#DA1E28"/>
<path fill-rule="evenodd" clip-rule="evenodd" d="M20.6154 30.1177C20.6154 29.0821 21.4549 28.2427 22.4904 28.2427H22.5092C23.5447 28.2427 24.3842 29.0821 24.3842 30.1177C24.3842 31.1532 23.5447 31.9927 22.5092 31.9927H22.4904C21.4549 31.9927 20.6154 31.1532 20.6154 30.1177Z" fill="#DA1E28"/>
</g>
</g>
</svg>
