<svg xmlns="http://www.w3.org/2000/svg" width="20" height="20" fill="#fff" fill-rule="evenodd" xmlns:v="https://vecta.io/nano"><path d="M14.707 6.707L18 3.414V6a1 1 0 1 0 2 0V1a1 1 0 0 0-1-1h-5a1 1 0 1 0 0 2h2.586l-3.293 3.293a1 1 0 0 0 0 1.414c.195.195.45.293.707.293s.512-.098.707-.293m-9.414 0L2 3.414V6a1 1 0 1 1-2 0V1a1 1 0 0 1 1-1h5a1 1 0 1 1 0 2H3.414l3.293 3.293a1 1 0 0 1 0 1.414C6.512 6.902 6.256 7 6 7s-.512-.098-.707-.293m9.414 6.586L18 16.586V14a1 1 0 1 1 2 0v5a1 1 0 0 1-1 1h-5a1 1 0 1 1 0-2h2.586l-3.293-3.293a1 1 0 0 1 0-1.414c.195-.195.45-.293.707-.293s.512.098.707.293m-9.414 0L2 16.586V14a1 1 0 1 0-2 0v5a1 1 0 0 0 1 1h5a1 1 0 1 0 0-2H3.414l3.293-3.293a1 1 0 0 0 0-1.414C6.512 13.098 6.256 13 6 13s-.512.098-.707.293"/></svg>