<svg viewBox="0 0 18 20" fill="none" xmlns="http://www.w3.org/2000/svg">
<path fill-rule="evenodd" clip-rule="evenodd" d="M4.57335 1.51166C2.91635 1.51166 1.54035 2.85366 1.50135 4.50866V15.2037C1.46435 16.9167 2.81435 18.3277 4.51035 18.3657H12.5743C14.2433 18.2967 15.5653 16.9097 15.5533 15.2097V6.33966L10.9183 1.51166H4.57335ZM4.47635 19.8657C1.95435 19.8087 -0.0536524 17.7107 0.00134757 15.1877V4.49066C0.0593476 2.00966 2.10835 0.011663 4.57135 0.011663H11.2383C11.4423 0.011663 11.6373 0.094663 11.7793 0.241663L16.8443 5.51866C16.9783 5.65766 17.0533 5.84466 17.0533 6.03766V15.2037C17.0713 17.7127 15.1173 19.7627 12.6043 19.8647L4.47635 19.8657Z" fill="currentColor"/>
<path fill-rule="evenodd" clip-rule="evenodd" d="M16.2985 6.98424H13.5435C11.7135 6.97924 10.2255 5.48724 10.2255 3.65924V0.750244C10.2255 0.336244 10.5615 0.000244141 10.9755 0.000244141C11.3895 0.000244141 11.7255 0.336244 11.7255 0.750244V3.65924C11.7255 4.66324 12.5425 5.48124 13.5455 5.48424H16.2985C16.7125 5.48424 17.0485 5.82024 17.0485 6.23424C17.0485 6.64824 16.7125 6.98424 16.2985 6.98424Z" fill="currentColor"/>
<path d="M6.2511 11.2069L8.49584 7.3006C8.5019 7.29005 8.51211 7.28371 8.52306 7.28371H10.7216C10.7497 7.28371 10.7647 7.32203 10.7462 7.34648L8.87494 9.81588C8.85729 9.83917 8.86999 9.8758 8.89666 9.87851L10.7226 10.0639C10.7505 10.0667 10.7626 10.1061 10.7425 10.1287L6.67441 14.703C6.64827 14.7324 6.60647 14.6978 6.6221 14.6597L7.99302 11.3197C8.00332 11.2946 7.9875 11.2657 7.96349 11.2657H6.27832C6.25223 11.2657 6.23665 11.232 6.2511 11.2069Z" fill="currentColor"/>
<path fill-rule="evenodd" clip-rule="evenodd" d="M8.63693 7.56743L6.67479 10.982H7.96349C8.1676 10.982 8.30204 11.2281 8.21447 11.4415L7.34983 13.548L10.2388 10.2995L8.87524 10.1611C8.64856 10.1381 8.54058 9.82681 8.69061 9.62882L10.2527 7.56743H8.63693ZM8.29169 7.14349C8.3432 7.05386 8.43004 7 8.52306 7H10.7216C10.9605 7 11.088 7.32571 10.9305 7.53354L9.33561 9.63826L10.744 9.78123C10.981 9.80529 11.084 10.1403 10.9134 10.3322L6.84526 14.9065C6.62313 15.1563 6.26776 14.8617 6.40065 14.5379L7.62733 11.5494H6.27832C6.05655 11.5494 5.92415 11.2635 6.04695 11.0498L8.29169 7.14349Z" fill="currentColor"/>
</svg>
