<svg width="24" height="24" viewBox="0 0 48 48" fill="none" xmlns="http://www.w3.org/2000/svg">
<path fill-rule="evenodd" clip-rule="evenodd" d="M32.4239 4C35.86 4 38.796 5.03456 40.8712 6.98868C42.9402 8.93695 44 11.6541 44 14.7624V33.2376C44 36.3312 42.9479 39.0362 40.896 40.9813C38.8379 42.9323 35.9252 43.9748 32.5155 43.9939L32.5054 43.994L15.5753 44C12.1392 44 9.20221 42.9654 7.1275 41.0112C5.05906 39.0628 4 36.3457 4 33.2376V14.7624C4 11.669 5.05137 8.96443 7.10294 7.01966C9.16063 5.06908 12.0728 4.02722 15.4823 4.00807L15.4924 4.00801L32.4239 4ZM32.4243 7.01356L15.5026 7.02157L15.4981 7.0216C12.8322 7.03746 10.8254 7.83671 9.4828 9.10942C8.13332 10.3887 7.30306 12.2908 7.30306 14.7624V33.2376C7.30306 35.7226 8.13995 37.6333 9.50008 38.9145C10.8539 40.1897 12.8794 40.9864 15.5735 40.9864L32.4952 40.9804L32.4995 40.9804C35.1653 40.9646 37.1728 40.165 38.5161 38.8916C39.8663 37.6117 40.6969 35.709 40.6969 33.2376V14.7624C40.6969 12.2776 39.8597 10.3669 38.499 9.08566C37.1447 7.81035 35.1183 7.01369 32.4243 7.01356ZM14.4502 15.7736C14.4502 14.9414 15.1896 14.2668 16.1017 14.2668H22.1683C23.0804 14.2668 23.8198 14.9414 23.8198 15.7736C23.8198 16.6058 23.0804 17.2804 22.1683 17.2804H16.1017C15.1896 17.2804 14.4502 16.6058 14.4502 15.7736ZM14.45 24.165C14.45 23.3328 15.1894 22.6582 16.1015 22.6582H32.0002C32.9123 22.6582 33.6518 23.3328 33.6518 24.165C33.6518 24.9971 32.9123 25.6717 32.0002 25.6717H16.1015C15.1894 25.6717 14.45 24.9971 14.45 24.165ZM14.45 32.5758C14.45 31.7436 15.1894 31.069 16.1015 31.069H32.0002C32.9123 31.069 33.6518 31.7436 33.6518 32.5758C33.6518 33.408 32.9123 34.0826 32.0002 34.0826H16.1015C15.1894 34.0826 14.45 33.408 14.45 32.5758Z" fill="currentColor"/>
<path fill-rule="evenodd" clip-rule="evenodd" d="M32.4239 4C35.86 4 38.796 5.03456 40.8712 6.98868C42.9402 8.93695 44 11.6541 44 14.7624V33.2376C44 36.3312 42.9479 39.0362 40.896 40.9813C38.8379 42.9323 35.9252 43.9748 32.5155 43.9939L32.5054 43.994L15.5753 44C12.1392 44 9.20221 42.9654 7.1275 41.0112C5.05906 39.0628 4 36.3457 4 33.2376V14.7624C4 11.669 5.05137 8.96443 7.10294 7.01966C9.16063 5.06908 12.0728 4.02722 15.4823 4.00807L15.4924 4.00801L32.4239 4ZM32.4243 7.01356L15.5026 7.02157L15.4981 7.0216C12.8322 7.03746 10.8254 7.83671 9.4828 9.10942C8.13332 10.3887 7.30306 12.2908 7.30306 14.7624V33.2376C7.30306 35.7226 8.13995 37.6333 9.50008 38.9145C10.8539 40.1897 12.8794 40.9864 15.5735 40.9864L32.4952 40.9804L32.4995 40.9804C35.1653 40.9646 37.1728 40.165 38.5161 38.8916C39.8663 37.6117 40.6969 35.709 40.6969 33.2376V14.7624C40.6969 12.2776 39.8597 10.3669 38.499 9.08566C37.1447 7.81035 35.1183 7.01369 32.4243 7.01356ZM14.4502 15.7736C14.4502 14.9414 15.1896 14.2668 16.1017 14.2668H22.1683C23.0804 14.2668 23.8198 14.9414 23.8198 15.7736C23.8198 16.6058 23.0804 17.2804 22.1683 17.2804H16.1017C15.1896 17.2804 14.4502 16.6058 14.4502 15.7736ZM14.45 24.165C14.45 23.3328 15.1894 22.6582 16.1015 22.6582H32.0002C32.9123 22.6582 33.6518 23.3328 33.6518 24.165C33.6518 24.9971 32.9123 25.6717 32.0002 25.6717H16.1015C15.1894 25.6717 14.45 24.9971 14.45 24.165ZM14.45 32.5758C14.45 31.7436 15.1894 31.069 16.1015 31.069H32.0002C32.9123 31.069 33.6518 31.7436 33.6518 32.5758C33.6518 33.408 32.9123 34.0826 32.0002 34.0826H16.1015C15.1894 34.0826 14.45 33.408 14.45 32.5758Z" fill="currentColor"/>
</svg>
