<svg viewBox="0 0 22 22" fill="none" xmlns="http://www.w3.org/2000/svg">
<path fill-rule="evenodd" clip-rule="evenodd" d="M6.94226 3.21896C5.42334 3.21896 4.16201 4.44913 4.12626 5.96621V15.77C4.09234 17.3402 5.32984 18.6336 6.88451 18.6685H14.2765C15.8064 18.6052 17.0183 17.3338 17.0073 15.7755V7.64463L12.7585 3.21896H6.94226ZM6.85334 20.0435C4.54151 19.9912 2.70084 18.068 2.75126 15.7553V5.94971C2.80442 3.67546 4.68267 1.84396 6.94042 1.84396H13.0518C13.2388 1.84396 13.4176 1.92005 13.5478 2.0548L18.1907 6.89205C18.3135 7.01946 18.3823 7.19088 18.3823 7.3678V15.77C18.3988 18.0699 16.6076 19.949 14.304 20.0425L6.85334 20.0435Z" fill="currentColor"/>
<path fill-rule="evenodd" clip-rule="evenodd" d="M17.6903 8.2355H15.1649C13.4874 8.23091 12.1234 6.86325 12.1234 5.18758V2.521C12.1234 2.1415 12.4314 1.8335 12.8109 1.8335C13.1904 1.8335 13.4984 2.1415 13.4984 2.521V5.18758C13.4984 6.10791 14.2473 6.85775 15.1667 6.8605H17.6903C18.0698 6.8605 18.3778 7.1685 18.3778 7.548C18.3778 7.9275 18.0698 8.2355 17.6903 8.2355Z" fill="currentColor"/>
<path fill-rule="evenodd" clip-rule="evenodd" d="M12.6397 14.7659H7.68966C7.31016 14.7659 7.00216 14.4579 7.00216 14.0784C7.00216 13.6989 7.31016 13.3909 7.68966 13.3909H12.6397C13.0192 13.3909 13.3272 13.6989 13.3272 14.0784C13.3272 14.4579 13.0192 14.7659 12.6397 14.7659Z" fill="currentColor"/>
<path fill-rule="evenodd" clip-rule="evenodd" d="M10.7652 11.3266H7.68884C7.30934 11.3266 7.00134 11.0186 7.00134 10.6391C7.00134 10.2596 7.30934 9.95159 7.68884 9.95159H10.7652C11.1447 9.95159 11.4527 10.2596 11.4527 10.6391C11.4527 11.0186 11.1447 11.3266 10.7652 11.3266Z" fill="currentColor"/>
</svg>
