<svg viewBox="0 0 24 24" fill="none" xmlns="http://www.w3.org/2000/svg">
<path fill-rule="evenodd" clip-rule="evenodd" d="M7.57335 3.51166C5.91635 3.51166 4.54035 4.85366 4.50135 6.50866V17.2037C4.46435 18.9167 5.81435 20.3277 7.51035 20.3657H15.5743C17.2433 20.2967 18.5653 18.9097 18.5533 17.2097V8.33966L13.9183 3.51166H7.57335ZM7.47635 21.8657C4.95435 21.8087 2.94635 19.7107 3.00135 17.1877V6.49066C3.05935 4.00966 5.10835 2.01166 7.57135 2.01166H14.2383C14.4423 2.01166 14.6373 2.09466 14.7793 2.24166L19.8443 7.51866C19.9783 7.65766 20.0533 7.84466 20.0533 8.03766V17.2037C20.0713 19.7127 18.1173 21.7627 15.6043 21.8647L7.47635 21.8657Z" fill="currentColor"/>
<path fill-rule="evenodd" clip-rule="evenodd" d="M19.2985 8.98424H16.5435C14.7135 8.97924 13.2255 7.48724 13.2255 5.65924V2.75024C13.2255 2.33624 13.5615 2.00024 13.9755 2.00024C14.3895 2.00024 14.7255 2.33624 14.7255 2.75024V5.65924C14.7255 6.66324 15.5425 7.48124 16.5455 7.48424H19.2985C19.7125 7.48424 20.0485 7.82024 20.0485 8.23424C20.0485 8.64824 19.7125 8.98424 19.2985 8.98424Z" fill="currentColor"/>
<path d="M9.2511 13.2069L11.4958 9.3006C11.5019 9.29005 11.5121 9.28371 11.5231 9.28371H13.7216C13.7497 9.28371 13.7647 9.32203 13.7462 9.34648L11.8749 11.8159C11.8573 11.8392 11.87 11.8758 11.8967 11.8785L13.7226 12.0639C13.7505 12.0667 13.7626 12.1061 13.7425 12.1287L9.67441 16.703C9.64827 16.7324 9.60647 16.6978 9.6221 16.6597L10.993 13.3197C11.0033 13.2946 10.9875 13.2657 10.9635 13.2657H9.27832C9.25223 13.2657 9.23665 13.232 9.2511 13.2069Z" fill="currentColor"/>
<path fill-rule="evenodd" clip-rule="evenodd" d="M11.6369 9.56743L9.67479 12.982H10.9635C11.1676 12.982 11.302 13.2281 11.2145 13.4415L10.3498 15.548L13.2388 12.2995L11.8752 12.1611C11.6486 12.1381 11.5406 11.8268 11.6906 11.6288L13.2527 9.56743H11.6369ZM11.2917 9.14349C11.3432 9.05386 11.43 9 11.5231 9H13.7216C13.9605 9 14.088 9.32571 13.9305 9.53354L12.3356 11.6383L13.744 11.7812C13.981 11.8053 14.084 12.1403 13.9134 12.3322L9.84526 16.9065C9.62313 17.1563 9.26776 16.8617 9.40065 16.5379L10.6273 13.5494H9.27832C9.05655 13.5494 8.92415 13.2635 9.04695 13.0498L11.2917 9.14349Z" fill="currentColor"/>
</svg>
