<svg viewBox="0 0 24 24" xmlns="http://www.w3.org/2000/svg">
<path fill-rule="evenodd" clip-rule="evenodd" d="M12 9.48371C13.3373 9.48371 14.414 10.6057 14.414 12.0012C14.414 12.697 14.1491 13.3131 13.7091 13.7708C13.416 14.0758 13.4156 14.5706 13.7082 14.8761C14.0008 15.1815 14.4757 15.182 14.7689 14.877C15.4789 14.1385 15.914 13.1291 15.914 12.0012C15.914 9.74343 14.1667 7.92067 12 7.92067C10.9297 7.92067 9.93982 8.37221 9.2355 9.11783C8.94493 9.42543 8.94868 9.92025 9.24388 10.223C9.53907 10.5258 10.0139 10.5219 10.3045 10.2143C10.7302 9.76367 11.3363 9.48371 12 9.48371Z"/>
<path fill-rule="evenodd" clip-rule="evenodd" d="M8.76205 11.8168C8.35437 11.8932 8.08332 12.2995 8.15664 12.7243C8.44401 14.3893 9.7007 15.7016 11.2978 16.0037C11.7054 16.0808 12.0958 15.799 12.1697 15.3744C12.2437 14.9497 11.9733 14.5429 11.5658 14.4658C10.5849 14.2803 9.8096 13.471 9.63296 12.4476C9.55964 12.0228 9.16972 11.7404 8.76205 11.8168Z"/>
<path fill-rule="evenodd" clip-rule="evenodd" d="M12 5.17232C13.7119 5.17232 15.3819 5.81188 16.8506 7.02307L16.8524 7.02454C18.2663 8.18335 19.4998 9.86971 20.4301 12.0016C19.5094 14.1221 18.2852 15.7972 16.8818 16.9453C16.5561 17.2118 16.4993 17.7031 16.7551 18.0426C17.0109 18.3821 17.4824 18.4412 17.8082 18.1746C19.5113 16.7812 20.9252 14.7705 21.9392 12.309C22.0205 12.1116 22.0203 11.8881 21.9386 11.6909C20.9148 9.22008 19.4925 7.19998 17.7805 5.79667C16.0754 4.39076 14.0838 3.60927 12 3.60927C9.90224 3.60927 7.91152 4.40334 6.19831 5.81743C5.87362 6.08543 5.8189 6.57697 6.07609 6.9153C6.33328 7.25364 6.80499 7.31066 7.12969 7.04266C8.61047 5.82042 10.2798 5.17232 12 5.17232Z"/>
<path fill-rule="evenodd" clip-rule="evenodd" d="M5.00305 8.09759C4.67211 7.83801 4.20189 7.90714 3.95279 8.25198C3.22532 9.25903 2.59154 10.4131 2.06161 11.69C1.97953 11.8878 1.97946 12.1121 2.06141 12.3099C4.10328 17.2392 7.79695 20.3906 12 20.3906C12.9447 20.3906 13.8758 20.2308 14.7694 19.9201C15.1623 19.7834 15.3746 19.3408 15.2434 18.9313C15.1123 18.5219 14.6875 18.3008 14.2946 18.4374C13.5522 18.6956 12.7813 18.8276 12 18.8276C8.66698 18.8276 5.47968 16.3743 3.5704 12.0004C4.02931 10.9501 4.56023 10.0101 5.15121 9.19199C5.40032 8.84715 5.33398 8.35717 5.00305 8.09759Z"/>
<path fill-rule="evenodd" clip-rule="evenodd" d="M3.58227 3.2289C3.28938 3.53411 3.28938 4.02894 3.58227 4.33414L19.3563 20.7711C19.6492 21.0763 20.124 21.0763 20.4169 20.7711C20.7098 20.4659 20.7098 19.9711 20.4169 19.6659L4.64293 3.2289C4.35004 2.9237 3.87516 2.9237 3.58227 3.2289Z"/>
</svg>
