<svg viewBox="0 0 24 24" xmlns="http://www.w3.org/2000/svg">
<path fill-rule="evenodd" clip-rule="evenodd" d="M11.9996 9.60426C10.6696 9.60426 9.58857 10.6792 9.58857 12.0004C9.58857 13.3207 10.6696 14.3946 11.9996 14.3946C13.3296 14.3946 14.4116 13.3207 14.4116 12.0004C14.4116 10.6792 13.3296 9.60426 11.9996 9.60426ZM11.9996 15.8848C9.84257 15.8848 8.08857 14.1423 8.08857 12.0004C8.08857 9.85759 9.84257 8.11411 11.9996 8.11411C14.1566 8.11411 15.9116 9.85759 15.9116 12.0004C15.9116 14.1423 14.1566 15.8848 11.9996 15.8848Z"/>
<path fill-rule="evenodd" clip-rule="evenodd" d="M3.56987 11.9996C5.42987 16.0817 8.56287 18.5086 11.9999 18.5096C15.4369 18.5086 18.5699 16.0817 20.4299 11.9996C18.5699 7.9186 15.4369 5.49165 11.9999 5.49065C8.56387 5.49165 5.42987 7.9186 3.56987 11.9996ZM11.9969 19.9998C7.86087 19.9968 4.14687 17.1168 2.06087 12.2937C1.97987 12.1059 1.97987 11.8933 2.06087 11.7056C4.14687 6.88345 7.86187 4.00348 11.9969 4.0005C11.9989 3.99951 11.9989 3.99951 11.9999 4.0005C12.0019 3.99951 12.0019 3.99951 12.0029 4.0005C16.1389 4.00348 19.8529 6.88345 21.9389 11.7056C22.0209 11.8933 22.0209 12.1059 21.9389 12.2937C19.8539 17.1168 16.1389 19.9968 12.0029 19.9998H11.9969Z"/>
</svg>
