<svg width="16" height="17" viewBox="0 0 16 17" fill="none" xmlns="http://www.w3.org/2000/svg">
<path d="M15.75 8.5C15.75 9.90625 15.375 11.1875 14.6875 12.375C14 13.5625 13.0625 14.5312 11.875 15.2188C10.6875 15.9062 9.375 16.25 8 16.25C6.59375 16.25 5.3125 15.9062 4.125 15.2188C2.9375 14.5312 1.96875 13.5625 1.28125 12.375C0.59375 11.1875 0.25 9.90625 0.25 8.5C0.25 7.125 0.59375 5.8125 1.28125 4.625C1.96875 3.4375 2.9375 2.5 4.125 1.8125C5.3125 1.125 6.59375 0.75 8 0.75C9.375 0.75 10.6875 1.125 11.875 1.8125C13.0625 2.5 14 3.4375 14.6875 4.625C15.375 5.8125 15.75 7.125 15.75 8.5ZM8 10.0625C7.59375 10.0625 7.25 10.2188 6.96875 10.5C6.6875 10.7812 6.5625 11.125 6.5625 11.5C6.5625 11.9062 6.6875 12.25 6.96875 12.5312C7.25 12.8125 7.59375 12.9375 8 12.9375C8.375 12.9375 8.71875 12.8125 9 12.5312C9.28125 12.25 9.4375 11.9062 9.4375 11.5C9.4375 11.125 9.28125 10.7812 9 10.5C8.71875 10.2188 8.375 10.0625 8 10.0625ZM6.625 4.90625L6.875 9.15625C6.875 9.25 6.90625 9.34375 6.96875 9.40625C7.03125 9.46875 7.125 9.5 7.25 9.5H8.75C8.84375 9.5 8.9375 9.46875 9 9.40625C9.0625 9.34375 9.125 9.25 9.125 9.15625L9.375 4.90625C9.375 4.78125 9.3125 4.6875 9.25 4.625C9.1875 4.5625 9.09375 4.5 9 4.5H7C6.875 4.5 6.78125 4.5625 6.71875 4.625C6.65625 4.6875 6.625 4.78125 6.625 4.90625Z" fill="white"/>
</svg>
