<svg width="20" height="18" viewBox="0 0 20 18" fill="none" xmlns="http://www.w3.org/2000/svg">
<path fill-rule="evenodd" clip-rule="evenodd" d="M3.2926 1.6665C2.67521 1.6665 2.17472 2.17951 2.17472 2.81234V12.5552C2.17472 13.188 2.67521 13.701 3.2926 13.701H6.12061C6.34931 13.701 6.56225 13.8205 6.68554 14.0179L7.78773 15.7831L9.00238 13.9956C9.12779 13.811 9.33334 13.701 9.55276 13.701H16.7072C17.3246 13.701 17.8251 13.188 17.8251 12.5552V2.81234C17.8251 2.17951 17.3246 1.6665 16.7072 1.6665H3.2926ZM0.833252 2.81234C0.833252 1.42012 1.93434 0.291504 3.2926 0.291504H16.7072C18.0655 0.291504 19.1666 1.42012 19.1666 2.81234V12.5552C19.1666 13.9474 18.0655 15.076 16.7072 15.076H9.90298L8.31453 17.4136C8.18647 17.6021 7.97507 17.7125 7.75105 17.708C7.52703 17.7036 7.32 17.5847 7.19921 17.3913L5.75355 15.076H3.2926C1.93434 15.076 0.833252 13.9474 0.833252 12.5552V2.81234Z" fill="currentColor"/>
<path fill-rule="evenodd" clip-rule="evenodd" d="M4.49992 4.64567C4.49992 4.26597 4.80022 3.95817 5.17065 3.95817H14.8292C15.1996 3.95817 15.4999 4.26597 15.4999 4.64567C15.4999 5.02537 15.1996 5.33317 14.8292 5.33317H5.17065C4.80022 5.33317 4.49992 5.02537 4.49992 4.64567ZM4.49992 7.39567C4.49992 7.01597 4.80022 6.70817 5.17065 6.70817H14.8292C15.1996 6.70817 15.4999 7.01597 15.4999 7.39567C15.4999 7.77537 15.1996 8.08317 14.8292 8.08317H5.17065C4.80022 8.08317 4.49992 7.77537 4.49992 7.39567ZM7.19921 10.1457C7.19921 9.76597 7.49951 9.45817 7.86995 9.45817H14.8292C15.1996 9.45817 15.4999 9.76597 15.4999 10.1457C15.4999 10.5254 15.1996 10.8332 14.8292 10.8332H7.86995C7.49951 10.8332 7.19921 10.5254 7.19921 10.1457Z" fill="currentColor"/>
</svg>
