<svg width="24" height="24" viewBox="0 0 24 24" fill="none" xmlns="http://www.w3.org/2000/svg">
<path fill-rule="evenodd" clip-rule="evenodd" d="M8.3031 2.01188H14.544C14.7356 2.01188 14.9189 2.09572 15.0516 2.24404L19.8038 7.55583C19.9297 7.69645 19.9999 7.88383 19.9999 8.07876V17.3043C20.0153 19.8206 18.1689 21.8969 15.826 21.9989C15.8165 21.9993 15.807 21.9996 15.7975 21.9996H8.31122C8.28796 22.0001 8.26759 22 8.25288 21.9999C8.2305 21.9997 8.22665 21.9996 8.21549 21.9996L8.19984 21.9994C5.83143 21.9428 3.95365 19.8392 4.00087 17.2991V6.52126L4.00107 6.50347C4.05607 3.99948 5.96923 2.00306 8.3031 2.01188ZM5.40825 6.53064V17.3069L5.40808 17.3234C5.37341 19.0324 6.63464 20.4487 8.22636 20.4894L8.24434 20.4896L8.26442 20.4898L8.27583 20.4898C8.27829 20.4898 8.27912 20.4898 8.27912 20.4898C8.28668 20.4895 8.29424 20.4894 8.30181 20.4894H15.7825C17.3617 20.4129 18.6039 19.0104 18.5925 17.3123L18.5925 17.3069L18.5925 8.38254L14.2441 3.52206H8.2991C6.73312 3.51559 5.44928 4.85287 5.40825 6.53064Z" fill="currentColor"/>
<path fill-rule="evenodd" clip-rule="evenodd" d="M14.2975 2C14.6861 2 15.0012 2.33806 15.0012 2.75509V5.68382C15.0012 6.69686 15.7639 7.51784 16.708 7.5212H19.2918C19.6804 7.5212 19.9955 7.85926 19.9955 8.27629C19.9955 8.69331 19.6804 9.03138 19.2918 9.03138H16.7069L16.7049 9.03137C14.9849 9.02617 13.5938 7.52974 13.5938 5.68382V2.75509C13.5938 2.33806 13.9089 2 14.2975 2Z" fill="currentColor"/>
<path d="M7.63 17.0398C7.48 17.0398 7.37334 17.0181 7.31 16.9748C7.24667 16.9281 7.20834 16.8698 7.195 16.7998C7.18167 16.7264 7.175 16.6531 7.175 16.5798V13.9998C7.175 13.9264 7.18167 13.8548 7.195 13.7848C7.20834 13.7148 7.24667 13.6581 7.31 13.6148C7.37334 13.5681 7.48167 13.5448 7.635 13.5448H8.63C8.75667 13.5448 8.89334 13.5714 9.04 13.6248C9.18667 13.6748 9.325 13.7531 9.455 13.8598C9.58834 13.9664 9.69667 14.0998 9.78 14.2598C9.86334 14.4198 9.905 14.6098 9.905 14.8298C9.905 15.0464 9.86334 15.2348 9.78 15.3948C9.69667 15.5548 9.58834 15.6881 9.455 15.7948C9.325 15.8981 9.18667 15.9764 9.04 16.0298C8.89334 16.0798 8.755 16.1048 8.625 16.1048H8.09V16.5848C8.09 16.6581 8.08334 16.7298 8.07 16.7998C8.05667 16.8698 8.01834 16.9281 7.955 16.9748C7.89167 17.0181 7.78334 17.0398 7.63 17.0398ZM8.09 15.1898H8.63C8.67334 15.1898 8.72334 15.1798 8.78 15.1598C8.83667 15.1364 8.88667 15.0981 8.93 15.0448C8.97334 14.9914 8.995 14.9181 8.995 14.8248C8.995 14.7548 8.97834 14.6931 8.945 14.6398C8.91167 14.5831 8.86667 14.5398 8.81 14.5098C8.75667 14.4764 8.695 14.4598 8.625 14.4598H8.09V15.1898Z" fill="currentColor"/>
<path d="M10.8186 17.0398C10.6753 17.0398 10.572 17.0181 10.5086 16.9748C10.4453 16.9314 10.4053 16.8748 10.3886 16.8048C10.372 16.7348 10.3636 16.6598 10.3636 16.5798V13.9948C10.3636 13.9214 10.3703 13.8498 10.3836 13.7798C10.397 13.7098 10.4353 13.6531 10.4986 13.6098C10.562 13.5631 10.6703 13.5414 10.8236 13.5448H11.6836C11.9203 13.5448 12.1436 13.5898 12.3536 13.6798C12.5636 13.7698 12.7486 13.8948 12.9086 14.0548C13.072 14.2114 13.1986 14.3948 13.2886 14.6048C13.382 14.8148 13.4286 15.0381 13.4286 15.2748C13.4286 15.5181 13.382 15.7464 13.2886 15.9598C13.1986 16.1731 13.072 16.3614 12.9086 16.5248C12.7486 16.6848 12.562 16.8114 12.3486 16.9048C12.1386 16.9948 11.912 17.0398 11.6686 17.0398H10.8186ZM11.2786 16.1248H11.6836C11.8336 16.1248 11.972 16.0881 12.0986 16.0148C12.2253 15.9381 12.3253 15.8381 12.3986 15.7148C12.4753 15.5881 12.5136 15.4481 12.5136 15.2948C12.5136 15.1414 12.4753 15.0014 12.3986 14.8748C12.3253 14.7481 12.2253 14.6481 12.0986 14.5748C11.972 14.4981 11.832 14.4598 11.6786 14.4598H11.2786V16.1248Z" fill="currentColor"/>
<path d="M14.395 17.0448C14.245 17.0448 14.1383 17.0231 14.075 16.9798C14.0117 16.9331 13.9733 16.8748 13.96 16.8048C13.9467 16.7314 13.94 16.6581 13.94 16.5848V13.9998C13.94 13.8264 13.9733 13.7081 14.04 13.6448C14.11 13.5781 14.2333 13.5448 14.41 13.5448H16.24C16.3167 13.5448 16.3883 13.5514 16.455 13.5648C16.525 13.5781 16.5817 13.6164 16.625 13.6798C16.6683 13.7431 16.69 13.8514 16.69 14.0048C16.69 14.1548 16.6667 14.2614 16.62 14.3248C16.5767 14.3881 16.52 14.4264 16.45 14.4398C16.38 14.4531 16.3067 14.4598 16.23 14.4598H14.855V14.9048H15.775C15.8517 14.9048 15.92 14.9114 15.98 14.9248C16.0433 14.9348 16.0917 14.9681 16.125 15.0248C16.1617 15.0781 16.18 15.1714 16.18 15.3048C16.18 15.4314 16.1617 15.5214 16.125 15.5748C16.0883 15.6281 16.0383 15.6598 15.975 15.6698C15.915 15.6798 15.8467 15.6848 15.77 15.6848H14.855V16.5898C14.855 16.6631 14.8483 16.7348 14.835 16.8048C14.8217 16.8748 14.7833 16.9331 14.72 16.9798C14.6567 17.0231 14.5483 17.0448 14.395 17.0448Z" fill="currentColor"/>
</svg>
