<svg width="24" height="24" viewBox="0 0 24 24" fill="none" xmlns="http://www.w3.org/2000/svg">
<path fill-rule="evenodd" clip-rule="evenodd" d="M8.29064 3.5219C6.7349 3.5219 5.4447 4.87293 5.40811 6.53907V17.443C5.38089 19.101 6.60729 20.4621 8.14145 20.4903L8.27938 20.4893H15.7972C17.338 20.4712 18.5944 19.1051 18.5925 17.444V8.3844L14.2443 3.5219H8.29064ZM8.12831 22.0004C5.80783 21.9571 3.96121 19.9064 4.00062 17.4299V6.52095C4.0541 4.02325 5.97673 2.0118 8.28782 2.0118H14.5436C14.7351 2.0118 14.918 2.09536 15.0513 2.24335L19.8048 7.55788C19.9296 7.69781 20 7.88607 20 8.08037V17.443C20.0037 19.9286 18.1215 21.9732 15.8047 21.9994L8.12831 22.0004Z" fill="black"/>
<path fill-rule="evenodd" clip-rule="evenodd" d="M19.2921 9.03143H16.708C14.9899 9.0264 13.5937 7.52435 13.5937 5.68405V2.75547C13.5937 2.33869 13.909 2.00043 14.2974 2.00043C14.6859 2.00043 15.0012 2.33869 15.0012 2.75547V5.68405C15.0012 6.69481 15.7678 7.51831 16.7099 7.52134H19.2921C19.6806 7.52134 19.9959 7.8596 19.9959 8.27638C19.9959 8.69317 19.6806 9.03143 19.2921 9.03143Z" fill="black"/>
<path d="M9.84103 13.2069L11.996 9.3006C12.0018 9.29005 12.0116 9.28371 12.0221 9.28371H14.1327C14.1597 9.28371 14.1741 9.32203 14.1563 9.34648L12.3599 11.8159C12.343 11.8392 12.3552 11.8758 12.3808 11.8785L14.1337 12.0639C14.1604 12.0667 14.1721 12.1061 14.1528 12.1287L10.2474 16.703C10.2223 16.7324 10.1822 16.6978 10.1972 16.6597L11.5133 13.3197C11.5232 13.2946 11.508 13.2657 11.4849 13.2657H9.86716C9.84212 13.2657 9.82716 13.232 9.84103 13.2069Z" fill="black"/>
<path fill-rule="evenodd" clip-rule="evenodd" d="M12.1314 9.56743L10.2478 12.982H11.4849C11.6809 12.982 11.8099 13.2281 11.7259 13.4415L10.8958 15.548L13.6692 12.2995L12.3602 12.1611C12.1426 12.1381 12.0389 11.8268 12.183 11.6288L13.6825 9.56743H12.1314ZM11.8 9.14349C11.8494 9.05386 11.9328 9 12.0221 9H14.1327C14.362 9 14.4845 9.32571 14.3333 9.53354L12.8022 11.6383L14.1542 11.7812C14.3817 11.8053 14.4806 12.1403 14.3168 12.3322L10.4114 16.9065C10.1982 17.1563 9.85703 16.8617 9.9846 16.5379L11.1622 13.5494H9.86716C9.65426 13.5494 9.52716 13.2635 9.64505 13.0498L11.8 9.14349Z" fill="black"/>
</svg>
