<svg width="24" height="24" viewBox="0 0 24 24" fill="none" xmlns="http://www.w3.org/2000/svg">
<path fill-rule="evenodd" clip-rule="evenodd" d="M2 4.4001C2 3.08719 3.05175 2 4.37453 2H19.6266C20.95 2 22 3.08788 22 4.4001V5.36001C22 6.22116 21.6727 7.05063 21.0858 7.67608L16.107 12.9694C15.2971 13.8042 14.8412 14.9335 14.8412 16.1124V18.4577C14.8412 19.227 14.4246 19.9414 13.7467 20.3116L10.9148 21.8545C10.1111 22.2909 9.17852 21.6878 9.17852 20.8131V16.1246C9.17852 14.9642 8.73518 13.8521 7.94818 13.02C7.92645 13.0015 7.90566 12.9817 7.8859 12.9607L2.91591 7.67677C2.32742 7.05108 2 6.22124 2 5.36001V4.4001ZM8.95312 11.85C8.96883 11.8637 8.98405 11.878 8.99872 11.8931C10.0994 13.0198 10.717 14.5407 10.717 16.1246V20.2105L13.0093 18.9615C13.1858 18.865 13.3027 18.6728 13.3027 18.4577V16.1124C13.3027 14.5403 13.9095 13.0273 14.9984 11.9027L19.9638 6.62362C20.2815 6.28478 20.4615 5.83181 20.4615 5.36001V4.4001C20.4615 3.91247 20.0756 3.53826 19.6266 3.53826H4.37453C3.92482 3.53826 3.53846 3.91316 3.53846 4.4001V5.36001C3.53846 5.83199 3.7181 6.28427 4.03662 6.62293L8.95312 11.85Z" fill="black"/>
</svg>
