<svg width="24" height="24" viewBox="0 0 24 24" fill="none" xmlns="http://www.w3.org/2000/svg">
<path fill-rule="evenodd" clip-rule="evenodd" d="M18.9331 5.56611C18.1943 5.85455 17.3995 6.00289 16.5948 6.00005C15.0687 6.02789 13.594 5.48175 12.5001 4.48312L12.4981 4.4813C11.6728 3.72389 10.5569 3.31004 9.4022 3.33313L9.38621 3.33345L9.37022 3.33332C8.43174 3.32571 7.5142 3.59328 6.74596 4.09864L5.06667 5.20327V11.4226L5.9126 11.3483C6.92316 10.6773 8.13449 10.3216 9.37426 10.3332C10.9013 10.3051 12.3771 10.8511 13.4724 11.8498L13.475 11.8522C14.2987 12.6084 15.4122 13.0221 16.5648 13.0002L16.5818 12.9998L16.5989 13C17.4205 13.009 18.2277 12.8065 18.9331 12.4163V5.56611ZM19.6939 13.15C18.771 13.7161 17.6893 14.012 16.5864 14C15.1474 14.0273 13.7571 13.5108 12.7287 12.5666C11.834 11.7509 10.6272 11.3064 9.37945 11.3333C8.32901 11.3203 7.30273 11.6293 6.45683 12.2133C6.36337 12.2814 6.25113 12.323 6.1333 12.3333V21C6.1333 21.5523 5.65572 22 5.06665 22C4.47753 22 4 21.5523 4 21V3C4 2.4477 4.47753 2 5.06665 2C5.35526 2 5.61709 2.10746 5.80911 2.28203C6.00904 2.46378 6.1333 2.71829 6.1333 3V3.28004C6.287 3.17893 6.44553 3.08552 6.60823 3C6.79431 2.90218 6.98584 2.81469 7.18179 2.73781C7.87379 2.46632 8.6211 2.32721 9.37945 2.33336C10.8209 2.30453 12.2139 2.82117 13.2443 3.76668C14.1367 4.58145 15.341 5.02582 16.5864 5C17.4382 5.005 18.277 4.8041 19.0219 4.41668C19.2142 4.3118 19.4518 4.3118 19.6441 4.41668C19.8661 4.53684 20.002 4.75969 19.9997 5V12.5833C20.0065 12.8085 19.8914 13.0216 19.6939 13.15Z" fill="black"/>
</svg>
