<svg width="24" height="24" viewBox="0 0 24 24" fill="none" xmlns="http://www.w3.org/2000/svg">
<path d="M19.6441 4.41668C19.4518 4.3118 19.2142 4.3118 19.0219 4.41668C18.277 4.8041 17.4382 5.005 16.5864 5C15.341 5.02582 14.1367 4.58145 13.2443 3.76668C12.2139 2.82117 10.8209 2.30453 9.37945 2.33336C8.21859 2.32395 7.08361 2.65492 6.1333 3.28004V3C6.1333 2.44773 5.65576 2 5.06665 2C4.47753 2 4 2.4477 4 3V21C4 21.5523 4.47753 22 5.06665 22C5.65572 22 6.1333 21.5523 6.1333 21V12.3333C6.25113 12.323 6.36337 12.2814 6.45683 12.2133C7.30273 11.6293 8.32901 11.3203 9.37945 11.3333C10.6272 11.3064 11.834 11.7509 12.7287 12.5666C13.7571 13.5108 15.1474 14.0273 16.5864 14C17.6893 14.012 18.771 13.7161 19.6939 13.15C19.8914 13.0216 20.0065 12.8085 19.9997 12.5833V5C20.002 4.75969 19.8661 4.53684 19.6441 4.41668Z" fill="currentColor"/>
</svg>
