<svg viewBox="0 0 24 24" fill="none" xmlns="http://www.w3.org/2000/svg">
<path d="M18.6666 4.41668C18.4863 4.3118 18.2636 4.3118 18.0833 4.41668C17.385 4.8041 16.5986 5.005 15.8 5C14.6323 5.02582 13.5034 4.58145 12.6666 3.76668C11.7007 2.82117 10.3947 2.30453 9.04332 2.33336C7.955 2.32395 6.89094 2.65492 6 3.28004V3C6 2.44773 5.5523 2 5 2C4.4477 2 4 2.4477 4 3V21C4 21.5523 4.4477 22 5 22C5.55227 22 6 21.5523 6 21V12.3333C6.11047 12.323 6.2157 12.2814 6.30332 12.2133C7.09637 11.6293 8.05852 11.3203 9.04332 11.3333C10.2131 11.3064 11.3445 11.7509 12.1833 12.5666C13.1474 13.5108 14.4509 14.0273 15.8 14C16.8339 14.012 17.8481 13.7161 18.7133 13.15C18.8985 13.0216 19.0063 12.8085 19 12.5833V5C19.0021 4.75969 18.8747 4.53684 18.6666 4.41668Z" fill="#DA1E28"/>
</svg>
