<svg width="16" height="16" viewBox="0 0 16 16" fill="none" xmlns="http://www.w3.org/2000/svg">
<path fill-rule="evenodd" clip-rule="evenodd" d="M12.6221 3.71174C12.1296 3.90404 11.5997 4.00293 11.0633 4.00104C10.0459 4.0196 9.06273 3.6555 8.33347 2.98975L8.33215 2.98854C7.78192 2.4836 7.03798 2.2077 6.26821 2.22309L6.25756 2.22331L6.2469 2.22322C5.62125 2.21815 5.00955 2.39653 4.49739 2.73343L4.00024 3.0002L3.94181 6.99987V7.56656C4.61552 7.11919 5.42307 6.8821 6.24959 6.8898C7.26763 6.8711 8.25151 7.23508 8.98169 7.90086L8.98344 7.90246C9.53253 8.40658 10.2749 8.6824 11.0433 8.66778L11.0546 8.66757L11.066 8.66769C11.6138 8.67367 12.1519 8.53865 12.6221 8.27851V3.71174ZM13.1294 8.76764C12.5141 9.14509 11.793 9.34233 11.0577 9.33431C10.0983 9.35257 9.17146 9.00819 8.48589 8.37877C7.88943 7.83491 7.08487 7.53863 6.25305 7.55655C5.55275 7.54788 4.86857 7.75387 4.30464 8.14322C4.24233 8.18858 4.00024 8.49991 4.00024 8.49991V14.001C4.00024 14.9999 3.00024 14.9999 3.00024 14.001V1.99986C3.00024 1.00001 4.00024 0.999983 4.00024 2.22332C4.00024 2.22332 4.2971 2.05802 4.40557 2.00101C4.52962 1.93579 4.6573 1.87747 4.78794 1.82621C5.24927 1.64522 5.74748 1.55248 6.25305 1.55658C7.214 1.53736 8.1427 1.88179 8.82958 2.51213C9.42457 3.0553 10.2274 3.35155 11.0577 3.33434C11.6256 3.33767 12.1848 3.20374 12.6814 2.94546C12.8095 2.87554 12.9679 2.87554 13.0962 2.94546C13.2442 3.02556 13.3347 3.17413 13.3332 3.33434V8.38986C13.3377 8.53999 13.261 8.6821 13.1294 8.76764Z" fill="black"/>
</svg>
