<svg width="12" height="12" viewBox="0 0 12 12" fill="none" xmlns="http://www.w3.org/2000/svg">
<path d="M2.85154 6.25862L5.99417 1.37574C6.00265 1.36256 6.01696 1.35464 6.03228 1.35464H9.11025C9.14959 1.35464 9.17059 1.40254 9.14465 1.43311L6.52491 4.51985C6.5002 4.54897 6.51799 4.59475 6.55532 4.59813L9.11165 4.82983C9.15067 4.83336 9.16764 4.88264 9.13954 4.91085L3.44417 10.6288C3.40758 10.6655 3.34905 10.6222 3.37094 10.5746L5.29022 6.39966C5.30465 6.36829 5.2825 6.33209 5.24889 6.33209H2.88965C2.85312 6.33209 2.83131 6.29005 2.85154 6.25862Z" fill="white"/>
<path fill-rule="evenodd" clip-rule="evenodd" d="M6.1917 1.70929L3.4447 5.97745H5.24889C5.53464 5.97745 5.72286 6.28514 5.60026 6.55182L4.38976 9.18498L8.43426 5.12444L6.52533 4.95142C6.20798 4.92266 6.05681 4.53351 6.26685 4.28603L8.45375 1.70929H6.1917ZM5.70836 1.17937C5.78047 1.06733 5.90206 1 6.03228 1H9.11025C9.44465 1 9.6232 1.40714 9.40272 1.66693L7.16986 4.29783L9.14164 4.47654C9.47338 4.50661 9.61756 4.92542 9.37873 5.16519L3.68336 10.8831C3.37238 11.1954 2.87487 10.8271 3.06091 10.4224L4.77827 6.68673H2.88965C2.57916 6.68673 2.39381 6.32937 2.56574 6.06224L5.70836 1.17937Z" fill="white"/>
</svg>
