<svg width="24" height="24" viewBox="0 0 24 24" fill="none" xmlns="http://www.w3.org/2000/svg">
<path d="M5.70308 12.5172L11.9883 2.75149C12.0053 2.72513 12.0339 2.70929 12.0646 2.70929H18.2205C18.2992 2.70929 18.3412 2.80508 18.2893 2.86621L13.0498 9.0397C13.0004 9.09793 13.036 9.1895 13.1106 9.19627L18.2233 9.65966C18.3013 9.66673 18.3353 9.76527 18.2791 9.82169L6.88834 21.2576C6.81517 21.3311 6.69811 21.2444 6.74188 21.1492L10.5804 12.7993C10.6093 12.7366 10.565 12.6642 10.4978 12.6642H5.7793C5.70624 12.6642 5.66263 12.5801 5.70308 12.5172Z" fill="white"/>
<path fill-rule="evenodd" clip-rule="evenodd" d="M12.3834 3.41857L6.8894 11.9549H10.4978C11.0693 11.9549 11.4457 12.5703 11.2005 13.1036L8.77951 18.37L16.8685 10.2489L13.0507 9.90284C12.416 9.84531 12.1136 9.06702 12.5337 8.57206L16.9075 3.41857H12.3834ZM11.4167 2.35873C11.5609 2.13465 11.8041 2 12.0646 2H18.2205C18.8893 2 19.2464 2.81428 18.8054 3.33386L14.3397 8.59565L18.2833 8.95308C18.9468 9.01322 19.2351 9.85084 18.7575 10.3304L7.36672 21.7663C6.74476 22.3907 5.74973 21.6542 6.12182 20.8449L9.55654 13.3735H5.7793C5.15833 13.3735 4.78761 12.6587 5.13147 12.1245L11.4167 2.35873Z" fill="white"/>
</svg>
