<svg viewBox="0 0 42 42" fill="none" xmlns="http://www.w3.org/2000/svg">
<rect width="42" height="42" rx="8" fill="black" fill-opacity="0.3"/>
<path d="M13 11L27.8571 29.8889" stroke="white" stroke-width="1.5" stroke-linecap="round" stroke-linejoin="round"/>
<path d="M15.3848 21.9574L18.065 17.7882C18.1027 17.7295 18.1874 17.7265 18.2292 17.7823L22.6638 23.7105C22.693 23.7496 22.6898 23.8039 22.6562 23.8393L16.338 30.4939C16.2584 30.5777 16.1237 30.4821 16.1766 30.3793L20.3537 22.2572C20.3879 22.1906 20.3396 22.1114 20.2647 22.1114H15.4689C15.3898 22.1114 15.342 22.0239 15.3848 21.9574Z" fill="white" stroke="white" stroke-width="1.5"/>
<path d="M22.115 12.1656L20.4576 15.3882C20.4399 15.4226 20.4437 15.4643 20.4674 15.495L25.503 22.0225C25.5394 22.0699 25.609 22.0748 25.6518 22.0332L28.8454 18.9284C28.9064 18.869 28.8701 18.7654 28.7853 18.7571L23.4877 18.2421C23.4051 18.234 23.3677 18.1348 23.4243 18.0742L28.8426 12.2796C28.9024 12.2157 28.8571 12.1113 28.7696 12.1113H22.2039C22.1664 12.1113 22.1321 12.1323 22.115 12.1656Z" fill="white" stroke="white" stroke-width="1.5" stroke-linecap="round"/>
</svg>
