<svg xmlns="http://www.w3.org/2000/svg" viewBox="0 0 258 258">
  <g>
    <circle cx="129" cy="129" r="129"/>
    <circle cx="129" cy="129" r="119.5" fill="#FFF"/>
    <g transform="translate(69 71)">
      <path d="M.3 19.6C16.4 19.6 32.4 19.5 48.5 19.6 50.9 19.6 52.9 19.1 54.3 17.1 54.9 16.3 55.6 15.4 56.4 14.3 59.5 17.9 62.3 21 67.3 19.1 67.3 19.3 67.2 19.6 67.2 19.8 66.8 20.2 66.5 20.7 66.1 21.1 56.8 30.4 47.5 39.7 38.3 49 37.2 50.1 36.4 50.2 35 49.7 24.3 45.7 13.6 41.8 2.9 37.8 2.1 37.5 1.2 37.3.3 37.1.3 31.3.3 25.5.3 19.6zM78.8 115.7C75.4 106.6 72 97.4 68.7 88.3 67.8 85.8 66.8 83.4 66 80.9 65.8 80.2 66 79.1 66.5 78.6 76.1 68.9 85.8 59.2 95.5 49.6 95.7 49.4 95.9 49.3 96.8 48.6 95 54 98.3 56.6 101.3 59.2 101 59.6 101 59.8 100.8 60 96.7 62.7 96.3 66.6 96.3 71.1 96.5 85.2 96.4 99.3 96.3 113.5 96.3 114.2 96.4 115 96.4 115.7 90.5 115.7 84.6 115.7 78.8 115.7z"/>
      <path d="M28.8,92.1 C25.6,95.4 22.6,98.5 19.7,101.6 C17.9,99.7 16.5,98.1 14.8,96.4 C17.6,93.6 20.7,90.6 24,87.2 C16.1,83.4 8.6,79.7 0.7,75.9 C2.8,73.8 4.9,72 6.6,69.9 C9.1,66.9 11.9,65.5 15.9,65.6 C20.4,65.7 24.9,65.2 29.4,65 C31.1,65 32.3,64.4 33.5,63.2 C51.4,45.2 69.4,27.3 87.4,9.3 C92.6,4.1 99,1.1 106.3,0.2 C112.1,-0.4 116.2,3.3 115.6,9.1 C114.9,16.4 112.1,22.7 106.9,27.9 C88.9,46 70.9,64 52.9,82 C51.7,83.1 51.2,84.3 51.2,85.9 C51,91.8 50.6,97.8 50.3,103.7 C50.3,104.3 50.1,104.9 49.7,105.3 C46.6,108.5 43.4,111.7 40.1,115.1 C36.3,107.5 32.6,99.9 28.8,92.1 Z"/>
    </g>
  </g>
</svg>
