<svg width="18" height="18" viewBox="0 0 18 18" fill="none" xmlns="http://www.w3.org/2000/svg">
<path fill-rule="evenodd" clip-rule="evenodd" d="M12.5263 17.3908H6.04126C2.72626 17.3908 0.66626 15.335 0.66626 12.0266V5.52746C0.66626 1.96996 2.24876 0.166626 5.36876 0.166626H7.03543C7.82793 0.167459 8.58293 0.545793 9.05626 1.17829L9.81543 2.18829C10.0563 2.50829 10.4388 2.69913 10.8388 2.69996H13.1963C16.4146 2.69996 17.9138 4.34913 17.9138 7.88996L17.8904 12.0291C17.8896 15.3358 15.8346 17.3908 12.5263 17.3908ZM5.65062 11.594H12.9298C13.2748 11.594 13.5548 11.314 13.5548 10.969C13.5548 10.624 13.2748 10.344 12.9298 10.344H5.65062C5.30562 10.344 5.02562 10.624 5.02562 10.969C5.02562 11.314 5.30562 11.594 5.65062 11.594Z" fill="#2C304E"/>
</svg>
