<svg width="24" height="24" viewBox="0 0 24 24" fill="none" xmlns="http://www.w3.org/2000/svg">
<path fill-rule="evenodd" clip-rule="evenodd" d="M7.64257 3.5C4.73857 3.5 3.49957 4.976 3.49957 8.433V16.232C3.49957 19.416 5.25757 21.169 8.44957 21.169H16.2316C19.4156 21.169 21.1686 19.416 21.1686 16.232V16.229L21.1966 11.264C21.1966 7.865 20.0306 6.54 17.0356 6.54H14.2056C13.2566 6.539 12.3506 6.086 11.7806 5.328L10.8676 4.114C10.5806 3.729 10.1216 3.501 9.64157 3.5H7.64257ZM16.2316 22.669H8.44957C4.47157 22.669 1.99957 20.202 1.99957 16.232V8.433C1.99957 4.164 3.89857 2 7.64257 2H9.64257C10.5936 2.001 11.4996 2.455 12.0676 3.214L12.9786 4.426C13.2676 4.81 13.7266 5.039 14.2066 5.04H17.0356C20.8976 5.04 22.6966 7.019 22.6966 11.268L22.6686 16.235C22.6676 20.203 20.2016 22.669 16.2316 22.669Z" fill="currentColor"/>
<path fill-rule="evenodd" clip-rule="evenodd" d="M16.7158 15.7128H7.9808C7.5668 15.7128 7.2308 15.3768 7.2308 14.9628C7.2308 14.5488 7.5668 14.2128 7.9808 14.2128H16.7158C17.1298 14.2128 17.4658 14.5488 17.4658 14.9628C17.4658 15.3768 17.1298 15.7128 16.7158 15.7128Z" fill="currentColor"/>
</svg>
