<svg xmlns="http://www.w3.org/2000/svg" viewBox="0 0 258 258">
  <g>
    <circle cx="129" cy="129" r="129"/>
    <circle cx="129" cy="128.5" r="119.5" fill="#FFF"/>
    <g transform="translate(60 60)">
      <path d="M52.6,135.7 C52.1,127.1 51.6,118.6 51.2,110.1 C50.9,104.1 50.5,98.1 50.4,92 C50.4,91 51.2,89.4 51.9,89.2 C63.7,85.2 67.9,75.7 69.4,64.6 C70.9,53.8 68.2,44 60.3,36.1 C50.8,26.6 38.9,27.3 29.7,37.9 C19.6,49.5 19.4,70.3 29.3,82 C32,85.3 35.3,87.6 39.4,88.8 C40.8,89.2 41.8,89.7 41.7,91.6 C41,104.3 40.3,117 39.6,129.6 C39.6,129.9 39.4,130.2 39.3,130.5 C19.2,122.6 -2,96.4 0.7,64.3 C3.5,30.2 29.4,4.1 63.5,1 C95.6,-1.9 126.5,19.8 135,50.5 C144.1,83.6 127.3,115.2 103.4,128.1 C102.9,120 102.5,112 102.1,104 C102.1,103.6 102.1,103.1 102,102.7 C101,96.8 101.5,92.3 108.6,89.7 C113.8,87.8 116.5,82.7 116,76.6 C114.8,60.9 113.8,45.2 112.8,29.4 C111.1,29.3 110.2,29.2 109,29.2 C109,44.5 109,59.6 109,75 C107.4,75 106.2,75 104.6,75 C104.6,59.9 104.6,44.8 104.6,29.4 C103,29.4 101.5,29.4 99.8,29.4 C99.8,44.5 99.8,59.6 99.8,75 C98.3,75 97.1,75 95.7,75 C95.7,59.9 95.7,44.8 95.7,29.5 C94.1,29.5 92.8,29.5 91.1,29.5 C91.1,44.5 91.1,59.7 91.1,75.1 C89.5,75.1 88.4,75.1 86.9,75.1 C86.9,60 86.9,44.8 86.9,29.5 C85.3,29.5 84.1,29.5 82.4,29.5 C81.9,34.2 81.2,39 80.8,43.8 C80,54.6 79.4,65.3 78.5,76.1 C77.7,85.3 84,89.8 90.1,92.2 C92.4,93.1 93,94.1 92.8,96.5 C92.1,108 91.5,119.5 91.1,131.1 C91,133.6 90.1,134.8 87.7,135.4 C76,138.4 64.4,138.7 52.6,135.7 Z"/>
      <path d="M39.8,83.6 C34.5,83.2 28.9,76.4 27,68.6 C25.3,61.5 27.7,51.4 32.8,48.2 C28.7,61.6 31.5,73.1 39.8,83.6 Z"/>
    </g>
  </g>
</svg>
