<svg xmlns="http://www.w3.org/2000/svg" viewBox="0 0 24 24" fill="none">
  <path d="M3.29736 21.189H13.9357M4.18389 9.66417H13.0491M13.0491 21.189V5.23155C13.0491 4.7613 12.8623 4.31032 12.5298 3.97781C12.1973 3.6453 11.7463 3.4585 11.2761 3.4585H5.95694C5.4867 3.4585 5.03571 3.6453 4.7032 3.97781C4.37069 4.31032 4.18389 4.7613 4.18389 5.23155V21.189M13.0491 13.2103H14.8222C15.2924 13.2103 15.7434 13.3971 16.0759 13.7296C16.4084 14.0621 16.5952 14.5131 16.5952 14.9833V16.7564C16.5952 17.2266 16.782 17.6776 17.1145 18.0101C17.4471 18.3426 17.898 18.5294 18.3683 18.5294C18.8385 18.5294 19.2895 18.3426 19.622 18.0101C19.9545 17.6776 20.1413 17.2266 20.1413 16.7564V10.4C20.1415 10.166 20.0954 9.93433 20.0056 9.71828C19.9159 9.50222 19.7842 9.30606 19.6183 9.14112L16.5952 6.11807" stroke="currentColor" stroke-width="1.18203" stroke-linecap="round" stroke-linejoin="round"/>
</svg>