<svg width="24" height="22" viewBox="0 0 24 22" fill="none" xmlns="http://www.w3.org/2000/svg">
<path d="M8.71622 14.2234H5.49622" stroke="#161528" stroke-width="1.5" stroke-linecap="round" stroke-linejoin="round"/>
<path d="M10.7162 10.0369H5.49622" stroke="#161528" stroke-width="1.5" stroke-linecap="round" stroke-linejoin="round"/>
<path d="M8.25131 5.8601H5.49631" stroke="#161528" stroke-width="1.5" stroke-linecap="round" stroke-linejoin="round"/>
<path d="M12.9456 19.1568C12.9326 19.1568 5.25661 19.1598 5.25661 19.1598C2.47261 19.1598 0.75061 17.3368 0.75061 14.5528V5.3568C0.75061 2.5868 2.45961 0.7708 5.21961 0.7538C5.22592 0.7538 7.34914 0.752695 9.36254 0.751647C11.1803 0.7507 12.9086 0.7498 12.9086 0.7498C16.5001 0.7498 17.5001 2.49998 17.5001 7.49998" stroke="#161528" stroke-width="1.5" stroke-linecap="round" stroke-linejoin="round"/>
<path d="M16 11V17" stroke="url(#paint0_linear)" stroke-width="1.5" stroke-linecap="round" stroke-linejoin="round"/>
<path d="M19 14H13" stroke="url(#paint1_linear)" stroke-width="1.5" stroke-linecap="round" stroke-linejoin="round"/>
<defs>
<linearGradient id="paint0_linear" x1="16.367" y1="10.5385" x2="19.896" y2="12.3903" gradientUnits="userSpaceOnUse">
<stop stop-color="#FF3366"/>
<stop offset="1" stop-color="#FE5196"/>
</linearGradient>
<linearGradient id="paint1_linear" x1="15.2021" y1="13.9231" x2="15.2776" y2="15.3486" gradientUnits="userSpaceOnUse">
<stop stop-color="#FF3366"/>
<stop offset="1" stop-color="#FE5196"/>
</linearGradient>
</defs>
</svg>
