<svg xmlns="http://www.w3.org/2000/svg" xmlns:xlink="http://www.w3.org/1999/xlink" viewBox="0 0 20 20" xmlns:v="https://vecta.io/nano"><defs><path id="Aqweoioqew" d="M14.19 9.497c2.104 0 3.81 1.68 3.81 3.75S16.295 17 14.19 17s-3.81-1.68-3.81-3.75 1.705-3.75 3.81-3.75zm-2.94-6.17c.252.3.567.508.82.8.126.073.252.073.378 0l.945-.8a.79.79 0 0 1 .882-.073c.315.145.504.508.504.87V8.87a4.41 4.41 0 0 0-.786-.07l-.224.006v-4.4l-.754.736c-.44.363-1.134.363-1.512-.073-.252-.3-.567-.508-.82-.8-.126-.145-.315-.145-.378 0l-.693.726c-.44.436-1.134.508-1.638 0l-.126-.073-.693-.654c-.126-.145-.252-.145-.378 0l-.756.654a1.11 1.11 0 0 1-1.575 0C4.26 4.78 4.176 4.64 4 4.46v11.083c.19-.13.25-.232.44-.363a1.2 1.2 0 0 1 1.575 0l.756.657c.126.066.252.066.378 0l.756-.657c.504-.394 1.197-.394 1.638 0 .19.197.44.394.693.59.126.13.315.13.44.066l.024-.02a4.32 4.32 0 0 0 .747.681l-.14.13c-.44.394-1.134.394-1.638 0l-.063-.066-.693-.59c-.126-.13-.252-.13-.378 0l-.756.657c-.252.13-.497.263-.75.263s-.637-.13-.89-.33l-.756-.657c-.126-.066-.252-.066-.378 0-.19.197-.378.33-.567.526-.315.263-.625.307-.97.13S3 16.1 3 15.772V4.197c0-.363.19-.726.504-.87s.63-.145.945.145c.19.218.44.436.63.58.126.073.252.073.378 0l.756-.726a1.11 1.11 0 0 1 1.575 0l.693.654.063.073c.126.073.252.073.378 0l.693-.726c.44-.436 1.134-.436 1.638 0zm2.94 7.1c-1.583 0-2.867 1.264-2.867 2.823s1.283 2.823 2.867 2.823 2.866-1.264 2.866-2.823-1.283-2.823-2.867-2.823zm-.04.773a.47.47 0 0 1 .465.389l.006.075-.001 1.074 1.077.001c.256 0 .464.21.464.47a.47.47 0 0 1-.389.465l-.075.006h-1.077l.001 1.077c0 .256-.21.464-.47.464a.47.47 0 0 1-.465-.389l-.006-.075V13.68h-1.075c-.256 0-.464-.21-.464-.47a.47.47 0 0 1 .389-.465l.075-.006 1.075-.001v-1.074c0-.256.21-.464.47-.464zm-4.13.187c-.15.343-.253.71-.306 1.09H6.298c-.298 0-.54-.244-.54-.545 0-.276.203-.504.467-.54l.073-.005 3.722-.001zm1.317-3.63c.298 0 .54.244.54.545 0 .276-.203.504-.467.54l-.073.005h-5.04c-.298 0-.54-.244-.54-.545 0-.276.203-.504.467-.54l.073-.005h5.04z"/></defs><use fill-rule="nonzero" xlink:href="#Aqweoioqew" transform="translate(-3 -3)"/></svg>
