<svg xmlns="http://www.w3.org/2000/svg" viewBox="0 0 18 18">
  <path d="M14.6233625,0.809576935 L14.6897892,0.918577408 C14.9697666,1.41694416 15.2401068,1.92784677 15.50081,2.45128525 L16.875,2.45263087 C17.4963203,2.45263087 18,2.95631052 18,3.57763087 L18,15.9526309 C18,16.5739512 17.4963203,17.0776309 16.875,17.0776309 L1.125,17.0776309 C0.503679656,17.0776309 0,16.5739512 0,15.9526309 L0,3.57763087 C0,2.95631052 0.503679656,2.45263087 1.125,2.45263087 L8.86,2.452 L12.1298483,0.297318591 C12.9598688,-0.249793237 14.0762546,-0.0204461481 14.6233625,0.809576935 Z M6.813,3.801 L1.35,3.80263087 L1.35,15.7276309 L16.65,15.7276309 L16.65,13.177 L13.0625,13.1776309 C11.8517883,13.1776309 10.860761,12.2370499 10.7802773,11.0467472 L10.775,10.8901309 C10.775,9.6267795 11.7991486,8.60263087 13.0625,8.60263087 L13.0625,8.60263087 L16.65,8.602 L16.65,6.427 L3.375,6.42763087 C3.04362915,6.42763087 2.775,6.15900172 2.775,5.82763087 C2.775,5.5293971 2.99258961,5.28198411 3.27767688,5.23548385 L3.375,5.22763087 L4.65,5.227 L6.813,3.801 Z M16.4,9.802 L13.0625,9.80263087 C12.501931,9.80263087 12.0404241,10.2267664 11.9813813,10.7716358 L11.9813813,10.7716358 L11.975,10.8901309 C11.975,11.4907405 12.4618903,11.9776309 13.0625,11.9776309 L13.0625,11.9776309 L16.4,11.977 L16.4,9.802 Z M15.1875,10.3276309 C15.4981602,10.3276309 15.75,10.5794707 15.75,10.8901309 C15.75,11.200791 15.4981602,11.4526309 15.1875,11.4526309 C14.8768398,11.4526309 14.625,11.200791 14.625,10.8901309 C14.625,10.5794707 14.8768398,10.3276309 15.1875,10.3276309 Z M12.9535717,1.38220213 L12.8728187,1.42448092 L7.103,5.227 L15.3538066,5.22788389 C15.1419707,4.75315185 14.9188653,4.27764723 14.6844906,3.80137001 L14.625,3.80163087 L14.6267264,3.68443092 C14.3808379,3.18852618 14.1227385,2.6917843 13.8524282,2.19420529 L13.4961985,1.55254474 C13.3765183,1.37097679 13.1478757,1.30438245 12.9535717,1.38220213 Z M16.65,3.80263087 L16.13923,3.8010017 C16.3150472,4.19264739 16.4858798,4.59077713 16.6517277,4.99539091 L16.65,3.80263087 Z"/>
</svg>