<svg width="24" height="24" viewBox="0 0 24 24" fill="none" xmlns="http://www.w3.org/2000/svg">
<path d="M17.9905 8.14446C18.2141 8.33615 18.262 8.65673 18.1184 8.90231L18.0556 8.99049L12.7199 15.2154C12.1898 15.8339 11.2586 15.9055 10.6401 15.3754L10.557 15.2985L10.4801 15.2154L5.14446 8.99049C4.9288 8.73889 4.95794 8.36011 5.20954 8.14446C5.43318 7.95277 5.75731 7.95449 5.97804 8.13394L6.05557 8.20954L11.3912 14.4345C11.4004 14.4452 11.4104 14.4551 11.421 14.4643C11.5171 14.5467 11.6537 14.5511 11.7538 14.4836L11.8088 14.4345L17.1445 8.20954C17.3601 7.95794 17.7389 7.9288 17.9905 8.14446Z" fill="#A9ACBC"/>
</svg>
