<svg viewBox="0 0 24 24" xmlns="http://www.w3.org/2000/svg">
<path fill-rule="evenodd" clip-rule="evenodd" d="M2.25 4.5904C2.25 3.31015 3.27545 2.25 4.56517 2.25H19.4359C20.7263 2.25 21.75 3.31082 21.75 4.5904V5.52644C21.75 6.36617 21.4309 7.17502 20.8587 7.78491L16.0043 12.9466C15.2147 13.7606 14.7701 14.8618 14.7701 16.0114V18.2984C14.7701 19.0485 14.364 19.7451 13.703 20.1061L10.9419 21.6107C10.1583 22.0363 9.24905 21.4481 9.24905 20.5952V16.0233C9.24905 14.8918 8.8168 13.8073 8.04947 12.9959C8.02829 12.9779 8.00801 12.9586 7.98875 12.9381L3.14301 7.78558C2.56924 7.17545 2.25 6.36625 2.25 5.52644V4.5904ZM9.02929 11.855C9.04461 11.8684 9.05944 11.8824 9.07375 11.897C10.147 12.9957 10.7491 14.4788 10.7491 16.0233V20.0075L12.9841 18.7896C12.9842 18.7896 12.984 18.7897 12.9841 18.7896C13.1561 18.6955 13.2701 18.5081 13.2701 18.2984V16.0114C13.2701 14.4784 13.8618 13.0031 14.9235 11.9064L19.7647 6.75863C19.7649 6.75844 19.7646 6.75881 19.7647 6.75863C20.0744 6.42821 20.25 5.98651 20.25 5.52644V4.5904C20.25 4.1149 19.8737 3.75 19.4359 3.75H4.56517C4.1267 3.75 3.75 4.11557 3.75 4.5904V5.52644C3.75 5.98668 3.92515 6.42771 4.2357 6.75795C4.23571 6.75796 4.2357 6.75795 4.2357 6.75795L9.02929 11.855Z" fill="#161528"/>
<path d="M23 3C23 4.65685 21.6569 6 20 6C18.3431 6 17 4.65685 17 3C17 1.34315 18.3431 0 20 0C21.6569 0 23 1.34315 23 3Z" fill="url(#paint0_linear)"/>
<defs>
<linearGradient id="paint0_linear" x1="19.2021" y1="-0.461538" x2="21.6766" y2="7.32939" gradientUnits="userSpaceOnUse">
<stop stop-color="#FF3366"/>
<stop offset="1" stop-color="#FE5196"/>
</linearGradient>
</defs>
</svg>
