<svg xmlns="http://www.w3.org/2000/svg" viewBox="0 0 513 513">
  <path fill="#FF3B6C" fill-rule="evenodd" d="M435.217,290.142 C430.498,290.142 426.684,293.965 426.684,298.675 L426.684,366.942 C426.684,381.056 415.198,392.542 401.084,392.542 L110.95,392.542 C96.836,392.542 85.35,381.056 85.35,366.942 L85.35,298.675 C85.35,293.965 81.536,290.142 76.817,290.142 C72.098,290.142 68.284,293.965 68.284,298.675 L68.284,366.942 C68.284,390.468 87.424,409.609 110.951,409.609 L401.084,409.609 C424.61,409.609 443.751,390.469 443.751,366.942 L443.751,298.675 C443.75,293.965 439.936,290.142 435.217,290.142 Z M85.35,264.542 L85.35,179.209 C85.35,165.095 96.836,153.609 110.95,153.609 L179.217,153.609 C183.936,153.609 187.75,149.786 187.75,145.076 C187.75,111.438 224.452,85.343 256.017,85.343 C278.221,85.343 301.73,97.605 314.539,115.858 C317.244,119.707 322.56,120.654 326.426,117.949 C330.283,115.235 331.222,109.919 328.508,106.062 C314.053,85.445 289.622,71.485 264.551,68.831 L264.551,49.638 C274.458,46.097 281.618,36.719 281.618,25.608 C281.618,11.494 270.132,0.008 256.018,0.008 C241.904,0.008 230.418,11.494 230.418,25.608 C230.418,36.718 237.577,46.097 247.485,49.629 L247.485,68.803 C212.319,72.694 176.206,99.907 171.257,136.541 L110.95,136.541 C87.424,136.541 68.283,155.681 68.283,179.208 L68.266,256.008 L49.63,256.008 C46.089,246.092 36.711,238.941 25.6,238.941 C11.486,238.941 0,250.427 0,264.541 C0,278.655 11.486,290.141 25.6,290.141 C36.71,290.141 46.089,282.99 49.63,273.074 L76.817,273.074 C81.536,273.075 85.35,269.252 85.35,264.542 Z M486.417,238.942 C475.307,238.942 465.929,246.093 462.396,256.009 L443.75,256.009 L443.75,179.209 C443.75,155.683 424.61,136.542 401.083,136.542 L213.35,136.542 C208.631,136.542 204.817,140.365 204.817,145.075 C204.817,149.785 208.631,153.608 213.35,153.608 L401.083,153.608 C415.197,153.608 426.683,165.094 426.683,179.208 L426.683,264.541 C426.683,269.251 430.497,273.074 435.216,273.074 L462.395,273.074 C465.928,282.99 475.306,290.141 486.416,290.141 C500.53,290.141 512.016,278.655 512.016,264.541 C512.017,250.428 500.531,238.942 486.417,238.942 Z M332.817,426.675 L179.217,426.675 C174.498,426.675 170.684,430.498 170.684,435.208 C170.684,439.918 174.498,443.741 179.217,443.741 L332.817,443.741 C337.536,443.741 341.35,439.918 341.35,435.208 C341.35,430.498 337.536,426.675 332.817,426.675 Z M375.484,230.409 C375.484,216.295 363.998,204.809 349.884,204.809 C335.77,204.809 324.284,216.295 324.284,230.409 C324.284,244.523 335.77,256.009 349.884,256.009 C363.998,256.009 375.484,244.523 375.484,230.409 Z M187.75,230.409 C187.75,216.295 176.264,204.809 162.15,204.809 C148.036,204.809 136.55,216.295 136.55,230.409 C136.55,244.523 148.036,256.009 162.15,256.009 C176.264,256.009 187.75,244.523 187.75,230.409 Z M315.75,494.942 L196.284,494.942 C191.565,494.942 187.751,498.765 187.751,503.475 C187.751,508.185 191.565,512.008 196.284,512.008 L315.75,512.008 C320.469,512.008 324.283,508.185 324.283,503.475 C324.283,498.765 320.469,494.942 315.75,494.942 Z M170.684,315.742 L170.684,349.875 C170.684,354.585 174.498,358.408 179.217,358.408 L332.817,358.408 C337.536,358.408 341.35,354.585 341.35,349.875 L341.35,315.742 C341.35,311.032 337.536,307.209 332.817,307.209 L179.217,307.209 C174.498,307.209 170.684,311.031 170.684,315.742 Z M315.75,460.809 L196.284,460.809 C191.565,460.809 187.751,464.632 187.751,469.342 C187.751,474.052 191.565,477.875 196.284,477.875 L315.75,477.875 C320.469,477.875 324.283,474.052 324.283,469.342 C324.283,464.632 320.469,460.809 315.75,460.809 Z"/>
</svg>
