<svg viewBox="0 0 18 20" fill="none" xmlns="http://www.w3.org/2000/svg">
<path fill-rule="evenodd" clip-rule="evenodd" d="M1.84615 2.5C1.84615 1.11929 2.98266 0 4.38462 0H13.6154C15.0173 0 16.1538 1.11929 16.1538 2.5V3.12667L17.2565 4.21262C17.7326 4.68146 18 5.31735 18 5.98039V7.95455C18 8.3311 17.69 8.63636 17.3077 8.63636C16.9253 8.63636 16.6154 8.3311 16.6154 7.95455V5.98039C16.6154 5.67901 16.4938 5.38997 16.2774 5.17686L16.1538 5.05515V15.6818C16.1538 16.5724 15.5759 17.3301 14.7692 17.6109V17.7273C14.7692 18.9825 13.736 20 12.4615 20C11.187 20 10.1538 18.9825 10.1538 17.7273H7.84615C7.84615 18.9825 6.81296 20 5.53846 20C4.26396 20 3.23077 18.9825 3.23077 17.7273V17.6109C2.4241 17.3301 1.84615 16.5724 1.84615 15.6818V5.05515L1.72257 5.17686C1.50618 5.38997 1.38462 5.67901 1.38462 5.98039V7.95455C1.38462 8.3311 1.07466 8.63636 0.692308 8.63636C0.309957 8.63636 0 8.3311 0 7.95455V5.98039C0 5.31735 0.267443 4.68146 0.743498 4.21262L1.84615 3.12667V2.5ZM3.23077 4.09091V10H8.30769V4.09091H3.23077ZM9.69231 4.09091V10H14.7692V4.09091H9.69231ZM14.7692 2.72727H3.23077V2.5C3.23077 1.8724 3.74736 1.36364 4.38462 1.36364H13.6154C14.2526 1.36364 14.7692 1.8724 14.7692 2.5V2.72727ZM14.7692 11.3636H3.23077V15.6818C3.23077 16.0584 3.54073 16.3636 3.92308 16.3636H14.0769C14.4593 16.3636 14.7692 16.0584 14.7692 15.6818V11.3636ZM4.61538 17.7273C4.61538 18.2293 5.02866 18.6364 5.53846 18.6364C6.04826 18.6364 6.46154 18.2293 6.46154 17.7273H4.61538ZM11.5385 17.7273C11.5385 18.2293 11.9517 18.6364 12.4615 18.6364C12.9713 18.6364 13.3846 18.2293 13.3846 17.7273H11.5385ZM4.61538 13.4091C4.61538 13.0325 4.92534 12.7273 5.30769 12.7273H7.15385C7.5362 12.7273 7.84615 13.0325 7.84615 13.4091C7.84615 13.7856 7.5362 14.0909 7.15385 14.0909H5.30769C4.92534 14.0909 4.61538 13.7856 4.61538 13.4091ZM10.1538 13.4091C10.1538 13.0325 10.4638 12.7273 10.8462 12.7273H12.6923C13.0747 12.7273 13.3846 13.0325 13.3846 13.4091C13.3846 13.7856 13.0747 14.0909 12.6923 14.0909H10.8462C10.4638 14.0909 10.1538 13.7856 10.1538 13.4091Z" fill="currentColor"/>
</svg>
