<svg viewBox="0 0 24 24" fill="none" xmlns="http://www.w3.org/2000/svg">
<path fill-rule="evenodd" clip-rule="evenodd" d="M18.541 5.4565C14.9326 1.84768 9.06912 1.84768 5.46069 5.45744C2.63473 8.28278 2.02091 12.47 3.60698 15.8974C3.61237 15.9091 3.61747 15.9209 3.62225 15.9328L3.63477 15.9639C3.83807 16.4696 4.06726 17.0398 4.06726 17.6266C4.06726 18.0357 3.97003 18.4357 3.86741 18.7763C3.81511 18.9498 3.75712 19.1212 3.70326 19.2793L3.68935 19.3201C3.63953 19.4662 3.59398 19.5998 3.55331 19.7301C3.46137 20.0246 3.41943 20.2279 3.41943 20.3734C3.41943 20.4923 3.44568 20.5186 3.46372 20.5367C3.48172 20.5547 3.50839 20.5805 3.62618 20.5804C3.7712 20.5803 3.97401 20.5383 4.26749 20.4462C4.39966 20.4047 4.53547 20.358 4.68412 20.3069L4.71661 20.2957C4.87398 20.2416 5.0447 20.1833 5.21739 20.1306C5.55608 20.0272 5.95409 19.9284 6.36093 19.926L6.36537 19.926C6.94496 19.926 7.5179 20.1571 8.012 20.3563C8.03029 20.3637 8.04846 20.371 8.06653 20.3783C8.07822 20.383 8.08979 20.388 8.10123 20.3933C11.5294 21.9787 15.715 21.3658 18.541 18.5396C22.1498 14.9303 22.1562 9.07208 18.541 5.4565ZM4.39983 4.39697C8.59408 0.201188 15.4075 0.201188 19.6017 4.3959C23.8033 8.59794 23.7956 15.4059 19.6017 19.6002C16.3202 22.882 11.4644 23.5926 7.48917 21.7629C6.91486 21.5319 6.61583 21.4266 6.36752 21.426C6.18131 21.4275 5.95026 21.4752 5.65536 21.5652C5.51066 21.6094 5.3627 21.6598 5.20405 21.7143L5.16796 21.7267C5.02359 21.7764 4.86926 21.8294 4.71693 21.8773C4.39674 21.9778 4.01208 22.0802 3.62707 22.0804C3.21559 22.0807 2.76925 21.9631 2.40335 21.5976C2.03749 21.2317 1.91943 20.7849 1.91943 20.3734C1.91943 19.9884 2.02145 19.6034 2.12146 19.2831C2.16828 19.1331 2.22018 18.9809 2.26879 18.8384C2.27371 18.824 2.27859 18.8097 2.28343 18.7955C2.33754 18.6367 2.38753 18.4884 2.4312 18.3435C2.52053 18.047 2.56726 17.8144 2.56726 17.6266C2.56726 17.3756 2.46636 17.0801 2.23741 16.5095C0.406918 12.5347 1.11855 7.67767 4.39983 4.39697Z" fill="currentColor"/>
<path fill-rule="evenodd" clip-rule="evenodd" d="M14.9394 12.413C14.9394 11.8607 15.3871 11.413 15.9394 11.413H15.9484C16.5007 11.413 16.9484 11.8607 16.9484 12.413C16.9484 12.9653 16.5007 13.413 15.9484 13.413H15.9394C15.3871 13.413 14.9394 12.9653 14.9394 12.413Z" fill="currentColor"/>
<path fill-rule="evenodd" clip-rule="evenodd" d="M10.9304 12.413C10.9304 11.8607 11.3781 11.413 11.9304 11.413H11.9394C12.4917 11.413 12.9394 11.8607 12.9394 12.413C12.9394 12.9653 12.4917 13.413 11.9394 13.413H11.9304C11.3781 13.413 10.9304 12.9653 10.9304 12.413Z" fill="currentColor"/>
<path fill-rule="evenodd" clip-rule="evenodd" d="M6.9214 12.413C6.9214 11.8607 7.36912 11.413 7.9214 11.413H7.9304C8.48269 11.413 8.9304 11.8607 8.9304 12.413C8.9304 12.9653 8.48269 13.413 7.9304 13.413H7.9214C7.36912 13.413 6.9214 12.9653 6.9214 12.413Z" fill="currentColor"/>
</svg>
