<svg xmlns="http://www.w3.org/2000/svg" viewBox="0 0 18 15">
  <path d="M17,0 C17.5522847,0 18,0.44771525 18,1 L18,14 C18,14.5522847 17.5522847,15 17,15 L1,15 C0.44771525,15 0,14.5522847 0,14 L0,1 C0,0.44771525 0.44771525,0 1,0 L17,0 Z M16.8,5.125 L1.199,5.125 L1.2,13.8 L16.8,13.8 L16.8,5.125 Z M14.625,10.275 C14.9563708,10.275 15.225,10.5436292 15.225,10.875 C15.225,11.1732338 15.0074104,11.4206468 14.7223231,11.467147 L14.625,11.475 L11.25,11.475 C10.9186292,11.475 10.65,11.2063708 10.65,10.875 C10.65,10.5767662 10.8675896,10.3293532 11.1526769,10.282853 L11.25,10.275 L14.625,10.275 Z M16.8,1.2 L1.2,1.2 L1.199,3.125 L16.8,3.125 L16.8,1.2 Z"/>
</svg>