<svg xmlns="http://www.w3.org/2000/svg" viewBox="0 0 32 31">
  <path fill-rule="evenodd" d="M6.5426087,17.0288696 C2.93426087,17.0288696 0,19.9638261 0,23.5721739 C0,27.1805217 2.93495652,30.1161739 6.5426087,30.1161739 C10.1516522,30.1161739 13.0866087,27.1805217 13.0866087,23.5721739 C13.0866087,19.9638261 10.1516522,17.0288696 6.5426087,17.0288696 L6.5426087,17.0288696 Z M6.5426087,27.3426087 C4.46469565,27.3426087 2.77286957,25.6507826 2.77286957,23.5721739 C2.77286957,21.4935652 4.46469565,19.8017391 6.5426087,19.8017391 C8.62191304,19.8017391 10.3137391,21.4935652 10.3137391,23.5721739 C10.3137391,25.6507826 8.6226087,27.3426087 6.5426087,27.3426087 Z M25.2646957,17.0288696 C21.6556522,17.0288696 18.7213913,19.9638261 18.7213913,23.5721739 C18.7213913,27.1805217 21.6563478,30.1161739 25.2646957,30.1161739 C28.8737391,30.1161739 31.808,27.1805217 31.808,23.5721739 C31.808,19.9638261 28.8737391,17.0288696 25.2646957,17.0288696 Z M25.2646957,27.3426087 C23.186087,27.3426087 21.4942609,25.6507826 21.4942609,23.5721739 C21.4942609,21.4935652 23.186087,19.8017391 25.2646957,19.8017391 C27.3426087,19.8017391 29.0351304,21.4935652 29.0351304,23.5721739 C29.0351304,25.6507826 27.3433043,27.3426087 25.2646957,27.3426087 Z M17.2361739,16.8333913 L13.7189565,13.7175652 L17.536,10.0653913 L19.3266087,12.7742609 C19.696,13.3349565 20.3144348,13.682087 20.9878261,13.7057391 L24.5064348,13.8302609 C25.6424348,13.8733913 26.6170435,12.9732174 26.6587826,11.8253913 C26.6998261,10.6768696 25.8017391,9.7133913 24.6532174,9.67304348 L22.2045217,9.58678261 L19.6306087,5.69530435 C19.2904348,5.18121739 18.7401739,4.84382609 18.128,4.77565217 C17.5123478,4.70747826 16.9036522,4.91269565 16.4584348,5.33982609 L9.20834783,12.2713043 C8.78817391,12.6733913 8.55582609,13.232 8.56695652,13.8135652 C8.57669565,14.3944348 8.83478261,14.9446957 9.26956522,15.3307826 L13.776,19.3245217 L13.776,26.4507826 C13.776,27.5986087 14.7116522,28.530087 15.8601739,28.530087 C17.0093913,28.530087 17.9450435,27.5986087 17.9450435,26.4507826 L17.9450435,18.3881739 C17.9443478,17.794087 17.6806957,17.2271304 17.2361739,16.8333913 Z M22.5133913,5.80452174 C24.0332789,5.80452174 25.2653913,4.57240937 25.2653913,3.05252174 C25.2653913,1.53263411 24.0332789,0.300521739 22.5133913,0.300521739 C20.9935037,0.300521739 19.7613913,1.53263411 19.7613913,3.05252174 C19.7613913,4.57240937 20.9935037,5.80452174 22.5133913,5.80452174 Z"/>
</svg>
