<svg xmlns="http://www.w3.org/2000/svg" xmlns:xlink="http://www.w3.org/1999/xlink" width="15" height="15" viewBox="0 0 15 15">
  <defs>
    <path id="02.-warning-a" d="M15.6928894,2.8 C16.5237762,2.8 17.2,3.47604623 17.2,4.30697745 L17.2,4.30697745 L17.2,9.62038684 C17.2,9.72912677 17.1566345,9.83348722 17.0797302,9.91039562 L17.0797302,9.91039562 L10.6307709,16.3598062 C10.3469727,16.6436196 9.96853943,16.8 9.56511231,16.8 L9.56511231,16.8 L9.4150634,16.7927264 C9.06855722,16.7589154 8.74779053,16.6081563 8.49956055,16.359913 L8.49956055,16.359913 L3.64059753,11.5007973 C3.05313416,10.9133026 3.05313416,9.95718155 3.64059753,9.36947318 L3.64059753,9.36947318 L10.0897705,2.92016937 C10.1666748,2.84326097 10.2710297,2.8 10.3797638,2.8 L10.3797638,2.8 Z M15.5131009,3.8487332 L10.7158473,3.8487332 L4.58678625,9.98851201 C4.33773792,10.2376597 4.33773792,10.6431334 4.58678625,10.8921817 L4.58678625,10.8921817 L9.10771888,15.413015 C9.22757213,15.5328683 9.38797275,15.5988571 9.55950405,15.5988571 C9.73093595,15.5988571 9.89143597,15.5328683 10.0112892,15.4129156 L10.0112892,15.4129156 L16.1402509,9.27303742 L16.1521195,4.48765245 C16.1521195,4.13534747 15.8654059,3.8487332 15.5131009,3.8487332 L15.5131009,3.8487332 Z M13.3847501,5.32635498 C13.7290037,5.32635498 14.0526426,5.46051025 14.296066,5.70393372 C14.5393827,5.94725036 14.6734311,6.27088929 14.6734311,6.61514284 C14.6734311,6.95939636 14.5393827,7.28303529 14.2959592,7.52645873 C14.0525358,7.7698822 13.7288969,7.90393066 13.3847501,7.90393066 C13.0404966,7.90393066 12.7168577,7.7698822 12.4734342,7.52645873 C12.2300108,7.28303529 12.0959623,6.95939636 12.0959623,6.61514284 C12.0959623,6.27088929 12.2300108,5.94725036 12.4734342,5.70393372 C12.7168577,5.46051025 13.0404966,5.32635498 13.3847501,5.32635498 Z"/>
  </defs>
  <g fill-rule="evenodd" transform="translate(-3 -2)">
    <mask id="02.-warning-b">
      <use xlink:href="#02.-warning-a"/>
    </mask>
    <use fill-rule="nonzero" xlink:href="#02.-warning-a"/>
    <rect mask="url(#02.-warning-b)"/>
  </g>
</svg>
