<svg width="24" height="24" viewBox="0 0 24 24" fill="none" xmlns="http://www.w3.org/2000/svg">
<path fill-rule="evenodd" clip-rule="evenodd" d="M20.5313 3.53618C20.8236 3.82966 20.8227 4.30453 20.5292 4.59684L4.5313 20.5315C4.23783 20.8239 3.76296 20.8229 3.47064 20.5294C3.17833 20.236 3.17927 19.7611 3.47274 19.4688L19.4706 3.53409C19.7641 3.24177 20.239 3.24271 20.5313 3.53618Z" fill="#161528"/>
<path fill-rule="evenodd" clip-rule="evenodd" d="M3.46764 3.47171C3.75941 3.17769 4.23428 3.17587 4.52829 3.46764L20.5283 19.3455C20.8223 19.6372 20.8241 20.1121 20.5324 20.4061C20.2406 20.7001 19.7657 20.702 19.4717 20.4102L3.47171 4.53236C3.17769 4.24059 3.17587 3.76572 3.46764 3.47171Z" fill="#161528"/>
</svg>
