<svg xmlns="http://www.w3.org/2000/svg" viewBox="0 0 32 15">
  <g fill-rule="evenodd">
    <path d="M25.54336 11.45408C25.54336 11.56896 25.55264 11.68128 25.56704 11.79296 25.73376 13.12064 26.86496 14.14848 28.23808 14.14848 29.64832 14.14848 30.80416 13.064 30.92096 11.68448 30.92736 11.60832 30.9328 11.53152 30.9328 11.45408 30.9328 9.96608 29.72608 8.75936 28.23808 8.75936 26.74976 8.75968 25.54336 9.96608 25.54336 11.45408zM29.9104 11.2256L29.136 11.2256C29.11424 11.14112 29.08096 11.06208 29.03808 10.98848L29.58784 10.43872C29.75808 10.66432 29.8704 10.93216 29.9104 11.2256zM29.58784 12.4784L29.03456 11.92544C29.07808 11.85248 29.11296 11.77504 29.13472 11.69184L29.90912 11.69184C29.86816 11.984 29.75808 12.25344 29.58784 12.4784zM28.47168 12.35072C28.55456 12.32928 28.63296 12.2976 28.70496 12.25504L29.2528 12.80352C29.02848 12.97248 28.7632 13.08704 28.47136 13.12768L28.47168 12.35072 28.47168 12.35072zM28.47168 9.78272C28.76544 9.82336 29.03328 9.93728 29.25856 10.1088L28.70944 10.65792C28.63584 10.61376 28.55616 10.58048 28.47136 10.55808L28.47168 9.78272 28.47168 9.78272zM26.888 10.43872L27.43808 10.98848C27.39488 11.06176 27.36192 11.14144 27.34016 11.2256L26.56576 11.2256C26.60608 10.93216 26.7184 10.66432 26.888 10.43872zM28.0048 10.55808C27.92 10.58016 27.84064 10.61376 27.76672 10.65792L27.2176 10.10848C27.44288 9.9376 27.71104 9.82368 28.00448 9.78272L28.0048 10.55808 28.0048 10.55808zM27.22272 12.80384L27.77024 12.256C27.84256 12.29856 27.92192 12.32928 28.00416 12.35072L28.00416 13.128C27.71328 13.08736 27.44704 12.97312 27.22272 12.80384zM26.5632 11.69184L27.34336 11.69184C27.36544 11.77504 27.3984 11.85344 27.44128 11.92576L26.89024 12.47648C26.72 12.25216 26.60416 11.98432 26.5632 11.69184zM3.26336 11.45408C3.26336 11.56896 3.27296 11.68128 3.28704 11.79296 3.45376 13.12064 4.58496 14.14848 5.95808 14.14848 7.36864 14.14848 8.52448 13.064 8.64128 11.68448 8.648 11.60832 8.65312 11.53152 8.65312 11.45408 8.65312 9.96608 7.44672 8.75936 5.9584 8.75936 4.47008 8.75936 3.26336 9.96608 3.26336 11.45408zM7.63072 11.2256L6.856 11.2256C6.83456 11.14112 6.80128 11.06208 6.7584 10.98848L7.30816 10.43872C7.47808 10.66432 7.5904 10.93216 7.63072 11.2256zM7.30784 12.4784L6.75488 11.92544C6.79808 11.85248 6.83328 11.77504 6.85504 11.69184L7.62944 11.69184C7.58848 11.984 7.47808 12.25344 7.30784 12.4784zM6.19136 12.35072C6.27424 12.32928 6.35296 12.2976 6.42496 12.25504L6.9728 12.80352C6.74848 12.97248 6.48288 13.08704 6.19104 13.12768L6.19136 12.35072 6.19136 12.35072zM6.19136 9.78272C6.48544 9.82336 6.75296 9.93728 6.97824 10.1088L6.42944 10.65792C6.35584 10.61376 6.27616 10.58048 6.19104 10.55808L6.19136 9.78272 6.19136 9.78272zM4.608 10.43872L5.1584 10.98848C5.1152 11.06176 5.08224 11.14144 5.06048 11.2256L4.28576 11.2256C4.32608 10.93216 4.4384 10.66432 4.608 10.43872zM5.7248 10.55808C5.64 10.58016 5.56032 10.61376 5.48672 10.65792L4.9376 10.10848C5.1632 9.9376 5.43104 9.82368 5.7248 9.78272L5.7248 10.55808zM4.94304 12.80384L5.49056 12.256C5.56288 12.29856 5.64192 12.32928 5.72448 12.35072L5.72448 13.128C5.43328 13.08736 5.16736 12.97312 4.94304 12.80384zM4.28288 11.69184L5.06304 11.69184C5.08512 11.77504 5.11808 11.85344 5.16064 11.92576L4.6096 12.47648C4.44 12.25216 4.32416 11.98432 4.28288 11.69184z"/>
    <path d="M0.51456,12.07424 L2.67456,12.04064 C2.66528,11.9856 2.65344,11.9312 2.64608,11.8752 C2.62656,11.72256 2.61728,11.5856 2.61728,11.45472 C2.61728,9.61248 4.11584,8.11424 5.95776,8.11424 C7.80032,8.11424 9.29888,9.61312 9.29888,11.45472 C9.29888,11.55072 9.2928,11.6448 9.28512,11.73984 C9.27936,11.80672 9.26816,11.872 9.25856,11.93792 L24.90752,11.69216 C24.9008,11.61024 24.89696,11.53088 24.89696,11.45504 C24.89696,9.6128 26.39552,8.11456 28.23776,8.11456 C29.91584,8.11456 31.3056,9.35968 31.53984,10.97408 C31.7264,10.5648 31.90656,10.00416 31.83648,9.456 C31.70272,8.41344 30.79392,7.40128 30.74048,6.89216 C30.68704,6.38304 30.91136,5.96512 30.7776,5.24352 C30.64384,4.52192 29.39072,2.14016 28.12128,1.33184 C27.19904,0.74464 26.53472,0.34496 23.73376,0.18432 C19.78784,-0.04192 17.07968,0.216 14.70176,0.93888 C13.288,1.36896 8.44864,3.88672 6.98144,4.6992 C5.24448,5.66112 4.54272,5.80992 3.34272,6.24448 C1.95616,6.74656 1.0752,7.84832 0.72768,8.68096 C0.38016,9.5136 0.12704,10.55072 0.51456,12.07424 Z M22.71136,4.67904 L22.29664,1.15968 C24.59392,1.2 26.97792,1.3808 27.1872,2.18592 C27.31136,2.66304 26.6832,3.80192 25.93088,4.13696 C25.34976,4.39584 24.44832,4.49376 22.71136,4.67904 Z M11.50016,4.15904 L11.76256,3.39136 C14.87008,1.72256 16.45504,1.14784 20.30784,1.14784 L20.85248,1.14784 L20.40992,4.9008 C16.36992,5.25952 11.60128,5.55328 11.60128,5.55328 C11.98496,4.76512 11.50016,4.15904 11.50016,4.15904 Z"/>
  </g>
</svg>
