<svg xmlns="http://www.w3.org/2000/svg" viewBox="0 0 30 11">
  <path d="M5.4825 6.3468C4.2453 6.3468 3.2421 7.3497 3.2421 8.5872 3.2421 8.6826 3.2499 8.7765 3.2619 8.8686 3.4008 9.9729 4.3407 10.827 5.4822 10.827 6.6546 10.827 7.6158 9.9258 7.7133 8.778 7.7184 8.7153 7.7226 8.6514 7.7226 8.5869 7.7229 7.3497 6.72 6.3468 5.4825 6.3468L5.4825 6.3468 5.4825 6.3468zM4.3611 7.743L4.8177 8.1999C4.7823 8.2608 4.7544 8.3265 4.7364 8.3967L4.0926 8.3967C4.1256 8.1531 4.2189 7.9305 4.3611 7.743L4.3611 7.743 4.3611 7.743zM4.0896 8.7846L4.7385 8.7846C4.7568 8.8536 4.7838 8.919 4.8198 8.979L4.362 9.4365C4.2201 9.2505 4.1247 9.0279 4.0896 8.7846L4.0896 8.7846 4.0896 8.7846zM5.2887 9.9789C5.046 9.945 4.8255 9.8499 4.6389 9.7092L5.0943 9.2535C5.1543 9.2886 5.22 9.3144 5.2887 9.3324L5.2887 9.9789 5.2887 9.9789 5.2887 9.9789zM5.2887 7.842C5.2182 7.8606 5.1522 7.8882 5.0907 7.9245L4.6344 7.4682C4.8219 7.3257 5.0445 7.2315 5.2887 7.1976L5.2887 7.842 5.2887 7.842 5.2887 7.842zM5.6766 7.197C5.9208 7.2309 6.1437 7.3257 6.3309 7.4679L5.8749 7.9242C5.8137 7.8879 5.7471 7.8603 5.6769 7.8417L5.6766 7.197 5.6766 7.197 5.6766 7.197 5.6766 7.197zM5.6766 9.9783L5.6766 9.3327C5.7456 9.3144 5.8107 9.2889 5.8707 9.2535L6.3264 9.7092C6.1398 9.8499 5.919 9.9444 5.6766 9.9783L5.6766 9.9783 5.6766 9.9783zM6.6042 9.4386L6.1449 8.9787C6.1809 8.9184 6.21 8.8539 6.2283 8.7849L6.8721 8.7849C6.8379 9.0273 6.7464 9.2517 6.6042 9.4386L6.6042 9.4386 6.6042 9.4386zM6.2292 8.3967C6.2109 8.3265 6.1833 8.2608 6.1479 8.1999L6.6051 7.743C6.7464 7.9305 6.8397 8.1531 6.8733 8.397L6.2292 8.397 6.2292 8.3967 6.2292 8.3967zM24.0852 6.3468C22.848 6.3468 21.8448 7.3497 21.8448 8.5872 21.8448 8.6826 21.8526 8.7765 21.8646 8.8686 22.0035 9.9729 22.9434 10.827 24.0846 10.827 25.257 10.827 26.2182 9.9258 26.316 8.778 26.3211 8.7153 26.3253 8.6514 26.3253 8.5869 26.3259 7.3497 25.3227 6.3468 24.0852 6.3468L24.0852 6.3468 24.0852 6.3468zM22.9638 7.743L23.4201 8.1999C23.3847 8.2608 23.3568 8.3265 23.3388 8.3967L22.695 8.3967C22.7283 8.1531 22.8216 7.9305 22.9638 7.743L22.9638 7.743 22.9638 7.743zM22.6926 8.7846L23.3415 8.7846C23.3598 8.8536 23.3868 8.919 23.4228 8.979L22.9653 9.4365C22.8228 9.2505 22.7271 9.0279 22.6926 8.7846L22.6926 8.7846 22.6926 8.7846zM23.8914 9.9789C23.6487 9.945 23.4282 9.8499 23.2416 9.7092L23.697 9.2535C23.757 9.2886 23.8227 9.3144 23.8914 9.3324L23.8914 9.9789 23.8914 9.9789 23.8914 9.9789zM23.8914 7.842C23.8209 7.8606 23.7549 7.8882 23.6934 7.9245L23.2371 7.4682C23.4246 7.3257 23.6469 7.2315 23.8914 7.1976L23.8914 7.842 23.8914 7.842 23.8914 7.842zM24.2796 7.197C24.5238 7.2309 24.7467 7.3257 24.9339 7.4679L24.4776 7.9242C24.4164 7.8879 24.3498 7.8597 24.2796 7.8417L24.2796 7.197 24.2796 7.197 24.2796 7.197zM24.2796 9.9783L24.2796 9.3327C24.3486 9.3144 24.4137 9.2889 24.4737 9.2535L24.9294 9.7092C24.7428 9.8499 24.5217 9.9444 24.2796 9.9783L24.2796 9.9783 24.2796 9.9783zM25.2069 9.4386L24.7476 8.9793C24.7836 8.9187 24.813 8.8545 24.831 8.7852L25.4748 8.7852C25.4406 9.0273 25.3494 9.2517 25.2069 9.4386L25.2069 9.4386 25.2069 9.4386zM24.8319 8.3967C24.8136 8.3265 24.7863 8.2608 24.7506 8.1999L25.2075 7.743C25.3491 7.9305 25.4421 8.1531 25.476 8.397L24.8319 8.397 24.8319 8.3967 24.8319 8.3967z" opacity=".9"/>
  <path d="M29.4648,5.187 L29.4648,3.5292 C29.4648,3.2625 29.271,3.0366 29.0076,2.9955 C28.3755,2.8965 27.255,2.7096 26.7516,2.5545 C26.0298,2.3319 23.241,1.1511 22.2753,0.9294 C21.3093,0.7077 16.9539,-0.4761 12.7824,0.9699 C12.0765,1.2144 8.901,2.7324 7.0338,3.5217 C6.4839,3.5337 1.041,4.6683 0.7512,5.4459 C0.4614,6.2238 0.3705,6.6012 0.3171,6.7986 C0.2637,6.996 0.3171,7.9407 0.7215,8.5986 C1.1337,8.8317 1.9272,8.9883 2.8446,9.0933 C2.8341,9.0372 2.8227,8.982 2.8155,8.9253 C2.7996,8.8041 2.7921,8.6934 2.7921,8.5878 C2.7921,7.1043 3.9987,5.8971 5.4825,5.8971 C6.9663,5.8971 8.1729,7.104 8.1729,8.5878 C8.1729,8.664 8.1678,8.7396 8.1621,8.814 C8.148,8.9805 8.118,9.1422 8.0745,9.2979 L8.0817,9.2979 L21.4365,9.0291 C21.4305,8.9946 21.4227,8.9604 21.4182,8.9253 C21.4023,8.8047 21.3948,8.6937 21.3948,8.5878 C21.3948,7.1043 22.6014,5.8974 24.0852,5.8974 C25.569,5.8974 26.7759,7.104 26.7759,8.5878 C26.7759,8.5935 26.7753,8.5983 26.775,8.6037 L26.832,8.5989 L29.1153,8.169 C29.1153,8.169 29.9898,7.7034 29.9898,6.4224 C29.9901,5.568 29.4648,5.187 29.4648,5.187 L29.4648,5.187 L29.4648,5.187 Z M16.2171,3.6153 L11.2296,3.768 C11.3214,3.0207 10.8789,2.853 10.8789,2.853 C12.8616,1.0533 16.8576,0.9924 16.8576,0.9924 L16.2171,3.6153 L16.2171,3.6153 L16.2171,3.6153 Z M21.8145,3.387 L17.2695,3.5397 L17.6814,0.9927 C20.0304,0.9621 21.3723,1.4805 21.3723,1.4805 L22.0434,2.5635 L21.8145,3.387 L21.8145,3.387 L21.8145,3.387 Z M24.3768,3.3714 L23.1105,3.3714 L21.8445,1.6329 C22.7943,2.0109 23.5545,2.3835 24.0072,2.619 C24.282,2.7618 24.432,3.0669 24.3768,3.3714 L24.3768,3.3714 L24.3768,3.3714 Z"/>
</svg>
