<svg xmlns="http://www.w3.org/2000/svg" xmlns:xlink="http://www.w3.org/1999/xlink">
  <defs>
    <path id="combined-shape-a" d="M10.5625,0.9 C15.6366161,0.9 19.75,4.93043857 19.75,9.90223651 C19.75,14.8740344 15.6366161,18.904473 10.5625,18.904473 C9.18961326,18.904473 7.8580517,18.6087204 6.64260393,18.0461409 C6.48894031,17.9750165 6.33758543,17.8998277 6.18868666,17.8207115 L8.52215871,17.1667657 C9.17966266,17.3436093 9.864212,17.4347201 10.5625,17.4347201 C14.808189,17.4347201 18.25,14.0623123 18.25,9.90223651 C18.25,5.74216068 14.808189,2.3697529 10.5625,2.3697529 C6.31681099,2.3697529 2.875,5.74216068 2.875,9.90223651 C2.875,10.7737891 3.02597117,11.6230944 3.3155999,12.422607 L2.51576889,13.9918919 L2.44618776,14.1242386 C1.7467259,12.8358798 1.375,11.3947447 1.375,9.90223651 C1.375,4.93043857 5.48838386,0.9 10.5625,0.9 Z M12.125,11.3107497 C12.5392136,11.3107497 12.875,11.6397651 12.875,12.0456262 C12.875,12.4109011 12.603013,12.7139311 12.2466539,12.7708843 L12.125,12.7805026 L7.125,12.7805026 C6.71078644,12.7805026 6.375,12.4514872 6.375,12.0456262 C6.375,11.6803512 6.64698701,11.3773212 7.0033461,11.320368 L7.125,11.3107497 L12.125,11.3107497 Z M14.625,7.63636745 C15.0392136,7.63636745 15.375,7.96538285 15.375,8.3712439 C15.375,8.73651886 15.103013,9.03954882 14.7466539,9.09650206 L14.625,9.10612035 L7.125,9.10612035 C6.71078644,9.10612035 6.375,8.77710496 6.375,8.3712439 C6.375,8.00596895 6.64698701,7.70293899 7.0033461,7.64598575 L7.125,7.63636745 L14.625,7.63636745 Z M3.3049589,12.4443605 C3.48725145,12.926581 3.71993333,13.3860492 3.99698673,13.817059 L1.7949477,17.7299167 L6.79131141,16.4150303 C7.38974526,16.7456888 8.03788877,17.0043097 8.72252526,17.1783606 L1.56010141,19.0642519 C1.30448327,19.1315809 1.03134763,19.1031057 0.797262283,18.9847236 C0.335671781,18.7512872 0.13713444,18.2331142 0.314111302,17.7805892 L0.371772482,17.6590642 L3.3049589,12.4443605 Z"/>
  </defs>
  <use xlink:href="#combined-shape-a"/>
</svg>
