<svg viewBox="0 0 24 24" fill="none" xmlns="http://www.w3.org/2000/svg">
<path fill-rule="evenodd" clip-rule="evenodd" d="M2.34264 9.40425C2.34264 8.99004 2.67843 8.65426 3.09264 8.65426H20.9166C21.3308 8.65426 21.6666 8.99004 21.6666 9.40425C21.6666 9.81847 21.3308 10.1543 20.9166 10.1543H3.09264C2.67843 10.1543 2.34264 9.81847 2.34264 9.40425Z" fill="#161528"/>
<path fill-rule="evenodd" clip-rule="evenodd" d="M15.6921 13.3097C15.6921 12.8955 16.0279 12.5597 16.4421 12.5597H16.4513C16.8656 12.5597 17.2013 12.8955 17.2013 13.3097C17.2013 13.7239 16.8656 14.0597 16.4513 14.0597H16.4421C16.0279 14.0597 15.6921 13.7239 15.6921 13.3097Z" fill="#161528"/>
<path fill-rule="evenodd" clip-rule="evenodd" d="M11.2546 13.3097C11.2546 12.8955 11.5904 12.5597 12.0046 12.5597H12.0139C12.4281 12.5597 12.7639 12.8955 12.7639 13.3097C12.7639 13.7239 12.4281 14.0597 12.0139 14.0597H12.0046C11.5904 14.0597 11.2546 13.7239 11.2546 13.3097Z" fill="#161528"/>
<path fill-rule="evenodd" clip-rule="evenodd" d="M6.80789 13.3097C6.80789 12.8955 7.14368 12.5597 7.55789 12.5597H7.56715C7.98137 12.5597 8.31715 12.8955 8.31715 13.3097C8.31715 13.7239 7.98137 14.0597 7.56715 14.0597H7.55789C7.14368 14.0597 6.80789 13.7239 6.80789 13.3097Z" fill="#161528"/>
<path fill-rule="evenodd" clip-rule="evenodd" d="M15.6921 17.1962C15.6921 16.782 16.0279 16.4462 16.4421 16.4462H16.4513C16.8656 16.4462 17.2013 16.782 17.2013 17.1962C17.2013 17.6104 16.8656 17.9462 16.4513 17.9462H16.4421C16.0279 17.9462 15.6921 17.6104 15.6921 17.1962Z" fill="#161528"/>
<path fill-rule="evenodd" clip-rule="evenodd" d="M11.2546 17.1962C11.2546 16.782 11.5904 16.4462 12.0046 16.4462H12.0139C12.4281 16.4462 12.7639 16.782 12.7639 17.1962C12.7639 17.6104 12.4281 17.9462 12.0139 17.9462H12.0046C11.5904 17.9462 11.2546 17.6104 11.2546 17.1962Z" fill="#161528"/>
<path fill-rule="evenodd" clip-rule="evenodd" d="M6.80789 17.1962C6.80789 16.782 7.14368 16.4462 7.55789 16.4462H7.56715C7.98137 16.4462 8.31715 16.782 8.31715 17.1962C8.31715 17.6104 7.98137 17.9462 7.56715 17.9462H7.55789C7.14368 17.9462 6.80789 17.6104 6.80789 17.1962Z" fill="#161528"/>
<path fill-rule="evenodd" clip-rule="evenodd" d="M16.0437 1.25C16.4579 1.25 16.7937 1.58579 16.7937 2V5.29078C16.7937 5.70499 16.4579 6.04078 16.0437 6.04078C15.6295 6.04078 15.2937 5.70499 15.2937 5.29078V2C15.2937 1.58579 15.6295 1.25 16.0437 1.25Z" fill="#161528"/>
<path fill-rule="evenodd" clip-rule="evenodd" d="M7.96551 1.25C8.37972 1.25 8.71551 1.58579 8.71551 2V5.29078C8.71551 5.70499 8.37972 6.04078 7.96551 6.04078C7.55129 6.04078 7.21551 5.70499 7.21551 5.29078V2C7.21551 1.58579 7.55129 1.25 7.96551 1.25Z" fill="#161528"/>
<path fill-rule="evenodd" clip-rule="evenodd" d="M3.76749 4.22946C4.76914 3.27729 6.16751 2.8292 7.77096 2.8292H16.2383C17.8457 2.8292 19.2449 3.27695 20.2448 4.23019C21.2504 5.18877 21.7548 6.56558 21.75 8.22326V17.3475C21.75 19.0052 21.243 20.3835 20.2371 21.3439C19.2366 22.2992 17.8377 22.75 16.229 22.75H7.77096C6.16301 22.75 4.76302 22.2898 3.76225 21.3199C2.75774 20.3463 2.25 18.9508 2.25 17.2719V8.22222C2.25 6.56339 2.76004 5.18715 3.76749 4.22946ZM4.80096 5.31664C4.1571 5.92869 3.75 6.87396 3.75 8.22222V17.2719C3.75 18.6473 4.1594 19.6159 4.8062 20.2428C5.45673 20.8733 6.44222 21.25 7.77096 21.25H16.229C17.5663 21.25 18.5528 20.8781 19.2013 20.259C19.8444 19.6449 20.25 18.6969 20.25 17.3475V8.22222L20.25 8.21991C20.2541 6.87107 19.8507 5.92683 19.2098 5.31591C18.5631 4.69941 17.5768 4.3292 16.2383 4.3292H7.77096C6.43772 4.3292 5.45061 4.69907 4.80096 5.31664Z" fill="#161528"/>
</svg>
