<svg width="24" height="24" viewBox="0 0 24 24" fill="none" xmlns="http://www.w3.org/2000/svg">
<path d="M15.3209 18.2557C15.1292 18.4794 14.8087 18.5273 14.5631 18.3837L14.4749 18.3208L8.24997 12.9852C7.63147 12.455 7.55984 11.5239 8.08999 10.9054L8.16691 10.8223L8.24997 10.7454L14.4749 5.40972C14.7265 5.19406 15.1053 5.2232 15.3209 5.47479C15.5126 5.69844 15.5109 6.02257 15.3314 6.2433L15.2558 6.32082L9.03092 11.6565C9.02023 11.6656 9.01026 11.6756 9.00109 11.6863C8.91873 11.7824 8.91427 11.919 8.98181 12.019L9.03092 12.0741L15.2558 17.4097C15.5074 17.6254 15.5366 18.0041 15.3209 18.2557Z" fill="#161528"/>
</svg>
