<svg viewBox="0 0 24 24" fill="none" xmlns="http://www.w3.org/2000/svg">
<path d="M19.3249 9.46823C19.3249 9.46823 18.7819 16.2032 18.4669 19.0402C18.3169 20.3952 17.4799 21.1892 16.1089 21.2142C13.4999 21.2612 10.8879 21.2642 8.27991 21.2092C6.96091 21.1822 6.13791 20.3782 5.99091 19.0472C5.67391 16.1852 5.13391 9.46823 5.13391 9.46823M20.7082 6.23973H3.75021M17.4406 6.23973C16.6556 6.23973 15.9796 5.68473 15.8256 4.91573L15.5826 3.69973C15.4326 3.13873 14.9246 2.75073 14.3456 2.75073H10.1126C9.53361 2.75073 9.02561 3.13873 8.87561 3.69973L8.63261 4.91573C8.47861 5.68473 7.80261 6.23973 7.01761 6.23973" stroke="#161528" stroke-width="1.5" stroke-linecap="round" stroke-linejoin="round"/>
</svg>
