<svg viewBox="0 0 22 22" fill="none" xmlns="http://www.w3.org/2000/svg">
<path fill-rule="evenodd" clip-rule="evenodd" d="M2.75 5.95833C2.75 3.55189 2.77577 2.75 5.95833 2.75C9.1409 2.75 9.16667 3.55189 9.16667 5.95833C9.16667 8.36478 9.17682 9.16667 5.95833 9.16667C2.73985 9.16667 2.75 8.36478 2.75 5.95833Z" stroke="currentColor" stroke-width="1.5" stroke-linecap="round" stroke-linejoin="round"/>
<path fill-rule="evenodd" clip-rule="evenodd" d="M12.8333 5.95833C12.8333 3.55189 12.859 2.75 16.0416 2.75C19.2242 2.75 19.2499 3.55189 19.2499 5.95833C19.2499 8.36478 19.2601 9.16667 16.0416 9.16667C12.8231 9.16667 12.8333 8.36478 12.8333 5.95833Z" stroke="currentColor" stroke-width="1.5" stroke-linecap="round" stroke-linejoin="round"/>
<path fill-rule="evenodd" clip-rule="evenodd" d="M2.75 16.0416C2.75 13.6351 2.77577 12.8333 5.95833 12.8333C9.1409 12.8333 9.16667 13.6351 9.16667 16.0416C9.16667 18.448 9.17682 19.2499 5.95833 19.2499C2.73985 19.2499 2.75 18.448 2.75 16.0416Z" stroke="currentColor" stroke-width="1.5" stroke-linecap="round" stroke-linejoin="round"/>
<path fill-rule="evenodd" clip-rule="evenodd" d="M12.8333 16.0416C12.8333 13.6351 12.859 12.8333 16.0416 12.8333C19.2242 12.8333 19.2499 13.6351 19.2499 16.0416C19.2499 18.448 19.2601 19.2499 16.0416 19.2499C12.8231 19.2499 12.8333 18.448 12.8333 16.0416Z" stroke="currentColor" stroke-width="1.5" stroke-linecap="round" stroke-linejoin="round"/>
</svg>
