<svg xmlns="http://www.w3.org/2000/svg" xmlns:xlink="http://www.w3.org/1999/xlink" viewBox="0 0 16 16">
  <defs>
    <path id="delegate-switch-a" d="M12.4506173,8.44648369 C12.9386782,8.44648369 13.3750616,8.66650696 13.6649339,9.01224924 C12.9108465,9.06100736 12.2028367,9.27793404 11.5771509,9.62519124 L4.54938272,9.62505511 C4.35846947,9.62505511 4.19918527,9.75971947 4.16234724,9.93873784 L4.15432099,10.0179123 L4.15432099,17.3839837 C4.15432099,17.7094372 3.88900825,17.9732694 3.5617284,17.9732694 C3.26717653,17.9732694 3.02281802,17.7595653 2.97689184,17.4795689 L2.9691358,17.3839837 L2.9691358,10.0179123 C2.9691358,9.19825156 3.60020891,8.52516336 4.40554804,8.4529056 L4.54938272,8.44648369 L12.4506173,8.44648369 Z M17.7234306,14.4191998 C17.7704064,14.5182853 17.7976175,14.6252023 17.8039427,14.7339968 L17.8032644,14.8431966 L17.6738861,16.6755859 C17.6505473,17.0061339 17.3636655,17.2551761 17.0331175,17.2318373 C16.7356244,17.2108324 16.5041509,16.9763576 16.4778451,16.6887032 L16.4768661,16.5910687 L16.4811953,16.5326955 C15.7832547,17.2550253 14.807788,17.6918265 13.7498269,17.6918265 C12.1464852,17.6918265 10.7325805,16.688604 10.1870305,15.2086246 C10.0724193,14.8977051 10.2315587,14.5527443 10.5424782,14.4381332 C10.8533977,14.3235221 11.1983584,14.4826614 11.3129695,14.7935809 C11.6860146,15.8055854 12.6531775,16.4918265 13.7498269,16.4918265 C14.377848,16.4918265 14.9633969,16.2667708 15.4192188,15.8843711 C15.1792656,15.9421318 14.9266523,15.8464396 14.7860401,15.642833 L14.7372521,15.5582565 C14.6094921,15.2887741 14.7001159,14.9720001 14.937799,14.8078545 L15.0223755,14.7590665 L16.5912448,14.0152749 C17.01543,13.8141712 17.5223269,13.9950146 17.7234306,14.4191998 Z M14.0001731,9.80817355 C15.6035148,9.80817355 17.0174195,10.811396 17.5629695,12.2913754 C17.6775807,12.6022949 17.5184413,12.9472557 17.2075218,13.0618668 C16.8966023,13.1764779 16.5516416,13.0173386 16.4370305,12.7064191 C16.0639854,11.6944146 15.0968225,11.0081735 14.0001731,11.0081735 C13.372152,11.0081735 12.7866031,11.2332292 12.3307812,11.6156289 C12.5705319,11.5577915 12.8232914,11.6534788 12.9639599,11.857167 L13.0127479,11.9417435 C13.1405079,12.2112259 13.0498841,12.5279999 12.812201,12.6921455 L12.7276245,12.7409335 L11.1587552,13.4847251 C10.73457,13.6858288 10.2276731,13.5049854 10.0265694,13.0808002 C9.9795936,12.9817147 9.95238255,12.8747977 9.94605734,12.7660032 L9.9467356,12.6568034 L10.0761139,10.8244141 C10.0994527,10.4938661 10.3863345,10.2448239 10.7168825,10.2681627 C11.0143756,10.2891676 11.2458491,10.5236424 11.2721549,10.8112968 L11.2731339,10.9089313 L11.2689677,10.9671358 C11.9668971,10.2449067 12.9422944,9.80817355 14.0001731,9.80817355 Z M8.5,2 C10.1815098,2 11.5446429,3.37078249 11.5446429,5.0617284 C11.5446429,6.7526743 10.1815098,8.12345679 8.5,8.12345679 C6.81849018,8.12345679 5.45535714,6.7526743 5.45535714,5.0617284 C5.45535714,3.37078249 6.81849018,2 8.5,2 Z M8.5,3.18518519 C7.46939721,3.18518519 6.63392857,4.0253422 6.63392857,5.0617284 C6.63392857,6.09811459 7.46939721,6.9382716 8.5,6.9382716 C9.53060279,6.9382716 10.3660714,6.09811459 10.3660714,5.0617284 C10.3660714,4.0253422 9.53060279,3.18518519 8.5,3.18518519 Z"/>
  </defs>
  <use transform="translate(-2 -2)" xlink:href="#delegate-switch-a"/>
</svg>
