<svg xmlns="http://www.w3.org/2000/svg" viewBox="0 0 16 16">
  <path d="M6,9 C6.55228475,9 7,9.44771525 7,10 L7,15 C7,15.5522847 6.55228475,16 6,16 L1,16 C0.44771525,16 0,15.5522847 0,15 L0,10 C0,9.44771525 0.44771525,9 1,9 L6,9 Z M15,9 C15.5522847,9 16,9.44771525 16,10 L16,15 C16,15.5522847 15.5522847,16 15,16 L10,16 C9.44771525,16 9,15.5522847 9,15 L9,10 C9,9.44771525 9.44771525,9 10,9 L15,9 Z M5.8,10.2 L1.2,10.2 L1.2,14.8 L5.8,14.8 L5.8,10.2 Z M14.8,10.2 L10.2,10.2 L10.2,14.8 L14.8,14.8 L14.8,10.2 Z M6,0 C6.55228475,0 7,0.44771525 7,1 L7,6 C7,6.55228475 6.55228475,7 6,7 L1,7 C0.44771525,7 0,6.55228475 0,6 L0,1 C0,0.44771525 0.44771525,0 1,0 L6,0 Z M15,0 C15.5522847,0 16,0.44771525 16,1 L16,6 C16,6.55228475 15.5522847,7 15,7 L10,7 C9.44771525,7 9,6.55228475 9,6 L9,1 C9,0.44771525 9.44771525,0 10,0 L15,0 Z M5.8,1.2 L1.2,1.2 L1.2,5.8 L5.8,5.8 L5.8,1.2 Z M14.8,1.2 L10.2,1.2 L10.2,5.8 L14.8,5.8 L14.8,1.2 Z"/>
</svg>