<svg xmlns="http://www.w3.org/2000/svg" xmlns:xlink="http://www.w3.org/1999/xlink" viewBox="0 0 20 20" xmlns:v="https://vecta.io/nano"><defs><path id="Aeuqweu923u90" d="M10 2a8 8 0 1 1 0 16 8 8 0 1 1 0-16zm0 1.116c-3.802 0-6.884 3.082-6.884 6.884S6.198 16.884 10 16.884s6.884-3.082 6.884-6.884S13.802 3.116 10 3.116zm3.026 3.858a.56.56 0 0 1 .059.72l-.06.07L10.8 10l2.236 2.237a.56.56 0 0 1 0 .789.56.56 0 0 1-.72.059l-.07-.06L10 10.79l-2.236 2.237a.56.56 0 0 1-.789 0 .56.56 0 0 1-.059-.72l.06-.07L9.2 10 6.974 7.764a.56.56 0 0 1 0-.789.56.56 0 0 1 .72-.059l.07.06L10 9.21l2.236-2.235a.56.56 0 0 1 .789 0z"/></defs><use fill="#000" fill-rule="nonzero" xlink:href="#Aeuqweu923u90"/></svg>
