<svg xmlns="http://www.w3.org/2000/svg" viewBox="0 0 20 20">
  <path fill-rule="evenodd" d="M8 3L19 3C19.5522847 3 20 3.44771525 20 4L20 9C20 9.55228475 19.5522847 10 19 10L8 10C7.44771525 10 7 9.55228475 7 9L7 4C7 3.44771525 7.44771525 3 8 3zM9 5L9 8 18 8 18 5 9 5zM15 11L19 11C19.5522847 11 20 11.4477153 20 12L20 17C20 17.5522847 19.5522847 18 19 18L15 18C14.4477153 18 14 17.5522847 14 17L14 12C14 11.4477153 14.4477153 11 15 11zM16 13L16 16 18 16 18 13 16 13zM8 11L12 11C12.5522847 11 13 11.4477153 13 12L13 17C13 17.5522847 12.5522847 18 12 18L8 18C7.44771525 18 7 17.5522847 7 17L7 12C7 11.4477153 7.44771525 11 8 11zM9 13L9 16 11 16 11 13 9 13zM1 3L5 3C5.55228475 3 6 3.44771525 6 4L6 17C6 17.5522847 5.55228475 18 5 18L1 18C.44771525 18 6.76353751e-17 17.5522847 0 17L0 4C-6.76353751e-17 3.44771525.44771525 3 1 3zM2 5L2 16 4 16 4 5 2 5z"/>
</svg>
