<svg xmlns="http://www.w3.org/2000/svg" xmlns:xlink="http://www.w3.org/1999/xlink" viewBox="0 0 20 20">
  <defs>
    <path id="23.-done-a" d="M10.5,3 C14.6421356,3 18,6.35786438 18,10.5 C18,14.6421356 14.6421356,18 10.5,18 C6.35786438,18 3,14.6421356 3,10.5 C3,6.35786438 6.35786438,3 10.5,3 Z M10.5,4.04651163 C6.93583679,4.04651163 4.04651163,6.93583679 4.04651163,10.5 C4.04651163,14.0641632 6.93583679,16.9534884 10.5,16.9534884 C14.0641632,16.9534884 16.9534884,14.0641632 16.9534884,10.5 C16.9534884,6.93583679 14.0641632,4.04651163 10.5,4.04651163 Z M14.8556273,7.68366711 C15.0378031,7.86929454 15.0535023,8.15620434 14.9044622,8.3592924 L14.8486831,8.42363 L9.13280077,14.0332281 L6.4927925,11.5112568 C6.28383036,11.3116376 6.27625646,10.9804169 6.47587573,10.7714547 C6.65553307,10.5833888 6.94178755,10.5584474 7.14957527,10.7008622 L7.21567781,10.754538 L9.12174171,12.5764075 L14.1156644,7.67672291 C14.3219171,7.47430539 14.6532098,7.47741442 14.8556273,7.68366711 Z"/>
  </defs>
  <g fill-rule="evenodd" transform="translate(-3 -3)">
    <mask id="23.-done-b">
      <use xlink:href="#23.-done-a"/>
    </mask>
    <use  fill-rule="nonzero" xlink:href="#23.-done-a"/>
    <rect mask="url(#23.-done-b)"/>
  </g>
</svg>
