<?xml version="1.0" encoding="iso-8859-1"?>
<!-- Generator: Adobe Illustrator 19.0.0, SVG Export Plug-In . SVG Version: 6.00 Build 0)  -->
<svg version="1.1" id="Capa_1" xmlns="http://www.w3.org/2000/svg" xmlns:xlink="http://www.w3.org/1999/xlink" x="0px" y="0px"
	 viewBox="0 0 512 512" style="enable-background:new 0 0 512 512;" xml:space="preserve">
<g>
	<g>
		<path d="M113.32,429.879c-3.582-2.075-8.172-0.854-10.249,2.731c-1.524,2.633-4.358,4.269-7.394,4.269
			c-4.705,0-8.532-3.827-8.532-8.532s3.827-8.532,8.532-8.532c4.143,0,7.5-3.357,7.5-7.5s-3.357-7.5-7.5-7.5
			c-12.976,0-23.532,10.557-23.532,23.532c0,12.975,10.557,23.532,23.532,23.532c8.368,0,16.176-4.503,20.374-11.751
			C118.128,436.544,116.905,431.955,113.32,429.879z"/>
	</g>
</g>
<g>
	<g>
		<path d="M485.067,354.161c-32.612-11.138-77.18-13.476-108.825-13.476h-5.746l-78.147-52.099
			c-11.804-7.87-25.543-12.03-39.732-12.03H164.61c-14.905,0-29.341,3.127-42.907,9.294l-62.491,28.405
			c-3.862,1.755-7.942,2.999-12.126,3.696l-27.422,4.57C8.27,324.422,0,334.185,0,345.734v42.706
			c0,12.638,7.506,24.021,19.121,28.998l21.008,9.004c-0.021,0.633-0.048,1.266-0.048,1.904c0,30.656,24.94,55.597,55.597,55.597
			c22.248,0,41.476-13.141,50.355-32.064H382c8.879,18.923,28.107,32.064,50.355,32.064c26.666,0,48.998-18.874,54.362-43.962
			l6.855-1.523c10.85-2.41,18.428-11.856,18.428-22.972v-23.814C512,374.736,501.177,359.661,485.067,354.161z M95.678,468.943
			c-22.385,0-40.597-18.212-40.597-40.597c0-22.385,18.212-40.597,40.597-40.597c22.385,0,40.597,18.212,40.597,40.597
			C136.275,450.731,118.063,468.943,95.678,468.943z M432.354,468.943c-22.385,0-40.597-18.212-40.597-40.597
			c0-22.385,18.212-40.597,40.597-40.597c22.385,0,40.597,18.212,40.597,40.597C472.951,450.731,454.739,468.943,432.354,468.943z
			 M497.001,415.486H497c0,4.03-2.747,7.455-6.682,8.329l-2.525,0.561c-2.045-28.809-26.119-51.626-55.439-51.626
			c-22.248,0-41.476,13.141-50.355,32.064H235.701l-16.988-22.651c-4.42-5.894-11.458-9.413-18.826-9.413h-32.064
			c-2.841,0-5.438,1.605-6.708,4.146c-1.271,2.541-0.996,5.582,0.708,7.854l19.239,25.651c4.42,5.894,11.457,9.413,18.825,9.413
			h177.527c-0.43,2.782-0.656,5.631-0.656,8.532s0.225,5.75,0.656,8.532H150.619c0.43-2.782,0.656-5.631,0.656-8.532
			c0-30.656-24.94-55.597-55.597-55.597c-24.695,0-45.671,16.189-52.899,38.509l-17.75-7.607C18.937,401.04,15,395.069,15,388.44
			v-42.706c0-4.188,2.999-7.728,7.129-8.416l27.422-4.57c5.475-0.913,10.813-2.54,15.866-4.836l62.492-28.406
			c11.604-5.274,23.951-7.949,36.7-7.949h4.557l-17.983,17.983c-7.905,7.903-9.142,20.392-2.94,29.694l3.981,5.971
			c4.373,6.563,11.692,10.48,19.58,10.48h12.047c4.143,0,7.5-3.357,7.5-7.5s-3.357-7.5-7.5-7.5h-12.047
			c-2.859,0-5.513-1.42-7.099-3.801l-3.982-5.972c-2.248-3.373-1.8-7.9,1.066-10.766l21.396-21.396
			c4.64-4.64,10.808-7.195,17.369-7.195h52.062c11.218,0,22.08,3.289,31.412,9.511l59.427,39.618H215.919
			c-4.143,0-7.5,3.357-7.5,7.5s3.357,7.5,7.5,7.5h152.307h8.017c55.274,0,87.052,6.891,103.978,12.671
			c10.037,3.427,16.78,12.797,16.78,23.315V415.486z M216.951,404.814h-17.064c-2.671,0-5.223-1.275-6.825-3.413l-10.239-13.651
			h17.064c2.672,0,5.224,1.275,6.826,3.413L216.951,404.814z"/>
	</g>
</g>
<g>
	<g>
		<path d="M449.998,429.879c-3.583-2.075-8.172-0.854-10.249,2.731c-1.524,2.633-4.358,4.269-7.395,4.269
			c-4.705,0-8.532-3.827-8.532-8.532s3.827-8.532,8.532-8.532c4.143,0,7.5-3.357,7.5-7.5s-3.357-7.5-7.5-7.5
			c-12.976,0-23.532,10.557-23.532,23.532c0,12.975,10.557,23.532,23.532,23.532c8.369,0,16.177-4.503,20.375-11.751
			C454.806,436.544,453.583,431.955,449.998,429.879z"/>
	</g>
</g>
<g>
	<g>
		<path d="M246.349,151.856c-1.366-2.211-3.78-3.557-6.38-3.557h-35.962l18.621-37.244c1.853-3.704,0.351-8.209-3.354-10.062
			c-3.707-1.854-8.211-0.352-10.063,3.354l-24.048,48.098c-1.163,2.324-1.038,5.086,0.328,7.297c1.366,2.211,3.78,3.557,6.38,3.557
			h35.961l-18.621,37.242c-1.853,3.705-0.351,8.21,3.354,10.063c1.077,0.539,2.222,0.794,3.349,0.794c2.751,0,5.4-1.52,6.714-4.147
			l24.049-48.097C247.84,156.829,247.715,154.068,246.349,151.856z"/>
	</g>
</g>
<g>
	<g>
		<path d="M264.016,60.121h-16.549v-8.532c0-12.976-10.557-23.532-23.532-23.532h-16.032c-12.976,0-23.532,10.557-23.532,23.532
			v8.532h-16.549c-12.976,0-23.532,10.557-23.532,23.532v144.29c0,12.976,10.557,23.533,23.532,23.533h96.194
			c12.976,0,23.532-10.557,23.532-23.532V83.653C287.548,70.677,276.991,60.121,264.016,60.121z M199.37,51.589h0.001
			c0-4.705,3.827-8.532,8.532-8.532h16.032c4.705,0,8.532,3.827,8.532,8.532v8.532H199.37V51.589z M272.548,227.943
			c0,4.705-3.827,8.532-8.532,8.532h-96.194c-4.705,0-8.532-3.827-8.532-8.532V83.653c0-4.705,3.827-8.532,8.532-8.532h96.194
			c4.705,0,8.532,3.827,8.532,8.532V227.943z"/>
	</g>
</g>
<g>
</g>
<g>
</g>
<g>
</g>
<g>
</g>
<g>
</g>
<g>
</g>
<g>
</g>
<g>
</g>
<g>
</g>
<g>
</g>
<g>
</g>
<g>
</g>
<g>
</g>
<g>
</g>
<g>
</g>
</svg>
