<svg viewBox="0 0 21 21" fill="none" xmlns="http://www.w3.org/2000/svg">
<mask id="mask0" mask-type="alpha" maskUnits="userSpaceOnUse" x="2" y="2" width="17" height="17">
<path fill-rule="evenodd" clip-rule="evenodd" d="M10.5 18.9001C12.0346 18.9001 13.4548 18.5164 14.7606 17.7491C16.026 17.0222 17.0221 16.0261 17.749 14.7607C18.5164 13.4549 18.9 12.0347 18.9 10.5001C18.9 8.96548 18.5164 7.54529 17.749 6.23952C17.0221 4.97414 16.026 3.97798 14.7606 3.25106C13.4548 2.48375 12.0346 2.1001 10.5 2.1001C8.97885 2.1001 7.56539 2.48375 6.25962 3.25106C4.99424 3.99144 3.99135 4.99433 3.25097 6.25971C2.48366 7.56548 2.10001 8.97894 2.10001 10.5001C2.10001 12.0213 2.48366 13.4347 3.25097 14.7405C3.97789 16.0059 4.97404 17.0088 6.23943 17.7491C7.5452 18.5164 8.96539 18.9001 10.5 18.9001ZM9.45001 11.5501V6.3001H11.55V11.5501H9.45001ZM9.45001 12.6001V14.7001H11.55V12.6001H9.45001Z" fill="white"/>
</mask>
<g mask="url(#mask0)">
<rect width="21" height="21" fill="#DA1E28"/>
</g>
</svg>
