<svg xmlns="http://www.w3.org/2000/svg" viewBox="0 0 16 19">
  <path d="M6.4,0.392727273 C6.73684211,0.654545455 6.98947368,0.916363636 7.32631579,1.17818182 L7.41052632,1.26545455 C7.57894737,1.35272727 7.74736842,1.35272727 7.91578947,1.26545455 L8.84210526,0.392727273 C9.43157895,-0.130909091 10.3578947,-0.130909091 11.0315789,0.392727273 C11.3684211,0.741818182 11.7894737,1.00363636 12.1263158,1.35272727 C12.2947368,1.44 12.4631579,1.44 12.6315789,1.35272727 L13.8947368,0.392727273 C14.2315789,0.130909091 14.7368421,0.130909091 15.0736842,0.305454545 C15.4947368,0.48 15.7473684,0.916363636 15.7473684,1.35272727 L15.7473684,17.3236364 C15.7473684,17.76 15.4947368,18.1963636 15.1578947,18.3709091 C14.7368421,18.5454545 14.3157895,18.5454545 13.9789474,18.2836364 L12.7157895,17.3236364 C12.5473684,17.2363636 12.3789474,17.2363636 12.2105263,17.3236364 C11.8736842,17.6727273 11.4526316,17.9345455 11.1157895,18.2836364 C10.5263158,18.8072727 9.6,18.8072727 8.92631579,18.2836364 L8.84210526,18.1963636 C8.50526316,17.9345455 8.25263158,17.6727273 7.91578947,17.4109091 C7.74736842,17.2363636 7.57894737,17.2363636 7.41052632,17.4109091 L6.4,18.2836364 C6.06315789,18.4581818 5.64210526,18.6327273 5.30526316,18.6327273 C4.96842105,18.6327273 4.54736842,18.4581818 4.21052632,18.1963636 L3.2,17.3236364 C3.03157895,17.2363636 2.86315789,17.2363636 2.69473684,17.3236364 C2.44210526,17.5854545 2.18947368,17.76 1.93684211,18.0218182 C1.51578947,18.3709091 1.09473684,18.4581818 0.673684211,18.1963636 C0.252631579,18.0218182 -5.86197757e-14,17.5854545 -5.86197757e-14,17.1490909 L-5.5067062e-14,1.44 C-5.5067062e-14,1.00363636 0.252631579,0.567272727 0.673684211,0.392727273 C1.09473684,0.218181818 1.51578947,0.218181818 1.93684211,0.567272727 C2.18947368,0.829090909 2.52631579,1.09090909 2.77894737,1.26545455 C2.94736842,1.35272727 3.11578947,1.35272727 3.28421053,1.26545455 L4.29473684,0.392727273 C4.88421053,-0.130909091 5.81052632,-0.130909091 6.4,0.392727273 Z M9.76842105,1.52727273 L8.84210526,2.4 C8.25263158,2.92363636 7.32631579,3.01090909 6.65263158,2.4 L6.48421053,2.31272727 C6.14736842,2.05090909 5.89473684,1.78909091 5.55789474,1.52727273 C5.38947368,1.35272727 5.22105263,1.35272727 5.05263158,1.52727273 L4.04210526,2.31272727 C3.45263158,2.83636364 2.52631579,2.83636364 1.93684211,2.31272727 C1.68421053,2.13818182 1.51578947,1.96363636 1.26315789,1.78909091 L1.26315789,16.8872727 C1.51578947,16.7127273 1.68421053,16.5381818 1.93684211,16.3636364 C2.52631579,15.84 3.45263158,15.84 4.04210526,16.3636364 L5.05263158,17.2363636 C5.22105263,17.3236364 5.38947368,17.3236364 5.55789474,17.2363636 L6.56842105,16.3636364 C7.24210526,15.84 8.16842105,15.84 8.75789474,16.3636364 C9.01052632,16.6254545 9.34736842,16.8872727 9.68421053,17.1490909 C9.85263158,17.3236364 10.1052632,17.3236364 10.2736842,17.2363636 C10.6105263,16.8872727 11.0315789,16.6254545 11.3684211,16.2763636 C11.9578947,15.7527273 12.8,15.7527273 13.3894737,16.1890909 L14.4842105,17.0618182 L14.4842105,1.70181818 L13.3894737,2.57454545 C12.8,3.01090909 11.8736842,3.01090909 11.3684211,2.48727273 C11.0315789,2.13818182 10.6105263,1.87636364 10.2736842,1.52727273 C10.1052632,1.35272727 9.85263158,1.35272727 9.76842105,1.52727273 Z M10.7368421,10.4727273 C11.0856535,10.4727273 11.3684211,10.7657773 11.3684211,11.1272727 C11.3684211,11.4586436 11.1308178,11.7325012 10.8225436,11.775843 L10.7368421,11.7818182 L4.84210526,11.7818182 C4.49329384,11.7818182 4.21052632,11.4887682 4.21052632,11.1272727 C4.21052632,10.7959019 4.44812958,10.5220443 4.75640374,10.4787025 L4.84210526,10.4727273 L10.7368421,10.4727273 Z M10.7368421,6.10909091 C11.0856535,6.10909091 11.3684211,6.40214089 11.3684211,6.76363636 C11.3684211,7.09500721 11.1308178,7.36886484 10.8225436,7.41220659 L10.7368421,7.41818182 L4.84210526,7.41818182 C4.49329384,7.41818182 4.21052632,7.12513184 4.21052632,6.76363636 C4.21052632,6.43226551 4.44812958,6.15840789 4.75640374,6.11506614 L4.84210526,6.10909091 L10.7368421,6.10909091 Z"/>
</svg>