<svg xmlns="http://www.w3.org/2000/svg" viewBox="0 0 16 16" id="fy-email">
    <path  fill-rule="evenodd" d="M14.4,0.5 L1.6,0.5 C0.72,0.5 0.008,1.23125 0.008,2.125 L0,11.875 C0,12.76875 0.72,13.5 1.6,13.5 L14.4,13.5 C15.28,13.5 16,12.76875 16,11.875 L16,2.125 C16,1.23125 15.28,0.5 14.4,0.5 Z M13.4444444,11.6428571 L2.55555556,11.6428571 C2.12777778,11.6428571 1.77777778,11.3085714 1.77777778,10.9 L1.77777778,4.21428571 L7.17555556,7.43828571 C7.68111111,7.74285714 8.31888889,7.74285714 8.82444444,7.43828571 L14.2222222,4.21428571 L14.2222222,10.9 C14.2222222,11.3085714 13.8722222,11.6428571 13.4444444,11.6428571 Z M8,6.07142857 L1.77777778,2.35714286 L14.2222222,2.35714286 L8,6.07142857 Z" transform="translate(0 1)"/>
</svg>
