<svg viewBox="0 0 24 25" fill="none" xmlns="http://www.w3.org/2000/svg">
<path d="M19 5.5V13.0833C19.0063 13.3085 18.8985 13.5216 18.7133 13.65L19 5.5ZM19 5.5C19.0021 5.25969 18.8747 5.03684 18.6666 4.91668L19 5.5ZM18.4152 5.34888L18.4166 5.3497C18.4687 5.37976 18.5005 5.43552 18.5 5.49561H18.5V5.5V13.0833H18.4998L18.5002 13.0973C18.5017 13.1521 18.4763 13.204 18.4322 13.2363C17.6517 13.7451 16.7376 14.0108 15.8058 14L15.7978 13.9999L15.7899 14.0001C14.575 14.0247 13.4013 13.5596 12.5332 12.7094L12.5319 12.7082C11.5991 11.801 10.3416 11.3058 9.04087 11.3333C7.9503 11.3208 6.88518 11.6639 6.00683 12.3107L6.00673 12.3106L5.99663 12.3184C5.98426 12.328 5.96927 12.334 5.95335 12.3355L5.5 12.378V12.8333V21.5C5.5 21.7761 5.27614 22 5 22C4.72385 22 4.5 21.7761 4.5 21.5V3.5C4.5 3.22384 4.72384 3 5 3C5.27615 3 5.5 3.22386 5.5 3.5V3.78004V4.74166L6.28718 4.18934C7.09277 3.6241 8.05491 3.32483 9.039 3.33334L9.04649 3.33341L9.05398 3.33325C10.2709 3.30729 11.447 3.77253 12.3169 4.62399L12.3178 4.6249C13.2489 5.5316 14.5047 6.02686 15.8039 6.00003C16.686 6.00434 17.5544 5.78187 18.3258 5.3539L18.3259 5.35399L18.3347 5.34886C18.3595 5.33441 18.3903 5.33439 18.4152 5.34888ZM6 12.8333C6.11047 12.823 6.2157 12.7814 6.30332 12.7133L5.95689 3.20865C5.83217 2.79849 5.45095 2.5 5 2.5C4.4477 2.5 4 2.9477 4 3.5V21.5C4 22.0523 4.4477 22.5 5 22.5C5.55227 22.5 6 22.0523 6 21.5V12.8333Z" fill="currentColor"/>
</svg>
