<svg viewBox="0 0 28 28" fill="none" xmlns="http://www.w3.org/2000/svg">
<path fill-rule="evenodd" clip-rule="evenodd" d="M8.20178 2.66681C4.84045 2.66681 2.66711 4.97214 2.66711 8.53881V19.4001C2.66711 22.9681 4.84045 25.2721 8.20178 25.2721H19.7298C23.0964 25.2721 25.2711 22.9681 25.2711 19.4001V8.53881C25.2738 6.72148 24.7191 5.20414 23.6684 4.15214C22.6978 3.18014 21.3391 2.66681 19.7364 2.66681H8.20178ZM19.7298 27.2721H8.20178C3.69511 27.2721 0.667114 24.1081 0.667114 19.4001V8.53881C0.667114 3.83081 3.69511 0.666809 8.20178 0.666809H19.7364C21.8804 0.666809 23.7298 1.38281 25.0831 2.73881C26.4978 4.15481 27.2738 6.21481 27.2711 8.54014V19.4001C27.2711 24.1081 24.2404 27.2721 19.7298 27.2721Z" fill="#A9ACBC"/>
<path fill-rule="evenodd" clip-rule="evenodd" d="M9.80845 8.25281C9.00311 8.25281 8.34845 8.90747 8.34845 9.71414C8.34845 10.5195 9.00311 11.1741 9.80978 11.1741C10.6151 11.1741 11.2711 10.5195 11.2711 9.71548C11.2698 8.90881 10.6138 8.25414 9.80845 8.25281ZM9.80978 13.1741C7.90045 13.1741 6.34845 11.6221 6.34845 9.71414C6.34845 7.80481 7.90045 6.25281 9.80978 6.25281C11.7178 6.25414 13.2698 7.80614 13.2711 9.71281C13.2711 11.6208 11.7191 13.1741 9.80978 13.1741Z" fill="#A9ACBC"/>
<path fill-rule="evenodd" clip-rule="evenodd" d="M2.99858 24.8152C2.83325 24.8152 2.66525 24.7739 2.51058 24.6872C2.02791 24.4165 1.85858 23.8072 2.12791 23.3259C2.20791 23.1819 4.12125 19.7992 6.22658 18.0659C7.89591 16.6925 9.69325 17.4472 11.1412 18.0565C11.9932 18.4152 12.7986 18.7539 13.5719 18.7539C14.2812 18.7539 15.1706 17.5005 15.9572 16.3952C17.0492 14.8539 18.2892 13.1099 20.1052 13.1099C22.9986 13.1099 25.4959 15.6912 26.8386 17.0779L26.9932 17.2379C27.3772 17.6339 27.3679 18.2672 26.9719 18.6525C26.5786 19.0379 25.9452 19.0285 25.5586 18.6312L25.4012 18.4685C24.2652 17.2939 22.1506 15.1099 20.1052 15.1099C19.3212 15.1099 18.4012 16.4072 17.5866 17.5525C16.4692 19.1259 15.3132 20.7539 13.5719 20.7539C12.3946 20.7539 11.3159 20.3005 10.3652 19.8992C8.85325 19.2619 8.16791 19.0579 7.49725 19.6099C5.67858 21.1085 3.88925 24.2739 3.87191 24.3045C3.68925 24.6312 3.34925 24.8152 2.99858 24.8152Z" fill="#A9ACBC"/>
</svg>
