<svg viewBox="0 0 24 24" fill="none" xmlns="http://www.w3.org/2000/svg">
<path fill-rule="evenodd" clip-rule="evenodd" d="M7.65124 3.50012C5.13024 3.50012 3.50024 5.22912 3.50024 7.90412V16.0501C3.50024 18.7261 5.13024 20.4541 7.65124 20.4541H16.2972C18.8222 20.4541 20.4532 18.7261 20.4532 16.0501V7.90412C20.4552 6.54112 20.0392 5.40312 19.2512 4.61412C18.5232 3.88512 17.5042 3.50012 16.3022 3.50012H7.65124ZM16.2972 21.9541H7.65124C4.27124 21.9541 2.00024 19.5811 2.00024 16.0501V7.90412C2.00024 4.37312 4.27124 2.00012 7.65124 2.00012H16.3022C17.9102 2.00012 19.2972 2.53712 20.3122 3.55412C21.3732 4.61612 21.9552 6.16112 21.9532 7.90512V16.0501C21.9532 19.5811 19.6802 21.9541 16.2972 21.9541Z" fill="currentColor"/>
<path fill-rule="evenodd" clip-rule="evenodd" d="M8.85624 7.68962C8.25224 7.68962 7.76124 8.18062 7.76124 8.78562C7.76124 9.38962 8.25224 9.88062 8.85724 9.88062C9.46124 9.88062 9.95324 9.38962 9.95324 8.78662C9.95224 8.18162 9.46024 7.69062 8.85624 7.68962ZM8.85724 11.3806C7.42524 11.3806 6.26124 10.2166 6.26124 8.78562C6.26124 7.35362 7.42524 6.18962 8.85724 6.18962C10.2882 6.19062 11.4522 7.35462 11.4532 8.78462C11.4532 10.2156 10.2892 11.3806 8.85724 11.3806Z" fill="currentColor"/>
<path fill-rule="evenodd" clip-rule="evenodd" d="M3.74884 20.1114C3.62484 20.1114 3.49884 20.0804 3.38284 20.0154C3.02084 19.8124 2.89384 19.3554 3.09584 18.9944C3.15584 18.8864 4.59084 16.3494 6.16984 15.0494C7.42184 14.0194 8.76984 14.5854 9.85584 15.0424C10.4948 15.3114 11.0988 15.5654 11.6788 15.5654C12.2108 15.5654 12.8778 14.6254 13.4678 13.7964C14.2868 12.6404 15.2168 11.3324 16.5788 11.3324C18.7488 11.3324 20.6218 13.2684 21.6288 14.3084L21.7448 14.4284C22.0328 14.7254 22.0258 15.2004 21.7288 15.4894C21.4338 15.7784 20.9588 15.7714 20.6688 15.4734L20.5508 15.3514C19.6988 14.4704 18.1128 12.8324 16.5788 12.8324C15.9908 12.8324 15.3008 13.8054 14.6898 14.6644C13.8518 15.8444 12.9848 17.0654 11.6788 17.0654C10.7958 17.0654 9.98684 16.7254 9.27384 16.4244C8.13984 15.9464 7.62584 15.7934 7.12284 16.2074C5.75884 17.3314 4.41684 19.7054 4.40384 19.7284C4.26684 19.9734 4.01184 20.1114 3.74884 20.1114Z" fill="currentColor"/>
</svg>
