<svg viewBox="0 0 28 28" fill="none" xmlns="http://www.w3.org/2000/svg">
<path d="M8.20166 2.66675C4.84033 2.66675 2.66699 4.97208 2.66699 8.53875V19.4001C2.66699 22.9681 4.84033 25.2721 8.20166 25.2721H19.7297C23.0963 25.2721 25.271 22.9681 25.271 19.4001V8.53875C25.2737 6.72141 24.719 5.20408 23.6683 4.15208C22.6977 3.18008 21.339 2.66675 19.7363 2.66675H8.20166ZM19.7297 27.2721H8.20166C3.69499 27.2721 0.666992 24.1081 0.666992 19.4001V8.53875C0.666992 3.83075 3.69499 0.666748 8.20166 0.666748H19.7363C21.8803 0.666748 23.7297 1.38275 25.083 2.73875C26.4977 4.15475 27.2737 6.21475 27.271 8.54008V19.4001C27.271 24.1081 24.2403 27.2721 19.7297 27.2721Z" stroke-width="1.5"/>
<path d="M9.80833 8.25275C9.00299 8.25275 8.34833 8.90741 8.34833 9.71408C8.34833 10.5194 9.00299 11.1741 9.80966 11.1741C10.615 11.1741 11.271 10.5194 11.271 9.71541C11.2697 8.90875 10.6137 8.25408 9.80833 8.25275ZM9.80966 13.1741C7.90033 13.1741 6.34833 11.6221 6.34833 9.71408C6.34833 7.80475 7.90033 6.25275 9.80966 6.25275C11.7177 6.25408 13.2697 7.80608 13.271 9.71275C13.271 11.6207 11.719 13.1741 9.80966 13.1741Z" stroke-width="1.5"/>
<path d="M2.99846 24.8151C2.83313 24.8151 2.66513 24.7738 2.51046 24.6871C2.02779 24.4165 1.85846 23.8071 2.12779 23.3258C2.20779 23.1818 4.12113 19.7991 6.22646 18.0658C7.89579 16.6925 9.69313 17.4471 11.1411 18.0565C11.9931 18.4151 12.7985 18.7538 13.5718 18.7538C14.2811 18.7538 15.1705 17.5005 15.9571 16.3951C17.0491 14.8538 18.2891 13.1098 20.1051 13.1098C22.9985 13.1098 25.4958 15.6911 26.8385 17.0778L26.9931 17.2378C27.3771 17.6338 27.3678 18.2671 26.9718 18.6525C26.5785 19.0378 25.9451 19.0285 25.5585 18.6311L25.4011 18.4685C24.2651 17.2938 22.1505 15.1098 20.1051 15.1098C19.3211 15.1098 18.4011 16.4071 17.5865 17.5525C16.4691 19.1258 15.3131 20.7538 13.5718 20.7538C12.3945 20.7538 11.3158 20.3005 10.3651 19.8991C8.85313 19.2618 8.16779 19.0578 7.49713 19.6098C5.67846 21.1085 3.88913 24.2738 3.87179 24.3045C3.68913 24.6311 3.34913 24.8151 2.99846 24.8151Z" stroke-width="1.5"/>
</svg>
