<svg xmlns="http://www.w3.org/2000/svg" viewBox="0 0 16 16">
  <path d="M8,0 C9.46153846,0 10.8141026,0.365384615 12.0576923,1.09615385 C13.2628205,1.78846154 14.2115385,2.73717949 14.9038462,3.94230769 C15.6346154,5.18589744 16,6.53846154 16,8 C16,9.46153846 15.6346154,10.8141026 14.9038462,12.0576923 C14.2115385,13.2628205 13.2628205,14.2115385 12.0576923,14.9038462 C10.8141026,15.6346154 9.46153846,16 8,16 C6.53846154,16 5.18589744,15.6346154 3.94230769,14.9038462 C2.73717949,14.1987179 1.78846154,13.2435897 1.09615385,12.0384615 C0.365384615,10.7948718 0,9.44871795 0,8 C0,6.55128205 0.365384615,5.20512821 1.09615385,3.96153846 C1.80128205,2.75641026 2.75641026,1.80128205 3.96153846,1.09615385 C5.20512821,0.365384615 6.55128205,0 8,0 Z M8.78846154,12.0192308 L7.21153846,12.0192308 L7.21153846,13.5961538 L8.78846154,13.5961538 L8.78846154,12.0192308 Z M8,2.40384615 C7.42307692,2.40384615 6.89102564,2.54807692 6.40384615,2.83653846 C5.91666667,3.125 5.52884615,3.51282051 5.24038462,4 C4.95192308,4.48717949 4.80769231,5.01923077 4.80769231,5.59615385 L4.80769231,5.59615385 L6.38461538,5.59615385 L6.3921274,5.43539663 C6.42718349,5.06660657 6.5849359,4.74198718 6.86538462,4.46153846 C7.18589744,4.14102564 7.56410256,3.98076923 8,3.98076923 C8.43589744,3.98076923 8.81410256,4.14102564 9.13461538,4.46153846 C9.45512821,4.78205128 9.61538462,5.15384615 9.61538462,5.57692308 C9.61538462,6 9.45512821,6.38461538 9.13461538,6.73076923 L9.13461538,6.73076923 L8.15384615,7.73076923 L7.98538462,7.92615385 C7.77205128,8.19076923 7.60384615,8.47179487 7.48076923,8.76923077 C7.30128205,9.16666667 7.21153846,9.57051282 7.21153846,9.98076923 L7.21153846,9.98076923 L7.21153846,10.4038462 L8.78846154,10.4038462 C8.78846154,9.8525641 8.87820513,9.3974359 9.05769231,9.03846154 C9.17307692,8.80769231 9.3974359,8.51282051 9.73076923,8.15384615 L9.73076923,8.15384615 L10.4423077,7.40384615 L10.575,7.25384615 C10.7442308,7.04871795 10.8826923,6.82307692 10.9903846,6.57692308 C11.125,6.26923077 11.1923077,5.94230769 11.1923077,5.59615385 C11.1923077,5.01923077 11.0480769,4.48717949 10.7596154,4 C10.4711538,3.51282051 10.0833333,3.125 9.59615385,2.83653846 C9.10897436,2.54807692 8.57692308,2.40384615 8,2.40384615 Z"/>
</svg>
