<svg viewBox="0 0 24 24" fill="none" xmlns="http://www.w3.org/2000/svg">
<path fill-rule="evenodd" clip-rule="evenodd" d="M9.54754 2.09754C10.9732 0.967486 12.9979 0.967486 14.4236 2.09754L14.4253 2.09893L20.9999 7.34209C21.7749 7.9372 22.2365 8.85151 22.2499 9.82755L22.2501 9.83784L22.25 18.5618C22.25 20.882 20.3522 22.75 18.0271 22.75H16.103L16.0856 22.7498C15.0164 22.725 14.1503 21.8575 14.1505 20.7809V20.7809V17.7047C14.1505 17.3422 13.8517 17.0356 13.4671 17.0356H10.584C10.2023 17.0392 9.90721 17.3446 9.90722 17.7047V20.7714C9.90722 20.8452 9.89655 20.9166 9.87666 20.984C9.76973 21.9823 8.91806 22.75 7.89696 22.75H5.97291C3.64779 22.75 1.75 20.882 1.75 18.5618V9.83995C1.75966 8.86207 2.22214 7.94535 3.00022 7.35152L9.54754 2.09754ZM8.40722 20.7714V17.7047V17.7047C8.4072 16.5054 9.38293 15.5435 10.576 15.5356L10.581 15.5356L13.4671 15.5356C14.6658 15.5356 15.6505 16.4996 15.6505 17.7047V20.7809C15.6504 21.0267 15.8488 21.2403 16.1137 21.25H18.0271C19.538 21.25 20.75 20.0394 20.75 18.5618V9.84345C20.7415 9.33001 20.4975 8.84579 20.0828 8.52909L20.0703 8.5194L13.4918 3.27306L13.491 3.27242C12.6118 2.57608 11.3604 2.57586 10.4809 3.27176L3.93142 8.5275L3.91498 8.54033C3.49977 8.85495 3.2561 9.33885 3.25 9.85141V18.5618C3.25 20.0394 4.46196 21.25 5.97291 21.25H7.89696C8.17527 21.25 8.38797 21.0286 8.38797 20.7714H8.40722Z" fill="currentColor"/>
</svg>
