<svg xmlns="http://www.w3.org/2000/svg"  viewBox="0 0 20 20" id="fy-iphone">
  <path fill-rule="evenodd" d="M8.57692308,0 L2.42307692,0 C1.36153846,0 0.5,0.916363636 0.5,2.04545455 L0.5,15.9545455 C0.5,17.0836364 1.36153846,18 2.42307692,18 L8.57692308,18 C9.63846154,18 10.5,17.0836364 10.5,15.9545455 L10.5,2.04545455 C10.5,0.916363636 9.63846154,0 8.57692308,0 Z M5.5,17.1818182 C4.86153846,17.1818182 4.34615385,16.6336364 4.34615385,15.9545455 C4.34615385,15.2754545 4.86153846,14.7272727 5.5,14.7272727 C6.13846154,14.7272727 6.65384615,15.2754545 6.65384615,15.9545455 C6.65384615,16.6336364 6.13846154,17.1818182 5.5,17.1818182 Z M8.96153846,13.9090909 L2.03846154,13.9090909 L2.03846154,2.45454545 L8.96153846,2.45454545 L8.96153846,13.9090909 Z" transform="translate(4.5 1)"/>
</svg>
