<svg xmlns="http://www.w3.org/2000/svg" xmlns:xlink="http://www.w3.org/1999/xlink" viewBox="0 0 20 20" xmlns:v="https://vecta.io/nano"><defs><path id="Aasdasdasdad" d="M13.95 8.446c.824 0 1.5.628 1.574 1.428l.006.143v7.366a.59.59 0 0 1-.593.589.59.59 0 0 1-.585-.494l-.008-.096v-7.366c0-.2-.135-.348-.315-.385l-.08-.008h-7.9c-.19 0-.35.135-.387.314l-.008.08v7.366a.59.59 0 0 1-.593.589.59.59 0 0 1-.585-.494l-.008-.096v-7.366c0-.82.63-1.493 1.436-1.565l.144-.006h7.9zM10 2c1.682 0 3.045 1.37 3.045 3.062S11.682 8.123 10 8.123s-3.045-1.37-3.045-3.062S8.318 2 10 2zm0 1.185c-1.03 0-1.866.84-1.866 1.877S8.97 6.938 10 6.938s1.866-.84 1.866-1.877S11.03 3.185 10 3.185z"/></defs><use fill="#000" fill-rule="nonzero" xlink:href="#Aasdasdasdad" transform="translate(-4 -2)"/></svg>
