<svg viewBox="0 0 24 24" xmlns="http://www.w3.org/2000/svg">
<path fill-rule="evenodd" clip-rule="evenodd" d="M7.66991 1.9992H16.3399C19.7299 1.9992 21.9999 4.3792 21.9999 7.9192V16.0902C21.9999 19.6202 19.7299 21.9992 16.3399 21.9992H7.66991C4.27991 21.9992 1.99991 19.6202 1.99991 16.0902V7.9192C1.99991 4.3792 4.27991 1.9992 7.66991 1.9992ZM11.9899 9.0602C11.5199 9.0602 11.1299 8.6692 11.1299 8.1902C11.1299 7.7002 11.5199 7.3102 12.0099 7.3102C12.4899 7.3102 12.8799 7.7002 12.8799 8.1902C12.8799 8.6692 12.4899 9.0602 11.9899 9.0602ZM12.8699 15.7802C12.8699 16.2602 12.4799 16.6502 11.9899 16.6502C11.5099 16.6502 11.1199 16.2602 11.1199 15.7802V11.3602C11.1199 10.8792 11.5099 10.4802 11.9899 10.4802C12.4799 10.4802 12.8699 10.8792 12.8699 11.3602V15.7802Z" fill="currentColor"/>
</svg>
