<svg viewBox="0 0 24 24" fill="none" xmlns="http://www.w3.org/2000/svg">
<path fill-rule="evenodd" clip-rule="evenodd" d="M12.1257 8.66666C11.1753 8.66666 10.4022 9.47179 10.4022 10.4626C10.4022 11.4523 11.1753 12.2564 12.1257 12.2564C13.0761 12.2564 13.8493 11.4523 13.8493 10.4626C13.8493 9.47179 13.0761 8.66666 12.1257 8.66666ZM12.1257 13.7949C10.3608 13.7949 8.92489 12.3005 8.92489 10.4626C8.92489 8.62359 10.3608 7.1282 12.1257 7.1282C13.8906 7.1282 15.3266 8.62359 15.3266 10.4626C15.3266 12.3005 13.8906 13.7949 12.1257 13.7949Z" fill="currentColor"/>
<path fill-rule="evenodd" clip-rule="evenodd" d="M12.1248 3.53846C8.45908 3.53846 5.47687 6.67384 5.47687 10.5262C5.47687 15.4277 11.0158 20.2031 12.1248 20.4574C13.2338 20.202 18.7727 15.4267 18.7727 10.5262C18.7727 6.67384 15.7905 3.53846 12.1248 3.53846ZM12.1249 22C10.358 22 3.99963 16.3056 3.99963 10.5262C3.99963 5.82462 7.64467 2 12.1249 2C16.6051 2 20.2501 5.82462 20.2501 10.5262C20.2501 16.3056 13.8918 22 12.1249 22Z" fill="currentColor"/>
</svg>
