<svg viewBox="0 0 12 14" xmlns="http://www.w3.org/2000/svg">
<path d="M3.98761 2.27927C3.98902 1.91547 3.88525 1.55861 3.68817 1.24945C3.49108 0.940282 3.20862 0.69127 2.87304 0.53084C2.53745 0.370411 2.16226 0.305031 1.7903 0.342164C1.41835 0.379298 1.06462 0.517449 0.769513 0.740844C0.474401 0.964239 0.249797 1.26387 0.121346 1.60554C-0.00710511 1.9472 -0.0342259 2.31713 0.0430793 2.67307C0.120385 3.02902 0.299 3.35664 0.558533 3.61853C0.818066 3.88042 1.14806 4.06603 1.51083 4.15416V9.84629C1.04049 9.96367 0.630348 10.244 0.35735 10.6347C0.0843512 11.0254 -0.0327355 11.4996 0.0280605 11.9683C0.0888565 12.437 0.323356 12.8681 0.687557 13.1805C1.05176 13.493 1.52063 13.6654 2.00618 13.6654C2.49174 13.6654 2.96061 13.493 3.32481 13.1805C3.68901 12.8681 3.92351 12.437 3.9843 11.9683C4.0451 11.4996 3.92801 11.0254 3.65502 10.6347C3.38202 10.244 2.97187 9.96367 2.50154 9.84629V4.15416C2.92827 4.04696 3.30608 3.80439 3.57523 3.46483C3.84437 3.12526 3.98949 2.70808 3.98761 2.27927ZM0.9907 2.27927C0.993143 2.08915 1.05332 1.90398 1.16365 1.74705C1.27399 1.59012 1.42956 1.46845 1.61079 1.39733C1.79202 1.32622 1.99082 1.30884 2.18217 1.34738C2.37353 1.38593 2.5489 1.47867 2.68622 1.61395C2.82353 1.74923 2.91667 1.921 2.9539 2.10765C2.99113 2.2943 2.97081 2.4875 2.89547 2.66294C2.82014 2.83838 2.69316 2.98822 2.53052 3.09362C2.36787 3.19901 2.17683 3.25526 1.98142 3.25527C1.7186 3.25023 1.46826 3.14526 1.28401 2.96283C1.09976 2.78041 0.996251 2.53504 0.995654 2.27927H0.9907ZM1.98142 12.6972C1.78602 12.6948 1.5957 12.6363 1.43442 12.5289C1.27313 12.4215 1.14808 12.2702 1.07499 12.0938C1.0019 11.9175 0.984041 11.7241 1.02365 11.5379C1.06327 11.3517 1.15859 11.1811 1.29762 11.0475C1.43666 10.9139 1.6132 10.8232 1.80503 10.787C1.99686 10.7508 2.19542 10.7706 2.37573 10.8439C2.55604 10.9172 2.71005 11.0407 2.81837 11.199C2.92669 11.3572 2.9845 11.5431 2.98451 11.7332C2.98077 11.9857 2.87688 12.2269 2.69455 12.4066C2.51222 12.5862 2.26558 12.6904 2.00618 12.6972H1.98142Z" fill="#FF3366"/>
<path d="M10.4879 9.79329V3.96139C10.4879 3.45007 10.2773 2.95971 9.9023 2.59815C9.52733 2.2366 9.01877 2.03348 8.48849 2.03348H6.36408L7.29382 1.13701C7.37981 1.04518 7.42589 0.92498 7.4225 0.801299C7.41912 0.677618 7.36654 0.559928 7.27565 0.472596C7.18475 0.385265 7.06251 0.334981 6.93423 0.332157C6.80595 0.329333 6.68145 0.374184 6.58652 0.457423L4.81202 2.17567C4.71892 2.26597 4.66667 2.38813 4.66667 2.51546C4.66667 2.64279 4.71892 2.76495 4.81202 2.85525L6.59402 4.5735C6.68895 4.65674 6.81345 4.70159 6.94173 4.69876C7.07001 4.69594 7.19225 4.64565 7.28315 4.55832C7.37404 4.47099 7.42662 4.3533 7.43 4.22962C7.43339 4.10594 7.38731 3.98574 7.30132 3.89391L6.37158 2.99744H8.48849C8.75363 2.99744 9.00791 3.09899 9.19539 3.27977C9.38288 3.46055 9.4882 3.70573 9.4882 3.96139V9.79329C9.0136 9.91067 8.59973 10.191 8.32425 10.5817C8.04877 10.9724 7.93061 11.4466 7.99196 11.9153C8.05331 12.384 8.28994 12.8151 8.65745 13.1275C9.02496 13.44 9.49809 13.6124 9.98806 13.6124C10.478 13.6124 10.9512 13.44 11.3187 13.1275C11.6862 12.8151 11.9228 12.384 11.9842 11.9153C12.0455 11.4466 11.9274 10.9724 11.6519 10.5817C11.3764 10.191 10.9625 9.91067 10.4879 9.79329ZM9.98806 12.6442C9.79034 12.6442 9.59705 12.5876 9.43265 12.4817C9.26825 12.3758 9.14011 12.2253 9.06444 12.0491C8.98878 11.873 8.96898 11.6792 9.00755 11.4922C9.04613 11.3052 9.14134 11.1334 9.28115 10.9986C9.42097 10.8638 9.5991 10.772 9.79303 10.7348C9.98695 10.6976 10.188 10.7167 10.3706 10.7896C10.5533 10.8626 10.7094 10.9862 10.8193 11.1447C10.9291 11.3032 10.9878 11.4896 10.9878 11.6802C10.9839 11.9347 10.8773 12.1777 10.6907 12.3577C10.504 12.5377 10.252 12.6404 9.98806 12.6442Z" fill="#FF3366"/>
</svg>
