<svg viewBox="0 0 24 24" fill="none" xmlns="http://www.w3.org/2000/svg">
<path fill-rule="evenodd" clip-rule="evenodd" d="M3.80761 4.44188C4.80986 3.61698 6.19286 3.2373 7.77096 3.2373H16.2383C17.8203 3.2373 19.2041 3.61669 20.2047 4.44254C21.2262 5.28563 21.755 6.51746 21.75 8.00889V15.9082C21.75 17.3993 21.2187 18.6321 20.1971 19.4766C19.1958 20.3044 17.8122 20.6863 16.229 20.6863H7.77096C6.18916 20.6863 4.80424 20.2967 3.80211 19.4557C2.7813 18.5991 2.25 17.3512 2.25 15.8427V8.00732C2.25 6.51484 2.78455 5.28391 3.80761 4.44188ZM4.76084 5.60005C4.13259 6.11713 3.75 6.8962 3.75 8.00732V8.62439H20.25V8.00732L20.25 8.00465C20.2539 6.89297 19.8749 6.1152 19.2499 5.59939C18.6038 5.06613 17.6021 4.7373 16.2383 4.7373H7.77096C6.41237 4.7373 5.4099 5.06584 4.76084 5.60005ZM3.75 15.8427V10.1244H20.25V15.9082C20.25 17.0206 19.8687 17.8019 19.2413 18.3205C18.5936 18.856 17.5918 19.1863 16.229 19.1863H7.77096C6.41608 19.1863 5.41551 18.8514 4.76633 18.3067C4.13584 17.7776 3.75 16.9786 3.75 15.8427ZM18.2903 14.0344C18.7045 14.0352 19.041 13.7001 19.0418 13.2859C19.0427 12.8717 18.7076 12.5352 18.2934 12.5344L15.0026 12.5277C14.5884 12.5268 14.2519 12.8619 14.251 13.2761C14.2502 13.6903 14.5853 14.0268 14.9995 14.0277L18.2903 14.0344Z" fill="#24A148"/>
</svg>
