<svg xmlns="http://www.w3.org/2000/svg" xmlns:xlink="http://www.w3.org/1999/xlink"><defs><path id="fy-matched-yes" d="M17.007 0c.534 0 .966.425.966.949l.001 7.027a4.632 4.632 0 0 0-1.29-.731V4.567H1.869v8.083h8.688c.105.45.275.875.5 1.265h-9.51a.958.958 0 0 1-.966-.949V.95C.58.425 1.012 0 1.546 0zm-.322 1.265H1.868V2.74h14.817V1.265z"/></defs><g fill="none" fill-rule="evenodd"><g transform="translate(10.436 6.957)"><circle cx="4.638" cy="4.638" r="4.638" fill="#24A148"/><path fill="#FFF" d="M8.062 2.79a.58.58 0 0 1 0 .82L4.977 6.696a.578.578 0 0 1-.144.236l-.045.046a.58.58 0 0 1-.821 0L2.327 5.34a.58.58 0 0 1 0-.82l.047-.046a.58.58 0 0 1 .82 0l1.183 1.181L7.242 2.79a.58.58 0 0 1 .82 0z"/></g><use fill="#2C304E" xlink:href="#fy-matched-yes"/></g></svg>