<svg viewBox="0 0 20 20">
  <g id="fy-my-organizations" stroke="none" stroke-width="1">
    <path d="M10.1587302,4.47634237 L10.1587302,2.34981393 C10.1587302,1.18022329 9.3015873,0.223285486 8.25396825,0.223285486 L2.53968254,0.223285486 C1.49206349,0.223285486 0.634920635,1.18022329 0.634920635,2.34981393 L0.634920635,17.235513 C0.634920635,18.4051037 1.49206349,19.3620415 2.53968254,19.3620415 L17.7777778,19.3620415 C18.8253968,19.3620415 19.6825397,18.4051037 19.6825397,17.235513 L19.6825397,6.60287081 C19.6825397,5.43328017 18.8253968,4.47634237 17.7777778,4.47634237 L10.1587302,4.47634237 Z M4.44444444,17.235513 L2.53968254,17.235513 L2.53968254,15.1089846 L4.44444444,15.1089846 L4.44444444,17.235513 Z M4.44444444,12.9824561 L2.53968254,12.9824561 L2.53968254,10.8559277 L4.44444444,10.8559277 L4.44444444,12.9824561 Z M4.44444444,8.72939926 L2.53968254,8.72939926 L2.53968254,6.60287081 L4.44444444,6.60287081 L4.44444444,8.72939926 Z M4.44444444,4.47634237 L2.53968254,4.47634237 L2.53968254,2.34981393 L4.44444444,2.34981393 L4.44444444,4.47634237 Z M8.25396825,17.235513 L6.34920635,17.235513 L6.34920635,15.1089846 L8.25396825,15.1089846 L8.25396825,17.235513 Z M8.25396825,12.9824561 L6.34920635,12.9824561 L6.34920635,10.8559277 L8.25396825,10.8559277 L8.25396825,12.9824561 Z M8.25396825,8.72939926 L6.34920635,8.72939926 L6.34920635,6.60287081 L8.25396825,6.60287081 L8.25396825,8.72939926 Z M8.25396825,4.47634237 L6.34920635,4.47634237 L6.34920635,2.34981393 L8.25396825,2.34981393 L8.25396825,4.47634237 Z M16.8253968,17.235513 L10.1587302,17.235513 L10.1587302,15.1089846 L12.0634921,15.1089846 L12.0634921,12.9824561 L10.1587302,12.9824561 L10.1587302,10.8559277 L12.0634921,10.8559277 L12.0634921,8.72939926 L10.1587302,8.72939926 L10.1587302,6.60287081 L16.8253968,6.60287081 C17.3492063,6.60287081 17.7777778,7.08133971 17.7777778,7.66613503 L17.7777778,16.1722488 C17.7777778,16.7570441 17.3492063,17.235513 16.8253968,17.235513 Z M15.8730159,8.72939926 L13.968254,8.72939926 L13.968254,10.8559277 L15.8730159,10.8559277 L15.8730159,8.72939926 Z M15.8730159,12.9824561 L13.968254,12.9824561 L13.968254,15.1089846 L15.8730159,15.1089846 L15.8730159,12.9824561 Z" id="Shape" fill-rule="nonzero"></path>
  </g>
</svg>