<svg fill="none" xmlns="http://www.w3.org/2000/svg"><g clip-path="url(#fy-matched-no)"><path d="M14.4 17.046a4.43 4.43 0 1 0 0-8.862 4.43 4.43 0 0 0 0 8.862z" fill="#EF0015"/><path fill-rule="evenodd" clip-rule="evenodd" d="M16.75 10.266a.554.554 0 0 1 0 .783l-1.566 1.567 1.566 1.566a.554.554 0 1 1-.783.783L14.4 13.4l-1.566 1.566a.554.554 0 0 1-.783-.783l1.566-1.566-1.566-1.567a.554.554 0 1 1 .783-.783l1.566 1.566 1.567-1.566a.554.554 0 0 1 .783 0z" fill="#fff"/><path d="M16.247 1.539c.51 0 .923.405.923.906v6.712a4.426 4.426 0 0 0-1.23-.698V5.902H1.784v7.72h8.3c.1.431.263.838.479 1.21l-9.086-.001a.915.915 0 0 1-.923-.906V2.445c0-.5.413-.906.923-.906h14.769zm-.308 1.208H1.785v1.409H15.94V2.747z" fill="#2C304E"/></g><defs><clipPath id="fy-matched-no"><path fill="#fff" d="M0 0h20v16.923H0z"/></clipPath></defs></svg>