<svg viewBox="0 0 24 24" xmlns="http://www.w3.org/2000/svg">
<path fill-rule="evenodd" clip-rule="evenodd" d="M12 7.25C7.16736 7.25 3.25 11.1674 3.25 16C3.25 16.4142 2.91421 16.75 2.5 16.75C2.08579 16.75 1.75 16.4142 1.75 16C1.75 10.3389 6.33894 5.75 12 5.75C17.6601 5.75 22.25 10.3389 22.25 16C22.25 16.4142 21.9142 16.75 21.5 16.75C21.0858 16.75 20.75 16.4142 20.75 16C20.75 11.1674 16.8317 7.25 12 7.25ZM15.8704 9.91904C16.1952 10.176 16.2502 10.6477 15.9933 10.9726L14.1569 13.2939C14.5282 13.7628 14.75 14.3555 14.75 15.0003C14.75 16.5194 13.5181 17.75 11.9997 17.75C10.4809 17.75 9.25 16.5191 9.25 15.0003C9.25 13.4811 10.4808 12.25 11.9997 12.25C12.3298 12.25 12.6464 12.3082 12.9397 12.4148L14.8169 10.0419C15.0738 9.71708 15.5455 9.66206 15.8704 9.91904ZM11.9997 13.75C11.3095 13.75 10.75 14.3092 10.75 15.0003C10.75 15.6906 11.3094 16.25 11.9997 16.25C12.6903 16.25 13.25 15.6903 13.25 15.0003C13.25 14.3095 12.6902 13.75 11.9997 13.75Z"/>
</svg>
