<svg xmlns="http://www.w3.org/2000/svg" xmlns:xlink="http://www.w3.org/1999/xlink" width="13" height="11"><defs><path id="a" d="M10.56 0c.331 0 .6.264.6.59v4.362a2.876 2.876 0 0 0-.8-.453V2.836h-9.2v5.019h5.395c.065.28.17.544.31.786L.96 8.64a.595.595 0 0 1-.6-.59V.59C.36.263.629 0 .96 0zm-.2.785h-9.2v.916h9.2V.785z"/></defs><g fill="none" fill-rule="evenodd"><circle cx="9.36" cy="7.2" r="2.88" fill="#EF0015"/><path fill="#FFF" d="M10.887 5.673a.36.36 0 0 1 0 .509L9.87 7.2l1.018 1.018a.36.36 0 0 1-.509.51L9.36 7.708 8.342 8.727a.36.36 0 1 1-.51-.509L8.852 7.2 7.833 6.182a.36.36 0 1 1 .509-.51L9.36 6.692l1.018-1.018a.36.36 0 0 1 .51 0z"/><use fill="#2C304E" xlink:href="#a"/></g></svg>