<svg viewBox="0 0 24 24" fill="none" xmlns="http://www.w3.org/2000/svg">
<path fill-rule="evenodd" clip-rule="evenodd" d="M3.72057 4.70848C3.62827 4.76123 3.53892 4.81702 3.45266 4.87589C2.5284 5.5067 2 6.46785 2 7.67606V13.6055C2 14.4638 2.26021 15.2171 2.76291 15.819C3.18092 16.3195 3.74211 16.6867 4.39717 16.9351C4.5682 17.81 5.04783 18.5221 5.77535 19.0283C6.66921 19.6503 7.89572 19.9363 9.30429 19.9363H17.023C17.6561 19.9363 18.2519 19.8798 18.7969 19.7622L17.6537 18.6207C17.4532 18.6355 17.2429 18.6432 17.023 18.6432H9.30429C8.03287 18.6432 7.08241 18.3809 6.46931 17.9542C5.88623 17.5485 5.57339 16.9742 5.57339 16.1918V10.2624C5.57339 9.50032 5.88196 8.94038 6.46467 8.54268C6.67069 8.40206 6.91484 8.2797 7.19647 8.17917L6.21837 7.20254C6.06466 7.28129 5.91835 7.36779 5.77999 7.46222C4.85573 8.09303 4.32733 9.05418 4.32733 10.2624V15.4859C4.0704 15.3363 3.86389 15.1628 3.70453 14.972C3.41329 14.6233 3.24607 14.1774 3.24607 13.6055V7.67606C3.24607 6.91398 3.55463 6.35405 4.13734 5.95634C4.29568 5.84828 4.47654 5.75099 4.67963 5.6661L3.72057 4.70848ZM7.8283 6.69034C7.93479 6.67221 8.043 6.65625 8.15283 6.6424C8.51969 6.59616 8.90466 6.57364 9.30429 6.57364H17.0315C17.4322 6.57364 17.818 6.59616 18.1855 6.6424C18.0149 6.33201 17.7524 6.07117 17.3935 5.8595C16.7795 5.49739 15.8778 5.28047 14.7041 5.28047H6.97696C6.78856 5.28047 6.60719 5.28609 6.43291 5.29703L5.27948 4.14534C5.44209 4.11225 5.60904 4.0845 5.77999 4.06194C6.16049 4.01174 6.56078 3.9873 6.97696 3.9873H14.7041C16.0037 3.9873 17.1423 4.22395 18.0092 4.73521C18.8553 5.23425 19.432 5.99267 19.6126 6.97977C19.9584 7.10842 20.2753 7.26882 20.5585 7.46268C21.4816 8.09442 22.0047 9.05653 22 10.2637V16.2414C22 17.4481 21.475 18.4109 20.5515 19.0439C20.4821 19.0915 20.4107 19.1371 20.3374 19.1807L19.3848 18.2295C19.5628 18.1508 19.7229 18.0622 19.8647 17.9649C20.4462 17.5664 20.7539 17.0049 20.7539 16.2414V10.2624L20.7539 10.2595C20.7572 9.49714 20.4518 8.93872 19.8725 8.54222C19.2614 8.12396 18.3099 7.8668 17.0315 7.8668H9.30429C9.20463 7.8668 9.10693 7.86838 9.01121 7.87148L7.8283 6.69034ZM11.1437 12.1205C10.9044 12.5177 10.766 12.9871 10.766 13.4901C10.766 14.9185 11.8818 16.0764 13.2582 16.0764C13.7773 16.0764 14.2593 15.9117 14.6584 15.6299L13.719 14.692C13.5765 14.7509 13.421 14.7833 13.2582 14.7833C12.57 14.7833 12.0121 14.2043 12.0121 13.4901C12.0121 13.3388 12.0372 13.1935 12.0832 13.0586L11.1437 12.1205ZM13.3464 12.2001L12.2629 11.1183C12.34 11.0834 12.4191 11.0524 12.5 11.0256C12.7391 10.9465 12.9938 10.9038 13.2582 10.9038C14.6345 10.9038 15.7503 12.0617 15.7503 13.4901C15.7503 13.822 15.6901 14.1392 15.5803 14.4308L14.4969 13.3489C14.4911 13.2935 14.4819 13.2391 14.4696 13.1859C14.37 12.7574 14.0649 12.4121 13.6686 12.2687C13.5666 12.2318 13.4585 12.2083 13.3464 12.2001ZM7.02784 12.8239C6.68375 12.8239 6.40481 13.1134 6.40481 13.4705C6.40481 13.8276 6.68375 14.1171 7.02784 14.1171H8.68926C9.03335 14.1171 9.3123 13.8276 9.3123 13.4705C9.3123 13.1134 9.03335 12.8239 8.68926 12.8239H7.02784ZM17.8271 12.8239C17.483 12.8239 17.204 13.1134 17.204 13.4705C17.204 13.8276 17.483 14.1171 17.8271 14.1171H19.4885C19.8326 14.1171 20.1115 13.8276 20.1115 13.4705C20.1115 13.1134 19.8326 12.8239 19.4885 12.8239H17.8271Z" fill="currentColor"/>
<line x1="0.75" y1="-0.75" x2="26.618" y2="-0.75" transform="matrix(0.707637 0.706576 -0.70883 0.705379 1 3.9873)" stroke="currentColor" stroke-width="1.5" stroke-linecap="round"/>
</svg>
