<svg viewBox="0 0 16 16" fill="none" xmlns="http://www.w3.org/2000/svg">
<path d="M8.00065 5.25692C8.25752 5.25692 8.46576 5.46516 8.46576 5.72204V7.52866H10.2746C10.5314 7.52866 10.7397 7.7369 10.7397 7.99377C10.7397 8.25065 10.5314 8.45889 10.2746 8.45889H8.46576V10.2655C8.46576 10.5224 8.25752 10.7306 8.00065 10.7306C7.74377 10.7306 7.53553 10.5224 7.53553 10.2655V8.45889H5.72675C5.46987 8.45889 5.26163 8.25065 5.26163 7.99377C5.26163 7.7369 5.46987 7.52866 5.72675 7.52866H7.53553V5.72204C7.53553 5.46516 7.74377 5.25692 8.00065 5.25692Z" fill="url(#paint0_linear_1402:9373)"/>
<path fill-rule="evenodd" clip-rule="evenodd" d="M5.09478 1.33301C3.96669 1.33301 3.01472 1.73539 2.34704 2.45162C1.68273 3.16423 1.33398 4.15032 1.33398 5.26179V10.7376C1.33398 11.8485 1.68091 12.8346 2.34462 13.5475C3.01181 14.2642 3.96404 14.6663 5.09478 14.6663H10.9065C12.0373 14.6663 12.9895 14.2642 13.6567 13.5475C14.3204 12.8346 14.6673 11.8485 14.6673 10.7376V5.26179C14.6673 4.15089 14.3204 3.16473 13.6567 2.45184C12.9895 1.7352 12.0373 1.33301 10.9065 1.33301H5.09478ZM2.26422 5.26179C2.26422 4.34344 2.55039 3.5977 3.02747 3.08593C3.50116 2.57779 4.19703 2.26324 5.09478 2.26324H10.9065C11.8075 2.26324 12.5031 2.57797 12.9758 3.08571C13.452 3.5972 13.7371 4.34287 13.7371 5.26179V10.7376C13.7371 11.6565 13.452 12.4021 12.9758 12.9136C12.5031 13.4214 11.8075 13.7361 10.9065 13.7361H5.09478C4.19378 13.7361 3.49816 13.4214 3.02546 12.9136C2.54925 12.4021 2.26422 11.6565 2.26422 10.7376V5.26179Z" fill="url(#paint1_linear_1402:9373)"/>
<defs>
<linearGradient id="paint0_linear_1402:9373" x1="1.33398" y1="7.99967" x2="14.6673" y2="7.99967" gradientUnits="userSpaceOnUse">
<stop stop-color="#FF758C"/>
<stop offset="1" stop-color="#FF7EB3"/>
</linearGradient>
<linearGradient id="paint1_linear_1402:9373" x1="1.33398" y1="7.99967" x2="14.6673" y2="7.99967" gradientUnits="userSpaceOnUse">
<stop stop-color="#FF758C"/>
<stop offset="1" stop-color="#FF7EB3"/>
</linearGradient>
</defs>
</svg>
