<svg viewBox="0 0 24 25" fill="none" xmlns="http://www.w3.org/2000/svg">
<path fill-rule="evenodd" clip-rule="evenodd" d="M7.31429 1.75C5.49524 1.75 3.96018 2.39884 2.88354 3.55377C1.81235 4.70285 1.25 6.29292 1.25 8.08516V16.9148C1.25 18.7062 1.80943 20.2964 2.87964 21.4459C3.9555 22.6015 5.49096 23.25 7.31429 23.25H16.6857C18.509 23.25 20.0445 22.6015 21.1204 21.4459C22.1906 20.2964 22.75 18.7062 22.75 16.9148V8.08516C22.75 6.29384 22.1906 4.70365 21.1204 3.55412C20.0445 2.39853 18.509 1.75 16.6857 1.75H7.31429ZM2.75 8.08516C2.75 6.60432 3.21146 5.40181 3.98074 4.57659C4.74458 3.75721 5.86666 3.25 7.31429 3.25H16.6857C18.1386 3.25 19.2603 3.75751 20.0225 4.57623C20.7904 5.40101 21.25 6.6034 21.25 8.08516V16.9148C21.25 18.3966 20.7904 19.599 20.0225 20.4238C19.2603 21.2425 18.1386 21.75 16.6857 21.75H7.31429C5.86142 21.75 4.73974 21.2425 3.9775 20.4238C3.20962 19.599 2.75 18.3966 2.75 16.9148V8.08516ZM12 8.07731C12.4142 8.07731 12.75 8.41309 12.75 8.82731V11.7405H15.6667C16.0809 11.7405 16.4167 12.0763 16.4167 12.4905C16.4167 12.9047 16.0809 13.2405 15.6667 13.2405H12.75V16.1537C12.75 16.5679 12.4142 16.9037 12 16.9037C11.5858 16.9037 11.25 16.5679 11.25 16.1537V13.2405H8.33333C7.91911 13.2405 7.58333 12.9047 7.58333 12.4905C7.58333 12.0763 7.91911 11.7405 8.33333 11.7405H11.25V8.82731C11.25 8.41309 11.5858 8.07731 12 8.07731Z" fill="#5A5D72"/>
</svg>
