<svg viewBox="0 0 24 24" fill="none" xmlns="http://www.w3.org/2000/svg">
<path fill-rule="evenodd" clip-rule="evenodd" d="M15.7503 13.5665C15.7503 14.9949 14.6345 16.1529 13.2582 16.1529C11.8818 16.1529 10.766 14.9949 10.766 13.5665C10.766 12.1381 11.8818 10.9802 13.2582 10.9802C14.6345 10.9802 15.7503 12.1381 15.7503 13.5665ZM14.5042 13.5665C14.5042 14.2807 13.9464 14.8597 13.2582 14.8597C12.57 14.8597 12.0121 14.2807 12.0121 13.5665C12.0121 12.8523 12.57 12.2734 13.2582 12.2734C13.9464 12.2734 14.5042 12.8523 14.5042 13.5665Z" fill="currentColor"/>
<path d="M6.40481 13.5469C6.40481 13.1898 6.68375 12.9004 7.02784 12.9004H8.68926C9.03335 12.9004 9.3123 13.1898 9.3123 13.5469C9.3123 13.904 9.03335 14.1935 8.68926 14.1935H7.02784C6.68375 14.1935 6.40481 13.904 6.40481 13.5469Z" fill="currentColor"/>
<path d="M17.8271 12.9004C17.483 12.9004 17.204 13.1898 17.204 13.5469C17.204 13.904 17.483 14.1935 17.8271 14.1935H19.4885C19.8326 14.1935 20.1115 13.904 20.1115 13.5469C20.1115 13.1898 19.8326 12.9004 19.4885 12.9004H17.8271Z" fill="currentColor"/>
<path fill-rule="evenodd" clip-rule="evenodd" d="M3.45266 4.9523C4.34584 4.3427 5.57063 4.06372 6.97696 4.06372H14.7041C16.0037 4.06372 17.1423 4.30037 18.0092 4.81163C18.8553 5.31067 19.432 6.06908 19.6126 7.05618C19.9584 7.18483 20.2753 7.34524 20.5585 7.53909C21.4816 8.17084 22.0047 9.13295 22 10.3401V16.3178C22 17.5246 21.475 18.4873 20.5515 19.1204C19.6591 19.7321 18.4338 20.0128 17.023 20.0128H9.30429C7.89572 20.0128 6.66921 19.7267 5.77535 19.1047C5.04783 18.5985 4.5682 17.8865 4.39717 17.0115C3.74211 16.7631 3.18092 16.3959 2.76291 15.8954C2.26021 15.2935 2 14.5402 2 13.6819V7.75247C2 6.54426 2.5284 5.58312 3.45266 4.9523ZM17.3935 5.93591C17.7524 6.14758 18.0149 6.40843 18.1855 6.71882C17.818 6.67257 17.4322 6.65005 17.0315 6.65005H9.30429C7.89796 6.65005 6.67317 6.92903 5.77999 7.53864C4.85573 8.16945 4.32733 9.13059 4.32733 10.3388V15.5623C4.0704 15.4127 3.86389 15.2393 3.70453 15.0484C3.41329 14.6997 3.24607 14.2538 3.24607 13.6819V7.75247C3.24607 6.9904 3.55463 6.43046 4.13734 6.03276C4.75113 5.61385 5.7033 5.35689 6.97696 5.35689H14.7041C15.8778 5.35689 16.7795 5.5738 17.3935 5.93591ZM6.46467 8.61909C5.88196 9.01679 5.57339 9.57673 5.57339 10.3388V16.2683C5.57339 17.0507 5.88623 17.6249 6.46931 18.0307C7.08241 18.4573 8.03287 18.7196 9.30429 18.7196H17.023C18.3007 18.7196 19.2523 18.4612 19.8647 18.0414C20.4462 17.6428 20.7539 17.0814 20.7539 16.3178V10.3388L20.7539 10.3359C20.7572 9.57356 20.4518 9.01514 19.8725 8.61863C19.2614 8.20038 18.3099 7.94322 17.0315 7.94322H9.30429C8.03063 7.94322 7.07845 8.20018 6.46467 8.61909Z" fill="currentColor"/>
</svg>
