<svg xmlns="http://www.w3.org/2000/svg" xmlns:xlink="http://www.w3.org/1999/xlink" width="30" height="40"><defs><path id="a" d="M5.602 1.202a3.075 3.075 0 0 1 3.072 2.922l.003.153v4.125a.45.45 0 0 1-.894.073l-.006-.073V4.277a2.175 2.175 0 0 0-4.346-.127l-.004.127v5.25a1.425 1.425 0 0 0 2.846.112l.004-.112v-5.25a.675.675 0 0 0-1.344-.084l-.006.084v4.125a.45.45 0 0 1-.894.073l-.006-.073V4.277a1.575 1.575 0 0 1 3.146-.112l.004.112v5.25a2.325 2.325 0 0 1-4.646.132l-.004-.132v-5.25a3.075 3.075 0 0 1 3.075-3.075z"/></defs><g fill="none" fill-rule="evenodd"><use fill="#5A5D72" fill-rule="nonzero" transform="rotate(-30 5.602 6.527)" xlink:href="#a"/><circle cx="9.36" cy="10.2" r="2.88" fill="#EE0015"/><path fill="#FFF" d="M10.887 8.673a.36.36 0 0 1 0 .509L9.87 10.2l1.018 1.018a.36.36 0 0 1-.509.51L9.36 10.708l-1.018 1.018a.36.36 0 0 1-.51-.509L8.852 10.2 7.833 9.182a.36.36 0 0 1 .509-.51L9.36 9.692l1.018-1.018a.36.36 0 0 1 .51 0z"/></g></svg>