<svg width="304" height="103" viewBox="0 0 304 103" fill="none" xmlns="http://www.w3.org/2000/svg">
<path fill-rule="evenodd" clip-rule="evenodd" d="M98 18.9776V20.8884V27.6074L87.1562 21.0549V95.1066H209.707V94.8342L220.706 94.8342L214.706 91.0464V76.1981L221 76.5168V22.5168C221 20.3077 219.209 18.5168 217 18.5168H164.87C131.434 18.7472 131.435 18.7472 131.435 18.7472L98 18.9776Z" fill="#DCE2EA"/>
<path d="M17.0189 97.4366C13.3835 78.2047 19.5766 56.2807 36.4399 51.7647C53.3032 47.2486 94.5056 83.5014 128.275 77.1127C162.044 70.724 154.742 54.2958 182.122 50.6451C209.503 46.9944 213.153 85.3268 240.534 71.6366C267.914 57.9465 256.509 68.6618 263.362 69.5559C279.125 71.6177 289.111 89.8323 303.5 97.4366" fill="#E9EDF1"/>
<path fill-rule="evenodd" clip-rule="evenodd" d="M240.057 43.3846C240.727 43.302 241.443 43.3312 242.066 43.5982C243.392 44.166 243.769 45.7463 243.751 47.0308C243.731 48.4134 243.44 49.9234 244.482 51.0374C244.961 51.5495 245.557 51.9414 246.027 52.4629C246.529 53.0202 246.924 53.6579 247.216 54.3427C247.752 55.6005 248.015 57.0797 247.525 58.3991C247.093 59.5608 246.007 60.6093 246.242 61.9303C246.487 63.3083 247.864 64.3618 248.725 65.3882C249.699 66.5497 250.596 68.0343 250.743 69.5575C250.885 71.0174 250.255 72.4938 249.288 73.5973C247.357 75.8023 244.454 76.8832 241.527 76.8765C240.284 76.8736 238.877 76.817 237.805 76.1432C237.473 75.9349 237.298 75.7013 237.101 75.3765C236.925 75.0852 236.691 74.8958 236.421 74.6897C235.828 74.237 235.399 73.6269 235.126 72.944C234.063 70.2914 234.912 67.0098 236.399 64.6543C236.751 64.0962 237.04 63.5592 236.869 62.894C236.69 62.1996 236.251 61.5733 235.863 60.9765C235.479 60.3866 235.041 59.8238 234.741 59.186C234.427 58.5178 234.339 57.8182 234.394 57.0869C234.499 55.7134 235.086 54.4458 235.918 53.3412C236.72 52.2771 237.661 51.259 237.663 49.8648C237.665 48.3872 236.686 47.0727 237.103 45.5704C237.276 44.9483 237.623 44.31 238.182 43.9371C238.718 43.5794 239.426 43.4624 240.057 43.3846Z" fill="#DDE3E9"/>
<path fill-rule="evenodd" clip-rule="evenodd" d="M239.617 45.7468C239.63 45.5483 239.863 45.4293 240.047 45.4811C240.289 45.5493 240.284 45.7772 240.278 45.9803C240.258 46.6045 240.348 47.211 240.496 47.8166C240.806 49.0758 241.377 50.2359 241.829 51.4454C242.281 52.6539 242.494 53.9016 242.228 55.1804C241.978 56.386 241.586 57.5605 241.33 58.7677C241.104 59.8317 240.864 60.9537 241.208 62.015C241.538 63.0366 242.269 63.8686 242.795 64.7918C243.884 66.7028 244.368 68.823 244.432 71.0047C244.462 72.0179 244.435 73.0403 244.202 74.034C244.068 74.6062 243.888 75.3794 243.402 75.7744C243.178 75.9566 242.795 76.0196 242.606 75.7498C242.429 75.4968 242.584 75.1051 242.641 74.8354C242.884 73.668 242.933 72.475 242.875 71.2897C242.818 70.1415 242.684 68.9952 242.326 67.8987C241.993 66.8811 241.488 65.967 240.894 65.0768C240.288 64.1697 239.659 63.2605 239.408 62.1856C239.154 61.0939 239.361 59.983 239.637 58.9122C239.929 57.7795 240.312 56.6793 240.707 55.5773C241.093 54.5035 241.229 53.4874 241.016 52.3636C240.596 50.1432 239.471 48.0591 239.617 45.7468Z" fill="white"/>
<path fill-rule="evenodd" clip-rule="evenodd" d="M257.393 47.1213C258.264 47.3683 259.129 47.7668 259.75 48.3915C261.07 49.7202 260.665 51.7283 259.936 53.1949C259.152 54.7735 257.963 56.3603 258.633 58.1715C258.941 59.0042 259.459 59.7584 259.751 60.5974C260.063 61.4941 260.198 62.4279 260.181 63.3636C260.149 65.0822 259.659 66.916 258.33 68.1821C257.16 69.2969 255.246 69.948 254.809 71.5855C254.352 73.2937 255.468 75.2065 255.964 76.8249C256.525 78.6565 256.813 80.8198 256.157 82.6453C255.528 84.3947 253.94 85.77 252.143 86.5451C248.552 88.0939 244.383 87.8556 240.783 86.3552C239.254 85.7181 237.553 84.9355 236.603 83.6144C236.309 83.206 236.222 82.8484 236.158 82.3747C236.101 81.9499 235.918 81.6132 235.699 81.2386C235.217 80.4158 235.025 79.4962 235.063 78.572C235.214 74.9824 238.065 71.6446 241.191 69.6961C241.932 69.2346 242.582 68.7646 242.737 67.9129C242.899 67.024 242.703 66.0805 242.553 65.1967C242.405 64.3232 242.176 63.4532 242.157 62.5674C242.138 61.6395 242.414 60.7905 242.884 59.9785C243.768 58.4534 245.189 57.2966 246.821 56.4516C248.393 55.6377 250.112 54.9477 250.881 53.3468C251.697 51.65 251.214 49.6403 252.554 48.1268C253.109 47.5 253.887 46.9436 254.78 46.8001C255.637 46.6625 256.573 46.8891 257.393 47.1213Z" fill="#DDE3E9"/>
<path fill-rule="evenodd" clip-rule="evenodd" d="M255.614 49.927C255.737 49.7051 256.088 49.6881 256.286 49.842C256.545 50.0447 256.415 50.3046 256.297 50.5349C255.933 51.2431 255.712 51.987 255.565 52.7603C255.258 54.3678 255.327 55.9962 255.223 57.6204C255.12 59.2432 254.7 60.7879 253.678 62.123C252.714 63.3818 251.592 64.5313 250.62 65.7888C249.763 66.8972 248.857 68.0649 248.7 69.4626C248.549 70.8078 248.993 72.1406 249.136 73.4732C249.431 76.2318 248.869 78.9195 247.76 81.4632C247.244 82.6443 246.654 83.8069 245.827 84.8305C245.35 85.42 244.708 86.2171 243.896 86.4219C243.521 86.5164 243.017 86.392 242.932 85.9847C242.853 85.6026 243.257 85.2317 243.473 84.9503C244.408 83.7321 245.118 82.3846 245.692 80.9907C246.249 79.6406 246.709 78.2526 246.866 76.8069C247.013 75.4652 246.891 74.154 246.647 72.8244C246.397 71.4694 246.12 70.0998 246.398 68.7344C246.681 67.3476 247.54 66.1756 248.463 65.0853C249.439 63.9321 250.508 62.8628 251.594 61.798C252.652 60.7605 253.374 59.6617 253.725 58.2592C254.419 55.4884 254.174 52.5122 255.614 49.927Z" fill="white"/>
<path fill-rule="evenodd" clip-rule="evenodd" d="M231.706 56.7979C233.051 56.7979 234.233 57.5163 235.048 58.5359C236.002 59.7295 236.194 61.187 236.582 62.6095C236.774 63.3174 237.106 64.0202 237.687 64.5012C238.215 64.9386 238.886 65.0261 239.518 65.2398C240.782 65.6669 241.802 66.6957 242.205 67.951C242.697 69.4823 242.176 71.0266 242.266 72.5784C242.348 74.0036 243.742 74.8927 244.864 75.5759C245.97 76.2496 246.966 76.8802 247.3 78.1926C247.653 79.5845 247.771 81.1382 247.282 82.5132C246.467 84.8027 244.083 85.8109 241.78 85.9672C239.689 86.109 237.06 85.8863 235.49 84.3568C234.551 83.4415 234.21 82.1614 234.252 80.8879C234.279 80.0959 234.434 79.3113 234.636 78.546C234.778 78.0036 234.971 77.4635 235.026 76.903C235.172 75.4117 233.804 75.1253 232.64 74.7159C231.161 74.1955 230.126 73.2127 229.406 71.8434C228.735 70.5685 228.454 69.1374 228.856 67.7337C229.061 67.0169 229.433 66.3666 229.938 65.8136C230.161 65.5701 230.474 65.3671 230.675 65.1113C230.862 64.8724 230.821 64.563 230.757 64.2832C230.458 62.991 229.528 61.9209 229.196 60.631C228.896 59.4667 229.073 58.0176 230.129 57.2665C230.585 56.9419 231.148 56.8014 231.706 56.7979Z" fill="#C5CFD6"/>
<path fill-rule="evenodd" clip-rule="evenodd" d="M233.539 60.1648C234.964 61.6952 235.352 63.7715 235.466 65.784C235.529 66.9125 235.463 68.1028 235.792 69.1974C236.073 70.1342 236.733 70.8504 237.413 71.5272C238.782 72.8897 240.309 74.2749 240.71 76.2468C240.945 77.404 240.786 78.5993 241.111 79.7438C241.406 80.7841 241.926 81.8062 242.558 82.6846C243.067 83.3921 243.73 83.9337 244.287 84.5931C244.457 84.7944 244.7 85.0907 244.63 85.3749C244.548 85.7077 244.127 85.813 243.829 85.7607C243.133 85.6389 242.547 84.9693 242.092 84.4825C241.427 83.7707 240.862 83.005 240.402 82.1462C239.892 81.1925 239.482 80.1804 239.306 79.1104C239.124 78.0003 239.215 76.8434 238.799 75.778C238.099 73.9854 236.402 72.9275 235.175 71.5304C233.646 69.7894 233.874 67.6226 234.031 65.4811C234.117 64.3042 234.202 62.9752 233.612 61.9006C233.387 61.4905 232.885 61.108 232.788 60.6418C232.699 60.2146 233.183 59.783 233.539 60.1648Z" fill="white"/>
<ellipse cx="245.097" cy="91.9356" rx="9.12675" ry="6.84506" fill="#8A92A2"/>
<path d="M3.04588 98.5275L92.3275 98.5604" stroke="#8A92A3"/>
<path d="M84.6843 98.5275L234.614 98.5604" stroke="#8A92A3"/>
<path d="M235.057 98.5604L300.287 98.5275" stroke="#8A92A3"/>
<path d="M74.4657 70.4906C74.4657 82.84 67.1105 87.152 58.0375 87.152C48.9645 87.152 41.6094 82.84 41.6094 70.4906C41.6094 58.1413 58.0375 42.4309 58.0375 42.4309C58.0375 42.4309 74.4657 58.1413 74.4657 70.4906Z" fill="#DFE4EA"/>
<path d="M57.3013 85.025L57.4685 74.747L64.4284 62.0318L57.4948 73.1348L57.5699 68.5134L62.3667 59.314L57.5899 67.2905L57.725 58.9787L62.8615 51.6549L57.7463 57.6717L57.8308 42.4309L57.2999 62.607L57.3434 61.7746L52.1212 53.7921L57.2598 63.3724L56.7731 72.6552L56.7587 72.4087L50.7383 64.0084L56.7404 73.2792L56.6795 74.4401L56.6687 74.4576L56.6736 74.5529L55.4391 98.1041H57.0886L57.2865 85.9394L63.2739 76.6913L57.3013 85.025Z" fill="#3F3D56"/>
<path opacity="0.546642" fill-rule="evenodd" clip-rule="evenodd" d="M217.716 20.7014L217.968 92.9374H95.418V20.2451L156.567 54.4703L217.716 20.7014Z" fill="#DADADA"/>
<path fill-rule="evenodd" clip-rule="evenodd" d="M217.968 20.7112V94.7628H95.418V20.7112L156.693 57.7376L217.968 20.7112Z" fill="#FEFEFE" stroke="#DCE2EA" stroke-width="0.5"/>
<path opacity="0.439686" fill-rule="evenodd" clip-rule="evenodd" d="M95.418 92.4906L151.549 57.0553C154.624 55.1141 158.762 55.1141 161.837 57.0553L217.968 92.4906H95.418Z" stroke="#C8C8C8" stroke-width="0.5"/>
<path fill-rule="evenodd" clip-rule="evenodd" d="M95.418 20.2459L152.004 58.5783C157.478 61.9316 155.861 61.9316 161.587 58.5783L217.26 21.1586L95.418 20.2459Z" fill="white" stroke="#E6E6E6" stroke-width="0.5"/>
<path d="M156.164 67.1436C160.841 67.168 164.652 63.3968 164.676 58.7203C164.7 54.0439 160.929 50.2331 156.253 50.2087C151.576 50.1843 147.765 53.9556 147.741 58.632C147.717 63.3085 151.488 67.1193 156.164 67.1436Z" fill="#FF3366"/>
<path d="M155.352 61.9027C155.161 61.902 154.976 61.8394 154.824 61.7243L154.815 61.7172L152.833 60.1845C152.648 60.0408 152.527 59.8294 152.498 59.5969C152.468 59.3643 152.532 59.1296 152.676 58.9443C152.82 58.759 153.031 58.6383 153.263 58.6087C153.496 58.5792 153.731 58.6431 153.916 58.7865L155.2 59.7817L158.266 55.8239C158.338 55.7321 158.426 55.6553 158.527 55.5977C158.628 55.5402 158.739 55.503 158.854 55.4884C158.969 55.4738 159.086 55.4821 159.198 55.5126C159.31 55.5432 159.415 55.5956 159.507 55.6667L159.507 55.6669L159.488 55.693L159.507 55.6669C159.693 55.8107 159.813 56.022 159.842 56.2546C159.872 56.4872 159.808 56.7219 159.664 56.9073L156.058 61.5604C155.974 61.6676 155.867 61.7542 155.745 61.8133C155.622 61.8725 155.488 61.9027 155.352 61.9016L155.352 61.9027Z" fill="white"/>
<path fill-rule="evenodd" clip-rule="evenodd" d="M233.085 15.5532C231.622 16.6857 230.127 17.3294 229.376 17.2333C227.494 16.9923 226.514 10.4222 227.607 7.6512C228.699 4.88016 235.819 2.85916 236.819 7.96225C237.166 9.73293 236.603 11.42 235.641 12.8583L238.795 21.8747L232.947 22.5905L233.085 15.5532Z" fill="#CDD2DD"/>
<path fill-rule="evenodd" clip-rule="evenodd" d="M232.004 9.12818C231.407 8.44682 230.851 7.93933 230.179 7.68736C227.613 8.04218 227.256 7.62401 227.067 6.0904C227.446 5.74622 228.85 5.07292 230.474 4.73312C231.282 4.39418 232.28 4.31727 233.284 4.59481C234.504 4.78076 235.59 5.36987 236.195 6.64763C238.126 9.17078 237.263 12.1489 235.75 13.3154C235.253 12.8604 234.813 12.4144 234.416 11.9844C234.656 11.689 234.78 11.3026 234.73 10.8979C234.632 10.1008 233.897 9.53472 233.09 9.63356C233.03 9.64085 232.972 9.65155 232.915 9.66544C233.001 10.6668 233.267 14.0564 233.019 15.2755C232.726 16.713 230.065 17.3828 229.123 17.4981C228.309 17.5977 228.243 16.8334 228.195 16.2857C228.188 16.2068 228.182 16.1324 228.174 16.0657C228.157 15.9264 228.34 15.9043 228.548 15.8793C228.817 15.8469 229.127 15.8096 229.089 15.5046C229.048 15.1722 228.551 14.9741 228.107 14.7969C227.829 14.6863 227.572 14.5838 227.459 14.4619C227.101 14.0772 226.928 13.5205 227.389 13.4641C227.641 13.4332 228.004 13.5343 228.442 13.6559C229.101 13.8394 229.929 14.0697 230.796 13.9637C232.236 13.7874 232.004 9.13499 232.004 9.12818Z" fill="#3B4151"/>
<path fill-rule="evenodd" clip-rule="evenodd" d="M242.9 42.3889L233.895 72.9705L229.659 95.9317H225.407L229.651 42.3889H242.9Z" fill="#B28B67"/>
<path fill-rule="evenodd" clip-rule="evenodd" d="M242.9 42.3889L233.895 72.9705L229.659 95.9317H225.407L229.651 42.3889H242.9Z" fill="#CED4DE"/>
<path fill-rule="evenodd" clip-rule="evenodd" d="M246.948 42.3889C246.32 58.2759 246.567 66.9411 246.708 68.3845C246.849 69.8279 247.647 79.4948 253.088 96.4162H248.666C241.461 80.183 238.945 70.5161 238.119 68.3845C237.292 66.2529 234.852 57.5877 231.288 42.3889H246.948Z" fill="#CED4DE"/>
<path fill-rule="evenodd" clip-rule="evenodd" d="M243.094 42.3889C240.751 52.9121 236.7 69.7098 230.939 92.7821L225.015 91.2968C226.695 67.675 227.149 54.637 229.651 42.3889H243.094Z" fill="#3B4151"/>
<path fill-rule="evenodd" clip-rule="evenodd" d="M245.278 42.3889C245.148 45.7378 246.824 49.9251 246.266 54.3697C244.588 67.7259 249.001 77.9541 252.9 93.0294H246.266C239.047 77.0385 233.873 61.4641 230.337 42.3889H245.278Z" fill="#464D5F"/>
<path fill-rule="evenodd" clip-rule="evenodd" d="M250.88 96.0941C252.015 96.0941 253.369 96.3092 253.466 97.4395C253.469 97.4794 253.471 97.5173 253.471 97.5529C253.471 98.2082 253.249 99.4654 253.249 99.4654C252.478 99.4654 239.383 99.4654 239.383 99.4654C239.383 99.4654 238.842 97.7045 240.007 97.5641C241.171 97.4237 241.941 97.3106 241.941 97.3106L247.686 94.7871C248.198 94.5622 248.795 94.8008 249.01 95.3167L249.128 95.5984C249.128 95.5984 250.206 96.0941 250.88 96.0941Z" fill="#8A92A2"/>
<path fill-rule="evenodd" clip-rule="evenodd" d="M227.775 95.267C228.909 95.267 230.264 95.482 230.36 96.6123C230.363 96.6522 230.365 96.6902 230.365 96.7257C230.365 97.381 230.144 98.6383 230.144 98.6383C229.372 98.6383 216.277 98.6383 216.277 98.6383C216.277 98.6383 215.737 96.8774 216.901 96.737C218.066 96.5966 218.836 96.4834 218.836 96.4834L224.58 93.9599C225.092 93.735 225.689 93.9737 225.905 94.4896L226.023 94.7713C226.023 94.7713 227.101 95.267 227.775 95.267Z" fill="#8A92A2"/>
<path fill-rule="evenodd" clip-rule="evenodd" d="M257.107 52.5683C256.216 51.226 250.213 37.5714 250.213 37.5714L246.973 38.2323C246.973 38.2323 253.544 52.6804 254.033 53.5538C254.669 54.6883 254.053 56.525 253.635 57.7704C253.571 57.9631 253.511 58.1416 253.461 58.3012C254.285 58.5503 254.608 58.0879 254.95 57.6003C255.335 57.0497 255.743 56.467 256.918 56.8415C257.372 56.9862 257.808 57.1696 258.233 57.3488C259.703 57.9679 261.053 58.5367 262.64 57.2829C262.891 57.0841 263.112 56.4245 262.332 56.0256C260.389 55.0317 257.542 53.2245 257.107 52.5683ZM215.108 47.639L222.188 41.0523L224.423 45.0354L217.113 49.1289C215.247 51.92 214.159 53.1214 213.849 52.7332C213.588 52.4059 213.717 52.0539 213.836 51.7296C213.929 51.4769 214.015 51.2412 213.906 51.0471C213.658 50.6039 212.201 50.832 210.828 51.1069C209.455 51.3817 209.784 50.7235 210.081 50.3821C211.393 49.373 213.069 48.4587 215.108 47.639Z" fill="#CED4DE"/>
<path fill-rule="evenodd" clip-rule="evenodd" d="M234.998 18.2726L232.846 18.1742C229.937 21.3425 227.897 27.5913 225.945 31.9089C223.2 37.9814 220.572 42.3053 215.457 46.9567L218.112 49.4958C222.259 47.5442 225.903 44.275 228.514 41.5132C234.969 34.6844 236.204 26.125 234.998 18.2726Z" fill="#8A92A2"/>
<path fill-rule="evenodd" clip-rule="evenodd" d="M247.4 43.2824C247.4 43.2824 235.871 42.0857 229.898 42.8177C229.045 42.9222 229.85 42.6317 229.898 42.0039C230.45 34.7586 233.166 29.6591 231.883 18.1975L237.16 16.7059C242.478 23.2215 245.087 31.7264 247.4 43.2824Z" fill="white"/>
<path fill-rule="evenodd" clip-rule="evenodd" d="M250.196 48.2095C251.252 50.0381 252.26 51.6239 253.177 52.8318L257.175 52.3424C255.179 48.9991 252.85 42.8052 251.32 38.737C250.785 37.3126 250.347 36.1488 250.056 35.4591C249.502 34.146 248.915 32.8324 248.247 31.3373C247.414 29.4721 246.454 27.3245 245.275 24.5433C245.149 24.2458 245.02 23.9295 244.888 23.6056C244.768 23.3096 244.645 23.0073 244.519 22.7068C245.235 22.4184 245.89 21.8998 246.397 21.0473C248.772 17.0543 247.454 15.1917 245.275 14.8151C244.267 14.6409 243.416 15.0418 242.529 15.4592C242.232 15.5994 241.93 15.7414 241.617 15.8642C240.849 16.1657 239.676 16.4219 238.398 16.5783C238.178 16.6053 237.987 16.6508 237.822 16.7125C237.77 16.6995 237.726 16.6889 237.69 16.6804L237.662 16.6426L237.583 16.6568C237.572 16.6548 237.567 16.6537 237.567 16.6537L237.561 16.6608L235.394 17.0507C235.394 17.0507 235.529 27.4495 236.056 33.422C236.346 36.7137 235.401 47.002 233.204 51.4888L250.196 48.2095Z" fill="#8A92A2"/>
<path fill-rule="evenodd" clip-rule="evenodd" d="M250.121 48.0768C248.7 45.6039 247.197 42.6984 245.725 39.6881C245.748 43.1987 245.503 46.758 244.612 48.7511L250.121 48.0768Z" fill="black" fill-opacity="0.1"/>
<path fill-rule="evenodd" clip-rule="evenodd" d="M80.7532 16.276C82.0826 17.3366 83.4491 17.9505 84.1419 17.8751C85.879 17.686 86.8817 11.6891 85.9184 9.13455C84.9551 6.58003 78.429 4.61114 77.43 9.2651C77.0832 10.8803 77.5764 12.4342 78.4408 13.7669L75.3985 21.9655L80.7729 22.7185L80.7532 16.276Z" fill="#CDD2DD"/>
<path fill-rule="evenodd" clip-rule="evenodd" d="M83.8031 6.2165C83.0994 5.89381 82.3939 5.70765 81.9382 5.6951C82.2778 5.13144 82.4731 4.47777 82.4821 3.8159C82.4908 3.17276 80.3975 1.89132 78.0977 2.58148C75.7978 3.27164 74.884 5.18655 75.2974 5.79619C75.6664 6.34034 76.2639 6.74908 76.8642 6.97553C76.3878 7.37892 75.2974 7.64523 75.0636 10.3892C74.8298 13.1332 76.8244 14.555 77.0786 14.6447C77.5597 14.8145 78.1327 14.8774 78.5686 14.5444C78.7257 14.4244 78.9016 14.2705 79.0259 14.1144C79.0705 14.0583 79.0979 14.0213 79.0625 13.9553C79.0201 13.8763 78.9429 13.8095 78.8834 13.744C78.5439 13.3704 78.3659 12.9104 78.3773 12.395C78.3888 11.872 78.6233 11.2277 79.165 11.0748C79.8338 10.886 80.4825 11.3014 81.0005 11.6764C81.3543 10.8867 81.9471 10.2141 82.766 9.94393C83.672 9.64507 84.6511 9.73256 85.5721 9.4963C85.8122 9.43473 85.8234 9.5225 86.0173 9.35564C86.0983 9.2859 84.5068 6.53919 83.8031 6.2165Z" fill="#3B4151"/>
<path fill-rule="evenodd" clip-rule="evenodd" d="M71.6914 40.7539L77.1403 69.7892L77.1403 93.167L81.1794 93.7336L80.0666 43.1261L71.6914 40.7539Z" fill="#CDD3DE"/>
<path fill-rule="evenodd" clip-rule="evenodd" d="M71.524 39.7009C70.0051 54.8128 64.9384 63.4902 64.6125 64.8369C64.2867 66.1835 61.7752 77.2425 54.3526 92.524L58.6541 92.524C67.6616 78.1287 71.7036 67.8878 72.7727 65.9816C73.8417 64.0754 77.3146 56.2039 82.7242 42.3016L71.524 39.7009Z" fill="#CDD3DE"/>
<path fill-rule="evenodd" clip-rule="evenodd" d="M71.5078 40.7283C72.3318 50.9948 78.5576 63.947 76.4355 89.8431L81.6792 90.0172C85.2696 67.6771 83.9557 54.1011 82.223 43.1262L71.5078 40.7283Z" fill="#3B4151"/>
<path fill-rule="evenodd" clip-rule="evenodd" d="M71.0463 40.4225C69.9702 42.2609 65.4636 47.2945 64.5605 51.8494C61.4028 67.7763 63.0844 71.3288 54.9695 89.4903L60.7481 89.4903C69.7359 75.3259 74.4137 58.3269 80.3136 40.7542L71.0463 40.4225Z" fill="#464D5F"/>
<path fill-rule="evenodd" clip-rule="evenodd" d="M53.4668 94.0937L54.2962 91.7701C54.511 91.1684 55.2381 90.9109 55.8465 91.1058C57.6291 91.6771 59.7924 91.5706 59.7924 91.5706C61.5463 93.721 64.268 95.4318 65.9496 96.362C66.731 96.7942 67.0259 97.8044 66.5507 98.5609L58.4503 96.2424L53.7251 94.8899L53.4668 94.0937Z" fill="#8A92A2"/>
<path fill-rule="evenodd" clip-rule="evenodd" d="M75.9911 96.6874L76.2327 94.2326C76.2952 93.5968 76.9382 93.1713 77.5756 93.2136C79.4438 93.3375 81.5172 92.7117 81.5172 92.7117C83.7404 94.3748 86.7962 95.3776 88.6532 95.8741C89.5159 96.1047 90.0467 97.0137 89.769 97.8623L81.3473 97.5688L76.4347 97.3976L75.9911 96.6874Z" fill="#8A92A2"/>
<path fill-rule="evenodd" clip-rule="evenodd" d="M93.7702 26.8412L85.644 29.1704L87.0611 31.5113L94.2189 29.1683C95.7694 28.9649 96.7151 28.9594 97.252 28.9563C97.8092 28.9531 97.9262 28.9525 97.822 28.7358C97.6465 28.3711 97.048 28.1538 96.5154 27.9605C96.1159 27.8154 95.7535 27.6838 95.6348 27.5137C95.3579 27.1167 95.1537 26.685 95.1539 25.7661C95.1541 25.181 95.2107 24.9679 95.1447 24.9185C95.1071 24.8903 95.0295 24.9153 94.8788 24.955C94.6242 25.3786 94.5714 25.6786 94.5288 25.921C94.4652 26.2824 94.4241 26.516 93.7702 26.8412ZM100.896 34.0835L97.1354 35.5173L96.839 39.0573C96.839 39.0573 99.3294 37.7379 101.35 37.4665C103.927 37.1205 105.004 36.7316 106.434 35.3531C107.199 34.6156 107.984 33.0274 107.443 32.3987C107.236 32.1575 106.285 32.5254 105.314 32.9009C104.575 33.187 103.824 33.4774 103.383 33.5059C102.789 33.5442 102.962 32.8032 103.101 32.211C103.2 31.786 103.282 31.4377 103.049 31.5091C102.025 31.3836 100.896 34.0835 100.896 34.0835Z" fill="#C8CED8"/>
<path fill-rule="evenodd" clip-rule="evenodd" d="M81.4708 28.297C84.2563 28.5812 88.05 28.513 92.3704 26.9023L93.4236 29.9018C90.3025 31.8093 86.1426 33.1997 82.8002 32.7509C80.1663 32.3972 79.2769 29.6378 81.4708 28.297Z" fill="#8A92A2"/>
<path fill-rule="evenodd" clip-rule="evenodd" d="M66.1055 49.3793C65.5966 49.5976 65.2405 49.7503 65.0945 49.7584C68.8541 39.8356 69.4406 33.5275 69.8527 29.0942C70.1405 25.9978 70.3434 23.8159 71.4831 21.9558C72.5412 20.2287 76.3671 18.8536 76.5595 18.8805L82.9078 19.7698C82.8639 20.4699 82.7818 20.9726 82.7116 21.4028C82.5875 22.1628 82.5003 22.6965 82.726 23.6927C82.8372 24.1839 83.4398 25.2596 83.9914 26.2442C84.4154 27.0012 84.8093 27.7043 84.9265 28.0465C85.5332 29.8175 84.5633 32.5571 83.5835 34.2299C83.698 34.3139 83.8184 34.3884 83.945 34.4529C88.049 36.5432 99.6664 34.1448 99.6664 34.1448C99.6664 34.1448 100.183 35.5066 99.6655 37.7652C92.3547 40.3786 86.5735 41.2267 82.247 40.7738C82.3799 41.2332 82.5372 41.7399 82.721 42.3C84.063 46.3888 83.9725 53.5444 83.9237 57.4054C83.9082 58.6299 83.8969 59.523 83.9368 59.8819C83.9658 60.1433 83.2079 58.925 82.1432 57.2137C80.3986 54.4097 77.8304 50.2817 76.5514 49.1702C73.261 46.3107 68.2836 48.4453 66.1055 49.3793Z" fill="#8A92A2"/>
</svg>
