<svg xmlns="http://www.w3.org/2000/svg" id="fy-rotate" viewBox="0 0 17 17">
  <path d="M281.5,1249.5 C277.1,1249.5 273.5,1253.1 273.5,1257.5 C273.5,1261.9 277.1,1265.5 281.5,1265.5 C285.2,1265.5 288.3,1262.9 289.5,1259.5 L287.5,1259.5 C286.3,1261.8 284.1,1263.5 281.5,1263.5 C278.2,1263.5 275.5,1260.8 275.5,1257.5 C275.5,1254.2 278.2,1251.5 281.5,1251.5 C283.2,1251.5 284.6,1252.2 285.5,1253.5 L282.5,1256.5 L289.5,1256.5 L289.5,1249.5 L287.5,1251.5 C285.7,1250.5 283.7,1249.5 281.5,1249.5 Z" transform="translate(-273 -1249)"/>
</svg>