<svg xmlns="http://www.w3.org/2000/svg" viewBox="0 0 16 20">
  <path d="M10.7483254,-2.88657986e-13 C11.6669856,-2.88657986e-13 12.4019139,0.643062201 12.4019139,1.37799043 L12.401,2.296 L13.9636364,2.29665072 C14.8822967,2.29665072 15.6172249,3.03157895 15.6172249,3.95023923 L15.6172249,17.9138756 C15.6172249,18.7406699 14.8822967,19.3837321 13.9636364,19.3837321 L1.65358852,19.3837321 C0.73492823,19.3837321 2.29150032e-13,18.6488038 2.29150032e-13,17.7301435 L2.29150032e-13,3.85837321 C2.29150032e-13,2.93971292 0.73492823,2.20478469 1.65358852,2.20478469 L3.215,2.204 L3.215311,1.37799043 C3.215311,0.643062201 3.95023923,-2.88657986e-13 4.86889952,-2.88657986e-13 L10.7483254,-2.88657986e-13 Z M3.47762753,3.58311958 L1.65358852,3.58277512 C1.56172249,3.58277512 1.46985646,3.67464115 1.46985646,3.76650718 L1.46985646,17.7301435 C1.46985646,17.8220096 1.56172249,17.9138756 1.65358852,17.9138756 L13.9636364,17.9138756 C14.0555024,17.9138756 14.1473684,17.8220096 14.1473684,17.7301435 L14.1473684,3.85837321 C14.1473684,3.76650718 14.0555024,3.67464115 13.9636364,3.67464115 L12.0622458,3.67525432 C11.7609683,4.00544613 11.2861313,4.22583732 10.7483254,4.22583732 L9.2784689,4.22583732 C9.00287081,4.68516746 8.45167464,4.96076555 7.80861244,4.96076555 C7.16555024,4.96076555 6.61435407,4.68516746 6.24688995,4.22583732 L4.86889952,4.22583732 C4.28248804,4.22583732 3.77094175,3.96380912 3.47762753,3.58311958 Z M10.9995086,12.4937799 C11.2643476,12.4937799 11.5291866,12.769378 11.5291866,13.2287081 C11.5291866,13.6880383 11.2643476,13.9636364 10.9995086,13.9636364 L4.70958231,13.9636364 C4.44474331,13.9636364 4.17990431,13.6880383 4.17990431,13.2287081 C4.17990431,12.769378 4.37853356,12.4937799 4.70958231,12.4937799 L10.9995086,12.4937799 Z M10.9995086,8.26794258 C11.2643476,8.26794258 11.5291866,8.54354067 11.5291866,9.00287081 C11.5291866,9.46220096 11.2643476,9.73779904 10.9995086,9.73779904 L4.70958231,9.73779904 C4.44474331,9.73779904 4.17990431,9.46220096 4.17990431,9.00287081 C4.17990431,8.54354067 4.37853356,8.26794258 4.70958231,8.26794258 L10.9995086,8.26794258 Z M10.7483254,1.37799043 L4.86889952,1.37799043 C4.77703349,1.37799043 4.68516746,1.37799043 4.68516746,1.46985646 L4.68516746,2.75598086 C4.68516746,2.75598086 4.77703349,2.84784689 4.86889952,2.84784689 L6.33875598,2.84784689 C6.79808612,2.84784689 7.16555024,3.12344498 7.44114833,3.49090909 C7.44114833,3.49090909 7.62488038,3.58277512 7.80861244,3.58277512 C7.9923445,3.58277512 8.17607656,3.49090909 8.17607656,3.49090909 C8.45167464,3.03157895 8.81913876,2.84784689 9.2784689,2.84784689 L10.7483254,2.84784689 C10.8401914,2.84784689 10.9320574,2.84784689 10.9320574,2.75598086 L10.9320574,1.46985646 C10.9320574,1.46985646 10.8401914,1.37799043 10.7483254,1.37799043 Z"/>
</svg>