<svg xmlns="http://www.w3.org/2000/svg" xmlns:xlink="http://www.w3.org/1999/xlink" viewBox="0 0 20 20" id="fy-reports">
  <defs>
    <path id="reports-a" d="M8,0 C7.735,0 7.48,0.105 7.293,0.293 L5.585,2 L3,2 C2.447,2 2,2.448 2,3 L2,19 C2,19.552 2.447,20 3,20 L17,20 C17.553,20 18,19.552 18,19 L18,3 C18,2.448 17.553,2 17,2 L14.413,2 L12.707,0.293 C12.52,0.105 12.266,0 12,0 L8,0 Z M7.414,3 L8.414,2 L11.586,2 L12.586,3 L11.586,4 L8.414,4 L7.414,3 Z M12,6 C12.266,6 12.52,5.895 12.707,5.707 L14.413,4 L16,4 L16,18 L4,18 L4,4 L5.585,4 L7.293,5.707 C7.48,5.895 7.735,6 8,6 L12,6 Z M11,9 C10.447,9 10,9.449 10,10 C10,10.552 10.447,11 11,11 L13,11 C13.553,11 13.999,10.552 13.999,10 C13.999,9.449 13.553,9 13,9 L11,9 Z M5.999,10 C5.999,10.552 6.447,11 7,11 C7.553,11 8,10.552 8,10 C8,9.449 7.553,9 7,9 C6.447,9 5.999,9.449 5.999,10 Z M11,13 C10.447,13 10,13.448 10,14 C10,14.551 10.447,15 11,15 L13,15 C13.553,15 13.999,14.551 13.999,14 C13.999,13.448 13.553,13 13,13 L11,13 Z M5.999,14 C5.999,14.551 6.447,15 7,15 C7.553,15 8,14.551 8,14 C8,13.448 7.553,13 7,13 C6.447,13 5.999,13.448 5.999,14 Z"/>
  </defs>
  <use fill-rule="evenodd" xlink:href="#reports-a"/>
</svg>
