<svg xmlns="http://www.w3.org/2000/svg" viewBox="0 0 16 15">
  <path d="M12.8605401,-3.16990878e-12 C14.2828576,0.141766703 15.3269505,1.40109176 15.2007401,2.77 L15.2007401,2.77 L15.2007401,4.35 C15.2007401,4.95737085 14.7081109,5.45 14.1007401,5.45 L14.1007401,5.45 L11.759,5.449 L11.7580895,11.6158266 C11.8766975,12.9241091 11.00478,14.0953527 9.69275233,14.3851548 L9.51916762,14.4178952 L9.37,14.436 L9.37034009,14.4403 L2.57786242,14.4398788 C1.17081581,14.3871299 0.0466224358,13.2530302 8.70414851e-14,11.8327269 L8.70414851e-14,11.8327269 L0.000340092851,9.6703 C0.000340092851,9.06292915 0.492969243,8.5703 1.10034009,8.5703 L1.10034009,8.5703 L2.63,8.57 L2.63054009,2.12 L2.63994908,2.01415932 C2.83854598,0.905988607 3.76768858,0.0754852098 4.93054009,-3.16990878e-12 L4.93054009,-3.16990878e-12 L12.8605401,-3.16990878e-12 Z M6.76974009,9.7693 L1.19974009,9.7693 L1.1996724,11.8129969 C1.22369036,12.5395223 1.77537902,13.1373839 2.46876411,13.2291223 L2.46876411,13.2291223 L2.60034009,13.2403 L7.21693558,13.240589 C6.94921483,12.8358996 6.78726052,12.353447 6.77019458,11.8324254 L6.77019458,11.8324254 L6.76974009,9.7693 Z M4.97007662,1.19869597 C4.39681828,1.23655265 3.92243293,1.66057652 3.82113111,2.22584068 L3.829,2.191 L3.82974009,8.5693 L6.87054009,8.57 C6.87627637,8.57 6.88200242,8.57004394 6.88771791,8.57013151 C7.497871,8.5703 7.99134009,9.06308845 7.99134009,9.6703 L7.99134009,9.6703 L7.99115538,11.8394743 C8.02914788,12.5913853 8.63181257,13.204803 9.39860562,13.2409662 L9.35602504,13.2376757 C10.0958794,13.1388381 10.6308695,12.4723523 10.5605401,11.67 L10.5605401,11.67 L10.5605401,2.12 L10.5699491,2.01415932 C10.6222272,1.72244755 10.7250437,1.45000801 10.8717401,1.1993 L10.8717401,1.1993 Z M8.47064009,5.7203 C8.80201094,5.7203 9.07064009,5.98892915 9.07064009,6.3203 C9.07064009,6.61853376 8.85305048,6.86594675 8.56796321,6.91244701 L8.47064009,6.9203 L5.48064009,6.9203 C5.14926924,6.9203 4.88064009,6.65167085 4.88064009,6.3203 C4.88064009,6.02206624 5.0982297,5.77465325 5.38331698,5.72815299 L5.48064009,5.7203 L8.47064009,5.7203 Z M8.47064009,3.3301 C8.80201094,3.3301 9.07064009,3.59872915 9.07064009,3.9301 C9.07064009,4.22833376 8.85305048,4.47574675 8.56796321,4.52224701 L8.47064009,4.5301 L5.48064009,4.5301 C5.14926924,4.5301 4.88064009,4.26147085 4.88064009,3.9301 C4.88064009,3.63186624 5.0982297,3.38445325 5.38331698,3.33795299 L5.48064009,3.3301 L8.47064009,3.3301 Z M12.8218439,1.20630379 C12.2836199,1.27564867 11.8478649,1.68606609 11.7511311,2.22584068 L11.759,2.191 L11.759,4.249 L14.0007401,4.2493 L14.0031774,2.71597378 C14.0683797,1.99479636 13.5737886,1.3515443 12.8760481,1.21647375 L12.8760481,1.21647375 Z"/>
</svg>