<svg xmlns="http://www.w3.org/2000/svg" viewBox="0 0 20 20" id="fy-receipts">
  <g fill-rule="evenodd">
    <path fill="#000" d="M16,-0.0003 C15.448,-0.0003 15,0.4467 15,1.0007 C15,1.5527 15.448,2.0007 16,2.0007 L18,2.0007 L18,17.1317 L16.555,16.1677 C16.219,15.9427 15.781,15.9427 15.444,16.1677 L13,17.7977 L10.556,16.1677 C10.219,15.9427 9.781,15.9427 9.445,16.1677 L7,17.7977 L4.555,16.1677 C4.22,15.9427 3.78,15.9427 3.445,16.1677 L2,17.1317 L2,2.0007 L3,2.0007 C3.552,2.0007 4,1.5527 4,1.0007 C4,0.4467 3.552,-0.0003 3,-0.0003 L1,-0.0003 C0.449,-0.0003 0,0.4467 0,1.0007 L0,19.0007 C0,19.3697 0.203,19.7077 0.528,19.8817 C0.853,20.0557 1.247,20.0357 1.556,19.8317 L4,18.2017 L6.444,19.8317 C6.604,19.9387 6.787,19.9947 6.971,20.0007 L7.029,20.0007 C7.213,19.9947 7.395,19.9387 7.555,19.8317 L10,18.2017 L12.445,19.8317 C12.604,19.9387 12.787,19.9947 12.971,20.0007 L13.029,20.0007 C13.213,19.9947 13.396,19.9387 13.555,19.8317 L16,18.2017 L18.445,19.8317 C18.612,19.9427 18.806,20.0007 19,20.0007 C19.162,20.0007 19.324,19.9607 19.472,19.8817 C19.797,19.7077 20,19.3697 20,19.0007 L20,1.0007 C20,0.4467 19.552,-0.0003 19,-0.0003 L16,-0.0003 Z"/>
    <circle cx="5" cy="5" r="2" fill="#000"/>
    <path fill="#000" d="M15.8881167,4 L14.5594163,4 L11.4405837,4 L10.1118833,4 C9.49701181,4 9,4.447 9,5 C9,5.553 9.49701181,6 10.1118833,6 L11.4405837,6 L14.5594163,6 L15.8881167,6 C16.5029882,6 17,5.553 17,5 C17,4.447 16.5029882,4 15.8881167,4"/>
    <rect width="14" height="2" x="3" y="8" fill="#000" rx="1"/>
    <rect width="14" height="2" x="3" y="12" fill="#000" rx="1"/>
  </g>
</svg>
