<svg xmlns="http://www.w3.org/2000/svg" xmlns:xlink="http://www.w3.org/1999/xlink"><defs><path id="fy-receipt-attached" d="M5.602 1.202a3.075 3.075 0 0 1 3.072 2.922l.003.153v4.125a.45.45 0 0 1-.894.073l-.006-.073V4.277a2.175 2.175 0 0 0-4.346-.127l-.004.127v5.25a1.425 1.425 0 0 0 2.846.112l.004-.112v-5.25a.675.675 0 0 0-1.344-.084l-.006.084v4.125a.45.45 0 0 1-.894.073l-.006-.073V4.277a1.575 1.575 0 0 1 3.146-.112l.004.112v5.25a2.325 2.325 0 0 1-4.646.132l-.004-.132v-5.25a3.075 3.075 0 0 1 3.075-3.075z"/></defs><g fill="none" fill-rule="evenodd"><use fill="#5A5D72" fill-rule="nonzero" transform="rotate(-30 5.602 6.527)" xlink:href="#fy-receipt-attached"/><circle cx="9.88" cy="9.88" r="2.88" fill="#00A638"/><path fill="#FFF" d="M12.005 8.732a.36.36 0 0 1 0 .51l-1.916 1.917a.359.359 0 0 1-.088.145l-.029.029a.36.36 0 0 1-.51 0l-1.017-1.018a.36.36 0 0 1 0-.51l.029-.028a.36.36 0 0 1 .51 0l.733.733 1.78-1.778a.36.36 0 0 1 .508 0z"/></g></svg>