<svg id="fy-switch-new" xmlns="http://www.w3.org/2000/svg" xmlns:xlink="http://www.w3.org/1999/xlink" viewBox="0 0 20 20">
  <path id="28.-switch-a" d="M17.5812408,11.878771 C17.642033,12.0069992 17.6772473,12.1453624 17.6854329,12.2861553 L17.6845551,12.4274727 L17.4257985,16.0922513 C17.4024598,16.4227992 17.1155779,16.6718415 16.7850299,16.6485027 C16.4875368,16.6274978 16.2560633,16.393023 16.2297575,16.1053686 L16.2287786,16.0077341 L16.3852906,13.7936797 C15.202473,16.074428 12.8302392,17.5668166 10.1761919,17.5668166 C7.22285469,17.5668166 4.6184161,15.7188624 3.61356855,12.9928909 C3.49895741,12.6819715 3.65809677,12.3370107 3.96901626,12.2223996 C4.27993575,12.1077885 4.62489648,12.2669278 4.73950761,12.5778473 C5.57185024,14.8358437 7.72954693,16.3668166 10.1761919,16.3668166 C12.4648306,16.3668166 14.5005968,15.0272015 15.4352694,13.0060994 L13.4923871,13.9279412 C13.2229048,14.0557012 12.9061308,13.9650774 12.7419852,13.7273942 L12.6931972,13.6428177 C12.5654372,13.3733353 12.656061,13.0565614 12.8937441,12.8924158 L12.9783206,12.8436278 L16.1160592,11.3560447 C16.6650048,11.0957928 17.3209889,11.3298254 17.5812408,11.878771 Z M10.6768843,3 C13.6302215,3 16.2346601,4.8479542 17.2395076,7.57392562 C17.3541188,7.88484511 17.1949794,8.22980584 16.8840599,8.34441697 C16.5731404,8.45902811 16.2281797,8.29988875 16.1135686,7.98896926 C15.2812259,5.73097282 13.1235293,4.2 10.6768843,4.2 C8.31637429,4.2 6.22486829,5.62507341 5.33303466,7.7531222 L7.19304571,6.87115298 C7.46252811,6.74339299 7.77930208,6.83401683 7.94344764,7.07169994 L7.99223569,7.15627644 C8.11999568,7.42575884 8.02937185,7.7425328 7.79168874,7.90667837 L7.70711223,7.95546641 L4.56937371,9.4430495 C4.02042809,9.70330135 3.36444393,9.46926879 3.10419209,8.92032317 C3.04339986,8.79209496 3.00818556,8.65373179 3,8.51293888 L3.00087775,8.37162143 L3.25963432,4.70684289 C3.2829731,4.37629495 3.56985497,4.12725271 3.90040291,4.15059149 C4.19789606,4.17159639 4.42936958,4.40607119 4.45567539,4.69372556 L4.45665431,4.79136008 L4.29014197,7.14171832 C5.40033465,4.65450949 7.88239578,3 10.6768843,3 Z"/>
</svg>