<svg viewBox="0 0 19 21" fill="none" xmlns="http://www.w3.org/2000/svg">
<path fill-rule="evenodd" clip-rule="evenodd" d="M0.77027 0C1.19568 0 1.54054 0.344862 1.54054 0.77027V19.2568C1.54054 19.6822 1.19568 20.027 0.77027 20.027C0.344862 20.027 0 19.6822 0 19.2568L0 0.77027C0 0.344862 0.344862 0 0.77027 0Z" fill="currentColor"/>
<path fill-rule="evenodd" clip-rule="evenodd" d="M18.2297 0C18.6552 0 19 0.344862 19 0.77027V19.2568C19 19.6822 18.6552 20.027 18.2297 20.027C17.8043 20.027 17.4595 19.6822 17.4595 19.2568V0.77027C17.4595 0.344862 17.8043 0 18.2297 0Z" fill="currentColor"/>
<path fill-rule="evenodd" clip-rule="evenodd" d="M0 5.04321C0 4.6178 0.344862 4.27294 0.77027 4.27294L14.7561 4.27294C15.1815 4.27294 15.5264 4.6178 15.5264 5.04321C15.5264 5.46861 15.1815 5.81348 14.7561 5.81348L0.77027 5.81348C0.344862 5.81348 0 5.46861 0 5.04321Z" fill="currentColor"/>
<path fill-rule="evenodd" clip-rule="evenodd" d="M11.0779 9.77509C10.7778 9.47358 10.7789 8.98588 11.0804 8.68576L14.7393 5.04369L11.0804 1.40163C10.7789 1.10151 10.7778 0.613808 11.0779 0.312304C11.378 0.0107994 11.8657 0.00967312 12.1672 0.309786L16.3746 4.49777C16.5198 4.64233 16.6014 4.83879 16.6014 5.04369C16.6014 5.2486 16.5198 5.44506 16.3746 5.58962L12.1672 9.7776C11.8657 10.0777 11.378 10.0766 11.0779 9.77509Z" fill="currentColor"/>
<path fill-rule="evenodd" clip-rule="evenodd" d="M3 15.24C3 14.8146 3.34486 14.4697 3.77027 14.4697H17.7561C18.1815 14.4697 18.5264 14.8146 18.5264 15.24C18.5264 15.6654 18.1815 16.0103 17.7561 16.0103H3.77027C3.34486 16.0103 3 15.6654 3 15.24Z" fill="currentColor"/>
<path fill-rule="evenodd" clip-rule="evenodd" d="M2.56763 15.24C2.56763 15.0351 2.64927 14.8386 2.79449 14.6941L7.00188 10.5061C7.30338 10.206 7.79109 10.2071 8.09121 10.5086C8.39132 10.8101 8.39019 11.2978 8.08869 11.5979L4.42975 15.24L8.08869 18.8821C8.39019 19.1822 8.39132 19.6699 8.09121 19.9714C7.79109 20.2729 7.30338 20.274 7.00188 19.9739L2.79449 15.7859C2.64927 15.6413 2.56763 15.4449 2.56763 15.24Z" fill="currentColor"/>
</svg>
