<svg xmlns="http://www.w3.org/2000/svg" xmlns:xlink="http://www.w3.org/1999/xlink" viewBox="0 0 20 20" id="fy-switch">
  <defs>
    <path id="switch-a" d="M18,2 L18,13 L7.414,13 L8.707,11.707 C9.098,11.316 9.098,10.684 8.707,10.293 C8.316,9.902 7.683,9.902 7.293,10.293 L4.294,13.292 C4.201,13.385 4.128,13.495 4.077,13.618 C3.975,13.862 3.975,14.138 4.077,14.382 C4.128,14.505 4.201,14.615 4.294,14.708 L7.293,17.707 C7.488,17.902 7.745,18 8,18 C8.256,18 8.511,17.902 8.707,17.707 C9.098,17.316 9.098,16.684 8.707,16.293 L7.414,15 L18,15 L18,18 C18,18.553 18.448,19 19,19 C19.552,19 20,18.553 20,18 L20,2 C20,1.447 19.552,1 19,1 C18.448,1 18,1.447 18,2 Z M0,2 L0,18 C0,18.553 0.448,19 1,19 C1.552,19 2,18.553 2,18 L2,7 L12.586,7 L11.293,8.293 C10.903,8.684 10.903,9.316 11.293,9.707 C11.488,9.902 11.744,10 12,10 C12.256,10 12.512,9.902 12.707,9.707 L15.706,6.708 C15.799,6.615 15.872,6.505 15.923,6.382 C16.025,6.138 16.025,5.862 15.923,5.618 C15.872,5.495 15.799,5.385 15.706,5.292 L12.707,2.293 C12.316,1.902 11.684,1.902 11.293,2.293 C10.903,2.684 10.903,3.316 11.293,3.707 L12.586,5 L2,5 L2,2 C2,1.447 1.552,1 1,1 C0.448,1 0,1.447 0,2 Z"/>
  </defs>
  <use fill-rule="evenodd" xlink:href="#switch-a"/>
</svg>
