<svg viewBox="0 0 24 24" fill="none" xmlns="http://www.w3.org/2000/svg">
<path fill-rule="evenodd" clip-rule="evenodd" d="M0.75 12.8056C0.75 12.3914 1.08579 12.0556 1.5 12.0556H22.5C22.9142 12.0556 23.25 12.3914 23.25 12.8056C23.25 13.2198 22.9142 13.5556 22.5 13.5556H1.5C1.08579 13.5556 0.75 13.2198 0.75 12.8056Z" fill="#161528"/>
<path fill-rule="evenodd" clip-rule="evenodd" d="M14.9419 3.3501C14.9419 2.93588 15.2777 2.6001 15.6919 2.6001H16.8969C19.373 2.6001 21.3799 4.60675 21.3799 7.0821V8.5951C21.3799 9.00931 21.0441 9.3451 20.6299 9.3451C20.2157 9.3451 19.8799 9.00931 19.8799 8.5951V7.0821C19.8799 5.43544 18.5448 4.1001 16.8969 4.1001H15.6919C15.2777 4.1001 14.9419 3.76431 14.9419 3.3501Z" fill="#161528"/>
<path fill-rule="evenodd" clip-rule="evenodd" d="M7.1031 4.1001C5.45518 4.1001 4.1201 5.43544 4.1201 7.0821V8.5951C4.1201 9.00931 3.78431 9.3451 3.3701 9.3451C2.95589 9.3451 2.6201 9.00931 2.6201 8.5951V7.0821C2.6201 4.60675 4.62702 2.6001 7.1031 2.6001H8.3391C8.75331 2.6001 9.0891 2.93588 9.0891 3.3501C9.0891 3.76431 8.75331 4.1001 8.3391 4.1001H7.1031Z" fill="#161528"/>
<path fill-rule="evenodd" clip-rule="evenodd" d="M20.6299 12.0546C21.0441 12.0546 21.3799 12.3904 21.3799 12.8046V16.8786C21.3799 19.3548 19.3731 21.3616 16.8969 21.3616H15.6919C15.2777 21.3616 14.9419 21.0258 14.9419 20.6116C14.9419 20.1974 15.2777 19.8616 15.6919 19.8616H16.8969C18.5447 19.8616 19.8799 18.5264 19.8799 16.8786V12.8046C19.8799 12.3904 20.2157 12.0546 20.6299 12.0546Z" fill="#161528"/>
<path fill-rule="evenodd" clip-rule="evenodd" d="M3.3701 12.0546C3.78431 12.0546 4.1201 12.3904 4.1201 12.8046V16.8786C4.1201 18.5264 5.45531 19.8616 7.1031 19.8616H8.3391C8.75331 19.8616 9.0891 20.1974 9.0891 20.6116C9.0891 21.0258 8.75331 21.3616 8.3391 21.3616H7.1031C4.62689 21.3616 2.6201 19.3548 2.6201 16.8786V12.8046C2.6201 12.3904 2.95589 12.0546 3.3701 12.0546Z" fill="#161528"/>
</svg>
