<svg xmlns="http://www.w3.org/2000/svg" xmlns:xlink="http://www.w3.org/1999/xlink" viewBox="0 0 20 20" id="fy-swap">
  <defs>
    <path id="swap-a" d="M13.293,0.2932 L10.293,3.2932 C9.902,3.6842 9.902,4.3162 10.293,4.7072 L13.293,7.7072 C13.489,7.9022 13.744,8.0002 14,8.0002 C14.255,8.0002 14.512,7.9022 14.707,7.7072 C15.098,7.3162 15.098,6.6842 14.707,6.2932 L13.414,5.0002 L17,5.0002 C17.552,5.0002 18,5.4482 18,6.0002 L18,9.0002 C18,9.5532 18.448,10.0002 19,10.0002 C19.553,10.0002 20,9.5532 20,9.0002 L20,6.0002 C20,4.3462 18.655,3.0002 17,3.0002 L13.414,3.0002 L14.707,1.7072 C15.098,1.3162 15.098,0.6842 14.707,0.2932 C14.512,0.0982 14.256,0.0002 14,0.0002 C13.744,0.0002 13.489,0.0982 13.293,0.2932 Z M1,0.0002 C0.449,0.0002 0,0.4472 0,1.0002 L0,7.0002 C0,7.5532 0.449,8.0002 1,8.0002 L7,8.0002 C7.551,8.0002 8,7.5532 8,7.0002 L8,1.0002 C8,0.4472 7.551,0.0002 7,0.0002 L1,0.0002 Z M2,6.0012 L6,6.0012 L6,2.0002 L2,2.0002 L2,6.0012 Z M0,11.0002 L0,14.0002 C0,15.6542 1.346,17.0002 3,17.0002 L6.586,17.0002 L5.293,18.2932 C4.903,18.6842 4.903,19.3162 5.293,19.7072 C5.489,19.9022 5.744,20.0002 6,20.0002 C6.256,20.0002 6.512,19.9022 6.707,19.7072 L9.707,16.7072 C10.098,16.3162 10.098,15.6842 9.707,15.2932 L6.707,12.2932 C6.317,11.9022 5.684,11.9022 5.293,12.2932 C4.903,12.6842 4.903,13.3162 5.293,13.7072 L6.586,15.0002 L3,15.0002 C2.449,15.0002 2,14.5522 2,14.0002 L2,11.0002 C2,10.4472 1.552,10.0002 1,10.0002 C0.449,10.0002 0,10.4472 0,11.0002 Z M13,12.0002 C12.447,12.0002 12,12.4472 12,13.0002 L12,19.0002 C12,19.5532 12.447,20.0002 13,20.0002 L19,20.0002 C19.553,20.0002 20,19.5532 20,19.0002 L20,13.0002 C20,12.4472 19.553,12.0002 19,12.0002 L13,12.0002 Z M14,18.0002 L18.001,18.0002 L18.001,14.0002 L14,14.0002 L14,18.0002 Z"/>
  </defs>
  <use fill-rule="evenodd" xlink:href="#swap-a"/>
</svg>
