<svg viewBox="0 0 24 24" xmlns="http://www.w3.org/2000/svg">
<path fill-rule="evenodd" clip-rule="evenodd" d="M11.7666 3.52808C7.21656 3.52808 3.52803 7.2166 3.52803 11.7666C3.52803 16.3167 7.21656 20.0052 11.7666 20.0052C16.3166 20.0052 20.0051 16.3167 20.0051 11.7666C20.0051 7.2166 16.3166 3.52808 11.7666 3.52808ZM2.02803 11.7666C2.02803 6.38818 6.38813 2.02808 11.7666 2.02808C17.145 2.02808 21.5051 6.38818 21.5051 11.7666C21.5051 17.1451 17.145 21.5052 11.7666 21.5052C6.38813 21.5052 2.02803 17.1451 2.02803 11.7666Z"/>
<path fill-rule="evenodd" clip-rule="evenodd" d="M17.4873 17.9555C17.7798 17.6623 18.2547 17.6616 18.5479 17.9542L22.072 21.469C22.3652 21.7615 22.3659 22.2364 22.0734 22.5297C21.7808 22.823 21.306 22.8236 21.0127 22.5311L17.4887 19.0162C17.1954 18.7237 17.1948 18.2488 17.4873 17.9555Z"/>
</svg>
