<svg xmlns="http://www.w3.org/2000/svg" xmlns:xlink="http://www.w3.org/1999/xlink" viewBox="0 0 20 20"><defs><path id="A" d="M4.613 2.2l.094.083 3 3a.999.999 0 0 1-1.311 1.504l-.103-.1L5 5.414V17a1 1 0 0 1-1.993.117L3 17V5.414L1.707 6.707A.999.999 0 0 1 .21 5.387l.083-.094 3-3a.999.999 0 0 1 1.32-.083zM19 14a1 1 0 1 1 0 2h-8a1 1 0 1 1 0-2zm-8.2-5h6.4c.443 0 .8.447.8 1 0 .514-.308.936-.706.994L17.2 11h-6.4c-.442 0-.8-.447-.8-1 0-.513.31-.935.707-.993L10.8 9h6.4zm3.7-5c.277 0 .5.447.5 1 0 .507-.188.925-.432.99L14.5 6h-4c-.276 0-.5-.448-.5-1 0-.508.188-.926.432-.992L10.5 4h4z"/></defs><use fill-rule="evenodd" xlink:href="#A"/></svg>