<svg viewBox="0 0 22 22" fill="none" xmlns="http://www.w3.org/2000/svg">
<path fill-rule="evenodd" clip-rule="evenodd" d="M6.77886 15.4948C6.99656 15.4948 7.21426 15.5205 7.4272 15.5736C8.06984 15.7346 8.62788 16.1345 8.95871 16.6716C9.17355 17.0087 9.29239 17.4024 9.29619 17.8041C9.29619 18.3792 9.79243 18.8402 10.4027 18.8402H11.5939C12.2014 18.8402 12.6976 18.3818 12.7005 17.8165C12.6967 17.1918 12.9591 16.5982 13.4391 16.1513C13.9126 15.7107 14.5742 15.4462 15.2359 15.4639C15.6694 15.4736 16.0867 15.5824 16.4546 15.7771C16.9841 16.0593 17.66 15.8912 17.9662 15.4046L18.5974 14.4252C18.7381 14.1995 18.779 13.9164 18.7039 13.6554C18.6297 13.3944 18.4434 13.1679 18.1924 13.0343C17.6049 12.7193 17.1857 12.2115 17.0117 11.6027C16.8396 11.0055 16.9337 10.3534 17.2693 9.81638C17.488 9.46248 17.8083 9.16431 18.1924 8.95904C18.7077 8.67857 18.8883 8.05127 18.5888 7.56287C18.5765 7.54341 18.5651 7.52306 18.5556 7.50183L17.9985 6.6029C17.6952 6.11185 17.0203 5.94286 16.4907 6.22333C15.9184 6.53831 15.2378 6.62856 14.5837 6.46841C13.9306 6.31092 13.383 5.92605 13.0418 5.3828C12.8231 5.04305 12.7043 4.64756 12.7005 4.24498C12.709 3.94239 12.595 3.67077 12.3877 3.47169C12.1814 3.27351 11.8915 3.16114 11.5939 3.16114H10.4027C10.108 3.16114 9.83236 3.2682 9.62416 3.46108C9.41692 3.65484 9.30379 3.91231 9.3057 4.18659C9.28573 5.48012 8.1497 6.5215 6.7741 6.5215C6.333 6.51708 5.90806 6.40648 5.5392 6.20121C5.0211 5.92693 4.34423 6.09592 4.04097 6.58697L3.39738 7.57172C3.10268 8.04773 3.2833 8.6768 3.80806 8.96081C4.58665 9.38019 5.07243 10.1623 5.07243 11.0011C5.07243 11.8399 4.58665 12.6211 3.80616 13.0414C3.28425 13.3227 3.10363 13.9483 3.40594 14.4349L4.0058 15.3975C4.1541 15.6461 4.39652 15.8257 4.67696 15.8992C4.95645 15.9717 5.26447 15.9408 5.52114 15.8081C5.89855 15.6019 6.33775 15.4948 6.77886 15.4948ZM11.5939 20.1673H10.4027C9.00624 20.1673 7.87021 19.1109 7.87021 17.8112C7.86831 17.651 7.81887 17.4847 7.72666 17.3405C7.57741 17.098 7.33594 16.9246 7.0574 16.8556C6.78076 16.7866 6.4775 16.8247 6.22843 16.9591C5.63142 17.2688 4.92888 17.344 4.28624 17.1759C3.64455 17.0069 3.09032 16.5964 2.7652 16.0522L2.17104 15.0994C1.47611 13.9775 1.88964 12.5397 3.09317 11.8921C3.43446 11.7089 3.64645 11.3674 3.64645 11.0011C3.64645 10.6348 3.43446 10.2924 3.09317 10.1092C1.88869 9.45805 1.47611 8.01676 2.17009 6.89487L2.81463 5.91012C3.50005 4.80062 5.04962 4.40955 6.2579 5.05543C6.42236 5.14657 6.60109 5.19257 6.78266 5.19434C7.37492 5.19434 7.87021 4.73957 7.87971 4.1804C7.87591 3.56371 8.13734 2.9718 8.61362 2.52499C9.0918 2.07907 9.72683 1.83398 10.4027 1.83398H11.5939C12.2746 1.83398 12.9362 2.09411 13.4106 2.54622C13.884 3.001 14.1455 3.62476 14.1255 4.25737C14.1274 4.39982 14.1778 4.56439 14.2691 4.7086C14.4202 4.94749 14.6588 5.1156 14.9421 5.18461C15.2254 5.25008 15.522 5.21469 15.7739 5.07578C16.9908 4.42902 18.5394 4.81655 19.2343 5.94021L19.8266 6.89487C19.8418 6.92053 19.8551 6.9453 19.8665 6.97096C20.4958 8.07781 20.0757 9.47132 18.9063 10.1075C18.7362 10.1986 18.5983 10.326 18.5033 10.48C18.3559 10.718 18.315 11.0011 18.3892 11.2612C18.4652 11.5266 18.6468 11.747 18.9025 11.8832C19.4796 12.192 19.9102 12.7122 20.0823 13.313C20.2544 13.9129 20.1603 14.5641 19.8247 15.1011L19.1934 16.0797C18.4985 17.1909 16.9499 17.5758 15.7454 16.9282C15.5848 16.8423 15.3994 16.7955 15.215 16.791H15.2093C14.9345 16.791 14.6522 16.8999 14.4468 17.0901C14.2386 17.2839 14.1246 17.5422 14.1265 17.8165C14.1198 19.1162 12.9838 20.1673 11.5939 20.1673Z" fill="currentColor"/>
<path fill-rule="evenodd" clip-rule="evenodd" d="M11.0025 9.33163C10.0138 9.33163 9.20959 10.081 9.20959 11.0012C9.20959 11.9214 10.0138 12.669 11.0025 12.669C11.9912 12.669 12.7955 11.9214 12.7955 11.0012C12.7955 10.081 11.9912 9.33163 11.0025 9.33163ZM11.0025 13.9961C9.22765 13.9961 7.78361 12.6531 7.78361 11.0012C7.78361 9.34933 9.22765 8.00447 11.0025 8.00447C12.7774 8.00447 14.2214 9.34933 14.2214 11.0012C14.2214 12.6531 12.7774 13.9961 11.0025 13.9961Z" fill="currentColor"/>
</svg>
