<svg xmlns="http://www.w3.org/2000/svg" xmlns:xlink="http://www.w3.org/1999/xlink" viewBox="0 0 20 20"><defs><path id="A" d="M4 2a1 1 0 0 1 .993.883L5 3v11.586l1.293-1.293a.999.999 0 0 1 1.497 1.32l-.083.094-3 3a.997.997 0 0 1-1.312.09l-.102-.1-3-3a.999.999 0 0 1 1.32-1.497l.094.083L3 14.586V3a1 1 0 0 1 1-1zm11.4 12c.332 0 .6.447.6 1s-.268 1-.6 1h-4.8c-.332 0-.6-.447-.6-1s.268-1 .6-1zm-4.6-5h6.4c.442 0 .8.447.8 1 0 .514-.308.936-.707.993L17.2 11h-6.4c-.442 0-.8-.447-.8-1 0-.514.308-.936.707-.993L10.8 9h6.4zM19 4a1 1 0 0 1 .117 1.993L19 6h-8a1 1 0 0 1-.117-1.993L11 4h8z"/></defs><use fill-rule="evenodd" xlink:href="#A"/></svg>