<svg xmlns="http://www.w3.org/2000/svg" viewBox="0 0 32 31">
  <path d="M31.9831025,16.0121315 C31.941942,13.856619 31.4742592,11.7079149 30.6105687,9.74316441 C29.7497253,7.77668085 28.5003017,5.99532689 26.9664062,4.52332689 C25.4334391,3.05021277 23.6154429,1.88564797 21.6477834,1.11740039 C19.681176,0.346181818 17.5665764,-0.0222205029 15.4776015,0.0224680851 C13.3883172,0.0638143133 11.3083172,0.518065764 9.40620503,1.35563636 C7.50266925,2.19048356 5.77819729,3.4017795 4.35354739,4.88807737 C2.92790716,6.3736325 1.80165571,8.13462282 1.05934236,10.0395822 C0.314243714,11.9434894 -0.0408510638,13.9891992 0.00371373308,16.0121315 C0.0451837524,18.0353733 0.486065764,20.0466074 1.29751644,21.8859574 C2.10630561,23.7266074 3.2793501,25.3942592 4.71823598,26.7714352 C6.15631721,28.1497253 7.86042553,29.2377253 9.70256093,29.9539188 C11.5438917,30.6728975 13.5208975,31.0145609 15.4776015,30.9701818 C17.4347389,30.9286499 19.3770832,30.5010135 21.1538569,29.7156828 C22.9317447,28.9329516 24.5424526,27.7982205 25.8722166,26.4066847 C27.2031567,25.0159536 28.2527814,23.3688511 28.9429168,21.5895397 C29.3631876,20.5108859 29.6482785,19.3845725 29.7985609,18.2433424 C29.8387311,18.2456325 29.8791489,18.2472418 29.9198762,18.2472418 C31.0593114,18.2472418 31.9830406,17.3235745 31.9830406,16.1840774 C31.9830406,16.1261431 31.9800077,16.0688897 31.9753656,16.0121934 L31.9831025,16.0121315 L31.9831025,16.0121315 Z M28.7048046,21.4907544 C27.9480696,23.2058801 26.8516518,24.7595822 25.5075899,26.042058 C24.1642708,27.3252766 22.5739884,28.3368975 20.8575629,29.0010986 C19.1415706,29.6677137 17.3020967,29.9827002 15.4776634,29.9385687 C13.6529207,29.8966654 11.8478607,29.4957679 10.1965493,28.7627389 C8.54443327,28.032 7.04748936,26.9738956 5.81248743,25.6773075 C4.57655706,24.3813385 3.60337331,22.848 2.96523017,21.1943985 C2.32467311,19.5410445 2.0229942,17.7702747 2.06700193,16.0120077 C2.10896712,14.2533694 2.49661896,12.5170754 3.20346615,10.9284642 C3.90808511,9.33917215 4.9280619,7.89911025 6.17723791,6.71152031 C7.42579497,5.52300193 8.90225145,4.58806963 10.4929671,3.97604642 C12.0834971,3.36154739 13.785501,3.07317602 15.4776634,3.11712186 C17.1700735,3.15921083 18.8377253,3.53355513 20.3636364,4.2142824 C21.8901044,4.89284333 23.2732224,5.87456867 24.4134004,7.07639458 C25.5545068,8.27747776 26.4511257,9.69711412 27.0372147,11.2249439 C27.62547,12.7527737 27.9005338,14.3860735 27.8567737,16.0120696 L27.8645106,16.0120696 C27.8598066,16.068766 27.8567737,16.1260193 27.8567737,16.1839536 C27.8567737,17.2481238 28.66253,18.1237602 29.6970522,18.2349865 C29.4963868,19.357648 29.1641934,20.4535706 28.7048046,21.4907544 Z"/>
</svg>
