<svg xmlns="http://www.w3.org/2000/svg" viewBox="0 0 15 15">
  <path d="M10.7932125,11.2637487 C11.2607229,11.2637487 11.6452474,11.6190537 11.6914868,12.0743647 L11.6961485,12.1666847 L11.6961485,14.0676026 C11.6961485,14.3038184 11.5046578,14.4953091 11.268442,14.4953091 C11.0558478,14.4953091 10.8794809,14.3402016 10.8463334,14.1369788 L10.8407355,14.0676026 L10.8407355,12.1666847 C10.8407355,12.147 10.8287673,12.1301107 10.8117106,12.1228963 L10.7932125,12.1191617 L7.94183567,12.1191617 C7.92215102,12.1191617 7.90526169,12.1311299 7.89804731,12.1481866 L7.89431272,12.1666847 L7.89431272,14.0676026 C7.89431272,14.3038184 7.70282199,14.4953091 7.4666062,14.4953091 C7.25401198,14.4953091 7.07764506,14.3402016 7.04449762,14.1369788 L7.03889967,14.0676026 L7.03889967,12.1666847 C7.03889967,11.6991742 7.39420474,11.3146498 7.84951571,11.2684104 L7.94183567,11.2637487 L10.7932125,11.2637487 Z M1.841,1.59163935 L1.84193353,2.05659944 L1.8460228,2.15936739 L1.85886139,2.26480471 C1.87734253,2.37740694 1.91056436,2.48556246 1.95658848,2.58775477 L1.16460342,2.58733478 C1.09990323,2.58733478 1.03520304,2.6536767 1.03520304,2.72001862 L1.03520304,12.8039901 C1.03520304,12.870332 1.09990323,12.9366739 1.16460342,12.9366739 L6,12.937 L6,13.998 L1.16460342,13.9981446 C0.517601519,13.9981446 -6.28208596e-12,13.4674092 -6.28208596e-12,12.8039901 L-6.28208596e-12,2.78636053 C-6.28208596e-12,2.12294136 0.517601519,1.59220602 1.16460342,1.59220602 L1.841,1.59163935 Z M13.7758459,10.7885192 C14.2125991,10.7885192 14.5718259,11.1204489 14.6150232,11.5458052 L14.6193783,11.6320515 L14.6193783,13.1171436 C14.6193783,13.3533594 14.4278875,13.5448502 14.1916717,13.5448502 C13.9790775,13.5448502 13.8027106,13.3897427 13.7695632,13.1865198 L13.7639652,13.1171436 L13.763872,11.6436946 L12.1000936,11.6439322 C11.8874994,11.6439322 11.7111325,11.4888248 11.677985,11.2856019 L11.6723871,11.2162257 C11.6723871,11.0036315 11.8274946,10.8272646 12.0307174,10.7941171 L12.1000936,10.7885192 L13.7758459,10.7885192 Z M9.3675241,8.41237181 C10.1286639,8.41237181 10.7456896,9.02939752 10.7456896,9.79053729 C10.7456896,10.5516771 10.1286639,11.1687028 9.3675241,11.1687028 C8.60638432,11.1687028 7.98935862,10.5516771 7.98935862,9.79053729 C7.98935862,9.02939752 8.60638432,8.41237181 9.3675241,8.41237181 Z M12.5283686,8.41237181 C13.1582774,8.41237181 13.6689193,8.92301377 13.6689193,9.55292255 C13.6689193,10.1828313 13.1582774,10.6934733 12.5283686,10.6934733 C11.8984598,10.6934733 11.3878178,10.1828313 11.3878178,9.55292255 C11.3878178,8.92301377 11.8984598,8.41237181 12.5283686,8.41237181 Z M9.3675241,9.26778487 C9.07881591,9.26778487 8.84477168,9.5018291 8.84477168,9.79053729 C8.84477168,10.0792455 9.07881591,10.3132897 9.3675241,10.3132897 C9.65623229,10.3132897 9.89027652,10.0792455 9.89027652,9.79053729 C9.89027652,9.5018291 9.65623229,9.26778487 9.3675241,9.26778487 Z M7.14109254,8.82909837 C7.08521984,9.04451501 7.05534235,9.27165555 7.05534235,9.50632911 C7.05534235,9.63718575 7.06463217,9.76570013 7.08255498,9.89109418 L3.19020024,9.89047419 C3.00367717,9.89047419 2.8171541,9.69144844 2.8171541,9.35973885 C2.8171541,9.02802927 2.9570464,8.82900352 3.19020024,8.82900352 L7.14109254,8.82909837 Z M12.5283686,9.26778487 C12.3708914,9.26778487 12.2432309,9.39544536 12.2432309,9.55292255 C12.2432309,9.71039975 12.3708914,9.83806024 12.5283686,9.83806024 C12.6858458,9.83806024 12.8135063,9.71039975 12.8135063,9.55292255 C12.8135063,9.39544536 12.6858458,9.26778487 12.5283686,9.26778487 Z M9.157,1.65763935 L9.83442885,1.65854794 C10.4814308,1.65854794 10.9990323,2.18928328 10.9990323,2.85270245 L11.0015883,7.71567411 C10.716839,7.41460294 10.3605777,7.19204494 9.962863,7.08044833 L9.96382923,2.78636053 C9.96382923,2.72001862 9.89912904,2.6536767 9.83442885,2.6536767 L9.01018013,2.65441517 C9.08070214,2.51836431 9.12808286,2.37053764 9.14736559,2.21481305 L9.15709874,2.05659944 L9.157,1.65763935 Z M7.62012314,5.77727531 C7.80664621,5.77727531 7.99316928,5.97630106 7.99316928,6.30801065 C7.99316928,6.63972024 7.80664621,6.83874599 7.62012314,6.83874599 L3.19020024,6.83874599 C3.00367717,6.83874599 2.8171541,6.63972024 2.8171541,6.30801065 C2.8171541,5.97630106 2.9570464,5.77727531 3.19020024,5.77727531 L7.62012314,5.77727531 Z M7.55913884,2.31015207e-12 C8.20614074,2.31015207e-12 8.72374226,0.464393422 8.72374226,0.995128762 L8.72374226,2.05659944 C8.72374226,2.58733478 8.20614074,3.0517282 7.55913884,3.0517282 L6.52393581,3.0517282 C6.32983524,3.38343779 5.9416341,3.58246354 5.48873277,3.58246354 C5.03583144,3.58246354 4.6476303,3.38343779 4.38882954,3.0517282 L3.4183267,3.0517282 C2.7713248,3.0517282 2.25372328,2.58733478 2.25372328,2.05659944 L2.25372328,0.995128762 C2.25372328,0.464393422 2.7713248,2.31015207e-12 3.4183267,2.31015207e-12 L7.55913884,2.31015207e-12 Z M7.55913884,0.995128762 L3.4183267,0.995128762 C3.35362651,0.995128762 3.28892632,0.995128762 3.28892632,1.06147068 L3.28892632,1.99025752 C3.28892632,1.99025752 3.35362651,2.05659944 3.4183267,2.05659944 L4.45352973,2.05659944 C4.77703068,2.05659944 5.03583144,2.25562519 5.22993201,2.52099286 C5.22993201,2.52099286 5.35933239,2.58733478 5.48873277,2.58733478 C5.61813315,2.58733478 5.74753353,2.52099286 5.74753353,2.52099286 C5.9416341,2.18928328 6.20043486,2.05659944 6.52393581,2.05659944 L7.55913884,2.05659944 C7.62383903,2.05659944 7.68853922,2.05659944 7.68853922,1.99025752 L7.68853922,1.06147068 C7.68853922,1.06147068 7.62383903,0.995128762 7.55913884,0.995128762 Z"/>
</svg>
