<svg xmlns="http://www.w3.org/2000/svg" xmlns:xlink="http://www.w3.org/1999/xlink" viewBox="0 0 24 21" id="fy-team-trips">
  <defs>
    <path id="team-trips-a" d="M4.19400073,13.19977 C5.22385184,13.19977 6.05565467,13.971184 6.05565467,14.9262679 C6.05565467,15.4864614 5.77838706,15.9823704 5.33277841,16.2946094 C6.21409331,16.4874629 6.90726233,17.1670418 7.01618889,18.0302908 L7.01618889,18.0302908 L7.19443235,19.3159807 C7.24394442,19.7292382 6.94687198,20.1057617 6.52106816,20.1884132 C5.77838706,20.3261657 4.99609631,20.3996337 4.20390314,20.3996337 C3.41170998,20.3996337 2.62941922,20.3261657 1.88673813,20.1884132 C1.4609343,20.1057617 1.16386187,19.7200547 1.20347153,19.3159807 L1.20347153,19.3159807 L1.37181257,18.0302908 C1.48073913,17.1670418 2.17390815,16.4782794 3.05522306,16.2946094 C2.61951682,15.9731869 2.33234679,15.4772779 2.33234679,14.9262679 C2.33234679,13.971184 3.16414961,13.19977 4.19400073,13.19977 Z M14.2792053,-9.99999986e-05 C19.6383038,-9.99999986e-05 24.0002212,4.34261776 24.0002212,9.6789167 C24.0002212,15.0140157 19.6383038,19.3567334 14.2792053,19.3567334 C13.3851245,19.3567334 12.5198543,19.2341868 11.6981614,19.0060296 L11.6788546,16.9651787 C11.2048636,16.2919915 10.7284726,15.4592072 10.3324801,14.4740259 L10.5880752,14.0672336 L10.7284726,13.8464378 C10.9924676,13.8464378 11.2588625,13.8440378 11.5228575,13.8416379 C11.7340535,13.8392379 11.9416496,13.8164383 12.1480457,13.7948388 C12.7948334,15.3944085 13.6948164,16.4899877 14.2792053,17.0851764 C15.193588,16.1623939 16.8771561,14.0276343 17.1567508,10.6460984 L16.5831617,10.6460984 C16.7595584,10.0053105 16.7487586,9.34772297 16.5183629,8.71053504 L17.1567508,8.71053504 C16.8771561,5.33019906 15.193588,3.19543948 14.2792053,2.27145698 C13.664817,2.89304521 12.710835,4.07502283 12.0616473,5.80059015 C11.975249,5.79339028 11.8888506,5.77899056 11.8012523,5.77539062 C11.4724585,5.7609909 11.1436647,5.75979092 10.813671,5.75979092 L10.757272,5.75979092 L10.284481,4.99420542 C10.6876734,3.95862503 11.1856639,3.09104146 11.6788546,2.39025473 C10.8604701,2.68184921 10.1176841,3.11624098 9.45289674,3.64423098 L8.42331624,1.97386262 C10.0540854,0.741485956 12.079647,-9.99999986e-05 14.2792053,-9.99999986e-05 Z M7.78325931,11.9997927 C8.81943465,11.9997927 9.65634551,12.7731796 9.65634551,13.7307063 C9.65634551,14.2923324 9.37737522,14.7803028 8.92903012,15.1025473 C9.8157571,15.295894 10.5131828,15.977211 10.6227783,16.8426678 L10.6227783,16.8426678 L10.7921531,18.1316459 C10.8519324,18.5367533 10.5530357,18.9234468 10.1046906,18.9971027 C9.46704424,19.1167935 8.7995082,19.1812424 8.11204572,19.1996564 L8.11204572,19.1996564 L7.9825238,18.1684739 C7.88289155,17.38588 7.42458323,16.695356 6.75704718,16.2442136 C6.93638523,15.9127621 7.02605425,15.5444826 7.02605425,15.1577892 C7.02605425,14.3659883 6.61756204,13.6570504 5.99984213,13.205908 C6.23895952,12.506177 6.94634846,11.9997927 7.78325931,11.9997927 Z M21.9890593,10.6460984 L19.100714,10.6460984 C18.9027178,13.4480453 17.8791372,15.5480056 16.883156,16.9651787 C19.5975046,16.001597 21.6194663,13.5800428 21.9890593,10.6460984 Z M6.64758986,2.7669276 C6.78918718,2.7669276 6.89478518,2.81612667 6.96318389,2.93732437 C6.98718343,2.98172353 7.01478291,3.02252276 7.04238239,3.06452196 C7.7071698,4.10010235 8.37315719,5.13688272 9.0379446,6.17366308 C9.45193676,6.81805088 9.86712889,7.46243868 10.2787211,8.10802645 C10.3015207,8.14162581 10.3255202,8.15602554 10.3711193,8.15602554 C10.5031168,8.15362559 10.6375143,8.15362559 10.7707118,8.15362559 L11.0911057,8.15362559 C11.1619044,8.15602554 11.233903,8.15602554 11.3047017,8.15602554 C11.4858982,8.15602554 11.6646949,8.15362559 11.8458914,8.15362559 C12.1458857,8.15362559 12.4458801,8.15602554 12.7458744,8.16802531 C13.3530629,8.19082488 13.927852,8.35402179 14.4582419,8.64321631 C14.5722398,8.70561513 14.6766378,8.7812137 14.7882357,8.85081238 C14.8470346,8.90841129 14.9082334,8.96721018 14.9694323,9.02360911 C14.9802321,9.04280875 14.9922318,9.05960843 15.0042316,9.07640811 C15.2430271,9.40400191 15.2670266,9.64159741 15.08703,9.95959139 C15.0558306,10.0183903 15.0150314,10.0699893 14.9778321,10.1263882 C14.9142333,10.1863871 14.8506345,10.2475859 14.7882357,10.3075848 C14.6958374,10.3675837 14.6070391,10.4335824 14.5122409,10.4875814 C13.9014525,10.8319749 13.2378651,10.9951718 12.5310784,11.0035716 C12.2334841,11.0059716 11.9358897,11.0071715 11.6370954,11.0071715 C11.2147034,11.0071715 10.7947113,11.0059716 10.3723193,11.0047716 C10.3207203,11.0047716 10.2883209,11.0167714 10.2583215,11.0623705 L6.22279791,11.0071715 C6.19999834,11.0059716 6.18319866,11.0047716 6.16759895,11.0047716 C5.05522002,11.0047716 3.94284109,11.0047716 2.82926218,11.0035716 C2.78366304,11.0035716 2.7644634,11.0215713 2.74406379,11.0575706 C2.4476694,11.5531612 2.15127502,12.0487518 1.85848056,12.5443424 C1.78648192,12.6679401 1.68568383,12.725539 1.54048658,12.725539 L1.27634158,12.724489 L1.27634158,12.724489 L1.01489654,12.724339 C0.807300467,12.724339 0.599704398,12.724339 0.39210833,12.725539 L0.382508512,12.725539 C0.292510216,12.725539 0.206111852,12.7183391 0.125713375,12.67514 C0.100513852,12.6499404 0.0753143292,12.6259409 0.0489148292,12.6019413 C0.00571564729,12.513143 -0.00628412546,12.4219448 0.00691562456,12.3223466 C0.144913011,11.4247636 0.278110489,10.5247807 0.411307966,9.62479773 C0.414907898,9.59599827 0.416107875,9.56599884 0.411307966,9.53719938 C0.279310466,8.64561627 0.147312966,7.75523313 0.0129155109,6.86484999 C-0.00268419364,6.76165195 -0.0134839891,6.66205383 0.0405149883,6.56605565 C0.0693144429,6.53965615 0.0981138975,6.51205667 0.125713375,6.48325722 C0.188112193,6.47125745 0.250511011,6.44485795 0.31290983,6.44485795 C0.728101967,6.43885806 1.14209413,6.43885806 1.5608862,6.43405815 C1.68808379,6.43405815 1.78048204,6.49045708 1.84288086,6.59485511 C2.14407515,7.09524563 2.44286949,7.59443618 2.74166383,8.09722665 C2.76806333,8.14162581 2.79446283,8.15602554 2.84606186,8.15602554 C3.947641,8.15362559 5.04922013,8.15362559 6.15079927,8.15362559 C6.17239886,8.15362559 6.19519843,8.15242561 6.22159793,8.15242561 C6.21439807,8.12842606 6.21079814,8.11162638 6.20479825,8.09362672 C5.79440602,6.74245231 5.38401379,5.39367785 4.97242159,4.04250344 L4.70482666,3.16052014 L4.70482666,3.16052014 C4.64002788,2.94212428 4.77682529,2.76932755 5.01442079,2.76812758 L5.92280359,2.76812758 C6.16279905,2.76812758 6.4027945,2.76812758 6.64758986,2.7669276 Z M16.8795561,2.38905475 C17.8731373,3.80142801 18.8823182,5.91098806 19.0827144,8.71053504 L21.9890593,8.71053504 C21.6182664,5.77539062 19.5963046,3.35383648 16.8795561,2.38905475 Z"/>
  </defs>
  <use fill-rule="evenodd" xlink:href="#team-trips-a"/>
</svg>
