<svg xmlns="http://www.w3.org/2000/svg" viewBox="0 0 18 24">
  <path d="M2.49792261,22.1473616 C2.49792261,22.1473616 2.86353247,23.76 4.74543127,23.76 L13.2545687,23.76 C15.1363761,23.76 15.501986,22.1473616 15.501986,22.1473616 L17.1818348,6.3360354 L0.818165195,6.3360354 L2.49792261,22.1473616 Z M12.2727522,8.7120708 C12.2727522,8.27461762 12.639002,7.9200885 13.0909174,7.9200885 C13.5428328,7.9200885 13.909174,8.27461762 13.909174,8.7120708 L13.0909174,20.5920708 C13.0909174,21.029524 12.7245761,21.3840531 12.2727522,21.3840531 C11.8209283,21.3840531 11.454587,21.0294355 11.454587,20.5920708 L12.2727522,8.7120708 Z M8.1818348,8.7120708 C8.1818348,8.27461762 8.54817606,7.9200885 9,7.9200885 C9.45191536,7.9200885 9.8181652,8.27461762 9.8181652,8.7120708 L9.8181652,20.5920708 C9.8181652,21.029524 9.45191536,21.3840531 9,21.3840531 C8.54808464,21.3840531 8.1818348,21.0294355 8.1818348,20.5920708 L8.1818348,8.7120708 Z M4.9090826,7.92 C5.36099796,7.92 5.72724779,8.27452912 5.72724779,8.7119823 L6.54550441,20.5919823 C6.54550441,21.0294355 6.17916315,21.3839646 5.72724779,21.3839646 C5.27542386,21.3839646 4.9090826,21.029347 4.9090826,20.5919823 L4.0909174,8.7120708 C4.0909174,8.27461762 4.45725866,7.92 4.9090826,7.92 Z M16.6908808,3.16925669 L13.0909174,3.16925669 L13.0909174,1.5840531 C13.0909174,0.382494972 12.6894688,0 11.454587,0 L6.54541299,0 C5.41274469,0 4.9090826,0.531085684 4.9090826,1.5840531 L4.9090826,3.16934519 L1.30911917,3.16934519 C0.585579179,3.16934519 0,3.70096187 0,4.35789389 C0,5.01491441 0.585579179,5.54653109 1.30911917,5.54653109 L16.6908808,5.54653109 C17.4144208,5.54653109 18,5.01491441 18,4.35789389 C18,3.70096187 17.4144208,3.16925669 16.6908808,3.16925669 Z M11.454587,3.16925669 L6.54550441,3.16925669 L6.54559584,1.5839646 L11.4546784,1.5839646 L11.4546784,3.16925669 L11.454587,3.16925669 Z"/>
</svg>
