<svg xmlns="http://www.w3.org/2000/svg" viewBox="0 0 17 12">
  <path d="M11.7543129,7.85137686 C12.2218233,7.85137686 12.6063478,8.20668193 12.6525871,8.6619929 L12.6572489,8.75431286 L12.6572489,10.6552308 C12.6572489,10.8914466 12.4657581,11.0829373 12.2295423,11.0829373 C12.0169481,11.0829373 11.8405812,10.9278298 11.8074338,10.724607 L11.8018358,10.6552308 L11.8018358,8.75431286 C11.8018358,8.73462821 11.7898676,8.71773888 11.7728109,8.7105245 L11.7543129,8.70678991 L8.902936,8.70678991 C8.88325135,8.70678991 8.86636202,8.71875808 8.85914765,8.73581478 L8.85541306,8.75431286 L8.85541306,10.6552308 C8.85541306,10.8914466 8.66392232,11.0829373 8.42770653,11.0829373 C8.21511231,11.0829373 8.0387454,10.9278298 8.00559796,10.724607 L8,10.6552308 L8,8.75431286 C8,8.28680244 8.35530508,7.90227796 8.81061604,7.85603861 L8.902936,7.85137686 L11.7543129,7.85137686 Z M12.8263644,3.70366259e-05 L12.962357,0.00750842499 L15.0977107,0.260166175 C15.6955794,0.330906763 16.1394654,0.875913162 16.0891577,1.47747204 C16.0673918,1.73773923 15.953922,1.97692937 15.7715644,2.15327872 L15.6747505,2.23602332 L13.327,4.004 L13.198066,4 C12.6213383,4 12.1061778,4.28104384 11.7664438,4.72156023 L11.678224,4.84556358 C11.560419,4.68701271 11.4228026,4.54595723 11.2693617,4.42664795 L15.1322575,1.51611074 C15.1771623,1.48227258 15.2054087,1.43056896 15.2101837,1.37347073 C15.2180671,1.27920511 15.161416,1.19232441 15.0772527,1.1582846 L15.0237494,1.14456527 L12.8883957,0.891907521 C12.8542072,0.887862294 12.8201346,0.892572252 12.7892004,0.905229917 L12.7455305,0.930076258 L9.56284803,3.33159108 C9.38957116,3.46233833 9.18019142,3.53497162 8.96278662,3.54158217 L8.83160535,3.53756251 L5.88423139,3.26745625 C5.83251247,3.26271657 5.78228951,3.27795758 5.74312508,3.3089674 L5.70800099,3.3450775 L5.35862973,3.81183373 L5.33784919,3.84651066 C5.29821377,3.93120751 5.32242653,4.03148171 5.39080365,4.0923043 L5.43697218,4.12362342 L5.60460099,4.20785667 C5.74159732,4.27669714 5.86358288,4.37352998 5.96255791,4.49200494 C6.32268621,4.92308523 6.30686873,5.54145097 5.94466982,5.92893026 L5.85495013,6.01405965 L2.99550637,8.42026553 L1.23661187,7.62887833 C1.17943094,7.60315067 1.11581119,7.60498229 1.06295226,7.63149166 L1.0143173,7.66612023 L0.889109794,7.78842041 L0.882213218,7.80777948 L0.886108068,7.82396639 L0.886108068,7.82396639 L0.897755199,7.83668929 L3.92618562,9.79191473 C3.9805829,9.82703489 4.04603388,9.8344828 4.10358078,9.81474551 L4.15779086,9.78596452 L8.03591156,6.86216856 C8.06100335,6.95205218 8.09130719,7.03949323 8.12646202,7.12406927 C7.50336721,7.33937327 7.06210913,7.91888733 7.00604403,8.60982277 L7,8.75949367 L7,8.772 L4.70028389,10.5058771 C4.38011547,10.7471413 3.95102716,10.781469 3.58722948,10.6043844 L3.46862073,10.5375199 L0.440190313,8.58229451 C0.00845297125,8.30355479 -0.129180829,7.73155198 0.132776617,7.30469047 L0.195390194,7.21553079 L0.195390194,7.21553079 L0.268410901,7.13496557 L0.3910396,7.01551065 C0.670384487,6.74339554 1.07603808,6.65290324 1.44994579,6.77051325 L1.57318912,6.8174604 L2.82877095,7.38256052 L5.27707479,5.32233207 C5.33138534,5.27663005 5.35246592,5.20552531 5.33820823,5.13883862 L5.3208561,5.09011793 L5.29613045,5.05279991 L5.26696102,5.02434473 L5.26696102,5.02434473 L5.23274186,5.00248168 L5.06511305,4.91824843 C4.52105241,4.64485872 4.28504816,3.9850744 4.53798279,3.4445789 L4.58857715,3.34943077 L4.58857715,3.34943077 L4.64849248,3.26016902 L4.99786374,2.79341279 C5.18851818,2.53870051 5.48228992,2.38796556 5.798426,2.37677584 L5.93504671,2.38062753 L8.88242067,2.65073379 C8.91543972,2.65375975 8.94816879,2.6486497 8.97790461,2.63616507 L9.0199255,2.61200237 L12.2026079,0.210487543 C12.3464071,0.101982912 12.514932,0.0335966606 12.6921098,0.00962291001 L12.8263644,3.70366259e-05 Z M14.7369463,7.37614738 C15.1736994,7.37614738 15.5329263,7.70807712 15.5761235,8.13343342 L15.5804786,8.2196797 L15.5804786,9.70477181 C15.5804786,9.9409876 15.3889879,10.1324783 15.1527721,10.1324783 C14.9401779,10.1324783 14.7638109,9.97737084 14.7306635,9.77414803 L14.7250655,9.70477181 L14.7249723,8.23132282 L13.0611939,8.23156044 C12.8485997,8.23156044 12.6722328,8.07645294 12.6390853,7.87323013 L12.6334874,7.80385391 C12.6334874,7.59125969 12.7885949,7.41489278 12.9918177,7.38174534 L13.0611939,7.37614738 L14.7369463,7.37614738 Z M10.3286244,5 C11.0897642,5 11.7067899,5.6170257 11.7067899,6.37816548 C11.7067899,7.13930526 11.0897642,7.75633096 10.3286244,7.75633096 C9.56748465,7.75633096 8.95045895,7.13930526 8.95045895,6.37816548 C8.95045895,5.6170257 9.56748465,5 10.3286244,5 Z M13.4894689,5 C14.1193777,5 14.6300196,5.51064196 14.6300196,6.14055074 C14.6300196,6.77045952 14.1193777,7.28110148 13.4894689,7.28110148 C12.8595601,7.28110148 12.3489182,6.77045952 12.3489182,6.14055074 C12.3489182,5.51064196 12.8595601,5 13.4894689,5 Z M10.3286244,5.85541306 C10.0399162,5.85541306 9.80587201,6.08945729 9.80587201,6.37816548 C9.80587201,6.66687367 10.0399162,6.9009179 10.3286244,6.9009179 C10.6173326,6.9009179 10.8513769,6.66687367 10.8513769,6.37816548 C10.8513769,6.08945729 10.6173326,5.85541306 10.3286244,5.85541306 Z M13.4894689,5.85541306 C13.3319917,5.85541306 13.2043312,5.98307355 13.2043312,6.14055074 C13.2043312,6.29802794 13.3319917,6.42568843 13.4894689,6.42568843 C13.6469461,6.42568843 13.7746066,6.29802794 13.7746066,6.14055074 C13.7746066,5.98307355 13.6469461,5.85541306 13.4894689,5.85541306 Z"/>
</svg>
