<svg xmlns="http://www.w3.org/2000/svg" viewBox="0 0 19 13">
  <path d="M7.83102775,2.05491024 L7.39330843,2.17765146 C7.30595417,2.20214653 7.22126819,2.2353152 7.14051435,2.27666243 C6.47149662,2.61921003 6.20684029,3.43924575 6.54938789,4.10826348 L6.6033949,4.21374267 C6.60849722,4.22370784 6.61143537,4.23463903 6.61201667,4.24581938 L6.60738831,4.27702026 C6.59682644,4.30611722 6.56967364,4.32756011 6.53681625,4.32926846 L3.12768274,4.50614372 L2.50401872,3.40758939 C2.20912699,2.88882024 1.63119381,2.59828748 1.03892265,2.67107099 L0.974717479,2.67896109 C0.886217454,2.68983676 0.799350641,2.71133853 0.715995962,2.74300131 C0.143026835,2.96064716 -0.145019597,3.60156723 0.0726262506,4.17453636 L1.38254529,7.62299714 C1.60049194,8.19675815 2.15037655,8.57610105 2.76413745,8.57610105 L17.2249741,8.57610105 C17.629926,8.57610105 18.0164963,8.40706346 18.2914447,8.10975997 C18.836152,7.5207645 18.8002494,6.60171681 18.2112539,6.05700951 L16.865025,4.81200717 C16.5916764,4.55921244 16.2329849,4.41890456 15.8606618,4.41913452 L11.6520603,4.42173394 C11.5845685,4.42177563 11.5193679,4.39725521 11.4686293,4.35274983 L9.20462115,2.36687628 C8.82894398,2.03735124 8.31218879,1.91998749 7.83102775,2.05491024 Z M8.15502377,3.21034374 C8.24550258,3.18497251 8.34267461,3.2070419 8.41331795,3.26900667 L10.6773261,5.25488022 C10.9471513,5.49155724 11.2938842,5.6219554 11.6528015,5.62173371 L15.861403,5.61913429 C15.9314156,5.61909105 15.9988649,5.64547492 16.0502661,5.69301112 L17.396495,6.93801345 C17.4989254,7.03274186 17.5051692,7.19257066 17.4104408,7.29500108 C17.3626253,7.34670423 17.295398,7.37610105 17.2249741,7.37610105 L2.76413745,7.37610105 L2.69673414,7.36781932 C2.60986023,7.34610563 2.53712577,7.28319008 2.50433916,7.19687683 L1.23668274,3.86114372 L1.18528822,3.86211135 C1.29666048,3.84842494 1.40533658,3.9030575 1.46078881,4.00060824 L2.45141416,5.74330156 L6.59912366,5.52764978 C7.30478124,5.49096054 7.84708723,4.88916954 7.81039799,4.18351197 C7.80103483,4.00342689 7.75370919,3.82735514 7.67152467,3.66684343 L7.61751767,3.56136424 C7.57701418,3.48225829 7.60830765,3.38529569 7.68741359,3.34479221 L7.71730445,3.33308496 L8.15502377,3.21034374 Z" transform="rotate(-37 9.339 5.288)"/>
</svg>