<svg xmlns="http://www.w3.org/2000/svg" xmlns:xlink="http://www.w3.org/1999/xlink" viewBox="0 0 24 21" id="fy-team-wallet">
  <defs>
    <path id="team-wallet-a" d="M20.5583852,16.330166 C20.5583852,15.7520853 21.1176835,15.416089 21.5799393,15.6091303 C21.6613298,15.6425213 21.7406333,15.6884338 21.8126325,15.7573026 L21.8126325,15.7573026 L23.6293084,17.5103271 L23.7597417,17.6365866 C24.0800861,17.9454528 24.0800861,18.4724036 23.7597417,18.7812698 L23.7597417,18.7812698 L23.6293084,18.9075293 L23.2713992,19.2529168 L21.8126325,20.6605537 C21.3347246,21.1217661 20.5583852,20.7680308 20.5583852,20.0887338 L20.5583852,20.0887338 Z M15.0592102,16.330166 C15.0592102,15.6498255 15.8345061,15.2960903 16.3134575,15.7573026 L16.3134575,15.7573026 L17.7179639,17.1138096 L18.2605667,17.6365866 C18.5809111,17.9454528 18.5809111,18.4724036 18.2605667,18.7812698 L18.2605667,18.7812698 L17.7722242,19.2529168 L16.3134575,20.6605537 C15.8345061,21.1217661 15.0592102,20.7680308 15.0592102,20.0887338 L15.0592102,20.0887338 Z M2.60355814,13.565083 C3.49908807,13.565083 4.22240071,14.2358831 4.22240071,15.0663976 C4.22240071,15.5535263 3.98129649,15.984755 3.59380759,16.2562693 C4.36017455,16.4239694 4.96293508,17.0149124 5.05765459,17.7655697 L5.05765459,17.7655697 L5.21265016,18.88357 C5.25570448,19.2429272 4.99737854,19.5703416 4.62711136,19.642213 C3.98129649,19.7619988 3.30103818,19.8258845 2.61216899,19.8258845 C1.92329982,19.8258845 1.2430415,19.7619988 0.597226644,19.642213 C0.22695946,19.5703416 -0.0313664833,19.2349415 0.00307697579,18.88357 L0.00307697579,18.88357 L0.149461677,17.7655697 C0.24418119,17.0149124 0.846941723,16.4159837 1.61330869,16.2562693 C1.23443064,15.9767693 0.984715558,15.5455406 0.984715558,15.0663976 C0.984715558,14.2358831 1.7080282,13.565083 2.60355814,13.565083 Z M13.5224965,17.1136009 L13.5224965,19.2527081 L13.5224965,19.2527081 L9.06866354,19.2527081 L9.38245849,17.1136009 L9.38245849,17.1136009 L13.5224965,17.1136009 Z M5.72467774,12.5216161 C6.62570704,12.5216161 7.35346148,13.1941318 7.35346148,14.0267704 C7.35346148,14.5151449 7.11087667,14.9394704 6.72100822,15.2196853 C7.49208137,15.3878142 8.09854341,15.9802686 8.19384458,16.7328457 L8.19384458,16.7328457 L8.34112822,17.8537053 C8.39311068,18.2059755 8.13319837,18.5422334 7.74332993,18.6062825 C7.18885036,18.7103623 6.60837955,18.7664053 6.01058127,18.7824176 L6.01058127,18.7824176 L5.8979526,17.8857299 C5.81131517,17.205208 5.41278297,16.6047475 4.83231216,16.2124466 C4.98825955,15.9242256 5.06623324,15.60398 5.06623324,15.2677221 C5.06623324,14.5791941 4.71101976,13.9627213 4.17386768,13.5704204 C4.38179751,12.9619538 4.9969233,12.5216161 5.72467774,12.5216161 Z M20.5544201,-0.000299999999 C21.1199791,-0.000299999999 21.5791046,0.477607849 21.5791046,1.06925359 L21.5791046,1.06925359 L21.5791046,4.27791437 L22.6037891,4.27791437 C23.1703916,4.27791437 23.6295171,4.75582222 23.6295171,5.34746796 L23.6295171,5.34746796 L23.6295171,15.3250986 L22.8563081,14.5800633 C22.1895327,13.9362442 21.2222389,13.7661591 20.3905958,14.145981 C19.9982522,14.3244139 19.6789513,14.6155411 19.4431278,14.9671895 C18.2087064,14.9296247 16.4546385,14.0666775 16.4546385,11.765833 C16.4546385,9.41072814 18.2932272,8.5571722 19.5297355,8.5571722 L19.5297355,8.5571722 L21.5791046,8.5571722 L21.5791046,6.41702155 L6.31527049,6.41702155 C5.91875306,6.41702155 5.53475723,6.3429354 5.17997848,6.20624123 L5.17997848,6.20624123 L5.17997848,11.5663554 L3.13165292,12.5216161 C3.13165292,11.2435687 3.1312663,9.44446859 3.13096373,7.39622773 L3.13073988,3.1854045 L3.13073988,3.1854045 L3.13165292,3.16140476 C3.14208759,2.41949978 3.39669351,1.70159454 3.86207976,1.13081814 C4.44850817,0.411869433 5.30206411,-0.000299999999 6.20570646,-0.000299999999 L6.20570646,-0.000299999999 Z M21.5791046,10.6962794 L19.5297355,10.6962794 C19.0685232,10.708801 18.505051,10.9039293 18.505051,11.765833 C18.505051,12.6277367 19.0685232,12.8218215 19.5422571,12.8353866 L19.5422571,12.8353866 L21.5791046,12.8353866 L21.5791046,10.6962794 Z M19.5297355,2.13880718 L6.20570646,2.13880718 C5.90414452,2.13880718 5.61927805,2.27758828 5.42414974,2.51654221 C5.22589102,2.75967 5.1445006,3.07166661 5.19458702,3.39722829 C5.27180357,3.89078814 5.76431995,4.27791437 6.31527049,4.27791437 L6.31527049,4.27791437 L19.5297355,4.27791437 L19.5297355,2.13880718 Z"/>
  </defs>  
  <use fill-rule="evenodd" xlink:href="#team-wallet-a"/>
</svg>
