<svg xmlns="http://www.w3.org/2000/svg" id="fy-trash" viewBox="0 0 12 17">
  <path fill="#4A4A4A" d="M258.142857,1279.28571 L257.601512,1290.52074 C257.583303,1290.94829 257.225434,1291.28571 256.790225,1291.28571 L256.790225,1291.28571 L249.209775,1291.28571 C248.774566,1291.28571 248.416697,1290.94829 248.398488,1290.52074 L248.398488,1290.52074 L247.857143,1279.28571 L258.142857,1279.28571 Z M255.57213,1281.75208 L255.04461,1281.75208 C254.862436,1281.75208 254.714786,1281.89728 254.714786,1282.0763 L254.714786,1282.0763 L254.714786,1288.49513 C254.714786,1288.67427 254.862515,1288.81935 255.04461,1288.81935 L255.04461,1288.81935 L255.57213,1288.81935 C255.754303,1288.81935 255.901953,1288.67419 255.901953,1288.49513 L255.901953,1288.49513 L255.901953,1282.0763 C255.901953,1281.89724 255.754184,1281.75208 255.57213,1281.75208 L255.57213,1281.75208 Z M253.26376,1281.75208 L252.73624,1281.75208 C252.554106,1281.75208 252.406456,1281.89728 252.406456,1282.0763 L252.406456,1282.0763 L252.406456,1288.49513 C252.406456,1288.67427 252.554146,1288.81935 252.73624,1288.81935 L252.73624,1288.81935 L253.26376,1288.81935 C253.445933,1288.81935 253.593544,1288.67419 253.593544,1288.49513 L253.593544,1288.49513 L253.593544,1282.0763 C253.593544,1281.89724 253.445815,1281.75208 253.26376,1281.75208 L253.26376,1281.75208 Z M250.95539,1281.75208 L250.427831,1281.75208 C250.245697,1281.75208 250.098047,1281.89728 250.098047,1282.0763 L250.098047,1282.0763 L250.098047,1288.49513 C250.098047,1288.67427 250.245737,1288.81935 250.427831,1288.81935 L250.427831,1288.81935 L250.95539,1288.81935 C251.137524,1288.81935 251.285174,1288.67419 251.285174,1288.49513 L251.285174,1288.49513 L251.285174,1282.0763 C251.285174,1281.89724 251.137485,1281.75208 250.95539,1281.75208 L250.95539,1281.75208 Z M254.832236,1275 C254.925965,1275 255.001918,1275.08876 255.001918,1275.1982 L255.001918,1275.1982 L255.001918,1275.96881 L258.491544,1275.96881 C258.772377,1275.96881 259,1276.23474 259,1276.56277 L259,1276.56277 L259,1278.42857 L247,1278.42857 L247,1276.56272 C247,1276.23469 247.227623,1275.96877 247.508456,1275.96877 L247.508456,1275.96877 L250.998121,1275.96877 L250.998121,1275.1982 C250.998121,1275.08876 251.074074,1275 251.167764,1275 L251.167764,1275 Z" transform="translate(-247 -1275)"/>
</svg>