<svg viewBox="0 0 16 20" fill="none" xmlns="http://www.w3.org/2000/svg">
<path d="M4.65989 9.70253C4.0256 9.70253 3.50259 10.2151 3.50259 10.8423C3.50259 11.4687 4.0256 11.9822 4.65989 11.9822C5.29502 11.9822 5.81717 11.467 5.81717 10.8423C5.81717 10.2168 5.29505 9.70253 4.65989 9.70253ZM4.65989 10.5762C4.81736 10.5762 4.93015 10.6873 4.93015 10.8423C4.93015 10.9938 4.81738 11.1085 4.65989 11.1085C4.50595 11.1085 4.38962 10.9922 4.38962 10.8423C4.38962 10.6889 4.50595 10.5762 4.65989 10.5762Z" fill="currentColor"/>
<path d="M11.3402 9.70253C10.705 9.70253 10.1829 10.2168 10.1829 10.8423C10.1829 11.467 10.7051 11.9822 11.3402 11.9822C11.9745 11.9822 12.4975 11.4671 12.4975 10.8423C12.4975 10.2168 11.9745 9.70253 11.3402 9.70253ZM11.3402 10.5762C11.4941 10.5762 11.6174 10.6873 11.6174 10.8423C11.6174 10.9938 11.4941 11.1085 11.3402 11.1085C11.1827 11.1085 11.0699 10.9938 11.0699 10.8423C11.0699 10.6873 11.1827 10.5762 11.3402 10.5762Z" fill="currentColor"/>
<path fill-rule="evenodd" clip-rule="evenodd" d="M1.47247 3.5096C1.47247 1.5713 3.07653 0 5.05525 0H10.9448C12.9235 0 14.5275 1.5713 14.5275 3.5096V11.2019C14.5275 12.4043 13.6772 13.4123 12.5335 13.6802L15.9053 19.0474C16.0899 19.3413 15.9964 19.7263 15.6963 19.9072C15.3962 20.0881 15.0032 19.9964 14.8185 19.7025L14.0993 18.5576H1.90073L1.1815 19.7025C0.996824 19.9964 0.603832 20.0881 0.30373 19.9072C0.0036273 19.7263 -0.0899423 19.3413 0.094736 19.0474L3.4665 13.6802C2.32276 13.4123 1.47247 12.4043 1.47247 11.2019V3.5096ZM4.92098 13.7499L4.49815 14.423H11.5019L11.079 13.7499H4.92098ZM12.2871 15.673H3.71288L2.68599 17.3076H13.314L12.2871 15.673ZM5.05525 1.24999C3.78128 1.24999 2.74853 2.26165 2.74853 3.5096V11.2019C2.74853 11.9188 3.34181 12.4999 4.07366 12.4999H11.9263C12.6582 12.4999 13.2515 11.9188 13.2515 11.2019V3.5096C13.2515 2.26165 12.2187 1.24999 10.9448 1.24999H5.05525ZM3.43563 4.9519C3.43563 3.54464 4.60023 2.40384 6.03683 2.40384H9.96317C11.3998 2.40384 12.5644 3.54464 12.5644 4.9519V7.35574C12.5644 7.70091 12.2787 7.98073 11.9263 7.98073H4.07366C3.72129 7.98073 3.43563 7.70091 3.43563 7.35574V4.9519ZM6.03683 3.65383C5.30498 3.65383 4.71169 4.235 4.71169 4.9519V6.73074H11.2883V4.9519C11.2883 4.235 10.695 3.65383 9.96317 3.65383H6.03683ZM6.38039 11.2019C6.38039 10.8567 6.66604 10.5769 7.01842 10.5769H8.98158C9.33396 10.5769 9.61961 10.8567 9.61961 11.2019C9.61961 11.5471 9.33396 11.8269 8.98158 11.8269H7.01842C6.66604 11.8269 6.38039 11.5471 6.38039 11.2019Z" fill="currentColor"/>
</svg>
