<svg xmlns="http://www.w3.org/2000/svg" viewBox="0 0 16 15">
  <path d="M11.7932125,11.2637487 C12.2607229,11.2637487 12.6452474,11.6190537 12.6914868,12.0743647 L12.6961485,12.1666847 L12.6961485,14.0676026 C12.6961485,14.3038184 12.5046578,14.4953091 12.268442,14.4953091 C12.0558478,14.4953091 11.8794809,14.3402016 11.8463334,14.1369788 L11.8407355,14.0676026 L11.8407355,12.1666847 C11.8407355,12.147 11.8287673,12.1301107 11.8117106,12.1228963 L11.7932125,12.1191617 L8.94183567,12.1191617 C8.92215102,12.1191617 8.90526169,12.1311299 8.89804731,12.1481866 L8.89431272,12.1666847 L8.89431272,14.0676026 C8.89431272,14.3038184 8.70282199,14.4953091 8.4666062,14.4953091 C8.25401198,14.4953091 8.07764506,14.3402016 8.04449762,14.1369788 L8.03889967,14.0676026 L8.03889967,12.1666847 C8.03889967,11.6991742 8.39420474,11.3146498 8.84951571,11.2684104 L8.94183567,11.2637487 L11.7932125,11.2637487 Z M14.7758459,10.7885192 C15.2125991,10.7885192 15.5718259,11.1204489 15.6150232,11.5458052 L15.6193783,11.6320515 L15.6193783,13.1171436 C15.6193783,13.3533594 15.4278875,13.5448502 15.1916717,13.5448502 C14.9790775,13.5448502 14.8027106,13.3897427 14.7695632,13.1865198 L14.7639652,13.1171436 L14.763872,11.6436946 L13.1000936,11.6439322 C12.8874994,11.6439322 12.7111325,11.4888248 12.677985,11.2856019 L12.6723871,11.2162257 C12.6723871,11.0036315 12.8274946,10.8272646 13.0307174,10.7941171 L13.1000936,10.7885192 L14.7758459,10.7885192 Z M10.5613174,0.568868323 L10.6092922,0.645460075 C10.8115547,0.995747234 11.0068531,1.35484794 11.1951875,1.72276221 L12.1875,1.72339891 C12.6362314,1.72339891 13,2.0773213 13,2.51390669 L12.9996298,7.21641117 C12.6770844,7.38297976 12.4009911,7.6375423 12.1980267,7.95125903 C12.1441924,7.87789906 12.0866346,7.80786839 12.0256615,7.74149969 L12.024,4.58 L2.4375,4.58061757 C2.16826118,4.58061757 1.95,4.36571425 1.95,4.10061757 C1.95,3.86203056 2.12679156,3.66410017 2.35842497,3.62689996 L2.4375,3.62061757 L3.44,3.62 L4.919,2.671 L0.975,2.67200824 L0.975,11.0513907 L7.4719934,11.050795 C7.24765853,11.3128039 7.09215273,11.6396047 7.03008061,12.0002295 L0.8125,12 C0.363768641,12 0,11.6460776 0,11.2094922 L0,2.51390669 C0,2.0773213 0.363768641,1.72339891 0.8125,1.72339891 L6.398,1.723 L8.760446,0.208917918 C9.35990525,-0.175523108 10.1661839,-0.0143669681 10.5613174,0.568868323 Z M10.3675241,8.41237181 C11.1286639,8.41237181 11.7456896,9.02939752 11.7456896,9.79053729 C11.7456896,10.5516771 11.1286639,11.1687028 10.3675241,11.1687028 C9.60638432,11.1687028 8.98935862,10.5516771 8.98935862,9.79053729 C8.98935862,9.02939752 9.60638432,8.41237181 10.3675241,8.41237181 Z M13.5283686,8.41237181 C14.1582774,8.41237181 14.6689193,8.92301377 14.6689193,9.55292255 C14.6689193,10.1828313 14.1582774,10.6934733 13.5283686,10.6934733 C12.8984598,10.6934733 12.3878178,10.1828313 12.3878178,9.55292255 C12.3878178,8.92301377 12.8984598,8.41237181 13.5283686,8.41237181 Z M10.3675241,9.26778487 C10.0788159,9.26778487 9.84477168,9.5018291 9.84477168,9.79053729 C9.84477168,10.0792455 10.0788159,10.3132897 10.3675241,10.3132897 C10.6562323,10.3132897 10.8902765,10.0792455 10.8902765,9.79053729 C10.8902765,9.5018291 10.6562323,9.26778487 10.3675241,9.26778487 Z M13.5283686,9.26778487 C13.3708914,9.26778487 13.2432309,9.39544536 13.2432309,9.55292255 C13.2432309,9.71039975 13.3708914,9.83806024 13.5283686,9.83806024 C13.6858458,9.83806024 13.8135063,9.71039975 13.8135063,9.55292255 C13.8135063,9.39544536 13.6858458,9.26778487 13.5283686,9.26778487 Z M9.35535735,0.971236914 L9.29703576,1.00094511 L5.212,3.62 L11.0644721,3.62046535 C10.9188484,3.30467612 10.7659332,2.98840054 10.6057266,2.67163862 L10.562,2.67139891 L10.5635898,2.58864416 C10.3860508,2.24028735 10.199698,1.89134266 10.0045315,1.54181009 L9.74725445,1.09093217 C9.6608188,0.963349169 9.495688,0.916555086 9.35535735,0.971236914 Z M12.025,2.67200824 L11.6570274,2.67285069 C11.7833954,2.94678461 11.906197,3.22523219 12.0254322,3.50819342 L12.025,2.67200824 Z"/>
</svg>
