<svg xmlns="http://www.w3.org/2000/svg" xmlns:xlink="http://www.w3.org/1999/xlink" viewBox="0 0 21 24" id="fy-team-reports">
  <defs>
    <path id="team-reports-a" d="M2.72190747,17.4544103 C3.65814529,17.4544103 4.41433738,18.1557028 4.41433738,19.0239698 C4.41433738,19.5332418 4.16227334,19.9840727 3.75717045,20.2679292 C4.55837397,20.4432524 5.18853405,21.0610577 5.2875592,21.8458375 L5.2875592,21.8458375 L5.44960036,23.0146585 C5.49461179,23.3903509 5.22454319,23.7326485 4.83744486,23.807787 C4.16227334,23.9330178 3.45109269,23.9998075 2.73090974,23.9998075 C2.0107268,23.9998075 1.29954614,23.9330178 0.624374635,23.807787 C0.237276302,23.7326485 -0.0327923021,23.3820022 0.00321684515,23.0146585 L0.00321684515,23.0146585 L0.156255721,21.8458375 C0.255280876,21.0610577 0.885440953,20.4349037 1.68664448,20.2679292 C1.29054386,19.975724 1.02947754,19.5248931 1.02947754,19.0239698 C1.02947754,18.1557028 1.78566963,17.4544103 2.72190747,17.4544103 Z M5.98490306,16.3635107 C6.92689024,16.3635107 7.68772604,17.0665969 7.68772604,17.9370845 C7.68772604,18.4476589 7.4341141,18.8912728 7.0265235,19.1842254 C7.83264715,19.3599969 8.46667698,19.9793824 8.56631023,20.7661692 L8.56631023,20.7661692 L8.72028891,21.9379795 C8.77463432,22.3062627 8.50290725,22.6578058 8.09531664,22.7247664 C7.51563223,22.8335773 6.9087751,22.8921678 6.28380284,22.908908 L6.28380284,22.908908 L6.16605443,21.9714598 C6.07547875,21.2600036 5.65883057,20.6322481 5.05197343,20.2221145 C5.21500968,19.9207918 5.2965278,19.5859889 5.2965278,19.2344458 C5.2965278,18.5146195 4.92516747,17.8701239 4.36359819,17.4599903 C4.58097985,16.8238647 5.22406726,16.3635107 5.98490306,16.3635107 Z M14.1816941,-0.000178188506 C14.4716585,-0.00165895532 14.7503595,0.11217668 14.9562328,0.316378363 L14.9562328,0.316378363 L16.810762,2.18181659 L19.6361919,2.18181659 C20.238679,2.18181659 20.7270914,2.67022895 20.7270914,3.27271614 L20.7270914,3.27271614 L20.7270914,20.7271089 C20.7270914,21.329596 20.238679,21.8180084 19.6361919,21.8180084 L19.6361919,21.8180084 L9.81809593,21.8180084 L9.48544164,19.6362094 L18.5452923,19.6362094 L18.5452923,4.36361569 L16.810762,4.36361569 L14.9562328,6.22905391 C14.7503595,6.43325559 14.4716585,6.54709123 14.1816941,6.54541478 L14.1816941,6.54541478 L9.81809593,6.54541478 C9.52926175,6.54139646 9.25261047,6.42839806 9.04355725,6.22905391 L9.04355725,6.22905391 L7.18902802,4.36361569 L5.45449774,4.36361569 L5.45449774,15.2726112 L3.27269864,16.3635107 L3.27269864,3.27271614 C3.27269864,2.67022895 3.76111101,2.18181659 4.36359819,2.18181659 L4.36359819,2.18181659 L7.18902802,2.18181659 L9.04355725,0.316378363 C9.24943054,0.11217668 9.52813158,-0.00165895532 9.81809593,-0.000178188506 L9.81809593,-0.000178188506 Z M8.72719638,12.5235443 C9.32968357,12.5235443 9.81809593,13.0119567 9.81809593,13.6144438 C9.81809593,14.216931 9.32968357,14.7053434 8.72719638,14.7053434 C8.1247092,14.7053434 7.63629683,14.216931 7.63629683,13.6144438 C7.63629683,13.0119567 8.1247092,12.5235443 8.72719638,12.5235443 Z M15.2725937,12.5235443 C15.8750808,12.5235443 16.3634932,13.0119567 16.3634932,13.6144438 C16.3634932,14.216931 15.8750808,14.7053434 15.2725937,14.7053434 L13.0907946,14.7053434 C12.4883074,14.7053434 11.999895,14.216931 11.999895,13.6144438 C11.999895,13.0119567 12.4883074,12.5235443 13.0907946,12.5235443 L15.2725937,12.5235443 Z M8.72719638,8.15994611 C9.32968357,8.15994611 9.81809593,8.64835848 9.81809593,9.25084566 C9.81809593,9.85333284 9.32968357,10.3417452 8.72719638,10.3417452 C8.1247092,10.3417452 7.63629683,9.85333284 7.63629683,9.25084566 C7.63629683,8.64835848 8.1247092,8.15994611 8.72719638,8.15994611 Z M15.2725937,8.15994611 C15.8750808,8.15994611 16.3634932,8.64835847 16.3634932,9.25084566 C16.3634932,9.85333284 15.8750808,10.3417452 15.2725937,10.3417452 L13.0907946,10.3417452 C12.4883074,10.3417452 11.999895,9.85333284 11.999895,9.25084566 C11.999895,8.64835847 12.4883074,8.15994611 13.0907946,8.15994611 L15.2725937,8.15994611 Z M13.7344253,2.18181659 L10.2653647,2.18181659 L9.1744652,3.27271614 L10.2653647,4.36361569 L13.7344253,4.36361569 L14.8253249,3.27271614 L13.7344253,2.18181659 Z"/>
  </defs>
  <use fill-rule="evenodd" xlink:href="#team-reports-a"/>
</svg>
