<svg xmlns="http://www.w3.org/2000/svg" viewBox="0 0 20 20" id="fy-trips">
  <path fill-rule="evenodd" d="M4.9358,4.3068 C5.1358,4.3068 5.3358,4.3068 5.5398,4.3058 C5.6578,4.3058 5.7458,4.3468 5.8028,4.4478 C5.8228,4.4848 5.8458,4.5188 5.8688,4.5538 C6.4228,5.4168 6.9778,6.2808 7.5318,7.1448 C7.8768,7.6818 8.2228,8.2188 8.5658,8.7568 C8.5848,8.7848 8.6048,8.7968 8.6428,8.7968 C8.7528,8.7948 8.8648,8.7948 8.9758,8.7948 L9.2428,8.7948 C9.3018,8.7968 9.3618,8.7968 9.4208,8.7968 C9.5718,8.7968 9.7208,8.7948 9.8718,8.7948 C10.1218,8.7948 10.3718,8.7968 10.6218,8.8068 C11.1278,8.8258 11.6068,8.9618 12.0488,9.2028 C12.1438,9.2548 12.2308,9.3178 12.3238,9.3758 C12.3728,9.4238 12.4238,9.4728 12.4748,9.5198 C12.4838,9.5358 12.4938,9.5498 12.5038,9.5638 C12.7028,9.8368 12.7228,10.0348 12.5728,10.2998 C12.5468,10.3488 12.5128,10.3918 12.4818,10.4388 C12.4288,10.4888 12.3758,10.5398 12.3238,10.5898 C12.2468,10.6398 12.1728,10.6948 12.0938,10.7398 C11.5848,11.0268 11.0318,11.1628 10.4428,11.1698 C10.1948,11.1718 9.9468,11.1728 9.6978,11.1728 C9.3458,11.1728 8.9958,11.1718 8.6438,11.1708 C8.6008,11.1708 8.5738,11.1808 8.5488,11.2188 C8.2138,11.7358 7.8748,12.2528 7.5358,12.7688 C6.9008,13.7398 6.2638,14.7108 5.6308,15.6828 C5.5668,15.7798 5.4878,15.8258 5.3808,15.8258 C5.3618,15.8258 5.3418,15.8238 5.3208,15.8208 C4.9228,15.7628 4.5258,15.7108 4.1268,15.6548 C3.9648,15.6328 3.8718,15.4918 3.9168,15.3418 C4.3128,14.0408 4.7088,12.7418 5.1038,11.4408 C5.1298,11.3528 5.1578,11.2638 5.1858,11.1728 C5.1668,11.1718 5.1528,11.1708 5.1398,11.1708 C4.2128,11.1708 3.2858,11.1708 2.3578,11.1698 C2.3198,11.1698 2.3038,11.1848 2.2868,11.2148 C2.0398,11.6278 1.7928,12.0408 1.5488,12.4538 C1.4888,12.5568 1.4048,12.6048 1.2838,12.6048 L1.2798,12.6048 C1.1358,12.6038 0.9908,12.6038 0.8458,12.6038 C0.6728,12.6038 0.4998,12.6038 0.3268,12.6048 L0.3188,12.6048 C0.2438,12.6048 0.1718,12.5988 0.1048,12.5628 C0.0838,12.5418 0.0628,12.5218 0.0408,12.5018 C0.0048,12.4278 -0.0052,12.3518 0.0058,12.2688 C0.1208,11.5208 0.2318,10.7708 0.3428,10.0208 C0.3458,9.9968 0.3468,9.9718 0.3428,9.9478 C0.2328,9.2048 0.1228,8.4628 0.0108,7.7208 C-0.0022,7.6348 -0.0112,7.5518 0.0338,7.4718 C0.0578,7.4498 0.0818,7.4268 0.1048,7.4028 C0.1568,7.3928 0.2088,7.3708 0.2608,7.3708 C0.6068,7.3658 0.9518,7.3658 1.3008,7.3618 C1.4068,7.3618 1.4838,7.4088 1.5358,7.4958 C1.7868,7.9128 2.0358,8.3288 2.2848,8.7478 C2.3068,8.7848 2.3288,8.7968 2.3718,8.7968 C3.2898,8.7948 4.2078,8.7948 5.1258,8.7948 C5.1438,8.7948 5.1628,8.7938 5.1848,8.7938 C5.1788,8.7738 5.1758,8.7598 5.1708,8.7448 C4.8288,7.6188 4.4868,6.4948 4.1438,5.3688 C4.0698,5.1238 3.9948,4.8788 3.9208,4.6338 C3.8668,4.4518 3.9808,4.3078 4.1788,4.3068 L4.1908,4.3068 L4.2128,4.3068 L4.9358,4.3068 Z M15.9026,9.2589 L18.3246,9.2589 C18.0156,6.8129 16.3306,4.7949 14.0666,3.9909 C14.8946,5.1679 15.7356,6.9259 15.9026,9.2589 Z M14.0696,16.1379 C16.3316,15.3349 18.0166,13.3169 18.3246,10.8719 L15.9176,10.8719 C15.7526,13.2069 14.8996,14.9569 14.0696,16.1379 Z M11.8996,1.9999 C16.3656,1.9999 20.0006,5.6189 20.0006,10.0659 C20.0006,14.5119 16.3656,18.1309 11.8996,18.1309 C10.0876,18.1309 8.4176,17.5269 7.0666,16.5219 C7.3366,16.0899 7.6066,15.6589 7.8806,15.2249 L7.9346,15.1389 C8.4746,15.5579 9.0746,15.9049 9.7326,16.1379 C9.3376,15.5769 8.9406,14.8829 8.6106,14.0619 L8.8236,13.7229 L8.9406,13.5389 C9.1606,13.5389 9.3826,13.5369 9.6026,13.5349 C9.7786,13.5329 9.9516,13.5139 10.1236,13.4959 C10.6626,14.8289 11.4126,15.7419 11.8996,16.2379 C12.6616,15.4689 14.0646,13.6899 14.2976,10.8719 L13.8196,10.8719 C13.9666,10.3379 13.9576,9.7899 13.7656,9.2589 L14.2976,9.2589 C14.0646,6.4419 12.6616,4.6629 11.8996,3.8929 C11.3876,4.4109 10.5926,5.3959 10.0516,6.8339 C9.9796,6.8279 9.9076,6.8159 9.8346,6.8129 C9.5606,6.8009 9.2866,6.7999 9.0116,6.7999 L8.9646,6.7999 L8.5706,6.1619 C8.9066,5.2989 9.3216,4.5759 9.7326,3.9919 C9.0506,4.2349 8.4316,4.5969 7.8776,5.0369 L7.0196,3.6449 C8.3786,2.6179 10.0666,1.9999 11.8996,1.9999 Z"/>
</svg>
