<svg viewBox="0 0 24 25" fill="none" xmlns="http://www.w3.org/2000/svg">
<path fill-rule="evenodd" clip-rule="evenodd" d="M3.80761 4.65843C4.80986 3.83353 6.19286 3.45386 7.77096 3.45386H16.2383C17.8203 3.45386 19.2041 3.83324 20.2047 4.65909C21.2262 5.50218 21.755 6.73401 21.75 8.22544V16.1247C21.75 17.6158 21.2187 18.8486 20.1971 19.6932C19.1958 20.521 17.8122 20.9029 16.229 20.9029H7.77096C6.18916 20.9029 4.80424 20.5132 3.80211 19.6723C2.7813 18.8156 2.25 17.5678 2.25 16.0592V8.22387C2.25 6.73139 2.78455 5.50046 3.80761 4.65843ZM4.76084 5.8166C4.13259 6.33368 3.75 7.11275 3.75 8.22387V8.84095H20.25V8.22387L20.25 8.2212C20.2539 7.10953 19.8749 6.33175 19.2499 5.81594C18.6038 5.28269 17.6021 4.95386 16.2383 4.95386H7.77096C6.41237 4.95386 5.4099 5.28239 4.76084 5.8166ZM3.75 16.0592V10.3409H20.25V16.1247C20.25 17.2372 19.8687 18.0185 19.2413 18.5371C18.5936 19.0725 17.5918 19.4029 16.229 19.4029H7.77096C6.41608 19.4029 5.41551 19.068 4.76633 18.5232C4.13584 17.9941 3.75 17.1951 3.75 16.0592ZM18.2903 14.2509C18.7045 14.2518 19.041 13.9167 19.0418 13.5024C19.0427 13.0882 18.7076 12.7518 18.2934 12.7509L15.0026 12.7442C14.5884 12.7434 14.2519 13.0785 14.251 13.4927C14.2502 13.9069 14.5853 14.2434 14.9995 14.2442L18.2903 14.2509Z" fill="#A9ACBC"/>
</svg>
