<svg xmlns="http://www.w3.org/2000/svg" viewBox="0 0 20 21" id="fy-user">
  <path fill-rule="evenodd" d="M10,15.016 L10.001,13.016 C5.8034545,13.016 0.985,14.92607 0.985,18 L0.985,20.016 L0.985,21.016 L1.985,21.016 L18.016,21.016 L19.016,21.016 L19.016,20.016 L19.016,18 C19.016,14.9268205 14.1965621,13.016 10,13.016 L10,15.016 L10,15.016 Z M14.984,6.016 C14.984,3.25532302 12.7501013,0.985 10,0.985 C7.24989865,0.985 5.016,3.25532302 5.016,6.016 C5.016,8.77128475 7.24471525,11 10,11 C12.7552847,11 14.984,8.77128475 14.984,6.016 L14.984,6.016 Z" transform="translate(0 -1)"/>
</svg>
