<svg xmlns="http://www.w3.org/2000/svg" viewBox="0 0 20 20" id="fy-wallet">
  <g fill-rule="evenodd">
    <path d="M2.1982,2.4117 C2.3852,2.1827 2.6582,2.0497 2.9472,2.0497 L15.7162,2.0497 L15.7162,4.0997 L3.0522,4.0997 C2.5242,4.0997 2.0522,3.7287 1.9782,3.2557 C1.9302,2.9437 2.0082,2.6447 2.1982,2.4117 Z M17.6802,12.3007 L15.7282,12.3007 C15.2742,12.2877 14.7342,12.1017 14.7342,11.2757 C14.7342,10.4497 15.2742,10.2627 15.7162,10.2507 L17.6802,10.2507 L17.6802,12.3007 Z M2.9472,18.4507 L9.9592,18.4507 L9.9592,16.4007 L2.9472,16.4007 C2.4062,16.4007 1.9642,15.9417 1.9642,15.3757 L1.9642,5.9477 C2.3042,6.0787 2.6722,6.1497 3.0522,6.1497 L17.6802,6.1497 L17.6802,8.2007 L15.7162,8.2007 C14.5312,8.2007 12.7692,9.0187 12.7692,11.2757 C12.7692,13.4807 14.4502,14.3077 15.6332,14.3437 C15.8592,14.0067 16.1652,13.7277 16.5412,13.5567 C17.3382,13.1927 18.2652,13.3557 18.9042,13.9727 L19.6452,14.6867 L19.6452,5.1247 C19.6452,4.5577 19.2052,4.0997 18.6622,4.0997 L17.6802,4.0997 L17.6802,1.0247 C17.6802,0.4577 17.2402,-0.0003 16.6982,-0.0003 L2.9472,-0.0003 C2.0812,-0.0003 1.2632,0.3947 0.7012,1.0837 C0.2552,1.6307 0.0112,2.3187 0.0012,3.0297 C0.0002,3.0457 0.0002,3.0597 0.0002,3.0757 L0.0002,15.3757 C0.0002,17.0707 1.3222,18.4507 2.9472,18.4507 Z"/>
    <path d="M19.77 16.9019L19.645 16.7809 17.904 15.1009C17.835 15.0349 17.759 14.9909 17.681 14.9589 17.238 14.7739 16.702 15.0959 16.702 15.6499L16.702 16.4009 16.702 18.4509 16.702 19.2519C16.702 19.9029 17.446 20.2419 17.904 19.7999L19.302 18.4509 19.645 18.1199 19.77 17.9989C20.077 17.7029 20.077 17.1979 19.77 16.9019M14.4999 16.9019L13.9799 16.4009 12.6339 15.1009C12.1749 14.6589 11.4319 14.9979 11.4319 15.6499L11.4319 16.4009 11.4319 18.4509 11.4319 19.2519C11.4319 19.9029 12.1749 20.2419 12.6339 19.7999L14.0319 18.4509 14.4999 17.9989C14.8069 17.7029 14.8069 17.1979 14.4999 16.9019"/>
  </g>
</svg>
