<svg xmlns="http://www.w3.org/2000/svg" viewBox="0 0 14 12">
  <path d="M13.7349032,11.012129 L7.48593548,0.490677419 C7.35587097,0.272096774 7.15264516,0.146548387 6.92887097,0.146548387 C6.7026129,0.146548387 6.49803226,0.274354839 6.36887097,0.497 L0.282483871,11.0137097 C0.153548387,11.2359032 0.144290323,11.4759355 0.257193548,11.6717097 C0.369419355,11.8670323 0.581677419,11.9790323 0.839096774,11.9790323 L13.1846129,11.9790323 C13.4427097,11.9790323 13.6547419,11.8665806 13.7667419,11.6699032 C13.8785161,11.4736774 13.8667742,11.233871 13.7349032,11.012129 L13.7349032,11.012129 Z M12.671129,11.1634194 L1.34287097,11.1634194 C1.23019355,11.1634194 1.18480645,11.0841613 1.24125806,10.9866129 L6.82906452,1.33203226 C6.88551613,1.23425806 6.97787097,1.23358065 7.03545161,1.33067742 L12.7707097,10.9879677 C12.8285161,11.0846129 12.7840323,11.1634194 12.671129,11.1634194 L12.671129,11.1634194 Z"/>
  <path d="M7.06525806 8.70732258C7.30912903 8.70732258 7.51619355 8.49167742 7.52703226 8.22567742L7.68803226 4.28851613C7.69954839 4.02251613 7.49225806 3.80732258 7.22603226 3.80732258L6.78367742 3.80732258C6.51767742 3.80732258 6.31580645 4.02229032 6.33364516 4.28829032L6.59174194 8.22635484C6.60912903 8.49190323 6.82093548 8.70732258 7.06525806 8.70732258L7.06525806 8.70732258zM7.231 9.18964516L6.78932258 9.18964516C6.52309677 9.18964516 6.30722581 9.40483871 6.30722581 9.67174194L6.30722581 10.1131935C6.30722581 10.3794194 6.52309677 10.5952903 6.78932258 10.5952903L7.231 10.5952903C7.49767742 10.5952903 7.71377419 10.3794194 7.71377419 10.1131935L7.71377419 9.67174194C7.71377419 9.40483871 7.49767742 9.18964516 7.231 9.18964516L7.231 9.18964516z"/>
</svg>
