<svg viewBox="0 0 84 29" fill="none" xmlns="http://www.w3.org/2000/svg">
<path fill-rule="evenodd" clip-rule="evenodd" d="M34.3862 6.22021V9.49362H39.3444V12.8288H34.3862V22.2785H30.9755V6.22021C30.9755 4.30557 32.5545 2.73062 34.5441 2.73062H40.6708V6.09668H34.5441C34.4494 6.0658 34.3862 6.12756 34.3862 6.22021Z" fill="#161528"/>
<path fill-rule="evenodd" clip-rule="evenodd" d="M53.9981 29H44.7764V25.6339H53.9981C54.0612 25.6339 54.156 25.5722 54.156 25.4795V23.1326H45.8501C43.8921 23.1326 42.2815 21.5576 42.2815 19.643V8.49483H45.6922V19.6739C45.6922 19.7665 45.7554 19.8591 45.8817 19.8591H53.9981C54.0612 19.8591 54.156 19.7974 54.156 19.6739V8.49483H57.5667V25.5104C57.5351 27.4251 55.9561 29 53.9981 29Z" fill="#161528"/>
<path fill-rule="evenodd" clip-rule="evenodd" d="M63.6618 2.73062V18.7889C63.6618 18.8815 63.725 18.9742 63.8198 18.9742H66.8515V22.3094H63.8198C61.8617 22.3094 60.2511 20.7344 60.2511 18.8198V2.7615H63.6618V2.73062Z" fill="#161528"/>
<path fill-rule="evenodd" clip-rule="evenodd" d="M84 16.5654V11.0377C84 9.12305 82.3893 7.5481 80.4313 7.57898H72.315C70.357 7.57898 68.7463 9.15393 68.7463 11.0686V18.7889C68.7463 20.7035 70.357 22.2785 72.315 22.2785H84V18.9433H72.2834C72.1571 18.9433 72.0939 18.8507 72.0939 18.758V16.5654H84ZM80.6208 11.0377V13.2303H72.1255V11.0377C72.1255 10.9142 72.2202 10.8524 72.315 10.8524H80.4313C80.5576 10.8524 80.6208 10.945 80.6208 11.0377Z" fill="#161528"/>
<rect x="0.884155" width="23.871" height="21.4807" fill="white"/>
<path fill-rule="evenodd" clip-rule="evenodd" d="M11.078 0H1.37469C0.61547 0 0 0.6023 0 1.34527V24.6105C0 25.3535 0.61547 25.9558 1.37469 25.9558H25.1486C25.9079 25.9558 26.5233 25.3535 26.5233 24.6105V1.34527C26.5233 0.6023 25.9079 0 25.1486 0H21.424H12.9022V0.543329C12.9022 0.676398 12.9022 16.5049 12.9022 16.6823V16.8597C12.8569 17.7025 12.585 18.3678 12.0637 18.8779C11.0439 19.8759 9.27615 20.009 7.73506 20.009C5.65006 20.009 2.83984 19.7429 2.36392 17.5472L2.29593 16.9928C2.27326 16.8819 2.27326 16.5714 2.27326 15.773C2.27326 15.0189 2.27326 13.9544 2.27326 12.8455V12.6237V4.28471C2.27326 3.75244 2.45457 3.30887 2.83984 2.93184C3.22511 2.55482 3.67837 2.37739 4.22229 2.37739L9.32148 2.39957L9.50278 2.44393V3.95204V4.12946H9.32148H9.04952H8.36963H4.38093C4.24495 4.12946 4.17696 4.196 4.17696 4.28471C4.17696 4.55085 4.17696 4.68392 4.17696 4.68392V8.05499H7.84838H8.02968V8.23242V9.60746V9.78489H7.84838H4.17696V13.5108V13.777V16.8819C4.22229 18.1239 6.10332 18.3678 7.68974 18.3678C8.39229 18.3456 9.88805 18.3456 10.5679 17.6803C10.7493 17.5029 10.9193 17.1702 11.078 16.6823V1.00571V0Z" fill="#FF2E63"/>
</svg>
