<svg viewBox="0 0 70 24" fill="none" xmlns="http://www.w3.org/2000/svg">
<path d="M2 3.37931C2 2.61754 2.59695 2 3.33333 2H20.6667C21.403 2 22 2.61754 22 3.37931V20.6207C22 21.3825 21.403 22 20.6667 22H3.33333C2.59695 22 2 21.3825 2 20.6207V3.37931Z" fill="white"/>
<path fill-rule="evenodd" clip-rule="evenodd" d="M10.3534 2H3.03659C2.4641 2 2 2.4641 2 3.03659V20.9634C2 21.5359 2.4641 22 3.03659 22H20.9634C21.5359 22 22 21.5359 22 20.9634V3.03659C22 2.4641 21.5359 2 20.9634 2H11.729V2.41866C11.729 2.52119 11.729 14.7177 11.729 14.8544V14.9911C11.6948 15.6405 11.4897 16.1532 11.0967 16.5462C10.3277 17.3152 8.99471 17.4178 7.83265 17.4178C6.26045 17.4178 4.14139 17.2127 3.78252 15.5209L3.73125 15.0936C3.71416 15.0082 3.71416 14.7689 3.71416 14.1537C3.71416 13.5727 3.71416 12.7524 3.71416 11.898V5.30154C3.71416 4.8914 3.85088 4.54962 4.14139 4.25911C4.43191 3.96859 4.77369 3.83188 5.18383 3.83188L9.02889 3.84897L9.1656 3.88314V5.18192H5.30345C5.20092 5.18192 5.14965 5.23319 5.14965 5.30154C5.14965 5.50661 5.14965 5.60915 5.14965 5.60915V8.2067H8.05481V9.53966H5.14965V15.0082C5.18383 15.9652 6.60223 16.1532 7.79847 16.1532C8.32823 16.1361 9.45612 16.1361 9.96879 15.6234C10.1055 15.4867 10.2337 15.2303 10.3534 14.8544V2Z" fill="#FF3366"/>
<path fill-rule="evenodd" clip-rule="evenodd" d="M29.6288 4.65677V7.14896H33.4503V9.68818H29.6288V16.8826H27V4.65677C27 3.19907 28.217 2 29.7505 2H34.4726V4.56273H29.7505C29.6775 4.53921 29.6288 4.58624 29.6288 4.65677Z" fill="#F3F5F7"/>
<path fill-rule="evenodd" clip-rule="evenodd" d="M44.7445 22H37.637V19.4373H44.7445C44.7932 19.4373 44.8662 19.3903 44.8662 19.3198V17.5329H38.4645C36.9554 17.5329 35.714 16.3338 35.714 14.8761V6.38857H38.3428V14.8996C38.3428 14.9702 38.3915 15.0407 38.4889 15.0407H44.7445C44.7932 15.0407 44.8662 14.9937 44.8662 14.8996V6.38857H47.495V19.3433C47.4707 20.801 46.2536 22 44.7445 22Z" fill="#F3F5F7"/>
<path fill-rule="evenodd" clip-rule="evenodd" d="M52.1928 2V14.2258C52.1928 14.2964 52.2415 14.3669 52.3145 14.3669H54.6512V16.9061H52.3145C50.8054 16.9061 49.564 15.7071 49.564 14.2494V2.02351H52.1928V2Z" fill="#F3F5F7"/>
<path fill-rule="evenodd" clip-rule="evenodd" d="M67.8683 12.533V8.32453C67.8683 6.86683 66.6269 5.66776 65.1178 5.69127H58.8622C57.353 5.69127 56.1117 6.89034 56.1117 8.34804V14.2259C56.1117 15.6835 57.353 16.8826 58.8622 16.8826H67.8683V14.3434H58.8378C58.7405 14.3434 58.6918 14.2729 58.6918 14.2023V12.533H67.8683ZM65.2638 8.32454V9.99384H58.7161V8.32454C58.7161 8.23049 58.7892 8.18347 58.8622 8.18347H65.1178C65.2152 8.18347 65.2638 8.25401 65.2638 8.32454Z" fill="#F3F5F7"/>
</svg>
