<svg viewBox="0 0 273 110" fill="none" xmlns="http://www.w3.org/2000/svg"><path fill-rule="evenodd" clip-rule="evenodd" d="M211.066 74.775c-.091-4.564-4.162-7.842-9.158-7.842-5 0-8.832 3.545-8.832 8.064 0 5.007 3.692 6.824 8.132 8.334 3.972 1.33 5.888 2.526 5.888 5.362 0 2.304-1.916 4.209-4.813 4.209-2.758 0-5.188-1.817-5.188-4.652 0-.915.261-1.436.483-1.88.166-.332.311-.621.311-1 0-1.024-.747-1.777-1.962-1.777-1.402 0-2.851 1.995-2.851 4.83 0 4.564 4.163 7.931 9.207 7.93 5.14 0 8.832-3.59 8.832-8.065 0-5.14-3.878-6.868-8.132-8.33-3.975-1.372-5.888-2.566-5.89-5.27 0-2.482 2.061-4.299 4.766-4.299 2.899 0 5.188 1.91 5.235 4.475.047 1.197.935 1.905 1.963 1.905 1.073 0 2.056-.711 2.009-1.994Zm1.984 12.85c0 4.874 4.206 8.73 9.254 8.73 2.242 0 3.972-.71 3.972-2.083 0-1.02-.935-1.728-1.822-1.728-.287 0-.538.05-.82.108-.361.073-.773.157-1.377.157-2.899 0-5.188-2.392-5.188-5.184 0-3.012 2.337-5.36 5.281-5.36 3.318 0 5.421 2.392 5.421 5.892v6.337c0 1.107.935 1.86 2.057 1.86 1.073 0 2.009-.753 2.009-1.86v-6.47c0-5.317-3.877-9.216-9.393-9.216-5.141 0-9.394 3.766-9.394 8.817Zm30.302 21.934c-5.234 0-9.58-3.546-9.58-8.153 0-1.552.936-2.26 2.009-2.26s1.963.665 2.01 1.95c.047 2.88 2.477 5.006 5.516 5.006 3.226 0 5.327-1.949 5.327-4.474 0-2.88-2.337-4.078-6.309-5.273-4.627-1.418-8.552-3.368-8.552-8.774 0-4.963 4.019-8.773 9.254-8.773 5.28 0 9.626 3.633 9.626 8.418 0 2.925-1.261 5.185-2.991 5.185-1.168 0-1.963-.798-1.963-1.776 0-.437.172-.768.368-1.146.263-.505.569-1.095.569-2.133 0-3.06-2.523-5.096-5.561-5.096-2.945 0-5.281 2.127-5.281 4.918 0 3.147 2.383 4.476 6.31 5.716 4.532 1.418 8.551 3.19 8.551 8.374 0 4.654-3.879 8.289-9.3 8.289l-.003.002Zm11.236-21.978c0 4.874 4.299 8.774 9.533 8.774h.003c2.618 0 4.721-.666 6.123-1.507 1.401-.842 1.962-1.551 1.962-2.349 0-.841-.657-1.595-1.873-1.595-.565 0-1.086.303-1.723.672-.998.58-2.277 1.322-4.445 1.322a5.817 5.817 0 0 1-2.14-.404 5.583 5.583 0 0 1-1.811-1.154 5.25 5.25 0 0 1-1.202-1.727 5.019 5.019 0 0 1-.408-2.032c0-2.924 2.43-5.361 5.42-5.361 3.226 0 4.954 1.996 4.954 3.279 0 .354-.28.532-.654.532h-4.02c-1.078 0-1.873.706-1.873 1.594 0 .93.799 1.64 1.873 1.64h5.376c2.056 0 3.317-1.02 3.317-2.703 0-4.342-3.925-7.754-9.113-7.754a9.7 9.7 0 0 0-3.555.655 9.306 9.306 0 0 0-3.017 1.9 8.764 8.764 0 0 0-2.018 2.85 8.377 8.377 0 0 0-.709 3.368Z" fill="#00D639"/><path d="m173.111 99.917.779-2.564c.679.327 1.358.578 1.961.578.855 0 1.333-.327 1.861-1.81l.226-.63-5.104-13.35h3.445l3.319 9.529 3.445-9.53h3.243l-5.607 14.81c-1.006 2.69-2.489 3.596-4.576 3.596-.981 0-2.163-.176-2.992-.629Zm-10.078-4.727h-3.244v-17.6h3.244v6.713c.754-1.533 2.036-2.388 3.797-2.388 3.017 0 5.255 2.439 5.255 6.713 0 4.325-2.238 6.764-5.255 6.764-1.761 0-3.043-.88-3.797-2.414v2.213Zm2.916-2.389c1.685 0 2.942-1.357 2.942-4.174 0-2.79-1.257-4.148-2.942-4.148-1.684 0-2.916 1.357-2.916 4.148 0 2.817 1.232 4.174 2.916 4.174Z" fill="#000"/><path fill-rule="evenodd" clip-rule="evenodd" d="M90.17 16.18v8.514h13.002v8.676H90.171v24.58h-8.944V16.18c0-4.981 4.14-9.078 9.358-9.078h16.066v8.756H90.585c-.249-.08-.414.08-.414.321Zm51.427 59.254h-24.182v-8.756h24.182c.166 0 .414-.16.414-.402v-6.105h-21.78c-5.134 0-9.358-4.096-9.358-9.077V22.095h8.944v29.08a.47.47 0 0 0 .497.482h21.283c.166 0 .414-.161.414-.482v-29.08h8.944v44.262c-.083 4.98-4.223 9.077-9.358 9.077ZM166.94 7.102v41.771c0 .241.166.482.414.482h7.95v8.676h-7.95c-5.134 0-9.358-4.097-9.358-9.077V7.182h8.944v-.08Zm53.333 35.988V28.71c0-4.98-4.224-9.077-9.358-8.996h-21.284c-5.134 0-9.358 4.096-9.358 9.077v20.082c0 4.98 4.224 9.077 9.358 9.077h30.642v-8.675h-30.724a.47.47 0 0 1-.497-.482V43.09h31.221Zm-8.861-14.38v5.703h-22.277v-5.704c0-.321.248-.482.497-.482h21.283a.47.47 0 0 1 .497.482Z" fill="#000"/><path fill="#fff" d="M2.318 0h62.597v55.876H2.318z"/><path fill-rule="evenodd" clip-rule="evenodd" d="M29.05 0H3.605C1.614 0 0 1.567 0 3.5v60.518c0 1.932 1.614 3.5 3.605 3.5h62.342c1.99 0 3.605-1.568 3.605-3.5V3.499C69.552 1.567 67.938 0 65.947 0H33.833v43.856c-.118 2.192-.832 3.923-2.198 5.25-2.675 2.596-7.31 2.942-11.351 2.942-5.468 0-12.837-.692-14.085-6.404l-.178-1.442c-.06-.288-.06-1.096-.06-3.173V11.145c0-1.384.476-2.538 1.486-3.519 1.01-.98 2.199-1.442 3.625-1.442l13.372.058.475.115v4.385H11.488c-.356 0-.535.173-.535.403v9.808h10.103v4.5H10.953v18.461c.12 3.23 5.052 3.865 9.212 3.865 1.842-.058 5.764-.058 7.547-1.788.476-.462.922-1.327 1.338-2.596V0Z" fill="#FF2E63"/></svg>