<svg width="82" height="29" viewBox="0 0 82 29" fill="none" xmlns="http://www.w3.org/2000/svg">
<path fill-rule="evenodd" clip-rule="evenodd" d="M33.6582 6.05481V9.241H38.4393V12.4873H33.6582V21.6852H30.3693V6.05481C30.3693 4.19118 31.8919 2.6582 33.8105 2.6582H39.7184V5.93457H33.8105C33.7191 5.90451 33.6582 5.96463 33.6582 6.05481Z" fill="#161528"/>
<path fill-rule="evenodd" clip-rule="evenodd" d="M52.5696 28.2274H43.6773V24.951H52.5696C52.6305 24.951 52.7219 24.8909 52.7219 24.8007V22.5163H44.7127C42.8246 22.5163 41.2715 20.9833 41.2715 19.1196V8.26855H44.5604V19.1497C44.5604 19.2399 44.6213 19.3301 44.7431 19.3301H52.5696C52.6305 19.3301 52.7219 19.2699 52.7219 19.1497V8.26855H56.0108V24.8308C55.9803 26.6944 54.4577 28.2274 52.5696 28.2274Z" fill="#161528"/>
<path fill-rule="evenodd" clip-rule="evenodd" d="M61.8883 2.6582V18.2886C61.8883 18.3788 61.9492 18.4689 62.0406 18.4689H64.9641V21.7153H62.0406C60.1525 21.7153 58.5994 20.1823 58.5994 18.3186V2.68826H61.8883V2.6582Z" fill="#161528"/>
<path fill-rule="evenodd" clip-rule="evenodd" d="M81.5 16.1244V10.7439C81.5 8.88031 79.9469 7.34733 78.0588 7.37739H70.2323C68.3442 7.37739 66.7911 8.91037 66.7911 10.774V18.2886C66.7911 20.1522 68.3442 21.6852 70.2323 21.6852H81.5V18.4389H70.2019C70.0801 18.4389 70.0192 18.3487 70.0192 18.2585V16.1244H81.5ZM78.2415 10.744V12.8782H70.0496V10.744C70.0496 10.6238 70.141 10.5637 70.2323 10.5637H78.0588C78.1806 10.5637 78.2415 10.6538 78.2415 10.744Z" fill="#161528"/>
<rect x="1.35254" width="23.0185" height="20.9083" fill="white"/>
<path fill-rule="evenodd" clip-rule="evenodd" d="M11.1824 0H1.82559C1.09349 0 0.5 0.586251 0.5 1.30943V23.9548C0.5 24.6779 1.09349 25.2642 1.82559 25.2642H24.7505C25.4826 25.2642 26.0761 24.6779 26.0761 23.9548V1.30943C26.0761 0.586251 25.4826 0 24.7505 0H21.1589H12.9414V0.528852C12.9414 0.658375 12.9414 16.0651 12.9414 16.2378V16.4105C12.8977 17.2308 12.6355 17.8784 12.1329 18.3749C11.1494 19.3463 9.44486 19.4759 7.95881 19.4759C5.94827 19.4759 3.23842 19.2168 2.77949 17.0797L2.71393 16.54C2.69208 16.4321 2.69208 16.1298 2.69208 15.3527C2.69208 14.6187 2.69208 13.5826 2.69208 12.5032V12.2873V4.17054C2.69208 3.65245 2.86691 3.22071 3.23842 2.85372C3.60993 2.48674 4.047 2.31404 4.57149 2.31404L9.48857 2.33563L9.6634 2.3788V3.84673V4.01943H9.48857H9.22632H8.57071H4.72447C4.59335 4.01943 4.52778 4.08419 4.52778 4.17054C4.52778 4.42959 4.52778 4.55911 4.52778 4.55911V7.84036H8.06808H8.24291V8.01306V9.35146V9.52416H8.06808H4.52778V13.1508V13.4099V16.4321C4.57149 17.6409 6.38535 17.8784 7.9151 17.8784C8.59257 17.8568 10.0349 17.8568 10.6905 17.2092C10.8653 17.0365 11.0293 16.7127 11.1824 16.2378V0.978915V0Z" fill="#FF2E63"/>
</svg>
