<svg viewBox="0 0 52 52" fill="none" xmlns="http://www.w3.org/2000/svg">
<rect width="52" height="52" rx="8" fill="black" fill-opacity="0.3"/>
<path fill-rule="evenodd" clip-rule="evenodd" d="M21.6515 17.5C19.1305 17.5 17.5005 19.229 17.5005 21.904V30.05C17.5005 32.726 19.1305 34.454 21.6515 34.454H30.2975C32.8225 34.454 34.4535 32.726 34.4535 30.05V21.904C34.4555 20.541 34.0395 19.403 33.2515 18.614C32.5235 17.885 31.5045 17.5 30.3025 17.5H21.6515ZM30.2975 35.954H21.6515C18.2715 35.954 16.0005 33.581 16.0005 30.05V21.904C16.0005 18.373 18.2715 16 21.6515 16H30.3025C31.9105 16 33.2975 16.537 34.3125 17.554C35.3735 18.616 35.9555 20.161 35.9535 21.905V30.05C35.9535 33.581 33.6805 35.954 30.2975 35.954Z" fill="white"/>
<path fill-rule="evenodd" clip-rule="evenodd" d="M22.8565 21.6895C22.2525 21.6895 21.7615 22.1805 21.7615 22.7855C21.7615 23.3895 22.2525 23.8805 22.8575 23.8805C23.4615 23.8805 23.9535 23.3895 23.9535 22.7865C23.9525 22.1815 23.4605 21.6905 22.8565 21.6895ZM22.8575 25.3805C21.4255 25.3805 20.2615 24.2165 20.2615 22.7855C20.2615 21.3535 21.4255 20.1895 22.8575 20.1895C24.2885 20.1905 25.4525 21.3545 25.4535 22.7845C25.4535 24.2155 24.2895 25.3805 22.8575 25.3805Z" fill="white"/>
<path fill-rule="evenodd" clip-rule="evenodd" d="M17.7491 34.1113C17.6251 34.1113 17.4991 34.0803 17.3831 34.0153C17.0211 33.8123 16.8941 33.3553 17.0961 32.9943C17.1561 32.8863 18.5911 30.3493 20.1701 29.0493C21.4221 28.0193 22.7701 28.5853 23.8561 29.0423C24.4951 29.3113 25.0991 29.5653 25.6791 29.5653C26.2111 29.5653 26.8781 28.6253 27.4681 27.7963C28.2871 26.6403 29.2171 25.3323 30.5791 25.3323C32.7491 25.3323 34.6221 27.2683 35.6291 28.3083L35.7451 28.4283C36.0331 28.7253 36.0261 29.2003 35.7291 29.4893C35.4341 29.7783 34.9591 29.7713 34.6691 29.4733L34.5511 29.3513C33.6991 28.4703 32.1131 26.8323 30.5791 26.8323C29.9911 26.8323 29.3011 27.8053 28.6901 28.6643C27.8521 29.8443 26.9851 31.0653 25.6791 31.0653C24.7961 31.0653 23.9871 30.7253 23.2741 30.4243C22.1401 29.9463 21.6261 29.7933 21.1231 30.2073C19.7591 31.3313 18.4171 33.7053 18.4041 33.7283C18.2671 33.9733 18.0121 34.1113 17.7491 34.1113Z" fill="white"/>
</svg>
