<svg xmlns="http://www.w3.org/2000/svg" viewBox="0 0 258 258">
  <g>
    <circle cx="129" cy="129" r="129"/>
    <circle cx="129" cy="129" r="119.5" fill="#FFF"/>
    <g transform="translate(71 60)">
      <path d="M72.9,24.6 C72.9,27.3 72.9,29.7 72.9,32.3 C59.6,32.3 46.4,32.3 33,32.3 C33,29.8 33,27.3 33,24.6 C46.2,24.6 59.5,24.6 72.9,24.6 Z"/>
      <path d="M18.3.3C41.4.3 64.5.3 87.5.3 95 2.8 97.3 8.3 97.2 15.9 97 41.7 97.1 67.6 97.1 93.4 97.1 94.3 97.1 95.3 97.1 96.3 103.2 95.2 108.3 91.2 111.1 85.7 114.4 79 112.8 71.9 113.3 64.8 112.5 64.8 111.9 64.7 111.4 64.7 106.2 64.6 105.2 63.6 105.2 58.4 105.2 52.4 105.2 46.4 105.2 40.4 105.2 33.1 105.3 32.9 112.5 32.4 112.7 32.4 112.8 32.3 113.1 32.2 113.7 23.4 113.4 14.8 106.8 7.7 104.2 4.8 104.6 3 107.8.3 108.7.3 109.6.3 110.5.3 111.6 1.3 112.8 2.3 113.7 3.4 118.4 9.1 121 15.6 121.2 23 121.3 26.1 121.2 29.2 121.2 32.3 122 32.3 122.4 32.4 122.9 32.4 128.4 32.5 129.3 33.4 129.3 38.8 129.3 44.9 129.3 51 129.3 57 129.3 63.8 128.8 64.3 122.1 64.6 121.9 64.6 121.6 64.8 121.2 64.9 121.2 68.5 121.2 72 121.2 75.6 121.2 84.5 118.1 92 111.3 97.9 107.2 101.4 102.4 103.4 96.9 104.5 96.9 107.3 96.9 110.1 96.9 112.7 67.3 112.7 37.9 112.7 8.5 112.7 8.5 112.1 8.4 111.6 8.4 111.2 8.4 78.4 8.4 45.6 8.4 12.8 8.4 11.7 8.5 10.7 8.8 9.6 10.1 4.6 13.8 2 18.3.3zM52.9 40.6C60.7 40.6 68.5 40.6 76.2 40.6 79.5 40.6 81 39.1 81 35.8 81.1 31 81.1 26.1 81 21.3 81 17.9 79.5 16.4 76 16.4 60.5 16.4 45.1 16.4 29.6 16.4 26.2 16.4 24.7 17.9 24.6 21.3 24.6 25.9 24.6 30.6 24.6 35.2 24.6 39.1 26 40.5 30 40.5 37.7 40.6 45.3 40.6 52.9 40.6zM53 104.9C66.6 104.9 76.2 91.5 71.8 78.7 68.3 68.5 62.4 59.5 56.4 50.6 54.6 47.9 51.3 47.9 49.4 50.7 43.4 59.6 37.5 68.5 34 78.8 29.7 91.6 39.4 105 53 104.9zM32.8 52.7C32.8 50.6 31 48.7 28.9 48.7 26.8 48.6 24.9 50.4 24.8 52.5 24.7 54.7 26.6 56.7 28.8 56.7 30.9 56.6 32.7 54.8 32.8 52.7zM52.9 137.7C37.4 137.7 22 137.7 6.5 137.7 1.8 137.7.6 136.5.6 131.9.6 129.8.6 127.8.6 125.7.7 122.6 2.2 121.1 5.3 121.1 8 121 10.7 121.1 13.3 121.1 41.8 121.1 70.4 121.1 98.9 121.1 104.1 121.1 105.2 122.2 105.2 127.3 105.2 129.1 105.2 130.9 105.2 132.7 105.1 136.3 103.7 137.7 100.1 137.7 87.9 137.7 75.8 137.7 63.6 137.7 60.1 137.7 56.5 137.7 52.9 137.7z"/>
      <path d="M53.6,60.1 C57.1,66.9 60.8,73.6 63.9,80.6 C66.9,87.4 63.1,94.4 56.1,96.4 C49.4,98.3 42.5,94.1 41.2,87 C40.9,85.1 41,82.8 41.8,81 C45.1,73.9 48.7,67 52.2,60 C52.7,60.1 53.2,60.1 53.6,60.1 Z"/>
    </g>
  </g>
</svg>
