<svg width="24" height="24" viewBox="0 0 24 24" fill="none" xmlns="http://www.w3.org/2000/svg">
<path fill-rule="evenodd" clip-rule="evenodd" d="M12 13.5C12.8284 13.5 13.5 12.8284 13.5 12C13.5 11.1716 12.8284 10.5 12 10.5C11.1715 10.5 10.5 11.1716 10.5 12C10.5 12.8284 11.1715 13.5 12 13.5ZM12 15C13.6568 15 15 13.6569 15 12C15 10.3431 13.6568 9 12 9C10.3431 9 8.99997 10.3431 8.99997 12C8.99997 13.6569 10.3431 15 12 15Z" fill="currentColor"/>
<path fill-rule="evenodd" clip-rule="evenodd" d="M2.83969 7.86603C2.28741 8.82261 2.61516 10.0458 3.57175 10.5981L4.5331 11.1531C4.83198 11.3257 4.99997 11.6549 4.99997 12C4.99997 12.3451 4.83197 12.6744 4.53308 12.8469L3.57179 13.4019C2.61521 13.9542 2.28746 15.1774 2.83974 16.134L3.83974 17.866C4.39203 18.8226 5.61521 19.1504 6.57179 18.5981L7.53205 18.0437C7.83132 17.8709 8.19989 17.8899 8.49898 18.063C8.79765 18.2358 8.99997 18.5463 8.99997 18.8913V20C8.99997 21.1046 9.8954 22 11 22H13C14.1045 22 15 21.1046 15 20V18.8913C15 18.5463 15.2023 18.2358 15.501 18.063C15.8001 17.8899 16.1686 17.8709 16.4679 18.0437L17.4282 18.5981C18.3847 19.1504 19.6079 18.8226 20.1602 17.866L21.1602 16.134C21.7125 15.1774 21.3847 13.9542 20.4282 13.4019L19.4669 12.8469C19.168 12.6744 19 12.3451 19 12C19 11.6549 19.168 11.3257 19.4668 11.1531L20.4282 10.5981C21.3848 10.0458 21.7125 8.82261 21.1603 7.86603L20.1603 6.13398C19.608 5.17739 18.3848 4.84964 17.4282 5.40192L16.4679 5.95634C16.1687 6.12912 15.8001 6.11014 15.501 5.93705C15.2023 5.76421 15 5.45373 15 5.10865V4C15 2.89543 14.1045 2 13 2H11C9.8954 2 8.99997 2.89543 8.99997 4V5.10865C8.99997 5.45373 8.79765 5.76421 8.49897 5.93705C8.19988 6.11014 7.83129 6.12912 7.53202 5.95634L6.57174 5.40192C5.61516 4.84964 4.39198 5.17739 3.83969 6.13398L2.83969 7.86603ZM11 3.5C10.7238 3.5 10.5 3.72386 10.5 4V5.10865C10.5 6.05683 9.95054 6.8301 9.25028 7.23534C8.54451 7.64376 7.60078 7.72809 6.78202 7.25538L5.82174 6.70096C5.5826 6.56289 5.2768 6.64483 5.13873 6.88398L4.13873 8.61603C4.00066 8.85517 4.0826 9.16097 4.32174 9.29904L5.2831 9.85408C6.10189 10.3268 6.49997 11.1867 6.49997 12C6.49997 12.8133 6.10189 13.6732 5.28308 14.146L4.32179 14.701C4.08265 14.839 4.00071 15.1448 4.13878 15.384L5.13878 17.116C5.27685 17.3552 5.58265 17.4371 5.82179 17.299L6.78205 16.7446C7.6008 16.2719 8.54453 16.3563 9.25028 16.7647C9.95055 17.1699 10.5 17.9432 10.5 18.8913V20C10.5 20.2761 10.7238 20.5 11 20.5H13C13.2761 20.5 13.5 20.2761 13.5 20V18.8913C13.5 17.9432 14.0494 17.1699 14.7497 16.7647C15.4554 16.3563 16.3991 16.2719 17.2179 16.7446L18.1782 17.299C18.4173 17.4371 18.7231 17.3552 18.8612 17.116L19.8612 15.384C19.9992 15.1448 19.9173 14.839 19.6782 14.701L18.7169 14.146C17.8981 13.6732 17.5 12.8133 17.5 12C17.5 11.1867 17.8981 10.3268 18.7168 9.85408L19.6782 9.29904C19.9173 9.16097 19.9993 8.85517 19.8612 8.61603L18.8612 6.88397C18.7231 6.64483 18.4173 6.56289 18.1782 6.70096L17.2179 7.25538C16.3992 7.72809 15.4554 7.64376 14.7497 7.23534C14.0494 6.8301 13.5 6.05682 13.5 5.10865V4C13.5 3.72386 13.2761 3.5 13 3.5H11Z" fill="currentColor"/>
</svg>
