<svg viewBox="0 0 21 21" fill="none" xmlns="http://www.w3.org/2000/svg">
<path d="M20.5 10.4487C20.5 9.62651 20.4319 9.02651 20.2846 8.4043H10.7041V12.1154H16.3276C16.2143 13.0376 15.6021 14.4265 14.2415 15.3598L14.2224 15.484L17.2516 17.7838L17.4615 17.8043C19.3889 16.0598 20.5 13.4931 20.5 10.4487Z" fill="#4285F4"/>
<path d="M10.7035 20.2274C13.4586 20.2274 15.7715 19.3384 17.4608 17.8051L14.2409 15.3606C13.3792 15.9495 12.2228 16.3606 10.7035 16.3606C8.00514 16.3606 5.71492 14.6162 4.89852 12.2051L4.77885 12.215L1.62908 14.604L1.58789 14.7162C3.26587 17.9828 6.71257 20.2274 10.7035 20.2274Z" fill="#34A853"/>
<path d="M4.89904 12.2048C4.68363 11.5826 4.55896 10.9159 4.55896 10.227C4.55896 9.53809 4.68363 8.87145 4.88771 8.24924L4.882 8.11672L1.69275 5.68945L1.58841 5.73809C0.896829 7.09366 0.5 8.61592 0.5 10.227C0.5 11.8381 0.896829 13.3603 1.58841 14.7159L4.89904 12.2048Z" fill="#FBBC05"/>
<path d="M10.7036 4.0932C12.6196 4.0932 13.9121 4.90431 14.6491 5.58213L17.5289 2.82656C15.7603 1.21545 13.4586 0.226562 10.7036 0.226562C6.7126 0.226562 3.26588 2.47099 1.58789 5.73763L4.8872 8.24877C5.71494 5.83766 8.00517 4.0932 10.7036 4.0932Z" fill="#EB4335"/>
</svg>
