<svg width="24" height="24" viewBox="0 0 24 24" fill="none" xmlns="http://www.w3.org/2000/svg">
<path fill-rule="evenodd" clip-rule="evenodd" d="M2 20C2 19.5858 2.33579 19.25 2.75 19.25H21.25C21.6642 19.25 22 19.5858 22 20C22 20.4142 21.6642 20.75 21.25 20.75H2.75C2.33579 20.75 2 20.4142 2 20Z" fill="currentColor"/>
<path fill-rule="evenodd" clip-rule="evenodd" d="M2 12C2 11.5858 2.33579 11.25 2.75 11.25H15.25C15.6642 11.25 16 11.5858 16 12C16 12.4142 15.6642 12.75 15.25 12.75H2.75C2.33579 12.75 2 12.4142 2 12Z" fill="currentColor"/>
<path fill-rule="evenodd" clip-rule="evenodd" d="M2 4C2 3.58579 2.33579 3.25 2.75 3.25H21.25C21.6642 3.25 22 3.58579 22 4C22 4.41421 21.6642 4.75 21.25 4.75H2.75C2.33579 4.75 2 4.41421 2 4Z" fill="currentColor"/>
</svg>
