<svg viewBox="0 0 22 22" fill="none" xmlns="http://www.w3.org/2000/svg">
<path fill-rule="evenodd" clip-rule="evenodd" d="M3.23233 3.37945C4.15586 2.38865 5.47148 1.8335 7.02641 1.8335H14.973C16.5316 1.8335 17.8478 2.38835 18.7709 3.37971C19.6888 4.36553 20.1668 5.72713 20.1668 7.2565V14.7438C20.1668 16.2732 19.6888 17.6348 18.7707 18.6207C17.8475 19.612 16.5311 20.1668 14.9721 20.1668H7.02641C5.4678 20.1668 4.1518 19.612 3.22892 18.6205C2.31122 17.6347 1.8335 16.2731 1.8335 14.7438V7.2565C1.8335 5.72637 2.3138 4.36489 3.23233 3.37945ZM4.23815 4.31698C3.59628 5.0056 3.2085 6.01187 3.2085 7.2565V14.7438C3.2085 15.9893 3.59473 16.9955 4.23536 17.6837C4.87081 18.3663 5.80753 18.7918 7.02641 18.7918H14.9721C16.1915 18.7918 17.1287 18.3663 17.7645 17.6836C18.4054 16.9953 18.7918 15.9892 18.7918 14.7438V7.2565C18.7918 6.01111 18.4054 5.00496 17.7646 4.31672C17.1289 3.63401 16.1919 3.2085 14.973 3.2085H7.02641C5.8121 3.2085 4.87501 3.63372 4.23815 4.31698Z" fill="currentColor"/>
<path d="M13.6886 9.12312C13.6886 10.5917 12.5315 11.651 11.9632 12.1713L11.9521 12.1815L11.789 12.3276C11.6956 12.4935 11.6476 12.681 11.6497 12.8713C11.6497 13.0516 11.5781 13.2244 11.4506 13.3519C11.3231 13.4793 11.1503 13.5509 10.97 13.5509C10.7898 13.5509 10.6169 13.4793 10.4895 13.3519C10.362 13.2244 10.2904 13.0516 10.2904 12.8713C10.2839 12.323 10.4757 11.7907 10.8307 11.3727C10.8817 11.3183 10.953 11.2538 11.038 11.1756C11.4594 10.7984 12.3293 10.01 12.3293 9.13672C12.3413 8.9551 12.3144 8.77302 12.2503 8.60266C12.1863 8.4323 12.0865 8.27759 11.9579 8.14889C11.8292 8.02019 11.6744 7.92048 11.5041 7.85642C11.3337 7.79235 11.1516 7.76543 10.97 7.77745C10.7884 7.76543 10.6063 7.79235 10.436 7.85642C10.2656 7.92048 10.1109 8.02019 9.9822 8.14889C9.85351 8.27759 9.75379 8.4323 9.68973 8.60266C9.62567 8.77302 9.59874 8.9551 9.61076 9.13672C9.61076 9.31697 9.53915 9.48983 9.4117 9.61729C9.28424 9.74475 9.11137 9.81635 8.93112 9.81635C8.75087 9.81635 8.578 9.74475 8.45055 9.61729C8.32309 9.48983 8.25149 9.31697 8.25149 9.13672C8.23967 8.77652 8.3019 8.41773 8.43434 8.08255C8.56678 7.74738 8.76659 7.44295 9.02143 7.18812C9.27626 6.93328 9.58069 6.73346 9.91587 6.60103C10.251 6.46859 10.6098 6.40636 10.97 6.41817C11.329 6.40645 11.6867 6.46829 12.0209 6.5999C12.3551 6.73151 12.6589 6.93011 12.9135 7.18347C13.1682 7.43683 13.3683 7.73961 13.5016 8.07317C13.6349 8.40674 13.6985 8.76405 13.6886 9.12312Z" fill="currentColor"/>
<path d="M11.3472 14.3359C11.3106 14.3111 11.272 14.2895 11.2317 14.2714C11.1898 14.2553 11.1466 14.2428 11.1026 14.234C11.0029 14.2141 10.9001 14.2169 10.8016 14.2421C10.7032 14.2672 10.6117 14.3141 10.5337 14.3793C10.4558 14.4445 10.3935 14.5264 10.3514 14.6188C10.3093 14.7113 10.2884 14.812 10.2904 14.9136C10.2854 14.9576 10.2854 15.0021 10.2904 15.0461C10.2992 15.0901 10.3118 15.1333 10.3278 15.1753C10.3459 15.2156 10.3675 15.2542 10.3923 15.2908C10.4165 15.3281 10.4438 15.3634 10.4739 15.3962C10.5401 15.4584 10.6182 15.5066 10.7034 15.5382C10.7886 15.5697 10.8793 15.5838 10.97 15.5797C11.0141 15.5847 11.0585 15.5847 11.1026 15.5797C11.1469 15.5724 11.1903 15.5598 11.2317 15.5423C11.2726 15.5254 11.3114 15.5038 11.3472 15.4777C11.4244 15.4323 11.4887 15.368 11.5341 15.2908C11.5602 15.255 11.5819 15.2162 11.5987 15.1753C11.6163 15.1339 11.6288 15.0905 11.6361 15.0461C11.6411 15.0021 11.6411 14.9576 11.6361 14.9136C11.6366 14.8242 11.6194 14.7355 11.5856 14.6527C11.5518 14.5699 11.502 14.4946 11.439 14.4311C11.4111 14.3969 11.3804 14.365 11.3472 14.3359Z" fill="currentColor"/>
</svg>
