<svg xmlns="http://www.w3.org/2000/svg" viewBox="0 0 258 258">
  <g>
    <circle cx="129" cy="129" r="129"/>
    <circle cx="129" cy="128.5" r="119.5" fill="#FFF"/>
    <path d="M200,188 C200,189.7 200,191.3 200,193 C152.7,193 105.3,193 58,193 C58,191.5 58,189.9 58,188.2 C61.3,188.2 64.2,188.2 67.3,188.2 C67.3,161.3 67.3,134.7 67.3,108.1 C62.8,107.4 62.8,107.4 62.8,102.8 C62.8,100.8 62.8,98.7 62.8,96.7 C62.8,92 62.8,92 67.5,90.9 C67.5,88.9 67.5,86.9 67.5,84.9 C67.5,79.6 67.5,79.6 72.9,79.4 C73.4,79.4 73.9,79.3 74.6,79.2 C74.6,71 74.6,63 74.6,55 C74.6,51.6 75.1,51.1 78.4,51.1 C112.1,51.1 145.8,51.1 179.6,51.1 C182.8,51.1 183.4,51.7 183.4,54.8 C183.4,62 183.4,69.2 183.4,76.4 C183.4,77.4 183.4,78.3 183.4,79.4 C184.7,79.4 185.5,79.4 186.3,79.4 C189.9,79.4 190.5,80 190.5,83.5 C190.5,86 190.5,88.4 190.5,90.9 C195.2,91.9 195.2,91.9 195.2,96.5 C195.2,98.5 195.2,100.6 195.2,102.6 C195.2,107.3 195.2,107.3 190.7,108.1 C190.7,134.7 190.7,161.4 190.7,188 C193.9,188 197,188 200,188 Z M72.4,107.9 C72.4,134.7 72.4,161.3 72.4,188 C110.2,188 147.8,188 185.6,188 C185.6,161.2 185.6,134.7 185.6,107.9 C147.8,107.9 110.3,107.9 72.4,107.9 Z M79.4,79.1 C112.6,79.1 145.6,79.1 178.5,79.1 C178.5,71.3 178.5,63.6 178.5,56 C145.4,56 112.4,56 79.4,56 C79.4,63.8 79.4,71.4 79.4,79.1 Z M67.5,102.9 C108.6,102.9 149.4,102.9 190.3,102.9 C190.3,100.5 190.3,98.4 190.3,96.1 C149.3,96.1 108.4,96.1 67.5,96.1 C67.5,98.4 67.5,100.5 67.5,102.9 Z M72.4,91.1 C110.2,91.1 147.8,91.1 185.6,91.1 C185.6,88.8 185.6,86.6 185.6,84.4 C147.8,84.4 110.1,84.4 72.4,84.4 C72.4,86.7 72.4,88.8 72.4,91.1 Z"/>
    <path d="M72.4,107.9 C110.3,107.9 147.8,107.9 185.6,107.9 C185.6,134.6 185.6,161.2 185.6,188 C147.9,188 110.2,188 72.4,188 C72.4,161.3 72.4,134.8 72.4,107.9 Z M79.3,166.6 C79.3,170.3 79.3,174 79.3,177.7 C79.3,180.1 80.3,181.3 82.8,181.3 C87.6,181.3 92.4,181.3 97.2,181.3 C99.6,181.3 100.8,180.3 100.7,177.8 C100.7,170.6 100.7,163.4 100.7,156.2 C100.7,153.9 99.7,152.8 97.4,152.8 C92.5,152.8 87.6,152.8 82.7,152.8 C80.2,152.8 79.3,154 79.3,156.4 C79.3,159.8 79.3,163.2 79.3,166.6 Z M178.7,166.9 C178.7,163.3 178.7,159.7 178.7,156.1 C178.7,153.8 177.7,152.7 175.4,152.7 C170.5,152.7 165.6,152.7 160.7,152.7 C158.4,152.7 157.3,153.7 157.3,156 C157.3,163.2 157.3,170.4 157.3,177.6 C157.3,180 158.4,181.2 160.8,181.1 C165.6,181.1 170.4,181.1 175.2,181.1 C177.6,181.1 178.7,180 178.7,177.6 C178.7,174.1 178.7,170.5 178.7,166.9 Z M100.6,128.9 C100.6,125.4 100.6,121.9 100.6,118.4 C100.6,116 99.6,114.8 97.1,114.8 C92.3,114.8 87.5,114.9 82.7,114.8 C80.3,114.8 79.1,115.9 79.2,118.3 C79.2,125.5 79.2,132.7 79.2,139.9 C79.2,142.2 80.1,143.3 82.5,143.3 C87.4,143.2 92.3,143.2 97.2,143.3 C99.7,143.3 100.7,142.1 100.6,139.7 C100.6,136.1 100.6,132.5 100.6,128.9 Z M157.4,129.1 C157.4,132.7 157.4,136.3 157.4,139.9 C157.4,142.2 158.4,143.3 160.7,143.3 C165.6,143.3 170.5,143.2 175.4,143.3 C177.7,143.3 178.8,142.3 178.8,140 C178.8,132.7 178.8,125.4 178.8,118.1 C178.8,115.8 177.7,114.8 175.4,114.8 C170.6,114.8 165.8,114.9 161,114.8 C158.4,114.8 157.4,116 157.4,118.6 C157.4,122.1 157.4,125.6 157.4,129.1 Z M140.8,167 C140.8,163.4 140.7,159.8 140.8,156.2 C140.9,153.9 139.9,152.7 137.6,152.8 C132.6,152.8 127.6,152.8 122.7,152.8 C120.5,152.8 119.6,153.9 119.6,156.1 C119.7,163.4 119.7,170.7 119.6,177.9 C119.6,180.3 120.7,181.2 123,181.2 C127.8,181.2 132.6,181.2 137.4,181.2 C139.8,181.2 141,180.3 140.9,177.7 C140.7,174.2 140.8,170.6 140.8,167 Z M119.5,129.1 C119.5,132.7 119.6,136.3 119.5,139.9 C119.4,142.2 120.4,143.3 122.8,143.3 C127.7,143.3 132.6,143.3 137.5,143.3 C139.8,143.3 140.9,142.4 140.8,140 C140.7,132.7 140.8,125.4 140.8,118.2 C140.8,116 139.9,114.9 137.7,114.9 C132.7,114.9 127.7,114.9 122.8,114.9 C120.5,114.9 119.5,116.1 119.6,118.4 C119.6,121.9 119.5,125.5 119.5,129.1 Z"/>
    <path fill="#FFF" d="M79.4 79.1C79.4 71.3 79.4 63.8 79.4 56 112.4 56 145.4 56 178.5 56 178.5 63.6 178.5 71.3 178.5 79.1 145.5 79.1 112.6 79.1 79.4 79.1zM118.1 59.2C113.5 59.2 110.3 62.5 110.3 67.1 110.4 71.6 113.7 74.9 118.3 74.9 122.8 74.8 125.8 71.7 125.9 67.1 125.9 62.3 122.7 59.2 118.1 59.2zM105.2 74.5C107.4 75.1 108.1 74.5 108.1 72.6 108 68.5 108.1 64.5 108 60.4 108 60.1 107.8 59.7 107.7 59.3 106.8 59.4 106.1 59.5 105.1 59.6 105.1 61.8 105.1 63.8 105.1 65.8 102.6 65.8 100.4 65.8 97.9 65.8 97.9 63.6 97.9 61.6 97.9 59.5 96.9 59.5 96.1 59.5 95.2 59.5 95.2 64.6 95.2 69.5 95.2 74.6 96.1 74.6 96.9 74.6 97.9 74.6 97.9 72.4 97.9 70.3 97.9 68.2 100.4 68.2 102.7 68.2 105.1 68.2 105.2 70.4 105.2 72.4 105.2 74.5zM140.2 74.7C142.9 74.7 145.5 74.8 148 74.6 148.6 74.6 149.1 73.8 149.6 73.3 149.1 73 148.5 72.4 147.9 72.4 146.3 72.3 144.6 72.4 143 72.4 143 70.8 143 69.5 143 68 144.3 68 145.5 68.1 146.7 68 147.3 67.9 147.7 67.3 148.3 67 147.8 66.6 147.3 66 146.8 66 145.6 65.8 144.3 65.9 143.1 65.9 143.1 64.2 143.1 63 143.1 61.6 144.7 61.6 146 61.6 147.4 61.6 149.6 61.6 149.6 61.6 149.3 59.5 146.3 59.5 143.3 59.5 140.2 59.5 140.2 64.6 140.2 69.5 140.2 74.7zM133.5 61.6C134.8 61.6 135.8 61.7 136.8 61.5 137.3 61.4 137.7 60.7 138.2 60.3 137.8 60 137.4 59.3 136.9 59.3 133.3 59.2 129.8 59.3 126.1 59.3 126.1 63.3 129.5 60.5 130.8 62.5 130.8 66.2 130.8 70.4 130.8 74.5 132.9 75.1 133.6 74.5 133.5 72.6 133.4 69 133.5 65.4 133.5 61.6zM155.1 59.3C153.9 59.4 153.2 59.4 152.3 59.4 152.3 64.5 152.3 69.5 152.3 74.5 155.2 74.5 158.1 74.5 160.8 74.5 160.9 72.8 160.9 72.8 155 71.9 155.1 67.9 155.1 63.8 155.1 59.3zM67.5 102.9C67.5 100.5 67.5 98.4 67.5 96.1 108.5 96.1 149.3 96.1 190.3 96.1 190.3 98.3 190.3 100.5 190.3 102.9 149.5 102.9 108.6 102.9 67.5 102.9zM72.4 91.1C72.4 88.8 72.4 86.7 72.4 84.4 110.1 84.4 147.7 84.4 185.6 84.4 185.6 86.6 185.6 88.7 185.6 91.1 147.8 91.1 110.2 91.1 72.4 91.1z"/>
    <path d="M118.1 59.2C122.7 59.2 125.9 62.4 125.8 67.1 125.8 71.6 122.7 74.8 118.2 74.9 113.7 75 110.3 71.7 110.2 67.1 110.3 62.5 113.5 59.2 118.1 59.2zM113.3 66.9C113.3 70.3 115.1 72.4 118.1 72.3 121 72.3 122.8 70.2 122.8 67 122.8 63.7 120.9 61.5 117.9 61.5 115.2 61.6 113.4 63.7 113.3 66.9zM105.2 74.5C105.2 72.4 105.2 70.4 105.2 68.2 102.8 68.2 100.5 68.2 98 68.2 98 70.3 98 72.4 98 74.6 96.9 74.6 96.2 74.6 95.3 74.6 95.3 69.5 95.3 64.6 95.3 59.5 96.2 59.5 97 59.5 98 59.5 98 61.6 98 63.6 98 65.8 100.5 65.8 102.7 65.8 105.2 65.8 105.2 63.8 105.2 61.8 105.2 59.6 106.2 59.5 106.9 59.4 107.8 59.3 107.9 59.8 108.1 60.1 108.1 60.4 108.1 64.5 108 68.5 108.2 72.6 108.1 74.5 107.4 75.1 105.2 74.5zM140.2 74.7C140.2 69.5 140.2 64.5 140.2 59.4 143.3 59.4 146.3 59.4 149.3 59.4 149.6 61.4 149.6 61.5 147.4 61.5 146 61.5 144.7 61.5 143.1 61.5 143.1 62.9 143.1 64.2 143.1 65.8 144.3 65.8 145.6 65.7 146.8 65.9 147.3 66 147.8 66.6 148.3 66.9 147.8 67.3 147.3 67.9 146.7 67.9 145.5 68.1 144.3 67.9 143 67.9 143 69.4 143 70.6 143 72.3 144.7 72.3 146.3 72.2 147.9 72.3 148.5 72.3 149 72.9 149.6 73.2 149.1 73.6 148.5 74.4 148 74.5 145.5 74.8 142.9 74.7 140.2 74.7zM133.5 61.6C133.5 65.4 133.4 69 133.5 72.6 133.6 74.5 132.9 75.2 130.8 74.5 130.8 70.4 130.8 66.2 130.8 62.5 129.5 60.5 126.1 63.3 126.1 59.3 129.8 59.3 133.3 59.3 136.9 59.3 137.3 59.3 137.7 60 138.2 60.3 137.7 60.7 137.3 61.4 136.8 61.5 135.9 61.7 134.8 61.6 133.5 61.6zM155.1 59.3C155.1 63.8 155.1 67.9 155.1 72 161 72.9 161 72.9 160.9 74.6 158.1 74.6 155.3 74.6 152.4 74.6 152.4 69.5 152.4 64.6 152.4 59.5 153.2 59.4 154 59.4 155.1 59.3z"/>
    <path fill="#FFF" d="M113.3,66.9 C113.3,63.7 115.2,61.6 118,61.6 C120.9,61.6 122.9,63.8 122.9,67.1 C122.9,70.3 121,72.3 118.2,72.4 C115.2,72.3 113.3,70.3 113.3,66.9 Z"/>
  </g>
</svg>
