<svg xmlns="http://www.w3.org/2000/svg" viewBox="0 0 24 24">
  <path d="M3.76831 3.40548C3.76831 3.22354 3.84059 3.04906 3.96924 2.92041C4.09789 2.79176 4.27237 2.71948 4.45431 2.71948H19.5463C19.7283 2.71948 19.9028 2.79176 20.0314 2.92041C20.1601 3.04906 20.2323 3.22354 20.2323 3.40548C20.2323 3.58742 20.1601 3.76191 20.0314 3.89056C19.9028 4.01921 19.7283 4.09148 19.5463 4.09148H18.1743V5.46349C18.1746 6.62836 17.8454 7.76955 17.2246 8.75523C16.6038 9.7409 15.7168 10.5309 14.6661 11.0338C14.2682 11.2245 14.0583 11.5511 14.0583 11.8433V12.8037C14.0583 13.0959 14.2696 13.4225 14.6661 13.6132C15.7168 14.1161 16.6038 14.9061 17.2246 15.8918C17.8454 16.8774 18.1746 18.0186 18.1743 19.1835V20.5555H19.5463C19.7283 20.5555 19.9028 20.6278 20.0314 20.7564C20.1601 20.8851 20.2323 21.0596 20.2323 21.2415C20.2323 21.4235 20.1601 21.5979 20.0314 21.7266C19.9028 21.8552 19.7283 21.9275 19.5463 21.9275H4.45431C4.27237 21.9275 4.09789 21.8552 3.96924 21.7266C3.84059 21.5979 3.76831 21.4235 3.76831 21.2415C3.76831 21.0596 3.84059 20.8851 3.96924 20.7564C4.09789 20.6278 4.27237 20.5555 4.45431 20.5555H5.82631V19.1835C5.82603 18.0186 6.1553 16.8774 6.77608 15.8918C7.39687 14.9061 8.28383 14.1161 9.33453 13.6132C9.73241 13.4225 9.94232 13.0959 9.94232 12.8037V11.8433C9.94232 11.5511 9.73103 11.2245 9.33453 11.0338C8.28383 10.5309 7.39687 9.7409 6.77608 8.75523C6.1553 7.76955 5.82603 6.62836 5.82631 5.46349V4.09148H4.45431C4.27237 4.09148 4.09789 4.01921 3.96924 3.89056C3.84059 3.76191 3.76831 3.58742 3.76831 3.40548ZM7.19832 4.09148V5.46349C7.19807 6.36958 7.45418 7.25726 7.93707 8.02396C8.41996 8.79066 9.10992 9.4051 9.92723 9.79627C10.6585 10.1475 11.3143 10.8815 11.3143 11.8419V12.8051C11.3143 13.7655 10.6585 14.4995 9.92723 14.8507C9.10992 15.2419 8.41996 15.8563 7.93707 16.623C7.45418 17.3897 7.19807 18.2774 7.19832 19.1835V20.5555H16.8023V19.1835C16.8026 18.2774 16.5465 17.3897 16.0636 16.623C15.5807 15.8563 14.8907 15.2419 14.0734 14.8507C13.3421 14.4995 12.6863 13.7668 12.6863 12.8051V11.8419C12.6863 10.8815 13.3421 10.1475 14.0734 9.79627C14.8907 9.4051 15.5807 8.79066 16.0636 8.02396C16.5465 7.25726 16.8026 6.36958 16.8023 5.46349V4.09148H7.19832Z"/>
</svg>
