<svg width="24" height="24" viewBox="0 0 24 24" fill="none" xmlns="http://www.w3.org/2000/svg">
<path d="M12.3639 2C15.899 2 18.8505 4.64801 19.5484 8.17435L20.6378 5.97149L20.7005 5.86634C20.9092 5.57229 21.2944 5.47372 21.6125 5.65084C21.9659 5.84764 22.1024 6.31028 21.9175 6.68418L19.2338 12.1114L14.9468 8.21056L14.8558 8.11151C14.6397 7.82959 14.6374 7.41629 14.868 7.13163L14.9613 7.03545C15.2269 6.80721 15.617 6.80586 15.8863 7.05087L18.2346 9.18749C17.9533 6.01384 15.4323 3.5303 12.3639 3.5303C10.9241 3.5303 9.60471 4.07718 8.58079 4.98563C8.30508 5.23025 7.99409 5.55556 7.56967 5.11111C7.14524 4.66667 7.37955 4.06188 7.56963 3.88801C8.85584 2.7115 10.5315 2 12.3639 2Z" fill="currentColor"/>
<path d="M6.89538 21.1475V19.0007C6.89537 18.4567 7.36102 18.0147 7.93779 18.0113H10.0556C10.635 18.0113 11.1046 18.4542 11.1046 19.0007V21.1413C11.1046 21.6131 11.5082 21.9966 12.0085 22H13.4533C14.1282 22.0016 14.7759 21.75 15.2537 21.3005C15.7315 20.851 16 20.2407 16 19.6043V13.5061C16 12.992 15.7584 12.5043 15.3402 12.1744L10.4317 8.47199C9.57364 7.82439 8.34817 7.84531 7.51555 8.52177L2.71254 12.1744C2.27465 12.4946 2.01293 12.9837 2 13.5061V19.598C2 20.9246 3.14018 22 4.54665 22H5.95853C6.19939 22.0016 6.43099 21.9125 6.60193 21.7525C6.77286 21.5924 6.869 21.3747 6.86899 21.1475H6.89538Z" fill="currentColor"/>
</svg>
