<svg width="24" height="24" viewBox="0 0 24 24" fill="none" xmlns="http://www.w3.org/2000/svg">
<path d="M8.9934 20.7821V17.7152C8.99339 16.9381 9.6586 16.3067 10.4826 16.3018H13.508C14.3357 16.3018 15.0066 16.9346 15.0066 17.7152V20.7732C15.0066 21.4473 15.5832 21.9951 16.2978 22H18.3619C19.3259 22.0023 20.2513 21.6428 20.9339 21.0007C21.6164 20.3586 22 19.4868 22 18.5775V9.86585C22 9.13139 21.6548 8.43471 21.0575 7.9635L14.0452 2.67427C12.8195 1.74912 11.0688 1.77901 9.87936 2.74538L3.01791 7.9635C2.39236 8.42082 2.01848 9.11956 2 9.86585V18.5686C2 20.4637 3.62882 22 5.63808 22H7.65504C7.99913 22.0023 8.32999 21.8751 8.57418 21.6464C8.81838 21.4178 8.95571 21.1067 8.9557 20.7821H8.9934Z" fill="currentColor"/>
</svg>
