<svg width="24" height="24" viewBox="0 0 24 24" fill="none" xmlns="http://www.w3.org/2000/svg">
<path fill-rule="evenodd" clip-rule="evenodd" d="M9.63505 2.77783C11.0123 1.74072 12.9593 1.74072 14.3366 2.77783L14.3383 2.77906L20.7762 7.65658C21.5272 8.20432 21.9865 9.0562 21.9999 9.97862L22 9.98868L21.9999 18.104C21.9999 20.2954 20.1241 22 17.9016 22H16.0176L16.0022 21.9998C15.0077 21.9779 14.1422 21.2021 14.1424 20.1683V17.3067C14.1424 17.0026 13.8673 16.6843 13.4365 16.6843H10.613C10.1856 16.6879 9.91401 17.0044 9.91401 17.3067V20.1594C9.91401 20.2302 9.90348 20.2985 9.8839 20.3628C9.77741 21.3148 8.93147 22 7.98232 22H6.09831C3.87581 22 2 20.2954 2 18.104V9.99029C2.00961 9.06597 2.46992 8.21185 3.22382 7.66537L9.63505 2.77783ZM8.51867 19.9977V17.3067C8.51865 16.1582 9.49157 15.296 10.6061 15.2889L10.6105 15.2889L13.4365 15.2889C14.5561 15.2889 15.5378 16.1526 15.5378 17.3067V20.1683C15.5377 20.3652 15.7154 20.5948 16.0267 20.6047H17.9016C19.4354 20.6047 20.6046 19.4454 20.6046 18.104V9.99421C20.5964 9.53099 20.3646 9.08189 19.9505 8.78148L19.9389 8.77287L13.4973 3.8925L13.4965 3.89193C12.6168 3.23002 11.3559 3.22982 10.476 3.89133L10.4744 3.8925L4.06265 8.78047L4.04727 8.79186C3.63248 9.09045 3.40121 9.53932 3.39534 10.0015V18.104C3.39534 19.4454 4.56456 20.6047 6.09831 20.6047H7.98232C8.30907 20.6047 8.49983 20.3656 8.49983 20.1594C8.49983 20.1038 8.50635 20.0496 8.51867 19.9977Z" fill="currentColor"/>
</svg>
