<svg width="24" height="24" viewBox="0 0 24 24" fill="none" xmlns="http://www.w3.org/2000/svg">
<path fill-rule="evenodd" clip-rule="evenodd" d="M7.66381 3.50358C5.13726 3.50358 3.50367 5.23657 3.50367 7.91773V16.0825C3.50367 18.7647 5.13726 20.4967 7.66381 20.4967H16.3288C18.8594 20.4967 20.494 18.7647 20.494 16.0825V7.91773C20.496 6.55159 20.0791 5.41097 19.2893 4.62015C18.5597 3.88947 17.5385 3.50358 16.3339 3.50358H7.66381ZM16.3288 22.0001H7.66381C4.27637 22.0001 2.00037 19.6217 2.00037 16.0825V7.91773C2.00037 4.37859 4.27637 2.00012 7.66381 2.00012H16.3339C17.9454 2.00012 19.3355 2.53836 20.3527 3.5577C21.416 4.62215 21.9993 6.17071 21.9973 7.91874V16.0825C21.9973 19.6217 19.7193 22.0001 16.3288 22.0001Z" fill="currentColor"/>
<path fill-rule="evenodd" clip-rule="evenodd" d="M8.87146 7.70274C8.26613 7.70274 7.77405 8.19487 7.77405 8.80126C7.77405 9.40666 8.26613 9.89879 8.87246 9.89879C9.47779 9.89879 9.97088 9.40666 9.97088 8.80227C9.96987 8.19587 9.47679 7.70374 8.87146 7.70274ZM8.87246 11.4022C7.43731 11.4022 6.27075 10.2356 6.27075 8.80126C6.27075 7.36596 7.43731 6.19928 8.87246 6.19928C10.3066 6.20028 11.4732 7.36697 11.4742 8.80026C11.4742 10.2346 10.3076 11.4022 8.87246 11.4022Z" fill="currentColor"/>
<path fill-rule="evenodd" clip-rule="evenodd" d="M3.75282 20.1532C3.62854 20.1532 3.50227 20.1221 3.38601 20.057C3.02321 19.8535 2.89593 19.3954 3.09838 19.0336C3.15851 18.9254 4.59667 16.3825 6.17915 15.0795C7.4339 14.0471 8.78487 14.6144 9.87326 15.0725C10.5137 15.3421 11.119 15.5967 11.7003 15.5967C12.2334 15.5967 12.9019 14.6545 13.4932 13.8236C14.314 12.665 15.2461 11.3539 16.6111 11.3539C18.7858 11.3539 20.663 13.2944 21.6722 14.3368L21.7884 14.4571C22.0771 14.7548 22.0701 15.2309 21.7724 15.5205C21.4768 15.8102 21.0007 15.8032 20.7101 15.5045L20.5918 15.3822C19.7379 14.4992 18.1484 12.8574 16.6111 12.8574C16.0218 12.8574 15.3303 13.8326 14.7179 14.6936C13.8781 15.8763 13.0092 17.1002 11.7003 17.1002C10.8153 17.1002 10.0046 16.7594 9.28998 16.4577C8.15348 15.9786 7.63835 15.8252 7.13425 16.2402C5.76724 17.3668 4.42229 19.7462 4.40926 19.7693C4.27196 20.0149 4.0164 20.1532 3.75282 20.1532Z" fill="currentColor"/>
</svg>
