<svg width="16" height="16" viewBox="0 0 16 16" xmlns="http://www.w3.org/2000/svg">
<g id="info-circle-outline">
<g id="Vector">
<path fill-rule="evenodd" clip-rule="evenodd" d="M8.00004 2.33337C4.87018 2.33337 2.33337 4.87018 2.33337 8.00004C2.33337 11.1293 4.87022 13.6667 8.00004 13.6667C11.1292 13.6667 13.6667 11.1292 13.6667 8.00004C13.6667 4.87022 11.1293 2.33337 8.00004 2.33337ZM1.33337 8.00004C1.33337 4.3179 4.3179 1.33337 8.00004 1.33337C11.6815 1.33337 14.6667 4.31786 14.6667 8.00004C14.6667 11.6815 11.6815 14.6667 8.00004 14.6667C4.31786 14.6667 1.33337 11.6815 1.33337 8.00004Z"/>
<path d="M9.01284 11.697C9.01284 11.697 8.32747 12.2716 7.46404 11.8382C7.2724 11.7424 7.11052 11.5761 7.00713 11.393C6.71393 10.8745 6.82672 10.3181 6.82672 10.3181L7.13663 7.85683L6.52725 7.87015C6.24187 7.87667 6.00637 7.65031 6.0001 7.36519C5.99514 7.14379 6.13222 6.95163 6.32699 6.87408L7.88858 6.25921C8.26037 6.11274 8.68021 6.2955 8.82642 6.6673C8.88229 6.80855 8.89038 6.9558 8.85853 7.09314L8.83791 7.18582L8.07474 10.538C8.05228 10.639 8.04889 10.662 8.04236 10.715C8.02591 11.0168 8.45514 10.7905 8.45514 10.7905C8.71284 10.6482 9.03712 10.7424 9.17863 11.0001C9.31205 11.2421 9.23476 11.5434 9.01284 11.697Z"/>
<path d="M8.23296 3.99999C8.71336 3.99999 9.10265 4.38954 9.10265 4.86994C9.10265 5.35035 8.71336 5.7399 8.23296 5.7399C7.75255 5.7399 7.363 5.35035 7.363 4.86994C7.363 4.38954 7.75255 3.99999 8.23296 3.99999Z"/>
</g>
</g>
</svg>
