<svg width="16" height="17" viewBox="0 0 16 17" fill="none" xmlns="http://www.w3.org/2000/svg">
<path d="M8 0.75C9.375 0.75 10.6875 1.125 11.875 1.8125C13.0625 2.5 14 3.4375 14.6875 4.625C15.375 5.8125 15.75 7.125 15.75 8.5C15.75 9.90625 15.375 11.1875 14.6875 12.375C14 13.5625 13.0625 14.5312 11.875 15.2188C10.6875 15.9062 9.375 16.25 8 16.25C6.59375 16.25 5.3125 15.9062 4.125 15.2188C2.9375 14.5312 1.96875 13.5625 1.28125 12.375C0.59375 11.1875 0.25 9.90625 0.25 8.5C0.25 7.125 0.59375 5.8125 1.28125 4.625C1.96875 3.4375 2.9375 2.5 4.125 1.8125C5.3125 1.125 6.59375 0.75 8 0.75ZM8 4.1875C7.625 4.1875 7.3125 4.34375 7.0625 4.59375C6.8125 4.84375 6.6875 5.15625 6.6875 5.5C6.6875 5.875 6.8125 6.1875 7.0625 6.4375C7.3125 6.6875 7.625 6.8125 8 6.8125C8.34375 6.8125 8.65625 6.6875 8.90625 6.4375C9.15625 6.1875 9.3125 5.875 9.3125 5.5C9.3125 5.15625 9.15625 4.84375 8.90625 4.59375C8.65625 4.34375 8.34375 4.1875 8 4.1875ZM9.75 12.125V11.375C9.75 11.2812 9.6875 11.1875 9.625 11.125C9.5625 11.0625 9.46875 11 9.375 11H9V7.875C9 7.78125 8.9375 7.6875 8.875 7.625C8.8125 7.5625 8.71875 7.5 8.625 7.5H6.625C6.5 7.5 6.40625 7.5625 6.34375 7.625C6.28125 7.6875 6.25 7.78125 6.25 7.875V8.625C6.25 8.75 6.28125 8.84375 6.34375 8.90625C6.40625 8.96875 6.5 9 6.625 9H7V11H6.625C6.5 11 6.40625 11.0625 6.34375 11.125C6.28125 11.1875 6.25 11.2812 6.25 11.375V12.125C6.25 12.25 6.28125 12.3438 6.34375 12.4062C6.40625 12.4688 6.5 12.5 6.625 12.5H9.375C9.46875 12.5 9.5625 12.4688 9.625 12.4062C9.6875 12.3438 9.75 12.25 9.75 12.125Z" fill="white"/>
</svg>
