<svg viewBox="0 0 16 16" fill="none" xmlns="http://www.w3.org/2000/svg">
  <path fill-rule="evenodd" clip-rule="evenodd" d="M5.1135 1.33203H10.8935C13.1535 1.33203 14.6668 2.9187 14.6668 5.2787V10.726C14.6668 13.0794 13.1535 14.6654 10.8935 14.6654H5.1135C2.8535 14.6654 1.3335 13.0794 1.3335 10.726V5.2787C1.3335 2.9187 2.8535 1.33203 5.1135 1.33203ZM7.9935 6.03936C7.68016 6.03936 7.42016 5.7787 7.42016 5.45936C7.42016 5.1327 7.68016 4.8727 8.00683 4.8727C8.32683 4.8727 8.58683 5.1327 8.58683 5.45936C8.58683 5.7787 8.32683 6.03936 7.9935 6.03936ZM8.58016 10.5194C8.58016 10.8394 8.32016 11.0994 7.9935 11.0994C7.6735 11.0994 7.4135 10.8394 7.4135 10.5194V7.5727C7.4135 7.25203 7.6735 6.98603 7.9935 6.98603C8.32016 6.98603 8.58016 7.25203 8.58016 7.5727V10.5194Z" fill="url(#paint0_linear)"/>
  <defs>
    <linearGradient id="paint0_linear" x1="1.3335" y1="7.9987" x2="14.6668" y2="7.9987" gradientUnits="userSpaceOnUse">
      <stop stop-color="#FF758C"/>
      <stop offset="1" stop-color="#FF7EB3"/>
    </linearGradient>
  </defs>
</svg>