<svg width="24" height="24" viewBox="0 0 24 24" fill="none" xmlns="http://www.w3.org/2000/svg">
<path d="M12 2.40002C6.69814 2.40002 2.39999 6.69817 2.39999 12C2.39999 17.3026 6.69852 21.6 12.0004 21.6C17.3026 21.6 21.6 17.3026 21.6 12C21.6 6.69817 17.3026 2.40002 12 2.40002ZM12.406 6.19745C13.1029 6.19745 13.6677 6.76256 13.6677 7.45947C13.6677 8.15639 13.1029 8.72149 12.406 8.72149C11.7091 8.72149 11.144 8.15639 11.144 7.45947C11.144 6.76256 11.7091 6.19745 12.406 6.19745ZM13.5374 17.3632C13.5374 17.3632 12.5431 18.1969 11.2906 17.5681C11.0126 17.4291 10.7777 17.1879 10.6278 16.9224C10.2024 16.1701 10.366 15.363 10.366 15.363L10.491 14.3733L10.8156 11.7925L9.9316 11.8118C9.51761 11.8212 9.17597 11.4929 9.16688 11.0793C9.15969 10.7581 9.35853 10.4793 9.64109 10.3668L11.9064 9.47484C12.4458 9.26236 13.0548 9.52749 13.2669 10.0668C13.348 10.2718 13.3597 10.4854 13.3135 10.6846L13.2836 10.8191L12.3977 14.7093L12.1765 15.6819C12.1439 15.8285 12.139 15.8618 12.1295 15.9387C12.1057 16.3766 12.7283 16.0482 12.7283 16.0482C13.1022 15.8418 13.5726 15.9785 13.7779 16.3523C13.9714 16.7034 13.8593 17.1405 13.5374 17.3632Z" fill="currentColor"/>
</svg>
