<svg viewBox="0 0 13 14" fill="none" xmlns="http://www.w3.org/2000/svg">
<path d="M6.3559 0.600006C2.94081 0.600006 0.172241 3.46544 0.172241 7.00001C0.172241 10.5351 2.94106 13.4 6.35615 13.4C9.77148 13.4 12.5396 10.5351 12.5396 7.00001C12.5396 3.46544 9.77148 0.600006 6.3559 0.600006ZM6.61744 3.13162C7.06634 3.13162 7.4301 3.50836 7.4301 3.97297C7.4301 4.43758 7.06634 4.81432 6.61744 4.81432C6.16853 4.81432 5.80453 4.43758 5.80453 3.97297C5.80453 3.50836 6.16853 3.13162 6.61744 3.13162ZM7.34618 10.5755C7.34618 10.5755 6.70576 11.1312 5.89895 10.7121C5.71987 10.6194 5.56861 10.4586 5.472 10.2816C5.19802 9.78009 5.30342 9.242 5.30342 9.242L5.38393 8.5822L5.59301 6.86163L5.02358 6.87451C4.75692 6.88082 4.53686 6.6619 4.53101 6.38617C4.52637 6.17204 4.65446 5.9862 4.83646 5.9112L6.29564 5.31655C6.64305 5.1749 7.03536 5.35165 7.17198 5.71122C7.22419 5.84782 7.23175 5.99024 7.20199 6.12305L7.18272 6.21269L6.61207 8.80618L6.46959 9.45461C6.44861 9.55233 6.44544 9.57455 6.43934 9.62581C6.42397 9.9177 6.82506 9.69878 6.82506 9.69878C7.06586 9.56117 7.36887 9.65232 7.5011 9.90154C7.62577 10.1356 7.55355 10.427 7.34618 10.5755Z" fill="#2C304E"/>
</svg>
