<svg width="14" height="14" viewBox="0 0 14 14" fill="none" xmlns="http://www.w3.org/2000/svg">
    <g id="info-circle-fill">
        <path id="Vector"
            d="M6.9999 1.3999C3.90715 1.3999 1.3999 3.90715 1.3999 6.9999C1.3999 10.0931 3.90737 12.5999 7.00012 12.5999C10.0931 12.5999 12.5999 10.0931 12.5999 6.9999C12.5999 3.90715 10.0931 1.3999 6.9999 1.3999ZM7.23675 3.61507C7.64329 3.61507 7.97271 3.94471 7.97271 4.35125C7.97271 4.75778 7.64329 5.08743 7.23675 5.08743C6.83022 5.08743 6.50057 4.75778 6.50057 4.35125C6.50057 3.94471 6.83022 3.61507 7.23675 3.61507ZM7.89671 10.1284C7.89671 10.1284 7.31673 10.6147 6.58608 10.248C6.42391 10.1669 6.28692 10.0261 6.19943 9.87127C5.95131 9.43247 6.04676 8.96165 6.04676 8.96165L6.11967 8.38432L6.30902 6.87883L5.79334 6.89009C5.55185 6.89562 5.35256 6.70406 5.34725 6.46279C5.34306 6.27543 5.45905 6.11282 5.62387 6.0472L6.94533 5.52688C7.25995 5.40293 7.61523 5.55759 7.73895 5.87221C7.78623 5.99174 7.79308 6.11635 7.76613 6.23257L7.74867 6.311L7.23189 8.5803L7.10286 9.14768C7.08386 9.23318 7.08099 9.25263 7.07546 9.29748C7.06154 9.55289 7.42477 9.36133 7.42477 9.36133C7.64284 9.24092 7.91725 9.32068 8.037 9.53875C8.14991 9.74356 8.08451 9.99853 7.89671 10.1284Z"
            fill="#fff" />
    </g>
</svg>