<svg xmlns="http://www.w3.org/2000/svg" viewBox="0 0 23 18">
  <path d="M21.7222846,3.00001465 L17.1636488,3.00001465 L16.1772074,0.481508789 C16.0632404,0.191513672 15.778525,0 15.4611513,0 L7.53889363,0 C7.22125043,0 6.93680456,0.191513672 6.82306215,0.481508789 L5.83612663,3.00001465 L1.27776031,3.00001465 C0.573204245,3.00001465 0,3.56075684 0,4.24999512 L0,16.7499756 C0,17.4392578 0.573204245,18 1.27776031,18 L21.7222397,18 C22.4267958,18 23,17.4392578 23,16.7500195 L23,4.24999512 C23,3.56075684 22.4268407,3.00001465 21.7222846,3.00001465 Z M21.4667685,16.5000146 L1.53332135,16.5000146 L1.53332135,4.5 L6.36333079,4.5 C6.68097399,4.5 6.96541985,4.30848633 7.07916226,4.01849121 L8.06614271,1.49998535 L14.9342167,1.49998535 L15.9209276,4.01849121 C16.03467,4.30848633 16.3193405,4.5 16.6367591,4.5 L21.4667685,4.5 L21.4667685,16.5000146 L21.4667685,16.5000146 Z"/>
  <path d="M11.5,4 C8.46720151,4 6,6.46737922 6,9.49988545 C6,12.5326208 8.46715569,15 11.5,15 C14.5328443,15 17,12.5326208 17,9.49988545 C17,6.46715012 14.5327985,4 11.5,4 Z M11.5,13.4360268 C9.32970942,13.4360268 7.5640058,11.670589 7.5640058,9.50011455 C7.5640058,7.32964007 9.32975524,5.56420232 11.5,5.56420232 C13.6702906,5.56420232 15.4359942,7.32991499 15.4359942,9.50011455 C15.4359942,11.6703599 13.6702906,13.4360268 11.5,13.4360268 Z"/>
  <path d="M11.5,7 C10.1214552,7 9,8.12153601 9,9.49994793 C9,10.878464 10.1214344,12 11.5,12 C12.8785656,12 14,10.878464 14,9.49994793 C14,8.12143187 12.8785448,7 11.5,7 Z"/>
</svg>
