<?xml version="1.0" encoding="UTF-8"?>
<svg width="80px" height="80px" viewBox="0 0 80 80" version="1.1" xmlns="http://www.w3.org/2000/svg" xmlns:xlink="http://www.w3.org/1999/xlink">
    <!-- Generator: Sketch 50.2 (55047) - http://www.bohemiancoding.com/sketch -->
    <title>Icon - </title>
    <desc>Created with Sketch.</desc>
    <defs></defs>
    <g id="Icon---" stroke="none" stroke-width="1" fill="none" fill-rule="evenodd">
        <g id="baseline-crop_free-24px">
            <polygon id="Shape" points="0 0 80 0 80 80 0 80"></polygon>
            <path d="M10,16.6666667 L10,30 L16.6666667,30 L16.6666667,16.6666667 L30,16.6666667 L30,10 L16.6666667,10 C13,10 10,13 10,16.6666667 Z M16.6666667,50 L10,50 L10,63.3333333 C10,67 13,70 16.6666667,70 L30,70 L30,63.3333333 L16.6666667,63.3333333 L16.6666667,50 Z M63.3333333,63.3333333 L50,63.3333333 L50,70 L63.3333333,70 C67,70 70,67 70,63.3333333 L70,50 L63.3333333,50 L63.3333333,63.3333333 Z M63.3333333,10 L50,10 L50,16.6666667 L63.3333333,16.6666667 L63.3333333,30 L70,30 L70,16.6666667 C70,13 67,10 63.3333333,10 Z" id="Shape" fill="#000000" fill-rule="nonzero"></path>
            <polygon id="Path" fill="#FF3366" points="36.6666667 60 36.6666667 45 30 45 43.3333333 20 43.3333333 36.6666667 50 36.6666667"></polygon>
        </g>
    </g>
</svg>