<svg xmlns="http://www.w3.org/2000/svg" viewBox="0 0 258 258">
  <g>
    <circle cx="129" cy="129" r="129"/>
    <circle cx="129" cy="128.5" r="119.5" fill="#FFF"/>
    <path d="M134.1,191.7 C130.7,191.7 127.4,191.7 124,191.7 C122.2,191.4 120.4,191.1 118.5,190.7 C94.7,186.2 78,172.8 68.9,150.4 C66.5,144.6 65.8,138.1 64.3,131.9 C64.3,128.5 64.3,125.2 64.3,121.8 C64.5,120.9 64.7,120 64.8,119.1 C65.9,110.5 68.4,102.3 72.8,94.8 C83.4,76.9 98.9,66 119.5,62.9 C136.6,60.3 152.5,63.9 166.4,74.2 C187.6,89.9 196.8,111.2 192.7,137.3 C188.9,161.2 175,177.8 152.6,186.9 C146.8,189.4 140.3,190.2 134.1,191.7 Z M131.4,98.9 C131.4,107.6 131.4,116.2 131.4,124.7 C141.4,124.7 151.1,124.7 161,124.7 C161,114.8 159.4,105.3 156.6,96.1 C148.1,97.1 139.8,98 131.4,98.9 Z M101.6,157.6 C110.1,156.7 118.4,155.8 126.8,154.9 C126.8,146.4 126.8,137.9 126.8,129.3 C116.9,129.3 107.1,129.3 97.2,129.3 C97.2,139.1 98.8,148.5 101.6,157.6 Z M126.8,124.5 C126.8,115.8 126.8,107.3 126.8,98.9 C118.4,97.9 110.1,97 101.6,96 C98.8,105.2 97.1,114.7 97.2,124.5 C107.2,124.5 116.9,124.5 126.8,124.5 Z M156.5,158 C159.3,148.8 161,139.3 160.9,129.3 C153.2,129.3 145.8,129.3 138.4,129.3 C136.1,129.3 133,128.7 131.7,130 C130.5,131.1 131.3,134.3 131.2,136.5 C131.2,142.7 131.2,148.9 131.2,155.1 C139.7,156 147.9,157 156.5,158 Z M166.2,124.7 C173.6,124.7 181.3,124.7 189.3,124.7 C188.7,111.5 184.4,100 176.4,89.7 C171.2,91.5 166,93.2 161.4,94.8 C163,104.9 164.6,114.7 166.2,124.7 Z M68.8,129.1 C69.5,141.9 73.4,153.1 81,163.1 C81.4,163.6 82.5,164 83.1,163.8 C87.8,162.2 92.5,160.5 96.8,159 C95.2,149.1 93.6,139.2 92,129.2 C84.5,129.1 76.8,129.1 68.8,129.1 Z M91.9,124.6 C93.6,114.5 95.1,104.7 96.7,94.9 C91.9,93.2 86.8,91.4 81.6,89.6 C73.7,99.9 69.3,111.5 68.8,124.6 C76.9,124.6 84.6,124.6 91.9,124.6 Z M176.4,164.4 C184.4,154.1 188.7,142.6 189.3,129.5 C181.2,129.5 173.5,129.5 166.2,129.5 C164.6,139.5 163,149.2 161.4,159.1 C166.1,160.7 171.1,162.5 176.4,164.4 Z M126.8,66.7 C113.4,70 108.1,80.4 102.8,91.9 C111,92.8 118.8,93.6 126.8,94.4 C126.8,84.9 126.8,76.1 126.8,66.7 Z M155.2,162 C147,161.1 139.2,160.3 131.3,159.5 C131.3,169.1 131.3,178 131.3,187.4 C144.6,183.9 150.1,173.6 155.2,162 Z M131.4,66.7 C131.4,76 131.4,85 131.4,94.5 C139.4,93.6 147.1,92.8 155.3,91.9 C150,80.4 144.6,70 131.4,66.7 Z M126.7,187.2 C126.7,177.9 126.7,168.9 126.7,159.4 C118.7,160.3 111,161.1 102.8,162 C108.2,173.6 113.5,184 126.7,187.2 Z M112.1,184.6 C106.2,178.4 101.8,171.3 98.8,163 C94,164.6 89.5,166.1 84.5,167.7 C92.5,176.1 101.5,181.7 112.1,184.6 Z M146,69.4 C151.9,75.6 156.2,82.7 159.3,90.8 C164.1,89.2 168.5,87.8 173.4,86.2 C165.5,77.8 156.6,72.2 146,69.4 Z M159.3,163.1 C156.3,171.4 151.9,178.3 146.1,184.5 C156.7,181.6 165.7,176.1 173.5,167.7 C168.5,166.2 164.1,164.7 159.3,163.1 Z M84.7,86.1 C89.6,87.7 94.1,89.2 98.8,90.7 C101.8,82.5 106.2,75.5 112,69.3 C101.5,72.2 92.5,77.8 84.7,86.1 Z"/>
    <path fill="#FFF" d="M189.3,69.4 C199.9,72.3 208.8,77.9 216.7,86.2 C211.8,87.8 207.3,89.3 202.6,90.8 C199.5,82.6 195.2,75.5 189.3,69.4 Z"/>
  </g>
</svg>
