<svg viewBox="0 0 16 16" fill="currentColor" xmlns="http://www.w3.org/2000/svg">
    <g id="list">
        <g id="Vector">
            <path fill-rule="evenodd" clip-rule="evenodd"
                d="M5.13536 10.8585C5.13536 10.5811 5.35719 10.3563 5.63082 10.3563H10.4004C10.6741 10.3563 10.8959 10.5811 10.8959 10.8585C10.8959 11.1359 10.6741 11.3608 10.4004 11.3608H5.63082C5.35719 11.3608 5.13536 11.1359 5.13536 10.8585Z"
                fill="currentColor" />
            <path fill-rule="evenodd" clip-rule="evenodd"
                d="M5.13536 8.0549C5.13536 7.77751 5.35719 7.55264 5.63082 7.55264H10.4004C10.6741 7.55264 10.8959 7.77751 10.8959 8.0549C10.8959 8.33229 10.6741 8.55716 10.4004 8.55716H5.63082C5.35719 8.55716 5.13536 8.33229 5.13536 8.0549Z"
                fill="currentColor" />
            <path fill-rule="evenodd" clip-rule="evenodd"
                d="M5.13543 5.25778C5.13543 4.98039 5.35725 4.75552 5.63089 4.75552H7.45087C7.7245 4.75552 7.94633 4.98039 7.94633 5.25778C7.94633 5.53517 7.7245 5.76004 7.45087 5.76004H5.63089C5.35725 5.76004 5.13543 5.53517 5.13543 5.25778Z"
                fill="currentColor" />
            <path fill-rule="evenodd" clip-rule="evenodd"
                d="M10.5275 1.33325C11.5584 1.33325 12.4392 1.6781 13.0617 2.32948C13.6824 2.9789 14.0004 3.88462 14.0004 4.92073V11.0791C14.0004 12.1103 13.6847 13.012 13.0692 13.6604C12.4517 14.3107 11.5779 14.6582 10.555 14.6646L10.552 14.6646L5.47296 14.6666C4.44212 14.6666 3.56103 14.3217 2.93862 13.6703C2.31808 13.0208 2.00037 12.1151 2.00037 11.0791V4.92073C2.00037 3.88959 2.31578 2.98806 2.93125 2.33981C3.54856 1.68961 4.42221 1.34233 5.44504 1.33594L5.4481 1.33592L10.5275 1.33325ZM10.5276 2.33777C10.5277 2.33777 10.5276 2.33777 10.5276 2.33777L5.45115 2.34044C5.4507 2.34044 5.45025 2.34045 5.4498 2.34045C4.65002 2.34574 4.04799 2.61215 3.64521 3.03639C3.24036 3.4628 2.99128 4.09686 2.99128 4.92073V11.0791C2.99128 11.9075 3.24235 12.5444 3.65039 12.9714C4.05653 13.3965 4.66417 13.662 5.4724 13.6621C5.47236 13.6621 5.47245 13.6621 5.4724 13.6621L10.5489 13.6601C10.5494 13.6601 10.5498 13.6601 10.5502 13.6601C11.35 13.6548 11.9522 13.3882 12.3552 12.9638C12.7602 12.5372 13.0094 11.9029 13.0094 11.0791V4.92073C13.0094 4.09245 12.7583 3.45556 12.3501 3.02847C11.9438 2.60337 11.3358 2.33782 10.5276 2.33777Z"
                fill="currentColor" />
        </g>
    </g>
</svg>