<svg width="14" height="18" viewBox="0 0 14 18" fill="none" xmlns="http://www.w3.org/2000/svg">
<path fill-rule="evenodd" clip-rule="evenodd" d="M0.334176 13.4085C0.291173 15.5253 1.86116 17.2855 3.83303 17.3333L10.188 17.3325C12.1529 17.2469 13.6806 15.527 13.6666 13.422V5.73189C13.6666 5.56997 13.6079 5.41308 13.5031 5.29646L9.54299 0.869171C9.43197 0.745841 9.2795 0.676206 9.12 0.676206H9.01692C9.29183 0.728242 9.50089 0.986013 9.50089 1.29586V3.73645C9.50089 4.57878 10.1397 5.26507 10.9239 5.26759H13.0764C13.4001 5.26759 13.6628 5.54948 13.6628 5.89682C13.6628 6.24416 13.4001 6.52605 13.0764 6.52605H10.9223C9.49151 6.52186 8.32809 5.2701 8.32809 3.73645V1.29586C8.32809 0.986013 8.53715 0.728242 8.81206 0.676206H3.9073C1.98157 0.676206 0.379524 2.35249 0.334176 4.43399V13.4085ZM4.54636 12.503H8.76844C9.09213 12.503 9.35484 12.2211 9.35484 11.8738C9.35484 11.5265 9.09213 11.2446 8.76844 11.2446H4.54636C4.22267 11.2446 3.95996 11.5265 3.95996 11.8738C3.95996 12.2211 4.22267 12.503 4.54636 12.503ZM4.54566 9.35518H7.1696C7.49329 9.35518 7.756 9.07328 7.756 8.72594C7.756 8.3786 7.49329 8.09671 7.1696 8.09671H4.54566C4.22197 8.09671 3.95926 8.3786 3.95926 8.72594C3.95926 9.07328 4.22197 9.35518 4.54566 9.35518Z" fill="#2C304E"/>
<path fill-rule="evenodd" clip-rule="evenodd" d="M8.91449 0.666626C8.87955 0.666626 8.84533 0.66991 8.81206 0.676206H9.01692C8.98366 0.66991 8.94943 0.666626 8.91449 0.666626Z" fill="#2C304E"/>
</svg>
