<svg width="24" height="24" viewBox="0 0 24 24" fill="none" xmlns="http://www.w3.org/2000/svg">
<path fill-rule="evenodd" clip-rule="evenodd" d="M7 16C7 15.5839 7.3312 15.2466 7.73975 15.2466H10.9157C11.3243 15.2466 11.6555 15.5839 11.6555 16C11.6555 16.4161 11.3243 16.7534 10.9157 16.7534H7.73975C7.3312 16.7534 7 16.4161 7 16Z" fill="#5a5d72"/>
<path fill-rule="evenodd" clip-rule="evenodd" d="M7 11.9052C7 11.4891 7.3312 11.1518 7.73975 11.1518H12.8884C13.2969 11.1518 13.6281 11.4891 13.6281 11.9052C13.6281 12.3212 13.2969 12.6586 12.8884 12.6586H7.73975C7.3312 12.6586 7 12.3212 7 11.9052Z" fill="#5a5d72"/>
<path fill-rule="evenodd" clip-rule="evenodd" d="M7 8C7 7.58391 7.3312 7.24661 7.73975 7.24661H10.4571C10.8656 7.24661 11.1968 7.58391 11.1968 8C11.1968 8.41609 10.8656 8.75339 10.4571 8.75339H7.73975C7.3312 8.75339 7 8.41609 7 8Z" fill="#5a5d72"/>
<path fill-rule="evenodd" clip-rule="evenodd" d="M14.7315 2C16.6159 2 18.0554 2.47299 18.9423 3.84623C19.7652 5.12024 20 7.02604 20 9.53409C20 9.95017 19.6688 10.2875 19.2603 10.2875C18.8517 10.2875 18.5205 9.95017 18.5205 9.53409C18.5205 7.01953 18.2622 5.53498 17.7063 4.6743C17.2145 3.91287 16.3896 3.50681 14.7317 3.50678L7.1522 3.51078L7.15019 3.5108C5.95608 3.51873 5.05721 3.91835 4.45584 4.55471C3.85138 5.19433 3.47949 6.14541 3.47949 7.38122V16.6188C3.47949 17.8613 3.85435 18.8167 4.46358 19.4573C5.06996 20.0949 5.97721 20.4932 7.18394 20.4932L14.768 20.4902C15.1766 20.4902 15.5078 20.8275 15.5078 21.2436C15.5078 21.6597 15.1766 21.997 14.768 21.997L7.18477 22C5.64567 22 4.33015 21.4827 3.40086 20.5056C2.47437 19.5314 2 18.1728 2 16.6188V7.38122C2 5.8345 2.47093 4.48222 3.38986 3.50983C4.31153 2.53454 5.61594 2.01361 7.14309 2.00403L7.14764 2.004L14.7315 2Z" fill="#5a5d72"/>
<path fill-rule="evenodd" clip-rule="evenodd" d="M18 12C18.4418 12 18.8 12.3582 18.8 12.8V19.2C18.8 19.6418 18.4418 20 18 20C17.5582 20 17.2 19.6418 17.2 19.2V12.8C17.2 12.3582 17.5582 12 18 12Z" fill="url(#paint0_linear_2_949)"/>
<path fill-rule="evenodd" clip-rule="evenodd" d="M13.9967 15.974C13.9967 15.5321 14.3549 15.174 14.7967 15.174H21.1967C21.6385 15.174 21.9967 15.5321 21.9967 15.974C21.9967 16.4158 21.6385 16.774 21.1967 16.774H14.7967C14.3549 16.774 13.9967 16.4158 13.9967 15.974Z" fill="url(#paint1_linear_2_949)"/>
<defs>
<linearGradient id="paint0_linear_2_949" x1="16.9329" y1="11.3846" x2="20.2321" y2="21.7725" gradientUnits="userSpaceOnUse">
<stop stop-color="#FF3366"/>
<stop offset="1" stop-color="#FE5196"/>
</linearGradient>
<linearGradient id="paint1_linear_2_949" x1="16.9329" y1="11.3846" x2="20.2321" y2="21.7725" gradientUnits="userSpaceOnUse">
<stop stop-color="#FF3366"/>
<stop offset="1" stop-color="#FE5196"/>
</linearGradient>
</defs>
</svg>
