<svg width="24" height="24" viewBox="0 0 24 24" fill="none" xmlns="http://www.w3.org/2000/svg">
<path fill-rule="evenodd" clip-rule="evenodd" d="M7.57335 3.51172C5.91635 3.51172 4.54035 4.85372 4.50135 6.50872V17.2037C4.46435 18.9167 5.81435 20.3277 7.51035 20.3657H15.5743C17.2433 20.2967 18.5653 18.9097 18.5533 17.2097V8.33972L13.9183 3.51172H7.57335ZM7.47635 21.8657C4.95435 21.8087 2.94635 19.7107 3.00135 17.1877V6.49072C3.05935 4.00972 5.10835 2.01172 7.57135 2.01172H14.2383C14.4423 2.01172 14.6373 2.09472 14.7793 2.24172L19.8443 7.51872C19.9783 7.65772 20.0533 7.84472 20.0533 8.03772V17.2037C20.0713 19.7127 18.1173 21.7627 15.6043 21.8647L7.47635 21.8657Z" fill="currentColor"/>
<path fill-rule="evenodd" clip-rule="evenodd" d="M19.2985 8.98431H16.5435C14.7135 8.97931 13.2255 7.48731 13.2255 5.65931V2.75031C13.2255 2.33631 13.5615 2.00031 13.9755 2.00031C14.3895 2.00031 14.7255 2.33631 14.7255 2.75031V5.65931C14.7255 6.66331 15.5425 7.48131 16.5455 7.48431H19.2985C19.7125 7.48431 20.0485 7.82031 20.0485 8.23431C20.0485 8.64831 19.7125 8.98431 19.2985 8.98431Z" fill="currentColor"/>
<path fill-rule="evenodd" clip-rule="evenodd" d="M13.7887 16.1084H8.3887C7.9747 16.1084 7.6387 15.7724 7.6387 15.3584C7.6387 14.9444 7.9747 14.6084 8.3887 14.6084H13.7887C14.2027 14.6084 14.5387 14.9444 14.5387 15.3584C14.5387 15.7724 14.2027 16.1084 13.7887 16.1084Z" fill="currentColor"/>
<path fill-rule="evenodd" clip-rule="evenodd" d="M11.7438 12.3564H8.3878C7.9738 12.3564 7.6378 12.0204 7.6378 11.6064C7.6378 11.1924 7.9738 10.8564 8.3878 10.8564H11.7438C12.1578 10.8564 12.4938 11.1924 12.4938 11.6064C12.4938 12.0204 12.1578 12.3564 11.7438 12.3564Z" fill="currentColor"/>
</svg>
