<svg viewBox="0 0 24 24" fill="none" xmlns="http://www.w3.org/2000/svg">
<path fill-rule="evenodd" clip-rule="evenodd" d="M7.74617 16.2235C7.74617 15.8093 8.08195 15.4735 8.49617 15.4735H15.7162C16.1304 15.4735 16.4662 15.8093 16.4662 16.2235C16.4662 16.6377 16.1304 16.9735 15.7162 16.9735H8.49617C8.08195 16.9735 7.74617 16.6377 7.74617 16.2235Z" fill="currentColor"/>
<path fill-rule="evenodd" clip-rule="evenodd" d="M7.74617 12.037C7.74617 11.6228 8.08195 11.287 8.49617 11.287H15.7162C16.1304 11.287 16.4662 11.6228 16.4662 12.037C16.4662 12.4512 16.1304 12.787 15.7162 12.787H8.49617C8.08195 12.787 7.74617 12.4512 7.74617 12.037Z" fill="currentColor"/>
<path fill-rule="evenodd" clip-rule="evenodd" d="M7.74624 7.86019C7.74624 7.44598 8.08203 7.11019 8.49624 7.11019H11.2512C11.6655 7.11019 12.0012 7.44598 12.0012 7.86019C12.0012 8.2744 11.6655 8.61019 11.2512 8.61019H8.49624C8.08203 8.61019 7.74624 8.2744 7.74624 7.86019Z" fill="currentColor"/>
<path fill-rule="evenodd" clip-rule="evenodd" d="M15.9086 1.99988C17.469 1.99988 18.8023 2.51483 19.7447 3.48749C20.6843 4.45724 21.1656 5.8097 21.1656 7.35688V16.5529C21.1656 18.0927 20.6878 19.4391 19.7559 20.4073C18.8213 21.3784 17.4986 21.8973 15.9502 21.9069L15.9456 21.9069L8.25721 21.9099C6.69677 21.9099 5.36302 21.3949 4.42084 20.4222C3.48151 19.4524 3.00056 18.0999 3.00056 16.5529V7.35688C3.00056 5.81712 3.47802 4.47092 4.40969 3.50291C5.34414 2.53201 6.66663 2.01343 8.21494 2.00389L8.21956 2.00386L15.9086 1.99988ZM15.9087 3.49988L8.22418 3.50386L8.22215 3.50388C7.01148 3.51177 6.10015 3.9096 5.49044 4.54309C4.87761 5.17983 4.50056 6.12663 4.50056 7.35688V16.5529C4.50056 17.7898 4.88062 18.7409 5.49829 19.3786C6.11308 20.0133 7.0329 20.4098 8.25636 20.4099L15.9409 20.4069L15.9432 20.4069C17.1537 20.3989 18.0652 20.0009 18.6752 19.3672C19.2883 18.7301 19.6656 17.783 19.6656 16.5529V7.35688C19.6656 6.12005 19.2853 5.16901 18.6674 4.53126C18.0524 3.89648 17.1322 3.49994 15.9087 3.49988Z" fill="currentColor"/>
</svg>
