<svg width="24" height="24" viewBox="0 0 24 24" fill="none" xmlns="http://www.w3.org/2000/svg">
<path fill-rule="evenodd" clip-rule="evenodd" d="M7.89545 2.8812C9.93431 1.96347 12.2219 1.7555 14.3929 2.29051C16.5638 2.82553 18.4928 4.07266 19.8717 5.83269C21.2507 7.59272 22 9.76411 22 12C22 12.3853 21.6876 12.6977 21.3023 12.6977C20.917 12.6977 20.6047 12.3853 20.6047 12C20.6047 10.0761 19.9599 8.20769 18.7734 6.69324C17.5868 5.1788 15.927 4.10569 14.059 3.64533C12.191 3.18496 10.2225 3.36392 8.46817 4.15359C6.71381 4.94327 5.27469 6.29812 4.38072 8.00171C3.48674 9.7053 3.18949 11.6593 3.53643 13.5517C3.88338 15.4441 4.8545 17.1656 6.29469 18.4412C7.73487 19.7169 9.56102 20.4731 11.4814 20.589C13.4018 20.7049 15.3057 20.174 16.8889 19.0809C17.206 18.8619 17.6405 18.9415 17.8594 19.2586C18.0784 19.5757 17.9988 20.0102 17.6817 20.2291C15.8418 21.4995 13.6292 22.1166 11.3973 21.9818C9.16551 21.8471 7.04323 20.9682 5.3695 19.4857C3.69577 18.0032 2.56716 16.0026 2.16396 13.8033C1.76075 11.6041 2.10621 9.33318 3.14516 7.35334C4.1841 5.37349 5.85658 3.79894 7.89545 2.8812Z" fill="black"/>
</svg>
