<svg width="24" height="24" viewBox="0 0 24 24" fill="none" xmlns="http://www.w3.org/2000/svg">
<path fill-rule="evenodd" clip-rule="evenodd" d="M12.0005 8.66666C11.0647 8.66666 10.3035 9.47179 10.3035 10.4626C10.3035 11.4523 11.0647 12.2564 12.0005 12.2564C12.9362 12.2564 13.6974 11.4523 13.6974 10.4626C13.6974 9.47179 12.9362 8.66666 12.0005 8.66666ZM12.0005 13.7949C10.2628 13.7949 8.84897 12.3005 8.84897 10.4626C8.84897 8.62359 10.2628 7.1282 12.0005 7.1282C13.7382 7.1282 15.152 8.62359 15.152 10.4626C15.152 12.3005 13.7382 13.7949 12.0005 13.7949Z" fill="currentColor"/>
<path fill-rule="evenodd" clip-rule="evenodd" d="M11.9995 3.53846C8.39028 3.53846 5.45404 6.67384 5.45404 10.5262C5.45404 15.4277 10.9076 20.2031 11.9995 20.4574C13.0914 20.202 18.5449 15.4267 18.5449 10.5262C18.5449 6.67384 15.6087 3.53846 11.9995 3.53846ZM11.9996 22C10.2599 22 3.99957 16.3056 3.99957 10.5262C3.99957 5.82462 7.58842 2 11.9996 2C16.4107 2 19.9996 5.82462 19.9996 10.5262C19.9996 16.3056 13.7392 22 11.9996 22Z" fill="currentColor"/>
</svg>
