<svg xmlns="http://www.w3.org/2000/svg" viewBox="0 0 26 25">
  <g fill="none" fill-rule="evenodd">
    <path fill="#FFF" d="M12.6476692,0 L10.859442,0 L10.859442,16.067978 C10.6479433,16.6532256 10.4018038,17.0250814 10.1210233,17.1835456 C9.28102595,17.6576151 7.95609016,17.6709406 7.44281009,17.6709406 C6.90533592,17.6709406 5.83520719,17.7033601 4.96010377,17.1835456 C4.79464761,17.085264 4.4489969,16.9786923 4.25188563,16.6910564 C4.18228868,16.5894966 4.12824254,16.3818038 4.08974722,16.067978 L4.08974722,9.42456851 L7.87125002,9.42456851 L7.87125002,7.75837581 L4.09454647,7.75837581 L4.09454647,4.12693012 C4.07026406,4.02554864 4.12271045,3.97485789 4.25188563,3.97485789 C4.38106082,3.97485789 6.06886017,3.97570526 9.3152837,3.97739998 L9.3152837,2.35393015 L4.00873511,2.28996067 C2.82821237,2.30347751 2.23795101,2.86595728 2.23795101,3.97739998 C2.23795101,5.08884268 2.23795101,9.20114292 2.23795101,16.3143007 C2.26994507,17.2277407 2.49112123,17.8236018 2.90147949,18.1018841 C3.39418074,18.4360068 3.99366426,18.9279368 4.6288886,19.1034547 C5.80841274,19.4293673 7.0559201,19.2721948 7.58244327,19.2721948 C8.36260147,19.2721948 10.1649381,19.4025676 11.4156874,18.517235 C11.6682463,18.3384632 12.1182628,18.0499966 12.3708676,17.5355033 C12.4762474,17.3208707 12.5685146,16.9138032 12.6476692,16.3143007 L12.6476692,0 Z"/>
    <path fill="#FF2E63" d="M10.859442,0 L1.34756577,0 C0.603325744,0 0,0.580120905 0,1.29573631 L0,23.7042637 C0,24.4198791 0.603325744,25 1.34756577,25 L24.6524342,25 C25.3966743,25 26,24.4198791 26,23.7042637 L26,1.29573631 C26,0.580120905 25.3966743,0 24.6524342,0 L21.0013033,0 L12.6476692,0 L12.6476692,0.523321341 C12.6476692,0.65148999 12.6476692,15.8970865 12.6476693,16.067978 L12.6476692,16.2388696 C12.6032374,17.0506045 12.3366466,17.6914479 11.8256808,18.1827611 C10.8259651,19.1440261 9.09312464,19.2721948 7.58244327,19.2721948 C5.5385802,19.2721948 2.78380819,19.0158574 2.31727423,16.9010744 L2.25062652,16.3670382 C2.22841062,16.260231 2.22841062,15.9611708 2.22841064,15.1921587 C2.22841061,14.4658696 2.22841061,13.4405202 2.22841063,12.372448 L2.22841063,12.1588336 L2.22841061,4.12693014 C2.22841065,3.61425541 2.40613784,3.18702654 2.78380822,2.82388194 C3.16147857,2.46073737 3.60579664,2.2898458 4.13897831,2.2898458 L9.13755648,2.31120725 L9.3152837,2.35393015 L9.31528379,3.80650843 L9.3152837,3.97739998 L9.13755648,3.97740002 L8.87096566,3.97739998 L8.20448855,3.97740001 L4.2944896,3.97740002 C4.16119419,3.97740001 4.09454649,4.04148433 4.09454648,4.12693012 C4.09454651,4.38326744 4.09454647,4.51143614 4.09454647,4.51143614 L4.09454647,7.75837583 L7.69352277,7.75837581 L7.87125002,7.75837581 L7.87125002,7.9292674 L7.87125002,9.25367704 L7.87125002,9.42456851 L7.69352281,9.42456859 L4.09454651,9.42456851 L4.0945465,13.0132913 L4.09454647,13.2696287 L4.0945465,16.260231 C4.1389783,17.456472 5.98289828,17.6914479 7.53801146,17.6914479 C8.22670448,17.6700864 9.69295402,17.6700864 10.3594311,17.029243 C10.5371584,16.8583514 10.7038287,16.5379297 10.859442,16.067978 L10.859442,0.968678945 L10.859442,0 Z"/>
  </g>
</svg>
