<svg width="24" height="24" viewBox="0 0 24 24" fill="none" xmlns="http://www.w3.org/2000/svg">
<path d="M22 12.222C22 11.3998 21.932 10.7998 21.7846 10.1776H12.2041V13.8887H17.8277C17.7143 14.8109 17.1021 16.1998 15.7415 17.1331L15.7224 17.2573L18.7516 19.5571L18.9615 19.5776C20.8889 17.8331 22 15.2665 22 12.222Z" fill="#5C98E5"/>
<path d="M12.2036 22C14.9586 22 17.2715 21.111 18.9609 19.5777L15.7409 17.1332C14.8793 17.7221 13.7228 18.1332 12.2036 18.1332C9.50517 18.1332 7.21495 16.3888 6.39855 13.9777L6.27888 13.9876L3.12911 16.3765L3.08792 16.4888C4.7659 19.7554 8.2126 22 12.2036 22Z" fill="#24A148"/>
<path d="M6.39904 13.9778C6.18363 13.3555 6.05896 12.6888 6.05896 12C6.05896 11.311 6.18363 10.6444 6.38771 10.0222L6.382 9.88967L3.19275 7.4624L3.08841 7.51104C2.39683 8.86661 2 10.3889 2 12C2 13.6111 2.39683 15.1332 3.08841 16.4888L6.39904 13.9778Z" fill="#E1AF05"/>
<path d="M12.2036 5.86664C14.1197 5.86664 15.4122 6.67774 16.1492 7.35557L19.029 4.6C17.2603 2.98889 14.9587 2 12.2036 2C8.21263 2 4.76591 4.24443 3.08792 7.51106L6.38723 10.0222C7.21497 7.6111 9.5052 5.86664 12.2036 5.86664Z" fill="#DA1E28"/>
</svg>
