<svg xmlns="http://www.w3.org/2000/svg" viewBox="0 0 258 258">
  <g>
    <circle cx="129" cy="129" r="129"/>
    <circle cx="129" cy="129" r="119.5" fill="#FFF"/>
    <g transform="translate(43 90)">
      <path d="M.4 50C1.7 47.8 3.6 47.2 6.1 47.2 18.9 47.3 31.7 47.2 44.6 47.2 48.3 47.2 50 48.6 50 51.2 50 53.8 48.2 55.2 44.5 55.2 31.8 55.2 19.1 55.3 6.4 55.1 4.4 55.1 2.5 53.5.5 52.7.4 51.8.4 50.9.4 50zM102.8 78.1C87.7 78.1 72.6 78.1 57.5 78.1 50.7 78.1 49.4 76.5 50.7 70 55 49 59.3 28.1 63.6 7.2 64.7 2.1 67 0 72.2 0 103.3 0 134.4 0 165.5 0 170.8 0 172.3 2 171.3 7.2 167 28.3 162.7 49.3 158.3 70.4 157.1 76.1 154.9 78.1 149.1 78.1 133.7 78.1 118.2 78.1 102.8 78.1zM78.4 11.6C74.5 11.9 72.2 13.6 71.2 16.7 70.2 19.8 71.7 21.8 74.3 23.4 84.5 29.4 94.6 35.4 104.6 41.7 108.2 44 111.3 43.9 115 42.1 127.9 35.7 140.9 29.6 153.9 23.3 155.2 22.7 156.5 21.9 157.6 21 159.8 19 160.4 15.7 159.1 13.7 157.3 11.1 154.9 11.6 152.4 12.4 151.3 12.7 150.3 13.3 149.3 13.8 138.1 19.2 126.8 24.6 115.6 30.1 113.2 31.3 111.4 31.1 109.2 29.7 100.2 24.1 91.1 18.7 82 13.3 80.8 12.5 79.3 12 78.4 11.6zM36.6 18.9C30.1 18.9 23.6 18.9 17 18.9 14.3 18.9 12 18.3 11.7 15 11.5 12.3 13.4 10.8 17 10.8 29.9 10.8 42.9 10.8 55.8 10.8 59.3 10.8 61.4 12.4 61.1 15 60.8 18.1 58.5 18.9 55.8 18.9 49.4 18.8 43 18.9 36.6 18.9zM39.3 36.7C35.4 36.7 31.4 36.7 27.5 36.7 24.9 36.7 22.9 35.6 22.9 32.8 22.9 29.9 24.9 28.8 27.7 28.8 35.5 28.8 43.3 28.8 51 28.8 53.7 28.8 55.5 30 55.6 32.7 55.7 35.4 53.8 36.7 51.2 36.7 47.1 36.8 43.2 36.7 39.3 36.7zM33.6 73.1C31.5 73.1 29.3 73.2 27.2 73.1 24.8 73 23.4 71.8 23.3 69.4 23.2 67.2 24.4 65.6 26.6 65.5 31.4 65.3 36.3 65.2 41 65.6 42.2 65.7 44.1 68.1 44.1 69.4 44 70.7 42.1 72.6 40.6 73 38.5 73.5 36 73 33.6 73.1 33.6 73 33.6 73 33.6 73.1z"/>
    </g>
  </g>
</svg>
