<svg width="24" height="24" viewBox="0 0 24 24" fill="none" xmlns="http://www.w3.org/2000/svg">
<path d="M8.98142 4.92086C8.98352 4.37515 8.82788 3.83987 8.53225 3.37612C8.23663 2.91238 7.81293 2.53886 7.30955 2.29821C6.80617 2.05757 6.24339 1.9595 5.68546 2.0152C5.12753 2.0709 4.59694 2.27813 4.15427 2.61322C3.7116 2.94831 3.37469 3.39776 3.18202 3.91026C2.98934 4.42276 2.94866 4.97764 3.06462 5.51156C3.18058 6.04548 3.4485 6.53691 3.8378 6.92974C4.2271 7.32258 4.72208 7.60099 5.26624 7.73319V16.2714C4.56074 16.4474 3.94552 16.868 3.53602 17.454C3.12653 18.04 2.9509 18.7513 3.04209 19.4544C3.13328 20.1575 3.48503 20.804 4.03134 21.2727C4.57764 21.7414 5.28094 22 6.00927 22C6.73761 22 7.44091 21.7414 7.98721 21.2727C8.53351 20.804 8.88526 20.1575 8.97646 19.4544C9.06765 18.7513 8.89202 18.04 8.48252 17.454C8.07303 16.868 7.45781 16.4474 6.75231 16.2714V7.73319C7.3924 7.57239 7.95912 7.20854 8.36284 6.69919C8.76656 6.18985 8.98423 5.56408 8.98142 4.92086ZM4.48605 4.92086C4.48971 4.63568 4.57998 4.35792 4.74548 4.12253C4.91098 3.88714 5.14433 3.70463 5.41618 3.59795C5.68803 3.49128 5.98622 3.46521 6.27326 3.52303C6.56029 3.58084 6.82335 3.71996 7.02932 3.92288C7.2353 4.1258 7.375 4.38345 7.43085 4.66343C7.4867 4.94341 7.45621 5.2332 7.34321 5.49636C7.23021 5.75952 7.03974 5.98428 6.79578 6.14238C6.55181 6.30047 6.26524 6.38484 5.97212 6.38486C5.5779 6.3773 5.20238 6.21984 4.92601 5.9462C4.64964 5.67257 4.49438 5.30451 4.49348 4.92086H4.48605ZM5.97212 20.5477C5.67902 20.5441 5.39355 20.4563 5.15163 20.2953C4.9097 20.1343 4.72212 19.9072 4.61249 19.6427C4.50285 19.3782 4.47606 19.0881 4.53548 18.8088C4.5949 18.5295 4.73788 18.2736 4.94643 18.0731C5.15499 17.8727 5.41979 17.7368 5.70754 17.6825C5.9953 17.6281 6.29314 17.6578 6.5636 17.7677C6.83406 17.8777 7.06507 18.063 7.22755 18.3004C7.39004 18.5378 7.47675 18.8166 7.47677 19.1018C7.47116 19.4805 7.31532 19.8424 7.04182 20.1118C6.76833 20.3813 6.39836 20.5375 6.00927 20.5477H5.97212Z" fill="currentColor"/>
<path d="M18.7319 16.1919V7.44403C18.7319 6.67706 18.4159 5.94151 17.8534 5.39918C17.291 4.85686 16.5282 4.55218 15.7327 4.55218H12.5461L13.9407 3.20747C14.0697 3.06972 14.1388 2.88942 14.1338 2.7039C14.1287 2.51838 14.0498 2.34184 13.9135 2.21085C13.7771 2.07985 13.5938 2.00443 13.4013 2.00019C13.2089 1.99595 13.0222 2.06323 12.8798 2.18809L10.218 4.76545C10.0784 4.90091 10 5.08415 10 5.27514C10 5.46614 10.0784 5.64938 10.218 5.78483L12.891 8.3622C13.0334 8.48706 13.2202 8.55433 13.4126 8.5501C13.605 8.54586 13.7884 8.47043 13.9247 8.33944C14.0611 8.20844 14.1399 8.03191 14.145 7.84638C14.1501 7.66086 14.081 7.48056 13.952 7.34282L12.5574 5.99811H15.7327C16.1304 5.99811 16.5119 6.15044 16.7931 6.42161C17.0743 6.69277 17.2323 7.06055 17.2323 7.44403V16.1919C16.5204 16.368 15.8996 16.7885 15.4864 17.3745C15.0731 17.9605 14.8959 18.6718 14.9879 19.3749C15.08 20.078 15.4349 20.7245 15.9862 21.1932C16.5374 21.6619 17.2471 21.9205 17.9821 21.9205C18.717 21.9205 19.4267 21.6619 19.978 21.1932C20.5293 20.7245 20.8842 20.078 20.9762 19.3749C21.0683 18.6718 20.891 17.9605 20.4778 17.3745C20.0646 16.7885 19.4438 16.368 18.7319 16.1919ZM17.9821 20.4682C17.6855 20.4682 17.3956 20.3834 17.149 20.2245C16.9024 20.0657 16.7102 19.8398 16.5967 19.5756C16.4832 19.3114 16.4535 19.0207 16.5113 18.7402C16.5692 18.4597 16.712 18.2021 16.9217 17.9999C17.1315 17.7976 17.3987 17.6599 17.6895 17.6041C17.9804 17.5484 18.2819 17.577 18.556 17.6864C18.83 17.7959 19.0642 17.9812 19.2289 18.219C19.3937 18.4568 19.4817 18.7363 19.4817 19.0223C19.4759 19.404 19.316 19.7686 19.036 20.0385C18.7561 20.3085 18.378 20.4626 17.9821 20.4682Z" fill="currentColor"/>
</svg>
