<svg xmlns="http://www.w3.org/2000/svg" viewBox="0 0 258 258">
  <g>
    <circle cx="129" cy="129" r="129"/>
    <circle cx="129" cy="128.5" r="119.5" fill="#FFF"/>
    <path d="M57.8,130.7 C57.4,93.1 87.2,59.7 127.9,58.9 C165.8,58.2 199.7,88.2 200.2,129.3 C200.7,167.6 171.4,197.5 135.9,200.9 C94,205 58.2,172.3 57.8,130.7 Z M66.3,134.3 C67,143 69.1,150.7 72.7,157.9 C73.1,158.7 74.6,159.4 75.7,159.4 C111.2,159.5 146.7,159.5 182.3,159.4 C183.2,159.4 184.6,159.2 184.9,158.6 C188.8,151.1 191.2,143.2 191.6,134.3 C189.7,134.3 188.2,134.3 186.7,134.3 C181.7,134.3 176.7,134.3 171.6,134.2 C168.9,134.2 166.8,132.9 166.8,130 C166.8,127.3 168.7,126 171.2,125.9 C173.3,125.8 175.5,125.8 177.6,125.8 C182.2,125.8 186.8,125.8 191.6,125.8 C190.3,111.4 185.4,99.3 176.1,88.7 C165.1,99.7 154.5,110.4 143.8,120.9 C141.5,123.1 140.2,125 141.2,128.6 C142.5,133.6 139.3,138.9 134.4,141.2 C129.7,143.5 123.9,142.6 120.1,138.9 C116.4,135.2 115.3,129.4 117.6,124.6 C119.9,119.8 125.1,116.4 130.1,117.7 C133.8,118.6 135.8,117.4 138.1,114.9 C142.8,109.9 147.8,105.1 152.7,100.2 C158.5,94.4 164.2,88.7 170.2,82.7 C159.4,73.5 147.3,68.4 133.1,67.4 C133.1,69.3 133.1,70.7 133.1,72.1 C133.1,77.4 133.1,82.6 133,87.9 C132.9,90.3 131.6,92 129.1,92.1 C126.4,92.2 125,90.4 124.8,87.9 C124.7,86.5 124.7,85.1 124.7,83.8 C124.7,78.4 124.7,73.1 124.7,67.8 C113.5,67.2 95.2,74.9 87.6,83.4 C88.6,84.2 89.8,85 90.8,85.9 C94.5,89.5 98.1,93.2 101.7,96.8 C103.6,98.7 104.3,101 102.3,103.1 C100.3,105.2 98,104.7 96,102.9 C95.2,102.1 94.4,101.3 93.6,100.5 C89.7,96.6 85.9,92.7 82,88.8 C73.3,97.2 65.8,115.5 66.9,125.7 C70.3,125.7 73.8,125.7 77.3,125.7 C80.7,125.7 84.1,125.4 87.4,126 C88.9,126.3 90.9,128.5 90.9,129.9 C90.9,131.2 88.9,132.9 87.4,133.9 C86.5,134.5 85,134.2 83.7,134.2 C78.1,134.3 72.5,134.3 66.3,134.3 Z M178.6,168.1 C145.4,168.1 112.5,168.1 79.4,168.1 C102.8,200.8 154.7,201.3 178.6,168.1 Z"/>
  </g>
</svg>
