<svg width="24" height="24" viewBox="0 0 24 24" fill="none" xmlns="http://www.w3.org/2000/svg">
<path fill-rule="evenodd" clip-rule="evenodd" d="M12 7.56522C7.25118 7.56522 3.46341 11.4771 3.46341 16.2236C3.46341 16.6558 3.13582 17.0062 2.73171 17.0062C2.3276 17.0062 2 16.6558 2 16.2236C2 10.5416 6.51106 6 12 6C17.488 6 22 10.5415 22 16.2236C22 16.6558 21.6724 17.0062 21.2683 17.0062C20.8642 17.0062 20.5366 16.6558 20.5366 16.2236C20.5366 11.4772 16.7479 7.56522 12 7.56522ZM15.7895 10.163C16.1004 10.4391 16.1431 10.9325 15.8849 11.265L14.1227 13.5341C14.4721 13.9981 14.6829 14.5833 14.6829 15.2301C14.6829 16.7959 13.447 18 11.9997 18C10.552 18 9.31707 16.7956 9.31707 15.2301C9.31707 13.6642 10.5519 12.4596 11.9997 12.4596C12.3217 12.4596 12.6333 12.5192 12.9231 12.6292L14.7591 10.2649C15.0174 9.93243 15.4787 9.88678 15.7895 10.163ZM11.9997 14.0248C11.2923 14.0248 10.7805 14.5994 10.7805 15.2301C10.7805 15.86 11.2922 16.4348 11.9997 16.4348C12.7075 16.4348 13.2195 15.8597 13.2195 15.2301C13.2195 14.5997 12.7074 14.0248 11.9997 14.0248Z" fill="currentColor"/>
</svg>
