<svg xmlns="http://www.w3.org/2000/svg" width="33" height="30" viewBox="0 0 33 30">
  <g fill="#FFFFFF">
    <path d="M17.4760528,20 C18.3164221,20 19,19.2951614 19,18.4282089 C19,17.5650363 18.3176463,16.8627176 17.4780931,16.8627176 L13.6440995,14 L13,14.692344 L15.9519017,18.4754572 L15.9555741,18.5264853 C16.0034174,19.3531193 16.6714895,20 17.4760528,20 Z"/>
    <path d="M16.4991351,0 C7.40100473,0 0,7.22568477 0,16.1074649 C0,19.2073106 0.905279362,22.218094 2.6198843,24.813076 L2.74342252,25 L4.79559543,25 L7.5772538,22.6280292 L6.37601073,21.281874 L3.66263066,23.5945588 L3.57432404,23.4488772 C2.23798095,21.2178772 1.53280256,18.6783591 1.53280256,16.1068427 C1.53280256,16.0320908 1.53717237,15.9610722 1.54563888,15.8687212 L1.55629029,15.5981569 L4.86005015,15.5943349 L4.86005015,13.8090904 L1.73263041,13.8090904 L1.76103419,13.6446541 C2.1937366,11.1534892 3.28154665,8.81067254 4.90657044,6.86916918 L5.00734923,6.74881961 L7.33636792,9.02035099 L8.63283649,7.7610359 L6.27459468,5.457595 L6.38556969,5.35857771 C8.81436576,3.17850845 11.8142416,1.86684041 15.0627416,1.56507765 L15.2199638,1.55094502 L15.2221487,5.27555962 L17.0493673,5.27555962 L17.0493673,1.5218798 L17.1993975,1.52907944 C20.8015791,1.69244909 24.2183168,3.11664486 26.820995,5.54061309 L26.9265077,5.63856377 L24.5157371,7.99737969 L25.8102939,9.25882801 L28.1598871,6.96267564 L28.2603928,7.08729165 C29.7921939,8.98817481 30.8231054,11.2562397 31.2386927,13.6458096 L31.2670965,13.8096237 L28.0187786,13.8120236 L28.0187786,15.5977125 L31.4448022,15.5977125 L31.4573654,15.8848093 C31.4622814,15.9594722 31.4671974,16.0326242 31.4671974,16.107376 C31.4671974,18.6686707 30.7679365,21.1953894 29.4456132,23.4173232 L29.3516623,23.5752709 L26.7948671,21.081084 L25.504225,22.3444877 L28.2221569,24.9998222 L30.2568506,24.9998222 L30.3814813,24.8119205 C32.0947206,22.2148053 33,19.2045552 33,16.1067538 C32.9998179,7.22568477 25.5980849,0 16.4991351,0 Z"/>
    <rect width="15" height="2" x="9" y="28"/>
  </g>
</svg>
