<svg viewBox="0 0 9 14" fill="none" xmlns="http://www.w3.org/2000/svg">
<path d="M0.37932 0.475161C0.571012 0.251521 0.891594 0.20365 1.13717 0.347233L1.22535 0.410082L7.45027 5.74573C8.06878 6.27588 8.14041 7.20705 7.61026 7.82555L7.53334 7.90862L7.45027 7.98554L1.22535 13.3212C0.973754 13.5368 0.594974 13.5077 0.37932 13.2561C0.187628 13.0325 0.189351 12.7083 0.368804 12.4876L0.444399 12.4101L6.66932 7.07443C6.68002 7.06527 6.68999 7.05529 6.69915 7.0446C6.78152 6.94851 6.78597 6.81193 6.71844 6.71188L6.66932 6.65684L0.444399 1.32119C0.192804 1.10554 0.163667 0.726757 0.37932 0.475161Z" fill="#161528"/>
</svg>
