<svg viewBox="0 0 9 14" fill="none" xmlns="http://www.w3.org/2000/svg">
<path d="M8.32136 13.7563C8.12967 13.9799 7.80909 14.0278 7.56351 13.8842L7.47533 13.8214L1.25041 8.48571C0.631904 7.95557 0.560275 7.0244 1.09042 6.40589L1.16734 6.32283L1.25041 6.24591L7.47533 0.910255C7.72693 0.694602 8.10571 0.723739 8.32136 0.975334C8.51306 1.19897 8.51133 1.52311 8.33188 1.74384L8.25628 1.82136L2.03136 7.15701C2.02067 7.16618 2.01069 7.17615 2.00153 7.18684C1.91916 7.28294 1.91471 7.41951 1.98225 7.51957L2.03136 7.5746L8.25628 12.9103C8.50788 13.1259 8.53702 13.5047 8.32136 13.7563Z" fill="#161528"/>
</svg>