<svg viewBox="0 0 24 24" fill="none" xmlns="http://www.w3.org/2000/svg">
<path fill-rule="evenodd" clip-rule="evenodd" d="M13.8947 2C12.352 2 11.1683 2.37632 10.376 3.14838C9.58359 3.92044 9.31579 4.95835 9.31579 6V6.00223V6.00458V6.00706V6.00967V6.0124V6.01526V6.01825V6.02135V6.02459V6.02794V6.03142V6.03503V6.03876V6.0426V6.04658V6.05067V6.05488V6.05922V6.06368V6.06825V6.07295V6.07776V6.0827V6.08775V6.09292V6.09821V6.10362V6.10914V6.11478V6.12054V6.12641V6.1324V6.1385V6.14472V6.15105V6.1575V6.16406V6.17073V6.17752V6.18442V6.19143V6.19855V6.20579V6.21313V6.22059V6.22816V6.23583V6.24362V6.25151V6.25952V6.26763V6.27585V6.28417V6.29261V6.30115V6.30979V6.31855V6.32741V6.33637V6.34544V6.35461V6.36389V6.37327V6.38275V6.39234V6.40203V6.41182V6.42171V6.43171V6.4418V6.452V6.4623V6.47269V6.48319V6.49378V6.50448V6.51527V6.52616V6.53715V6.54823V6.55941V6.57069V6.58207V6.59353V6.6051V6.61676V6.62851V6.64036V6.6523V6.66434V6.67646V6.68868V6.701V6.7134V6.7259V6.73848V6.75116V6.76393V6.77679V6.78973V6.80277V6.81589V6.82911V6.84241V6.8558V6.86927V6.88284V6.89648V6.91022V6.92404V6.93795V6.95194V6.96601V6.98017V6.99442V7.00874V7.02315V7.03764V7.05222V7.06687V7.08161V7.09643V7.11133V7.12631V7.14137V7.15651V7.17172V7.18702V7.20239V7.21785V7.23338V7.24899V7.26467V7.28043V7.29627V7.31218V7.32817V7.34423V7.36037V7.37658V7.39286V7.40922V7.42565V7.44216V7.45873V7.47538V7.4921V7.50889V7.52575V7.54269V7.55969V7.57676V7.5939V7.61111V7.62838V7.64573V7.66314V7.68062V7.69817V7.71578V7.73346V7.75121V7.76902V7.78689V7.80483V7.82284V7.8409V7.85904V7.87723V7.89549V7.91381V7.93219V7.95063V7.96913V7.9877V8.00632V8.025V8.04375V8.06255V8.08141V8.10033V8.11931V8.13835V8.15744V8.17659V8.1958V8.21506V8.23438V8.25375V8.27318V8.29266V8.3122V8.33179V8.35144V8.37113V8.39088V8.41068V8.43054V8.45044V8.4704V8.49041V8.51047V8.53057V8.55073V8.57094V8.59119V8.6115V8.63185V8.65225V8.67269V8.69319V8.71373V8.73431V8.75495V8.77562V8.79635V8.81711V8.83792V8.85878V8.87968V8.90062V8.9216V8.94263V8.96369V8.9848V9.00595V9.02715V9.04838V9.06965V9.09096V9.11231V9.1337V9.15513V9.17659V9.1981V9.21964V9.24122V9.26283V9.28448V9.30617V9.32789V9.34964V9.37144V9.39326V9.41512V9.43701V9.45894V9.4809V9.50289V9.52491V9.54696V9.56905V9.59116V9.61331V9.63549V9.65769V9.67993V9.70219V9.72448V9.7468V9.76915V9.79153V9.81393V9.83636V9.85881V9.8813V9.9038V9.92633V9.94889V9.97147V9.99407V10.0167V10.0394V10.062V10.0847V10.1074V10.1302V10.1529V10.1757V10.1985V10.2213V10.2442V10.267V10.2899V10.3128V10.3357V10.3587V10.3816V10.4046V10.4276V10.4506V10.4736V10.4966V10.5197V10.5427V10.5658V10.5889V10.612V10.6351V10.6582V10.6814V10.7045V10.7277V10.7509V10.7741V10.7973V10.8205V10.8437V10.8669V10.8901V10.9134V10.9366V10.9599V10.9832V11.0064V11.0297V11.053V11.0763V11.0996V11.1229V11.1462V11.1695V11.1928V11.2162V11.2395V11.2628V11.2861V11.3095V11.3328V11.3561V11.3794V11.4028V11.4261V11.4494V11.4728V11.4961V11.5194V11.5428V11.5661V11.5894V11.6127V11.6361V11.6594V11.6827V11.706V11.7293V11.7526V11.7759V11.7991V11.8224V11.8457V11.869V11.8922V11.9155V11.9387V11.9619V11.9851V12.0083V12.0316V12.0547V12.0779V12.1011V12.1242V12.1474V12.1705V12.1936V12.2168V12.2398V12.2629V12.286V12.309V12.3321V12.3551V12.3781V12.4011V12.4241V12.447V12.47V12.4929V12.5158V12.5387V12.5615V12.5844V12.6072V12.63V12.6528V12.6756V12.6983V12.721V12.7437V12.7664V12.7891V12.8117V12.8343V12.8569V12.8795V12.902V12.9245V12.947V12.9695V12.9919V13.0143V13.0367V13.0591V13.0814V13.1037V13.126V13.1482V13.1704V13.1926V13.2148V13.2369V13.259V13.2811V13.3031V13.3251V13.3471V13.369V13.3909V13.4128V13.4346V13.4564V13.4782V13.4999V13.5216V13.5433V13.5649V13.5865V13.608V13.6296V13.651V13.6725V13.6939V13.7152V13.7366V13.7578V13.7791V13.8003V13.8215V13.8426V13.8637V13.8847V13.9057V13.9267V13.9476V13.9684V13.9893V14.01V14.0308V14.0515V14.0721V14.0927V14.1133V14.1338V14.1542V14.1746V14.195V14.2153V14.2356V14.2558V14.276V14.2961V14.3162V14.3362V14.3562V14.3761V14.396V14.4158V14.4356V14.4553V14.4749V14.4946V14.5141V14.5336V14.5531V14.5724V14.5918V14.6111V14.6303V14.6495V14.6686V14.6876V14.7066V14.7256V14.7444V14.7633V14.782V14.8007V14.8194V14.8379V14.8565V14.8749V14.8933V14.9117V14.9299V14.9482V14.9663V14.9844V15.0024V15.0204V15.0383V15.0561V15.0739V15.0916V15.1092V15.1268V15.1443V15.1617V15.1791V15.1964V15.2136V15.2308C9.31579 16.2375 9.95492 17.257 11.0001 17.663C11 17.6557 11 17.6484 11 17.641C11 17.0831 11.1016 16.5483 11.2877 16.0533C11.0416 15.8479 10.8947 15.5428 10.8947 15.2308V15.2136V15.1964V15.1791V15.1617V15.1443V15.1268V15.1092V15.0916V15.0739V15.0561V15.0383V15.0204V15.0024V14.9844V14.9663V14.9482V14.9299V14.9117V14.8933V14.8749V14.8565V14.8379V14.8194V14.8007V14.782V14.7633V14.7444V14.7256V14.7066V14.6876V14.6686V14.6495V14.6303V14.6111V14.5918V14.5724V14.5531V14.5336V14.5141V14.4946V14.4749V14.4553V14.4356V14.4158V14.396V14.3761V14.3562V14.3362V14.3162V14.2961V14.276V14.2558V14.2356V14.2153V14.195V14.1746V14.1542V14.1338V14.1133V14.0927V14.0721V14.0515V14.0308V14.01V13.9893V13.9684V13.9476V13.9267V13.9057V13.8847V13.8637V13.8426V13.8215V13.8003V13.7791V13.7578V13.7366V13.7152V13.6939V13.6725V13.651V13.6296V13.608V13.5865V13.5649V13.5433V13.5216V13.4999V13.4782V13.4564V13.4346V13.4128V13.3909V13.369V13.3471V13.3251V13.3031V13.2811V13.259V13.2369V13.2148V13.1926V13.1704V13.1482V13.126V13.1037V13.0814V13.0591V13.0367V13.0143V12.9919V12.9695V12.947V12.9245V12.902V12.8795V12.8569V12.8343V12.8117V12.7891V12.7664V12.7437V12.721V12.6983V12.6756V12.6528V12.63V12.6072V12.5844V12.5615V12.5387V12.5158V12.4929V12.47V12.447V12.4241V12.4011V12.3781V12.3551V12.3321V12.309V12.286V12.2629V12.2398V12.2168V12.1936V12.1705V12.1474V12.1242V12.1011V12.0779V12.0547V12.0316V12.0083V11.9851V11.9619V11.9387V11.9155V11.8922V11.869V11.8457V11.8224V11.7991V11.7759V11.7526V11.7293V11.706V11.6827V11.6594V11.6361V11.6127V11.5894V11.5661V11.5428V11.5194V11.4961V11.4728V11.4494V11.4261V11.4028V11.3794V11.3561V11.3328V11.3095V11.2861V11.2628V11.2395V11.2162V11.1928V11.1695V11.1462V11.1229V11.0996V11.0763V11.053V11.0297V11.0064V10.9832V10.9599V10.9366V10.9134V10.8901V10.8669V10.8437V10.8205V10.7973V10.7741V10.7509V10.7277V10.7045V10.6814V10.6582V10.6351V10.612V10.5889V10.5658V10.5427V10.5197V10.4966V10.4736V10.4506V10.4276V10.4046V10.3816V10.3587V10.3357V10.3128V10.2899V10.267V10.2442V10.2213V10.1985V10.1757V10.1529V10.1302V10.1074V10.0847V10.062V10.0394V10.0167V9.99407V9.97147V9.94889V9.92633V9.9038V9.8813V9.85881V9.83636V9.81393V9.79153V9.76915V9.7468V9.72448V9.70219V9.67993V9.65769V9.63549V9.61331V9.59116V9.56905V9.54696V9.52491V9.50289V9.4809V9.45894V9.43701V9.41512V9.39326V9.37144V9.34964V9.32789V9.30617V9.28448V9.26283V9.24122V9.21964V9.1981V9.17659V9.15513V9.1337V9.11231V9.09096V9.06965V9.04838V9.02715V9.00595V8.9848V8.96369V8.94263V8.9216V8.90062V8.87968V8.85878V8.83792V8.81711V8.79635V8.77562V8.75495V8.73431V8.71373V8.69319V8.67269V8.65225V8.63185V8.6115V8.59119V8.57094V8.55073V8.53057V8.51047V8.49041V8.4704V8.45044V8.43054V8.41068V8.39088V8.37113V8.35144V8.33179V8.3122V8.29266V8.27318V8.25375V8.23438V8.21506V8.1958V8.17659V8.15744V8.13835V8.11931V8.10033V8.08141V8.06255V8.04375V8.025V8.00632V7.9877V7.96913V7.95063V7.93219V7.91381V7.89549V7.87723V7.85904V7.8409V7.82284V7.80483V7.78689V7.76902V7.75121V7.73346V7.71578V7.69817V7.68062V7.66314V7.64573V7.62838V7.61111V7.5939V7.57676V7.55969V7.54269V7.52575V7.50889V7.4921V7.47538V7.45873V7.44216V7.42565V7.40922V7.39286V7.37658V7.36037V7.34423V7.32817V7.31218V7.29627V7.28043V7.26467V7.24899V7.23338V7.21785V7.20239V7.18702V7.17172V7.15651V7.14137V7.12631V7.11133V7.09643V7.08161V7.06687V7.05222V7.03764V7.02315V7.00874V6.99442V6.98017V6.96601V6.95194V6.93795V6.92404V6.91022V6.89648V6.88284V6.86927V6.8558V6.84241V6.82911V6.81589V6.80277V6.78973V6.77679V6.76393V6.75116V6.73848V6.7259V6.7134V6.701V6.68868V6.67646V6.66434V6.6523V6.64036V6.62851V6.61676V6.6051V6.59353V6.58207V6.57069V6.55941V6.54823V6.53715V6.52616V6.51527V6.50448V6.49378V6.48319V6.47269V6.4623V6.452V6.4418V6.43171V6.42171V6.41182V6.40203V6.39234V6.38275V6.37327V6.36389V6.35461V6.34544V6.33637V6.32741V6.31855V6.30979V6.30115V6.29261V6.28417V6.27585V6.26763V6.25952V6.25151V6.24362V6.23583V6.22816V6.22059V6.21313V6.20579V6.19855V6.19143V6.18442V6.17752V6.17073V6.16406V6.1575V6.15105V6.14472V6.1385V6.1324V6.12641V6.12054V6.11478V6.10914V6.10362V6.09821V6.09292V6.08775V6.0827V6.07776V6.07295V6.06825V6.06368V6.05922V6.05488V6.05067V6.04658V6.0426V6.03876V6.03503V6.03142V6.02794V6.02459V6.02135V6.01825V6.01526V6.0124V6.00967V6.00706V6.00458V6.00223V6C10.8947 5.1955 11.1006 4.61802 11.4925 4.23624C11.8843 3.85445 12.5954 3.53846 13.8947 3.53846C15.6062 3.53846 16.4211 4.90575 16.4211 6V6.01626V6.03259V6.04898V6.06544V6.08197V6.09856V6.11522V6.13194V6.14873V6.16558V6.1825V6.19948V6.21652V6.23363V6.2508V6.26803V6.28532V6.30268V6.32009V6.33757V6.3551V6.3727V6.39036V6.40808V6.42585V6.44369V6.46158V6.47953V6.49754V6.51561V6.53373V6.55191V6.57014V6.58844V6.60678V6.62519V6.64364V6.66215V6.68072V6.69934V6.71801V6.73674V6.75552V6.77435V6.79323V6.81217V6.83115V6.85019V6.86928V6.88841V6.9076V6.92684V6.94613V6.96546V6.98485V7.00428V7.02376V7.04328V7.06286V7.08248V7.10214V7.12186V7.14161V7.16142V7.18127V7.20116V7.2211V7.24108V7.2611V7.28117V7.30128V7.32143V7.34163V7.36187V7.38214V7.40246V7.42282V7.44322V7.46366V7.48414V7.50466V7.52522V7.54581V7.56645V7.58712V7.60783V7.62857V7.64936V7.67018V7.69103V7.71192V7.73285V7.75381V7.77481V7.79584V7.8169V7.838V7.85913V7.88029V7.90149V7.92272V7.94398V7.96527V7.98659V8.00795V8.02933V8.05074V8.07219V8.09366V8.11516V8.13669V8.15825V8.17984V8.20145V8.22309V8.24476V8.26645V8.28817V8.30992V8.33169V8.35349V8.37531V8.39715V8.41902V8.44091V8.46283V8.48477V8.50673V8.52871V8.55072V8.57275V8.5948V8.61686V8.63895V8.66106V8.68319V8.70534V8.72751V8.74969V8.7719V8.79412V8.81636V8.83862V8.86089V8.88318V8.90549V8.92781V8.95015V8.9725V8.99487V9.01725V9.03965V9.06206V9.08448V9.10691V9.12936V9.15182V9.1743V9.19678V9.21928V9.24178V9.2643V9.28683V9.30936V9.33191V9.35446V9.37703V9.3996V9.42218V9.44477V9.46736V9.48996V9.51257V9.53519V9.55781V9.58043V9.60306V9.6257V9.64834V9.67099V9.69363V9.71629V9.73894V9.7616V9.78426V9.80692V9.82958V9.85225V9.87491V9.89758V9.92024V9.94291V9.96557V9.98824V10.0109V10.0336V10.0562V10.0789V10.1015V10.1242V10.1468V10.1695V10.1921V10.2148V10.2374V10.26V10.2826V10.3053V10.3279V10.3505V10.3731V10.3956V10.4182V10.4408V10.4634V10.4859V10.5085V10.531V10.5535V10.576V10.5985V10.621V10.6435V10.666V10.6885V10.7109V10.7333V10.7558V10.7782V10.8006V10.823V10.8453V10.8677V10.89V10.9123V10.9346V10.9569V10.9792V11.0015V11.0237V11.0459V11.0681V11.0903V11.1125V11.1346V11.1568V11.1789V11.201V11.223V11.2451V11.2671V11.2891V11.3111V11.3331V11.355V11.3769V11.3988V11.4207V11.4425V11.4644V11.4862V11.5079V11.5297V11.5514V11.5731V11.5948V11.6164V11.638V11.6596V11.6812V11.7027V11.7242V11.7457V11.7671V11.7885V11.8099V11.8313V11.8526V11.8739V11.8951V11.9164V11.9376V11.9587V11.9799V12.001V12.022V12.0431V12.064V12.085V12.1059V12.1268V12.1477V12.1685V12.1893V12.21V12.2307V12.2514V12.2721V12.2927V12.3132V12.3337V12.3542V12.3747V12.3951V12.4154V12.4357V12.456V12.4762V12.4964V12.5166V12.5367V12.5568V12.5768V12.5968V12.6167V12.6366V12.6565V12.6763V12.696V12.7157V12.7354V12.755V12.7746V12.7941V12.8136V12.8331V12.8524V12.8718V12.8911V12.9103V12.9295V12.9486V12.9677V12.9868V13.0057V13.0247V13.0436V13.0624V13.0734C16.9857 13.153 17.5182 13.3297 18 13.5855V13.5843V13.5672V13.5499V13.5326V13.5153V13.4979V13.4804V13.4628V13.4452V13.4276V13.4099V13.3921V13.3742V13.3564V13.3384V13.3204V13.3023V13.2842V13.266V13.2478V13.2295V13.2111V13.1927V13.1743V13.1558V13.1372V13.1186V13.0999V13.0812V13.0624V13.0436V13.0247V13.0057V12.9868V12.9677V12.9486V12.9295V12.9103V12.8911V12.8718V12.8524V12.8331V12.8136V12.7941V12.7746V12.755V12.7354V12.7157V12.696V12.6763V12.6565V12.6366V12.6167V12.5968V12.5768V12.5568V12.5367V12.5166V12.4964V12.4762V12.456V12.4357V12.4154V12.3951V12.3747V12.3542V12.3337V12.3132V12.2927V12.2721V12.2514V12.2307V12.21V12.1893V12.1685V12.1477V12.1268V12.1059V12.085V12.064V12.0431V12.022V12.001V11.9799V11.9587V11.9376V11.9164V11.8951V11.8739V11.8526V11.8313V11.8099V11.7885V11.7671V11.7457V11.7242V11.7027V11.6812V11.6596V11.638V11.6164V11.5948V11.5731V11.5514V11.5297V11.5079V11.4862V11.4644V11.4425V11.4207V11.3988V11.3769V11.355V11.3331V11.3111V11.2891V11.2671V11.2451V11.223V11.201V11.1789V11.1568V11.1346V11.1125V11.0903V11.0681V11.0459V11.0237V11.0015V10.9792V10.9569V10.9346V10.9123V10.89V10.8677V10.8453V10.823V10.8006V10.7782V10.7558V10.7333V10.7109V10.6885V10.666V10.6435V10.621V10.5985V10.576V10.5535V10.531V10.5085V10.4859V10.4634V10.4408V10.4182V10.3956V10.3731V10.3505V10.3279V10.3053V10.2826V10.26V10.2374V10.2148V10.1921V10.1695V10.1468V10.1242V10.1015V10.0789V10.0562V10.0336V10.0109V9.98824V9.96557V9.94291V9.92024V9.89758V9.87491V9.85225V9.82958V9.80692V9.78426V9.7616V9.73894V9.71629V9.69363V9.67099V9.64834V9.6257V9.60306V9.58043V9.55781V9.53519V9.51257V9.48996V9.46736V9.44477V9.42218V9.3996V9.37703V9.35446V9.33191V9.30936V9.28683V9.2643V9.24178V9.21928V9.19678V9.1743V9.15182V9.12936V9.10691V9.08448V9.06206V9.03965V9.01725V8.99487V8.9725V8.95015V8.92781V8.90549V8.88318V8.86089V8.83862V8.81636V8.79412V8.7719V8.74969V8.72751V8.70534V8.68319V8.66106V8.63895V8.61686V8.5948V8.57275V8.55072V8.52871V8.50673V8.48477V8.46283V8.44091V8.41902V8.39715V8.37531V8.35349V8.33169V8.30992V8.28817V8.26645V8.24476V8.22309V8.20145V8.17984V8.15825V8.13669V8.11516V8.09366V8.07219V8.05074V8.02933V8.00795V7.98659V7.96527V7.94398V7.92272V7.90149V7.88029V7.85913V7.838V7.8169V7.79584V7.77481V7.75381V7.73285V7.71192V7.69103V7.67018V7.64936V7.62857V7.60783V7.58712V7.56645V7.54581V7.52522V7.50466V7.48414V7.46366V7.44322V7.42282V7.40246V7.38214V7.36187V7.34163V7.32143V7.30128V7.28117V7.2611V7.24108V7.2211V7.20116V7.18127V7.16142V7.14161V7.12186V7.10214V7.08248V7.06286V7.04328V7.02376V7.00428V6.98485V6.96546V6.94613V6.92684V6.9076V6.88841V6.86928V6.85019V6.83115V6.81217V6.79323V6.77435V6.75552V6.73674V6.71801V6.69934V6.68072V6.66215V6.64364V6.62519V6.60678V6.58844V6.57014V6.55191V6.53373V6.51561V6.49754V6.47953V6.46158V6.44369V6.42585V6.40808V6.39036V6.3727V6.3551V6.33757V6.32009V6.30268V6.28532V6.26803V6.2508V6.23363V6.21652V6.19948V6.1825V6.16558V6.14873V6.13194V6.11522V6.09856V6.08197V6.06544V6.04898V6.03259V6.01626V6C18 4.32502 16.7307 2 13.8947 2ZM13.746 21.8302C13.0524 21.5167 12.4497 21.0446 11.9871 20.4615C10.6446 20.459 9.57845 20.0529 8.83957 19.2684C8.09056 18.4731 7.57895 17.1838 7.57895 15.2308V6.92308C7.57895 6.49824 7.22549 6.15385 6.78947 6.15385C6.35346 6.15385 6 6.49824 6 6.92308V15.2308C6 17.4316 6.57786 19.1423 7.67622 20.3086C8.78234 21.483 10.317 22 12 22C12.598 22 13.1857 21.9498 13.746 21.8302ZM14.6842 13.14V6.92308C14.6842 6.49824 14.3308 6.15385 13.8947 6.15385C13.4587 6.15385 13.1053 6.49824 13.1053 6.92308V13.8028C13.5783 13.4943 14.1116 13.2666 14.6842 13.14Z" fill="currentColor"/>
<path fill-rule="evenodd" clip-rule="evenodd" d="M19 17.5C19 19.433 17.433 21 15.5 21C13.567 21 12 19.433 12 17.5C12 15.567 13.567 14 15.5 14C17.433 14 19 15.567 19 17.5ZM13.7322 15.7322C13.9275 15.537 14.2441 15.537 14.4394 15.7322L15.5 16.7929L16.5607 15.7322C16.7559 15.537 17.0725 15.537 17.2678 15.7322C17.463 15.9275 17.463 16.2441 17.2678 16.4393L16.2071 17.5L17.2678 18.5607C17.463 18.7559 17.463 19.0725 17.2678 19.2678C17.0725 19.463 16.7559 19.463 16.5607 19.2678L15.5 18.2071L14.4394 19.2678C14.2441 19.463 13.9275 19.463 13.7322 19.2678C13.537 19.0725 13.537 18.7559 13.7322 18.5607L14.7929 17.5L13.7322 16.4393C13.537 16.2441 13.537 15.9275 13.7322 15.7322Z" fill="#DA1E28"/>
</svg>
