<svg xmlns="http://www.w3.org/2000/svg" viewBox="0 0 258 258">
  <g>
    <circle cx="129" cy="129" r="129"/>
    <circle cx="129" cy="128.5" r="119.5" fill="#FFF"/>
    <g transform="translate(40 69)">
      <path d="M0.6,89.2 C2.4,80.3 4.2,71.4 5.9,62.5 C7.6,53.9 9.1,45.3 10.8,36.7 C12.3,28.9 16.3,26 26.4,25.3 C26.9,22.2 27.2,19 28,16 C30.7,5.7 39.6,-1 49,0.6 C57.5,2.1 62.1,8 64.5,15.8 C65.4,18.7 65.7,21.9 66.9,25.4 C67.4,24.6 68,23.8 68.3,22.9 C69.7,18.5 70.3,13.7 72.4,9.7 C75.6,3.5 81.2,-3.10862447e-14 88.4,0.3 C95.9,0.6 101,5 104.1,11.4 C105.7,14.7 106.1,18.6 107.1,22.2 C107.4,23.3 108,24.3 108.5,25.3 C108.9,24.2 109.6,23.1 109.7,22 C110.1,16.4 111.9,11.3 115.4,7 C124.3,-3.7 139.5,-1.5 145.6,11.5 C147.3,15.1 147.8,19.3 148.5,23.3 C148.8,25.2 149.4,26.1 151.1,26.4 C156.3,27.2 158.4,30.5 159.3,35.4 C162.9,55.7 166.8,76 170.6,96.2 C171.8,102.7 170.1,104.7 163.4,104.7 C121,104.7 78.6,104.7 36.2,104.7 C35,104.7 33.7,104.7 32.6,104.4 C31.5,104.1 30,103.7 29.4,102.9 C27.6,100.4 25.2,100.5 22.6,100.6 C19.2,100.7 15.7,100.5 12.3,100.7 C6.8,101 2.9,99 0.7,93.8 C0.6,92.3 0.6,90.7 0.6,89.2 Z M34.4,96.3 C77.1,96.3 119.6,96.3 162.3,96.3 C160.5,86.5 158.6,77.1 157,67.6 C156.5,64.7 155.5,63.9 152.6,63.9 C112.7,64 72.9,64 33,64 C31.9,64 30.7,64.1 29.4,64.2 C31.1,75.1 32.7,85.7 34.4,96.3 Z M95.4,36.4 C95.2,35.9 95.1,35.4 94.9,34.9 C85,34.9 75.2,34.8 65.3,35 C64.4,35 63.2,36.4 62.6,37.4 C59.2,43 54.8,47 48,47.9 C45.3,48.2 43,47.8 42.4,44.6 C41.9,42 43.3,40.4 46.9,39.7 C49.7,39.2 52.1,38.1 53.8,35.2 C44,35.2 34.6,35.2 24.8,35.2 C25.9,42.2 26.9,48.9 28,55.6 C70.4,55.6 112.3,55.6 154.6,55.6 C153.5,49.8 152.5,44.1 151.3,38.5 C151,37.2 150.2,35.5 149.2,35.1 C147.3,34.2 146.2,35.7 145.2,37.5 C142.1,43.1 137.6,47 131,47.9 C127.5,48.4 125.4,47.1 125.1,44.6 C124.8,41.3 126.8,40.2 129.7,39.7 C132.5,39.3 134.9,38.1 136.6,35.1 C135.1,35 134.1,34.9 133,34.9 C124.8,34.9 116.6,35 108.4,34.9 C106.2,34.9 104.9,35.4 103.7,37.6 C100.5,43.5 95.8,47.4 88.8,48 C86.1,48.2 84.1,47.4 83.7,44.5 C83.4,41.6 85.1,40.5 87.7,39.8 C90.5,38.9 92.9,37.5 95.4,36.4 Z M18.2,46.1 C18,46.1 17.7,46.1 17.5,46.2 C16.1,53.4 14.7,60.5 13.4,67.7 C12.1,74.8 10.7,81.8 9.5,88.9 C9.3,90 10.1,92.3 10.5,92.3 C15.4,92.5 20.3,92.5 25.4,92.5 C22.9,76.6 20.5,61.4 18.2,46.1 Z M117,25.1 C125.7,25.1 133,25.1 141.5,25.1 C140,20.8 139.2,16.8 137.2,13.5 C133,6.6 125.2,6.7 121.1,13.6 C119.2,16.9 118.4,20.9 117,25.1 Z M99,25.2 C99,20 97.9,15.5 94.7,11.9 C90.6,7.3 84.9,7.3 80.9,12 C77.6,15.7 76.4,20.2 76.7,25.2 C84.1,25.2 91.4,25.2 99,25.2 Z M35.2,25.1 C42.8,25.1 50.1,25.1 57.5,25.1 C57.7,19.9 56.5,15.4 53.1,11.7 C49.1,7.4 43.7,7.4 39.7,11.7 C36.2,15.4 35,19.9 35.2,25.1 Z"/>
      <path fill="#FFF" d="M34.4 96.3C32.8 85.7 31.1 75.1 29.4 64.1 30.7 64 31.9 63.9 33 63.9 72.9 63.9 112.7 63.9 152.6 63.8 155.5 63.8 156.5 64.7 157 67.5 158.6 77 160.4 86.5 162.3 96.2 119.5 96.3 77.1 96.3 34.4 96.3zM95.4 36.4C92.9 37.5 90.5 39 87.9 39.7 85.3 40.4 83.5 41.5 83.9 44.4 84.2 47.3 86.3 48.1 89 47.9 95.9 47.3 100.7 43.4 103.9 37.5 105.1 35.4 106.4 34.8 108.6 34.8 116.8 34.9 125 34.8 133.2 34.8 134.3 34.8 135.3 34.9 136.8 35 135.1 38 132.7 39.2 129.9 39.6 127 40 125 41.2 125.3 44.5 125.6 47 127.7 48.3 131.2 47.8 137.8 46.9 142.3 43.1 145.4 37.4 146.4 35.7 147.5 34.2 149.4 35 150.4 35.5 151.2 37.1 151.5 38.4 152.7 44 153.7 49.7 154.8 55.5 112.5 55.5 70.6 55.5 28.2 55.5 27.2 48.8 26.1 42.1 25 35.1 34.8 35.1 44.2 35.1 54 35.1 52.3 38 49.8 39.1 47.1 39.6 43.6 40.3 42.1 41.9 42.6 44.5 43.2 47.6 45.6 48.1 48.2 47.8 55 47 59.4 42.9 62.8 37.3 63.4 36.3 64.6 35 65.5 34.9 75.4 34.7 85.2 34.8 95.1 34.8 95 35.4 95.2 35.9 95.4 36.4zM18.2 46.1C20.6 61.4 23 76.6 25.4 92.4 20.3 92.4 15.4 92.5 10.5 92.2 10.1 92.2 9.3 89.9 9.5 88.8 10.7 81.7 12.1 74.6 13.4 67.6 14.8 60.4 16.1 53.3 17.5 46.1 17.7 46.1 17.9 46.1 18.2 46.1zM117 25.1C118.5 20.9 119.2 16.9 121.1 13.6 125.2 6.7 133 6.6 137.2 13.5 139.2 16.8 139.9 20.8 141.5 25.1 133 25.1 125.7 25.1 117 25.1zM99 25.2C91.4 25.2 84.1 25.2 76.7 25.2 76.3 20.1 77.6 15.7 80.9 12 85 7.3 90.6 7.3 94.7 11.9 97.9 15.6 99 20 99 25.2zM35.2 25.1C35.1 19.9 36.2 15.4 39.7 11.7 43.7 7.4 49.1 7.4 53.1 11.7 56.5 15.4 57.7 19.9 57.5 25.1 50.1 25.1 42.7 25.1 35.2 25.1z"/>
    </g>
  </g>
</svg>
