<svg width="20" height="20" viewBox="0 0 20 20" xmlns="http://www.w3.org/2000/svg">
<path fill-rule="evenodd" clip-rule="evenodd" d="M13.6162 18.3337H6.38262C3.5618 18.3337 1.6665 16.354 1.6665 13.4079V6.59272C1.6665 3.64663 3.5618 1.66699 6.38262 1.66699H9.44773C9.78711 1.66699 10.0625 1.94242 10.0625 2.28179C10.0625 2.62115 9.78711 2.89658 9.44773 2.89658H6.38262C4.26434 2.89658 2.89615 4.3475 2.89615 6.59272V13.4079C2.89615 15.6532 4.26434 17.1041 6.38262 17.1041H13.6162C15.7345 17.1041 17.1035 15.6532 17.1035 13.4079V10.1061C17.1035 9.7667 17.379 9.49128 17.7183 9.49128C18.0577 9.49128 18.3332 9.7667 18.3332 10.1061V13.4079C18.3332 16.354 16.4371 18.3337 13.6162 18.3337Z" />
<path fill-rule="evenodd" clip-rule="evenodd" d="M10.1825 9.81762C9.93894 9.57401 9.93894 9.17858 10.1825 8.93497L17.2678 1.8497C17.5114 1.60609 17.9069 1.60609 18.1505 1.8497C18.3941 2.09331 18.3941 2.48873 18.1505 2.73234L11.0652 9.81762C10.8216 10.0612 10.4262 10.0612 10.1825 9.81762Z" />
<path fill-rule="evenodd" clip-rule="evenodd" d="M13.5278 2.81233C13.4079 2.69242 13.3332 2.52605 13.3332 2.34272C13.3325 1.97544 13.6289 1.6766 13.9975 1.67597L17.6663 1.66781C18.0205 1.66655 18.3344 1.98047 18.3332 2.33456L18.3256 6.00357C18.3244 6.37147 18.0261 6.66843 17.6588 6.66781C17.2908 6.66655 16.9932 6.36896 16.9945 6.00106L17.0001 3.00068L14 3.00696C13.8154 3.00822 13.6484 2.93288 13.5278 2.81233Z"/>
</svg>
