<svg width="24" height="24" viewBox="0 0 24 24" fill="none" xmlns="http://www.w3.org/2000/svg">
<path fill-rule="evenodd" clip-rule="evenodd" d="M16.3397 22H7.65934C4.27436 22 2 19.6244 2 16.0891V7.91088C2 4.37557 4.27436 2 7.65934 2H11.3375C11.7447 2 12.0753 2.33051 12.0753 2.73775C12.0753 3.14499 11.7447 3.47551 11.3375 3.47551H7.65934C5.11741 3.47551 3.47558 5.2166 3.47558 7.91088V16.0891C3.47558 18.7834 5.11741 20.5245 7.65934 20.5245H16.3397C18.8816 20.5245 20.5244 18.7834 20.5244 16.0891V12.1269C20.5244 11.7197 20.855 11.3891 21.2622 11.3891C21.6695 11.3891 22 11.7197 22 12.1269V16.0891C22 19.6244 19.7247 22 16.3397 22Z" fill="black"/>
<path fill-rule="evenodd" clip-rule="evenodd" d="M12.2192 11.7808C11.9269 11.4884 11.9269 11.0139 12.2192 10.7216L20.7216 2.21925C21.0139 1.92692 21.4884 1.92692 21.7808 2.21925C22.0731 2.51158 22.0731 2.98609 21.7808 3.27842L13.2784 11.7808C12.9861 12.0731 12.5116 12.0731 12.2192 11.7808Z" fill="black"/>
<path fill-rule="evenodd" clip-rule="evenodd" d="M16.2336 3.37441C16.0897 3.23051 16 3.03086 16 2.81087C15.9992 2.37014 16.3549 2.01153 16.7972 2.01078L21.1998 2.00098C21.6248 1.99947 22.0015 2.37617 22 2.80108L21.991 7.20389C21.9894 7.64538 21.6315 8.00173 21.1908 8.00098C20.7492 7.99947 20.3921 7.64236 20.3936 7.20088L20.4003 3.60043L16.8002 3.60796C16.5787 3.60947 16.3783 3.51906 16.2336 3.37441Z" fill="black"/>
</svg>
