<svg viewBox="0 0 22 22" fill="none" xmlns="http://www.w3.org/2000/svg">
<g opacity="0.9">
<path fill-rule="evenodd" clip-rule="evenodd" d="M12.29 3.30005H5.07583C4.09509 3.30005 3.30005 4.07766 3.30005 5.03689V18.0632C3.30005 19.0224 4.09509 19.8 5.07583 19.8H11.735H12.29H18.0243L18.1859 19.793C19.0909 19.7131 19.8 18.9691 19.8 18.0632V7.20794L19.7928 7.04986C19.7111 6.16471 18.9505 5.4711 18.0243 5.4711H14.0657V5.03689C14.0657 4.07766 13.2707 3.30005 12.29 3.30005ZM14.0657 6.77373V18.0632C14.0657 18.2131 14.0463 18.3586 14.0098 18.4974H18.0243C18.2388 18.4974 18.4178 18.3486 18.4592 18.1507L18.4682 18.0632V7.20794C18.4682 6.99811 18.316 6.82304 18.1137 6.78255L18.0243 6.77373H14.0657ZM12.2909 18.4974C12.5357 18.4969 12.7339 18.3027 12.7339 18.0632V5.03689C12.7339 4.79708 12.5351 4.60268 12.29 4.60268H5.07583C4.83065 4.60268 4.63189 4.79708 4.63189 5.03689V18.0632C4.63189 18.303 4.83065 18.4974 5.07583 18.4974L11.735 18.4974L12.29 18.4974C12.2903 18.4974 12.2906 18.4974 12.2909 18.4974ZM7.29556 5.57965H6.29669C5.80632 5.57965 5.40879 5.96846 5.40879 6.44807V7.42505C5.40879 7.90466 5.80632 8.29347 6.29669 8.29347H7.29556C7.78593 8.29347 8.18346 7.90466 8.18346 7.42505V6.44807C8.18346 5.96846 7.78593 5.57965 7.29556 5.57965ZM7.07359 6.66518V7.20794H6.51866V6.66518H7.07359ZM6.29669 9.92176H7.29556C7.78593 9.92176 8.18346 10.3106 8.18346 10.7902V11.7672C8.18346 12.2468 7.78593 12.6356 7.29556 12.6356H6.29669C5.80632 12.6356 5.40879 12.2468 5.40879 11.7672V10.7902C5.40879 10.3106 5.80632 9.92176 6.29669 9.92176ZM7.07359 11.55V11.0073H6.51866V11.55H7.07359ZM10.6252 5.57965H9.62628C9.13591 5.57965 8.73839 5.96846 8.73839 6.44807V7.42505C8.73839 7.90466 9.13591 8.29347 9.62628 8.29347H10.6252C11.1155 8.29347 11.5131 7.90466 11.5131 7.42505V6.44807C11.5131 5.96846 11.1155 5.57965 10.6252 5.57965ZM10.4032 6.66518V7.20794H9.84826V6.66518H10.4032ZM15.7305 9.92176H16.7294C17.2198 9.92176 17.6173 10.3106 17.6173 10.7902V11.7672C17.6173 12.2468 17.2198 12.6356 16.7294 12.6356H15.7305C15.2402 12.6356 14.8427 12.2468 14.8427 11.7672V10.7902C14.8427 10.3106 15.2402 9.92176 15.7305 9.92176ZM16.5074 11.55V11.0073H15.9525V11.55H16.5074ZM16.7294 14.2639H15.7305C15.2402 14.2639 14.8427 14.6527 14.8427 15.1323V16.1093C14.8427 16.5889 15.2402 16.9777 15.7305 16.9777H16.7294C17.2198 16.9777 17.6173 16.5889 17.6173 16.1093V15.1323C17.6173 14.6527 17.2198 14.2639 16.7294 14.2639ZM16.5074 15.3494V15.8922H15.9525V15.3494H16.5074ZM9.62628 9.92176H10.6252C11.1155 9.92176 11.5131 10.3106 11.5131 10.7902V11.7672C11.5131 12.2468 11.1155 12.6356 10.6252 12.6356H9.62628C9.13591 12.6356 8.73839 12.2468 8.73839 11.7672V10.7902C8.73839 10.3106 9.13591 9.92176 9.62628 9.92176ZM10.4032 11.55V11.0073H9.84826V11.55H10.4032ZM7.29556 14.2639H6.29669C5.80632 14.2639 5.40879 14.6527 5.40879 15.1323V16.1093C5.40879 16.5889 5.80632 16.9777 6.29669 16.9777H7.29556C7.78593 16.9777 8.18346 16.5889 8.18346 16.1093V15.1323C8.18346 14.6527 7.78593 14.2639 7.29556 14.2639ZM7.07359 15.3494V15.8922H6.51866V15.3494H7.07359ZM9.62628 14.2639H10.6252C11.1155 14.2639 11.5131 14.6527 11.5131 15.1323V16.1093C11.5131 16.5889 11.1155 16.9777 10.6252 16.9777H9.62628C9.13591 16.9777 8.73839 16.5889 8.73839 16.1093V15.1323C8.73839 14.6527 9.13591 14.2639 9.62628 14.2639ZM10.4032 15.8922V15.3494H9.84826V15.8922H10.4032Z" fill="black"/>
<mask id="mask0_1400_77725" style="mask-type:alpha" maskUnits="userSpaceOnUse" x="3" y="3" width="17" height="17">
<path fill-rule="evenodd" clip-rule="evenodd" d="M12.29 3.30005H5.07583C4.09509 3.30005 3.30005 4.07766 3.30005 5.03689V18.0632C3.30005 19.0224 4.09509 19.8 5.07583 19.8H11.735H12.29H18.0243L18.1859 19.793C19.0909 19.7131 19.8 18.9691 19.8 18.0632V7.20794L19.7928 7.04986C19.7111 6.16471 18.9505 5.4711 18.0243 5.4711H14.0657V5.03689C14.0657 4.07766 13.2707 3.30005 12.29 3.30005ZM14.0657 6.77373V18.0632C14.0657 18.2131 14.0463 18.3586 14.0098 18.4974H18.0243C18.2388 18.4974 18.4178 18.3486 18.4592 18.1507L18.4682 18.0632V7.20794C18.4682 6.99811 18.316 6.82304 18.1137 6.78255L18.0243 6.77373H14.0657ZM12.2909 18.4974C12.5357 18.4969 12.7339 18.3027 12.7339 18.0632V5.03689C12.7339 4.79708 12.5351 4.60268 12.29 4.60268H5.07583C4.83065 4.60268 4.63189 4.79708 4.63189 5.03689V18.0632C4.63189 18.303 4.83065 18.4974 5.07583 18.4974L11.735 18.4974L12.29 18.4974C12.2903 18.4974 12.2906 18.4974 12.2909 18.4974ZM7.29556 5.57965H6.29669C5.80632 5.57965 5.40879 5.96846 5.40879 6.44807V7.42505C5.40879 7.90466 5.80632 8.29347 6.29669 8.29347H7.29556C7.78593 8.29347 8.18346 7.90466 8.18346 7.42505V6.44807C8.18346 5.96846 7.78593 5.57965 7.29556 5.57965ZM7.07359 6.66518V7.20794H6.51866V6.66518H7.07359ZM6.29669 9.92176H7.29556C7.78593 9.92176 8.18346 10.3106 8.18346 10.7902V11.7672C8.18346 12.2468 7.78593 12.6356 7.29556 12.6356H6.29669C5.80632 12.6356 5.40879 12.2468 5.40879 11.7672V10.7902C5.40879 10.3106 5.80632 9.92176 6.29669 9.92176ZM7.07359 11.55V11.0073H6.51866V11.55H7.07359ZM10.6252 5.57965H9.62628C9.13591 5.57965 8.73839 5.96846 8.73839 6.44807V7.42505C8.73839 7.90466 9.13591 8.29347 9.62628 8.29347H10.6252C11.1155 8.29347 11.5131 7.90466 11.5131 7.42505V6.44807C11.5131 5.96846 11.1155 5.57965 10.6252 5.57965ZM10.4032 6.66518V7.20794H9.84826V6.66518H10.4032ZM15.7305 9.92176H16.7294C17.2198 9.92176 17.6173 10.3106 17.6173 10.7902V11.7672C17.6173 12.2468 17.2198 12.6356 16.7294 12.6356H15.7305C15.2402 12.6356 14.8427 12.2468 14.8427 11.7672V10.7902C14.8427 10.3106 15.2402 9.92176 15.7305 9.92176ZM16.5074 11.55V11.0073H15.9525V11.55H16.5074ZM16.7294 14.2639H15.7305C15.2402 14.2639 14.8427 14.6527 14.8427 15.1323V16.1093C14.8427 16.5889 15.2402 16.9777 15.7305 16.9777H16.7294C17.2198 16.9777 17.6173 16.5889 17.6173 16.1093V15.1323C17.6173 14.6527 17.2198 14.2639 16.7294 14.2639ZM16.5074 15.3494V15.8922H15.9525V15.3494H16.5074ZM9.62628 9.92176H10.6252C11.1155 9.92176 11.5131 10.3106 11.5131 10.7902V11.7672C11.5131 12.2468 11.1155 12.6356 10.6252 12.6356H9.62628C9.13591 12.6356 8.73839 12.2468 8.73839 11.7672V10.7902C8.73839 10.3106 9.13591 9.92176 9.62628 9.92176ZM10.4032 11.55V11.0073H9.84826V11.55H10.4032ZM7.29556 14.2639H6.29669C5.80632 14.2639 5.40879 14.6527 5.40879 15.1323V16.1093C5.40879 16.5889 5.80632 16.9777 6.29669 16.9777H7.29556C7.78593 16.9777 8.18346 16.5889 8.18346 16.1093V15.1323C8.18346 14.6527 7.78593 14.2639 7.29556 14.2639ZM7.07359 15.3494V15.8922H6.51866V15.3494H7.07359ZM9.62628 14.2639H10.6252C11.1155 14.2639 11.5131 14.6527 11.5131 15.1323V16.1093C11.5131 16.5889 11.1155 16.9777 10.6252 16.9777H9.62628C9.13591 16.9777 8.73839 16.5889 8.73839 16.1093V15.1323C8.73839 14.6527 9.13591 14.2639 9.62628 14.2639ZM10.4032 15.8922V15.3494H9.84826V15.8922H10.4032Z" fill="white"/>
</mask>
<g mask="url(#mask0_1400_77725)">
<rect width="22" height="22" fill="#A9ACBC"/>
</g>
</g>
</svg>
