<svg xmlns="http://www.w3.org/2000/svg" viewBox="0 0 258 258">
  <g>
    <circle cx="129" cy="129" r="129"/>
    <circle cx="129" cy="128.5" r="119.5" fill="#FFF"/>
    <path d="M182.2,196.8 C145.4,196.8 108.5,196.8 71.7,196.8 C61.5,193 58.9,189.2 58.9,178.1 C58.9,144.6 58.9,111.2 58.9,77.7 C58.9,66.9 65,60.8 75.9,60.8 C97.2,60.8 118.6,60.8 139.9,60.8 C152.9,60.8 165.9,60.8 178.9,60.8 C185.5,60.8 190.5,63.6 193.4,69.6 C194,70.9 194.4,72.2 194.9,73.5 C194.9,110.3 194.9,147.2 194.9,184 C193.3,190.8 189,195 182.2,196.8 Z M96.9,91 C96.9,116.3 96.9,141.3 96.9,166.4 C101.4,166.4 105.8,166.4 110.5,166.4 C110.5,157.1 110.5,148 110.5,138.6 C112.9,138.6 114.9,138.7 116.9,138.6 C124.2,138.4 131.6,138.6 138.9,137.7 C146.2,136.8 152.2,133.2 155.1,126 C156.4,122.8 157,119.2 157.2,115.7 C157.9,102.4 149.4,92.5 136.1,91.5 C127.6,90.9 119.1,91.1 110.6,91 C106.1,91 101.6,91 96.9,91 Z"/>
    <path fill="#FFF" d="M96.9,91 C101.6,91 106.1,91 110.6,91 C119.1,91.1 127.6,90.9 136.1,91.5 C149.4,92.5 157.9,102.4 157.2,115.7 C157,119.2 156.4,122.8 155.1,126 C152.2,133.1 146.2,136.8 138.9,137.7 C131.6,138.6 124.3,138.4 116.9,138.6 C114.9,138.7 112.9,138.6 110.5,138.6 C110.5,148 110.5,157.1 110.5,166.4 C105.8,166.4 101.4,166.4 96.9,166.4 C96.9,141.3 96.9,116.4 96.9,91 Z M110.6,101.8 C110.6,110.8 110.6,119.7 110.6,128.6 C111,128.7 111.4,128.8 111.7,128.8 C117.8,128.8 123.9,128.9 130,128.7 C137.6,128.4 142.5,123.3 142.9,115.8 C143.2,109.4 137.8,102.5 131.2,101.9 C124.4,101.4 117.5,101.8 110.6,101.8 Z"/>
    <path d="M110.6,101.8 C117.6,101.8 124.4,101.4 131.1,101.9 C137.7,102.4 143.2,109.4 142.8,115.8 C142.4,123.3 137.5,128.4 129.9,128.7 C123.8,128.9 117.7,128.8 111.6,128.8 C111.3,128.8 110.9,128.7 110.5,128.6 C110.6,119.7 110.6,110.9 110.6,101.8 Z"/>
  </g>
</svg>
