<svg width="24" height="24" viewBox="0 0 24 24" fill="none" xmlns="http://www.w3.org/2000/svg">
<path fill-rule="evenodd" clip-rule="evenodd" d="M8.08619 2.0118H14.7378C14.942 2.0118 15.1374 2.09508 15.2788 2.2424L20.3438 7.5184C20.4779 7.65807 20.5528 7.84418 20.5528 8.0378V17.2012C20.5692 19.7005 18.6013 21.7628 16.1042 21.8642C16.0941 21.8646 16.084 21.8648 16.0738 21.8648H8.09483C8.07005 21.8654 8.04834 21.8653 8.03266 21.8651C8.00881 21.865 8.0047 21.8648 7.99281 21.8648L7.97613 21.8646C5.45184 21.8085 3.45048 19.719 3.50081 17.196V6.4908L3.50101 6.47313C3.55963 3.98601 5.59871 2.00304 8.08619 2.0118ZM5.00081 6.50011V17.2038L5.00063 17.2201C4.96368 18.9176 6.30792 20.3244 8.00439 20.3649L8.02355 20.365L8.04495 20.3652L8.05712 20.3652C8.05974 20.3652 8.06075 20.3652 8.06063 20.3652C8.06868 20.3649 8.07674 20.3648 8.08481 20.3648H16.0578C17.741 20.2889 19.0649 18.8958 19.0528 17.2092L19.0528 17.2038L19.0528 8.33953L14.4181 3.5118H8.08192C6.41287 3.50538 5.04454 4.83365 5.00081 6.50011Z" fill="black"/>
<path d="M6.71 16.025C6.64667 16.025 6.59333 16.0033 6.55 15.96C6.50667 15.9167 6.485 15.8633 6.485 15.8V12.74C6.485 12.6767 6.50667 12.6233 6.55 12.58C6.59333 12.5333 6.64667 12.51 6.71 12.51H7.85C8.16667 12.51 8.425 12.5633 8.625 12.67C8.825 12.7767 8.96833 12.9133 9.055 13.08C9.14167 13.2467 9.185 13.4267 9.185 13.62C9.185 13.8133 9.14167 13.9933 9.055 14.16C8.96833 14.3267 8.825 14.4633 8.625 14.57C8.425 14.6767 8.16667 14.73 7.85 14.73H6.94V15.8C6.94 15.8633 6.91667 15.9167 6.87 15.96C6.82667 16.0033 6.77333 16.025 6.71 16.025ZM7.805 14.3C8.145 14.3 8.38333 14.235 8.52 14.105C8.66 13.975 8.73 13.8133 8.73 13.62C8.73 13.4267 8.66 13.265 8.52 13.135C8.38333 13.005 8.145 12.94 7.805 12.94H6.94V14.3H7.805Z" fill="black"/>
<path d="M10.5194 16C10.456 16 10.4027 15.9783 10.3594 15.935C10.316 15.8917 10.2944 15.8383 10.2944 15.775V12.74C10.2944 12.6767 10.316 12.6233 10.3594 12.58C10.4027 12.5333 10.456 12.51 10.5194 12.51H11.5244C11.9044 12.51 12.226 12.595 12.4894 12.765C12.756 12.9317 12.956 13.1483 13.0894 13.415C13.2227 13.6817 13.2894 13.9617 13.2894 14.255C13.2894 14.5483 13.2227 14.8283 13.0894 15.095C12.956 15.3617 12.756 15.58 12.4894 15.75C12.226 15.9167 11.9044 16 11.5244 16H10.5194ZM11.4694 15.575C11.7427 15.575 11.9827 15.52 12.1894 15.41C12.396 15.2967 12.556 15.1417 12.6694 14.945C12.7827 14.745 12.8394 14.515 12.8394 14.255C12.8394 13.995 12.7827 13.7667 12.6694 13.57C12.556 13.37 12.396 13.215 12.1894 13.105C11.9827 12.9917 11.7427 12.935 11.4694 12.935H10.7494V15.575H11.4694Z" fill="black"/>
<path d="M14.7243 16.025C14.6609 16.025 14.6076 16.0033 14.5643 15.96C14.5209 15.9167 14.4993 15.8633 14.4993 15.8V12.74C14.4993 12.6767 14.5209 12.6233 14.5643 12.58C14.6076 12.5333 14.6609 12.51 14.7243 12.51H16.6693C16.7293 12.51 16.7793 12.5317 16.8193 12.575C16.8626 12.615 16.8843 12.665 16.8843 12.725C16.8843 12.785 16.8626 12.835 16.8193 12.875C16.7793 12.915 16.7293 12.935 16.6693 12.935H14.9543V14.04H16.4943C16.5543 14.04 16.6043 14.0617 16.6443 14.105C16.6876 14.145 16.7093 14.195 16.7093 14.255C16.7093 14.315 16.6876 14.365 16.6443 14.405C16.6043 14.445 16.5543 14.465 16.4943 14.465H14.9543V15.8C14.9543 15.8633 14.9309 15.9167 14.8843 15.96C14.8409 16.0033 14.7876 16.025 14.7243 16.025Z" fill="black"/>
<path fill-rule="evenodd" clip-rule="evenodd" d="M8.52 13.135C8.38333 13.005 8.145 12.94 7.805 12.94H6.94V14.3H7.805C8.145 14.3 8.38333 14.235 8.52 14.105C8.66 13.975 8.73 13.8133 8.73 13.62C8.73 13.4267 8.66 13.265 8.52 13.135ZM7.24 14H7.805C8.124 14 8.26276 13.9356 8.31324 13.8876L8.31585 13.8851C8.39389 13.8127 8.43 13.731 8.43 13.62C8.43 13.509 8.39391 13.4273 8.31587 13.3548L8.31322 13.3524C8.26275 13.3044 8.124 13.24 7.805 13.24H7.24V14ZM12.1894 13.105C11.9827 12.9917 11.7427 12.935 11.4694 12.935H10.7494V15.575H11.4694C11.7427 15.575 11.9827 15.52 12.1894 15.41C12.396 15.2967 12.556 15.1417 12.6694 14.945C12.7827 14.745 12.8394 14.515 12.8394 14.255C12.8394 13.995 12.7827 13.7667 12.6694 13.57C12.556 13.37 12.396 13.215 12.1894 13.105ZM12.4089 14.7961C12.4931 14.6471 12.5394 14.4696 12.5394 14.255C12.5394 14.0398 12.4929 13.8646 12.4094 13.7198L12.4084 13.7179C12.3237 13.5685 12.2058 13.4536 12.0484 13.3698L12.0451 13.3681C11.8893 13.2826 11.7004 13.235 11.4694 13.235H11.0494V15.275H11.4694C11.701 15.275 11.8906 15.2288 12.0468 15.1461C12.206 15.0584 12.3244 14.9424 12.4089 14.7961ZM12.6498 16.0035C12.3289 16.2066 11.9487 16.3 11.5244 16.3H10.5194C10.3795 16.3 10.2489 16.2488 10.1472 16.1471C10.0456 16.0455 9.99438 15.9149 9.99438 15.775V12.74C9.99438 12.6019 10.0443 12.4729 10.1433 12.3718C10.2426 12.267 10.374 12.21 10.5194 12.21H11.5244C11.9489 12.21 12.3294 12.3052 12.6502 12.5118C12.9601 12.7059 13.1986 12.9627 13.3577 13.2808C13.5115 13.5885 13.5894 13.9143 13.5894 14.255C13.5894 14.5957 13.5115 14.9215 13.3577 15.2292C13.1986 15.5474 12.9594 15.8062 12.6498 16.0035ZM10.3594 12.58C10.4027 12.5333 10.456 12.51 10.5194 12.51H11.5244C11.9044 12.51 12.226 12.595 12.4894 12.765C12.756 12.9317 12.956 13.1483 13.0894 13.415C13.2227 13.6817 13.2894 13.9617 13.2894 14.255C13.2894 14.5483 13.2227 14.8283 13.0894 15.095C12.956 15.3617 12.756 15.58 12.4894 15.75C12.226 15.9167 11.9044 16 11.5244 16H10.5194C10.456 16 10.4027 15.9783 10.3594 15.935C10.316 15.8917 10.2944 15.8383 10.2944 15.775V12.74C10.2944 12.6767 10.316 12.6233 10.3594 12.58ZM6.71 16.325C6.57008 16.325 6.43953 16.2738 6.33787 16.1721C6.2362 16.0705 6.185 15.9399 6.185 15.8V12.74C6.185 12.6019 6.23489 12.4729 6.33395 12.3718C6.43325 12.267 6.56458 12.21 6.71 12.21H7.85C8.19744 12.21 8.50892 12.2681 8.76618 12.4053C9.00841 12.5345 9.2012 12.7109 9.32117 12.9416C9.43072 13.1523 9.485 13.3799 9.485 13.62C9.485 13.8601 9.43072 14.0877 9.32117 14.2984C9.2012 14.5291 9.00841 14.7055 8.76618 14.8347C8.50892 14.9719 8.19744 15.03 7.85 15.03H7.24V15.8C7.24 15.9454 7.18301 16.0768 7.07817 16.1761C6.97709 16.2751 6.84811 16.325 6.71 16.325ZM6.87 15.96C6.82667 16.0033 6.77333 16.025 6.71 16.025C6.64667 16.025 6.59333 16.0033 6.55 15.96C6.50667 15.9167 6.485 15.8633 6.485 15.8V12.74C6.485 12.6767 6.50667 12.6233 6.55 12.58C6.59333 12.5333 6.64667 12.51 6.71 12.51H7.85C8.16667 12.51 8.425 12.5633 8.625 12.67C8.825 12.7767 8.96833 12.9133 9.055 13.08C9.14167 13.2467 9.185 13.4267 9.185 13.62C9.185 13.8133 9.14167 13.9933 9.055 14.16C8.96833 14.3267 8.825 14.4633 8.625 14.57C8.425 14.6767 8.16667 14.73 7.85 14.73H6.94V15.8C6.94 15.8633 6.91667 15.9167 6.87 15.96ZM14.7243 16.325C14.5843 16.325 14.4538 16.2738 14.3521 16.1721C14.2505 16.0705 14.1993 15.9399 14.1993 15.8V12.74C14.1993 12.6019 14.2491 12.4729 14.3482 12.3718C14.4475 12.267 14.5788 12.21 14.7243 12.21H16.6693C16.8074 12.21 16.9345 12.2624 17.0315 12.3628C17.1318 12.4597 17.1843 12.5869 17.1843 12.725C17.1843 12.8651 17.1303 12.9939 17.0271 13.0914C16.9278 13.1884 16.8016 13.235 16.6693 13.235H15.2543V13.74H16.4943C16.6324 13.74 16.7595 13.7924 16.8565 13.8928C16.9568 13.9897 17.0093 14.1169 17.0093 14.255C17.0093 14.3951 16.9553 14.5239 16.8521 14.6214C16.7528 14.7184 16.6265 14.765 16.4943 14.765H15.2543V15.8C15.2543 15.9454 15.1973 16.0767 15.0925 16.176C14.9914 16.2751 14.8624 16.325 14.7243 16.325ZM14.8843 15.96C14.9309 15.9167 14.9543 15.8633 14.9543 15.8V14.465H16.4943C16.5543 14.465 16.6043 14.445 16.6443 14.405C16.6876 14.365 16.7093 14.315 16.7093 14.255C16.7093 14.195 16.6876 14.145 16.6443 14.105C16.6043 14.0617 16.5543 14.04 16.4943 14.04H14.9543V12.935H16.6693C16.7293 12.935 16.7793 12.915 16.8193 12.875C16.8626 12.835 16.8843 12.785 16.8843 12.725C16.8843 12.665 16.8626 12.615 16.8193 12.575C16.7793 12.5317 16.7293 12.51 16.6693 12.51H14.7243C14.6609 12.51 14.6076 12.5333 14.5643 12.58C14.5209 12.6233 14.4993 12.6767 14.4993 12.74V15.8C14.4993 15.8633 14.5209 15.9167 14.5643 15.96C14.6076 16.0033 14.6609 16.025 14.7243 16.025C14.7876 16.025 14.8409 16.0033 14.8843 15.96Z" fill="black"/>
<path fill-rule="evenodd" clip-rule="evenodd" d="M14.4751 2C14.8893 2 15.2251 2.33579 15.2251 2.75V5.659C15.2251 6.66521 16.038 7.48066 17.0443 7.484H19.7981C20.2123 7.484 20.5481 7.81979 20.5481 8.234C20.5481 8.64821 20.2123 8.984 19.7981 8.984H17.0431L17.041 8.984C15.2077 8.97883 13.7251 7.49248 13.7251 5.659V2.75C13.7251 2.33579 14.0609 2 14.4751 2Z" fill="black"/>
</svg>