<svg viewBox="0 0 24 24" fill="none" xmlns="http://www.w3.org/2000/svg">
<path fill-rule="evenodd" clip-rule="evenodd" d="M7.3999 21.8667C4.9269 21.8237 2.9589 19.7867 3.0009 17.3267V6.49072C3.0579 4.00972 5.1069 2.01172 7.5699 2.01172H7.5879H14.2369C14.4409 2.01172 14.6359 2.09472 14.7779 2.24172L19.8439 7.52072C19.9769 7.65972 20.0519 7.84672 20.0519 8.03972V17.3397C20.0559 19.8087 18.0499 21.8397 15.5809 21.8657L7.3999 21.8667ZM7.5729 3.51172C5.9149 3.51172 4.5399 4.85372 4.5009 6.50872V17.3397C4.4719 18.9867 5.7789 20.3387 7.4139 20.3667L7.5609 20.3657H15.5729C17.2149 20.3477 18.5539 18.9907 18.5519 17.3407V8.34172L13.9179 3.51172H7.5849H7.5729ZM8.215 13.02V14.11C8.215 14.1334 8.23 14.1484 8.26 14.155C8.37334 14.1684 8.46334 14.175 8.53 14.175C8.77 14.175 8.955 14.12 9.085 14.01C9.21834 13.8967 9.28501 13.74 9.28501 13.54C9.28501 13.1434 9.03334 12.945 8.53 12.945C8.44667 12.945 8.355 12.9534 8.255 12.97C8.22834 12.9767 8.215 12.9934 8.215 13.02ZM7.665 16C7.58834 16 7.52167 15.9717 7.465 15.915C7.40834 15.8584 7.38 15.7917 7.38 15.715V12.66C7.38 12.58 7.40667 12.5084 7.46 12.445C7.51334 12.3817 7.58 12.3467 7.66 12.34C7.94334 12.3134 8.21667 12.3 8.48 12.3C9.54667 12.3 10.08 12.6967 10.08 13.49C10.08 13.92 9.955 14.2467 9.705 14.47C9.45834 14.69 9.09501 14.8 8.61501 14.8C8.48834 14.8 8.37001 14.795 8.26 14.785C8.23 14.785 8.215 14.7984 8.215 14.825V15.715C8.215 15.7917 8.18667 15.8584 8.13 15.915C8.07334 15.9717 8.00667 16 7.93001 16H7.665ZM11.418 15.31C11.418 15.34 11.433 15.3584 11.463 15.365C11.5297 15.3784 11.6097 15.385 11.703 15.385C12.0397 15.385 12.288 15.2867 12.448 15.09C12.6113 14.8934 12.693 14.5717 12.693 14.125C12.693 13.725 12.6113 13.4317 12.448 13.245C12.2847 13.0584 12.0363 12.965 11.703 12.965C11.6097 12.965 11.5297 12.9717 11.463 12.985C11.433 12.9917 11.418 13.01 11.418 13.04V15.31ZM10.868 16.01C10.788 16.0034 10.7213 15.97 10.668 15.91C10.6147 15.8467 10.588 15.7734 10.588 15.69V12.66C10.588 12.5767 10.6147 12.505 10.668 12.445C10.7213 12.3817 10.788 12.3467 10.868 12.34C11.128 12.3134 11.3847 12.3 11.638 12.3C12.2347 12.3 12.6947 12.4584 13.018 12.775C13.3413 13.0917 13.503 13.5417 13.503 14.125C13.503 14.7584 13.3413 15.2384 13.018 15.565C12.6947 15.8884 12.2347 16.05 11.638 16.05C11.3847 16.05 11.128 16.0367 10.868 16.01ZM14.1252 15.915C14.1818 15.9717 14.2485 16 14.3252 16H14.6102C14.6868 16 14.7518 15.9717 14.8052 15.915C14.8618 15.8584 14.8902 15.7917 14.8902 15.715V14.55C14.8902 14.52 14.9052 14.505 14.9352 14.505H15.9402C16.0168 14.505 16.0835 14.4784 16.1402 14.425C16.1968 14.3684 16.2252 14.3017 16.2252 14.225V14.145C16.2252 14.0684 16.1968 14.0034 16.1402 13.95C16.0835 13.8934 16.0168 13.865 15.9402 13.865H14.9352C14.9052 13.865 14.8902 13.85 14.8902 13.82V13.075C14.8902 13.0484 14.9052 13.035 14.9352 13.035H16.0402C16.1168 13.035 16.1835 13.0067 16.2402 12.95C16.2968 12.8934 16.3252 12.8267 16.3252 12.75V12.635C16.3252 12.5584 16.2968 12.4917 16.2402 12.435C16.1835 12.3784 16.1168 12.35 16.0402 12.35H14.3252C14.2485 12.35 14.1818 12.3784 14.1252 12.435C14.0685 12.4917 14.0402 12.5584 14.0402 12.635V15.715C14.0402 15.7917 14.0685 15.8584 14.1252 15.915Z" fill="currentColor"/>
<path fill-rule="evenodd" clip-rule="evenodd" d="M19.2975 8.98437H16.5435C14.7125 8.97937 13.2245 7.48737 13.2245 5.65937V2.75037C13.2245 2.33637 13.5605 2.00037 13.9745 2.00037C14.3885 2.00037 14.7245 2.33637 14.7245 2.75037V5.65937C14.7245 6.66337 15.5415 7.48137 16.5455 7.48437H19.2975C19.7115 7.48437 20.0475 7.82037 20.0475 8.23437C20.0475 8.64837 19.7115 8.98437 19.2975 8.98437" fill="currentColor"/>
</svg>
