<svg width="25" height="30" viewBox="0 0 25 30" fill="none" xmlns="http://www.w3.org/2000/svg">
<path  stroke-width="0.01" fill-rule="evenodd" clip-rule="evenodd" d="M6.79233 0.933956H16.4926C16.7904 0.933956 17.0754 1.0554 17.2816 1.27025L24.6681 8.96441C24.8636 9.1681 24.9728 9.43952 24.9728 9.72187V23.0852C24.9968 26.73 22.1269 29.7375 18.4853 29.8853C18.4705 29.8859 18.4557 29.8862 18.4409 29.8862H6.80495C6.76879 29.8871 6.73713 29.8869 6.71427 29.8868C6.67949 29.8865 6.6735 29.8862 6.65615 29.8862L6.63183 29.886C2.95058 29.8041 0.0319246 26.757 0.105322 23.0776V7.46583L0.105626 7.44006C0.191112 3.81301 3.16476 0.921174 6.79233 0.933956ZM2.29282 7.47941V23.089L2.29256 23.1128C2.23867 25.5882 4.19902 27.6398 6.67305 27.6988L6.70099 27.699L6.7322 27.6993L6.74995 27.6994C6.75377 27.6994 6.75523 27.6993 6.75506 27.6993C6.76681 27.6989 6.77856 27.6987 6.79032 27.6987H18.4176C20.8722 27.588 22.803 25.5564 22.7853 23.0968L22.7853 23.089L22.7853 10.1619L16.0264 3.12146H6.78612C4.35208 3.11209 2.3566 5.04916 2.29282 7.47941Z" fill="#5A5D72"/>
<path  stroke-width="0.01" d="M4.7854 21.3699C4.69303 21.3699 4.61526 21.3383 4.55206 21.2751C4.48887 21.2119 4.45727 21.1341 4.45727 21.0417V16.5792C4.45727 16.4869 4.48887 16.4091 4.55206 16.3459C4.61526 16.2779 4.69303 16.2438 4.7854 16.2438H6.4479C6.9097 16.2438 7.28644 16.3216 7.5781 16.4772C7.86977 16.6327 8.0788 16.832 8.20519 17.0751C8.33158 17.3181 8.39477 17.5806 8.39477 17.8626C8.39477 18.1445 8.33158 18.407 8.20519 18.6501C8.0788 18.8931 7.86977 19.0924 7.5781 19.248C7.28644 19.4036 6.9097 19.4813 6.4479 19.4813H5.12081V21.0417C5.12081 21.1341 5.08678 21.2119 5.01873 21.2751C4.95553 21.3383 4.87776 21.3699 4.7854 21.3699ZM6.38227 18.8542C6.8781 18.8542 7.22567 18.7595 7.42498 18.5699C7.62915 18.3803 7.73123 18.1445 7.73123 17.8626C7.73123 17.5806 7.62915 17.3449 7.42498 17.1553C7.22567 16.9657 6.8781 16.8709 6.38227 16.8709H5.12081V18.8542H6.38227Z" fill="#5A5D72"/>
<path  stroke-width="0.01" d="M10.3407 21.3334C10.2484 21.3334 10.1706 21.3018 10.1074 21.2386C10.0442 21.1754 10.0126 21.0977 10.0126 21.0053V16.5792C10.0126 16.4869 10.0442 16.4091 10.1074 16.3459C10.1706 16.2779 10.2484 16.2438 10.3407 16.2438H11.8064C12.3605 16.2438 12.8296 16.3678 13.2137 16.6157C13.6025 16.8588 13.8942 17.1747 14.0887 17.5636C14.2831 17.9525 14.3803 18.3608 14.3803 18.7886C14.3803 19.2164 14.2831 19.6247 14.0887 20.0136C13.8942 20.4025 13.6025 20.7209 13.2137 20.9688C12.8296 21.2119 12.3605 21.3334 11.8064 21.3334H10.3407ZM11.7262 20.7136C12.1248 20.7136 12.4748 20.6334 12.7762 20.473C13.0775 20.3077 13.3109 20.0817 13.4762 19.7949C13.6414 19.5032 13.7241 19.1678 13.7241 18.7886C13.7241 18.4095 13.6414 18.0765 13.4762 17.7897C13.3109 17.498 13.0775 17.272 12.7762 17.1115C12.4748 16.9463 12.1248 16.8636 11.7262 16.8636H10.6762V20.7136H11.7262Z" fill="#5A5D72"/>
<path  stroke-width="0.01" d="M16.4729 21.3699C16.3805 21.3699 16.3027 21.3383 16.2395 21.2751C16.1763 21.2119 16.1447 21.1341 16.1447 21.0417V16.5792C16.1447 16.4869 16.1763 16.4091 16.2395 16.3459C16.3027 16.2779 16.3805 16.2438 16.4729 16.2438H19.3093C19.3968 16.2438 19.4697 16.2754 19.5281 16.3386C19.5913 16.397 19.6229 16.4699 19.6229 16.5574C19.6229 16.6449 19.5913 16.7178 19.5281 16.7761C19.4697 16.8345 19.3968 16.8636 19.3093 16.8636H16.8083V18.4751H19.0541C19.1416 18.4751 19.2145 18.5067 19.2729 18.5699C19.3361 18.6282 19.3676 18.7011 19.3676 18.7886C19.3676 18.8761 19.3361 18.949 19.2729 19.0074C19.2145 19.0657 19.1416 19.0949 19.0541 19.0949H16.8083V21.0417C16.8083 21.1341 16.7742 21.2119 16.7062 21.2751C16.643 21.3383 16.5652 21.3699 16.4729 21.3699Z" fill="#5A5D72"/>
<path  stroke-width="0.01" fill-rule="evenodd" clip-rule="evenodd" d="M7.42498 17.1553C7.22567 16.9657 6.8781 16.8709 6.38227 16.8709H5.12081V18.8542H6.38227C6.8781 18.8542 7.22567 18.7595 7.42498 18.5699C7.62915 18.3803 7.73123 18.1445 7.73123 17.8626C7.73123 17.5806 7.62915 17.3449 7.42498 17.1553ZM5.55831 18.4167H6.38227C6.84748 18.4167 7.04984 18.3229 7.12345 18.2529L7.12726 18.2493C7.24107 18.1436 7.29373 18.0245 7.29373 17.8626C7.29373 17.7006 7.2411 17.5816 7.12728 17.4759L7.12343 17.4723C7.04982 17.4023 6.84748 17.3084 6.38227 17.3084H5.55831V18.4167ZM12.7762 17.1115C12.4748 16.9463 12.1248 16.8636 11.7262 16.8636H10.6762V20.7136H11.7262C12.1248 20.7136 12.4748 20.6334 12.7762 20.473C13.0775 20.3077 13.3109 20.0817 13.4762 19.7949C13.6414 19.5032 13.7241 19.1678 13.7241 18.7886C13.7241 18.4095 13.6414 18.0765 13.4762 17.7897C13.3109 17.498 13.0775 17.272 12.7762 17.1115ZM13.0963 19.5778C13.2191 19.3604 13.2866 19.1016 13.2866 18.7886C13.2866 18.4748 13.2188 18.2193 13.0971 18.0081L13.0955 18.0054C12.972 17.7874 12.8 17.6199 12.5706 17.4977L12.5658 17.4952C12.3385 17.3705 12.0631 17.3011 11.7262 17.3011H11.1137V20.2761H11.7262C12.0639 20.2761 12.3404 20.2088 12.5682 20.0881C12.8004 19.9602 12.9731 19.791 13.0963 19.5778ZM13.4476 21.3385C12.9796 21.6347 12.4251 21.7709 11.8064 21.7709H10.3407C10.1367 21.7709 9.9463 21.6962 9.79804 21.548C9.64978 21.3997 9.57511 21.2093 9.57511 21.0053V16.5792C9.57511 16.3778 9.64786 16.1897 9.79233 16.0423C9.93714 15.8894 10.1287 15.8063 10.3407 15.8063H11.8064C12.4255 15.8063 12.9803 15.9452 13.4482 16.2464C13.9002 16.5295 14.248 16.904 14.48 17.368C14.7043 17.8166 14.8178 18.2918 14.8178 18.7886C14.8178 19.2855 14.7043 19.7607 14.48 20.2093C14.2479 20.6733 13.8991 21.0507 13.4476 21.3385ZM10.1074 16.3459C10.1706 16.2779 10.2484 16.2438 10.3407 16.2438H11.8064C12.3605 16.2438 12.8296 16.3678 13.2137 16.6157C13.6025 16.8588 13.8942 17.1747 14.0887 17.5636C14.2831 17.9525 14.3803 18.3608 14.3803 18.7886C14.3803 19.2164 14.2831 19.6247 14.0887 20.0136C13.8942 20.4025 13.6025 20.7209 13.2137 20.9688C12.8296 21.2119 12.3605 21.3334 11.8064 21.3334H10.3407C10.2484 21.3334 10.1706 21.3018 10.1074 21.2386C10.0442 21.1754 10.0126 21.0977 10.0126 21.0053V16.5792C10.0126 16.4869 10.0442 16.4091 10.1074 16.3459ZM4.7854 21.8074C4.58134 21.8074 4.39096 21.7327 4.2427 21.5844C4.09444 21.4362 4.01977 21.2458 4.01977 21.0417V16.5792C4.01977 16.3778 4.09252 16.1897 4.23698 16.0423C4.3818 15.8894 4.57332 15.8063 4.7854 15.8063H6.4479C6.95458 15.8063 7.40882 15.891 7.78399 16.0911C8.13725 16.2795 8.4184 16.5368 8.59334 16.8732C8.75312 17.1805 8.83227 17.5125 8.83227 17.8626C8.83227 18.2127 8.75312 18.5447 8.59334 18.8519C8.4184 19.1884 8.13725 19.4456 7.78399 19.634C7.40882 19.8341 6.95458 19.9188 6.4479 19.9188H5.55831V21.0417C5.55831 21.2538 5.4752 21.4453 5.32231 21.5902C5.17489 21.7346 4.98681 21.8074 4.7854 21.8074ZM5.01873 21.2751C4.95553 21.3383 4.87776 21.3699 4.7854 21.3699C4.69303 21.3699 4.61526 21.3383 4.55206 21.2751C4.48887 21.2119 4.45727 21.1341 4.45727 21.0417V16.5792C4.45727 16.4869 4.48887 16.4091 4.55206 16.3459C4.61526 16.2779 4.69303 16.2438 4.7854 16.2438H6.4479C6.9097 16.2438 7.28644 16.3216 7.5781 16.4772C7.86977 16.6327 8.0788 16.832 8.20519 17.0751C8.33158 17.3181 8.39477 17.5806 8.39477 17.8626C8.39477 18.1445 8.33158 18.407 8.20519 18.6501C8.0788 18.8931 7.86977 19.0924 7.5781 19.248C7.28644 19.4036 6.9097 19.4813 6.4479 19.4813H5.12081V21.0417C5.12081 21.1341 5.08678 21.2119 5.01873 21.2751ZM16.4729 21.8074C16.2688 21.8074 16.0784 21.7327 15.9302 21.5844C15.7819 21.4362 15.7072 21.2458 15.7072 21.0417V16.5792C15.7072 16.3778 15.78 16.1898 15.9244 16.0423C16.0693 15.8894 16.2608 15.8063 16.4729 15.8063H19.3093C19.5107 15.8063 19.6962 15.8828 19.8375 16.0292C19.9839 16.1705 20.0604 16.3559 20.0604 16.5574C20.0604 16.7617 19.9817 16.9496 19.8312 17.0917C19.6864 17.2332 19.5022 17.3011 19.3093 17.3011H17.2458V18.0376H19.0541C19.2555 18.0376 19.441 18.114 19.5823 18.2604C19.7287 18.4018 19.8051 18.5872 19.8051 18.7886C19.8051 18.993 19.7265 19.1808 19.5759 19.3229C19.4311 19.4645 19.247 19.5324 19.0541 19.5324H17.2458V21.0417C17.2458 21.2538 17.1627 21.4453 17.0098 21.5901C16.8624 21.7346 16.6743 21.8074 16.4729 21.8074ZM16.7062 21.2751C16.7742 21.2119 16.8083 21.1341 16.8083 21.0417V19.0949H19.0541C19.1416 19.0949 19.2145 19.0657 19.2729 19.0074C19.3361 18.949 19.3676 18.8761 19.3676 18.7886C19.3676 18.7011 19.3361 18.6282 19.2729 18.5699C19.2145 18.5067 19.1416 18.4751 19.0541 18.4751H16.8083V16.8636H19.3093C19.3968 16.8636 19.4697 16.8345 19.5281 16.7761C19.5913 16.7178 19.6229 16.6449 19.6229 16.5574C19.6229 16.4699 19.5913 16.397 19.5281 16.3386C19.4697 16.2754 19.3968 16.2438 19.3093 16.2438H16.4729C16.3805 16.2438 16.3027 16.2779 16.2395 16.3459C16.1763 16.4091 16.1447 16.4869 16.1447 16.5792V21.0417C16.1447 21.1341 16.1763 21.2119 16.2395 21.2751C16.3027 21.3383 16.3805 21.3699 16.4729 21.3699C16.5652 21.3699 16.643 21.3383 16.7062 21.2751Z" fill="#5A5D72"/>
<path  stroke-width="0.01" fill-rule="evenodd" clip-rule="evenodd" d="M16.1095 0.916748C16.7136 0.916748 17.2033 1.40644 17.2033 2.0105V6.25279C17.2033 7.72018 18.3887 8.90938 19.8562 8.91425H23.8722C24.4763 8.91425 24.966 9.40394 24.966 10.008C24.966 10.6121 24.4763 11.1017 23.8722 11.1017H19.8545L19.8514 11.1017C17.1779 11.0942 15.0158 8.92661 15.0158 6.25279V2.0105C15.0158 1.40644 15.5054 0.916748 16.1095 0.916748Z" fill="#5A5D72"/>
</svg>
