<svg xmlns="http://www.w3.org/2000/svg" width="30" height="30" viewBox="0 0 30 30">
  <g fill="#FFFFFF">
    <path d="M28.6359574 6.87510638L22.2542553 6.87510638C23.1306383 7.65829787 23.88 8.57617021 24.467234 9.60191489L28.6359574 9.60191489C29.3891489 9.60191489 30 8.99170213 30 8.23851064 30 7.48595745 29.3891489 6.87510638 28.6359574 6.87510638zM28.6359574 10.313617L24.8355319 10.313617C25.2453191 11.1689362 25.5478723 12.0817021 25.7234043 13.0404255L28.6359574 13.0404255C29.3891489 13.0404255 30 12.4302128 30 11.6770213 30 10.9238298 29.3891489 10.313617 28.6359574 10.313617zM28.6359574 3.43787234L18.5412766 3.43787234C17.9534043 3.43787234 17.4587234 3.8106383 17.2659574 4.33021277 18.7755319 4.6506383 20.1644681 5.29021277 21.3746809 6.16468085L28.6365957 6.16468085C29.3904255 6.16468085 30.0012766 5.55446809 30.0012766 4.8012766 30.0012766 4.04808511 29.3891489 3.43787234 28.6359574 3.43787234zM18.5412766 2.72680851L28.6359574 2.72680851C29.3891489 2.72680851 30 2.11659574 30 1.36340426 30 .610851064 29.3891489 0 28.6359574 0L18.5412766 0C17.7874468 0 17.177234.610851064 17.177234 1.36404255 17.177234 2.11723404 17.7874468 2.72680851 18.5412766 2.72680851zM28.6359574 13.7502128L25.8319149 13.7502128C25.8785106 14.1612766 25.9085106 14.5768085 25.9085106 15 25.9085106 15.5017021 25.8631915 15.9938298 25.7968085 16.4770213L28.6353191 16.4770213C29.3885106 16.4770213 29.9993617 15.8661702 29.9993617 15.1129787 29.9993617 14.3597872 29.3891489 13.7502128 28.6359574 13.7502128zM28.6359574 17.1880851L25.6876596 17.1880851C25.4904255 18.1519149 25.1585106 19.0634043 24.7251064 19.9148936L28.6359574 19.9148936C29.3891489 19.9148936 30 19.3046809 30 18.5514894 30 17.7982979 29.3891489 17.1880851 28.6359574 17.1880851zM28.6359574 20.6253191L24.3287234 20.6253191C23.7038298 21.6574468 22.9219149 22.5804255 22.0021277 23.3521277L28.6359574 23.3521277C29.3891489 23.3521277 30 22.7419149 30 21.9887234 30 21.2355319 29.3891489 20.6253191 28.6359574 20.6253191zM1.36404255 16.2497872L4.16808511 16.2497872C4.12085106 15.8387234 4.09085106 15.4231915 4.09085106 15 4.09085106 14.4982979 4.13680851 14.0068085 4.20255319 13.5229787L1.36404255 13.5229787C.610851064 13.523617 0 14.1338298 0 14.8870213 0 15.6395745.610851064 16.2497872 1.36404255 16.2497872zM1.36404255 19.6876596L5.16446809 19.6876596C4.75531915 18.8323404 4.45212766 17.9195745 4.27659574 16.9614894L1.36404255 16.9614894C.610851064 16.9614894 0 17.5710638 0 18.3242553 0 19.0774468.610851064 19.6876596 1.36404255 19.6876596zM1.36404255 12.8125532L4.31234043 12.8125532C4.50893617 11.8493617 4.84148936 10.937234 5.27425532 10.0857447L1.36404255 10.0857447C.610851064 10.0851064 0 10.6953191 0 11.4491489 0 12.2029787.610851064 12.8125532 1.36404255 12.8125532zM1.36404255 9.37531915L5.6712766 9.37531915C6.29617021 8.34382979 7.07808511 7.42021277 7.99723404 6.64851064L1.36404255 6.64851064C.610851064 6.64851064 0 7.2587234 0 8.0112766 0 8.76446809.610851064 9.37531915 1.36404255 9.37531915zM1.36404255 23.1248936L7.74574468 23.1248936C6.8693617 22.3417021 6.12 21.4244681 5.53276596 20.3987234L1.36404255 20.3987234C.610851064 20.3987234 0 21.0089362 0 21.7614894 0 22.5153191.610851064 23.1248936 1.36404255 23.1248936zM1.36404255 26.562766L11.4587234 26.562766C12.0465957 26.562766 12.5419149 26.19 12.7340426 25.6704255 11.2244681 25.35 9.83553191 24.7104255 8.62595745 23.8359574L1.36404255 23.8359574C.610851064 23.8353191 0 24.4455319 0 25.1993617 0 25.9525532.610851064 26.562766 1.36404255 26.562766zM11.4587234 27.2738298L1.36404255 27.2738298C.610851064 27.2738298 0 27.8834043 0 28.637234 0 29.3897872.610851064 30 1.36404255 30L11.4587234 30C12.2125532 30 12.822766 29.3891489 12.822766 28.6359574 12.822766 27.882766 12.2125532 27.2738298 11.4587234 27.2738298zM15 5.45489362C9.73659574 5.45489362 5.45489362 9.73659574 5.45489362 15 5.45489362 20.2634043 9.73659574 24.5457447 15 24.5457447 20.2634043 24.5457447 24.5451064 20.2640426 24.5451064 15 24.5451064 9.73595745 20.2634043 5.45489362 15 5.45489362zM15 21.8182979C11.2404255 21.8182979 8.18170213 18.7602128 8.18170213 15 8.18170213 11.2404255 11.2404255 8.18170213 15 8.18170213 18.7602128 8.18170213 21.8182979 11.2404255 21.8182979 15 21.8182979 18.7602128 18.7602128 21.8182979 15 21.8182979z"/>
    <path d="M15.3976596,14.0789362 L15.3976596,11.7223404 C16.77,11.7478723 16.7597872,13.0742553 17.5653191,13.0742553 C17.9865957,13.0742553 18.3485106,12.7902128 18.3485106,12.306383 C18.3485106,11.0910638 16.3640426,10.4840426 15.3976596,10.4585106 L15.3976596,9.79787234 C15.3976596,9.58659574 15.2355319,9.37595745 15.023617,9.37595745 C14.8142553,9.37595745 14.6540426,9.58659574 14.6540426,9.79787234 L14.6540426,10.4585106 C13.1042553,10.506383 11.7025532,11.376383 11.7025532,13.0614894 C11.7025532,14.4382979 12.8157447,15.2444681 14.6540426,15.5782979 L14.6540426,18.1704255 C12.5929787,18.083617 13.6729787,16.3723404 12.2840426,16.3723404 C11.8155319,16.3723404 11.5161702,16.6589362 11.5161702,17.153617 C11.5161702,18.1340426 12.5585106,19.386383 14.6540426,19.4374468 L14.6540426,20.2046809 C14.6540426,20.4153191 14.8142553,20.6259574 15.023617,20.6259574 C15.2355319,20.6259574 15.3976596,20.4153191 15.3976596,20.2046809 L15.3976596,19.4374468 C17.2442553,19.3257447 18.4838298,18.4812766 18.4838298,16.8197872 C18.4838298,14.9093617 17.0348936,14.4268085 15.3976596,14.0789362 Z M14.6540426,13.9429787 C13.7240426,13.7559574 13.2625532,13.3978723 13.2625532,12.7761702 C13.2625532,12.2438298 13.8082979,11.747234 14.6540426,11.7217021 L14.6540426,13.9429787 Z M15.3976596,18.1697872 L15.3976596,15.7148936 C16.0653191,15.8623404 16.9238298,16.1106383 16.9238298,16.9531915 C16.9238298,17.7714894 16.1406383,18.1206383 15.3976596,18.1697872 Z"/>
  </g>
</svg>
