<svg xmlns="http://www.w3.org/2000/svg" viewBox="0 0 258 258">
  <g>
    <circle cx="129" cy="129" r="129"/>
    <circle cx="129" cy="128.5" r="119.5" fill="#FFF"/>
    <g transform="translate(62 62)">
      <path d="M0 35.5C1.2 30.1 4.6 26.1 8.6 22.5 11.1 20.2 13.4 17.6 15.9 15.4 19.9 11.9 24.6 11.7 28.4 15.3 34.4 21 40.3 26.8 45.9 32.9 49.6 36.9 49.4 41.5 45.7 45.6 42.7 48.9 39.5 52 36.3 55.1 34.7 56.6 34.4 58 35.4 60.1 38.5 66.7 43 72.4 47.8 77.8 55.2 85.9 63.3 93 73.1 98.2 75.7 99.6 77.3 99.2 79.2 97.1 81.7 94.3 84.4 91.7 87.1 89.1 92.3 84.1 97.2 84 102.4 89.1 107.4 94 112.3 98.9 117.2 103.9 122.4 109.2 122.4 114.2 117.1 119.6 115.7 121 114.3 122.2 113 123.6 108.9 128.1 104.7 132.5 98.4 133.9 96.1 133.9 93.9 133.9 91.6 133.9 87.6 133 83.4 132.3 79.5 131 67.4 126.9 56.5 120.6 46.5 112.8 27.9 98.3 13.4 80.5 4.5 58.5 2.5 53.6 1.5 48.4 0 43.3 0 40.7 0 38.1 0 35.5zM67.7 10.2C68.2 6.6 68.7 3.3 69.2.1 99.2 3.7 127.9 27.9 134 62.7 130.7 63.3 127.4 63.9 123.8 64.5 121.1 50.4 114.9 38.3 104.6 28.3 94.3 18.4 82 12.5 67.7 10.2z"/>
      <path d="M66.4,36.9 C66.9,33.5 67.3,30.3 67.8,27 C84.4,27.9 103.9,43.6 106.7,64.5 C103.5,65.1 100.2,65.6 96.7,66.2 C92.9,50.1 82.8,40.3 66.4,36.9 Z"/>
    </g>
  </g>
</svg>
