<svg width="24" height="24" viewBox="0 0 24 24" fill="none" xmlns="http://www.w3.org/2000/svg">
<path fill-rule="evenodd" clip-rule="evenodd" d="M4.30194 4.98604C4.30389 4.98604 4.25511 5.03677 4.19365 5.09726C3.95756 5.32653 3.46878 5.8036 3.46391 6.80164C3.4561 8.19772 4.37414 10.7899 8.79457 15.2094C13.1945 19.6074 15.7828 20.5362 17.1818 20.5362H17.2023C18.2003 20.5313 18.6764 20.0415 18.9066 19.8064C18.9769 19.7342 19.0335 19.6815 19.0735 19.6484C20.0452 18.6708 20.5427 17.943 20.5378 17.4767C20.531 17.0006 19.9388 16.4377 19.1203 15.6591C18.8598 15.4113 18.5769 15.1421 18.2783 14.8435C17.5047 14.0718 17.1213 14.2035 16.2784 14.5001C15.1125 14.9089 13.5126 15.465 11.0267 12.9782C8.53701 10.4904 9.09408 8.89235 9.50188 7.72651C9.79651 6.88359 9.93114 6.4992 9.15651 5.72457C8.8531 5.42214 8.58091 5.13531 8.33018 4.8719C7.55654 4.05824 6.99849 3.46996 6.52533 3.46313H6.51752C6.05021 3.46313 5.32437 3.96263 4.29707 4.98994C4.29999 4.98702 4.30194 4.98604 4.30194 4.98604ZM17.1828 21.9996C14.7516 21.9996 11.5818 20.064 7.76044 16.2445C3.92439 12.4094 1.98588 9.22991 2.00051 6.79383C2.00929 5.18409 2.85318 4.3597 3.17025 4.05044C3.18684 4.02995 3.24342 3.97434 3.26293 3.95483C4.66194 2.55484 5.60534 1.98899 6.54387 1.99972C7.63361 2.01436 8.40921 2.82996 9.39066 3.86312C9.63358 4.11873 9.89699 4.39678 10.1906 4.68946C11.615 6.11384 11.2092 7.27578 10.8833 8.20846C10.5282 9.22601 10.2209 10.1041 12.0609 11.944C13.9028 13.784 14.7808 13.4767 15.7945 13.1187C16.7281 12.7928 17.8871 12.385 19.3135 13.8094C19.6022 14.0982 19.8764 14.3587 20.1291 14.5996C21.1671 15.586 21.9866 16.3655 22.0002 17.4581C22.012 18.3898 21.4461 19.3391 20.0491 20.7371L19.4305 20.3176L19.9534 20.8289C19.6442 21.1459 18.8208 21.9908 17.2101 21.9996H17.1828Z" fill="currentColor"/>
</svg>
