<svg viewBox="0 0 20 20" fill="none" xmlns="http://www.w3.org/2000/svg">
<path fill-rule="evenodd" clip-rule="evenodd" d="M6.0952 0.916504C4.54837 0.916504 3.23475 1.469 2.31148 2.45941C1.39366 3.44397 0.916626 4.80132 0.916626 6.3208V13.6789C0.916626 15.1974 1.39113 16.5549 2.30817 17.5399C3.23086 18.531 4.54488 19.0832 6.0952 19.0832H13.9047C15.455 19.0832 16.7691 18.531 17.6917 17.5399C18.6088 16.5549 19.0833 15.1974 19.0833 13.6789V6.3208C19.0833 4.80224 18.6088 3.44476 17.6917 2.45976C16.7691 1.4687 15.455 0.916504 13.9047 0.916504H6.0952ZM2.41663 6.3208C2.41663 5.11272 2.79276 4.14293 3.40868 3.48223C4.01914 2.82737 4.9198 2.4165 6.0952 2.4165H13.9047C15.0846 2.4165 15.9848 2.82767 16.5939 3.48187C17.2086 4.14213 17.5833 5.1118 17.5833 6.3208V13.6789C17.5833 14.8879 17.2086 15.8575 16.5939 16.5178C15.9848 17.172 15.0846 17.5832 13.9047 17.5832H6.0952C4.91535 17.5832 4.01509 17.172 3.40603 16.5178C2.79133 15.8575 2.41663 14.8879 2.41663 13.6789V6.3208ZM9.99995 6.18926C10.4142 6.18926 10.75 6.52505 10.75 6.93926V9.24191H13.0555C13.4697 9.24191 13.8055 9.57769 13.8055 9.99191C13.8055 10.4061 13.4697 10.7419 13.0555 10.7419H10.75V13.0446C10.75 13.4588 10.4142 13.7946 9.99995 13.7946C9.58574 13.7946 9.24995 13.4588 9.24995 13.0446V10.7419H6.9444C6.53019 10.7419 6.1944 10.4061 6.1944 9.99191C6.1944 9.57769 6.53019 9.24191 6.9444 9.24191H9.24995V6.93926C9.24995 6.52505 9.58574 6.18926 9.99995 6.18926Z" fill="url(#paint0_linear)"/>
<defs>
<linearGradient id="paint0_linear" x1="7.58418" y1="-0.480932" x2="15.0762" y2="23.1083" gradientUnits="userSpaceOnUse">
<stop stop-color="#FF3366"/>
<stop offset="1" stop-color="#FE5196"/>
</linearGradient>
</defs>
</svg>
