<svg viewBox="0 0 24 24" fill="none" xmlns="http://www.w3.org/2000/svg">
<path fill-rule="evenodd" clip-rule="evenodd" d="M7.31429 1.25C5.49524 1.25 3.96018 1.89884 2.88354 3.05377C1.81235 4.20285 1.25 5.79292 1.25 7.58516V16.4148C1.25 18.2062 1.80943 19.7964 2.87964 20.9459C3.9555 22.1015 5.49096 22.75 7.31429 22.75H16.6857C18.509 22.75 20.0445 22.1015 21.1204 20.9459C22.1906 19.7964 22.75 18.2062 22.75 16.4148V7.58516C22.75 5.79384 22.1906 4.20365 21.1204 3.05412C20.0445 1.89853 18.509 1.25 16.6857 1.25H7.31429ZM2.75 7.58516C2.75 6.10432 3.21146 4.90181 3.98074 4.07659C4.74458 3.25721 5.86666 2.75 7.31429 2.75H16.6857C18.1386 2.75 19.2603 3.25751 20.0225 4.07623C20.7904 4.90101 21.25 6.1034 21.25 7.58516V16.4148C21.25 17.8966 20.7904 19.099 20.0225 19.9238C19.2603 20.7425 18.1386 21.25 16.6857 21.25H7.31429C5.86142 21.25 4.73974 20.7425 3.9775 19.9238C3.20962 19.099 2.75 17.8966 2.75 16.4148V7.58516ZM12 7.57731C12.4142 7.57731 12.75 7.91309 12.75 8.32731V11.2405H15.6667C16.0809 11.2405 16.4167 11.5763 16.4167 11.9905C16.4167 12.4047 16.0809 12.7405 15.6667 12.7405H12.75V15.6537C12.75 16.0679 12.4142 16.4037 12 16.4037C11.5858 16.4037 11.25 16.0679 11.25 15.6537V12.7405H8.33333C7.91911 12.7405 7.58333 12.4047 7.58333 11.9905C7.58333 11.5763 7.91911 11.2405 8.33333 11.2405H11.25V8.32731C11.25 7.91309 11.5858 7.57731 12 7.57731Z" fill="#ff3366"/>
</svg>
