<svg width="24" height="24" viewBox="0 0 24 24" fill="none" xmlns="http://www.w3.org/2000/svg">
<path d="M12 7.88587C12.3853 7.88587 12.6977 8.19823 12.6977 8.58354V11.2935H15.4108C15.7962 11.2935 16.1085 11.6058 16.1085 11.9911C16.1085 12.3765 15.7962 12.6888 15.4108 12.6888H12.6977V15.3988C12.6977 15.7841 12.3853 16.0964 12 16.0964C11.6147 16.0964 11.3023 15.7841 11.3023 15.3988V12.6888H8.58914C8.20383 12.6888 7.89147 12.3765 7.89147 11.9911C7.89147 11.6058 8.20383 11.2935 8.58914 11.2935H11.3023V8.58354C11.3023 8.19823 11.6147 7.88587 12 7.88587Z" fill="currentColor"/>
<path fill-rule="evenodd" clip-rule="evenodd" d="M7.6412 2C5.94906 2 4.5211 2.60357 3.51958 3.67792C2.52312 4.74684 2 6.22597 2 7.89317V16.1068C2 17.7732 2.5204 19.2524 3.51595 20.3217C4.51675 21.3967 5.94508 22 7.6412 22H16.3588C18.0549 22 19.4833 21.3967 20.4841 20.3217C21.4796 19.2524 22 17.7732 22 16.1068V7.89317C22 6.22683 21.4796 4.74758 20.4841 3.67825C19.4833 2.60329 18.0549 2 16.3588 2H7.6412ZM3.39535 7.89317C3.39535 6.51565 3.82461 5.39703 4.54022 4.62938C5.25077 3.86717 6.29457 3.39535 7.6412 3.39535H16.3588C17.7103 3.39535 18.7537 3.86745 19.4628 4.62905C20.1771 5.39629 20.6047 6.51479 20.6047 7.89317V16.1068C20.6047 17.4852 20.1771 18.6037 19.4628 19.3709C18.7537 20.1326 17.7103 20.6047 16.3588 20.6047H7.6412C6.2897 20.6047 5.24627 20.1326 4.53721 19.3709C3.8229 18.6037 3.39535 17.4852 3.39535 16.1068V7.89317Z" fill="currentColor"/>
</svg>
