<svg width="24" height="24" viewBox="0 0 24 24" fill="none" xmlns="http://www.w3.org/2000/svg">
<path fill-rule="evenodd" clip-rule="evenodd" d="M12 3C12.3999 3 12.7241 3.32671 12.7241 3.72973V9.32432H18.2759C18.6758 9.32432 19 9.65104 19 10.0541C19 10.4571 18.6758 10.7838 18.2759 10.7838H12.7241V16.3784C12.7241 16.7814 12.3999 17.1081 12 17.1081C11.6001 17.1081 11.2759 16.7814 11.2759 16.3784V10.7838H5.72414C5.32421 10.7838 5 10.4571 5 10.0541C5 9.65104 5.32421 9.32432 5.72414 9.32432H11.2759V3.72973C11.2759 3.32671 11.6001 3 12 3ZM5 20.2703C5 19.8673 5.32421 19.5405 5.72414 19.5405H18.2759C18.6758 19.5405 19 19.8673 19 20.2703C19 20.6733 18.6758 21 18.2759 21H5.72414C5.32421 21 5 20.6733 5 20.2703Z" fill="black"/>
</svg>
