<svg width="14" height="14" viewBox="0 0 14 14" fill="none" xmlns="http://www.w3.org/2000/svg">
<path d="M7.41078 1.57744C7.41078 1.35056 7.22685 1.16663 6.99996 1.16663C6.77307 1.16663 6.58914 1.35056 6.58914 1.57744L6.58914 6.58914H1.57744C1.35056 6.58914 1.16663 6.77307 1.16663 6.99996C1.16663 7.22685 1.35056 7.41078 1.57744 7.41078H6.58914L6.58914 12.4225C6.58914 12.6494 6.77307 12.8333 6.99996 12.8333C7.22685 12.8333 7.41078 12.6494 7.41078 12.4225V7.41078L12.4225 7.41078C12.6494 7.41078 12.8333 7.22685 12.8333 6.99996C12.8333 6.77307 12.6494 6.58914 12.4225 6.58914H7.41078L7.41078 1.57744Z" fill="#2C304E"/>
</svg>
