<svg viewBox="0 0 24 24" fill="none" xmlns="http://www.w3.org/2000/svg">
<path d="M3.5 12C3.5 16.687 7.313 20.5 12 20.5C16.687 20.5 20.5 16.687 20.5 12C20.5 9.65263 19.5436 7.52449 18 5.98476C18 5.98476 17.5371 5.46288 18 4.99998C18.5 4.49996 19.0533 4.91778 19.0533 4.91778C20.8725 6.72967 22 9.23565 22 12C22 17.514 17.514 22 12 22C6.486 22 2 17.514 2 12C2 9.23867 3.12502 6.73515 4.94078 4.92373C4.94078 4.92373 5.50003 4.49996 6 4.99998C6.38236 5.38237 6 5.98476 6 5.98476C4.4564 7.52449 3.5 9.65263 3.5 12Z" fill="currentColor"/>
<path fill-rule="evenodd" clip-rule="evenodd" d="M12 1.25C12.4142 1.25 12.75 1.58579 12.75 2V12C12.75 12.4142 12.4142 12.75 12 12.75C11.5858 12.75 11.25 12.4142 11.25 12V2C11.25 1.58579 11.5858 1.25 12 1.25Z" fill="currentColor"/>
</svg>
