<svg xmlns="http://www.w3.org/2000/svg" viewBox="0 0 258 258">
  <g>
    <circle cx="129" cy="129" r="129"/>
    <circle cx="129" cy="128.5" r="119.5" fill="#FFF"/>
    <g transform="translate(72 57)">
      <path d="M6.2 143.5C1.7 141.4.4 137.8.7 133.1 1.1 126.7.6 120.2 1.2 113.9 2.5 100.3 10.4 91.5 22.8 86.6 26.6 85.1 30.6 84.3 34.6 83.4 35.6 83.2 37 83.5 37.8 84.2 42.5 87.9 47 91.7 51.5 95.5 50.8 98 50.2 100.4 49.6 102.8 48.5 107.1 49 108.2 53 110.3 51 121.3 49 132.5 47 143.6 33.4 143.5 19.8 143.5 6.2 143.5zM67.1 143.5C65.5 134.2 63.9 124.8 62.4 115.5 62.1 113.8 61.8 112 61.5 110.4 65.8 107.6 66 107.1 64.8 102.2 64.3 100.1 63.6 97.9 62.9 95.5 67.5 91.7 72.3 87.7 77.1 83.8 77.6 83.4 78.5 83.1 79.1 83.3 86.3 84.9 93.5 86.4 99.6 90.9 108.8 97.7 113.3 106.8 113.4 118.1 113.5 123.4 113.2 128.7 113.5 134 113.7 138.5 112.2 141.8 108 143.6 94.3 143.5 80.7 143.5 67.1 143.5zM58.1 86.1C48.3 85.7 41.6 81.3 36.3 74.6 33.8 71.4 32 67.7 29.7 64.3 29 63.2 27.9 62.4 26.9 61.5 25.2 60 23.1 58.8 22 56.9 19.9 53.2 20 49 20.9 45 21.1 44.1 21.6 42.8 22.4 42.4 25.7 40.5 25.5 37.2 25.7 34.2 26.6 15.1 43.3 3.6 55.7 1 65.1-.9 72.6 2.7 78.7 9.7 79.8 10.9 81.1 12 82.5 12.8 90.2 17.5 92.4 24.6 92.1 33.1 92.1 33.6 92 34 91.9 34.5 91.6 37.9 90.9 40.9 93.1 44.4 95.8 48.7 94.2 57.3 90.3 59.5 85.6 62.1 84.2 66.7 81.6 70.5 77.1 77.1 71.7 82.6 63.8 84.9 61.6 85.6 59.3 85.9 58.1 86.1zM72 22.7C60.8 34.3 46.9 38.1 31.4 37.7 30.1 51.5 33.8 63.5 43.1 73.4 51.7 82.5 63.2 82.3 71.8 73.2 76.9 67.8 80.4 61.5 82 54.3 82.8 50.7 83.9 46.8 83.2 43.3 81.7 35.4 77.8 28.7 72 22.7z"/>
    </g>
  </g>
</svg>
