<svg viewBox="0 0 16 20" fill="none" xmlns="http://www.w3.org/2000/svg">
<mask id="mask0" mask-type="alpha" maskUnits="userSpaceOnUse" x="0" y="12" width="16" height="8">
<path fill-rule="evenodd" clip-rule="evenodd" d="M0 12.4961H15.8399V19.8701H0V12.4961Z" fill="white"/>
</mask>
<g mask="url(#mask0)">
<path fill-rule="evenodd" clip-rule="evenodd" d="M7.921 13.9961C3.66 13.9961 1.5 14.7281 1.5 16.1731C1.5 17.6311 3.66 18.3701 7.921 18.3701C12.181 18.3701 14.34 17.6381 14.34 16.1931C14.34 14.7351 12.181 13.9961 7.921 13.9961ZM7.921 19.8701C5.962 19.8701 0 19.8701 0 16.1731C0 12.8771 4.521 12.4961 7.921 12.4961C9.88 12.4961 15.84 12.4961 15.84 16.1931C15.84 19.4891 11.32 19.8701 7.921 19.8701Z" fill="currentColor"/>
</g>
<mask id="mask1" mask-type="alpha" maskUnits="userSpaceOnUse" x="2" y="0" width="12" height="11">
<path fill-rule="evenodd" clip-rule="evenodd" d="M2.61035 0H13.2304V10.6186H2.61035V0Z" fill="white"/>
</mask>
<g mask="url(#mask1)">
<path fill-rule="evenodd" clip-rule="evenodd" d="M7.92138 1.428C5.78038 1.428 4.03838 3.169 4.03838 5.31C4.03138 7.444 5.76038 9.184 7.89238 9.192L7.92138 9.906V9.192C10.0614 9.192 11.8024 7.45 11.8024 5.31C11.8024 3.169 10.0614 1.428 7.92138 1.428ZM7.92138 10.619H7.88938C4.96738 10.61 2.60038 8.227 2.61038 5.307C2.61038 2.382 4.99238 0 7.92138 0C10.8494 0 13.2304 2.382 13.2304 5.31C13.2304 8.238 10.8494 10.619 7.92138 10.619Z" fill="currentColor"/>
</g>
</svg>
