<svg viewBox="0 0 24 24" xmlns="http://www.w3.org/2000/svg">
<path d="M14.6118 2.00678H9.36679C7.4167 2.00678 5.19933 1.81367 3.51025 3.50556C1.75081 5.26794 2.01395 7.41846 2.01395 9.37178V14.6255C2.01395 16.5788 1.8745 18.8533 3.51025 20.4917C5.19456 22.1788 7.4167 21.9905 9.36679 21.9905H14.6118C16.5619 21.9905 18.7487 22.2142 20.4684 20.4917C22.188 18.7692 21.9647 16.5788 21.9647 14.6255V9.37178C21.9647 7.41846 22.3653 5.40561 20.4684 3.50554C18.778 1.81236 16.5619 2.00678 14.6118 2.00678ZM12.8063 16.8636C12.7956 16.9153 12.7806 16.9659 12.7614 17.015C12.7403 17.0652 12.7143 17.1132 12.6837 17.1582C12.6545 17.2042 12.6203 17.2467 12.5816 17.2851C12.4278 17.4381 12.2196 17.5236 12.0028 17.5228C11.786 17.5221 11.5783 17.4351 11.4256 17.281C11.2728 17.1269 11.1874 16.9183 11.1882 16.7012C11.189 16.484 11.2758 16.2761 11.4297 16.123C11.5861 15.9772 11.7919 15.8962 12.0056 15.8962C12.2194 15.8962 12.4251 15.9772 12.5816 16.123C12.6203 16.1614 12.6545 16.2039 12.6837 16.2499C12.7135 16.2939 12.7395 16.3405 12.7614 16.389C12.7806 16.4395 12.7956 16.4915 12.8063 16.5445C12.8281 16.6497 12.8281 16.7584 12.8063 16.8636ZM13.1862 13.4225L12.9901 13.5985C12.8779 13.7982 12.8201 14.024 12.8226 14.2531C12.8226 14.4702 12.7366 14.6783 12.5833 14.8318C12.4301 14.9853 12.2223 15.0715 12.0056 15.0715C11.789 15.0715 11.5812 14.9853 11.428 14.8318C11.2747 14.6783 11.1887 14.4702 11.1887 14.2531C11.1808 13.5929 11.4115 12.952 11.8382 12.4487C11.8994 12.3833 11.9852 12.3055 12.0873 12.2114C12.5939 11.7572 13.6396 10.808 13.6396 9.7564C13.6541 9.53773 13.6217 9.31849 13.5447 9.11336C13.4677 8.90823 13.3478 8.72195 13.1931 8.56699C13.0384 8.41202 12.8524 8.29195 12.6476 8.21482C12.4428 8.13769 12.224 8.10527 12.0056 8.11973C11.7873 8.10527 11.5685 8.13769 11.3637 8.21482C11.1589 8.29195 10.9729 8.41202 10.8182 8.56699C10.6635 8.72195 10.5436 8.90823 10.4666 9.11336C10.3896 9.31849 10.3572 9.53773 10.3717 9.7564C10.3717 9.97344 10.2856 10.1816 10.1324 10.3351C9.97918 10.4885 9.77138 10.5747 9.5547 10.5747C9.33802 10.5747 9.13022 10.4885 8.97701 10.3351C8.82379 10.1816 8.73772 9.97344 8.73772 9.7564C8.72351 9.3227 8.79832 8.89069 8.95752 8.48711C9.11672 8.08353 9.35692 7.71698 9.66326 7.41014C9.96959 7.1033 10.3355 6.8627 10.7384 6.70323C11.1414 6.54377 11.5727 6.46884 12.0056 6.48307C12.4386 6.46884 12.8699 6.54377 13.2728 6.70323C13.6758 6.8627 14.0417 7.1033 14.348 7.41014C14.6544 7.71698 14.8946 8.08353 15.0538 8.48711C15.213 8.89069 15.2878 9.3227 15.2736 9.7564C15.2572 11.5281 13.8479 12.817 13.1698 13.4225H13.1862Z"/>
</svg>
