<svg width="24" height="24" viewBox="0 0 24 24" fill="none" xmlns="http://www.w3.org/2000/svg">
<path fill-rule="evenodd" clip-rule="evenodd" d="M3.52612 3.68656C4.53361 2.60568 5.96883 2.00006 7.66512 2.00006H16.3341C18.0344 2.00006 19.4702 2.60536 20.4773 3.68684C21.4787 4.76228 22.0001 6.24767 22.0001 7.91606V16.0841C22.0001 17.7525 21.4787 19.2379 20.4771 20.3133C19.4699 21.3948 18.0338 22.0001 16.3331 22.0001H7.66512C5.96482 22.0001 4.52919 21.3947 3.52241 20.3132C2.52128 19.2377 2.00012 17.7523 2.00012 16.0841V7.91606C2.00012 6.24683 2.52408 4.76159 3.52612 3.68656ZM4.62338 4.70931C3.92316 5.46054 3.50012 6.55829 3.50012 7.91606V16.0841C3.50012 17.4428 3.92147 18.5404 4.62034 19.2912C5.31356 20.0359 6.33543 20.5001 7.66512 20.5001H16.3331C17.6634 20.5001 18.6858 20.0358 19.3794 19.291C20.0786 18.5403 20.5001 17.4427 20.5001 16.0841V7.91606C20.5001 6.55746 20.0786 5.45984 19.3795 4.70903C18.686 3.96426 17.6638 3.50006 16.3341 3.50006H7.66512C6.34041 3.50006 5.31814 3.96394 4.62338 4.70931Z" fill="currentColor"/>
<path d="M14.9329 9.95238C14.9329 11.5544 13.6707 12.7101 13.0508 13.2776L13.0386 13.2888L12.8607 13.4482C12.7588 13.6291 12.7064 13.8337 12.7087 14.0413C12.7087 14.2379 12.6306 14.4265 12.4915 14.5656C12.3525 14.7046 12.1639 14.7827 11.9672 14.7827C11.7706 14.7827 11.582 14.7046 11.443 14.5656C11.3039 14.4265 11.2258 14.2379 11.2258 14.0413C11.2187 13.4431 11.428 12.8625 11.8153 12.4065C11.8709 12.3472 11.9487 12.2767 12.0414 12.1915C12.5011 11.78 13.4501 10.9199 13.4501 9.96721C13.4632 9.76909 13.4338 9.57045 13.3639 9.3846C13.2941 9.19876 13.1853 9.02998 13.0449 8.88958C12.9045 8.74919 12.7357 8.6404 12.5499 8.57052C12.364 8.50063 12.1654 8.47126 11.9672 8.48437C11.7691 8.47126 11.5705 8.50063 11.3846 8.57052C11.1988 8.6404 11.03 8.74919 10.8896 8.88958C10.7492 9.02998 10.6404 9.19876 10.5706 9.3846C10.5007 9.57045 10.4713 9.76909 10.4844 9.96721C10.4844 10.1638 10.4063 10.3524 10.2673 10.4915C10.1282 10.6305 9.93962 10.7086 9.74299 10.7086C9.54635 10.7086 9.35777 10.6305 9.21872 10.4915C9.07968 10.3524 9.00157 10.1638 9.00157 9.96721C8.98867 9.57427 9.05657 9.18286 9.20104 8.81721C9.34552 8.45157 9.5635 8.11947 9.8415 7.84147C10.1195 7.56346 10.4516 7.34548 10.8173 7.201C11.1829 7.05653 11.5743 6.98863 11.9672 7.00153C12.3589 6.98874 12.749 7.0562 13.1137 7.19978C13.4783 7.34335 13.8097 7.56 14.0874 7.8364C14.3652 8.11279 14.5835 8.44309 14.7289 8.80698C14.8743 9.17087 14.9438 9.56066 14.9329 9.95238Z" fill="currentColor"/>
<path d="M12.3787 15.6391C12.3388 15.612 12.2966 15.5885 12.2527 15.5686C12.207 15.5512 12.1598 15.5375 12.1118 15.5279C12.0031 15.5062 11.8909 15.5092 11.7836 15.5367C11.6762 15.5641 11.5763 15.6153 11.4913 15.6864C11.4063 15.7576 11.3383 15.8468 11.2924 15.9477C11.2464 16.0486 11.2237 16.1585 11.2258 16.2693C11.2203 16.3173 11.2203 16.3658 11.2258 16.4139C11.2355 16.4619 11.2491 16.509 11.2666 16.5547C11.2864 16.5987 11.31 16.6409 11.337 16.6808C11.3634 16.7215 11.3932 16.7599 11.426 16.7957C11.4983 16.8635 11.5834 16.9162 11.6764 16.9506C11.7693 16.985 11.8682 17.0004 11.9672 16.9959C12.0153 17.0014 12.0638 17.0014 12.1118 16.9959C12.1602 16.9879 12.2075 16.9743 12.2527 16.9551C12.2974 16.9367 12.3397 16.9131 12.3787 16.8847C12.4629 16.8351 12.5331 16.765 12.5826 16.6808C12.6111 16.6417 12.6347 16.5994 12.6531 16.5547C12.6722 16.5096 12.6859 16.4623 12.6938 16.4139C12.6993 16.3658 12.6993 16.3173 12.6938 16.2693C12.6944 16.1717 12.6757 16.075 12.6388 15.9846C12.6019 15.8943 12.5475 15.8122 12.4788 15.7429C12.4484 15.7056 12.4149 15.6708 12.3787 15.6391Z" fill="currentColor"/>
</svg>
