<svg width="24" height="24" viewBox="0 0 24 24" fill="none" xmlns="http://www.w3.org/2000/svg">
<path fill-rule="evenodd" clip-rule="evenodd" d="M12 3.5C7.313 3.5 3.5 7.313 3.5 12C3.5 16.687 7.313 20.5 12 20.5C16.687 20.5 20.5 16.687 20.5 12C20.5 7.313 16.687 3.5 12 3.5ZM12 22C6.486 22 2 17.514 2 12C2 6.486 6.486 2 12 2C17.514 2 22 6.486 22 12C22 17.514 17.514 22 12 22Z" fill="black"/>
<path fill-rule="evenodd" clip-rule="evenodd" d="M12.015 18C8.70524 18 6 15.318 6 12C6 8.682 8.65137 6 11.9551 6H12.015C15.3247 6 18 8.682 18 12C18 15.318 15.3247 18 12.015 18Z" fill="black"/>
</svg>
