<svg xmlns="http://www.w3.org/2000/svg" viewBox="0 0 258 258">
  <g>
    <circle cx="129" cy="129" r="129"/>
    <circle cx="129" cy="128.5" r="119.5" fill="#FFF"/>
    <g transform="translate(70 69)">
      <path d="M0.3,87.9 C1.4,87.6 2.5,87 3.7,86.9 C10.8,86.8 17.9,86.9 25,86.9 C25.8,86.9 26.6,86.9 27.8,86.9 C27.8,85.8 27.8,84.9 27.8,84 C27.8,62.6 28,41.1 27.7,19.7 C27.6,10.3 31.2,3.3 41.2,0.8 C66.7,0.8 92.3,0.8 117.8,0.8 C117.8,2.1 117.8,3.3 117.8,4.4 C116,4.9 114.3,5.2 112.9,5.8 C107.8,8.2 106,12.5 106,17.9 C106,45.5 106,73.1 106,100.6 C106,104.9 105.2,108.9 102.4,112.4 C99.9,115.4 96.5,116.9 93,118.1 C66.6,118.1 40.1,118.1 13.7,118.1 C12.2,117.6 10.7,117.1 9.3,116.5 C4.3,114.2 1.8,109.9 0.4,104.8 C0.3,99.2 0.3,93.6 0.3,87.9 Z M107.3,4.9 C106.3,4.8 105.9,4.7 105.5,4.7 C85,4.7 64.6,4.6 44.1,4.7 C36.2,4.7 31.6,9.6 31.6,17.6 C31.6,39.9 31.6,62.2 31.6,84.5 C31.6,85.2 31.7,86 31.7,86.8 C32.9,86.8 33.8,86.8 34.7,86.8 C48.2,86.8 61.7,86.8 75.3,86.8 C78.2,86.8 78.6,87.2 78.6,90.1 C78.6,94.5 78.5,99 78.7,103.4 C79.1,110.7 86.4,115.7 93.4,113.7 C98.9,112.1 102,107.6 102,101.2 C102,74.4 102,47.6 102,20.8 C102,15 102.3,9.5 107.3,4.9 Z M74.5,90.9 C51,90.9 27.8,90.9 4.6,90.9 C4.6,95.8 4,100.7 4.7,105.3 C5.6,111.1 10.6,114.2 17.3,114.2 C37.2,114.2 57.2,114.2 77.1,114.2 C77.8,114.2 78.5,114.1 79.8,114 C72.6,107.4 75.2,98.9 74.5,90.9 Z"/>
      <path d="M88.3 79C88.4 77.6 88.4 76.5 88.5 75.3 89.7 75.3 90.9 75.3 92.1 75.3 92.2 75.7 92.4 76.2 92.3 76.6 92.1 78.3 92.6 79.1 94.4 79.6 97.3 80.5 98.4 83.1 98 86.8 96.9 86.8 95.8 86.8 94.7 86.8 93.8 83.1 92.3 82.1 88.4 83.1 87.7 83.3 86.8 84.2 86.7 84.8 86.4 86.1 86.4 87.6 86.7 88.9 86.9 89.7 88 90.5 88.8 90.7 89.9 91 91.2 90.7 92.4 90.8 95.8 91.1 98 93.4 98.2 96.7 98.3 98.1 98.2 99.5 98.2 100.8 98.1 103.3 96.8 105.2 94.5 105.8 92.6 106.4 92.2 107.3 92.4 109 92.4 109.4 92.3 109.7 92.2 110.2 91 110.2 89.9 110.2 88.6 110.2 88.5 108.9 88.5 107.8 88.4 106.6 83.8 105.1 82.3 103.1 82.7 98.7 83.9 98.7 85 98.7 86.2 98.7 87 102.4 88.8 103.4 92.5 102.4 93.2 102.2 94.1 101.4 94.2 100.8 94.4 99.3 94.4 97.7 94.2 96.3 94.1 95.7 93.1 95.2 92.5 94.8 92.1 94.6 91.4 94.7 90.9 94.7 82.3 95.4 81.7 88.7 83 83 83.5 80.6 85.7 79.4 88.3 79zM98 16.6C98 17.8 98 19 98 20.3 77.3 20.3 56.6 20.3 35.8 20.3 35.8 19.1 35.8 18 35.8 16.6 56.4 16.6 77 16.6 98 16.6zM47.4 12.4C47.4 11.2 47.4 10 47.4 8.8 60.3 8.8 73.2 8.8 86.3 8.8 86.3 9.9 86.3 11.1 86.3 12.4 73.4 12.4 60.5 12.4 47.4 12.4zM39.5 75C39.5 73.8 39.5 72.8 39.5 71.5 49.8 71.5 60.1 71.5 70.6 71.5 70.6 72.6 70.6 73.7 70.6 75 60.3 75 50 75 39.5 75zM70.7 79.3C70.7 80.5 70.7 81.6 70.7 82.8 60.3 82.8 50 82.8 39.6 82.8 39.6 81.7 39.6 80.6 39.6 79.3 49.9 79.3 60.1 79.3 70.7 79.3zM62.7 47.6C55 47.6 47.3 47.6 39.5 47.6 39.5 46.4 39.5 45.3 39.5 44 47.2 44 54.9 44 62.7 44 62.7 45.2 62.7 46.3 62.7 47.6zM39.5 63.2C39.5 61.9 39.5 60.8 39.5 59.6 46 59.6 52.4 59.6 58.9 59.6 58.9 60.8 58.9 61.9 58.9 63.2 52.5 63.2 46.1 63.2 39.5 63.2zM58.9 28.4C58.9 29.7 58.9 30.7 58.9 31.9 52.5 31.9 46.1 31.9 39.6 31.9 39.6 30.8 39.6 29.7 39.6 28.4 46 28.4 52.5 28.4 58.9 28.4zM54.9 36.2C54.9 37.4 54.9 38.5 54.9 39.8 49.7 39.8 44.7 39.8 39.5 39.8 39.5 38.6 39.5 37.5 39.5 36.2 44.7 36.2 49.8 36.2 54.9 36.2zM39.5 51.8C43.5 51.8 47.2 51.8 51 51.8 51 53 51 54.1 51 55.4 47.2 55.4 43.4 55.4 39.5 55.4 39.5 54.2 39.5 53.1 39.5 51.8zM94.1 63.3C91.5 63.3 89.1 63.3 86.5 63.3 86.5 62 86.5 60.9 86.5 59.7 89 59.7 91.5 59.7 94.1 59.7 94.1 60.8 94.1 61.9 94.1 63.3zM86.5 31.9C86.5 30.6 86.5 29.6 86.5 28.4 89.1 28.4 91.5 28.4 94.1 28.4 94.1 29.6 94.1 30.7 94.1 31.9 91.6 31.9 89.1 31.9 86.5 31.9zM94.1 36.3C94.1 37.6 94.1 38.6 94.1 39.8 91.6 39.8 89.2 39.8 86.6 39.8 86.6 38.7 86.6 37.5 86.6 36.3 89.2 36.3 91.7 36.3 94.1 36.3zM86.5 47.5C86.5 46.3 86.5 45.2 86.5 44 89 44 91.5 44 94.1 44 94.1 45.1 94.1 46.2 94.1 47.5 91.7 47.5 89.2 47.5 86.5 47.5zM94.2 51.8C94.2 53 94.2 54.1 94.2 55.3 91.7 55.3 89.3 55.3 86.6 55.3 86.6 54.2 86.6 53 86.6 51.8 89.1 51.8 91.5 51.8 94.2 51.8z"/>
    </g>
  </g>
</svg>
