<svg viewBox="0 0 20 20" fill="none" xmlns="http://www.w3.org/2000/svg">
<path d="M10.3639 0C13.899 0 16.8505 2.64801 17.5484 6.17435L18.6378 3.97149L18.7005 3.86634C18.9092 3.57229 19.2944 3.47372 19.6125 3.65084C19.9659 3.84764 20.1024 4.31028 19.9175 4.68418L17.2338 10.1114L12.9468 6.21056L12.8558 6.11151C12.6397 5.82959 12.6374 5.41629 12.868 5.13163L12.9613 5.03545C13.2269 4.80721 13.617 4.80586 13.8863 5.05087L16.2346 7.18749C15.9533 4.01384 13.4323 1.5303 10.3639 1.5303C8.92405 1.5303 7.60471 2.07718 6.58079 2.98563C6.30508 3.23025 5.99409 3.55556 5.56967 3.11111C5.14524 2.66667 5.37955 2.06188 5.56963 1.88801C6.85584 0.711496 8.53148 0 10.3639 0Z" fill="currentColor"/>
<path d="M4.89538 19.1475V17.0007C4.89537 16.4567 5.36102 16.0147 5.93779 16.0113H8.05561C8.63496 16.0113 9.10462 16.4542 9.10462 17.0007V19.1413C9.10461 19.6131 9.50823 19.9966 10.0085 20H11.4533C12.1282 20.0016 12.7759 19.75 13.2537 19.3005C13.7315 18.851 14 18.2407 14 17.6043V11.5061C14 10.992 13.7584 10.5043 13.3402 10.1744L8.43167 6.47199C7.57364 5.82439 6.34817 5.84531 5.51555 6.52177L0.712535 10.1744C0.274651 10.4946 0.0129333 10.9837 0 11.5061V17.598C0 18.9246 1.14018 20 2.54665 20H3.95853C4.19939 20.0016 4.43099 19.9125 4.60193 19.7525C4.77286 19.5924 4.869 19.3747 4.86899 19.1475H4.89538Z" fill="currentColor"/>
</svg>
