<svg width="9" height="13" viewBox="0 0 9 13" fill="none" xmlns="http://www.w3.org/2000/svg">
<path d="M0.87932 1.01825C1.07101 0.813243 1.39159 0.769361 1.63717 0.900979L1.72535 0.958591L7.95027 5.8496C8.56878 6.33557 8.64041 7.18914 8.11026 7.75611L8.03334 7.83225L7.95027 7.90276L1.72535 12.7938C1.47375 12.9915 1.09497 12.9647 0.87932 12.7341C0.687628 12.5291 0.689351 12.232 0.868804 12.0297L0.944399 11.9586L7.16932 7.06758C7.18002 7.05918 7.18999 7.05004 7.19915 7.04024C7.28152 6.95215 7.28597 6.82695 7.21844 6.73523L7.16932 6.68479L0.944399 1.79377C0.692804 1.59609 0.663667 1.24888 0.87932 1.01825Z" fill="#FF3366"/>
</svg>
