<svg width="471" height="58" viewBox="0 0 471 58" fill="none" xmlns="http://www.w3.org/2000/svg">
<path fill-rule="evenodd" clip-rule="evenodd" d="M26.1586 12.567C26.0508 6.99991 21.2627 3 15.3877 3C9.50661 3 5 7.32491 5 12.8379C5 18.9455 9.3426 21.1627 14.564 23.0044C19.2359 24.627 21.4892 26.0858 21.4892 29.5453C21.4892 32.3559 19.2358 34.6803 15.8284 34.6803C12.5849 34.6803 9.72692 32.4643 9.72692 29.0048C9.72692 27.8884 10.0334 27.2535 10.2952 26.7112C10.4904 26.3069 10.6608 25.9539 10.6608 25.4912C10.6608 24.243 9.782 23.3245 8.35242 23.3245C6.70375 23.3245 5 25.7572 5 29.2167C5 34.7838 9.89583 38.8921 15.8284 38.8896C21.8735 38.8896 26.2161 34.5106 26.2161 29.0518C26.2161 22.7817 21.6544 20.6728 16.6521 18.8889C11.9766 17.2157 9.72692 15.7593 9.72447 12.4599C9.72447 9.4326 12.1479 7.21658 15.3302 7.21658C18.7389 7.21658 21.4316 9.54574 21.4867 12.6754C21.5418 14.1355 22.5858 14.9997 23.7951 14.9997C25.057 14.9997 26.2136 14.1319 26.1586 12.567ZM28.4914 28.2429C28.4914 34.1892 33.4386 38.892 39.3748 38.892C42.0124 38.892 44.0467 38.0266 44.0467 36.351C44.0467 35.1076 42.9476 34.2433 41.9035 34.2433C41.5661 34.2433 41.271 34.3055 40.9394 34.3754C40.5146 34.465 40.0299 34.5671 39.3197 34.5671C35.911 34.5671 33.2183 31.6481 33.2183 28.2429C33.2183 24.568 35.9673 21.7031 39.4299 21.7031C43.3319 21.7031 45.8055 24.6221 45.8055 28.8917V36.6218C45.8055 37.9724 46.9046 38.892 48.224 38.892C49.4859 38.892 50.5875 37.9724 50.5875 36.6218V28.7292C50.5875 22.2436 46.027 17.4866 39.5401 17.4866C33.4937 17.4866 28.4914 22.0811 28.4914 28.2429ZM64.1306 55C57.9741 55 52.8629 50.6751 52.8629 45.0538C52.8629 43.1616 53.9644 42.2973 55.2263 42.2973C56.4882 42.2973 57.5347 43.1086 57.5898 44.6758C57.6449 48.1894 60.5028 50.7834 64.0768 50.7834C67.871 50.7834 70.3422 48.4049 70.3422 45.3246C70.3422 41.811 67.5944 40.3509 62.9226 38.892C57.4809 37.1623 52.8641 34.7838 52.8641 28.1887C52.8641 22.1353 57.591 17.4866 63.7475 17.4866C69.9579 17.4866 75.0691 21.9186 75.0691 27.7566C75.0691 31.3243 73.5857 34.0808 71.5515 34.0808C70.1782 34.0808 69.2431 33.1082 69.2431 31.9142C69.2431 31.3816 69.4451 30.9781 69.6762 30.5166C69.9846 29.9005 70.3447 29.1812 70.3447 27.9142C70.3447 24.1828 67.3778 21.6983 63.805 21.6983C60.3412 21.6983 57.5935 24.2923 57.5935 27.6976C57.5935 31.5362 60.3963 33.1576 65.0143 34.6706C70.3447 36.4004 75.0716 38.5622 75.0716 44.8865C75.0716 50.5631 70.5099 54.9976 64.1343 54.9976L64.1306 55ZM77.3445 28.1887C77.3445 34.135 82.4007 38.8921 88.5572 38.8921H88.5609C91.6391 38.8921 94.1127 38.0808 95.7614 37.054C97.4101 36.0273 98.0698 35.1618 98.0698 34.1892C98.0698 33.1625 97.2962 32.2428 95.8667 32.2428C95.2027 32.2428 94.5888 32.6123 93.8397 33.0633C92.6666 33.7695 91.1616 34.6755 88.6123 34.6755C87.7484 34.6765 86.8929 34.509 86.0953 34.1827C85.2976 33.8564 84.5737 33.3777 83.9654 32.7745C83.3571 32.1712 82.8765 31.4553 82.5514 30.6682C82.2263 29.881 82.0632 29.0383 82.0714 28.1887C82.0714 24.6222 84.9294 21.649 88.447 21.649C92.2401 21.649 94.2731 24.0841 94.2731 25.6489C94.2731 26.0811 93.9438 26.2977 93.5032 26.2977H88.7763C87.5083 26.2977 86.5732 27.1596 86.5732 28.2429C86.5732 29.378 87.5132 30.2435 88.7763 30.2435H95.098C97.5166 30.2435 99 29 99 26.9465C99 21.649 94.3832 17.4866 88.2818 17.4866C86.8482 17.4798 85.4273 17.7516 84.1008 18.2863C82.7743 18.8211 81.5683 19.6083 80.552 20.6027C79.5357 21.5971 78.7292 22.7792 78.1788 24.081C77.6283 25.3829 77.3448 26.7788 77.3445 28.1887Z" fill="black"/>
<line x1="123.75" y1="3" x2="123.75" y2="55" stroke="black" stroke-width="1.5"/>
<path d="M164.267 34.621V38H149.418V16.3H164.267V19.741H153.572V25.414H161.105V28.731H153.572V34.621H164.267ZM169.405 38H165.313L170.924 29.971L165.22 21.911H169.87L173.404 27.181L177.031 21.911H181.154L175.45 30.002L181.123 38H176.473L172.939 32.761L169.405 38ZM187.135 44.293H183.136V21.911H187.135V24.577C187.59 23.647 188.21 22.934 188.995 22.438C189.801 21.9213 190.752 21.663 191.847 21.663C192.384 21.663 192.891 21.725 193.366 21.849C193.841 21.973 194.296 22.1487 194.73 22.376C195.164 22.6033 195.567 22.8927 195.939 23.244C196.311 23.5953 196.642 23.9983 196.931 24.453C197.22 24.9077 197.468 25.414 197.675 25.972C197.882 26.53 198.037 27.1397 198.14 27.801C198.243 28.4623 198.295 29.1753 198.295 29.94C198.295 30.7047 198.243 31.4177 198.14 32.079C198.037 32.7403 197.882 33.35 197.675 33.908C197.468 34.466 197.22 34.9827 196.931 35.458C196.642 35.9127 196.311 36.3157 195.939 36.667C195.567 37.0183 195.164 37.318 194.73 37.566C194.296 37.7933 193.841 37.969 193.366 38.093C192.891 38.217 192.384 38.279 191.847 38.279C190.752 38.279 189.801 38.0207 188.995 37.504C188.21 36.9873 187.59 36.2537 187.135 35.303V44.293ZM190.731 35.055C191.785 35.055 192.653 34.6313 193.335 33.784C194.017 32.9367 194.358 31.645 194.358 29.909C194.358 28.1937 194.017 26.9123 193.335 26.065C192.653 25.2177 191.785 24.794 190.731 24.794C189.698 24.794 188.84 25.2177 188.158 26.065C187.476 26.9123 187.135 28.1937 187.135 29.909C187.135 31.645 187.476 32.9367 188.158 33.784C188.84 34.6313 189.698 35.055 190.731 35.055ZM212.045 33.009L215.362 33.877C215.238 34.1457 215.103 34.4247 214.959 34.714C214.814 34.9827 214.638 35.241 214.432 35.489C214.246 35.737 214.039 35.985 213.812 36.233C213.584 36.4603 213.336 36.6773 213.068 36.884C212.799 37.0907 212.499 37.2767 212.169 37.442C211.859 37.6073 211.518 37.752 211.146 37.876C210.794 38 210.402 38.093 209.968 38.155C209.554 38.217 209.12 38.248 208.666 38.248C208.108 38.248 207.57 38.1963 207.054 38.093C206.537 38.0103 206.041 37.876 205.566 37.69C205.111 37.504 204.677 37.2767 204.264 37.008C203.85 36.7393 203.468 36.4293 203.117 36.078C202.786 35.706 202.486 35.303 202.218 34.869C201.949 34.435 201.722 33.9597 201.536 33.443C201.35 32.9263 201.205 32.3787 201.102 31.8C200.998 31.2007 200.947 30.5703 200.947 29.909C200.947 29.2683 200.988 28.6587 201.071 28.08C201.174 27.4807 201.319 26.933 201.505 26.437C201.691 25.9203 201.918 25.445 202.187 25.011C202.455 24.577 202.755 24.1843 203.086 23.833C203.416 23.4817 203.778 23.1717 204.171 22.903C204.584 22.6343 205.008 22.407 205.442 22.221C205.896 22.035 206.361 21.9007 206.837 21.818C207.333 21.7147 207.839 21.663 208.356 21.663C208.893 21.663 209.399 21.7147 209.875 21.818C210.371 21.9007 210.836 22.035 211.27 22.221C211.704 22.407 212.107 22.6447 212.479 22.934C212.871 23.2027 213.223 23.5127 213.533 23.864C213.863 24.2153 214.153 24.608 214.401 25.042C214.649 25.476 214.855 25.9513 215.021 26.468C215.207 26.964 215.341 27.5013 215.424 28.08C215.527 28.6587 215.579 29.2683 215.579 29.909V30.87H204.76C204.904 32.3787 205.328 33.4947 206.031 34.218C206.754 34.9207 207.643 35.272 208.697 35.272C209.441 35.272 210.081 35.0757 210.619 34.683C211.177 34.2903 211.652 33.7323 212.045 33.009ZM208.325 24.608C207.457 24.608 206.702 24.9077 206.062 25.507C205.421 26.0857 205.008 27.0467 204.822 28.39H211.797C211.631 27.0673 211.228 26.1063 210.588 25.507C209.968 24.9077 209.213 24.608 208.325 24.608ZM232.621 38H228.622V28.018C228.622 26.9433 228.343 26.127 227.785 25.569C227.248 25.011 226.566 24.732 225.739 24.732C224.954 24.732 224.282 25.011 223.724 25.569C223.187 26.127 222.918 26.9433 222.918 28.018V38H218.919V21.911H222.918V24.236C223.373 23.4093 223.983 22.779 224.747 22.345C225.533 21.8903 226.401 21.663 227.351 21.663C228.881 21.663 230.141 22.159 231.133 23.151C232.125 24.143 232.621 25.538 232.621 27.336V38ZM235.198 34.838L237.709 32.792C238.288 33.6807 238.949 34.342 239.693 34.776C240.437 35.21 241.222 35.427 242.049 35.427C242.876 35.427 243.537 35.2617 244.033 34.931C244.55 34.5797 244.808 34.094 244.808 33.474C244.808 32.854 244.457 32.4097 243.754 32.141C243.072 31.8723 242.276 31.6347 241.367 31.428C241.098 31.3453 240.819 31.273 240.53 31.211C240.241 31.1283 239.951 31.0457 239.662 30.963C239.393 30.8597 239.125 30.7563 238.856 30.653C238.587 30.529 238.329 30.3947 238.081 30.25C237.854 30.1053 237.626 29.9503 237.399 29.785C237.192 29.599 236.996 29.4027 236.81 29.196C236.645 28.9893 236.5 28.7517 236.376 28.483C236.252 28.2143 236.149 27.925 236.066 27.615C236.004 27.2843 235.973 26.933 235.973 26.561C235.973 25.0523 236.552 23.864 237.709 22.996C238.866 22.1073 240.313 21.663 242.049 21.663C243.496 21.663 244.787 21.9937 245.924 22.655C247.061 23.3163 247.96 24.1533 248.621 25.166L246.141 27.088C245.521 26.2407 244.88 25.6103 244.219 25.197C243.558 24.763 242.865 24.546 242.142 24.546C241.501 24.546 240.964 24.701 240.53 25.011C240.117 25.3003 239.91 25.724 239.91 26.282C239.91 26.902 240.22 27.3567 240.84 27.646C241.46 27.9353 242.194 28.1937 243.041 28.421C243.289 28.483 243.537 28.5553 243.785 28.638C244.054 28.7 244.322 28.7723 244.591 28.855C244.86 28.917 245.118 28.9997 245.366 29.103C245.614 29.1857 245.862 29.289 246.11 29.413C246.358 29.5163 246.585 29.6403 246.792 29.785C247.019 29.909 247.226 30.0537 247.412 30.219C247.619 30.3843 247.794 30.5703 247.939 30.777C248.104 30.9837 248.239 31.211 248.342 31.459C248.445 31.707 248.528 31.9757 248.59 32.265C248.652 32.5337 248.683 32.8437 248.683 33.195C248.683 33.6497 248.621 34.0837 248.497 34.497C248.394 34.8897 248.239 35.2617 248.032 35.613C247.825 35.9437 247.577 36.2537 247.288 36.543C246.999 36.8117 246.668 37.0597 246.296 37.287C245.924 37.4937 245.511 37.6693 245.056 37.814C244.622 37.9587 244.157 38.062 243.661 38.124C243.165 38.2067 242.648 38.248 242.111 38.248C240.354 38.248 238.897 37.907 237.74 37.225C236.583 36.5223 235.735 35.7267 235.198 34.838ZM261.966 33.009L265.283 33.877C265.159 34.1457 265.024 34.4247 264.88 34.714C264.735 34.9827 264.559 35.241 264.353 35.489C264.167 35.737 263.96 35.985 263.733 36.233C263.505 36.4603 263.257 36.6773 262.989 36.884C262.72 37.0907 262.42 37.2767 262.09 37.442C261.78 37.6073 261.439 37.752 261.067 37.876C260.715 38 260.323 38.093 259.889 38.155C259.475 38.217 259.041 38.248 258.587 38.248C258.029 38.248 257.491 38.1963 256.975 38.093C256.458 38.0103 255.962 37.876 255.487 37.69C255.032 37.504 254.598 37.2767 254.185 37.008C253.771 36.7393 253.389 36.4293 253.038 36.078C252.707 35.706 252.407 35.303 252.139 34.869C251.87 34.435 251.643 33.9597 251.457 33.443C251.271 32.9263 251.126 32.3787 251.023 31.8C250.919 31.2007 250.868 30.5703 250.868 29.909C250.868 29.2683 250.909 28.6587 250.992 28.08C251.095 27.4807 251.24 26.933 251.426 26.437C251.612 25.9203 251.839 25.445 252.108 25.011C252.376 24.577 252.676 24.1843 253.007 23.833C253.337 23.4817 253.699 23.1717 254.092 22.903C254.505 22.6343 254.929 22.407 255.363 22.221C255.817 22.035 256.282 21.9007 256.758 21.818C257.254 21.7147 257.76 21.663 258.277 21.663C258.814 21.663 259.32 21.7147 259.796 21.818C260.292 21.9007 260.757 22.035 261.191 22.221C261.625 22.407 262.028 22.6447 262.4 22.934C262.792 23.2027 263.144 23.5127 263.454 23.864C263.784 24.2153 264.074 24.608 264.322 25.042C264.57 25.476 264.776 25.9513 264.942 26.468C265.128 26.964 265.262 27.5013 265.345 28.08C265.448 28.6587 265.5 29.2683 265.5 29.909V30.87H254.681C254.825 32.3787 255.249 33.4947 255.952 34.218C256.675 34.9207 257.564 35.272 258.618 35.272C259.362 35.272 260.002 35.0757 260.54 34.683C261.098 34.2903 261.573 33.7323 261.966 33.009ZM258.246 24.608C257.378 24.608 256.623 24.9077 255.983 25.507C255.342 26.0857 254.929 27.0467 254.743 28.39H261.718C261.552 27.0673 261.149 26.1063 260.509 25.507C259.889 24.9077 259.134 24.608 258.246 24.608ZM283.876 33.009L279.164 21.942L279.288 38H275.537V16.3H280.559L285.24 27.553L289.921 16.3H294.974V38H291.099L291.254 21.849L286.511 33.009H283.876ZM303.567 38.248C302.059 38.248 300.85 37.8347 299.94 37.008C299.052 36.1607 298.607 35.117 298.607 33.877C298.607 32.4097 299.145 31.2627 300.219 30.436C301.294 29.5887 302.782 29.0927 304.683 28.948L308.496 28.669V27.46C308.496 26.5713 308.228 25.8997 307.69 25.445C307.174 24.9697 306.502 24.732 305.675 24.732C304.911 24.732 304.198 24.9283 303.536 25.321C302.896 25.693 302.296 26.3337 301.738 27.243L298.731 25.693C299.372 24.577 300.281 23.6263 301.459 22.841C302.637 22.035 304.156 21.632 306.016 21.632C307.897 21.632 309.437 22.1487 310.635 23.182C311.834 24.2153 312.433 25.662 312.433 27.522V38H308.496V35.706C308.021 36.4913 307.349 37.1113 306.481 37.566C305.634 38.0207 304.663 38.248 303.567 38.248ZM302.389 33.505C302.389 34.2077 302.637 34.7243 303.133 35.055C303.65 35.3857 304.27 35.551 304.993 35.551C305.882 35.551 306.688 35.2617 307.411 34.683C308.135 34.1043 308.496 33.3087 308.496 32.296V31.087L305.582 31.335C304.528 31.4177 303.733 31.645 303.195 32.017C302.658 32.3683 302.389 32.8643 302.389 33.505ZM330.374 38H326.375V28.018C326.375 26.9433 326.096 26.127 325.538 25.569C325.001 25.011 324.319 24.732 323.492 24.732C322.707 24.732 322.035 25.011 321.477 25.569C320.94 26.127 320.671 26.9433 320.671 28.018V38H316.672V21.911H320.671V24.236C321.126 23.4093 321.736 22.779 322.5 22.345C323.286 21.8903 324.154 21.663 325.104 21.663C326.634 21.663 327.894 22.159 328.886 23.151C329.878 24.143 330.374 25.538 330.374 27.336V38ZM338.624 38.248C337.115 38.248 335.906 37.8347 334.997 37.008C334.108 36.1607 333.664 35.117 333.664 33.877C333.664 32.4097 334.201 31.2627 335.276 30.436C336.351 29.5887 337.839 29.0927 339.74 28.948L343.553 28.669V27.46C343.553 26.5713 343.284 25.8997 342.747 25.445C342.23 24.9697 341.559 24.732 340.732 24.732C339.967 24.732 339.254 24.9283 338.593 25.321C337.952 25.693 337.353 26.3337 336.795 27.243L333.788 25.693C334.429 24.577 335.338 23.6263 336.516 22.841C337.694 22.035 339.213 21.632 341.073 21.632C342.954 21.632 344.493 22.1487 345.692 23.182C346.891 24.2153 347.49 25.662 347.49 27.522V38H343.553V35.706C343.078 36.4913 342.406 37.1113 341.538 37.566C340.691 38.0207 339.719 38.248 338.624 38.248ZM337.446 33.505C337.446 34.2077 337.694 34.7243 338.19 35.055C338.707 35.3857 339.327 35.551 340.05 35.551C340.939 35.551 341.745 35.2617 342.468 34.683C343.191 34.1043 343.553 33.3087 343.553 32.296V31.087L340.639 31.335C339.585 31.4177 338.789 31.645 338.252 32.017C337.715 32.3683 337.446 32.8643 337.446 33.505ZM357.371 38.031C356.834 38.031 356.317 37.969 355.821 37.845C355.346 37.721 354.891 37.5453 354.457 37.318C354.023 37.0907 353.62 36.8013 353.248 36.45C352.876 36.0987 352.545 35.706 352.256 35.272C351.967 34.8173 351.719 34.311 351.512 33.753C351.305 33.195 351.14 32.5957 351.016 31.955C350.913 31.3143 350.861 30.622 350.861 29.878C350.861 29.134 350.913 28.4313 351.016 27.77C351.14 27.1087 351.305 26.5093 351.512 25.972C351.719 25.414 351.967 24.9077 352.256 24.453C352.545 23.9983 352.876 23.5953 353.248 23.244C353.62 22.8927 354.023 22.6033 354.457 22.376C354.891 22.1487 355.346 21.973 355.821 21.849C356.317 21.725 356.834 21.663 357.371 21.663C358.446 21.663 359.376 21.911 360.161 22.407C360.946 22.903 361.566 23.616 362.021 24.546V21.911H366.02V37.721C366.02 38.2583 365.968 38.7647 365.865 39.24C365.762 39.7153 365.617 40.1597 365.431 40.573C365.245 40.9863 365.018 41.3687 364.749 41.72C364.48 42.0713 364.17 42.3917 363.819 42.681C363.468 42.9703 363.085 43.2183 362.672 43.425C362.279 43.6523 361.845 43.8383 361.37 43.983C360.915 44.1483 360.43 44.262 359.913 44.324C359.396 44.4067 358.869 44.448 358.332 44.448C356.741 44.448 355.346 44.1793 354.147 43.642C352.969 43.1253 352.029 42.4227 351.326 41.534L353.558 39.085C354.219 39.8497 354.922 40.418 355.666 40.79C356.431 41.162 357.268 41.348 358.177 41.348C359.293 41.348 360.213 41.0277 360.936 40.387C361.659 39.767 362.021 38.7543 362.021 37.349V35.148C361.566 36.078 360.946 36.791 360.161 37.287C359.376 37.783 358.446 38.031 357.371 38.031ZM358.456 34.962C359.489 34.962 360.337 34.5383 360.998 33.691C361.68 32.8437 362.021 31.5727 362.021 29.878C362.021 28.1627 361.68 26.8813 360.998 26.034C360.337 25.1867 359.489 24.763 358.456 24.763C357.423 24.763 356.555 25.1867 355.852 26.034C355.17 26.8813 354.829 28.1627 354.829 29.878C354.829 31.5727 355.17 32.8437 355.852 33.691C356.555 34.5383 357.423 34.962 358.456 34.962ZM380.516 33.009L383.833 33.877C383.709 34.1457 383.575 34.4247 383.43 34.714C383.286 34.9827 383.11 35.241 382.903 35.489C382.717 35.737 382.511 35.985 382.283 36.233C382.056 36.4603 381.808 36.6773 381.539 36.884C381.271 37.0907 380.971 37.2767 380.64 37.442C380.33 37.6073 379.989 37.752 379.617 37.876C379.266 38 378.873 38.093 378.439 38.155C378.026 38.217 377.592 38.248 377.137 38.248C376.579 38.248 376.042 38.1963 375.525 38.093C375.009 38.0103 374.513 37.876 374.037 37.69C373.583 37.504 373.149 37.2767 372.735 37.008C372.322 36.7393 371.94 36.4293 371.588 36.078C371.258 35.706 370.958 35.303 370.689 34.869C370.421 34.435 370.193 33.9597 370.007 33.443C369.821 32.9263 369.677 32.3787 369.573 31.8C369.47 31.2007 369.418 30.5703 369.418 29.909C369.418 29.2683 369.46 28.6587 369.542 28.08C369.646 27.4807 369.79 26.933 369.976 26.437C370.162 25.9203 370.39 25.445 370.658 25.011C370.927 24.577 371.227 24.1843 371.557 23.833C371.888 23.4817 372.25 23.1717 372.642 22.903C373.056 22.6343 373.479 22.407 373.913 22.221C374.368 22.035 374.833 21.9007 375.308 21.818C375.804 21.7147 376.311 21.663 376.827 21.663C377.365 21.663 377.871 21.7147 378.346 21.818C378.842 21.9007 379.307 22.035 379.741 22.221C380.175 22.407 380.578 22.6447 380.95 22.934C381.343 23.2027 381.694 23.5127 382.004 23.864C382.335 24.2153 382.624 24.608 382.872 25.042C383.12 25.476 383.327 25.9513 383.492 26.468C383.678 26.964 383.813 27.5013 383.895 28.08C383.999 28.6587 384.05 29.2683 384.05 29.909V30.87H373.231C373.376 32.3787 373.8 33.4947 374.502 34.218C375.226 34.9207 376.114 35.272 377.168 35.272C377.912 35.272 378.553 35.0757 379.09 34.683C379.648 34.2903 380.124 33.7323 380.516 33.009ZM376.796 24.608C375.928 24.608 375.174 24.9077 374.533 25.507C373.893 26.0857 373.479 27.0467 373.293 28.39H380.268C380.103 27.0673 379.7 26.1063 379.059 25.507C378.439 24.9077 377.685 24.608 376.796 24.608ZM400.721 38H396.722V27.925C396.722 26.871 396.464 26.0753 395.947 25.538C395.451 25.0007 394.821 24.732 394.056 24.732C393.291 24.732 392.651 25.0007 392.134 25.538C391.638 26.0753 391.39 26.871 391.39 27.925V38H387.391V21.911H391.39V24.298C391.824 23.4507 392.413 22.7997 393.157 22.345C393.922 21.8903 394.748 21.663 395.637 21.663C396.691 21.663 397.621 21.9213 398.427 22.438C399.233 22.9547 399.832 23.6883 400.225 24.639C400.68 23.6677 401.32 22.934 402.147 22.438C402.994 21.9213 403.924 21.663 404.937 21.663C406.425 21.663 407.634 22.159 408.564 23.151C409.515 24.143 409.99 25.538 409.99 27.336V38H406.022V27.925C406.022 26.871 405.774 26.0753 405.278 25.538C404.782 25.0007 404.152 24.732 403.387 24.732C402.622 24.732 401.982 25.0007 401.465 25.538C400.969 26.0753 400.721 26.871 400.721 27.925V38ZM424.504 33.009L427.821 33.877C427.697 34.1457 427.562 34.4247 427.418 34.714C427.273 34.9827 427.097 35.241 426.891 35.489C426.705 35.737 426.498 35.985 426.271 36.233C426.043 36.4603 425.795 36.6773 425.527 36.884C425.258 37.0907 424.958 37.2767 424.628 37.442C424.318 37.6073 423.977 37.752 423.605 37.876C423.253 38 422.861 38.093 422.427 38.155C422.013 38.217 421.579 38.248 421.125 38.248C420.567 38.248 420.029 38.1963 419.513 38.093C418.996 38.0103 418.5 37.876 418.025 37.69C417.57 37.504 417.136 37.2767 416.723 37.008C416.309 36.7393 415.927 36.4293 415.576 36.078C415.245 35.706 414.945 35.303 414.677 34.869C414.408 34.435 414.181 33.9597 413.995 33.443C413.809 32.9263 413.664 32.3787 413.561 31.8C413.457 31.2007 413.406 30.5703 413.406 29.909C413.406 29.2683 413.447 28.6587 413.53 28.08C413.633 27.4807 413.778 26.933 413.964 26.437C414.15 25.9203 414.377 25.445 414.646 25.011C414.914 24.577 415.214 24.1843 415.545 23.833C415.875 23.4817 416.237 23.1717 416.63 22.903C417.043 22.6343 417.467 22.407 417.901 22.221C418.355 22.035 418.82 21.9007 419.296 21.818C419.792 21.7147 420.298 21.663 420.815 21.663C421.352 21.663 421.858 21.7147 422.334 21.818C422.83 21.9007 423.295 22.035 423.729 22.221C424.163 22.407 424.566 22.6447 424.938 22.934C425.33 23.2027 425.682 23.5127 425.992 23.864C426.322 24.2153 426.612 24.608 426.86 25.042C427.108 25.476 427.314 25.9513 427.48 26.468C427.666 26.964 427.8 27.5013 427.883 28.08C427.986 28.6587 428.038 29.2683 428.038 29.909V30.87H417.219C417.363 32.3787 417.787 33.4947 418.49 34.218C419.213 34.9207 420.102 35.272 421.156 35.272C421.9 35.272 422.54 35.0757 423.078 34.683C423.636 34.2903 424.111 33.7323 424.504 33.009ZM420.784 24.608C419.916 24.608 419.161 24.9077 418.521 25.507C417.88 26.0857 417.467 27.0467 417.281 28.39H424.256C424.09 27.0673 423.687 26.1063 423.047 25.507C422.427 24.9077 421.672 24.608 420.784 24.608ZM445.08 38H441.081V28.018C441.081 26.9433 440.802 26.127 440.244 25.569C439.707 25.011 439.025 24.732 438.198 24.732C437.413 24.732 436.741 25.011 436.183 25.569C435.646 26.127 435.377 26.9433 435.377 28.018V38H431.378V21.911H435.377V24.236C435.832 23.4093 436.442 22.779 437.206 22.345C437.992 21.8903 438.86 21.663 439.81 21.663C441.34 21.663 442.6 22.159 443.592 23.151C444.584 24.143 445.08 25.538 445.08 27.336V38ZM459.077 34.59L459.201 37.628C458.788 37.814 458.261 37.9587 457.62 38.062C456.98 38.186 456.349 38.248 455.729 38.248C454.2 38.248 453.012 37.8657 452.164 37.101C451.338 36.3157 450.924 35.2617 450.924 33.939V25.011H447.297V21.911H450.924V17.54H454.892V21.911H459.17V25.011H454.892V33.257C454.892 33.8357 455.058 34.2697 455.388 34.559C455.719 34.8483 456.174 34.993 456.752 34.993C457.083 34.993 457.434 34.962 457.806 34.9C458.199 34.8173 458.623 34.714 459.077 34.59Z" fill="black"/>
</svg>
