<svg width="24" height="24" viewBox="0 0 24 24" fill="none" xmlns="http://www.w3.org/2000/svg">
<path fill-rule="evenodd" clip-rule="evenodd" d="M2 12.7913C2 12.3939 2.29848 12.0717 2.66667 12.0717H21.3333C21.7015 12.0717 22 12.3939 22 12.7913C22 13.1887 21.7015 13.5108 21.3333 13.5108H2.66667C2.29848 13.5108 2 13.1887 2 12.7913Z" fill="currentColor"/>
<path fill-rule="evenodd" clip-rule="evenodd" d="M14.615 3.71956C14.615 3.32216 14.9135 3 15.2817 3H16.3528C18.5538 3 20.3377 4.92521 20.3377 7.30008V8.75167C20.3377 9.14907 20.0392 9.47123 19.671 9.47123C19.3028 9.47123 19.0044 9.14907 19.0044 8.75167V7.30008C19.0044 5.72026 17.8176 4.43912 16.3528 4.43912H15.2817C14.9135 4.43912 14.615 4.11696 14.615 3.71956Z" fill="currentColor"/>
<path fill-rule="evenodd" clip-rule="evenodd" d="M7.6472 4.43912C6.18238 4.43912 4.99564 5.72026 4.99564 7.30008V8.75167C4.99564 9.14907 4.69717 9.47123 4.32898 9.47123C3.96079 9.47123 3.66231 9.14907 3.66231 8.75167V7.30008C3.66231 4.92521 5.44624 3 7.6472 3H8.74587C9.11406 3 9.41253 3.32216 9.41253 3.71956C9.41253 4.11696 9.11406 4.43912 8.74587 4.43912H7.6472Z" fill="currentColor"/>
<path fill-rule="evenodd" clip-rule="evenodd" d="M19.671 12.0708C20.0392 12.0708 20.3377 12.3929 20.3377 12.7903V16.699C20.3377 19.0747 18.5539 21 16.3528 21H15.2817C14.9135 21 14.615 20.6778 14.615 20.2804C14.615 19.883 14.9135 19.5609 15.2817 19.5609H16.3528C17.8175 19.5609 19.0044 18.2799 19.0044 16.699V12.7903C19.0044 12.3929 19.3028 12.0708 19.671 12.0708Z" fill="currentColor"/>
<path fill-rule="evenodd" clip-rule="evenodd" d="M4.32898 12.0708C4.69717 12.0708 4.99564 12.3929 4.99564 12.7903V16.699C4.99564 18.2799 6.1825 19.5609 7.6472 19.5609H8.74587C9.11406 19.5609 9.41253 19.883 9.41253 20.2804C9.41253 20.6778 9.11406 21 8.74587 21H7.6472C5.44612 21 3.66231 19.0747 3.66231 16.699V12.7903C3.66231 12.3929 3.96079 12.0708 4.32898 12.0708Z" fill="currentColor"/>
</svg>
