<svg width="24" height="24" viewBox="0 0 24 24" fill="none" xmlns="http://www.w3.org/2000/svg">
<path fill-rule="evenodd" clip-rule="evenodd" d="M6.06463 7.56962C6.06463 5.75197 7.56661 4.27848 9.4194 4.27848V5.79747C8.42175 5.79747 7.61298 6.59089 7.61298 7.56962V14.1519C7.61298 15.144 8.25928 15.9879 9.16134 16.3007V14.1519C9.16134 12.6139 10.4323 11.3671 12 11.3671C13.5677 11.3671 14.8387 12.6139 14.8387 14.1519V16.3007C15.7407 15.9879 16.387 15.144 16.387 14.1519V7.56962C16.387 6.59089 15.5783 5.79747 14.5806 5.79747V4.27848C16.4334 4.27848 17.9354 5.75197 17.9354 7.56962V14.1519C17.9354 15.9891 16.6055 17.5216 14.8387 17.8734V19.2152C14.8387 20.7532 13.5677 22 12 22C10.4323 22 9.16134 20.7532 9.16134 19.2152V17.8734C7.39448 17.5216 6.06463 15.9891 6.06463 14.1519V7.56962ZM12 12.8861C11.2874 12.8861 10.7097 13.4528 10.7097 14.1519V19.2152C10.7097 19.9143 11.2874 20.481 12 20.481C12.7126 20.481 13.2903 19.9143 13.2903 19.2152V14.1519C13.2903 13.4528 12.7126 12.8861 12 12.8861Z" fill="currentColor"/>
<path fill-rule="evenodd" clip-rule="evenodd" d="M12 6.55696C12.8551 6.55696 13.5484 5.87689 13.5484 5.03797C13.5484 4.19906 12.8551 3.51899 12 3.51899C11.1449 3.51899 10.4516 4.19906 10.4516 5.03797C10.4516 5.87689 11.1449 6.55696 12 6.55696ZM12 8.07595C13.7103 8.07595 15.0967 6.7158 15.0967 5.03797C15.0967 3.36015 13.7103 2 12 2C10.2897 2 8.90328 3.36015 8.90328 5.03797C8.90328 6.7158 10.2897 8.07595 12 8.07595Z" fill="currentColor"/>
<path fill-rule="evenodd" clip-rule="evenodd" d="M4.01518 2.86371C4.09904 2.4524 4.50689 2.18565 4.92616 2.26791L10.0874 3.28057L9.78369 4.77006L4.6225 3.7574C4.20324 3.67514 3.93133 3.27502 4.01518 2.86371ZM19.9848 2.86371C20.0687 3.27502 19.7968 3.67514 19.3775 3.7574L14.2163 4.77006L13.9126 3.28057L19.0738 2.26791C19.4931 2.18565 19.901 2.4524 19.9848 2.86371Z" fill="currentColor"/>
</svg>
