<svg width="24" height="24" viewBox="0 0 24 24" fill="none" xmlns="http://www.w3.org/2000/svg">
<path fill-rule="evenodd" clip-rule="evenodd" d="M22 12.0002C22 12.4144 21.6365 12.7502 21.1882 12.7502H8.1546C7.70625 12.7502 7.34278 12.4144 7.34278 12.0002C7.34278 11.586 7.70625 11.2502 8.1546 11.2502H21.1882C21.6365 11.2502 22 11.586 22 12.0002Z" fill="currentColor"/>
<path fill-rule="evenodd" clip-rule="evenodd" d="M11.8989 15.4454C11.5825 15.7389 11.0685 15.7399 10.7508 15.4476L7.58141 12.5316C7.42844 12.3909 7.34278 12.1996 7.34278 12.0002C7.34278 11.8008 7.42844 11.6095 7.58141 11.4688L10.7508 8.55278C11.0685 8.26049 11.5825 8.26147 11.8989 8.55496C12.2153 8.84845 12.2142 9.32333 11.8965 9.61562L9.30474 12.0002L11.8965 14.3848C12.2142 14.6771 12.2153 15.1519 11.8989 15.4454Z" fill="currentColor"/>
<path fill-rule="evenodd" clip-rule="evenodd" d="M12.0764 20.5C13.832 20.5 15.2533 19.1867 15.2533 17.566V16.633C15.2533 16.2188 15.6168 15.883 16.0651 15.883C16.5135 15.883 16.877 16.2188 16.877 16.633V17.566C16.877 20.0153 14.7284 22 12.0764 22H6.78976C4.14407 22 2 20.0192 2 17.575V6.435C2 3.98579 4.14948 2 6.80059 2H12.0883C14.7332 2 16.877 3.98205 16.877 6.425V7.367C16.877 7.78121 16.5135 8.117 16.0651 8.117C15.6168 8.117 15.2533 7.78121 15.2533 7.367V6.425C15.2533 4.80995 13.8359 3.5 12.0883 3.5H6.80059C5.0462 3.5 3.62365 4.81421 3.62365 6.435V17.575C3.62365 19.1908 5.04078 20.5 6.78976 20.5H12.0764Z" fill="currentColor"/>
</svg>
