<svg width="20" height="20" viewBox="0 0 20 20" fill="none" xmlns="http://www.w3.org/2000/svg">
<path d="M19.4274 0.578299C18.9274 0.0672987 18.1874 -0.121701 17.4974 0.0782986L1.40742 4.7273C0.67942 4.9293 0.16342 5.5063 0.0244202 6.2383C-0.11758 6.9843 0.37842 7.9323 1.02642 8.3283L6.05742 11.4003C6.57342 11.7163 7.23942 11.6373 7.66642 11.2093L13.4274 5.4483C13.7174 5.1473 14.1974 5.1473 14.4874 5.4483C14.7774 5.7373 14.7774 6.2083 14.4874 6.5083L8.71642 12.2693C8.28842 12.6973 8.20842 13.3613 8.52342 13.8783L11.5974 18.9283C11.9574 19.5273 12.5774 19.8683 13.2574 19.8683C13.3374 19.8683 13.4274 19.8683 13.5074 19.8573C14.2874 19.7583 14.9074 19.2273 15.1374 18.4773L19.9074 2.5083C20.1174 1.8283 19.9274 1.0883 19.4274 0.578299Z" fill="url(#paint0_linear)"/>
<defs>
<linearGradient id="paint0_linear" x1="7.33742" y1="-1.52833" x2="15.4898" y2="24.2996" gradientUnits="userSpaceOnUse">
<stop stop-color="#FF3366"/>
<stop offset="1" stop-color="#FE5196"/>
</linearGradient>
</defs>
</svg>
