<svg width="24" height="24" viewBox="0 0 24 24" fill="none" xmlns="http://www.w3.org/2000/svg">
<path d="M21.4354 2.58213C20.9352 2.06774 20.1949 1.87749 19.5046 2.07882L3.408 6.75863C2.6797 6.96197 2.16349 7.5428 2.02443 8.27965C1.88237 9.03059 2.37858 9.98488 3.02684 10.3835L8.0599 13.4759C8.57611 13.794 9.24239 13.7144 9.66956 13.2836L15.4329 7.48441C15.723 7.18142 16.2032 7.18142 16.4934 7.48441C16.7835 7.77533 16.7835 8.24945 16.4934 8.55144L10.72 14.3506C10.2918 14.7815 10.2118 15.4499 10.5269 15.9703L13.6022 21.0538C13.9623 21.6567 14.5826 22 15.2629 22C15.3429 22 15.4329 22 15.513 21.9889C16.2933 21.8893 16.9135 21.3547 17.1436 20.5998L21.9156 4.52493C22.1257 3.84042 21.9356 3.09551 21.4354 2.58213Z" fill="currentColor"/>
</svg>
