<?xml version="1.0" encoding="UTF-8"?>
<svg width="60px" height="60px" viewBox="0 0 60 60" version="1.1" xmlns="http://www.w3.org/2000/svg" xmlns:xlink="http://www.w3.org/1999/xlink">
    <!-- Generator: sketchtool 50.2 (55047) - http://www.bohemiancoding.com/sketch -->
    <title>A70FAC95-47C7-407B-82F3-DEE88BF2D996</title>
    <desc>Created with sketchtool.</desc>
    <defs>
        <linearGradient x1="100%" y1="0%" x2="0%" y2="93.0500411%" id="linearGradient-1">
            <stop stop-color="#684150" offset="0%"></stop>
            <stop stop-color="#FF3366" offset="100%"></stop>
        </linearGradient>
    </defs>
    <g id="Profile-and-help" stroke="none" stroke-width="1" fill="none" fill-rule="evenodd">
        <g id="Profile---Guide" transform="translate(-156.000000, -839.000000)" fill="url(#linearGradient-1)" fill-rule="nonzero">
            <g id="Group-3" transform="translate(44.000000, 839.000000)">
                <g id="settings" transform="translate(112.000000, 0.000000)">
                    <path d="M59,16 L56.95,16 C56.729,12.892 55.495,10.066 53.569,7.846 L54.708,6.707 C55.099,6.316 55.099,5.684 54.708,5.293 C54.317,4.902 53.685,4.902 53.294,5.293 L52.155,6.432 C49.935,4.506 47.108,3.272 44.001,3.051 L44.001,1 C44.001,0.447 43.553,0 43.001,0 C42.449,0 42.001,0.447 42.001,1 L42.001,3.051 C38.893,3.272 36.067,4.506 33.847,6.432 L32.708,5.293 C32.317,4.902 31.685,4.902 31.294,5.293 C30.903,5.684 30.903,6.316 31.294,6.707 L32.433,7.846 C30.507,10.066 29.273,12.893 29.052,16 L27,16 C26.448,16 26,16.447 26,17 C26,17.553 26.448,18 27,18 L29.051,18 C29.272,21.108 30.506,23.934 32.432,26.154 L31.293,27.293 C31.181,27.405 31.11,27.539 31.063,27.679 C29.903,26.627 28.611,25.723 27.207,24.999 L27.915,23.406 C28.139,22.901 27.912,22.31 27.407,22.086 C26.901,21.863 26.312,22.09 26.087,22.594 L25.378,24.189 C23.392,23.433 21.248,23 19,23 C17.052,23 15.18,23.321 13.421,23.896 L12.932,22.638 C12.732,22.123 12.151,21.867 11.638,22.069 C11.123,22.268 10.868,22.848 11.068,23.363 L11.56,24.63 C7.87,26.314 4.85,29.201 2.999,32.795 L1.406,32.087 C0.901,31.864 0.311,32.091 0.086,32.595 C-0.138,33.1 0.089,33.691 0.594,33.915 L2.189,34.623 C1.433,36.609 1,38.753 1,41 C1,42.948 1.321,44.821 1.896,46.579 L0.638,47.068 C0.123,47.268 -0.132,47.847 0.068,48.362 C0.222,48.758 0.6,49 1.001,49 C1.121,49 1.244,48.979 1.363,48.932 L2.63,48.44 C4.314,52.13 7.201,55.151 10.795,57.002 L10.087,58.595 C9.863,59.1 10.09,59.691 10.595,59.915 C10.726,59.973 10.864,60 11,60 C11.383,60 11.749,59.778 11.915,59.406 L12.624,57.811 C14.609,58.568 16.753,59 19,59 C20.948,59 22.82,58.679 24.579,58.104 L25.068,59.362 C25.222,59.758 25.6,60 26,60 C26.121,60 26.243,59.979 26.362,59.932 C26.877,59.733 27.132,59.153 26.932,58.638 L26.44,57.371 C30.13,55.687 33.15,52.8 35.001,49.206 L36.594,49.914 C36.726,49.973 36.864,50 37,50 C37.383,50 37.749,49.778 37.915,49.406 C38.139,48.901 37.912,48.31 37.407,48.086 L35.812,47.378 C36.568,45.392 37,43.248 37,41 C37,39.052 36.679,37.179 36.104,35.421 L37.362,34.932 C37.877,34.732 38.132,34.153 37.932,33.638 C37.733,33.123 37.157,32.866 36.638,33.069 L35.371,33.561 C34.595,31.86 33.562,30.306 32.321,28.938 C32.461,28.89 32.595,28.819 32.707,28.708 L33.846,27.569 C36.066,29.495 38.893,30.729 42,30.95 L42,33 C42,33.553 42.448,34 43,34 C43.552,34 44,33.553 44,33 L44,30.949 C47.108,30.728 49.934,29.494 52.154,27.568 L53.352,28.766 C53.547,28.961 53.803,29.059 54.059,29.059 C54.315,29.059 54.571,28.961 54.766,28.766 C55.157,28.375 55.157,27.743 54.766,27.352 L53.568,26.154 C55.494,23.934 56.728,21.107 56.949,18 L59,18 C59.552,18 60,17.553 60,17 C60,16.447 59.553,16 59,16 Z M19,25 C20.959,25 22.828,25.371 24.565,26.018 L19.655,37.066 C19.441,37.031 19.224,37 19,37 C16.794,37 15,38.794 15,41 C15,41.159 15.029,41.31 15.047,41.465 L3.758,45.855 C3.269,44.323 3,42.693 3,41 C3,32.178 10.178,25 19,25 Z M17.144,41.732 C17.143,41.729 17.144,41.726 17.142,41.723 C17.141,41.722 17.14,41.721 17.139,41.719 C17.053,41.495 17,41.254 17,41 C17,39.897 17.897,39 19,39 C19.279,39 19.544,39.058 19.786,39.162 C19.795,39.166 19.801,39.175 19.81,39.179 C19.814,39.181 19.818,39.18 19.822,39.181 C20.515,39.496 21,40.191 21,41 C21,42.103 20.103,43 19,43 C18.156,43 17.437,42.473 17.144,41.732 Z M4.497,47.713 L15.764,43.331 C16.491,44.338 17.667,45 19,45 C19.159,45 19.31,44.971 19.465,44.953 L23.855,56.242 C22.323,56.731 20.693,57 19,57 C12.577,57 7.041,53.187 4.497,47.713 Z M25.714,55.504 L21.332,44.237 C22.338,43.509 23,42.334 23,41 C23,39.735 22.398,38.619 21.479,37.885 L26.395,26.825 C31.502,29.501 35,34.846 35,41 C35,47.423 31.188,52.959 25.714,55.504 Z M43,29 C36.383,29 31,23.617 31,17 C31,10.383 36.384,5 43,5 C49.616,5 55,10.383 55,17 C55,23.617 49.617,29 43,29 Z M43,13 C40.794,13 39,14.794 39,17 C39,19.206 40.794,21 43,21 C45.206,21 47,19.206 47,17 C47,14.794 45.206,13 43,13 Z M43,19 C41.897,19 41,18.103 41,17 C41,15.897 41.897,15 43,15 C44.103,15 45,15.897 45,17 C45,18.103 44.103,19 43,19 Z" id="Shape"></path>
                </g>
            </g>
        </g>
    </g>
</svg>