<svg width="24" height="24" viewBox="0 0 24 24" fill="none" xmlns="http://www.w3.org/2000/svg">
<path fill-rule="evenodd" clip-rule="evenodd" d="M18.5 7.5C19.6046 7.5 20.5 6.60457 20.5 5.5C20.5 4.39543 19.6046 3.5 18.5 3.5C17.3954 3.5 16.5 4.39543 16.5 5.5C16.5 6.60457 17.3954 7.5 18.5 7.5ZM18.5 9C20.433 9 22 7.433 22 5.5C22 3.567 20.433 2 18.5 2C16.567 2 15 3.567 15 5.5C15 7.433 16.567 9 18.5 9Z" fill="currentColor"/>
<path fill-rule="evenodd" clip-rule="evenodd" d="M5.5 14.5C6.60457 14.5 7.5 13.6046 7.5 12.5C7.5 11.3954 6.60457 10.5 5.5 10.5C4.39543 10.5 3.5 11.3954 3.5 12.5C3.5 13.6046 4.39543 14.5 5.5 14.5ZM5.5 16C7.433 16 9 14.433 9 12.5C9 10.567 7.433 9 5.5 9C3.567 9 2 10.567 2 12.5C2 14.433 3.567 16 5.5 16Z" fill="currentColor"/>
<path fill-rule="evenodd" clip-rule="evenodd" d="M16.8193 7.67861L8.31935 11.6786L7.68065 10.3214L16.1807 6.32139L16.8193 7.67861ZM15.6323 18.6537L7.6323 14.1537L8.3677 12.8463L16.3677 17.3463L15.6323 18.6537Z" fill="currentColor"/>
<path fill-rule="evenodd" clip-rule="evenodd" d="M18.5 20.5C19.6046 20.5 20.5 19.6046 20.5 18.5C20.5 17.3954 19.6046 16.5 18.5 16.5C17.3954 16.5 16.5 17.3954 16.5 18.5C16.5 19.6046 17.3954 20.5 18.5 20.5ZM18.5 22C20.433 22 22 20.433 22 18.5C22 16.567 20.433 15 18.5 15C16.567 15 15 16.567 15 18.5C15 20.433 16.567 22 18.5 22Z" fill="currentColor"/>
</svg>
