<svg viewBox="0 0 52 52" fill="none" xmlns="http://www.w3.org/2000/svg">
<rect width="52" height="52" rx="8" fill="black" fill-opacity="0.3"/>
<path fill-rule="evenodd" clip-rule="evenodd" d="M21.665 17.5C19.135 17.5 17.5 19.233 17.5 21.916V30.084C17.5 32.767 19.135 34.5 21.665 34.5H30.333C32.864 34.5 34.5 32.767 34.5 30.084V21.916C34.5 19.233 32.864 17.5 30.334 17.5H21.665ZM30.333 36H21.665C18.276 36 16 33.622 16 30.084V21.916C16 18.378 18.276 16 21.665 16H30.334C33.723 16 36 18.378 36 21.916V30.084C36 33.622 33.723 36 30.333 36Z" fill="white"/>
</svg>
