<svg xmlns="http://www.w3.org/2000/svg" viewBox="0 0 258 258">
  <g>
    <circle cx="129" cy="129" r="129"/>
    <circle cx="129" cy="128.5" r="119.5" fill="#FFF"/>
    <g transform="translate(61 53)">
      <path d="M5.9 151.8C3.6 150.8 1.5 149.5.7 146.9-.7 142.4 2.5 138.2 7.5 138.1 12.1 138 16.7 138.1 21.8 138.1 21.3 137.3 21 136.9 20.7 136.6 10 125.9 5 113 4.9 98 4.9 91.3 4.9 84.6 4.9 77.9 4.9 71.7 7.5 69.1 13.8 69.1 46.3 69.1 78.7 69.1 111.2 69.1 124.4 69.1 133.9 76.1 137.3 88.1 141.4 102.3 130.7 118 116 119.4 115.3 119.5 114.6 119.7 113.9 119.6 107.8 118.4 104.9 121.7 102.4 126.7 100.4 130.7 97 134.1 93.9 138.1 98.7 138.1 103.3 138 108 138.1 113 138.3 116.1 142.4 114.7 147 113.9 149.6 111.8 150.9 109.5 151.8 75 151.8 40.4 151.8 5.9 151.8zM110.6 105.7C115.3 106.2 119.5 105 122.3 100.8 125 96.8 125.2 92.4 122.6 88.3 119.9 84.1 115.9 82.5 110.6 83.1 110.6 90.6 110.6 97.9 110.6 105.7zM43.2.2C49.6 3.5 50.3 8 45.2 13.3 40.4 18.4 40.5 23.3 45.2 28.4 47.5 30.9 49.8 33.3 51.7 36 54.6 40.1 56 44.9 55 50 54.4 53.2 51.5 55.3 48.4 55.2 45.4 55.1 42.2 53 42.1 50 41.8 44.6 38.5 41.1 35 37.5 28 30.2 25.9 21.7 29.6 12.2 31.6 7 35 2.7 40.2.1 41.2.2 42.2.2 43.2.2zM75.2.2C81.6 3.3 82.5 7.9 77.5 13.2 72.5 18.5 72.5 23.2 77.5 28.5 82 33.1 86.4 37.8 87.3 44.6 87.5 46.4 87.6 48.4 87.2 50.1 86.6 53.2 83.8 55.2 80.8 55.2 77.7 55.2 74.4 53 74.2 49.9 73.9 44.6 70.8 41.3 67.5 37.9 57.1 27.1 57.6 12.7 68.6 2.6 69.7 1.6 71 1 72.2.1 73.2.2 74.2.2 75.2.2z"/>
    </g>
  </g>
</svg>
