<svg xmlns="http://www.w3.org/2000/svg" viewBox="0 0 258 258">
  <g>
    <circle cx="129" cy="129" r="129"/>
    <circle cx="129.5" cy="129.5" r="119.5" fill="#FFF"/>
    <path stroke="#000" stroke-width=".775" d="M49.6,121.3 C50.8,116.1 52.3,111 55.7,106.7 C61.6,99.3 69.4,95.7 78.8,95.4 C79.5,95.4 80.2,95.4 81.1,95.4 C81.3,94.5 81.6,93.8 81.7,93 C84.3,72.2 99.1,56.9 119.9,53.6 C140,50.4 160.7,62.4 167.9,81.6 C168.9,84.4 170.2,85 173,84.9 C191,84.2 206.6,98.3 208.1,116.3 C209.6,134.2 196.8,150.3 179.2,153 C177.6,153.2 175.9,153.4 173.8,153.7 C173.8,155.5 173.8,157.3 173.8,159.1 C173.8,163.5 173.3,164 168.8,164 C168,164 167.2,164 166.1,164 C166.1,165.8 166.1,167.3 166.1,169.3 C167.3,169.3 168.4,169.3 169.5,169.3 C173.1,169.4 173.7,170 173.8,173.4 C173.9,179.5 173.8,185.6 173.8,191.7 C173.8,194.6 172.6,195.7 169.7,195.7 C142.4,195.6 115.2,195.6 87.9,195.7 C84.9,195.7 83.8,194.5 83.8,191.6 C83.9,185.8 83.8,180 83.8,174.2 C83.8,169.7 84.2,169.3 88.7,169.2 C89.6,169.2 90.5,169.1 91.5,169 C91.5,167.3 91.5,165.8 91.5,164.3 C89.1,163 85.2,165.6 84.1,162 C83.3,159.4 83.7,156.5 83.6,154 C78.8,153.2 74,153.1 69.5,151.7 C58.4,148.2 51.9,140.3 49.9,128.8 C49.8,128.3 49.6,127.8 49.4,127.4 C49.6,125.4 49.6,123.3 49.6,121.3 Z M173.9,147.8 C192.7,148.3 207.2,129.1 201.9,111.5 C197.5,96.8 185.5,88.8 169.8,90.4 C166.6,90.7 165.2,89.9 164.2,86.8 C158.5,69.7 146.7,60.1 128.6,58.5 C107.6,56.5 87.6,74.1 86.8,95.2 C86.6,101.1 86.5,101.1 80.7,100.8 C66.8,99.9 55.7,109.6 55,123.5 C54.3,138.6 67.9,150.7 83.9,147.7 C83.9,146.3 83.9,144.9 83.9,143.5 C83.9,138 84.2,137.7 89.6,137.7 C93.8,137.7 98,137.7 102.1,137.7 C102.1,132.2 102.1,127.2 102.1,121.9 C99.2,121.9 96.6,122 93.9,121.9 C92.2,121.8 91.2,122.3 90.1,123.8 C87.4,127.7 82.4,128.2 78.7,125.1 C75.3,122.3 75,117.3 78.1,113.8 C80.9,110.6 86.4,110.1 89.1,113.6 C91.5,116.8 94.1,116.4 97.1,116.5 C98.9,116.5 100.6,116.5 102.4,116.5 C107.2,116.5 107.7,117 107.7,121.8 C107.7,127 107.7,132.3 107.7,137.4 C112.3,137.4 116.5,137.4 120.8,137.4 C120.8,136 120.8,134.9 120.8,133.8 C120.8,118.3 120.8,102.8 120.8,87.3 C120.8,82.6 121.2,82.3 126,82.2 C128.8,82.2 131.6,82.1 134.4,82.2 C136.2,82.3 137.4,81.8 138.4,80.2 C140.1,77.6 142.7,76.4 145.9,77 C149.9,77.8 152.3,80.5 152.5,84.1 C152.7,87.7 150.6,90.9 147.4,92.1 C144.1,93.3 140.5,92.1 138.1,89.1 C137.6,88.4 136.8,87.5 136.2,87.4 C133,87.2 129.7,87.3 126.4,87.3 C126.4,104.3 126.4,120.7 126.4,137.3 C130.8,137.3 134.9,137.3 139.4,137.3 C139.4,129.2 139.4,121.3 139.4,113.3 C139.4,109.1 140,108.4 144.2,108.4 C151.6,108.4 159.1,108.5 166.5,108.3 C167.7,108.3 169.2,107.5 169.9,106.5 C173,102.7 177.9,102 181.6,105.2 C185,108 185.2,113 182.1,116.5 C179.2,119.7 173.6,120 170.9,116.3 C168.9,113.6 166.7,113.7 164,113.7 C158.8,113.7 153.7,113.7 148.5,113.7 C147.3,113.7 146.1,113.7 144.9,113.7 C144.9,121.8 144.9,129.5 144.9,137.4 C146.3,137.4 147.4,137.4 148.5,137.4 C155.2,137.4 161.9,137.4 168.6,137.4 C173.2,137.4 173.7,137.9 173.7,142.6 C173.9,144.4 173.9,146 173.9,147.8 Z M89.5,174.7 C89.5,180 89.5,185.1 89.5,190.3 C115.9,190.3 142.1,190.3 168.4,190.3 C168.4,185 168.4,179.9 168.4,174.7 C142.1,174.7 115.9,174.7 89.5,174.7 Z M89.4,158.5 C115.9,158.5 142.1,158.5 168.4,158.5 C168.4,153.3 168.4,148.3 168.4,143.1 C142,143.1 115.8,143.1 89.4,143.1 C89.4,148.2 89.4,153.2 89.4,158.5 Z M97.4,169.1 C118.6,169.1 139.5,169.1 160.4,169.1 C160.4,167.3 160.4,165.7 160.4,164.2 C139.3,164.2 118.4,164.2 97.4,164.2 C97.4,165.9 97.4,167.4 97.4,169.1 Z M144.9,81.1 C143.7,82.8 142.4,83.7 142.4,84.6 C142.5,85.5 143.8,86.4 144.6,87.3 C145.5,86.5 147,85.7 147.2,84.7 C147.4,83.9 146.1,82.8 144.9,81.1 Z M83.9,115.5 C82.8,117.1 81.4,118.3 81.5,119 C81.7,120 83.2,120.8 84.2,121.6 C85,120.7 86.4,119.8 86.4,118.9 C86.4,118 85.1,117.1 83.9,115.5 Z M180.2,111.3 C178.5,110 177.5,108.7 176.6,108.8 C175.7,108.9 174.1,110.2 174.1,111.1 C174.1,112 175.4,113.5 176.4,113.6 C177.3,113.7 178.4,112.5 180.2,111.3 Z"/>
  </g>
</svg>
