<svg width="12" height="12" viewBox="0 0 12 12" fill="none" xmlns="http://www.w3.org/2000/svg">
<path d="M5.26308 1.13601C5.3346 0.954663 5.59125 0.954663 5.66277 1.13601L6.79585 4.00897C6.81769 4.06434 6.86152 4.10817 6.91688 4.13L9.78985 5.26308C9.97119 5.3346 9.97119 5.59125 9.78985 5.66278L6.91688 6.79586C6.86152 6.81769 6.81769 6.86152 6.79585 6.91689L5.66277 9.78985C5.59125 9.9712 5.3346 9.9712 5.26308 9.78985L4.13 6.91689C4.10816 6.86152 4.06434 6.81769 4.00897 6.79586L1.13601 5.66278C0.95466 5.59125 0.95466 5.3346 1.13601 5.26308L4.00897 4.13C4.06434 4.10817 4.10816 4.06434 4.13 4.00897L5.26308 1.13601Z" fill="#007e45"/>
<path d="M9.02258 7.58086C9.0941 7.39952 9.35075 7.39952 9.42227 7.58086L9.79582 8.528C9.81765 8.58337 9.86148 8.6272 9.91685 8.64903L10.864 9.02258C11.0453 9.0941 11.0453 9.35075 10.864 9.42227L9.91685 9.79582C9.86148 9.81766 9.81765 9.86148 9.79582 9.91685L9.42227 10.864C9.35075 11.0453 9.0941 11.0453 9.02258 10.864L8.64903 9.91685C8.62719 9.86148 8.58337 9.81766 8.528 9.79582L7.58086 9.42227C7.39951 9.35075 7.39951 9.0941 7.58086 9.02258L8.528 8.64903C8.58337 8.6272 8.62719 8.58337 8.64903 8.528L9.02258 7.58086Z" fill="#007e45"/>
</svg>
