<svg width="21" height="21" viewBox="0 0 21 21" fill="none" xmlns="http://www.w3.org/2000/svg">
<path fill-rule="evenodd" clip-rule="evenodd" d="M9.13279 0.263981L9.07779 0C8.3084 4.61632 4.71264 8.24632 0.10382 9.05942L6.77085e-05 9.07772L0.6335 9.22681C4.97879 10.2496 8.29874 13.7599 9.07779 18.1554C9.85684 13.7599 13.1768 10.2496 17.5221 9.22681L18.1555 9.07772C13.6364 8.24621 10.07 4.76239 9.13279 0.263981ZM16.0733 12.324L16.0466 12.196C15.6735 14.4346 13.9298 16.1948 11.6949 16.5891L11.6446 16.598L11.9518 16.6703C14.0589 17.1662 15.6688 18.8685 16.0466 21C16.4244 18.8685 18.0343 17.1662 20.1415 16.6703L20.4486 16.598C18.2572 16.1948 16.5277 14.5054 16.0733 12.324Z" fill="url(#paint0_linear_5177_12624)"/>
<defs>
<linearGradient id="paint0_linear_5177_12624" x1="7.50505" y1="-1.61538" x2="15.8408" y2="22.587" gradientUnits="userSpaceOnUse">
<stop stop-color="#FF3366"/>
<stop offset="1" stop-color="#FE5196"/>
</linearGradient>
</defs>
</svg>
