<svg width="16" height="17" viewBox="0 0 16 17" fill="none" xmlns="http://www.w3.org/2000/svg">
<path fill-rule="evenodd" clip-rule="evenodd" d="M14.1605 1.83337C14.4402 1.83337 14.667 2.06297 14.667 2.34619V4.39748C14.667 4.6807 14.4402 4.9103 14.1605 4.9103C13.8808 4.9103 13.654 4.6807 13.654 4.39748V3.58425L8.79887 8.50004L13.654 13.4158V12.6026C13.654 12.3194 13.8808 12.0898 14.1605 12.0898C14.4402 12.0898 14.667 12.3194 14.667 12.6026V14.6539C14.667 14.9371 14.4402 15.1667 14.1605 15.1667H12.1345C11.8548 15.1667 11.628 14.9371 11.628 14.6539C11.628 14.3707 11.8548 14.1411 12.1345 14.1411H12.9377L7.87278 9.01286H1.84015C1.56042 9.01286 1.33366 8.78326 1.33366 8.50004C1.33366 8.21682 1.56042 7.98722 1.84015 7.98722L7.87278 7.98722L12.9377 2.85902H12.1345C11.8548 2.85902 11.628 2.62942 11.628 2.34619C11.628 2.06297 11.8548 1.83337 12.1345 1.83337L14.1605 1.83337Z" fill="#FF3366"/>
</svg>
