<svg width="24" height="24" viewBox="0 0 24 24" fill="none" xmlns="http://www.w3.org/2000/svg">
<path fill-rule="evenodd" clip-rule="evenodd" d="M19.3922 4C19.7279 4 20 4.27552 20 4.61538V7.07692C20 7.41679 19.7279 7.69231 19.3922 7.69231C19.0565 7.69231 18.7844 7.41679 18.7844 7.07692V6.10105L12.9583 12L18.7844 17.8989V16.9231C18.7844 16.5832 19.0565 16.3077 19.3922 16.3077C19.7279 16.3077 20 16.5832 20 16.9231V19.3846C20 19.7245 19.7279 20 19.3922 20H16.961C16.6254 20 16.3532 19.7245 16.3532 19.3846C16.3532 19.0447 16.6254 18.7692 16.961 18.7692H17.9249L11.8469 12.6154L4.60779 12.6154C4.27212 12.6154 4 12.3399 4 12C4 11.6601 4.27212 11.3846 4.60779 11.3846H11.8469L17.9249 5.23077H16.961C16.6254 5.23077 16.3532 4.95525 16.3532 4.61538C16.3532 4.27552 16.6254 4 16.961 4H19.3922Z" fill="currentColor"/>
</svg>
