<svg width="20" height="20" viewBox="0 0 20 20" fill="none" xmlns="http://www.w3.org/2000/svg">
<path fill-rule="evenodd" clip-rule="evenodd" d="M1.66663 2.29962C1.66663 1.94996 1.95362 1.6665 2.30765 1.6665H4.87175C5.22578 1.6665 5.51278 1.94996 5.51278 2.29962C5.51278 2.64928 5.22578 2.93274 4.87175 2.93274H3.85522L9.99996 9.00166L16.1447 2.93274H15.1282C14.7741 2.93274 14.4871 2.64928 14.4871 2.29962C14.4871 1.94996 14.7741 1.6665 15.1282 1.6665H17.6923C18.0463 1.6665 18.3333 1.94996 18.3333 2.29962V4.83209C18.3333 5.18175 18.0463 5.4652 17.6923 5.4652C17.3382 5.4652 17.0512 5.18175 17.0512 4.83209V3.8281L10.641 10.1593V17.7001C10.641 18.0497 10.354 18.3332 9.99996 18.3332C9.64593 18.3332 9.35893 18.0497 9.35893 17.7001V10.1593L2.94868 3.8281V4.83209C2.94868 5.18175 2.66168 5.4652 2.30765 5.4652C1.95362 5.4652 1.66663 5.18175 1.66663 4.83209V2.29962Z" fill="#FF3366"/>
</svg>
