<svg width="24" height="24" viewBox="0 0 24 24" fill="none" xmlns="http://www.w3.org/2000/svg">
<path d="M10.5262 2.27202C10.6692 1.90933 11.1825 1.90933 11.3256 2.27202L13.5917 8.01795C13.6354 8.12868 13.723 8.21633 13.8338 8.26L19.5797 10.5262C19.9424 10.6692 19.9424 11.1825 19.5797 11.3256L13.8338 13.5917C13.723 13.6354 13.6354 13.723 13.5917 13.8338L11.3256 19.5797C11.1825 19.9424 10.6692 19.9424 10.5262 19.5797L8.26 13.8338C8.21633 13.723 8.12868 13.6354 8.01795 13.5917L2.27202 11.3256C1.90933 11.1825 1.90933 10.6692 2.27202 10.5262L8.01795 8.26C8.12868 8.21633 8.21633 8.12868 8.26 8.01795L10.5262 2.27202Z" fill="currentColor"/>
<path d="M18.0452 15.1617C18.1882 14.799 18.7015 14.799 18.8445 15.1617L19.5916 17.056C19.6353 17.1667 19.723 17.2544 19.8337 17.2981L21.728 18.0452C22.0907 18.1882 22.0907 18.7015 21.728 18.8445L19.8337 19.5916C19.723 19.6353 19.6353 19.723 19.5916 19.8337L18.8445 21.728C18.7015 22.0907 18.1882 22.0907 18.0452 21.728L17.2981 19.8337C17.2544 19.723 17.1667 19.6353 17.056 19.5916L15.1617 18.8445C14.799 18.7015 14.799 18.1882 15.1617 18.0452L17.056 17.2981C17.1667 17.2544 17.2544 17.1667 17.2981 17.056L18.0452 15.1617Z" fill="currentColor"/>
</svg>