<svg width="16" height="15" viewBox="0 0 16 15" fill="none" xmlns="http://www.w3.org/2000/svg">
<path d="M7.99447 0C8.63402 0 9.27358 0.375 9.59336 0.975L15.7491 12.3C16.0689 12.825 16.0689 13.5 15.829 14.1C15.4293 14.625 14.8697 15 14.2302 15H1.83873C1.19917 15 0.559613 14.625 0.239834 14.1C-0.0799447 13.575 -0.0799447 12.9 0.239834 12.3L6.39557 0.975C6.71535 0.375 7.35491 0 7.99447 0ZM8 10.5C7.52 10.5 7.2 10.8 7.2 11.25C7.2 11.7 7.52 12 8 12C8.48 12 8.8 11.7 8.8 11.25C8.8 10.8 8.48 10.5 8 10.5ZM8 3C7.55429 3 7.24653 3.20694 7.20484 3.52474L7.2 3.6V8.4C7.2 8.76 7.52 9 8 9C8.44571 9 8.75347 8.79306 8.79516 8.47526L8.8 8.4V3.6C8.8 3.24 8.48 3 8 3Z" fill="#EF6700"/>
</svg>
