<svg width="16" height="17" viewBox="0 0 16 17" fill="none" xmlns="http://www.w3.org/2000/svg">
<path d="M5.4375 14.2188L0.21875 9.03125C0.0625 8.90625 0 8.71875 0 8.46875C0 8.25 0.0625 8.0625 0.21875 7.90625L1.375 6.78125C1.5 6.625 1.6875 6.53125 1.90625 6.53125C2.125 6.53125 2.3125 6.625 2.5 6.78125L6 10.2812L13.5 2.78125C13.6562 2.625 13.8438 2.53125 14.0625 2.53125C14.2812 2.53125 14.4688 2.625 14.625 2.78125L15.7812 3.90625C15.9062 4.0625 16 4.25 16 4.46875C16 4.71875 15.9062 4.90625 15.7812 5.03125L6.5625 14.2188C6.40625 14.4062 6.21875 14.4688 6 14.4688C5.75 14.4688 5.5625 14.4062 5.4375 14.2188Z" fill="white"/>
</svg>
