<svg width="24" height="24" viewBox="0 0 24 24" fill="none" xmlns="http://www.w3.org/2000/svg">
<path d="M8.20384 8.13411H16.9159L14.7023 10.3597C14.3974 10.6659 14.3974 11.1627 14.7023 11.4694C14.8547 11.6227 15.0542 11.6994 15.254 11.6994C15.4539 11.6994 15.6534 11.6227 15.8058 11.4694L19.3518 7.90468C19.3878 7.86844 19.4202 7.82849 19.4488 7.78597C19.4559 7.77484 19.461 7.76228 19.4676 7.75087C19.4869 7.71862 19.5059 7.68609 19.5206 7.65128C19.5275 7.63473 19.5306 7.61703 19.5365 7.6002C19.547 7.56881 19.5587 7.5377 19.5655 7.5046C19.5757 7.45381 19.5811 7.40216 19.5811 7.34936C19.5811 7.29657 19.5757 7.24492 19.5655 7.19413C19.559 7.16102 19.5473 7.12992 19.5365 7.09853C19.5306 7.08169 19.5277 7.064 19.5206 7.04745C19.5059 7.01264 19.4872 6.98039 19.4676 6.94786C19.461 6.93644 19.4559 6.92389 19.4488 6.91276C19.4202 6.87024 19.3878 6.83029 19.3518 6.79405L15.8067 3.22986C15.5018 2.92338 15.0079 2.92338 14.7028 3.22986C14.398 3.53605 14.398 4.03287 14.7028 4.33964L16.9159 6.5649H8.20384C5.33455 6.5649 3 8.91201 3 11.7968C3 12.2302 3.3494 12.5815 3.78055 12.5815C4.21169 12.5815 4.5611 12.2302 4.5611 11.7968C4.5611 9.77695 6.19514 8.13411 8.20384 8.13411ZM20.2197 11.4181C19.7886 11.4181 19.4392 11.7694 19.4392 12.2028C19.4392 14.2223 17.8051 15.8652 15.7964 15.8652H7.08439L9.29803 13.6396C9.60287 13.3334 9.60287 12.8366 9.29803 12.5298C8.99319 12.2231 8.49931 12.2234 8.19419 12.5298L4.64823 16.0949C4.61219 16.1311 4.57983 16.1711 4.55116 16.2136C4.54435 16.2244 4.53952 16.2364 4.53328 16.2473C4.5137 16.2798 4.49411 16.3126 4.47963 16.3483C4.47311 16.3646 4.46998 16.382 4.46402 16.3985C4.45352 16.4302 4.4416 16.4616 4.43479 16.495C4.42457 16.5458 4.41918 16.5974 4.41918 16.6502C4.41918 16.703 4.42457 16.7547 4.43479 16.8054C4.44132 16.8388 4.45324 16.8702 4.46402 16.9019C4.46998 16.9184 4.47282 16.9359 4.47963 16.9521C4.49439 16.9875 4.5137 17.0203 4.53328 17.0531C4.53952 17.064 4.54435 17.076 4.55116 17.0868C4.57983 17.1293 4.61219 17.1693 4.64823 17.2055L8.19362 20.77C8.34604 20.9232 8.54558 21 8.7454 21C8.94522 21 9.14476 20.9232 9.29718 20.77C9.60202 20.4638 9.60202 19.967 9.29718 19.6602L7.08411 17.435H15.7962C18.6655 17.435 21 15.0878 21 12.2031C21.0003 11.7694 20.6509 11.4181 20.2197 11.4181Z" fill="currentColor"/>
</svg>
