<svg viewBox="0 0 22 22" fill="none" xmlns="http://www.w3.org/2000/svg">
<path d="M7.52019 7.45627H15.5062L13.4771 9.49636C13.1976 9.77703 13.1976 10.2324 13.4771 10.5137C13.6168 10.6541 13.7997 10.7245 13.9829 10.7245C14.166 10.7245 14.3489 10.6541 14.4887 10.5137L17.7391 7.24596C17.7722 7.21274 17.8018 7.17611 17.8281 7.13714C17.8346 7.12694 17.8393 7.11543 17.8453 7.10496C17.863 7.07541 17.8804 7.04559 17.8939 7.01367C17.9002 6.9985 17.903 6.98228 17.9085 6.96685C17.9181 6.93807 17.9288 6.90956 17.935 6.87922C17.9444 6.83266 17.9493 6.78531 17.9493 6.73692C17.9493 6.68852 17.9444 6.64118 17.935 6.59462C17.9291 6.56427 17.9184 6.53576 17.9085 6.50699C17.903 6.49155 17.9004 6.47533 17.8939 6.46016C17.8804 6.42825 17.8632 6.39869 17.8453 6.36887C17.8393 6.35841 17.8346 6.3469 17.8281 6.3367C17.8018 6.29772 17.7722 6.2611 17.7391 6.22788L14.4894 2.96071C14.21 2.67976 13.7573 2.67976 13.4776 2.96071C13.1982 3.24138 13.1982 3.6968 13.4776 3.978L15.5062 6.01783H7.52019C4.89 6.01783 2.75 8.16935 2.75 10.8137C2.75 11.211 3.07028 11.533 3.4655 11.533C3.86072 11.533 4.181 11.211 4.181 10.8137C4.181 8.9622 5.67888 7.45627 7.52019 7.45627ZM18.5348 10.4666C18.1395 10.4666 17.8193 10.7886 17.8193 11.1859C17.8193 13.0371 16.3214 14.5431 14.4801 14.5431H6.49403L8.52319 12.503C8.80263 12.2223 8.80263 11.7669 8.52319 11.4857C8.24376 11.2045 7.79104 11.2048 7.51134 11.4857L4.26088 14.7536C4.22784 14.7869 4.19818 14.8235 4.1719 14.8625C4.16565 14.8724 4.16123 14.8834 4.15551 14.8933C4.13755 14.9232 4.1196 14.9532 4.10633 14.9859C4.10035 15.0008 4.09749 15.0168 4.09202 15.032C4.08239 15.061 4.07147 15.0898 4.06522 15.1204C4.05586 15.167 4.05091 15.2143 4.05091 15.2627C4.05091 15.3111 4.05586 15.3584 4.06522 15.405C4.07121 15.4356 4.08213 15.4644 4.09202 15.4934C4.09749 15.5086 4.10009 15.5245 4.10633 15.5394C4.11986 15.5719 4.13755 15.602 4.15551 15.632C4.16123 15.642 4.16565 15.653 4.1719 15.6629C4.19818 15.7019 4.22784 15.7385 4.26088 15.7717L7.51082 19.0392C7.65054 19.1796 7.83345 19.25 8.01662 19.25C8.19978 19.25 8.38269 19.1796 8.52241 19.0392C8.80185 18.7585 8.80185 18.3031 8.52241 18.0219L6.49377 15.982H14.4798C17.11 15.982 19.25 13.8305 19.25 11.1862C19.2503 10.7886 18.93 10.4666 18.5348 10.4666Z" fill="currentColor"/>
</svg>
