<svg width="24" height="24" viewBox="0 0 24 24" fill="none" xmlns="http://www.w3.org/2000/svg">
<path fill-rule="evenodd" clip-rule="evenodd" d="M21.7861 2.21392C21.9314 2.35921 22.0087 2.55898 21.9992 2.76422L21.7364 8.4278C21.6994 9.22524 21.6827 9.84335 21.6691 10.3461C21.6635 10.5543 21.6584 10.7426 21.6527 10.9158C21.6339 11.4785 21.6083 11.931 21.5 12.3131C21.3775 12.7453 21.1641 13.046 20.8816 13.3488C20.7462 13.4939 20.5621 13.6716 20.3482 13.878C20.1828 14.0377 19.9995 14.2147 19.8072 14.407L14.5743 19.6398C13.6063 20.6079 12.5986 21.4814 11.5387 21.8326C10.9855 22.0159 10.4042 22.0626 9.8104 21.9025C9.22264 21.7439 8.67971 21.3981 8.17143 20.8898L3.11017 15.8286C2.60189 15.3203 2.25608 14.7774 2.09754 14.1896C1.93736 13.5958 1.98411 13.0145 2.1674 12.4613C2.51861 11.4014 3.39215 10.3937 4.36019 9.42569L9.59304 4.19284C9.63412 4.15176 9.67443 4.11138 9.71404 4.07172C10.5603 3.22413 11.0841 2.69952 11.9166 2.48548C12.3221 2.38123 12.7783 2.35404 13.3236 2.33622C13.4995 2.33047 13.6875 2.32571 13.8925 2.32052C14.3496 2.30895 14.8913 2.29524 15.5722 2.26364L21.2358 2.00079C21.441 1.99126 21.6408 2.06863 21.7861 2.21392ZM20.5029 3.4971L15.6399 3.72279C14.9437 3.7551 14.3718 3.76962 13.9092 3.78135C13.71 3.78641 13.5311 3.79094 13.3713 3.79617C12.8175 3.81427 12.511 3.84089 12.2804 3.90019C11.8796 4.00323 11.6468 4.2049 10.6259 5.22573L5.39308 10.4586C4.42135 11.4303 3.7852 12.223 3.55399 12.9207C3.44608 13.2464 3.43344 13.5333 3.50785 13.8092C3.5839 14.0911 3.76666 14.4193 4.14306 14.7957L9.20432 19.8569C9.58072 20.2333 9.90891 20.4161 10.1908 20.4921C10.4667 20.5666 10.7536 20.5539 11.0793 20.446C11.777 20.2148 12.5697 19.5786 13.5414 18.6069L18.7743 13.3741C19.0251 13.1233 19.2199 12.9361 19.3799 12.7823C19.5575 12.6117 19.6924 12.4821 19.8136 12.3522C20.0019 12.1505 20.0569 12.0478 20.0946 11.9147C20.1466 11.7315 20.1731 11.4567 20.1928 10.8671C20.1981 10.7067 20.203 10.526 20.2085 10.3231C20.2221 9.81683 20.2395 9.17245 20.2772 8.36008L20.5029 3.4971Z" fill="currentColor"/>
<path fill-rule="evenodd" clip-rule="evenodd" d="M15.3134 7.79729C14.6411 7.79729 14.0961 8.34229 14.0961 9.01457C14.0961 9.68685 14.6411 10.2318 15.3134 10.2318C15.9856 10.2318 16.5306 9.68685 16.5306 9.01457C16.5306 8.34229 15.9856 7.79729 15.3134 7.79729ZM12.6354 9.01457C12.6354 7.53555 13.8343 6.33657 15.3134 6.33657C16.7924 6.33657 17.9914 7.53555 17.9914 9.01457C17.9914 10.4936 16.7924 11.6926 15.3134 11.6926C13.8343 11.6926 12.6354 10.4936 12.6354 9.01457Z" fill="currentColor"/>
</svg>
