<svg viewBox="0 0 20 20" fill="none" xmlns="http://www.w3.org/2000/svg">
<path fill-rule="evenodd" clip-rule="evenodd" d="M19.7861 0.213919C19.9314 0.359208 20.0087 0.558975 19.9992 0.764224L19.7364 6.4278C19.6994 7.22524 19.6827 7.84335 19.6691 8.34614C19.6635 8.55426 19.6584 8.74263 19.6527 8.91578C19.6339 9.47852 19.6083 9.931 19.5 10.3131C19.3775 10.7453 19.1641 11.046 18.8816 11.3488C18.7462 11.4939 18.5621 11.6716 18.3482 11.878C18.1828 12.0377 17.9995 12.2147 17.8072 12.407L12.5743 17.6398C11.6063 18.6079 10.5986 19.4814 9.5387 19.8326C8.98553 20.0159 8.40419 20.0626 7.8104 19.9025C7.22264 19.7439 6.67971 19.3981 6.17143 18.8898L1.11017 13.8286C0.601889 13.3203 0.256083 12.7774 0.0975379 12.1896C-0.0626367 11.5958 -0.0158906 11.0145 0.1674 10.4613C0.518605 9.40137 1.39215 8.39373 2.36019 7.42569L7.59304 2.19284C7.63412 2.15176 7.67443 2.11138 7.71404 2.07172C8.56032 1.22413 9.08411 0.699524 9.91663 0.48548C10.3221 0.381233 10.7783 0.354045 11.3236 0.336222C11.4995 0.330473 11.6875 0.325713 11.8925 0.320524C12.3496 0.308952 12.8913 0.29524 13.5722 0.263637L19.2358 0.000786338C19.441 -0.00873944 19.6408 0.0686304 19.7861 0.213919ZM18.5029 1.4971L13.6399 1.72279C12.9437 1.7551 12.3718 1.76962 11.9092 1.78135C11.71 1.78641 11.5311 1.79094 11.3713 1.79617C10.8175 1.81427 10.511 1.84089 10.2804 1.90019C9.87961 2.00323 9.64676 2.2049 8.62593 3.22573L3.39308 8.45858C2.42135 9.4303 1.7852 10.223 1.55399 10.9207C1.44608 11.2464 1.43344 11.5333 1.50785 11.8092C1.5839 12.0911 1.76666 12.4193 2.14306 12.7957L7.20432 17.8569C7.58072 18.2333 7.90891 18.4161 8.19083 18.4921C8.4667 18.5666 8.75357 18.5539 9.07926 18.446C9.77703 18.2148 10.5697 17.5786 11.5414 16.6069L16.7743 11.3741C17.0251 11.1233 17.2199 10.9361 17.3799 10.7823C17.5575 10.6117 17.6924 10.4821 17.8136 10.3522C18.0019 10.1505 18.0569 10.0478 18.0946 9.91469C18.1466 9.73147 18.1731 9.45669 18.1928 8.86714C18.1981 8.70669 18.203 8.526 18.2085 8.32312C18.2221 7.81683 18.2395 7.17245 18.2772 6.36008L18.5029 1.4971Z" fill="currentColor"/>
<path fill-rule="evenodd" clip-rule="evenodd" d="M13.3134 5.79729C12.6411 5.79729 12.0961 6.34229 12.0961 7.01457C12.0961 7.68685 12.6411 8.23184 13.3134 8.23184C13.9856 8.23184 14.5306 7.68685 14.5306 7.01457C14.5306 6.34229 13.9856 5.79729 13.3134 5.79729ZM10.6354 7.01457C10.6354 5.53555 11.8343 4.33657 13.3134 4.33657C14.7924 4.33657 15.9914 5.53555 15.9914 7.01457C15.9914 8.49358 14.7924 9.69256 13.3134 9.69256C11.8343 9.69256 10.6354 8.49358 10.6354 7.01457Z" fill="currentColor"/>
</svg>
