<svg xmlns="http://www.w3.org/2000/svg" viewBox="0 0 258 258">
  <g>
    <circle cx="129" cy="129" r="129"/>
    <circle cx="129" cy="128.5" r="119.5" fill="#FFF"/>
    <g transform="translate(46 49)">
      <path d="M82.3,0.8 C82.9,2.5 83.9,4.1 84,5.9 C84.3,9.3 84.1,12.7 84.1,16.2 C84.1,18.3 83.6,20.3 81,20.4 C78.4,20.4 77.8,18.6 77.9,16.4 C77.9,12.7 77.7,8.9 78,5.2 C78.1,3.7 79.2,2.4 79.9,0.9 C80.6,0.8 81.4,0.8 82.3,0.8 Z"/>
      <g transform="translate(0 5)">
        <path d="M166.1,91.6 C164,95.9 161.2,99.5 156.1,100.2 C153.5,100.6 150.8,100.3 147.9,100.3 C146.8,103.5 145.7,107.3 144.2,110.9 C140.9,118.8 135.7,125.3 128.9,130.5 C127.3,131.7 126.5,133 126.6,135.1 C126.8,138.5 126.7,142 126.6,145.4 C126.5,150.7 123,154.2 117.6,154.3 C113.1,154.4 108.6,154.3 104,154.3 C97.7,154.3 94.4,150.9 94.3,144.5 C94.3,143.6 94.3,142.6 94.3,141.5 C84.4,141.5 74.7,141.5 64.6,141.5 C64.6,142.9 64.7,144.4 64.6,145.8 C64.4,150.6 60.9,154.1 56.1,154.2 C51,154.3 46,154.3 40.9,154.2 C35.9,154.1 32.5,150.6 32.3,145.6 C32.2,141.9 32.4,138.3 32.2,134.6 C32.1,133.3 31.4,131.7 30.4,130.9 C22.8,124.9 17.2,117.4 13.6,108.4 C13.3,107.6 12.3,106.5 11.6,106.5 C5.9,106.3 2.6,103 0.6,98 C0.6,92.8 0.6,87.7 0.6,82.5 C2.5,77.5 5.8,74.2 11.5,74 C12.2,74 13.2,72.9 13.6,72.1 C16.1,65.9 19.5,60.4 23.9,55.5 C24.7,54.6 25.1,53 25.1,51.8 C25.2,44.7 25.1,37.6 25.2,30.5 C25.2,26.6 26.3,25.5 30.2,25.7 C39.7,26.2 45.5,31.5 48.6,40.6 C51.1,40.2 53.6,39.9 56.1,39.5 C58.3,39.2 60.4,39.5 60.8,42.1 C61.2,44.7 59.4,45.7 57.1,45.9 C46.4,47.1 37.1,51.4 29.5,59.1 C24.7,64 21.1,69.7 19.1,76.3 C18.2,79.4 16.6,80.9 13.1,80.7 C8.3,80.4 7.1,81.9 7,86.8 C7,89.5 7,92.2 7,94.9 C7.1,98.5 8.6,100.2 12.1,100 C18.1,99.6 17.8,101.3 19.3,105.3 C22.4,114.1 27.7,121.2 35.4,126.5 C37.8,128.2 38.8,130 38.7,132.9 C38.5,136.8 38.7,140.6 38.6,144.5 C38.6,146.8 39.6,147.8 41.9,147.8 C46.1,147.7 50.3,147.7 54.5,147.8 C56.9,147.9 58,146.9 58,144.4 C58.3,134.9 58.3,134.9 67.9,134.9 C76.7,134.9 85.5,134.9 94.4,134.9 C99,134.9 100.6,136.5 100.6,141.1 C100.6,148.2 100.4,147.8 107.3,147.8 C110.1,147.8 112.9,147.8 115.7,147.8 C119.8,147.8 120,147.5 120,143.3 C120,140.1 120.2,136.8 119.9,133.6 C119.6,130.2 120.9,128.1 123.6,126.1 C135,117.8 141.3,106.4 141.7,92.4 C142.2,74.3 134.4,60.5 118.7,51.4 C117.8,50.9 116.8,50.4 115.9,49.8 C114,48.7 113.1,46.9 114.5,45.3 C115.3,44.4 117.9,43.7 118.9,44.3 C123.3,46.9 127.9,49.5 131.7,52.8 C140,60.1 145.2,69.4 147.3,80.3 C147.4,80.8 147.6,81.3 147.8,81.9 C153.9,75.5 162.5,77.1 165.8,86.5 C166.1,88.1 166.1,89.8 166.1,91.6 Z M42.4,42.9 C41.6,37.3 37.2,33 32.1,32.7 C32.1,37.8 32.1,42.9 32.1,48.3 C35.6,46.5 38.9,44.7 42.4,42.9 Z M148.3,86.1 C148.6,87.8 148.4,90.6 149.6,92.4 C150.4,93.6 153.4,94.1 155,93.6 C156.7,93.1 158.6,91.3 159.3,89.6 C159.8,88.6 158.7,86.3 157.6,85.2 C157,84.6 155.1,85.1 153.9,85.2 C152.3,85.4 150.6,85.7 148.3,86.1 Z"/>
        <path d="M80.8 51C71.4 51 63.8 43.4 63.7 34.1 63.6 24.9 71.4 17.1 80.7 16.9 90.1 16.7 97.9 24.6 97.9 34.1 97.7 43.5 90.2 51 80.8 51zM80.9 44.5C86.8 44.4 91.4 39.7 91.3 33.7 91.2 28 86.5 23.3 80.8 23.2 75 23.2 70.1 28.1 70.1 33.9 70.1 39.9 74.9 44.6 80.9 44.5zM87.6 112.8C87.1 113.4 86.4 114.7 85.4 115 84.4 115.3 82.8 114.8 82 114.1 79.1 111.5 72.5 111.6 69.6 114.2 68.8 114.9 66.6 115.4 66 114.9 65 114 64.2 112.1 64.5 111 65.7 107.2 67.4 103.6 68.9 100 70.1 97 71.2 94 72.7 91.1 73.3 90 74.7 88.9 75.8 88.8 76.7 88.7 78.3 89.8 78.7 90.8 81.7 97.5 84.4 104.2 87.2 111 87.5 111.2 87.4 111.6 87.6 112.8zM75.9 100C75 102.3 74.3 103.8 73.6 105.5 75.2 105.5 76.5 105.5 78.1 105.5 77.4 103.8 76.8 102.4 75.9 100zM105.2 95.8C106.5 93.8 107.7 92 108.9 90.3 110.1 88.6 111.6 87.7 113.5 88.9 115.6 90.2 115.7 92.3 114.1 93.9 108.9 99.3 108.9 104.4 114.1 109.8 115.6 111.4 115.6 113.5 113.5 114.8 111.4 116.1 109.8 114.9 108.6 113.2 107.5 111.5 106.4 109.8 105.1 107.9 103.7 110 102.6 111.8 101.3 113.6 100.1 115.3 98.5 116.1 96.6 114.8 94.7 113.5 94.6 111.5 96 110 101.2 104.5 101.3 99.3 96 93.8 94.6 92.3 94.7 90.3 96.6 89 98.7 87.6 100.2 88.6 101.5 90.5 102.7 92.1 103.9 93.8 105.2 95.8zM80.9 57.7C86.5 57.7 92.1 57.7 97.6 57.7 99.9 57.7 102.2 58 102.1 61 102.1 63.9 99.7 64.2 97.5 64.2 86.2 64.2 75 64.2 63.7 64.2 61.8 64.2 60 64 59.4 61.7 58.8 59.5 60.3 57.8 63.2 57.8 69.1 57.6 75 57.7 80.9 57.7 80.9 57.7 80.9 57.7 80.9 57.7zM54.5 94.9C54.5 100.4 54.5 105.7 54.5 110.9 54.5 113.2 53.9 115.2 51.3 115.2 48.7 115.2 48 113.2 48 110.9 48 105.6 48 100.4 48 95.3 47.6 95 47.5 94.8 47.3 94.8 45 94.6 42.5 94.4 42.6 91.3 42.7 88.1 45.3 88.2 47.6 88.3 50.3 88.3 53 88.4 55.7 88.3 58 88.2 60 88.9 60 91.5 60 93.9 58.3 94.7 56.1 94.8 55.7 94.8 55.3 94.8 54.5 94.9zM99.3 15.3C96.6 15.2 94.9 12.3 96.6 10.4 99.5 7.1 102.7 4 106 1.1 106.7.5 108.8.7 109.7 1.4 110.4 1.9 111 4.2 110.5 4.7 107.3 8.3 103.8 11.6 100.4 15 100 15.3 99.5 15.3 99.3 15.3zM65.7 12.7C65.1 13.4 64.6 14.6 63.7 14.9 62.8 15.2 61.2 15.1 60.5 14.5 57.4 11.7 54.4 8.8 51.6 5.6 50.9 4.8 51.1 2.6 51.7 1.7 52.2 1 54.7.5 55.3 1 58.8 4 61.9 7.4 65.2 10.7 65.5 11 65.5 11.7 65.7 12.7zM109.2 43.9C107.9 44.7 106.6 46.2 105.4 46.1 104.3 46 102.3 44.1 102.5 43.3 102.7 42.1 104.3 40.3 105.4 40.2 106.5 40 107.9 41.6 109.2 42.4 109.2 42.9 109.2 43.4 109.2 43.9zM41 72.3C39.8 73.1 38.8 74.4 37.5 74.6 35.5 74.9 34 73.4 34.5 71.5 34.8 70.3 36.3 68.6 37.4 68.5 38.6 68.5 39.9 70 41.1 70.8 41 71.4 41 71.8 41 72.3z"/>
        <path fill="#FFF" d="M75.9,100 C76.8,102.4 77.4,103.8 78.1,105.5 C76.5,105.5 75.2,105.5 73.6,105.5 C74.3,103.8 74.9,102.3 75.9,100 Z"/>
      </g>
    </g>
  </g>
</svg>
