<svg xmlns="http://www.w3.org/2000/svg" viewBox="0 0 259 258">
  <g>
    <circle cx="129.3" cy="129" r="129"/>
    <circle cx="129.5" cy="129" r="119.5" fill="#FFF"/>
    <path d="M195.6,112.8 L173,112.8 L173,125.7 L172.4,122.6 L165.5,90.3 C164.3,84.6 159.2,80.5 153.4,80.5 L144.1,80.5 L144.1,78.7 C144.1,72.6 139.1,67.6 133,67.6 L126.1,67.6 C120,67.6 115,72.6 115,78.7 L115,80.5 L105.5,80.5 C99.7,80.5 94.7,84.5 93.4,90.2 L85.9,122.8 L85.9,112.8 L63.3,112.8 L63.3,125.7 L79,125.7 C75.2,128.5 72.8,133.1 72.8,138.2 L72.8,155.1 C72.8,162.9 78.4,169.3 85.7,170.6 L85.7,182.2 C85.7,186.7 89.3,190.3 93.8,190.3 L97,190.3 C101.5,190.3 105.1,186.7 105.1,182.2 L105.1,171 L153.6,171 L153.6,182.3 C153.6,186.8 157.2,190.4 161.7,190.4 L164.9,190.4 C169.4,190.4 173,186.8 173,182.3 L173,170.7 C180.4,169.4 185.9,162.9 185.9,155.2 L185.9,138.3 C185.9,133.2 183.4,128.6 179.7,125.8 L195.6,125.8 L195.6,112.8 Z M85.7,146.8 C85.7,142.3 89.3,138.7 93.8,138.7 C98.3,138.7 101.9,142.3 101.9,146.8 C101.9,151.3 98.3,154.9 93.8,154.9 C89.3,154.8 85.7,151.2 85.7,146.8 Z M98.6,117.2 L103.7,95.1 C104.8,90.4 109,87 113.8,87 L145.6,87 C150.5,87 154.7,90.4 155.8,95.2 L161,119.3 L98.7,119.3 L98.7,117.2 L98.6,117.2 Z M150.3,151.6 L108.3,151.6 L108.3,145.1 L150.3,145.1 L150.3,151.6 Z M164.9,154.8 C160.4,154.8 156.8,151.2 156.8,146.7 C156.8,142.2 160.4,138.6 164.9,138.6 C169.4,138.6 173,142.2 173,146.7 C173,151.2 169.3,154.8 164.9,154.8 Z"/>
  </g>
</svg>
