<svg viewBox="0 0 22 22" fill="none" xmlns="http://www.w3.org/2000/svg">
<path fill-rule="evenodd" clip-rule="evenodd" d="M15.7791 4.67316C15.8405 4.29848 16.1941 4.04458 16.5688 4.10607C18.1467 4.365 19.3505 5.73275 19.3505 7.38416L19.3505 7.38558C19.347 9.06099 18.1053 10.4426 16.4926 10.6692C16.1166 10.722 15.769 10.4601 15.7162 10.0841C15.6633 9.70806 15.9253 9.36042 16.3013 9.30759C17.2459 9.17488 17.9731 8.36421 17.9755 7.38343C17.9751 6.41716 17.2705 5.61461 16.3462 5.46292C15.9715 5.40143 15.7176 5.04784 15.7791 4.67316Z" fill="currentColor"/>
<path fill-rule="evenodd" clip-rule="evenodd" d="M17.4044 12.9609C17.4606 12.5854 17.8105 12.3265 18.1861 12.3826C18.8423 12.4807 19.4836 12.6544 19.9773 12.9782C20.5055 13.3247 20.8747 13.8561 20.8747 14.575C20.8747 15.0504 20.7116 15.466 20.4166 15.7998C20.1343 16.1191 19.7585 16.3339 19.3672 16.4833C19.0124 16.6187 18.6151 16.4408 18.4797 16.0861C18.3444 15.7313 18.5222 15.334 18.8769 15.1986C19.1438 15.0968 19.3006 14.9862 19.3863 14.8892C19.4594 14.8065 19.4997 14.7147 19.4997 14.575C19.4997 14.4002 19.4367 14.268 19.2232 14.128C18.9751 13.9652 18.5649 13.8295 17.9827 13.7425C17.6072 13.6863 17.3483 13.3364 17.4044 12.9609Z" fill="currentColor"/>
<path fill-rule="evenodd" clip-rule="evenodd" d="M6.84145 13.2358C7.94949 12.8642 9.40832 12.7541 10.8961 12.7541C12.3926 12.7541 13.852 12.868 14.9587 13.2442C15.5157 13.4335 16.0335 13.7056 16.4181 14.1085C16.8185 14.5281 17.0451 15.0605 17.0451 15.6865C17.0451 16.3139 16.8164 16.8462 16.4134 17.264C16.0268 17.6649 15.507 17.9339 14.9497 18.1203C13.8419 18.4907 12.3834 18.5997 10.8961 18.5997C9.39968 18.5997 7.9402 18.4862 6.83341 18.1109C6.27643 17.922 5.75845 17.6504 5.3737 17.248C4.97302 16.8288 4.74615 16.2967 4.74615 15.6709C4.74615 15.0436 4.97499 14.5114 5.3778 14.0934C5.76429 13.6923 6.28397 13.4228 6.84145 13.2358ZM6.36791 15.0475C6.20685 15.2146 6.12115 15.4068 6.12115 15.6709C6.12115 15.9361 6.20687 16.1297 6.36762 16.2978C6.5443 16.4826 6.8366 16.66 7.27501 16.8087C8.15898 17.1085 9.43072 17.2247 10.8961 17.2247C12.3549 17.2247 13.6271 17.1127 14.5136 16.8163C14.9533 16.6692 15.2465 16.4932 15.4236 16.3096C15.5843 16.1429 15.6701 15.951 15.6701 15.6865C15.6701 15.4205 15.5842 15.2264 15.4233 15.0578C15.2466 14.8726 14.9544 14.695 14.5162 14.546C13.6326 14.2457 12.3613 14.1291 10.8961 14.1291C9.43766 14.1291 8.16528 14.2421 7.27865 14.5395C6.83879 14.687 6.54528 14.8634 6.36791 15.0475Z" fill="currentColor"/>
<path fill-rule="evenodd" clip-rule="evenodd" d="M6.70782 7.39495C6.70853 5.0826 8.58356 3.20801 10.8961 3.20801C13.209 3.20801 15.0843 5.08331 15.0843 7.39626C15.0843 9.71024 13.2089 11.5845 10.8961 11.5845H10.8704L10.8681 11.5845C8.5617 11.5768 6.69975 9.7008 6.70782 7.39495ZM6.70782 7.39495C6.70782 7.39451 6.70782 7.39408 6.70783 7.39364L7.39532 7.39626H6.70782C6.70782 7.39582 6.70782 7.39538 6.70782 7.39495ZM10.8961 4.58301C9.34252 4.58301 8.08282 5.8427 8.08282 7.39626V7.39887C8.07693 8.94571 9.32528 10.2038 10.8716 10.2095H10.8961C12.4497 10.2095 13.7093 8.95061 13.7093 7.39626C13.7093 5.8427 12.4496 4.58301 10.8961 4.58301Z" fill="currentColor"/>
<path fill-rule="evenodd" clip-rule="evenodd" d="M6.01226 4.67316C6.07374 5.04784 5.81985 5.40143 5.44516 5.46292C4.52078 5.61461 3.81617 6.41717 3.81583 7.38345C3.81821 8.36442 4.54467 9.17487 5.48992 9.30758C5.86593 9.36038 6.12794 9.70799 6.07515 10.084C6.02236 10.46 5.67475 10.722 5.29874 10.6692C3.68489 10.4426 2.4443 9.06079 2.44083 7.38558L2.44083 7.38416C2.44083 5.73275 3.64461 4.365 5.2225 4.10607C5.59718 4.04458 5.95077 4.29848 6.01226 4.67316Z" fill="currentColor"/>
<path fill-rule="evenodd" clip-rule="evenodd" d="M4.38678 12.9609C4.44293 13.3364 4.18402 13.6863 3.8085 13.7425C3.22629 13.8295 2.81617 13.9652 2.56806 14.128C2.35452 14.268 2.2915 14.4002 2.2915 14.575C2.2915 14.7147 2.33185 14.8065 2.4049 14.8892C2.49068 14.9862 2.64747 15.0968 2.91429 15.1986C3.26903 15.334 3.44686 15.7313 3.31149 16.0861C3.17611 16.4408 2.77879 16.6187 2.42405 16.4833C2.03271 16.3339 1.65692 16.1191 1.37465 15.7998C1.07966 15.466 0.916504 15.0504 0.916504 14.575C0.916504 13.8561 1.28569 13.3247 1.81397 12.9782C2.30767 12.6544 2.94897 12.4807 3.60517 12.3826C3.9807 12.3265 4.33063 12.5854 4.38678 12.9609Z" fill="currentColor"/>
</svg>
