<svg width="28" height="28" viewBox="0 0 28 28" fill="none" xmlns="http://www.w3.org/2000/svg">
<path fill-rule="evenodd" clip-rule="evenodd" d="M15.5555 6.70825C15.2718 6.70825 14.9998 6.82093 14.7993 7.02148C14.5987 7.22204 14.486 7.49406 14.486 7.7777V8.74992C14.486 10.0134 13.9841 11.2251 13.0907 12.1185C12.4064 12.8029 11.5352 13.2575 10.5971 13.4328V18.4721C10.5971 19.0136 10.8122 19.5329 11.1951 19.9158C11.578 20.2987 12.0973 20.5138 12.6388 20.5138H19.4444C19.4691 20.5138 19.4939 20.5149 19.5185 20.517C19.6365 20.527 19.8108 20.4885 20.0143 20.2849C20.2235 20.0757 20.4218 19.7262 20.5338 19.2578L21.4835 14.5094C21.4657 14.2527 21.3559 14.0101 21.1728 13.827C20.9722 13.6265 20.7002 13.5138 20.4166 13.5138H17.4999C17.0167 13.5138 16.6249 13.1221 16.6249 12.6388V7.7777C16.6249 7.49406 16.5122 7.22204 16.3117 7.02148C16.1111 6.82092 15.8391 6.70825 15.5555 6.70825ZM10.2847 21.4445C10.2182 21.5438 10.1418 21.6371 10.0561 21.7228C9.70968 22.0692 9.23983 22.2638 8.74992 22.2638H6.80547C6.31556 22.2638 5.84571 22.0692 5.49929 21.7228C5.15287 21.3763 4.95825 20.9065 4.95825 20.4166V13.611C4.95825 13.1211 5.15287 12.6513 5.49929 12.3048C5.84571 11.9584 6.31556 11.7638 6.80547 11.7638H9.72214C10.5215 11.7638 11.2881 11.4463 11.8533 10.8811C12.4185 10.3158 12.736 9.54925 12.736 8.74992V7.7777C12.736 7.02993 13.0331 6.3128 13.5618 5.78405C14.0906 5.2553 14.8077 4.95825 15.5555 4.95825C16.3032 4.95825 17.0204 5.2553 17.5491 5.78405C18.0779 6.3128 18.3749 7.02993 18.3749 7.7777V11.7638H20.4166C21.1644 11.7638 21.8815 12.0609 22.4102 12.5896C22.939 13.1184 23.236 13.8355 23.236 14.5833C23.236 14.6409 23.2303 14.6984 23.219 14.7549L22.2468 19.616C22.2449 19.6254 22.2429 19.6347 22.2407 19.6441C22.0724 20.3619 21.7421 21.0321 21.2518 21.5224C20.7635 22.0106 20.1192 22.3105 19.4119 22.2638H12.6388C11.78 22.2638 10.9513 21.9725 10.2847 21.4445ZM8.84714 13.5138H6.80547C6.77969 13.5138 6.75496 13.524 6.73673 13.5423C6.71849 13.5605 6.70825 13.5852 6.70825 13.611V20.4166C6.70825 20.4424 6.7185 20.4671 6.73673 20.4853C6.75496 20.5036 6.77969 20.5138 6.80547 20.5138H8.74992C8.77571 20.5138 8.80043 20.5036 8.81867 20.4853C8.8369 20.4671 8.84714 20.4424 8.84714 20.4166V13.5138Z" fill="#007E45"/>
</svg>
