<svg viewBox="0 0 48 48" xmlns="http://www.w3.org/2000/svg">
<path fill-rule="evenodd" clip-rule="evenodd" d="M24.0005 7.00018C14.6129 7.00018 7.00049 14.6126 7.00049 24.0002C7.00049 33.3879 14.611 41.0002 24.0005 41.0002C33.3881 41.0002 41.0005 33.3878 41.0005 24.0002C41.0005 14.6107 33.3882 7.00018 24.0005 7.00018ZM4.00049 24.0002C4.00049 12.9558 12.9561 4.00018 24.0005 4.00018C35.0448 4.00018 44.0005 12.9536 44.0005 24.0002C44.0005 35.0446 35.0449 44.0002 24.0005 44.0002C12.954 44.0002 4.00049 35.0445 4.00049 24.0002Z"/>
<path fill-rule="evenodd" clip-rule="evenodd" d="M32.1803 18.1937C32.7661 18.7795 32.7661 19.7292 32.1803 20.315L22.6883 29.807C22.1026 30.3927 21.153 30.3928 20.5672 29.8072L15.8192 25.0612C15.2333 24.4756 15.2331 23.5258 15.8188 22.9399C16.4044 22.354 17.3542 22.3538 17.9401 22.9394L21.6274 26.6252L30.059 18.1937C30.6448 17.6079 31.5945 17.6079 32.1803 18.1937Z"/>
</svg>
