<svg width="20" height="20" viewBox="0 0 20 20" fill="none" xmlns="http://www.w3.org/2000/svg">
<path fill-rule="evenodd" clip-rule="evenodd" d="M6.39175 1.6665H13.6167C16.4417 1.6665 18.3334 3.64984 18.3334 6.59984V13.409C18.3334 16.3498 16.4417 18.3332 13.6167 18.3332H6.39175C3.56675 18.3332 1.66675 16.3498 1.66675 13.409V6.59984C1.66675 3.64984 3.56675 1.6665 6.39175 1.6665ZM9.52508 12.4915L13.4834 8.53317C13.7667 8.24984 13.7667 7.7915 13.4834 7.49984C13.2001 7.2165 12.7334 7.2165 12.4501 7.49984L9.00841 10.9415L7.55008 9.48317C7.26675 9.19984 6.80008 9.19984 6.51675 9.48317C6.23341 9.7665 6.23341 10.2248 6.51675 10.5165L8.50008 12.4915C8.64175 12.6332 8.82508 12.6998 9.00841 12.6998C9.20008 12.6998 9.38341 12.6332 9.52508 12.4915Z" fill="white"/>
</svg>
