<svg xmlns="http://www.w3.org/2000/svg">
<path fill-rule="evenodd" clip-rule="evenodd" d="M10.0001 2.91602C6.08859 2.91602 2.91675 6.08786 2.91675 9.99935C2.91675 13.9109 6.0878 17.0827 10.0001 17.0827C13.9116 17.0827 17.0834 13.9108 17.0834 9.99935C17.0834 6.08707 13.9116 2.91602 10.0001 2.91602ZM1.66675 9.99935C1.66675 5.3975 5.39824 1.66602 10.0001 1.66602C14.6019 1.66602 18.3334 5.39663 18.3334 9.99935C18.3334 14.6012 14.6019 18.3327 10.0001 18.3327C5.39736 18.3327 1.66675 14.6011 1.66675 9.99935Z" fill="white"/>
<path fill-rule="evenodd" clip-rule="evenodd" d="M13.4083 7.57997C13.6524 7.82405 13.6524 8.21978 13.4083 8.46385L9.45334 12.4189C9.20929 12.6629 8.81364 12.6629 8.56955 12.4189L6.59121 10.4414C6.34708 10.1974 6.347 9.80169 6.59103 9.55756C6.83505 9.31343 7.23078 9.31335 7.47491 9.55738L9.0113 11.0931L12.5245 7.57997C12.7685 7.33589 13.1643 7.33589 13.4083 7.57997Z" fill="white"/>
</svg>
