<svg xmlns="http://www.w3.org/2000/svg" viewBox="0 0 258 258">
  <g>
    <circle cx="129" cy="129" r="129"/>
    <circle cx="129" cy="128.5" r="119.5" fill="#FFF"/>
    <g transform="translate(57 69)">
      <path d="M155 117.3C152.4 119.9 149.3 119 146.3 118.5 145.6 118.4 144.8 116.8 144.9 116 145 115.2 146.2 113.9 146.9 113.9 149.6 114 152.3 114.5 155 114.9 155 115.7 155 116.5 155 117.3zM10.4 113.7C10.4 80.8 10.4 48.4 10.4 15.8 29.3 15.8 48 15.8 67.1 15.8 67.1 48.2 67.1 80.8 67.1 113.5 69 113.5 70.5 113.5 72.4 113.5 72.4 112.3 72.4 111.3 72.4 110.2 72.4 99.1 72.4 88 72.4 76.9 72.4 76.2 72.4 75.5 72.4 74.8 72.4 69.9 74.1 67.4 77.5 67.3 80.9 67.2 82.7 69.8 82.7 74.6 82.7 86.3 82.7 98 82.7 109.7 82.7 110.9 82.7 112.1 82.7 113.7 84 113.7 85.1 113.7 86.2 113.7 102.3 113.7 118.5 113.7 134.6 113.7 135.5 113.7 136.6 113.4 137.3 113.9 138.2 114.5 139.2 115.5 139.3 116.4 139.4 117.1 138.3 118.2 137.4 118.7 136.7 119.1 135.6 119 134.7 119 91.4 119 48.2 119 4.9 119 4.1 119 3.1 119.2 2.5 118.8 1.5 118.1.2 117 .3 116.2.4 115.3 1.8 114 2.8 113.9 5.1 113.5 7.6 113.7 10.4 113.7zM15.6 45.4C15.6 51.4 15.6 57.5 15.6 63.5 15.6 67.9 17.4 69.8 21.8 69.8 33.1 69.9 44.4 69.9 55.7 69.8 60.1 69.8 61.9 67.9 62 63.5 62.1 51.4 62 39.3 62 27.2 62 22.6 60.2 20.8 55.6 20.7 44.4 20.6 33.2 20.6 22 20.7 17.4 20.7 15.6 22.5 15.6 27.2 15.6 33.3 15.6 39.3 15.6 45.4zM38.7 75C34 75 29.2 75 24.5 75 20.1 75 18.2 76.9 18.2 81.3 18.2 88.3 18.2 95.2 18.2 102.2 18.2 106.6 20 108.6 24.3 108.6 34 108.7 43.7 108.7 53.3 108.6 57.5 108.6 59.3 106.6 59.3 102.4 59.3 95.4 59.3 88.5 59.3 81.5 59.3 76.9 57.4 75.1 52.9 75.1 48.2 74.9 43.5 75 38.7 75zM81.2 75.1C79.5 73.8 78.5 72.6 77.6 72.6 76.7 72.7 75.9 74 75 74.8 75.8 75.7 76.5 77 77.4 77.2 78.3 77.4 79.4 76.2 81.2 75.1zM72.1 2.9C72.2 3.6 72.3 3.9 72.3 4.2 72.5 10.1 72.2 10.4 66.5 10.4 48.2 10.4 29.8 10.4 11.5 10.4 5.2 10.4 4.5 9.5 5.7 2.9 27.7 2.9 49.9 2.9 72.1 2.9zM129.1 27.7C129.1 23.5 129.1 19.3 129.1 15.1 129.1 14.6 129.4 13.9 129.7 13.5 132.6 10.4 135.6 7.3 138.5 4.2 138.8 4.4 139.1 4.5 139.3 4.7 139.3 9.1 139.3 13.4 139.3 17.8 139.3 18.2 139 18.7 138.6 19.1 135.7 22.2 132.8 25.2 129.9 28.2 129.7 28 129.4 27.9 129.1 27.7zM113.7 43.2C113.7 39.1 113.7 35.1 113.7 31.1 113.7 30.4 113.9 29.4 114.4 28.9 117.4 25.8 120.4 22.8 124 19.2 124 24.2 124 28.5 124 32.8 124 33.1 124 33.5 123.9 33.7 120.6 36.8 117.2 39.9 113.7 43.2z"/>
      <path d="M108.5 35.6C108.5 39.9 108.5 44.2 108.5 48.4 108.5 48.9 108.3 49.4 108 49.8 105 52.9 101.9 56 98.2 59.6 98.2 54.5 98.2 50.2 98.2 45.9 98.2 45.3 98.6 44.6 99.1 44.1 101.9 41.1 104.8 38.2 107.7 35.2 107.9 35.4 108.2 35.5 108.5 35.6zM88.3 69.5C85.9 66.9 83.7 64.5 81.7 62.3 85.1 58.9 88.9 55.1 93.1 50.8 93.1 54.4 92.8 57.9 93.2 61.2 93.7 65.7 90.2 67.2 88.3 69.5zM144.9.9C147.5 1.1 149.1 2.4 149.6 4.7 150.4 8.5 147.5 10.3 144.9 12.8 144.9 8.6 144.9 4.9 144.9.9zM56.7 64.6C54.2 64.6 51.9 64.6 49.2 64.6 48.9 60.6 49.9 56.2 45.9 53.3 42.8 51.1 39.3 51.8 36 51.9 30.9 52 29.5 54.5 28.3 64.5 26 64.5 23.6 64.5 21 64.5 21 51.8 21 39.1 21 26.1 32.9 26.1 44.7 26.1 56.8 26.1 56.7 38.8 56.7 51.5 56.7 64.6z"/>
      <path d="M44.6 64.5C40.3 64.5 37.1 64.5 33 64.5 33.7 61.9 33.6 58.5 35.1 57.6 36.9 56.5 40.5 56.4 42.4 57.6 43.9 58.5 43.9 61.8 44.6 64.5zM54.1 103.3C43.9 103.3 33.8 103.3 23.5 103.3 23.5 95.8 23.5 88.3 23.5 80.5 33.6 80.5 43.7 80.5 54.1 80.5 54.1 87.9 54.1 95.4 54.1 103.3zM38.9 85.3C36.5 85.3 34 85 31.7 85.4 30.6 85.6 29.6 87 28.6 87.9 29.6 88.8 30.6 90.4 31.7 90.4 36.5 90.7 41.4 90.7 46.2 90.4 47.2 90.3 48.2 88.7 49.1 87.8 48.1 87 47.2 85.6 46.2 85.5 43.7 85 41.3 85.3 38.9 85.3zM38.8 93.1C36.4 93.1 33.9 92.8 31.6 93.2 30.5 93.4 29.6 94.8 28.6 95.7 29.6 96.5 30.5 98 31.5 98.1 36.4 98.3 41.3 98.3 46.3 98.1 47.3 98 48.2 96.6 49.2 95.7 48.2 94.8 47.3 93.4 46.2 93.2 43.7 92.8 41.2 93.1 38.8 93.1z"/>
    </g>
  </g>
</svg>
