<svg width="24" height="24" viewBox="0 0 24 24" fill="none" xmlns="http://www.w3.org/2000/svg">
<path d="M8.65989 11.7025C8.0256 11.7025 7.50259 12.2151 7.50259 12.8423C7.50259 13.4687 8.0256 13.9822 8.65989 13.9822C9.29502 13.9822 9.81717 13.467 9.81717 12.8423C9.81717 12.2168 9.29505 11.7025 8.65989 11.7025ZM8.65989 12.5762C8.81736 12.5762 8.93015 12.6873 8.93015 12.8423C8.93015 12.9938 8.81738 13.1085 8.65989 13.1085C8.50595 13.1085 8.38962 12.9922 8.38962 12.8423C8.38962 12.6889 8.50595 12.5762 8.65989 12.5762Z" fill="currentColor"/>
<path d="M15.3402 11.7025C14.705 11.7025 14.1829 12.2168 14.1829 12.8423C14.1829 13.467 14.7051 13.9822 15.3402 13.9822C15.9745 13.9822 16.4975 13.4671 16.4975 12.8423C16.4975 12.2168 15.9745 11.7025 15.3402 11.7025ZM15.3402 12.5762C15.4941 12.5762 15.6174 12.6873 15.6174 12.8423C15.6174 12.9938 15.4941 13.1085 15.3402 13.1085C15.1827 13.1085 15.0699 12.9938 15.0699 12.8423C15.0699 12.6873 15.1827 12.5762 15.3402 12.5762Z" fill="currentColor"/>
<path fill-rule="evenodd" clip-rule="evenodd" d="M5.47247 5.5096C5.47247 3.5713 7.07653 2 9.05525 2H14.9448C16.9235 2 18.5275 3.5713 18.5275 5.5096V13.2019C18.5275 14.4043 17.6772 15.4123 16.5335 15.6802L19.9053 21.0474C20.0899 21.3413 19.9964 21.7263 19.6963 21.9072C19.3962 22.0881 19.0032 21.9964 18.8185 21.7025L18.0993 20.5576H5.90073L5.1815 21.7025C4.99682 21.9964 4.60383 22.0881 4.30373 21.9072C4.00363 21.7263 3.91006 21.3413 4.09474 21.0474L7.4665 15.6802C6.32276 15.4123 5.47247 14.4043 5.47247 13.2019V5.5096ZM8.92098 15.7499L8.49815 16.423H15.5019L15.079 15.7499H8.92098ZM16.2871 17.673H7.71288L6.68599 19.3076H17.314L16.2871 17.673ZM9.05525 3.24999C7.78128 3.24999 6.74853 4.26165 6.74853 5.5096V13.2019C6.74853 13.9188 7.34181 14.4999 8.07366 14.4999H15.9263C16.6582 14.4999 17.2515 13.9188 17.2515 13.2019V5.5096C17.2515 4.26165 16.2187 3.24999 14.9448 3.24999H9.05525ZM7.43563 6.9519C7.43563 5.54464 8.60023 4.40384 10.0368 4.40384H13.9632C15.3998 4.40384 16.5644 5.54464 16.5644 6.9519V9.35574C16.5644 9.70091 16.2787 9.98073 15.9263 9.98073H8.07366C7.72129 9.98073 7.43563 9.70091 7.43563 9.35574V6.9519ZM10.0368 5.65383C9.30498 5.65383 8.71169 6.235 8.71169 6.9519V8.73074H15.2883V6.9519C15.2883 6.235 14.695 5.65383 13.9632 5.65383H10.0368ZM10.3804 13.2019C10.3804 12.8567 10.666 12.5769 11.0184 12.5769H12.9816C13.334 12.5769 13.6196 12.8567 13.6196 13.2019C13.6196 13.5471 13.334 13.8269 12.9816 13.8269H11.0184C10.666 13.8269 10.3804 13.5471 10.3804 13.2019Z" fill="currentColor"/>
</svg>
