<svg xmlns="http://www.w3.org/2000/svg" viewBox="0 0 258 258">
  <g>
    <circle cx="129" cy="129" r="129"/>
    <circle cx="129" cy="128.5" r="119.5" fill="#FFF"/>
    <path d="M89.7,200.9 C85.4,200.9 81.1,200.9 76.8,200.9 C78.4,198.3 79.9,195.6 81.6,193.1 C87.3,184.4 93.1,175.8 99,166.9 C97.6,166.3 96.5,165.7 95.3,165.3 C89.3,162.9 84.3,155.9 84.3,149.6 C84.3,124.6 84.2,99.6 84.4,74.6 C84.4,71.8 85.6,68.8 87,66.2 C89.7,61.4 94.3,58.8 99.3,57.1 C118.8,57.1 138.2,57.1 157.7,57.1 C158.2,57.3 158.7,57.5 159.3,57.7 C168.3,61 173,67.7 173,77.3 C173,100.7 172.9,124 173,147.4 C173,155.9 169.2,161.6 161.7,165 C160.6,165.5 159.5,166.2 158.3,166.8 C159.1,168 159.7,169 160.3,169.9 C166.5,179.3 172.7,188.8 178.9,198.2 C179.4,199 179.8,200 180.2,200.9 C175.9,200.9 171.6,200.9 167.3,200.9 C162.1,193.4 157,185.8 151.8,178.3 C151.4,177.7 150.3,177.3 149.5,177.3 C135.6,177.2 121.6,177.2 107.7,177.3 C106.9,177.3 105.8,177.7 105.4,178.3 C100,185.8 94.9,193.4 89.7,200.9 Z M128.4,77 C120.5,77 112.7,77 104.8,77 C98.4,77 94.7,80.5 94.5,87 C94.4,91.4 94.4,95.8 94.5,100.2 C94.6,105.9 98.3,109.8 104,109.8 C120.4,109.9 136.7,109.9 153.1,109.8 C158.3,109.8 162.1,105.7 162.1,100.4 C162.1,96 162.1,91.6 162.1,87.2 C162.1,80.5 158.6,77 151.9,77 C144.1,77 136.2,77 128.4,77 Z M128.8,61.2 C125.6,61.2 122.4,61.2 119.3,61.2 C117.1,61.2 115.8,62.1 115.6,64.5 C115.2,70.4 116,72.9 118.6,73.3 C118.8,73.3 119,73.3 119.2,73.3 C125.5,73.3 131.7,73.3 138,73.3 C140,73.3 141.2,72.4 141.1,70.2 C141,68.3 141,66.5 141.1,64.6 C141.2,62.2 140.1,61.2 137.8,61.2 C134.7,61.2 131.7,61.2 128.8,61.2 Z M103.4,138.9 C98.6,138.9 94.8,142.6 94.8,147.4 C94.8,152.5 98.4,156.4 103.2,156.4 C108.2,156.5 112.2,152.3 112.1,147.2 C112,142.3 108.4,138.9 103.4,138.9 Z M161.8,147.8 C162,142.7 158.7,139.1 153.8,138.9 C148.9,138.7 144.9,142.1 144.7,146.8 C144.5,152.1 148,156.2 153.1,156.4 C157.9,156.6 161.6,152.9 161.8,147.8 Z"/>
  </g>
</svg>
