<svg xmlns="http://www.w3.org/2000/svg" viewBox="0 0 258 258">
  <g>
    <circle cx="129" cy="129" r="129"/>
    <circle cx="129" cy="128.5" r="119.5" fill="#FFF"/>
    <path stroke="#000" d="M120.5,196.8 C116.8,194.6 116.6,192.6 119.7,189.5 C126.9,182.3 134.1,175.1 141.2,167.8 C142.2,166.8 142.8,165.2 142.9,163.8 C143.1,159.2 143,154.7 143,149.8 C141.8,149.7 140.8,149.7 139.8,149.6 C133.9,149.6 128.1,149.4 122.2,149.6 C116.4,149.8 115.8,148.1 115.7,146.1 C115.5,143.5 117.5,142.4 122.2,142.4 C142.1,142.4 162,142.4 181.9,142.4 C183,142.4 184.1,142.4 185.4,142.4 C185.4,122 185.4,101.8 185.4,81.1 C184.4,81.1 183.4,81.1 182.3,81.1 C162,81.1 141.8,81.1 121.5,81.1 C120.7,81.1 119.8,81.2 119,81.1 C117,80.9 115.8,79.7 115.7,77.7 C115.6,75.7 116.9,74.5 118.8,74.1 C119.7,73.9 120.6,74 121.5,74 C144.8,74 168.1,74 191.4,74 C192.5,74 193.5,74 194.7,74 C194.7,71.1 194.7,68.5 194.7,65.6 C193.5,65.6 192.4,65.6 191.3,65.6 C167.5,65.6 143.6,65.6 119.8,65.6 C118.6,65.6 117.2,65.8 116.3,65.2 C115.2,64.4 113.9,62.9 114,61.7 C114.1,60.6 115.6,59.4 116.8,58.6 C117.3,58.2 118.4,58.4 119.2,58.4 C145,58.4 170.8,58.4 196.5,58.4 C198.7,58.4 200.7,58.7 201.9,60.8 C201.9,66.9 201.9,72.9 201.9,79 C199.6,82.4 195.9,80.7 192.6,81.5 C192.6,82.6 192.6,83.7 192.6,84.8 C192.6,104.7 192.6,124.6 192.6,144.5 C192.6,148.7 191.7,149.7 187.4,149.7 C176,149.7 164.7,149.7 153.3,149.7 C152.3,149.7 151.3,149.7 150,149.7 C150,154.7 149.9,159.3 150.1,164 C150.2,165.4 150.8,167 151.8,168 C158.9,175.3 166.1,182.4 173.3,189.7 C176.3,192.7 176,194.9 172.2,196.9 C171.8,196.9 171.5,196.9 171.1,196.9 C169.9,195.9 168.6,195.1 167.5,194 C163.3,189.8 159.1,185.6 154.9,181.4 C153.5,179.9 152.1,178.4 150.7,176.9 C150.5,177.1 150.2,177.2 150,177.4 C150,182 149.9,186.6 150,191.3 C150.1,193.9 149.4,195.9 146.8,197 C146.6,197 146.4,197 146.2,197 C143.5,196.2 142.5,194.3 142.7,191.6 C142.8,189.6 142.7,187.6 142.7,185.6 C142.7,182.8 142.7,180.1 142.7,176.5 C136.4,182.8 130.7,188.6 125,194.2 C123.9,195.3 122.6,196.1 121.4,197.1 C121.2,196.8 120.8,196.8 120.5,196.8 Z"/>
    <path stroke="#000" d="M84.7 196.8C79.7 195.3 77.6 191.8 77 186.7 75.5 174.1 73.7 161.6 71.9 149.1 71.8 148.2 71.2 147.1 70.5 146.6 66.6 143.8 65 139.9 64.4 135.4 63.3 127.1 62.2 118.9 61.1 110.6 59.9 101.5 66.1 93.7 75.3 92.7 76.7 92.5 78 92.6 79.4 92.5 82.1 92.3 84.2 93.3 85.7 95.5 87.1 97.4 88.7 99.2 90.4 101.3 92.1 99.3 93.7 97.4 95.1 95.5 96.7 93.3 98.8 92.6 101.4 92.4 106.5 92.1 110.9 93.4 114.7 97.1 117.8 100.1 121.3 102.6 124.8 105.5 129 102.2 133.1 99 137.2 95.8 140 93.6 143.1 92.8 146.5 93.8 153.8 95.8 156.4 105.2 150.8 110.3 144.1 116.3 136.9 121.7 129.7 127 126.4 129.5 121.8 128.8 118.2 126 116.2 124.4 114.3 122.8 112 120.9 110.8 130.1 109.6 138.8 108.5 147.5 106.8 161.4 105.2 175.3 103.5 189.3 103 193.6 100 195.6 96.3 197 92.4 196.8 88.5 196.8 84.7 196.8zM78 99.1C71.5 99.7 67.6 103.8 68.3 109.6 69.3 118.2 70.5 126.7 71.7 135.2 72.1 138 73.4 140 75.9 141.6 77.2 142.4 78.4 144.1 78.6 145.6 80.4 157.7 81.9 169.9 83.7 182.1 85 190.8 82.9 189.4 92.1 189.5 96.4 189.5 96.3 189.5 96.8 185.2 99.7 161.6 102.6 138.1 105.6 114.5 106.2 110.1 109 109.1 112.5 111.9 115.7 114.5 118.9 117.1 122 119.8 123.8 121.4 125.5 121.4 127.4 119.8 133.1 115.2 138.9 110.7 144.7 106.2 146.3 105 147.5 103.5 146 101.6 144.5 99.7 142.8 100.5 141.2 101.8 136.8 105.3 132.4 108.7 128 112.2 125.8 114 123.8 114 121.6 112.1 117.3 108.4 112.9 104.8 108.5 101.2 105.2 98.5 101.7 98.9 99.1 102.2 97.7 103.9 96.4 105.7 95 107.3 92.3 110.5 89.1 110.5 86.4 107.4 84.7 105.4 83.1 103.2 81.4 101.2 80.3 100.3 79 99.8 78 99.1zM90.7 90.5C81.3 90.6 73.3 82.7 73.3 73.3 73.3 64 81.1 56.2 90.4 56 99.7 55.8 107.8 63.8 107.8 73.3 107.8 82.6 100.1 90.4 90.7 90.5zM100.6 73.3C100.6 67.8 96 63.1 90.5 63.1 85.1 63.1 80.3 67.9 80.4 73.3 80.5 78.7 85 83.2 90.4 83.3 96 83.4 100.6 78.8 100.6 73.3z"/>
    <path d="M140.7 98.9C135.5 101 129.2 102.6 125.3 106.9 125 107.3 124.7 107.7 124.4 108.1 124.3 108.2 124.1 108.3 124 108.4 123.8 108.3 123.6 108.1 123.4 108 121 106.2 118.4 104.6 115.7 103.1 111.5 100.7 107 98 102.3 99.4 99.8 98.7 97 99.5 95.5 102 94.6 103.7 93.7 105.4 92.7 107 92.6 107.3 92.4 107.5 92.2 107.8 91.3 106.5 87.8 105.8 85.9 105.7 85.9 105.5 85.9 105.2 85.9 104.9 85.9 104.5 85.9 104.1 85.8 103.7 85.8 100.1 82 96.4 78.1 97.5 77.1 97.8 76.2 98.1 75.4 98.6 74.7 98.6 74.1 98.7 73.5 98.8 70.3 99.1 68.4 101.4 67.9 103.9 65.6 105 64 107.3 65.2 110.5 66.3 113.5 67.4 116.5 68.5 119.5 67.4 120.5 66.7 121.9 66.8 123.9 67.2 132.1 70.1 138.3 74.7 144.9 75.7 146.3 76.6 147.6 77.4 149.1 76 150.4 75.2 152.5 75.6 154.9 76.6 160.9 77.5 166.9 78.5 173 79.3 178 79.4 184.3 82 188.7 87.5 197.9 100.4 192.3 98.1 182.4 99.1 181.4 99.9 180 100 178.2 100.8 164.2 104 150.6 106.3 136.8 107.4 130.2 108.3 123.6 108.6 116.9 108.7 115.7 108.7 114.4 108.8 113.1 109.1 113.3 109.4 113.4 109.7 113.6 113.4 115.8 117.1 119.5 121.2 121 125 122.4 129.2 121 131.9 118.1 133.3 116.6 134.1 115 136 113.9 138.4 112.5 141.3 111.7 143.9 110.6 150.9 107.5 147.8 95.9 140.7 98.9zM93.8 62C91.8 60.7 89.1 61 87.2 62.4 83.9 62.9 81.3 65.3 80.2 68.4 78 74.4 80.8 81.7 87.1 83.6 92.4 85.2 98.7 82.8 101.2 77.8 104.6 71 99.2 65.6 93.8 62z"/>
  </g>
</svg>
