<svg width="24" height="24" viewBox="0 0 24 24" fill="none" xmlns="http://www.w3.org/2000/svg">
<path fill-rule="evenodd" clip-rule="evenodd" d="M17.2136 5.09823C17.2807 4.68948 17.6664 4.4125 18.0751 4.47958C19.7965 4.76205 21.1097 6.25414 21.1097 8.05568L21.1097 8.05723C21.1059 9.88495 19.7513 11.3922 17.992 11.6394C17.5818 11.697 17.2026 11.4112 17.145 11.001C17.0873 10.5908 17.3731 10.2116 17.7833 10.154C18.8138 10.0092 19.6071 9.12482 19.6097 8.05488C19.6093 7.00077 18.8406 6.12526 17.8322 5.95978C17.4235 5.8927 17.1465 5.50697 17.2136 5.09823Z" fill="currentColor"/>
<path fill-rule="evenodd" clip-rule="evenodd" d="M18.9867 14.1394C19.048 13.7297 19.4297 13.4473 19.8394 13.5085C20.5552 13.6156 21.2548 13.805 21.7934 14.1583C22.3697 14.5362 22.7725 15.116 22.7725 15.9003C22.7725 16.4189 22.5945 16.8723 22.2727 17.2364C21.9648 17.5847 21.5548 17.8191 21.1279 17.982C20.7409 18.1297 20.3074 17.9357 20.1598 17.5487C20.0121 17.1617 20.2061 16.7282 20.5931 16.5806C20.8842 16.4695 21.0552 16.3488 21.1488 16.243C21.2285 16.1528 21.2725 16.0527 21.2725 15.9003C21.2725 15.7096 21.2037 15.5653 20.9708 15.4126C20.7001 15.235 20.2527 15.087 19.6176 14.992C19.2079 14.9308 18.9255 14.549 18.9867 14.1394Z" fill="currentColor"/>
<path fill-rule="evenodd" clip-rule="evenodd" d="M7.46346 14.4393C8.67222 14.034 10.2637 13.9138 11.8867 13.9138C13.5193 13.9138 15.1113 14.0381 16.3187 14.4484C16.9263 14.655 17.4912 14.9518 17.9107 15.3914C18.3475 15.8491 18.5947 16.4299 18.5947 17.1128C18.5947 17.7973 18.3452 18.3779 17.9056 18.8337C17.4838 19.2711 16.9168 19.5645 16.3088 19.7678C15.1004 20.1719 13.5092 20.2908 11.8867 20.2908C10.2542 20.2908 8.6621 20.167 7.45468 19.7575C6.84707 19.5515 6.282 19.2552 5.86228 18.8162C5.42517 18.3589 5.17768 17.7785 5.17768 17.0958C5.17768 16.4114 5.42732 15.8308 5.86674 15.3748C6.28837 14.9373 6.8553 14.6433 7.46346 14.4393ZM6.94686 16.4156C6.77116 16.598 6.67768 16.8077 6.67768 17.0958C6.67768 17.3851 6.77118 17.5962 6.94655 17.7797C7.1393 17.9813 7.45816 18.1748 7.93642 18.337C8.90076 18.664 10.2881 18.7908 11.8867 18.7908C13.4782 18.7908 14.866 18.6686 15.8331 18.3452C16.3128 18.1848 16.6326 17.9929 16.8258 17.7925C17.0012 17.6107 17.0947 17.4013 17.0947 17.1128C17.0947 16.8226 17.001 16.6108 16.8255 16.4269C16.6327 16.2249 16.314 16.0311 15.8359 15.8686C14.872 15.541 13.4851 15.4138 11.8867 15.4138C10.2957 15.4138 8.90763 15.5371 7.9404 15.8615C7.46056 16.0224 7.14036 16.2148 6.94686 16.4156Z" fill="currentColor"/>
<path fill-rule="evenodd" clip-rule="evenodd" d="M7.31768 8.06745C7.31845 5.54489 9.36394 3.49988 11.8867 3.49988C14.4099 3.49988 16.4557 5.54566 16.4557 8.06888C16.4557 10.5932 14.4098 12.6379 11.8867 12.6379H11.8587L11.8562 12.6379C9.34009 12.6295 7.30888 10.5829 7.31768 8.06745ZM7.31768 8.06745C7.31768 8.06697 7.31768 8.0665 7.31768 8.06602L8.06768 8.06888H7.31768C7.31768 8.0684 7.31768 8.06793 7.31768 8.06745ZM11.8867 4.99988C10.1919 4.99988 8.81768 6.37409 8.81768 8.06888V8.07173C8.81126 9.75919 10.1731 11.1316 11.86 11.1379H11.8867C13.5816 11.1379 14.9557 9.76454 14.9557 8.06888C14.9557 6.37409 13.5815 4.99988 11.8867 4.99988Z" fill="currentColor"/>
<path fill-rule="evenodd" clip-rule="evenodd" d="M6.55888 5.09823C6.62596 5.50697 6.34898 5.8927 5.94023 5.95978C4.93181 6.12526 4.16316 7.00079 4.16278 8.0549C4.16538 9.12506 4.95788 10.0092 5.98906 10.154C6.39925 10.2116 6.68508 10.5908 6.62749 11.001C6.5699 11.4111 6.19069 11.697 5.7805 11.6394C4.01993 11.3922 2.66656 9.88473 2.66278 8.05723L2.66278 8.05568C2.66278 6.25414 3.97599 4.76205 5.69733 4.47958C6.10607 4.4125 6.4918 4.68948 6.55888 5.09823Z" fill="currentColor"/>
<path fill-rule="evenodd" clip-rule="evenodd" d="M4.78563 14.1394C4.84688 14.549 4.56444 14.9308 4.15478 14.992C3.51965 15.087 3.07224 15.235 2.80157 15.4126C2.56862 15.5653 2.49988 15.7096 2.49988 15.9003C2.49988 16.0527 2.54389 16.1528 2.62358 16.243C2.71716 16.3488 2.8882 16.4695 3.17928 16.5806C3.56627 16.7282 3.76027 17.1617 3.61259 17.5487C3.46491 17.9357 3.03147 18.1297 2.64448 17.982C2.21755 17.8191 1.8076 17.5847 1.49967 17.2364C1.17786 16.8723 0.999878 16.4189 0.999878 15.9003C0.999878 15.116 1.40263 14.5362 1.97893 14.1583C2.51751 13.805 3.21711 13.6156 3.93297 13.5085C4.34263 13.4473 4.72438 13.7297 4.78563 14.1394Z" fill="currentColor"/>
</svg>
