<svg width="24" height="24" viewBox="0 0 24 24" fill="none" xmlns="http://www.w3.org/2000/svg">
<path fill-rule="evenodd" clip-rule="evenodd" d="M3.83929 17.1547C3.61844 17.3861 3.49951 17.6567 3.49951 18.0188C3.49951 18.3791 3.61843 18.647 3.83945 18.8761C4.07835 19.1238 4.46411 19.3518 5.02462 19.5392C6.15321 19.9166 7.76209 20.0568 9.59151 20.0568C11.4296 20.0568 13.0377 19.9115 14.1629 19.5299C14.7215 19.3404 15.1058 19.1106 15.3439 18.8614C15.5647 18.6304 15.6835 18.3604 15.6835 17.9988C15.6835 17.6388 15.5646 17.3706 15.3433 17.141C15.1041 16.8929 14.718 16.6644 14.1575 16.4765C13.0288 16.0981 11.42 15.9568 9.59151 15.9568C7.75312 15.9568 6.14518 16.1027 5.02026 16.4851C4.46174 16.675 4.07744 16.9052 3.83929 17.1547ZM4.53751 15.0649C5.90584 14.5998 7.7189 14.4568 9.59151 14.4568C11.452 14.4568 13.2642 14.5949 14.6343 15.0543C15.3231 15.2852 15.9559 15.6152 16.4232 16.0999C16.9083 16.6032 17.1835 17.2423 17.1835 17.9988C17.1835 18.7536 16.9108 19.3929 16.4284 19.8977C15.9633 20.3844 15.3327 20.717 14.6447 20.9504C13.2763 21.4145 11.4634 21.5568 9.59151 21.5568C7.73093 21.5568 5.91881 21.4199 4.54891 20.9618C3.86016 20.7315 3.2273 20.4021 2.75989 19.9176C2.27459 19.4145 1.99951 18.7754 1.99951 18.0188C1.99951 17.2639 2.27196 16.6244 2.75414 16.1191C3.21902 15.632 3.84941 15.2988 4.53751 15.0649Z" fill="black"/>
<path fill-rule="evenodd" clip-rule="evenodd" d="M9.59151 3.99976C7.5835 3.99976 5.95551 5.62719 5.95551 7.63476C5.95551 9.64232 7.5835 11.2698 9.59151 11.2698H9.62094C11.6195 11.2616 13.234 9.63558 13.2265 7.63755L13.2265 7.63476C13.2265 5.62708 11.5984 3.99976 9.59151 3.99976ZM4.45551 7.63476C4.45551 4.79832 6.75552 2.49976 9.59151 2.49976C12.4261 2.49976 14.7257 4.7976 14.7265 7.63322C14.7364 10.4602 12.4517 12.7592 9.62531 12.7698L9.62251 12.7698H9.59151C6.75552 12.7698 4.45551 10.4712 4.45551 7.63476Z" fill="black"/>
<path fill-rule="evenodd" clip-rule="evenodd" d="M15.818 4.24217C15.885 3.83342 16.2707 3.55641 16.6795 3.62344C18.6031 3.93893 20.0701 5.60722 20.0701 7.61956L20.0701 7.62091C20.0664 9.66255 18.553 11.348 16.5875 11.6243C16.1773 11.6819 15.7981 11.3961 15.7404 10.9859C15.6828 10.5758 15.9686 10.1965 16.3787 10.1389C17.615 9.96511 18.5675 8.90293 18.5701 7.61887C18.5698 6.35351 17.6469 5.30215 16.4367 5.10367C16.028 5.03663 15.751 4.65092 15.818 4.24217Z" fill="black"/>
<path fill-rule="evenodd" clip-rule="evenodd" d="M17.8536 14.6217C17.9146 14.212 18.2962 13.9293 18.7059 13.9903C19.5221 14.1119 20.3068 14.3264 20.9055 14.7192C21.5418 15.1368 21.9794 15.7705 21.9794 16.6272C21.9794 17.1957 21.785 17.6902 21.4331 18.0879C21.0951 18.4698 20.6419 18.7299 20.1617 18.9123C19.7745 19.0594 19.3414 18.8647 19.1943 18.4775C19.0472 18.0903 19.2419 17.6571 19.6291 17.51C19.9729 17.3794 20.1867 17.233 20.3097 17.0939C20.4189 16.9706 20.4794 16.8296 20.4794 16.6272C20.4794 16.3638 20.3755 16.1655 20.0826 15.9733C19.752 15.7564 19.2198 15.5834 18.4849 15.474C18.0752 15.413 17.7926 15.0314 17.8536 14.6217Z" fill="black"/>
</svg>
