<svg width="24" height="24" viewBox="0 0 24 24" fill="none" xmlns="http://www.w3.org/2000/svg">
<path fill-rule="evenodd" clip-rule="evenodd" d="M6.7108 15.2202C8.14075 14.7408 10.0351 14.5962 11.9848 14.5962C13.9463 14.5962 15.8412 14.7464 17.2693 15.2321C17.9872 15.4763 18.6419 15.8231 19.1236 16.328C19.6225 16.8509 19.9043 17.5122 19.9043 18.2938C19.9043 19.0771 19.62 19.738 19.1181 20.259C18.6341 20.7616 17.9771 21.105 17.2584 21.3461C15.8287 21.8257 13.9346 21.9705 11.9848 21.9705C10.0234 21.9705 8.12822 21.8205 6.69996 21.335C5.98189 21.0909 5.32708 20.7441 4.84528 20.2392C4.34619 19.7162 4.06433 19.0547 4.06433 18.2729C4.06433 17.4894 4.34873 16.8283 4.8507 16.3073C5.33487 15.8047 5.99202 15.4612 6.7108 15.2202ZM5.93097 17.3479C5.69279 17.5952 5.56433 17.8854 5.56433 18.2729C5.56433 18.662 5.69271 18.9545 5.93049 19.2037C6.18557 19.471 6.59428 19.7148 7.18275 19.9148C8.36758 20.3176 10.0576 20.4705 11.9848 20.4705C13.9026 20.4705 15.5933 20.3225 16.7814 19.924C17.3717 19.726 17.7819 19.4841 18.0378 19.2184C18.2759 18.9712 18.4043 18.6811 18.4043 18.2938C18.4043 17.905 18.276 17.6126 18.0383 17.3634C17.7833 17.0961 17.3746 16.8523 16.7863 16.6522C15.6017 16.2493 13.9119 16.0962 11.9848 16.0962C10.0669 16.0962 8.376 16.244 7.18762 16.6424C6.59724 16.8404 6.18694 17.0822 5.93097 17.3479Z" fill="currentColor"/>
<path fill-rule="evenodd" clip-rule="evenodd" d="M6.67433 7.40853C6.67499 4.47631 9.05282 2.10022 11.9848 2.10022C14.9174 2.10022 17.2943 4.47716 17.2943 7.40974C17.2943 10.3421 14.9176 12.7202 11.9848 12.7202H11.9524L11.95 12.7202C9.02718 12.7103 6.66508 10.3318 6.67433 7.40853ZM6.67433 7.40853C6.67433 7.40813 6.67433 7.40773 6.67434 7.40732L7.38862 7.40974H6.67433C6.67433 7.40934 6.67433 7.40894 6.67433 7.40853ZM11.9848 3.52879C9.84101 3.52879 8.1029 5.26633 8.1029 7.40974V7.41216C8.09567 9.54702 9.82035 11.2838 11.9538 11.2916H11.9848C14.1282 11.2916 15.8658 9.55354 15.8658 7.40974C15.8658 5.26614 14.1284 3.52879 11.9848 3.52879Z" fill="currentColor"/>
</svg>
