<svg xmlns="http://www.w3.org/2000/svg" viewBox="0 0 258 258">
  <g>
    <circle cx="129" cy="129" r="129"/>
    <circle cx="129" cy="128.5" r="119.5" fill="#FFF"/>
    <path d="M182.1,201.4 L68.9,201.4 C68.5,200.3 67.8,199.2 67.7,198.1 C67.5,196.1 67.6,194.1 67.6,192.2 C67.6,187.5 67.6,187.5 72.2,186.6 L72.2,119.4 C69.5,119.4 67,119.3 64.5,119.4 C61.7,119.5 59.4,118.7 58.3,115.9 C57.3,113.2 58.4,111 60.5,109.2 C63.9,106.3 67.3,103.5 70.5,100.4 C71.4,99.5 72.2,97.9 72.2,96.6 C72.4,90 72.3,83.4 72.3,76.8 C72.3,74.9 72.3,73.1 72.3,71.3 C67.6,70.6 67.6,70.6 67.6,66.1 C67.6,63.8 67.6,61.6 67.6,59.3 C67.6,57.3 68.8,56.3 71,56.6 C79.8,57.5 88.7,57.8 97.5,56.6 C99.9,56.3 101.2,57.2 101.2,59.3 C101.2,61.4 101.2,63.5 101.2,65.5 C101.2,70.3 101.2,70.3 96.6,71.4 C96.6,73.2 96.6,75 96.6,77.2 C97.6,76.3 98.3,75.8 99,75.2 C104.5,70.2 109.9,65.2 115.5,60.3 C121.2,55.4 129.6,55.4 135.2,60.3 C153.8,76.7 172.4,93.2 190.9,109.6 C192.6,111.1 193.3,113.5 192.6,115.6 C191.7,118.2 189.6,119.2 186.9,119.2 C184.2,119.2 181.5,119.2 178.7,119.2 L178.7,186.6 C183.1,187.2 183.2,187.3 183.2,191.5 C183.2,193.5 183.3,195.5 183.1,197.4 C183.2,198.9 182.5,200.2 182.1,201.4 Z M125.4,124.2 C124,124.2 122.9,124.2 121.8,124.2 C113,124.2 104.3,124.2 95.5,124.2 C92.4,124.2 91.7,124.9 91.7,128.1 C91.7,131.6 91.7,135.1 91.7,138.6 C91.7,143.2 92.1,143.6 96.7,143.6 C109.3,143.6 122,143.7 134.6,143.6 C136.9,143.6 137.8,144.3 137.7,146.7 C137.5,150.2 137.7,153.7 137.7,157.2 C137.7,159.8 139,161 142.4,160.4 C145.7,159.8 149.1,159.9 152.5,160.4 C155.9,161 157.1,159.8 157.1,157.2 C157.1,151.8 157.1,146.5 157,141.1 C157,140 156.9,138.8 156.6,137.7 C154.6,129.4 148.2,124.5 139,124.4 C136.2,124.3 133.4,124.4 130.7,124.4 L130.7,114.7 C133,114.7 135,114.7 137.1,114.7 C138.7,114.7 140,114.2 140,112.4 C140,110.6 138.8,110 137.2,110 C131.2,110 125.1,109.9 119.1,110.1 C118.1,110.1 116.4,111.4 116.2,112.3 C115.8,114.2 117.5,114.7 119.1,114.8 C121.2,114.8 123.3,114.8 125.5,114.8 L125.5,124.2 L125.4,124.2 Z M156.5,177 C156.4,176.7 156.4,176.1 156.3,175.6 C155.3,171 151.5,168.5 148.3,165.7 C147.9,165.3 146.3,165.5 145.8,166 C143.5,168.1 141.2,170.3 139.4,172.8 C137.1,176 137.7,180.2 140.2,183.3 C142.7,186.3 146.8,187.4 150.4,186.1 C153.9,184.7 156.5,181 156.5,177 Z"/>
    <path fill="#FFF" d="M125.4 115.5L125.4 105.8C123.2 105.8 121.1 105.8 119 105.8 117.3 105.8 115.7 105.2 116.1 103.3 116.3 102.4 117.9 101.1 119 101.1 125 100.9 131.1 101 137.1 101 138.8 101 139.9 101.6 139.9 103.4 139.9 105.2 138.6 105.7 137 105.7 134.9 105.7 132.9 105.7 130.6 105.7L130.6 115.4C133.3 115.4 136.1 115.4 138.9 115.4 148.1 115.6 154.5 120.4 156.5 128.7 156.8 129.8 156.9 131 156.9 132.1 157 137.5 156.9 142.8 157 148.2 157 150.8 155.8 152 152.4 151.4 149.1 150.8 145.7 150.8 142.3 151.4 138.9 152 137.6 150.7 137.6 148.2 137.6 144.7 137.5 141.2 137.6 137.7 137.7 135.3 136.9 134.6 134.5 134.6 121.9 134.7 109.2 134.6 96.6 134.6 92.1 134.6 91.6 134.2 91.6 129.6 91.6 126.1 91.6 122.6 91.6 119.1 91.6 116 92.3 115.3 95.4 115.2 104.2 115.2 112.9 115.2 121.7 115.2 122.9 115.5 124 115.5 125.4 115.5zM152.1 146.9C152.1 142.4 152.1 138.2 152.1 134 152.1 125.2 147.2 120.4 138.4 120.4 125.4 120.4 112.4 120.4 99.4 120.4 98.5 120.4 97.6 120.4 96.7 120.4L96.7 130C97.9 130 98.9 130 99.9 130 111.3 130 122.7 130 134.1 130 140.4 130 142.4 132 142.4 138.2 142.4 141.1 142.4 143.9 142.4 146.9L152.1 146.9zM156.5 168.4C156.5 172.4 154 176.1 150.4 177.4 146.7 178.7 142.7 177.6 140.2 174.6 137.7 171.5 137.1 167.3 139.4 164.1 141.2 161.6 143.5 159.5 145.8 157.3 146.3 156.8 147.9 156.6 148.3 157 151.5 159.8 155.3 162.3 156.3 166.9 156.3 167.5 156.4 168 156.5 168.4zM147.2 162.7C142.5 166.5 141.7 169.5 144.4 172 146 173.5 148.5 173.4 150.1 171.9 152.7 169.4 151.9 166.6 147.2 162.7z"/>
    <path d="M152.1 146.9L142.5 146.9C142.5 144 142.5 141.1 142.5 138.2 142.5 131.9 140.5 130 134.2 130 122.8 130 111.4 130 100 130 99 130 98 130 96.8 130L96.8 120.4C97.7 120.4 98.6 120.4 99.5 120.4 112.5 120.4 125.5 120.4 138.5 120.4 147.3 120.4 152.2 125.2 152.2 134 152.1 138.2 152.1 142.4 152.1 146.9zM147.2 162.7C151.9 166.6 152.7 169.4 150.1 171.9 148.5 173.4 146 173.4 144.4 172 141.7 169.5 142.5 166.5 147.2 162.7z"/>
  </g>
</svg>
