<svg width="24" height="24" viewBox="0 0 24 24" xmlns="http://www.w3.org/2000/svg">
<path fill-rule="evenodd" clip-rule="evenodd" d="M21.2728 15.1066H17.3502C15.5119 15.1066 14.0157 13.658 14.0147 11.878C14.0147 10.0962 15.5109 8.64663 17.3502 8.64569H21.2728C21.674 8.64569 21.9996 8.96113 21.9996 9.3498C21.9996 9.73848 21.674 10.0539 21.2728 10.0539H17.3502C16.3123 10.0549 15.4683 10.8726 15.4683 11.8771C15.4683 12.8807 16.3133 13.6984 17.3502 13.6984H21.2728C21.674 13.6984 21.9996 14.0139 21.9996 14.4025C21.9996 14.7912 21.674 15.1066 21.2728 15.1066Z""/>
<path fill-rule="evenodd" clip-rule="evenodd" d="M17.7936 12.523H17.4912C17.0901 12.523 16.7645 12.2076 16.7645 11.8189C16.7645 11.4302 17.0901 11.1148 17.4912 11.1148H17.7936C18.1948 11.1148 18.5204 11.4302 18.5204 11.8189C18.5204 12.2076 18.1948 12.523 17.7936 12.523Z""/>
<path fill-rule="evenodd" clip-rule="evenodd" d="M7.81183 4.40823C5.40863 4.40823 3.45312 6.30277 3.45312 8.63104V15.369C3.45312 17.6972 5.40863 19.5918 7.81183 19.5918H16.1882C18.5914 19.5918 20.5459 17.6972 20.5459 15.369V8.63104C20.5459 6.30277 18.5914 4.40823 16.1882 4.40823H7.81183ZM16.1882 21H7.81183C4.60724 21 1.99957 18.4736 1.99957 15.369V8.63104C1.99957 5.52543 4.60724 3 7.81183 3H16.1882C19.3928 3 21.9995 5.52543 21.9995 8.63104V15.369C21.9995 18.4736 19.3928 21 16.1882 21Z""/>
<path fill-rule="evenodd" clip-rule="evenodd" d="M12.3537 8.66869H7.12191C6.72073 8.66869 6.39513 8.35325 6.39513 7.96457C6.39513 7.5759 6.72073 7.26046 7.12191 7.26046H12.3537C12.7549 7.26046 13.0805 7.5759 13.0805 7.96457C13.0805 8.35325 12.7549 8.66869 12.3537 8.66869Z""/>
</svg>
