<svg viewBox="0 0 20 20" fill="none" xmlns="http://www.w3.org/2000/svg">
<path fill-rule="evenodd" clip-rule="evenodd" d="M12.0647 3.70174L18.122 14.2143C18.2553 14.5281 18.3137 14.7833 18.3303 15.0484C18.3636 15.6677 18.147 16.2696 17.7221 16.7329C17.2972 17.1945 16.7223 17.467 16.0974 17.5H3.89941C3.64112 17.4843 3.38283 17.4257 3.14121 17.3349C1.93308 16.8477 1.34984 15.4769 1.84143 14.2887L7.9404 3.69431C8.1487 3.3219 8.46531 3.00068 8.85691 2.79424C9.99005 2.16585 11.4315 2.57872 12.0647 3.70174ZM10.7233 10.6298C10.7233 11.0261 10.3983 11.3573 9.99838 11.3573C9.59845 11.3573 9.26517 11.0261 9.26517 10.6298V8.29373C9.26517 7.89654 9.59845 7.57533 9.99838 7.57533C10.3983 7.57533 10.7233 7.89654 10.7233 8.29373V10.6298ZM9.99838 14.1813C9.59845 14.1813 9.26517 13.8502 9.26517 13.4547C9.26517 13.0575 9.59845 12.7272 9.99838 12.7272C10.3983 12.7272 10.7233 13.05 10.7233 13.4456C10.7233 13.8502 10.3983 14.1813 9.99838 14.1813Z" fill="white"/>
</svg>
