<svg width="24" height="24" viewBox="0 0 24 24" fill="none" xmlns="http://www.w3.org/2000/svg">
<path fill-rule="evenodd" clip-rule="evenodd" d="M9.56833 4.39952C10.6479 2.53253 13.3659 2.53401 14.444 4.40086L21.6252 16.8368C22.6966 18.6919 21.3429 21 19.1868 21H4.81332C2.6555 21 1.30373 18.6904 2.37493 16.8358L9.56833 4.39952ZM13.1428 5.13791C12.6399 4.26717 11.3725 4.26669 10.8691 5.13729L3.67608 17.573C3.17674 18.4381 3.80739 19.5154 4.81332 19.5154H19.1868C20.1926 19.5154 20.8235 18.4386 20.324 17.574L13.1428 5.13791Z" fill="currentColor"/>
<path fill-rule="evenodd" clip-rule="evenodd" d="M11.9971 9.49734C12.411 9.49734 12.7466 9.82968 12.7466 10.2396V13.3078C12.7466 13.7178 12.411 14.0501 11.9971 14.0501C11.5831 14.0501 11.2476 13.7178 11.2476 13.3078V10.2396C11.2476 9.82968 11.5831 9.49734 11.9971 9.49734Z" fill="currentColor"/>
<path fill-rule="evenodd" clip-rule="evenodd" d="M10.9902 16.3613C10.9902 15.8147 11.4376 15.3716 11.9896 15.3716H11.9996C12.5515 15.3716 12.9989 15.8147 12.9989 16.3613C12.9989 16.9079 12.5515 17.3511 11.9996 17.3511H11.9896C11.4376 17.3511 10.9902 16.9079 10.9902 16.3613Z" fill="currentColor"/>
</svg>
