<svg width="200" height="200" viewBox="0 0 200 200" fill="none" xmlns="http://www.w3.org/2000/svg">
<path fill-rule="evenodd" clip-rule="evenodd" d="M102.723 0.0616752C140.076 1.00929 175.55 19.937 189.041 57.6938C205.301 103.204 206.867 160.396 170.056 188.511C134.233 215.873 88.9702 189.388 53.8869 160.924C20.8873 134.15 -9.88174 95.4084 3.00089 52.9742C15.7882 10.8539 61.8151 -0.976115 102.723 0.0616752Z" fill="#F2F5F6"/>
<ellipse cx="106" cy="187" rx="60" ry="4" fill="#CCD6DB"/>
<path d="M55.2556 59.5828L55.868 55.2256C56.0832 53.6943 57.4991 52.6273 59.0304 52.8425L58.5483 52.7748C53.4879 52.0636 48.8075 55.6003 48.0963 60.6607L36.6109 142.384C35.6425 149.275 40.4423 155.656 47.3333 156.625L70.3615 159.861L89.8323 162.597L107.012 165.012L129.919 168.231L136.982 169.224C145.732 170.454 153.823 164.357 155.053 155.606L161.9 106.885C163.13 98.1346 157.033 90.0439 148.283 88.8141L68.8731 77.6539C60.1226 76.424 54.0258 68.3334 55.2556 59.5828Z" fill="white"/>
<path d="M51.4439 153.186L85.1497 157.923" stroke="white" stroke-width="1.4" stroke-linecap="round"/>
<path d="M134.025 147.723L155.827 150.787C160.203 151.402 164.248 148.355 164.863 143.98L165.913 136.507L166.6 131.62L167.179 127.501L167.758 123.381L167.802 123.064C168.417 118.689 165.369 114.643 160.993 114.029L139.191 110.964C129.04 109.538 119.655 116.61 118.228 126.761C116.802 136.911 123.874 146.297 134.025 147.723Z" fill="white"/>
<path d="M166.6 131.62C166.403 133.019 166.166 134.709 165.913 136.507C165.57 138.946 165.199 141.586 164.863 143.98C164.248 148.355 160.203 151.402 155.827 150.787L134.025 147.723C123.874 146.297 116.802 136.911 118.228 126.761V126.761C119.655 116.61 129.04 109.538 139.191 110.964L160.677 113.984C165.227 114.624 168.397 118.831 167.758 123.381V123.381" stroke="#1A1A1A" stroke-linecap="round"/>
<path d="M149.237 88.9483L150.24 81.8184C151.469 73.0678 145.373 64.9771 136.622 63.7473L63.1297 53.4187M63.1297 53.4187L59.0304 52.8425C57.4991 52.6273 56.0832 53.6943 55.868 55.2256L55.2556 59.5828C54.0258 68.3334 60.1226 76.424 68.8731 77.6539L148.283 88.8141C157.033 90.0439 163.13 98.1346 161.9 106.885L160.898 114.015M63.1297 53.4187L58.5483 52.7748V52.7748C53.4879 52.0636 48.8075 55.6003 48.0963 60.6607C43.9343 90.2753 41.0618 110.714 37.084 139.018C35.8542 147.768 41.9497 155.868 50.7002 157.098L70.3615 159.861L89.8323 162.597M107.012 165.012L129.919 168.231L136.982 169.224C145.732 170.454 153.823 164.357 155.053 155.606L155.69 151.07" stroke="#1A1A1A" stroke-linecap="round"/>
<path d="M114.865 56.8192C93.9911 65.5816 67.611 76.7254 66.773 77.3588L146.947 88.6265L135.456 64.6565C131.773 56.9739 122.721 53.5217 114.865 56.8192Z" fill="white"/>
<path d="M84.1924 69.7602C74.4315 73.9097 67.2052 77.0321 66.773 77.3588L146.947 88.6265L135.456 64.6565C131.773 56.9739 122.716 53.5239 114.86 56.8215C108.174 59.6282 100.923 62.679 94.1278 65.5505C93.1736 65.9537 92.2284 66.3534 91.2951 66.7483" stroke="#1A1A1A" stroke-linecap="round"/>
<path d="M37.3097 83.1241C34.3826 85.5223 28.8114 87.2983 24.785 87.5035C24.1656 87.5351 23.7497 88.1999 24.0504 88.7423C25.3045 91.0044 27.5962 94.9477 29.9151 98.4957C33.4578 103.916 43.6865 96.5769 48.5096 93.8145C53.789 90.7908 59.09 91.4719 59.5904 90.9737C60.0909 90.4755 54.3711 80.7263 52.6483 78.6153C50.9117 76.4874 41.7217 79.5092 37.3097 83.1241Z" fill="white"/>
<path d="M42.6083 97.294C42.2796 97.477 41.9474 97.6579 41.6132 97.835C37.0702 100.242 32.1297 101.94 29.8816 98.5003C27.5627 94.9523 25.271 91.009 24.0169 88.7469C23.7162 88.2045 24.1321 87.5397 24.7515 87.5081C28.7779 87.3029 34.3491 85.5269 37.2761 83.1287C41.6882 79.5139 50.8782 76.4921 52.6148 78.62C54.3376 80.7309 60.0574 90.4802 59.5569 90.9783C59.0565 91.4765 53.7555 90.7954 48.4761 93.8192C47.7332 94.2446 46.8621 94.7787 45.9069 95.358C45.5866 95.5522 45.2569 95.7515 44.9194 95.9535" stroke="#1A1A1A" stroke-linecap="round"/>
<path d="M36.6885 79.9619C33.8818 82.5005 28.2794 83.8187 24.2449 83.9218C23.6249 83.9377 23.2094 84.5985 23.5101 85.141C24.7642 87.403 27.0559 91.3463 29.3748 94.8943C32.9175 100.315 43.1462 92.9755 47.9693 90.2132C53.2487 87.1894 58.5497 87.8705 59.0501 87.3724C59.5506 86.8742 53.8308 77.1249 52.108 75.014C51.3791 74.1208 49.5485 73.9419 47.2485 74.4158C47.0222 74.4624 46.7914 74.5154 46.5567 74.5746C46.2208 74.6593 45.8768 74.7568 45.5266 74.867C45.2276 74.961 44.924 75.0642 44.6169 75.1766C44.3883 75.2603 44.1578 75.349 43.9257 75.4427C43.7749 75.5036 43.6234 75.5666 43.4714 75.6317C43.2547 75.7246 43.0369 75.8218 42.8185 75.9232C42.5273 76.0583 42.235 76.201 41.9424 76.3511C41.7623 76.4435 41.5822 76.5387 41.4021 76.6367C39.776 77.5215 38.156 78.6346 36.6885 79.9619Z" fill="#B3D9C8"/>
<path d="M43.9257 75.4427C43.7749 75.5036 43.6234 75.5666 43.4714 75.6317M42.3509 76.1463C42.2148 76.2129 42.0786 76.2812 41.9424 76.3511C41.7623 76.4435 41.5822 76.5387 41.4021 76.6367C39.776 77.5215 38.156 78.6346 36.6885 79.9619C33.8818 82.5005 28.2794 83.8187 24.2449 83.9218C23.6249 83.9377 23.2094 84.5985 23.5101 85.141C24.7642 87.403 27.0559 91.3463 29.3748 94.8943C32.9175 100.315 43.1462 92.9755 47.9693 90.2132C53.2487 87.1894 58.5497 87.8705 59.0501 87.3724C59.5506 86.8742 53.8308 77.1249 52.108 75.014C51.3791 74.1208 49.5485 73.9419 47.2485 74.4158C47.0222 74.4624 46.7914 74.5154 46.5567 74.5746C46.391 74.6164 46.2234 74.6613 46.054 74.7093" stroke="#1A1A1A" stroke-linecap="round"/>
<ellipse cx="41.2789" cy="85.7342" rx="5.43706" ry="5.57828" transform="rotate(-8 41.2789 85.7342)" fill="#62AE8B"/>
<path d="M41.4377 81.7902L41.9238 83.2193C39.9659 83.4945 38.9835 85.13 41.1916 84.6057C44.9983 83.702 44.7105 87.3199 43.3207 88.0857L43.9576 89.0657L42.8377 89.7223L42.4204 88.7826C42.0603 89.0614 41.0911 89.3022 40.6515 89.3878L40.2354 87.9488C43.0028 87.346 43.416 85.7192 40.1688 86.4608C37.8805 86.9834 37.7381 83.8789 39.0482 83.053L38.5708 82.1932L39.5509 81.5563L39.9485 82.3561C40.6923 81.9663 41.2512 81.8165 41.4377 81.7902Z" fill="white"/>
<path d="M38.288 132.199C38.5265 132.06 38.6071 131.754 38.4679 131.515C38.3288 131.276 38.0226 131.196 37.7841 131.335L38.0361 131.767L38.288 132.199ZM25.6692 151.701L25.7247 152.198L25.6692 151.701ZM163.01 78.1361C163.212 77.9481 163.224 77.6317 163.036 77.4294C162.848 77.2271 162.531 77.2155 162.329 77.4035L162.669 77.7698L163.01 78.1361ZM146.264 66.7681C146.011 66.8791 145.896 67.1741 146.007 67.4269C146.119 67.6798 146.414 67.7947 146.666 67.6837L146.465 67.2259L146.264 66.7681ZM49.0068 144.189C49.2648 144.09 49.3939 143.801 49.2953 143.543C49.1967 143.285 48.9077 143.156 48.6497 143.255L48.8283 143.722L49.0068 144.189ZM81.6141 129.196C81.3643 129.314 81.2572 129.612 81.375 129.862C81.4927 130.112 81.7906 130.219 82.0404 130.101L81.8272 129.649L81.6141 129.196ZM68.1166 135.85L68.3155 136.308C68.5678 136.199 68.6844 135.906 68.5765 135.653C68.4686 135.401 68.1768 135.282 67.9232 135.389L68.1166 135.85ZM53.7528 141.874L53.5594 141.413C53.3058 141.519 53.1857 141.81 53.2906 142.065C53.3954 142.319 53.6858 142.441 53.9406 142.337L53.7528 141.874ZM158.827 81.2458L158.496 80.8707L158.827 81.2458ZM168.571 71.395C168.408 71.6177 168.456 71.9306 168.679 72.0938C168.902 72.2571 169.214 72.2088 169.378 71.9861L168.974 71.6905L168.571 71.395ZM162.37 59.9168C162.105 59.9963 161.955 60.275 162.035 60.5395C162.114 60.804 162.393 60.954 162.657 60.8746L162.514 60.3957L162.37 59.9168ZM155.435 63.9751C155.686 63.861 155.798 63.5647 155.684 63.3132C155.57 63.0617 155.273 62.9503 155.022 63.0643L155.228 63.5197L155.435 63.9751ZM38.0361 131.767L37.7841 131.335C33.2618 133.973 25.7792 139.473 21.5934 144.093C20.5453 145.249 19.6866 146.37 19.1338 147.392C18.5907 148.396 18.2926 149.397 18.5206 150.269C18.7625 151.195 19.5403 151.797 20.7159 152.101C21.8818 152.403 23.53 152.443 25.7247 152.198L25.6692 151.701L25.6137 151.204C23.4627 151.444 21.9573 151.389 20.9666 151.133C19.9856 150.879 19.6038 150.459 19.4881 150.016C19.3586 149.521 19.5051 148.807 20.0134 147.867C20.5122 146.945 21.312 145.893 22.3345 144.764C26.4311 140.242 33.8233 134.803 38.288 132.199L38.0361 131.767ZM25.6692 151.701L25.7247 152.198C28.5782 151.879 31.9859 150.794 35.8649 149.341C39.7255 147.895 44.1795 146.034 49.0068 144.189L48.8283 143.722L48.6497 143.255C43.7462 145.129 39.4073 146.947 35.5142 148.405C31.6397 149.856 28.3332 150.9 25.6137 151.204L25.6692 151.701ZM53.7528 141.874L53.9406 142.337C57.3789 140.944 64.6144 137.913 68.3155 136.308L68.1166 135.85L67.9176 135.391C64.2242 136.993 56.9961 140.02 53.565 141.411L53.7528 141.874ZM68.1166 135.85L67.9232 135.389L53.5594 141.413L53.7528 141.874L53.9462 142.335L68.31 136.311L68.1166 135.85ZM81.8272 129.649L82.0404 130.101C107.632 118.038 136.422 101.656 159.157 81.6209L158.827 81.2458L158.496 80.8707C135.86 100.818 107.163 117.153 81.6141 129.196L81.8272 129.649ZM158.827 81.2458L159.157 81.6209C160.462 80.4714 161.747 79.3097 163.01 78.1361L162.669 77.7698L162.329 77.4035C161.073 78.5709 159.794 79.7267 158.496 80.8707L158.827 81.2458ZM168.974 71.6905L169.378 71.9861C172.224 68.1022 174.139 65.1625 175.179 63.0042C175.698 61.927 176.016 61.0112 176.109 60.2498C176.202 59.4821 176.073 58.8084 175.616 58.3112C175.173 57.8275 174.506 57.6068 173.742 57.5356C172.972 57.4638 172.027 57.5368 170.935 57.7148C168.749 58.0712 165.859 58.8691 162.37 59.9168L162.514 60.3957L162.657 60.8746C166.151 59.8254 168.983 59.0463 171.096 58.7018C172.153 58.5294 173.002 58.471 173.649 58.5313C174.303 58.5923 174.678 58.7672 174.88 58.9873C175.069 59.1939 175.189 59.532 175.116 60.1288C175.043 60.7318 174.778 61.5331 174.278 62.5701C173.281 64.6401 171.413 67.5173 168.571 71.395L168.974 71.6905ZM155.228 63.5197L155.022 63.0643C153.436 63.7832 152.003 64.3775 150.586 64.9582C149.171 65.5384 147.771 66.1063 146.264 66.7681L146.465 67.2259L146.666 67.6837C148.159 67.028 149.546 66.4656 150.966 65.8835C152.384 65.3019 153.832 64.7019 155.435 63.9751L155.228 63.5197Z" fill="#1A1A1A"/>
<path d="M140.928 129.953C141.134 128.486 140.906 127.059 140.342 125.801M137.87 122.754C136.898 122.048 135.744 121.563 134.471 121.385C130.322 120.801 126.486 123.692 125.903 127.841C125.32 131.99 128.21 135.826 132.359 136.409C135.86 136.901 139.138 134.92 140.427 131.798" stroke="#1A1A1A" stroke-linecap="round"/>
<ellipse cx="133.439" cy="128.928" rx="7.06207" ry="7.06207" transform="rotate(8 133.439 128.928)" fill="#B3D9C8"/>
<path d="M132.624 135.522C132.583 135.811 132.314 136.015 132.029 135.953C130.751 135.674 129.572 135.046 128.627 134.133C127.681 133.22 127.012 132.064 126.689 130.797C126.617 130.513 126.811 130.238 127.099 130.187C127.388 130.136 127.66 130.33 127.736 130.612C128.017 131.659 128.578 132.613 129.363 133.371C130.147 134.128 131.121 134.655 132.177 134.9C132.462 134.966 132.664 135.232 132.624 135.522Z" fill="#008146"/>
<path d="M135.189 122.734C135.263 122.451 135.554 122.28 135.83 122.375C136.672 122.664 137.453 123.111 138.131 123.693C138.808 124.274 139.369 124.978 139.783 125.765C139.919 126.024 139.794 126.337 139.526 126.454C139.257 126.57 138.948 126.446 138.808 126.188C138.46 125.547 137.997 124.974 137.441 124.497C136.885 124.02 136.247 123.649 135.561 123.403C135.285 123.304 135.115 123.017 135.189 122.734Z" fill="#FFC2D6"/>
</svg>
