<svg width="200" height="200" viewBox="0 0 200 200" fill="none" xmlns="http://www.w3.org/2000/svg">
<path fill-rule="evenodd" clip-rule="evenodd" d="M97.0948 199.935C135.904 200.441 182.093 199.105 195.693 153.426C210.503 103.685 185.093 51.3033 150.353 21.0552C118.139 -6.99443 75.9751 -7.13972 44.005 21.3475C10.8165 50.9205 -9.64504 103.044 4.59242 150.937C17.538 194.485 60.1025 199.453 97.0948 199.935Z" fill="#F2F5F6"/>
<ellipse cx="100" cy="187" rx="60" ry="4" fill="#CCD6DB"/>
<path d="M35.705 86.8804L43.6379 143.326C44.8677 152.076 52.9584 158.173 61.709 156.943L63.3568 156.712L70.4629 155.713L166.677 142.191C175.428 140.961 181.525 132.87 180.295 124.12L172.362 67.6745C171.132 58.9239 163.042 52.8271 154.291 54.0569L138.977 56.2091L120.939 58.7443L84.3147 63.8915L78.8484 64.6597L73.3821 65.4279L63.5428 66.8108L49.3226 68.8093C40.572 70.0391 34.4752 78.1298 35.705 86.8804Z" fill="white"/>
<path d="M63.3568 156.712L61.709 156.943C52.9584 158.173 44.8677 152.076 43.6379 143.326L35.705 86.8804C34.4752 78.1298 40.572 70.0391 49.3226 68.8093L63.5428 66.8108L73.3821 65.4279L78.8484 64.6597L84.3147 63.8915L120.939 58.7443M70.4629 155.713L166.677 142.191C175.428 140.961 181.525 132.87 180.295 124.12L172.362 67.6745C171.132 58.9239 163.042 52.8271 154.291 54.0569L138.977 56.2091" stroke="#1A1A1A" stroke-linecap="round"/>
<path d="M55.2589 132.604L94.8696 127.037" stroke="#ECECEE" stroke-width="4" stroke-linecap="round"/>
<path d="M56.7202 143.002L102.768 136.53M116.136 134.651L110.195 135.486" stroke="#ECECEE" stroke-width="4" stroke-linecap="round"/>
<path d="M35.638 80.6744L27.7051 137.12C26.4753 145.87 32.5721 153.961 41.3226 155.191L42.9704 155.422L50.0766 156.421L146.291 169.943C155.042 171.173 163.132 165.076 164.362 156.326L172.295 99.8803C173.525 91.1298 167.428 83.0391 158.677 81.8093L143.364 79.6571L125.325 77.1219L88.7011 71.9747L83.2349 71.2065L77.7686 70.4383L67.9293 69.0554L53.709 67.0569C44.9585 65.8271 36.8678 71.9239 35.638 80.6744Z" fill="white"/>
<path d="M42.9704 155.422L41.3226 155.191C32.5721 153.961 26.4753 145.87 27.7051 137.12L35.638 80.6744C36.8678 71.9239 44.9585 65.8271 53.709 67.0569L67.9293 69.0554L77.7686 70.4383L83.2349 71.2065L88.7011 71.9747L125.325 77.1219M50.0766 156.421L146.291 169.943C155.042 171.173 163.132 165.076 164.362 156.326L172.295 99.8803C173.525 91.1298 167.428 83.0391 158.677 81.8093L143.364 79.6571" stroke="#1A1A1A" stroke-linecap="round"/>
<path d="M41.8311 130.016L81.4419 135.583" stroke="#ECECEE" stroke-width="4" stroke-linecap="round"/>
<path d="M40.3698 140.414L86.4173 146.886M99.7859 148.765L93.8443 147.93" stroke="#ECECEE" stroke-width="4" stroke-linecap="round"/>
<path d="M165.667 145.932C165.428 145.793 165.348 145.487 165.487 145.248C165.626 145.009 165.932 144.929 166.171 145.068L165.919 145.5L165.667 145.932ZM180.293 168.669L180.348 168.172L180.293 168.669ZM20.7161 83.1049C20.5138 82.9169 20.5022 82.6006 20.6902 82.3983C20.8782 82.196 21.1945 82.1844 21.3968 82.3723L21.0565 82.7386L20.7161 83.1049ZM40.0917 70.0256C40.3445 70.1366 40.4595 70.4316 40.3484 70.6844C40.2374 70.9373 39.9424 71.0522 39.6896 70.9412L39.8906 70.4834L40.0917 70.0256ZM153.196 159.862C152.938 159.763 152.809 159.474 152.908 159.217C153.006 158.959 153.295 158.829 153.553 158.928L153.375 159.395L153.196 159.862ZM115.233 142.586C115.483 142.703 115.59 143.001 115.472 143.251C115.354 143.501 115.056 143.608 114.807 143.49L115.02 143.038L115.233 142.586ZM130.956 150.245L130.757 150.704C130.505 150.595 130.388 150.302 130.496 150.049C130.604 149.796 130.896 149.678 131.149 149.784L130.956 150.245ZM147.651 157.247L147.844 156.786C148.098 156.893 148.218 157.184 148.113 157.438C148.008 157.692 147.718 157.814 147.463 157.711L147.651 157.247ZM25.5227 86.7788L25.8533 86.4037L25.5227 86.7788ZM14.1314 75.3771C14.2947 75.5998 14.2465 75.9127 14.0237 76.076C13.801 76.2392 13.4881 76.191 13.3249 75.9683L13.7282 75.6727L14.1314 75.3771ZM21.3813 62.0658C21.6457 62.1452 21.7958 62.4239 21.7164 62.6884C21.6369 62.9529 21.3582 63.1029 21.0937 63.0235L21.2375 62.5446L21.3813 62.0658ZM29.4988 66.631C29.2473 66.517 29.1359 66.2207 29.2499 65.9692C29.3639 65.7177 29.6603 65.6063 29.9118 65.7203L29.7053 66.1757L29.4988 66.631ZM165.919 145.5L166.171 145.068C171.422 148.132 180.112 154.519 184.97 159.881C186.186 161.223 187.179 162.52 187.818 163.699C188.446 164.861 188.78 166.001 188.523 166.985C188.252 168.021 187.38 168.706 186.03 169.056C184.689 169.403 182.785 169.451 180.237 169.166L180.293 168.669L180.348 168.172C182.852 168.452 184.613 168.39 185.779 168.088C186.935 167.788 187.411 167.286 187.556 166.732C187.714 166.125 187.532 165.273 186.938 164.175C186.354 163.095 185.419 161.866 184.229 160.552C179.46 155.288 170.861 148.962 165.667 145.932L165.919 145.5ZM180.293 168.669L180.237 169.166C176.932 168.797 172.979 167.539 168.471 165.85C163.981 164.169 158.813 162.01 153.196 159.862L153.375 159.395L153.553 158.928C159.247 161.105 164.299 163.22 168.821 164.914C173.325 166.601 177.177 167.818 180.348 168.172L180.293 168.669ZM147.651 157.247L147.463 157.711C143.467 156.091 135.058 152.569 130.757 150.704L130.956 150.245L131.155 149.787C135.448 151.649 143.85 155.167 147.839 156.784L147.651 157.247ZM130.956 150.245L131.149 149.784L147.844 156.786L147.651 157.247L147.458 157.708L130.763 150.706L130.956 150.245ZM115.02 143.038L114.807 143.49C85.0651 129.471 51.6101 110.434 25.1921 87.154L25.5227 86.7788L25.8533 86.4037C52.1721 109.596 85.5334 128.586 115.233 142.586L115.02 143.038ZM25.5227 86.7788L25.1921 87.154C23.6764 85.8183 22.1837 84.4685 20.7161 83.1049L21.0565 82.7386L21.3968 82.3723C22.8577 83.7298 24.3439 85.0736 25.8533 86.4037L25.5227 86.7788ZM13.7282 75.6727L13.3249 75.9683C10.0166 71.4544 7.79477 68.0427 6.58939 65.5412C5.98764 64.2924 5.62259 63.2373 5.51625 62.3652C5.40913 61.4867 5.55928 60.731 6.06791 60.1767C6.56413 59.6359 7.31572 59.383 8.19448 59.3011C9.07978 59.2186 10.1701 59.3022 11.4365 59.5087C13.971 59.922 17.3253 60.8479 21.3813 62.0658L21.2375 62.5446L21.0937 63.0235C17.033 61.8042 13.7372 60.8971 11.2756 60.4957C10.0439 60.2949 9.0497 60.2257 8.28728 60.2968C7.51833 60.3685 7.05908 60.5755 6.80473 60.8527C6.56278 61.1164 6.42264 61.5367 6.50889 62.2442C6.59593 62.9579 6.9079 63.8986 7.49026 65.1071C8.65308 67.5203 10.8278 70.8696 14.1314 75.3771L13.7282 75.6727ZM29.7053 66.1757L29.9118 65.7203C31.756 66.5565 33.4237 67.2477 35.07 67.9228C36.7149 68.5973 38.3415 69.2568 40.0917 70.0256L39.8906 70.4834L39.6896 70.9412C37.9534 70.1786 36.3403 69.5245 34.6906 68.848C33.0424 68.1721 31.3606 67.4752 29.4988 66.631L29.7053 66.1757Z" fill="#1A1A1A"/>
<path d="M130.397 90.7942C130.614 89.251 132.041 88.1758 133.584 88.3927L156.865 91.6646C158.408 91.8815 159.483 93.3083 159.266 94.8515L157.262 109.112C157.045 110.656 155.618 111.731 154.075 111.514L130.794 108.242C129.251 108.025 128.176 106.598 128.393 105.055L130.397 90.7942Z" fill="#B3D9C8"/>
<path d="M147.169 110.543L130.794 108.242C129.251 108.025 128.176 106.598 128.393 105.055L130.397 90.7942C130.614 89.251 132.041 88.1758 133.584 88.3927L136.381 88.7858M151.163 111.105L154.359 111.554C155.903 111.771 157.329 110.695 157.546 109.152L159.55 94.8915C159.767 93.3483 158.692 91.9214 157.149 91.7046L140.374 89.347" stroke="#1A1A1A" stroke-width="0.54" stroke-linecap="round"/>
<line x1="143.883" y1="91.4637" x2="152.398" y2="92.6605" stroke="#F2F9F6" stroke-width="1.08" stroke-linecap="round"/>
<line x1="131.072" y1="107.255" x2="139.588" y2="108.451" stroke="#62AE8B" stroke-width="1.08" stroke-linecap="round"/>
<line x1="154.263" y1="92.9227" x2="156.389" y2="93.2214" stroke="#F2F9F6" stroke-width="1.08" stroke-linecap="round"/>
</svg>
