<svg width="200" height="200" viewBox="0 0 200 200" fill="none" xmlns="http://www.w3.org/2000/svg">
<path fill-rule="evenodd" clip-rule="evenodd" d="M102.723 0.0616752C140.076 1.00929 175.55 19.937 189.041 57.6938C205.301 103.204 206.867 160.396 170.056 188.511C134.233 215.873 88.9702 189.388 53.8869 160.924C20.8873 134.15 -9.88174 95.4084 3.00089 52.9742C15.7882 10.8539 61.8151 -0.976115 102.723 0.0616752Z" fill="#F2F5F6"/>
<ellipse cx="92" cy="162" rx="60" ry="4" fill="#CCD6DB"/>
<path d="M17.9799 65.8461L28.1767 138.401C29.1043 145 35.2064 149.599 41.8063 148.671L47.0984 147.927L54.1031 146.943L152.611 133.099C159.211 132.171 163.809 126.069 162.881 119.469L152.685 46.9146C151.757 40.3147 145.655 35.7164 139.055 36.644L120.292 39.2809L102.511 41.7798L66.4105 46.8535L61.0224 47.6108L55.6342 48.368L45.9354 49.7311L28.2505 52.2165C21.6506 53.1441 17.0523 59.2463 17.9799 65.8461Z" fill="white"/>
<path d="M47.0984 147.927L41.8063 148.671C35.2064 149.599 29.1043 145 28.1767 138.401L17.9799 65.8461C17.0523 59.2463 21.6506 53.1441 28.2504 52.2165L45.9354 49.7311L55.6342 48.368L61.0224 47.6108L66.4105 46.8535L102.511 41.7799M54.1031 146.943L152.611 133.099C159.211 132.171 163.809 126.069 162.881 119.469L152.685 46.9146C151.757 40.3147 145.655 35.7164 139.055 36.644L120.292 39.2809" stroke="#1A1A1A" stroke-linecap="round"/>
<path d="M38.4342 82.8844C39.2056 82.5873 40.0353 82.4695 40.859 82.5397L42.974 82.7198C43.8261 82.7924 44.5994 83.2499 45.0726 83.9622C46.2146 85.6814 45.1707 88.0043 43.1269 88.2918L37.8942 89.0272C35.8372 89.316 34.1906 87.3462 34.8393 85.3728C35.1021 84.5731 35.7103 83.9338 36.4958 83.6312L38.4342 82.8844Z" fill="white" stroke="white" stroke-width="0.474319"/>
<path d="M38.5326 74.2687C40.3756 74.0096 42.074 75.2793 42.3297 77.0988C42.5852 78.9181 41.3025 80.606 39.4597 80.865C37.617 81.1237 35.9196 79.8548 35.6637 78.0356C35.408 76.2163 36.6899 74.5278 38.5326 74.2687Z" fill="white" stroke="white" stroke-width="0.474319"/>
<path d="M45.2169 83.7517V83.7517C44.7371 83.0293 43.9539 82.5654 43.0898 82.4918L40.8787 82.3033C40.0192 82.23 39.1542 82.3531 38.3492 82.6631L36.4106 83.4099C35.5586 83.7381 34.8991 84.4315 34.614 85.2989L34.1441 86.7284C33.6572 88.2097 34.8933 89.6879 36.4374 89.4709V89.4709M45.9763 84.8949V84.8949C46.8875 86.2666 46.0547 88.1193 44.4241 88.3485L39.8597 88.99" stroke="#1A1A1A" stroke-width="0.75" stroke-linecap="round"/>
<path d="M40.3898 74.2716C39.8127 74.0328 39.165 73.9401 38.5 74.0336C36.5295 74.3105 35.1544 76.1169 35.4287 78.0683C35.7029 80.0196 37.5227 81.377 39.4931 81.1001C41.4636 80.8231 42.8387 79.0168 42.5644 77.0654C42.5188 76.7409 42.4305 76.4328 42.3058 76.1459" stroke="#1A1A1A" stroke-width="0.75" stroke-linecap="round"/>
<path d="M147.434 100.884C148.205 100.587 149.035 100.469 149.859 100.54L151.974 100.72C152.826 100.792 153.599 101.25 154.072 101.962C155.214 103.681 154.17 106.004 152.127 106.292L146.894 107.027C144.837 107.316 143.19 105.346 143.839 103.373C144.102 102.573 144.71 101.934 145.496 101.631L147.434 100.884Z" fill="white" stroke="white" stroke-width="0.474319"/>
<path d="M147.532 92.2687C149.375 92.0096 151.074 93.2793 151.329 95.0988C151.585 96.9181 150.302 98.606 148.459 98.865C146.617 99.1237 144.919 97.8548 144.663 96.0356C144.408 94.2163 145.69 92.5278 147.532 92.2687Z" fill="white" stroke="white" stroke-width="0.474319"/>
<path d="M154.217 101.752V101.752C153.737 101.029 152.954 100.565 152.09 100.492L149.878 100.303C149.019 100.23 148.154 100.353 147.349 100.663L145.41 101.41C144.558 101.738 143.899 102.432 143.614 103.299L143.144 104.728C142.657 106.21 143.893 107.688 145.437 107.471V107.471M154.976 102.895V102.895C155.887 104.267 155.054 106.119 153.424 106.348L148.859 106.99" stroke="#1A1A1A" stroke-width="0.75" stroke-linecap="round"/>
<path d="M149.39 92.2716C148.812 92.0328 148.165 91.9401 147.5 92.0336C145.529 92.3105 144.154 94.1169 144.428 96.0683C144.703 98.0196 146.522 99.377 148.493 99.1001C150.463 98.8231 151.838 97.0168 151.564 95.0654C151.519 94.7409 151.43 94.4328 151.306 94.1459" stroke="#1A1A1A" stroke-width="0.75" stroke-linecap="round"/>
<path d="M54 75.9459L93.3923 69" stroke="#ECECEE" stroke-width="4" stroke-linecap="round"/>
<path d="M92 105.567L131.611 100" stroke="#ECECEE" stroke-width="4" stroke-linecap="round"/>
<path d="M55 83.0802L100.794 75.0056M114.088 72.6613L108.18 73.7032" stroke="#ECECEE" stroke-width="4" stroke-linecap="round"/>
<path d="M74 115.356L120.047 108.885M133.416 107.006L127.474 107.841" stroke="#ECECEE" stroke-width="4" stroke-linecap="round"/>
<g clip-path="url(#clip0_2077_2697)">
<path d="M162.26 52.3449C163.112 49.5573 163.109 46.7122 162.4 44.0918M158.531 37.4075C156.859 35.7356 154.764 34.4375 152.345 33.698C144.458 31.2867 136.109 35.7256 133.698 43.6127C131.287 51.4998 135.726 59.8483 143.613 62.2596C150.267 64.294 157.25 61.4523 160.718 55.7775" stroke="#1A1A1A" stroke-linecap="round"/>
<ellipse cx="147.89" cy="47.8123" rx="13.8667" ry="13.8667" transform="rotate(17 147.89 47.8123)" fill="#B3D9C8"/>
<path d="M144.229 60.245C144.061 60.7943 143.478 61.1071 142.942 60.8985C140.551 59.9661 138.458 58.385 136.905 56.324C135.351 54.2629 134.409 51.8152 134.172 49.259C134.119 48.6871 134.58 48.2127 135.154 48.2027C135.729 48.1926 136.198 48.6511 136.258 49.2222C136.483 51.3388 137.277 53.3621 138.566 55.0722C139.854 56.7823 141.58 58.1037 143.553 58.9029C144.085 59.1186 144.397 59.6957 144.229 60.245Z" fill="#62AE8B"/>
<path d="M153.132 36.233C153.363 35.707 153.979 35.4642 154.486 35.7338C156.029 36.5538 157.406 37.6597 158.543 38.9957C159.679 40.3317 160.549 41.8686 161.11 43.5234C161.295 44.0674 160.956 44.6361 160.4 44.7793C159.844 44.9226 159.281 44.5858 159.09 44.0444C158.611 42.6938 157.89 41.439 156.958 40.3432C156.026 39.2473 154.903 38.3336 153.647 37.6446C153.144 37.3684 152.902 36.7589 153.132 36.233Z" fill="#F2F9F6"/>
<path fill-rule="evenodd" clip-rule="evenodd" d="M154.311 44.6105C152.454 41.1174 148.107 39.7885 144.614 41.6466C141.879 43.1006 140.474 46.0656 140.873 48.9659C140.875 48.9758 140.876 48.9857 140.877 48.9956L140.879 49.0215C140.915 49.4425 140.956 49.9171 140.823 50.3521C140.73 50.6554 140.567 50.9299 140.414 51.1591C140.336 51.2759 140.254 51.3899 140.178 51.4948L140.159 51.5219C140.089 51.6189 140.025 51.7077 139.965 51.795C139.83 51.9925 139.753 52.1337 139.72 52.2416C139.693 52.3297 139.706 52.3552 139.716 52.3727C139.725 52.3901 139.739 52.4153 139.826 52.4419C139.934 52.4747 140.094 52.4896 140.332 52.4877C140.44 52.4869 140.551 52.4831 140.673 52.4789L140.699 52.478C140.828 52.4736 140.968 52.469 141.108 52.4691C141.382 52.4692 141.7 52.4862 142.002 52.5766L142.005 52.5776C142.435 52.709 142.807 53.0101 143.128 53.2698C143.14 53.2794 143.152 53.289 143.164 53.2985C143.171 53.3046 143.179 53.3109 143.186 53.3174C145.368 55.2697 148.61 55.764 151.346 54.3094C154.839 52.4517 156.171 48.1102 154.311 44.6105ZM144.068 40.62C148.128 38.4602 153.179 40.0044 155.338 44.0647C157.5 48.132 155.951 53.1772 151.892 55.336C148.715 57.0252 144.954 56.4514 142.422 54.194C142.049 53.8926 141.851 53.7468 141.667 53.6901C141.529 53.649 141.346 53.632 141.107 53.6319C140.99 53.6318 140.869 53.6357 140.739 53.6401L140.709 53.6411C140.591 53.6452 140.465 53.6496 140.341 53.6505C140.081 53.6525 139.772 53.6412 139.487 53.5541C139.182 53.461 138.878 53.2727 138.689 52.9188C138.501 52.5647 138.515 52.2067 138.608 51.9016C138.695 51.6162 138.858 51.3539 139.005 51.1391C139.074 51.0385 139.147 50.9375 139.215 50.8429C139.222 50.8333 139.229 50.8238 139.235 50.8144C139.312 50.7089 139.382 50.6103 139.447 50.5128C139.581 50.3132 139.668 50.1514 139.711 50.0121C139.768 49.8261 139.76 49.5842 139.719 49.1092C139.263 45.7478 140.892 42.3084 144.068 40.62Z" fill="white"/>
<path fill-rule="evenodd" clip-rule="evenodd" d="M150.064 48.9513C150.189 48.5419 150.623 48.3114 151.032 48.4366L151.039 48.4386C151.448 48.5638 151.679 48.9972 151.554 49.4066C151.428 49.816 150.995 50.0465 150.586 49.9213L150.579 49.9193C150.169 49.7941 149.939 49.3607 150.064 48.9513Z" fill="white"/>
<path fill-rule="evenodd" clip-rule="evenodd" d="M147.092 48.0427C147.217 47.6332 147.651 47.4028 148.06 47.528L148.067 47.53C148.476 47.6552 148.707 48.0886 148.582 48.498C148.456 48.9074 148.023 49.1378 147.614 49.0127L147.607 49.0106C147.197 48.8855 146.967 48.4521 147.092 48.0427Z" fill="white"/>
<path fill-rule="evenodd" clip-rule="evenodd" d="M144.12 47.134C144.245 46.7246 144.679 46.4942 145.088 46.6194L145.095 46.6214C145.504 46.7466 145.735 47.1799 145.61 47.5894C145.484 47.9988 145.051 48.2292 144.642 48.1041L144.635 48.102C144.226 47.9768 143.995 47.5435 144.12 47.134Z" fill="white"/>
</g>
<path d="M44.3724 131.226L28.8 130.401" stroke="#1A1A1A" stroke-width="0.531474"/>
<path d="M34.5575 137.215C34.1096 135.666 18.277 132.453 10.4167 131.04L11.4559 129.609L39.5484 131.964C39.5934 131.962 39.6361 131.965 39.6763 131.975L39.5484 131.964C38.4142 132.011 35.7776 135.439 34.5575 137.215Z" fill="#62AE8B"/>
<path d="M9.00022 130.884C16.1311 125.4 28.0778 122.673 33.1598 121.995C44.8194 127.843 45.3574 132.577 45.9041 134.532C43.2902 131.512 20.1744 130.844 9.00022 130.884Z" fill="#B3D9C8"/>
<path d="M31.2169 130.58L44.1903 130.875L45.3783 133.669C45.3903 133.686 45.3978 133.704 45.4005 133.721L45.3783 133.669C44.8422 132.888 35.2218 131.932 30.3735 131.545C30.292 131.03 30.6962 130.568 31.2169 130.58Z" fill="#F2F9F6"/>
<path d="M25.1095 126.248L36.4006 123.882C36.5475 123.851 36.7006 123.884 36.822 123.972L39.6933 126.058C40.1001 126.354 39.907 126.997 39.4047 127.019L24.6116 127.682C24.3938 127.692 24.2144 127.513 24.2232 127.295C24.2438 126.784 24.609 126.353 25.1095 126.248Z" fill="#62AE8B"/>
<path d="M9.00005 130.884C13.8228 126.171 27.1159 122.994 33.1596 121.995L36.7219 123.709M9.00005 130.884C17.2056 132.3 33.4524 135.499 34.4107 137.229C34.4344 137.271 34.5065 137.286 34.5353 137.246C35.8016 135.511 38.2633 132.311 38.5992 132.555M9.00005 130.884C16.9853 131.076 30.3408 131.618 38.5992 132.555M24.3366 127.822L41.0129 126.826C43.2701 128.292 45.2054 132.575 45.8822 134.451C45.6722 133.769 42.7802 133.029 38.5992 132.555" stroke="#1A1A1A" stroke-linecap="round"/>
<path d="M163 117C174.76 121.113 195.464 135.4 171.5 133.653C164.543 133.145 154.964 130.118 142.438 127.625M15.5379 84.3798C0.249539 74.3599 -3.29803 65.7567 14.5595 68.1878M131.542 124.897C98.3848 116.065 51.3185 104.937 20.9178 87.787" stroke="#1A1A1A" stroke-linecap="round"/>
<defs>
<clipPath id="clip0_2077_2697">
<rect width="32" height="32" fill="white" transform="translate(137.356 28) rotate(17)"/>
</clipPath>
</defs>
</svg>
