<svg width="206" height="200" viewBox="0 0 206 200" fill="none" xmlns="http://www.w3.org/2000/svg">
<path fill-rule="evenodd" clip-rule="evenodd" d="M102.723 0.0616752C140.076 1.00929 175.55 19.937 189.041 57.6938C205.301 103.204 206.867 160.396 170.056 188.511C134.233 215.873 88.9702 189.388 53.8869 160.924C20.8873 134.15 -9.88174 95.4084 3.00089 52.9742C15.7882 10.8539 61.8151 -0.976115 102.723 0.0616752Z" fill="#F2F5F6"/>
<ellipse cx="100" cy="187" rx="60" ry="4" fill="#CCD6DB"/>
<path d="M60.9129 138.012C67.1731 113.635 69.6091 82.6899 70.2395 59.89C70.5116 50.0471 79.1937 42.3763 88.9445 43.7467L150.432 52.3882C158.215 53.482 164.068 60.0526 163.934 67.9107C163.524 92.1639 161.004 128.28 153.46 154.999C150.6 165.132 140.336 170.634 129.91 169.169L75.3389 161.499C64.673 160 58.2338 148.444 60.9129 138.012Z" fill="white"/>
<path d="M160.94 114.455C162.868 97.7179 163.711 81.0788 163.934 67.9258C164.068 60.0677 158.215 53.482 150.432 52.3882L88.9445 43.7467C79.1937 42.3763 70.5115 50.0571 70.2392 59.9C70.1515 63.0708 70.0288 66.3992 69.8658 69.8454L69.1904 81.3635C69.0631 83.1784 68.9243 85.0119 68.7735 86.859M158.714 128.266C157.269 137.103 155.455 146.478 153.214 154.914C150.51 165.089 140.336 170.634 129.91 169.169L75.3389 161.499C64.673 160 58.2346 148.441 60.9136 138.009C64.5819 123.724 66.937 107.184 68.3852 91.3486" stroke="#1A1A1A" stroke-linecap="round"/>
<path d="M92.4807 109.199L132.091 114.766" stroke="#ECECEE" stroke-width="4" stroke-linecap="round"/>
<path d="M81.1167 118.205L127.164 124.677M140.533 126.555L134.591 125.72" stroke="#ECECEE" stroke-width="4" stroke-linecap="round"/>
<path d="M59.3135 159.247C36.7009 155.75 37.2944 147.194 38.3661 140.494C38.7637 138.008 41.2128 136.001 43.7053 136.352L107.923 145.377C109.818 145.643 111.205 147.217 110.965 149.116C110.093 156.011 108.199 165.773 132.593 169.546L59.3135 159.247Z" fill="white"/>
<path d="M38.3661 140.494L38.8598 140.573L38.3661 140.494ZM59.3135 159.247L59.2371 159.741L59.2439 159.742L59.3135 159.247ZM132.593 169.546L132.524 170.041C132.796 170.079 133.048 169.891 133.088 169.619C133.128 169.347 132.941 169.094 132.67 169.052L132.593 169.546ZM110.965 149.116L110.469 149.053L110.469 149.053L110.965 149.116ZM38.3661 140.494L37.8724 140.415C37.3368 143.763 36.8767 147.773 39.5573 151.37C42.2235 154.947 47.898 157.987 59.2371 159.741L59.3135 159.247L59.3899 158.753C48.1164 157.009 42.7813 154.022 40.3591 150.772C37.9512 147.542 38.3237 143.924 38.8598 140.573L38.3661 140.494ZM43.7053 136.352L43.6357 136.847L107.853 145.872L107.923 145.377L107.992 144.882L43.7748 135.857L43.7053 136.352ZM132.593 169.546L132.663 169.051L59.3831 158.752L59.3135 159.247L59.2439 159.742L132.524 170.041L132.593 169.546ZM110.965 149.116L110.469 149.053C110.038 152.456 109.3 156.82 111.886 160.775C114.473 164.734 120.282 168.148 132.517 170.04L132.593 169.546L132.67 169.052C120.51 167.171 115.069 163.818 112.723 160.228C110.374 156.635 111.019 152.671 111.461 149.178L110.965 149.116ZM107.923 145.377L107.853 145.872C109.517 146.106 110.67 147.464 110.469 149.053L110.965 149.116L111.461 149.178C111.741 146.97 110.118 145.181 107.992 144.882L107.923 145.377ZM38.3661 140.494L38.8598 140.573C39.2192 138.326 41.4421 136.539 43.6357 136.847L43.7053 136.352L43.7748 135.857C40.9835 135.464 38.3082 137.69 37.8724 140.415L38.3661 140.494Z" fill="#1A1A1A"/>
<rect x="103.761" y="63.58" width="32" height="24.5911" rx="8" transform="rotate(8 103.761 63.58)" fill="#ECECEE"/>
<path d="M123.575 135.298C128.645 134.544 133.452 133.72 137.979 132.841M185.144 112.362C184.598 108.691 175.901 108.831 162 108.5M62 139C72.7314 140.494 90.4298 139.309 110.427 137.028M147.179 130.892C166.726 126.383 179.613 120.88 183.743 116.037" stroke="#1A1A1A" stroke-linecap="round"/>
<path d="M120.739 101.154C124.44 100.629 128.061 100.055 131.579 99.4378M67.9999 87.0001C57.7639 90.7855 52.8394 94.2298 53.3118 97.5624C53.4773 98.7294 54.4267 99.7484 56.0582 100.614M64.3916 103.007C74.9514 104.719 92.1132 104.556 111.787 102.302M139.912 97.8604C150.891 95.6233 160.544 93.0026 168.037 90.288" stroke="#1A1A1A" stroke-linecap="round"/>
<path d="M167.319 83.4558L183.659 79.0242" stroke="#1A1A1A" stroke-width="0.531474"/>
<path d="M179.105 87.5713C179.226 85.8247 195.297 78.7981 203.317 75.5031L201.887 74.2223L172.608 83.1374C172.56 83.1457 172.515 83.1591 172.475 83.1779L172.608 83.1374C173.823 82.9282 177.404 85.9651 179.105 87.5713Z" fill="#62AE8B"/>
<path d="M204.785 75.0142C195.964 70.8227 182.661 70.6562 177.112 71.0969C166.072 79.9677 166.582 85.1149 166.449 87.3144C168.533 83.5126 192.916 77.5238 204.785 75.0142Z" fill="#B3D9C8"/>
<path d="M181.135 79.7651L167.433 83.0418L166.81 86.2785C166.801 86.2998 166.797 86.3199 166.798 86.3389L166.81 86.2785C167.2 85.3269 177.193 82.1154 182.25 80.5968C182.219 80.0323 181.685 79.6337 181.135 79.7651Z" fill="#B3D9C8"/>
<path d="M186.628 73.7726L174.083 73.8403C173.933 73.8412 173.79 73.9054 173.69 74.0172L171.019 76.9991C170.683 77.3736 171.007 77.9614 171.503 77.8778L187.484 75.181C187.717 75.1416 187.867 74.911 187.808 74.6819C187.669 74.1442 187.183 73.7696 186.628 73.7726Z" fill="#62AE8B"/>
<path d="M204.785 75.0145C198.59 71.1137 183.755 70.7776 177.112 71.0972L173.723 73.7301M204.785 75.0145C196.382 78.3979 179.819 85.5257 179.26 87.5643C179.247 87.6114 179.181 87.6395 179.144 87.607C177.407 86.0564 174.052 83.2114 173.75 83.5477M204.785 75.0145C196.353 77.0418 182.302 80.6678 173.75 83.5477M187.808 75.2673L169.88 78.019C167.819 80.0896 166.743 85.0778 166.453 87.2233C166.521 86.4521 169.421 85.0057 173.75 83.5477" stroke="#1A1A1A" stroke-linecap="round"/>
<path d="M43.4386 114.269C40.2063 116.237 34.4421 117.22 30.4264 116.863C29.8086 116.808 29.3042 117.408 29.5265 117.987C30.4535 120.402 32.1742 124.626 33.9767 128.462C36.7305 134.323 47.8811 128.478 53.0417 126.414C58.6906 124.155 63.8452 125.567 64.4101 125.143C64.975 124.719 60.6677 114.269 59.2555 111.939C57.8319 109.59 48.3108 111.303 43.4386 114.269Z" fill="white"/>
<path d="M46.7135 129.039C46.3625 129.174 46.0084 129.307 45.6527 129.436C40.819 131.187 35.6903 132.181 33.9428 128.462C32.1402 124.626 30.4196 120.402 29.4926 117.987C29.2703 117.408 29.7746 116.808 30.3924 116.863C34.4082 117.22 40.1724 116.237 43.4047 114.269C48.2768 111.303 57.798 109.59 59.2216 111.939C60.6338 114.269 64.9411 124.719 64.3762 125.143C63.8113 125.567 58.6567 124.155 53.0078 126.414C52.2129 126.732 51.276 127.14 50.2495 127.58C49.9053 127.728 49.551 127.88 49.1887 128.033" stroke="#1A1A1A" stroke-linecap="round"/>
<path d="M43.2634 111.051C40.1307 113.175 34.3994 113.7 30.3899 113.241C29.7737 113.17 29.2703 113.767 29.4926 114.346C30.4196 116.76 32.1402 120.984 33.9428 124.82C36.6966 130.681 47.8472 124.837 53.0078 122.773C58.6567 120.513 63.8113 121.925 64.3762 121.502C64.9411 121.078 60.6338 110.628 59.2216 108.297C58.624 107.312 56.8362 106.88 54.4926 107.029C54.262 107.043 54.0261 107.064 53.7854 107.09C53.441 107.127 53.0868 107.176 52.7246 107.236C52.4155 107.287 52.1005 107.347 51.7808 107.416C51.5427 107.467 51.3021 107.523 51.0592 107.583C50.9014 107.623 50.7426 107.664 50.5831 107.707C50.3555 107.769 50.1263 107.835 49.8959 107.905C49.5888 107.998 49.2794 108.099 48.9687 108.207C48.7776 108.273 48.5859 108.342 48.394 108.414C46.6605 109.064 44.9014 109.941 43.2634 111.051Z" fill="#B3D9C8"/>
<path d="M51.0592 107.583C50.9014 107.623 50.7426 107.664 50.5831 107.707M49.4018 108.061C49.2578 108.108 49.1134 108.157 48.9687 108.207C48.7776 108.273 48.5859 108.342 48.394 108.414C46.6605 109.064 44.9014 109.941 43.2634 111.051C40.1307 113.175 34.3994 113.7 30.3899 113.241C29.7737 113.17 29.2703 113.767 29.4926 114.346C30.4196 116.76 32.1402 120.984 33.9428 124.82C36.6966 130.681 47.8472 124.837 53.0078 122.773C58.6567 120.513 63.8113 121.925 64.3762 121.502C64.9411 121.078 60.6338 110.628 59.2216 108.297C58.624 107.312 56.8362 106.88 54.4926 107.029C54.262 107.043 54.0261 107.064 53.7854 107.09C53.6155 107.108 53.4433 107.129 53.2688 107.153" stroke="#1A1A1A" stroke-linecap="round"/>
<ellipse cx="47.0059" cy="117.406" rx="5.43706" ry="5.57828" fill="#62AE8B"/>
<path d="M47.712 113.523L47.9944 115.006C46.0173 115.006 44.8169 116.488 47.0765 116.277C50.9719 115.911 50.1834 119.454 48.7006 120.019L49.1949 121.078L47.9944 121.572L47.712 120.584C47.3166 120.81 46.3233 120.913 45.8761 120.937L45.6643 119.454C48.4887 119.242 49.1242 117.689 45.8055 117.971C43.4667 118.17 43.7578 115.076 45.17 114.441L44.8169 113.523L45.8761 113.028L46.1586 113.876C46.9494 113.593 47.5237 113.523 47.712 113.523Z" fill="white"/>
</svg>
