<svg width="200" height="200" viewBox="0 0 200 200" fill="none" xmlns="http://www.w3.org/2000/svg">
<path fill-rule="evenodd" clip-rule="evenodd" d="M102.723 0.0616752C140.076 1.00929 175.55 19.937 189.041 57.6938C205.301 103.204 206.867 160.396 170.056 188.511C134.233 215.873 88.9702 189.388 53.8869 160.924C20.8873 134.15 -9.88174 95.4084 3.00089 52.9742C15.7882 10.8539 61.8151 -0.976115 102.723 0.0616752Z" fill="#F2F9F6"/>
<path d="M155.801 99.5592C155.801 131.917 129.57 158.148 97.2128 158.148C64.8554 158.148 38.6245 131.917 38.6245 99.5592C38.6245 91.5643 40.2259 83.9434 43.1254 76.9998C51.9609 55.8408 72.8503 40.9709 97.2128 40.9709C129.57 40.9709 155.801 67.2018 155.801 99.5592Z" fill="white" stroke="white"/>
<path d="M145.572 99.5595C145.572 106.475 144.12 113.051 141.505 119C139.491 123.582 136.787 127.793 133.523 131.5C124.661 141.566 111.679 147.918 97.2131 147.918C70.5054 147.918 48.8545 126.267 48.8545 99.5595C48.8545 72.8518 70.5054 51.2009 97.2131 51.2009C123.921 51.2009 145.572 72.8518 145.572 99.5595Z" fill="white" stroke="white"/>
<circle cx="97.213" cy="99.5589" r="5.11485" fill="#CCD6DB"/>
<path d="M125.714 165.775L122.767 152.824L114.662 155.788L120.49 167.626C121.952 170.595 126.448 169.001 125.714 165.775Z" fill="white" stroke="#1A1A1A"/>
<path d="M42.1614 146.715L51.0458 136L57 142.444L45.9857 150.726C43.3412 152.714 40.0496 149.262 42.1614 146.715Z" fill="white" stroke="#1A1A1A"/>
<path d="M38.5 98.5C38.5 130.857 64.8554 158.148 97.2128 158.148C129.57 158.148 155.801 131.917 155.801 99.5592C155.801 67.2018 129.57 40.9709 97.2128 40.9709C72.8503 40.9709 51.9609 55.8408 43.1254 76.9998" stroke="#1A1A1A" stroke-linecap="round"/>
<path d="M141.505 119C144.12 113.051 145.572 106.475 145.572 99.5595C145.572 72.8518 123.921 51.2009 97.2131 51.2009C70.5054 51.2009 48.8545 72.8518 48.8545 99.5595C48.8545 126.267 70.5054 147.918 97.2131 147.918C111.679 147.918 124.661 141.566 133.523 131.5" stroke="#1A1A1A" stroke-linecap="round"/>
<path d="M95.0266 36.3138C97.9776 35.426 99.7012 32.2662 98.1763 29.5884C95.8926 25.5783 92.5132 22.252 88.3832 20.0324C82.5999 16.9242 75.8187 16.2406 69.5314 18.1322C63.2442 20.0238 57.9658 24.3355 54.8576 30.1188C52.6379 34.2488 51.6548 38.8875 51.9629 43.492C52.1687 46.5667 55.3496 48.2509 58.3006 47.3631L76.6636 41.8385L95.0266 36.3138Z" fill="white" stroke="#1A1A1A"/>
<path d="M126.897 43.915C124.627 41.8307 124.452 38.2357 126.991 36.4892C130.793 33.8738 135.283 32.3511 139.968 32.1515C146.527 31.8719 152.929 34.2097 157.765 38.6504C162.602 43.0912 165.476 49.2712 165.755 55.8309C165.955 60.5152 164.82 65.1192 162.537 69.1299C161.013 71.8082 157.416 71.9391 155.146 69.8548L141.022 56.8849L126.897 43.915Z" fill="white" stroke="#1A1A1A"/>
<path d="M102.353 66.6956C102.598 65.5853 103.696 64.8839 104.807 65.129C105.917 65.374 106.618 66.4727 106.373 67.5829L99.9238 96.8069L95.9032 95.9196L102.353 66.6956Z" fill="#CCD6DB"/>
<path d="M77.9347 114.129C76.9816 114.749 75.7064 114.479 75.0864 113.526C74.4664 112.573 74.7364 111.298 75.6895 110.678L92.5089 99.7363L94.7541 103.188L77.9347 114.129Z" fill="#CCD6DB"/>
<path opacity="0.7" d="M86.5 140.5C136.5 151.5 164.5 80.9998 107 57.4998C130.781 76.0522 148.5 122.5 86.5 140.5Z" fill="#F2F9F6"/>
<path d="M44.9316 25.38C46.206 23.5949 47.5528 21.8922 48.9654 20.2733M62.0001 10C59.0001 11 56.7461 12.6036 54.2766 14.8498" stroke="#1A1A1A" stroke-linecap="round"/>
<path d="M165.824 83.8883C166.367 86.0132 166.801 88.1404 167.128 90.2639M148.431 147.046C155.733 139.769 161.243 130.867 164.505 121.108M167.474 107.723C167.847 104.465 167.977 101.156 167.851 97.8204" stroke="#1A1A1A" stroke-linecap="round"/>
<ellipse cx="101" cy="187" rx="60" ry="4" fill="#CCD6DB"/>
<g clip-path="url(#clip0_2077_2830)">
<path d="M45.4482 85.2758C45.4482 82.3142 44.5997 79.5508 43.1325 77.2155M37.3879 71.8701C35.2666 70.7424 32.8458 70.1034 30.2758 70.1034C21.8963 70.1034 15.1034 76.8963 15.1034 85.2758C15.1034 93.6553 21.8963 100.448 30.2758 100.448C37.3455 100.448 43.2859 95.6129 44.9702 89.0689" stroke="#1A1A1A" stroke-linecap="round"/>
<ellipse cx="30.331" cy="85.3309" rx="14.1241" ry="14.1241" fill="#B3D9C8"/>
<path d="M30.5516 98.6165C30.5516 99.2015 30.0767 99.6799 29.4933 99.6361C26.8858 99.4402 24.3763 98.5234 22.2497 96.9783C20.1231 95.4332 18.4756 93.3298 17.4836 90.9105C17.2616 90.3692 17.5698 89.7697 18.1262 89.5889C18.6826 89.4081 19.2759 89.715 19.505 90.2533C20.354 92.2481 21.7304 93.9823 23.495 95.2643C25.2595 96.5463 27.3342 97.3194 29.4936 97.5104C30.0764 97.562 30.5516 98.0314 30.5516 98.6165Z" fill="#008146"/>
<path d="M32.0736 72.5758C32.1417 71.9947 32.6692 71.5749 33.2435 71.6864C34.9908 72.0256 36.6616 72.6927 38.1661 73.6557C39.6706 74.6187 40.976 75.8566 42.0157 77.3013C42.3575 77.7761 42.1971 78.4309 41.698 78.7361C41.1988 79.0413 40.5505 78.8808 40.2025 78.4105C39.3345 77.2374 38.258 76.23 37.0239 75.4401C35.7899 74.6502 34.4242 74.0945 32.9955 73.7975C32.4227 73.6784 32.0054 73.1568 32.0736 72.5758Z" fill="#F2F9F6"/>
<line x1="22.1877" y1="85.7206" x2="27.5161" y2="91.0491" stroke="white" stroke-width="2" stroke-linecap="round"/>
<line x1="27.5184" y1="91.0482" x2="37.904" y2="80.6627" stroke="white" stroke-width="2" stroke-linecap="round"/>
</g>
<defs>
<clipPath id="clip0_2077_2830">
<rect width="32" height="32" fill="white" transform="translate(14 69)"/>
</clipPath>
</defs>
</svg>
