<svg width="200" height="200" viewBox="0 0 200 200" fill="none" xmlns="http://www.w3.org/2000/svg">
<path fill-rule="evenodd" clip-rule="evenodd" d="M102.723 0.0616752C140.076 1.00929 175.55 19.937 189.041 57.6938C205.301 103.204 206.867 160.396 170.056 188.511C134.233 215.873 88.9702 189.388 53.8869 160.924C20.8873 134.15 -9.88174 95.4084 3.00089 52.9742C15.7882 10.8539 61.8151 -0.976115 102.723 0.0616752Z" fill="#F2F5F6"/>
<ellipse cx="100" cy="187" rx="60" ry="4" fill="#CCD6DB"/>
<path d="M36.4731 66.2328L26.5222 137.037C25.2924 145.787 31.3891 153.878 40.1397 155.108L41.7875 155.34L48.8937 156.338L145.108 169.86C153.859 171.09 161.949 164.993 163.179 156.243L170.903 101.283C172.133 92.5324 166.036 84.4417 157.286 83.2119L141.972 81.0597L123.934 78.5245L105.983 76.0017C100.615 75.2473 95.9934 71.8259 93.705 66.9116L91.7356 62.6822C89.4472 57.7679 84.8261 54.3465 79.4578 53.5921L55.2568 50.1908C47.1723 49.0546 39.5289 54.1874 37.5214 62.1007L36.4731 66.2328Z" fill="white"/>
<path d="M41.7875 155.34L40.1397 155.108C31.3891 153.878 25.2924 145.787 26.5222 137.037L36.4731 66.2328L37.5214 62.1007C39.5289 54.1874 47.1723 49.0546 55.2568 50.1908L79.4578 53.5921C84.8261 54.3465 89.4472 57.7679 91.7356 62.6822L93.705 66.9116C95.9934 71.8259 100.615 75.2473 105.983 76.0017L123.934 78.5245M48.8937 156.338L145.108 169.86C153.859 171.09 161.949 164.993 163.179 156.243L170.941 101.018C172.15 92.4136 166.155 84.4584 157.551 83.2492V83.2492L141.972 81.0597" stroke="#1A1A1A" stroke-linecap="round"/>
<path d="M66.2617 134.502L112.309 140.974M125.678 142.853L119.736 142.018" stroke="#ECECEE" stroke-width="4" stroke-linecap="round"/>
<path d="M165.748 138.932C165.51 138.793 165.429 138.487 165.568 138.248C165.707 138.01 166.013 137.929 166.252 138.068L166 138.5L165.748 138.932ZM179.254 159.669L179.31 159.172L179.254 159.669ZM19.6775 74.1049C19.4752 73.9169 19.4636 73.6006 19.6515 73.3983C19.8395 73.196 20.1559 73.1844 20.3582 73.3723L20.0178 73.7386L19.6775 74.1049ZM37.7011 61.0422C37.9539 61.1533 38.0688 61.4482 37.9578 61.7011C37.8468 61.9539 37.5518 62.0688 37.2989 61.9578L37.5 61.5L37.7011 61.0422ZM152.158 150.862C151.9 150.763 151.771 150.474 151.869 150.216C151.968 149.959 152.257 149.829 152.515 149.928L152.336 150.395L152.158 150.862ZM114.194 133.586C114.444 133.703 114.551 134.001 114.434 134.251C114.316 134.501 114.018 134.608 113.768 134.49L113.981 134.038L114.194 133.586ZM129.917 141.245L129.718 141.704C129.466 141.595 129.349 141.302 129.457 141.049C129.565 140.796 129.857 140.678 130.111 140.784L129.917 141.245ZM146.612 148.247L146.806 147.786C147.059 147.893 147.179 148.184 147.075 148.438C146.97 148.692 146.679 148.814 146.425 148.711L146.612 148.247ZM24.4841 77.7788L24.8146 77.4037L24.4841 77.7788ZM13.0928 66.3771C13.256 66.5998 13.2078 66.9127 12.9851 67.076C12.7624 67.2392 12.4495 67.191 12.2862 66.9683L12.6895 66.6727L13.0928 66.3771ZM20.3426 53.0657C20.6071 53.1452 20.7571 53.4239 20.6777 53.6884C20.5983 53.9529 20.3195 54.1029 20.055 54.0235L20.1988 53.5446L20.3426 53.0657ZM28.4602 57.631C28.2087 57.517 28.0972 57.2207 28.2113 56.9692C28.3253 56.7177 28.6216 56.6062 28.8731 56.7203L28.6666 57.1756L28.4602 57.631ZM166 138.5L166.252 138.068C171.493 141.126 179.904 147.011 184.485 151.874C185.631 153.091 186.558 154.265 187.134 155.333C187.699 156.382 187.982 157.436 187.644 158.345C187.296 159.283 186.37 159.863 185.017 160.147C183.656 160.433 181.744 160.451 179.199 160.166L179.254 159.669L179.31 159.172C181.815 159.452 183.604 159.422 184.811 159.168C186.025 158.913 186.535 158.461 186.707 157.997C186.89 157.503 186.779 156.783 186.253 155.807C185.738 154.85 184.877 153.749 183.757 152.559C179.271 147.797 170.952 141.968 165.748 138.932L166 138.5ZM179.254 159.669L179.199 160.166C175.893 159.797 171.94 158.539 167.432 156.85C162.942 155.169 157.775 153.009 152.158 150.862L152.336 150.395L152.515 149.928C158.208 152.105 163.26 154.22 167.783 155.914C172.287 157.601 176.138 158.818 179.31 159.172L179.254 159.669ZM146.612 148.247L146.425 148.711C142.429 147.091 134.02 143.569 129.718 141.704L129.917 141.245L130.116 140.787C134.41 142.649 142.812 146.167 146.8 147.784L146.612 148.247ZM129.917 141.245L130.111 140.784L146.806 147.786L146.612 148.247L146.419 148.708L129.724 141.706L129.917 141.245ZM113.981 134.038L113.768 134.49C84.0264 120.471 50.5715 101.434 24.1535 78.154L24.4841 77.7788L24.8146 77.4037C51.1334 100.596 84.4947 119.586 114.194 133.586L113.981 134.038ZM24.4841 77.7788L24.1535 78.154C22.6377 76.8183 21.145 75.4685 19.6775 74.1049L20.0178 73.7386L20.3582 73.3723C21.8191 74.7298 23.3052 76.0736 24.8146 77.4037L24.4841 77.7788ZM12.6895 66.6727L12.2862 66.9683C8.97795 62.4544 6.75613 59.0427 5.55075 56.5412C4.949 55.2924 4.58395 54.2373 4.47761 53.3652C4.37049 52.4867 4.52064 51.7309 5.02927 51.1766C5.52549 50.6359 6.27708 50.383 7.15584 50.3011C8.04114 50.2186 9.13147 50.3022 10.3979 50.5087C12.9324 50.922 16.2866 51.8478 20.3426 53.0657L20.1988 53.5446L20.055 54.0235C15.9943 52.8042 12.6986 51.8971 10.2369 51.4957C9.0053 51.2949 8.01105 51.2257 7.24864 51.2968C6.47968 51.3685 6.02044 51.5755 5.76609 51.8527C5.52414 52.1164 5.38399 52.5367 5.47025 53.2441C5.55728 53.9579 5.86926 54.8985 6.45162 56.1071C7.61444 58.5203 9.78913 61.8696 13.0928 66.3771L12.6895 66.6727ZM28.6666 57.1756L28.8731 56.7203C30.7396 57.5665 32.0869 58.2704 33.396 58.9499C34.7037 59.6287 35.9736 60.2834 37.7011 61.0422L37.5 61.5L37.2989 61.9578C35.54 61.1852 34.2462 60.5179 32.9353 59.8375C31.6259 59.1578 30.2998 58.4651 28.4602 57.631L28.6666 57.1756Z" fill="#1A1A1A"/>
<path d="M106.089 89.8418L88.1723 91.6622C87.2886 91.7519 86.5571 92.413 86.4837 93.2983C85.6686 103.131 94.1636 114.424 99.2916 119.64C99.7247 120.081 100.34 120.275 100.952 120.188L117.719 117.801C119.267 117.581 119.978 115.743 119.032 114.499C111.414 104.488 109.036 96.6654 108.702 92.2814C108.599 90.9337 107.433 89.7052 106.089 89.8418Z" fill="#B3D9C8"/>
<path d="M116.96 117.913C110.36 110.819 105.978 97.0783 104.555 90.4287L105.826 90.2249C107.007 90.0354 108.087 90.9196 108.264 92.1033C109.435 99.9384 114.748 108.875 118.905 114.203C119.758 115.295 119.37 116.939 118.085 117.458L116.96 117.913Z" fill="#F2F9F6"/>
<path d="M112.16 103.533C109.829 98.7363 108.902 94.8981 108.702 92.2829C108.599 90.9352 107.433 89.7052 106.089 89.8418L88.1723 91.6622C87.2886 91.7519 86.557 92.4133 86.4837 93.2986C86.3468 94.9502 86.4726 96.6431 86.801 98.3414M114.741 108.239C115.081 108.797 115.438 109.365 115.813 109.942M116.906 111.571C117.565 112.525 118.274 113.503 119.034 114.502C119.98 115.746 119.267 117.581 117.719 117.801L110.892 118.773M87.7663 101.899C90.2427 109.08 95.6239 115.909 99.2881 119.637C99.7212 120.077 100.34 120.275 100.952 120.188L107.658 119.234" stroke="#1A1A1A" stroke-linecap="round"/>
<path d="M91.9653 98.782L105.359 97.4212" stroke="#1A1A1A" stroke-linecap="round"/>
<path d="M93.1987 101.736L100.699 100.974M106.593 100.376L103.378 100.702" stroke="#1A1A1A" stroke-linecap="round"/>
</svg>
