<svg width="200" height="200" viewBox="0 0 200 200" fill="none" xmlns="http://www.w3.org/2000/svg">
<path fill-rule="evenodd" clip-rule="evenodd" d="M102.723 0.0616752C140.076 1.00929 175.55 19.937 189.041 57.6938C205.301 103.204 206.867 160.396 170.056 188.511C134.233 215.873 88.9702 189.388 53.8869 160.924C20.8873 134.15 -9.88174 95.4084 3.00089 52.9742C15.7882 10.8539 61.8151 -0.976115 102.723 0.0616752Z" fill="#F2F5F6"/>
<circle cx="99" cy="87" r="54" fill="white"/>
<path d="M153 87C153 116.823 128.823 141 99 141C69.1766 141 45 116.823 45 87C45 57.1766 69.1766 33 99 33C122.512 33 142.514 48.0265 149.927 69" stroke="#1A1A1A"/>
<path d="M54.3478 99C53.3232 95.1752 52.7769 91.1546 52.7769 87.0065C52.7769 61.4746 73.4745 40.777 99.0064 40.777C124.538 40.777 145.236 61.4746 145.236 87.0065C145.236 112.538 124.538 133.236 99.0064 133.236C82.8964 133.236 68.7111 124.996 60.4355 112.5" stroke="#1A1A1A" stroke-linecap="round"/>
<circle opacity="0.4" cx="99" cy="87" r="45" fill="#ECECEE"/>
<path d="M136.416 89.5C138.395 89.5 140.015 87.8927 139.852 85.9201C139.482 81.434 138.417 77.0253 136.689 72.8533C134.503 67.5756 131.298 62.7802 127.259 58.7409C123.22 54.7015 118.424 51.4973 113.147 49.3112C108.975 47.5831 104.566 46.518 100.08 46.1476C98.1073 45.9847 96.5 47.6046 96.5 49.584C96.5 51.5633 98.1084 53.1496 100.078 53.3445C103.622 53.6953 107.102 54.5658 110.404 55.9335C114.812 57.7594 118.817 60.4356 122.191 63.8093C125.564 67.1831 128.241 71.1883 130.066 75.5963C131.434 78.8984 132.305 82.378 132.655 85.9218C132.85 87.8916 134.437 89.5 136.416 89.5Z" fill="white"/>
<rect x="135.137" y="127.187" width="5.91282" height="16.2821" transform="rotate(-45 135.137 127.187)" stroke="#1A1A1A"/>
<path d="M150.128 135.344L147.073 138.399C145.723 139.749 145.723 141.938 147.073 143.287L157.676 153.89L164.378 160.592L169.342 165.556C170.692 166.906 172.88 166.906 174.23 165.556L177.285 162.501C178.635 161.151 178.635 158.963 177.285 157.613L155.016 135.344C153.667 133.994 151.478 133.994 150.128 135.344Z" fill="white"/>
<path d="M147.008 138.335L150.064 135.279C151.218 134.125 153.09 134.125 154.244 135.279L176.931 157.966C178.086 159.121 178.086 160.993 176.932 162.147L173.876 165.203C172.722 166.357 170.85 166.357 169.695 165.202L147.008 142.515L146.904 142.406C145.855 141.245 145.89 139.454 147.008 138.335Z" stroke="#1A1A1A" stroke-linecap="round"/>
<ellipse cx="106" cy="187" rx="46" ry="4" fill="#CCD6DB"/>
<g clip-path="url(#clip0_2077_2660)">
<circle cx="53.935" cy="61.935" r="14.935" fill="white"/>
<path d="M68.9333 62C68.9333 59.0851 68.0982 56.3652 66.6541 54.0667M61 48.8056C58.9121 47.6956 56.5295 47.0667 54 47.0667C45.7526 47.0667 39.0667 53.7525 39.0667 62C39.0667 70.2474 45.7526 76.9333 54 76.9333C60.9583 76.9333 66.8051 72.1742 68.4629 65.7333" stroke="#1A1A1A" stroke-linecap="round"/>
<ellipse cx="54" cy="62" rx="13.8667" ry="13.8667" fill="#B3D9C8"/>
<path d="M54 74.8266C54 75.401 53.5337 75.8707 52.961 75.8277C50.4011 75.6353 47.9372 74.7352 45.8494 73.2183C43.7616 71.7014 42.1442 69.6363 41.1702 67.2612C40.9523 66.7297 41.2549 66.1411 41.8011 65.9636C42.3474 65.7861 42.9299 66.0874 43.1548 66.6159C43.9883 68.5743 45.3396 70.277 47.072 71.5356C48.8043 72.7942 50.8412 73.5532 52.9613 73.7408C53.5335 73.7914 54 74.2523 54 74.8266Z" fill="#62AE8B"/>
<path d="M55.4941 49.2607C55.561 48.6902 56.0788 48.278 56.6427 48.3875C58.3581 48.7205 59.9984 49.3755 61.4755 50.3209C62.9526 51.2664 64.2342 52.4817 65.255 53.9001C65.5905 54.3663 65.433 55.0091 64.943 55.3087C64.453 55.6083 63.8164 55.4508 63.4748 54.989C62.6226 53.8374 61.5657 52.8483 60.3542 52.0728C59.1426 51.2973 57.8019 50.7517 56.3992 50.4601C55.8368 50.3432 55.4272 49.8311 55.4941 49.2607Z" fill="#F2F9F6"/>
<path d="M53.1751 65.6534C53.0376 65.6534 52.9261 65.542 52.9261 65.4045C52.9356 64.5001 53.0303 63.9441 53.2102 63.4091C53.3902 62.8741 53.6458 62.4408 53.9773 62.1094C54.3087 61.7779 54.7064 61.4725 55.1705 61.1932C55.4498 61.0227 55.7008 60.8215 55.9233 60.5895C56.1458 60.3527 56.321 60.0805 56.4489 59.7727C56.5814 59.465 56.6477 59.1241 56.6477 58.75C56.6477 58.286 56.5388 57.8835 56.321 57.5426C56.1032 57.2017 55.812 56.9389 55.4474 56.7543C55.0829 56.5696 54.678 56.4773 54.233 56.4773C53.8447 56.4773 53.4706 56.5578 53.1108 56.7188C52.7509 56.8797 52.4503 57.133 52.2088 57.4787C52.1004 57.6338 52.0126 57.8104 51.9452 58.0084C51.7923 58.458 51.421 58.8352 50.9462 58.8352C50.431 58.8352 50.0079 58.3997 50.1335 57.9C50.2383 57.4827 50.4022 57.1055 50.625 56.7685C51.0085 56.1955 51.5128 55.7576 52.1378 55.4545C52.7675 55.1515 53.4659 55 54.233 55C55.0663 55 55.7907 55.1657 56.4063 55.4972C57.0265 55.8286 57.5047 56.2831 57.8409 56.8608C58.1818 57.4384 58.3523 58.0966 58.3523 58.8352C58.3523 59.3561 58.2718 59.8272 58.1108 60.2486C57.9545 60.67 57.7273 61.0464 57.429 61.3778C57.1354 61.7093 56.7803 62.0028 56.3636 62.2585C55.947 62.5189 55.6132 62.7936 55.3622 63.0824C55.1113 63.3665 54.929 63.705 54.8153 64.098C54.7017 64.491 54.6402 64.8174 54.6307 65.4045C54.6307 65.542 54.5192 65.6534 54.3818 65.6534H53.1751Z" fill="white"/>
<circle cx="53.7046" cy="68.2444" r="1" fill="white"/>
</g>
<path d="M72.5641 25.9319C74.5748 25.0556 76.6053 24.2875 78.6491 23.6248M137.69 33.0021C129.34 26.9572 119.671 22.9416 109.516 21.2821M95.8277 20.4912C92.5525 20.6447 89.2656 21.0452 85.9927 21.7027" stroke="#1A1A1A" stroke-linecap="round"/>
<path d="M100 154C97.8067 154 95.6384 153.893 93.5 153.684M76.5 149.694C79.5638 150.861 82.737 151.807 86 152.512" stroke="#1A1A1A" stroke-linecap="round"/>
<defs>
<clipPath id="clip0_2077_2660">
<rect width="32" height="32" fill="white" transform="translate(38 46)"/>
</clipPath>
</defs>
</svg>
