<svg width="200" height="200" viewBox="0 0 200 200" fill="none" xmlns="http://www.w3.org/2000/svg">
<path fill-rule="evenodd" clip-rule="evenodd" d="M102.723 0.0616752C140.076 1.00929 175.55 19.937 189.041 57.6938C205.301 103.204 206.867 160.396 170.056 188.511C134.233 215.873 88.9702 189.388 53.8869 160.924C20.8873 134.15 -9.88174 95.4084 3.00089 52.9742C15.7882 10.8539 61.8151 -0.976115 102.723 0.0616752Z" fill="#F2F5F6"/>
<ellipse cx="106" cy="187" rx="46" ry="4" fill="#CCD6DB"/>
<rect x="67.3966" y="31.8735" width="100" height="125" rx="16" transform="rotate(8 67.3966 31.8735)" fill="white"/>
<path d="M65.1699 47.7178V47.7178C66.3997 38.9673 74.4904 32.8705 83.2409 34.1003L150.579 43.5641C159.33 44.7939 165.426 52.8846 164.197 61.6351L162.596 73.0232L161.344 81.9356L160.648 86.887L159.952 91.8383L155.29 125.012M64.2652 54.1546L52.2268 139.813C50.997 148.563 57.0937 156.654 65.8443 157.884L133.183 167.348C141.933 168.577 150.024 162.481 151.254 153.73L152.993 141.352" stroke="#1A1A1A" stroke-linecap="round"/>
<path d="M86.4579 111.804L126.069 117.371" stroke="#ECECEE" stroke-width="4" stroke-linecap="round"/>
<path d="M75.0939 120.81L121.141 127.282M134.51 129.161L128.568 128.326" stroke="#ECECEE" stroke-width="4" stroke-linecap="round"/>
<path d="M100.702 32.01L134.371 36.7419C138.473 37.3184 141.331 41.1109 140.754 45.2127L140.058 50.164C139.789 52.0782 138.019 53.4119 136.105 53.1429L94.5139 47.2976C92.5997 47.0286 91.2661 45.2587 91.5351 43.3446L92.2309 38.3932C92.8074 34.2914 96.5999 31.4335 100.702 32.01Z" fill="white" stroke="#1A1A1A"/>
<path d="M114.689 25.8971L122.611 27.0105C126.713 27.587 129.57 31.3795 128.994 35.4813L128.924 35.9764L106.148 32.7754L106.218 32.2803C106.794 28.1785 110.587 25.3206 114.689 25.8971Z" fill="white" stroke="#1A1A1A"/>
<path d="M56.6636 67.6659L60.6247 67.1092L73.6361 150.915C73.8065 152.012 73.0499 153.038 71.951 153.2L69.9353 153.497C68.8312 153.659 67.8077 152.887 67.6614 151.78L58.3458 81.3425L57.8834 77.583L57.421 73.8235L56.6636 67.6659Z" fill="#B3D9C8"/>
<path d="M65.9313 135.407C65.8742 134.987 65.83 134.599 65.7991 134.248L65.9313 135.407C66.6347 140.577 69.2919 150.43 72.9646 151.888L71.9362 153.368L68.4369 153.302L67.5132 149.283L65.9313 135.407Z" fill="#62AE8B"/>
<path d="M58.8603 81.27L59.7726 88.4524M58.3831 77.5126L57.9059 73.7552L57.1242 67.601L60.1778 67.1719L70.2781 130.833M60.2403 92.1346L67.8318 151.905C67.9723 153.011 68.9901 153.788 70.0942 153.633L71.7967 153.394C72.9043 153.238 73.6689 152.205 73.4937 151.1L70.9943 135.347" stroke="#1A1A1A" stroke-linecap="round" stroke-linejoin="round"/>
<path d="M59.8512 65.1982L60.1991 67.6739L57.2283 68.0914L56.8804 65.6157L59.8512 65.1982Z" fill="white" stroke="#1A1A1A"/>
<path d="M59.4451 64.2455L57.0081 64.588L57.8413 61.6751L59.4451 64.2455Z" fill="#1A1A1A" stroke="#1A1A1A"/>
<path d="M57.5483 60.8369C57.5984 60.6798 57.8063 60.6474 57.9018 60.7818L58.5539 61.6987C58.5974 61.7598 58.5606 61.8453 58.4864 61.8557L57.3214 62.0194C57.2485 62.0297 57.1899 61.9602 57.2123 61.89L57.5483 60.8369Z" fill="#F2F9F6"/>
<path d="M68.6276 127.084L65.2687 105.34" stroke="#F2F9F6" stroke-linecap="round"/>
<path d="M113.575 138.668C118.645 137.915 123.453 137.09 127.979 136.211M175.144 115.732C174.598 112.061 172.982 109.532 159.081 109.201M42.0059 140.398C52.7374 141.892 80.4298 142.679 100.427 140.398M137.179 134.262C156.726 129.753 169.614 124.251 173.743 119.408" stroke="#1A1A1A" stroke-linecap="round"/>
<path d="M110.739 101.154C114.44 100.63 118.061 100.055 121.579 99.4379M59.7133 86.5923C49.4773 90.3778 42.8394 94.2299 43.3119 97.5625C43.4773 98.7296 44.4268 99.7486 46.0583 100.614M54.3916 103.008C64.9515 104.719 82.1133 104.557 101.787 102.302M129.912 97.8605C140.891 95.6235 150.544 93.0027 158.037 90.2882" stroke="#1A1A1A" stroke-linecap="round"/>
<g clip-path="url(#clip0_2077_2651)">
<path d="M127.397 80.5789C127.809 77.6461 127.353 74.7915 126.225 72.2747M121.281 66.1819C119.337 64.7699 117.029 63.8002 114.484 63.4425C106.186 62.2763 98.5135 68.0577 97.3473 76.3557C96.1811 84.6536 101.962 92.3258 110.26 93.492C117.261 94.476 123.817 90.5144 126.396 84.2685" stroke="#1A1A1A" stroke-linecap="round"/>
<ellipse cx="112.419" cy="78.5296" rx="14.1241" ry="14.1241" transform="rotate(8 112.419 78.5296)" fill="#B3D9C8"/>
<path d="M110.789 91.7166C110.707 92.2959 110.17 92.7036 109.599 92.579C107.044 92.0221 104.686 90.765 102.795 88.939C100.904 87.113 99.5658 84.8007 98.9201 82.2669C98.7756 81.7 99.1643 81.1492 99.7404 81.0476C100.317 80.946 100.861 81.3325 101.013 81.8975C101.576 83.9909 102.698 85.8999 104.267 87.415C105.836 88.9301 107.783 89.9844 109.895 90.4741C110.465 90.6063 110.87 91.1373 110.789 91.7166Z" fill="#62AE8B"/>
<path d="M115.92 66.141C116.068 65.5751 116.649 65.2328 117.202 65.4231C118.885 66.0022 120.447 66.8953 121.803 68.0583C123.158 69.2214 124.279 70.6289 125.107 72.2042C125.38 72.722 125.13 73.3481 124.593 73.5808C124.056 73.8136 123.437 73.5644 123.158 73.0503C122.461 71.7678 121.535 70.6204 120.423 69.6664C119.311 68.7125 118.036 67.9721 116.663 67.4791C116.112 67.2815 115.771 66.7069 115.92 66.141Z" fill="#F2F9F6"/>
<line x1="104.301" y1="77.782" x2="108.836" y2="83.8003" stroke="white" stroke-width="2" stroke-linecap="round"/>
<line x1="108.838" y1="83.7996" x2="120.568" y2="74.9605" stroke="white" stroke-width="2" stroke-linecap="round"/>
</g>
<path d="M157.057 81.4459L173.986 81.6558" stroke="#1A1A1A" stroke-width="0.531474"/>
<path d="M167.266 88.6299C167.861 86.9833 185.241 84.6235 193.857 83.6494L192.832 82.0263L162.231 82.5871C162.182 82.5819 162.136 82.5826 162.092 82.5897L162.231 82.5871C163.456 82.7184 166.07 86.6196 167.266 88.6299Z" fill="#62AE8B"/>
<path d="M195.402 83.581C188.066 77.1353 175.316 73.3341 169.858 72.2392C156.812 77.7498 155.894 82.84 155.164 84.9189C158.209 81.8328 183.3 82.7461 195.402 83.581Z" fill="#B3D9C8"/>
<path d="M171.355 81.6775L157.279 81.0787L155.794 84.0213C155.78 84.0394 155.771 84.0577 155.767 84.0762L155.794 84.0213C156.431 83.213 166.921 82.8592 172.201 82.7827C172.325 82.2313 171.92 81.7015 171.355 81.6775Z" fill="#F2F9F6"/>
<path d="M178.279 77.4172L166.194 74.0489C166.05 74.0086 165.895 74.0313 165.768 74.1114L162.382 76.2482C161.957 76.5166 162.108 77.1707 162.608 77.2259L178.716 79.0061C178.952 79.0321 179.159 78.8513 179.165 78.6147C179.178 78.0597 178.813 77.5663 178.279 77.4172Z" fill="#62AE8B"/>
<path d="M195.403 83.5813C190.512 78.1339 176.335 73.7503 169.859 72.2395L165.878 73.8441M195.403 83.5813C186.395 84.5356 168.513 86.8579 167.417 88.6656C167.392 88.7074 167.321 88.7163 167.294 88.675C166.048 86.708 163.599 83.0534 163.218 83.2945M195.403 83.5813C186.738 83.2234 172.231 82.8651 163.218 83.2945M179.005 79.1777L161.008 76.9176C158.459 78.345 156.059 82.8483 155.193 84.8325C155.469 84.1091 158.655 83.5118 163.218 83.2945" stroke="#1A1A1A" stroke-linecap="round"/>
<defs>
<clipPath id="clip0_2077_2651">
<rect width="32" height="32" fill="white" transform="translate(98.5197 60.0847) rotate(8)"/>
</clipPath>
</defs>
</svg>
