<?xml version="1.0" encoding="UTF-8"?>
<svg width="31px" height="23px" viewBox="0 0 31 23" version="1.1" xmlns="http://www.w3.org/2000/svg" xmlns:xlink="http://www.w3.org/1999/xlink">
    <!-- Generator: sketchtool 50.2 (55047) - http://www.bohemiancoding.com/sketch -->
    <title>5034532E-F274-464C-AE60-F30777BF9BEB</title>
    <desc>Created with sketchtool.</desc>
    <defs></defs>
    <g id="Symbols" stroke="none" stroke-width="1" fill="none" fill-rule="evenodd">
        <g id="Card---Settings-(Usage-Expanded)" transform="translate(-29.000000, -70.000000)" 000" fill-rule="nonzero">
            <g id="gmail" transform="translate(29.000000, 70.000000)">
                <path d="M23.8903513,10.9826023 C23.6681018,10.6940818 23.265175,10.649511 22.9906387,10.8830415 L22.7680218,11.0722585 C22.4934242,11.3057891 22.451056,11.7289868 22.6733667,12.0174431 C22.7998592,12.1815126 22.9845773,12.2666667 23.1710098,12.2666667 C23.3123801,12.2666667 23.45473,12.2176581 23.5731406,12.1169396 L23.7956963,11.9277226 C24.0702326,11.694192 24.1126621,11.2710586 23.8903513,10.9826023 Z" id="Shape"></path>
                <path d="M21.6517883,12.4879512 C21.4521796,12.2318339 21.0902993,12.1922687 20.8437302,12.3995148 L16.7356388,15.8064574 C16.4890148,16.0137606 16.4509626,16.3893727 16.6506264,16.6454329 C16.764123,16.7910761 16.9300787,16.8666667 17.0975191,16.8666667 C17.2244879,16.8666667 17.3523364,16.8231621 17.4586845,16.7338122 L21.5667759,13.3268696 C21.8133449,13.1196235 21.8514521,12.7440685 21.6517883,12.4879512 Z" id="Shape"></path>
                <path d="M26.388169,0 L3.65292685,0 C1.63870658,0 0,1.66144722 0,3.70355972 L0,19.2964403 C0,21.3386123 1.63870658,23 3.65292685,23 L26.388169,23 C28.402448,23 30.0410959,21.3386123 30.0410959,19.2964403 L30.0410959,3.70355972 C30.0410959,1.66144722 28.402448,0 26.388169,0 Z M24.6379232,1.24312587 L15.0122749,9.13174319 L5.38662666,1.24312587 L24.6379232,1.24312587 Z M25.1198715,21.7568146 L4.9046783,21.7568146 L4.9046783,7.23954106 L14.6276667,15.180627 C14.8521535,15.3639698 15.1723963,15.3639698 15.3968831,15.180627 L25.1198715,7.23954106 L25.1198715,21.7568146 Z M28.8149263,19.2963808 C28.8149263,20.6530697 27.7262886,21.7567551 26.388169,21.7567551 L26.3460998,21.7567551 L26.3460998,5.94061521 C26.3460998,5.701294 26.2106215,5.48326958 25.9976348,5.37993849 C25.7845308,5.27654792 25.5321152,5.30647051 25.3484068,5.45655936 L15.0122749,13.8984174 L4.67614301,5.45655936 C4.49225864,5.30647051 4.23972568,5.27654792 4.02691503,5.37993849 C3.81392835,5.48326958 3.67845005,5.701294 3.67845005,5.94061521 L3.67845005,21.7567551 L3.65286818,21.7567551 C2.31480726,21.7568146 1.22616957,20.6530697 1.22616957,19.2964403 L1.22616957,3.70355972 C1.22616957,2.41706692 2.20532154,1.35865205 3.44762647,1.25264399 L14.626904,10.4145477 C14.7392647,10.506695 14.8757991,10.5527389 15.0122749,10.5527389 C15.1488093,10.5527389 15.2852851,10.506695 15.3976458,10.4145477 L26.5783315,1.25139474 C27.8277947,1.35014523 28.8149263,2.41183195 28.8149263,3.70350024 L28.8149263,19.2963808 Z" id="Shape"></path>
            </g>
        </g>
    </g>
</svg>