<?xml version="1.0" encoding="UTF-8"?>
<svg width="35px" height="32px" viewBox="0 0 35 32" version="1.1" xmlns="http://www.w3.org/2000/svg" xmlns:xlink="http://www.w3.org/1999/xlink">
    <!-- Generator: sketchtool 50.2 (55047) - http://www.bohemiancoding.com/sketch -->
    <title>DFCFF097-DF09-42E8-8EED-118ED26EA9D4</title>
    <desc>Created with sketchtool.</desc>
    <defs></defs>
    <g id="Symbols" stroke="none" stroke-width="1" fill="none" fill-rule="evenodd">
        <g id="Card---Settings-(Usage-Expanded)" transform="translate(-29.000000, -201.000000)" fill="#000000" fill-rule="nonzero">
            <g id="outlook" transform="translate(29.000000, 201.000000)">
                <path d="M18.5343672,0.244022279 C18.2947801,0.0434806659 17.9774324,-0.0397227691 17.6705929,0.017879609 L0.857469305,3.21801173 C0.359380518,3.31188227 0,3.75136708 0,4.26552164 L0,27.7331572 C0,28.2451783 0.359380518,28.6867965 0.857469305,28.7806671 L17.6705929,31.9807992 C17.7336421,31.9935997 17.8008946,32 17.8639439,32 C18.1056325,32 18.3452195,31.9146631 18.5343672,31.7546565 C18.7760558,31.5519815 18.9147641,31.2490357 18.9147641,30.9332893 L18.9147641,1.06538952 C18.9147641,0.747509732 18.7760558,0.446697313 18.5343672,0.244022279 Z M17.2728575,30.8653627 L1.24784902,27.8163987 L1.24784902,4.18228011 L17.2728575,1.13331614 L17.2728575,30.8653627 Z" id="Shape"></path>
                <path d="M9.83567732,10.6666667 C6.91644829,10.6666667 4.53954338,13.5723175 4.53954338,17.1428571 C4.53954338,20.7133968 6.91644829,23.6190476 9.83567732,23.6190476 C12.7549064,23.6190476 15.1318113,20.7133968 15.1318113,17.1428571 C15.1318113,13.5723175 12.7549064,10.6666667 9.83567732,10.6666667 Z M9.901879,22.1124339 C7.89442356,22.1124339 6.26078691,19.893664 6.26078691,17.1653439 C6.26078691,14.4370238 7.89442356,12.218254 9.901879,12.218254 C11.9093344,12.218254 13.5429711,14.4370238 13.5429711,17.1653439 C13.5429711,19.893664 11.9093344,22.1124339 9.901879,22.1124339 Z" id="Shape"></path>
                <path d="M33.0062633,6.12378826 L18.441895,6.12378826 C17.8676427,6.12378826 17.401583,5.93678099 17.401583,6.51999009 C17.401583,7.10319919 17.8676427,7.57652832 18.441895,7.57652832 L32.6161463,7.57652832 L32.6161463,23.556669 L18.441895,23.556669 C17.8676427,23.556669 17.401583,24.0299981 17.401583,24.6132072 C17.401583,25.1964163 17.8676427,25.1414763 18.441895,25.1414763 L33.0062633,25.1414763 C33.5805156,25.1414763 34.0465753,24.6681472 34.0465753,24.0849381 C34.0465753,19.2943923 34.0465753,15.7014831 34.0465753,13.3062102 C34.0465753,11.9449027 34.0465753,9.90294146 34.0465753,7.18032648 C34.0465753,6.59711738 33.5805156,6.12378826 33.0062633,6.12378826 Z" id="Shape"></path>
                <path d="M33.0740556,7.27894126 C32.7248821,6.80310825 32.0837096,6.71579944 31.6426483,7.0890446 L23.0194908,14.2570979 L18.9697922,11.1991068 C18.4981016,10.8782469 17.8650969,11.0266719 17.5608463,11.5352457 C17.2586376,12.0438196 17.3995322,12.03618 17.8732647,12.3592226 L22.5314646,15.8297478 C22.6989045,15.9432493 22.8908479,16 23.0807493,16 C23.30128,16 23.5238526,15.9236048 23.7055862,15.7686317 L32.894364,8.12911079 C33.3415512,7.75804835 33.4211872,7.75477427 33.0740556,7.27894126 Z" id="Shape"></path>
            </g>
        </g>
    </g>
</svg>