<?xml version="1.0" encoding="UTF-8"?>
<svg width="24px" height="37px" viewBox="0 0 24 37" version="1.1" xmlns="http://www.w3.org/2000/svg" xmlns:xlink="http://www.w3.org/1999/xlink">
    <!-- Generator: Sketch 50.2 (55047) - http://www.bohemiancoding.com/sketch -->
    <title>smartphone</title>
    <desc>Created with Sketch.</desc>
    <defs></defs>
    <g id="Symbols" stroke="none" stroke-width="1" fill="none" fill-rule="evenodd">
        <g id="Card---Settings-(Usage-Expanded)" transform="translate(-32.000000, -128.000000)" fill="#000000" fill-rule="nonzero">
            <g id="smartphone" transform="translate(32.000000, 128.000000)">
                <path d="M21.6411038,0 L2.35881743,0 C1.05809112,0 0,1.05081089 0,2.34249131 L0,34.6575087 C0,35.9491109 1.05816993,37 2.35889623,37 L21.6411038,37 C22.9418301,37 24,35.9491891 24,34.6575087 L24,2.34249131 C23.9999212,1.05081089 22.9418301,0 21.6411038,0 Z M1.18204862,5.88760861 L22.8179514,5.88760861 L22.8179514,30.3569939 L1.18204862,30.3569939 L1.18204862,5.88760861 Z M2.35881743,1.17382808 L21.6411038,1.17382808 C22.2899697,1.17382808 22.8179514,1.69805969 22.8179514,2.34249131 L22.8179514,5.10505656 L1.18204862,5.10505656 L1.18204862,2.34249131 C1.18204862,1.69805969 1.70995154,1.17382808 2.35881743,1.17382808 Z M21.6411038,35.8260937 L2.35881743,35.8260937 C1.70995154,35.8260937 1.18196982,35.3018621 1.18196982,34.6574304 L1.18196982,31.1394677 L22.8178726,31.1394677 L22.8178726,34.6574304 C22.8178726,35.3018621 22.2899697,35.8260937 21.6411038,35.8260937 Z" id="Shape"></path>
                <path d="M12,32 C10.8971666,32 10,32.8972297 10,34.0000407 C10,35.1028517 10.897248,36 12,36 C13.102752,36 14,35.1027703 14,34.0000407 C14,32.8973112 13.1028334,32 12,32 Z M12,35.1858169 C11.3461163,35.1858169 10.8141996,34.6538297 10.8141996,34.0000407 C10.8141996,33.3461703 11.3461163,32.8141831 12,32.8141831 C12.6538837,32.8141831 13.1858004,33.3461703 13.1858004,34.0000407 C13.1858004,34.6538297 12.6538837,35.1858169 12,35.1858169 Z" id="Shape"></path>
                <path d="M9.38461538,4 L14.6153846,4 C14.8278462,4 15,3.7761 15,3.5 C15,3.2239 14.8278462,3 14.6153846,3 L9.38461538,3 C9.17215385,3 9,3.2239 9,3.5 C9,3.7761 9.17215385,4 9.38461538,4 Z" id="Shape"></path>
                <path d="M8.5,4 C8.631,4 8.76,3.947 8.853,3.854 C8.946,3.76 9,3.632 9,3.5 C9,3.368 8.946,3.24 8.853,3.146 C8.7599,3.053 8.6309,3 8.5,3 C8.368,3 8.2399,3.053 8.146,3.146 C8.053,3.239 8,3.368 8,3.5 C8,3.632 8.053,3.76 8.146,3.854 C8.239,3.947 8.368,4 8.5,4 Z" id="Shape"></path>
            </g>
        </g>
    </g>
</svg>