<?xml version="1.0" encoding="UTF-8"?>
<svg width="40px" height="25px" viewBox="0 0 40 25" version="1.1" xmlns="http://www.w3.org/2000/svg" xmlns:xlink="http://www.w3.org/1999/xlink">
    <!-- Generator: sketchtool 50.2 (55047) - http://www.bohemiancoding.com/sketch -->
    <title>8D3D6642-01D5-4640-AED2-1F400FAB1261</title>
    <desc>Created with sketchtool.</desc>
    <defs></defs>
    <g id="Symbols" stroke="none" stroke-width="1" fill="none" fill-rule="evenodd">
        <g id="Card---Settings-(Usage-Expanded)" transform="translate(-27.000000, -259.000000)" fill="#000000" fill-rule="nonzero">
            <g id="notebook-computer" transform="translate(27.000000, 259.000000)">
                <path d="M3.73160697,22.6894057 L35.3218177,22.6894057 C35.9753989,22.6894057 36.5064548,22.1577286 36.5064548,21.5041383 L36.5064548,1.18526746 C36.5064548,0.53167712 35.9753989,0 35.3218177,0 L3.73160697,0 C3.07836421,0 2.54696984,0.53167712 2.54696984,1.18526746 L2.54696984,21.5041383 C2.54696984,22.1577286 3.07870267,22.6894057 3.73160697,22.6894057 Z M3.56237309,1.18526746 C3.56237309,1.09180066 3.63818987,1.01594354 3.73160697,1.01594354 L35.3218177,1.01594354 C35.4152348,1.01594354 35.4910516,1.09180066 35.4910516,1.18526746 L35.4910516,21.5041383 C35.4910516,21.5976051 35.4152348,21.6734622 35.3218177,21.6734622 L3.73160697,21.6734622 C3.63818987,21.6734622 3.56237309,21.5976051 3.56237309,21.5041383 L3.56237309,1.18526746 Z M39.0534247,23.5963047 L39.0534247,24.5448573 C39.0534247,24.796134 38.8496671,25 38.598524,25 L0.454900659,25 C0.203757587,25 0,24.796134 0,24.5448573 L0,23.5963047 L16.0389714,23.5963047 C16.1181728,23.8607886 16.3605157,24.0548339 16.6505826,24.0548339 L22.4031805,24.0548339 C22.6929089,24.0548339 22.9352518,23.8611273 23.0147917,23.5963047 L39.0534247,23.5963047 Z" id="Shape"></path>
            </g>
        </g>
    </g>
</svg>